G04 #@! TF.GenerationSoftware,KiCad,Pcbnew,(5.0.1-3-g963ef8bb5)*
G04 #@! TF.CreationDate,2020-09-15T14:43:14+02:00*
G04 #@! TF.ProjectId,trackix,747261636B69782E6B696361645F7063,rev?*
G04 #@! TF.SameCoordinates,Original*
G04 #@! TF.FileFunction,Soldermask,Bot*
G04 #@! TF.FilePolarity,Negative*
%FSLAX46Y46*%
G04 Gerber Fmt 4.6, Leading zero omitted, Abs format (unit mm)*
G04 Created by KiCad (PCBNEW (5.0.1-3-g963ef8bb5)) date 2020 September 15, Tuesday 14:43:14*
%MOMM*%
%LPD*%
G01*
G04 APERTURE LIST*
%ADD10C,0.100000*%
G04 APERTURE END LIST*
D10*
G36*
X153557095Y-136700000D02*
X142932095Y-136700000D01*
X142932095Y-128700000D01*
X153557095Y-128700000D01*
X153557095Y-136700000D01*
X153557095Y-136700000D01*
G37*
G36*
X180401000Y-128351000D02*
X179299000Y-128351000D01*
X179299000Y-127249000D01*
X180401000Y-127249000D01*
X180401000Y-128351000D01*
X180401000Y-128351000D01*
G37*
G36*
X182751000Y-128351000D02*
X181649000Y-128351000D01*
X181649000Y-127249000D01*
X182751000Y-127249000D01*
X182751000Y-128351000D01*
X182751000Y-128351000D01*
G37*
G36*
X151701000Y-125751000D02*
X150599000Y-125751000D01*
X150599000Y-124649000D01*
X151701000Y-124649000D01*
X151701000Y-125751000D01*
X151701000Y-125751000D01*
G37*
G36*
X212771680Y-123219520D02*
X212837864Y-123226038D01*
X212951090Y-123260385D01*
X213007704Y-123277558D01*
X213146324Y-123351653D01*
X213164228Y-123361223D01*
X213199966Y-123390553D01*
X213301423Y-123473815D01*
X213384685Y-123575272D01*
X213414015Y-123611010D01*
X213414016Y-123611012D01*
X213497680Y-123767534D01*
X213497680Y-123767535D01*
X213549200Y-123937374D01*
X213566596Y-124114001D01*
X213549200Y-124290628D01*
X213514853Y-124403854D01*
X213497680Y-124460468D01*
X213423585Y-124599088D01*
X213414015Y-124616992D01*
X213384685Y-124652730D01*
X213301423Y-124754187D01*
X213199966Y-124837449D01*
X213164228Y-124866779D01*
X213164226Y-124866780D01*
X213007704Y-124950444D01*
X212951090Y-124967617D01*
X212837864Y-125001964D01*
X212771679Y-125008483D01*
X212705497Y-125015001D01*
X212616977Y-125015001D01*
X212550795Y-125008483D01*
X212484610Y-125001964D01*
X212371384Y-124967617D01*
X212314770Y-124950444D01*
X212158248Y-124866780D01*
X212158246Y-124866779D01*
X212122508Y-124837449D01*
X212021051Y-124754187D01*
X211937789Y-124652730D01*
X211908459Y-124616992D01*
X211898889Y-124599088D01*
X211824794Y-124460468D01*
X211807621Y-124403854D01*
X211773274Y-124290628D01*
X211755878Y-124114001D01*
X211773274Y-123937374D01*
X211824794Y-123767535D01*
X211824794Y-123767534D01*
X211908458Y-123611012D01*
X211908459Y-123611010D01*
X211937789Y-123575272D01*
X212021051Y-123473815D01*
X212122508Y-123390553D01*
X212158246Y-123361223D01*
X212176150Y-123351653D01*
X212314770Y-123277558D01*
X212371384Y-123260385D01*
X212484610Y-123226038D01*
X212550794Y-123219520D01*
X212616977Y-123213001D01*
X212705497Y-123213001D01*
X212771680Y-123219520D01*
X212771680Y-123219520D01*
G37*
G36*
X212771679Y-120679519D02*
X212837864Y-120686038D01*
X212951090Y-120720385D01*
X213007704Y-120737558D01*
X213146324Y-120811653D01*
X213164228Y-120821223D01*
X213199966Y-120850553D01*
X213301423Y-120933815D01*
X213384685Y-121035272D01*
X213414015Y-121071010D01*
X213414016Y-121071012D01*
X213497680Y-121227534D01*
X213497680Y-121227535D01*
X213549200Y-121397374D01*
X213566596Y-121574001D01*
X213549200Y-121750628D01*
X213514853Y-121863854D01*
X213497680Y-121920468D01*
X213423585Y-122059088D01*
X213414015Y-122076992D01*
X213384685Y-122112730D01*
X213301423Y-122214187D01*
X213199966Y-122297449D01*
X213164228Y-122326779D01*
X213164226Y-122326780D01*
X213007704Y-122410444D01*
X212951090Y-122427617D01*
X212837864Y-122461964D01*
X212771680Y-122468482D01*
X212705497Y-122475001D01*
X212616977Y-122475001D01*
X212550794Y-122468482D01*
X212484610Y-122461964D01*
X212371384Y-122427617D01*
X212314770Y-122410444D01*
X212158248Y-122326780D01*
X212158246Y-122326779D01*
X212122508Y-122297449D01*
X212021051Y-122214187D01*
X211937789Y-122112730D01*
X211908459Y-122076992D01*
X211898889Y-122059088D01*
X211824794Y-121920468D01*
X211807621Y-121863854D01*
X211773274Y-121750628D01*
X211755878Y-121574001D01*
X211773274Y-121397374D01*
X211824794Y-121227535D01*
X211824794Y-121227534D01*
X211908458Y-121071012D01*
X211908459Y-121071010D01*
X211937789Y-121035272D01*
X212021051Y-120933815D01*
X212122508Y-120850553D01*
X212158246Y-120821223D01*
X212176150Y-120811653D01*
X212314770Y-120737558D01*
X212371384Y-120720385D01*
X212484610Y-120686038D01*
X212550795Y-120679519D01*
X212616977Y-120673001D01*
X212705497Y-120673001D01*
X212771679Y-120679519D01*
X212771679Y-120679519D01*
G37*
G36*
X184562237Y-122315001D02*
X182760237Y-122315001D01*
X182760237Y-120513001D01*
X184562237Y-120513001D01*
X184562237Y-122315001D01*
X184562237Y-122315001D01*
G37*
G36*
X212771679Y-118139519D02*
X212837864Y-118146038D01*
X212951090Y-118180385D01*
X213007704Y-118197558D01*
X213146324Y-118271653D01*
X213164228Y-118281223D01*
X213199966Y-118310553D01*
X213301423Y-118393815D01*
X213384685Y-118495272D01*
X213414015Y-118531010D01*
X213414016Y-118531012D01*
X213497680Y-118687534D01*
X213497680Y-118687535D01*
X213549200Y-118857374D01*
X213566596Y-119034001D01*
X213549200Y-119210628D01*
X213546215Y-119220467D01*
X213497680Y-119380468D01*
X213426205Y-119514186D01*
X213414015Y-119536992D01*
X213384685Y-119572730D01*
X213301423Y-119674187D01*
X213199966Y-119757449D01*
X213164228Y-119786779D01*
X213164226Y-119786780D01*
X213007704Y-119870444D01*
X212951090Y-119887617D01*
X212837864Y-119921964D01*
X212771680Y-119928482D01*
X212705497Y-119935001D01*
X212616977Y-119935001D01*
X212550794Y-119928482D01*
X212484610Y-119921964D01*
X212371384Y-119887617D01*
X212314770Y-119870444D01*
X212158248Y-119786780D01*
X212158246Y-119786779D01*
X212122508Y-119757449D01*
X212021051Y-119674187D01*
X211937789Y-119572730D01*
X211908459Y-119536992D01*
X211896269Y-119514186D01*
X211824794Y-119380468D01*
X211776259Y-119220467D01*
X211773274Y-119210628D01*
X211755878Y-119034001D01*
X211773274Y-118857374D01*
X211824794Y-118687535D01*
X211824794Y-118687534D01*
X211908458Y-118531012D01*
X211908459Y-118531010D01*
X211937789Y-118495272D01*
X212021051Y-118393815D01*
X212122508Y-118310553D01*
X212158246Y-118281223D01*
X212176150Y-118271653D01*
X212314770Y-118197558D01*
X212371384Y-118180385D01*
X212484610Y-118146038D01*
X212550795Y-118139519D01*
X212616977Y-118133001D01*
X212705497Y-118133001D01*
X212771679Y-118139519D01*
X212771679Y-118139519D01*
G37*
G36*
X183771679Y-117979519D02*
X183837864Y-117986038D01*
X183951090Y-118020385D01*
X184007704Y-118037558D01*
X184146324Y-118111653D01*
X184164228Y-118121223D01*
X184178579Y-118133001D01*
X184301423Y-118233815D01*
X184384685Y-118335272D01*
X184414015Y-118371010D01*
X184414016Y-118371012D01*
X184497680Y-118527534D01*
X184497680Y-118527535D01*
X184549200Y-118697374D01*
X184566596Y-118874001D01*
X184549200Y-119050628D01*
X184514853Y-119163854D01*
X184497680Y-119220468D01*
X184423585Y-119359088D01*
X184414015Y-119376992D01*
X184411163Y-119380467D01*
X184301423Y-119514187D01*
X184199966Y-119597449D01*
X184164228Y-119626779D01*
X184164226Y-119626780D01*
X184007704Y-119710444D01*
X183951090Y-119727617D01*
X183837864Y-119761964D01*
X183771679Y-119768483D01*
X183705497Y-119775001D01*
X183616977Y-119775001D01*
X183550795Y-119768483D01*
X183484610Y-119761964D01*
X183371384Y-119727617D01*
X183314770Y-119710444D01*
X183158248Y-119626780D01*
X183158246Y-119626779D01*
X183122508Y-119597449D01*
X183021051Y-119514187D01*
X182911311Y-119380467D01*
X182908459Y-119376992D01*
X182898889Y-119359088D01*
X182824794Y-119220468D01*
X182807621Y-119163854D01*
X182773274Y-119050628D01*
X182755878Y-118874001D01*
X182773274Y-118697374D01*
X182824794Y-118527535D01*
X182824794Y-118527534D01*
X182908458Y-118371012D01*
X182908459Y-118371010D01*
X182937789Y-118335272D01*
X183021051Y-118233815D01*
X183143895Y-118133001D01*
X183158246Y-118121223D01*
X183176150Y-118111653D01*
X183314770Y-118037558D01*
X183371384Y-118020385D01*
X183484610Y-117986038D01*
X183550795Y-117979519D01*
X183616977Y-117973001D01*
X183705497Y-117973001D01*
X183771679Y-117979519D01*
X183771679Y-117979519D01*
G37*
G36*
X175801000Y-119701000D02*
X174699000Y-119701000D01*
X174699000Y-118599000D01*
X175801000Y-118599000D01*
X175801000Y-119701000D01*
X175801000Y-119701000D01*
G37*
G36*
X212771679Y-115599519D02*
X212837864Y-115606038D01*
X212951090Y-115640385D01*
X213007704Y-115657558D01*
X213146324Y-115731653D01*
X213164228Y-115741223D01*
X213193199Y-115764999D01*
X213301423Y-115853815D01*
X213373488Y-115941628D01*
X213414015Y-115991010D01*
X213414016Y-115991012D01*
X213497680Y-116147534D01*
X213497680Y-116147535D01*
X213549200Y-116317374D01*
X213566596Y-116494001D01*
X213549200Y-116670628D01*
X213546215Y-116680467D01*
X213497680Y-116840468D01*
X213426205Y-116974186D01*
X213414015Y-116996992D01*
X213384685Y-117032730D01*
X213301423Y-117134187D01*
X213199966Y-117217449D01*
X213164228Y-117246779D01*
X213164226Y-117246780D01*
X213007704Y-117330444D01*
X212951090Y-117347617D01*
X212837864Y-117381964D01*
X212771679Y-117388483D01*
X212705497Y-117395001D01*
X212616977Y-117395001D01*
X212550795Y-117388483D01*
X212484610Y-117381964D01*
X212371384Y-117347617D01*
X212314770Y-117330444D01*
X212158248Y-117246780D01*
X212158246Y-117246779D01*
X212122508Y-117217449D01*
X212021051Y-117134187D01*
X211937789Y-117032730D01*
X211908459Y-116996992D01*
X211896269Y-116974186D01*
X211824794Y-116840468D01*
X211776259Y-116680467D01*
X211773274Y-116670628D01*
X211755878Y-116494001D01*
X211773274Y-116317374D01*
X211824794Y-116147535D01*
X211824794Y-116147534D01*
X211908458Y-115991012D01*
X211908459Y-115991010D01*
X211948986Y-115941628D01*
X212021051Y-115853815D01*
X212129275Y-115764999D01*
X212158246Y-115741223D01*
X212176150Y-115731653D01*
X212314770Y-115657558D01*
X212371384Y-115640385D01*
X212484610Y-115606038D01*
X212550795Y-115599519D01*
X212616977Y-115593001D01*
X212705497Y-115593001D01*
X212771679Y-115599519D01*
X212771679Y-115599519D01*
G37*
G36*
X183771679Y-115439519D02*
X183837864Y-115446038D01*
X183951090Y-115480385D01*
X184007704Y-115497558D01*
X184146324Y-115571653D01*
X184164228Y-115581223D01*
X184178579Y-115593001D01*
X184301423Y-115693815D01*
X184384685Y-115795272D01*
X184414015Y-115831010D01*
X184414016Y-115831012D01*
X184497680Y-115987534D01*
X184497680Y-115987535D01*
X184549200Y-116157374D01*
X184566596Y-116334001D01*
X184549200Y-116510628D01*
X184547030Y-116517780D01*
X184497680Y-116680468D01*
X184423585Y-116819088D01*
X184414015Y-116836992D01*
X184411163Y-116840467D01*
X184301423Y-116974187D01*
X184199966Y-117057449D01*
X184164228Y-117086779D01*
X184164226Y-117086780D01*
X184007704Y-117170444D01*
X183951090Y-117187617D01*
X183837864Y-117221964D01*
X183771679Y-117228483D01*
X183705497Y-117235001D01*
X183616977Y-117235001D01*
X183550795Y-117228483D01*
X183484610Y-117221964D01*
X183371384Y-117187617D01*
X183314770Y-117170444D01*
X183158248Y-117086780D01*
X183158246Y-117086779D01*
X183122508Y-117057449D01*
X183021051Y-116974187D01*
X182911311Y-116840467D01*
X182908459Y-116836992D01*
X182898889Y-116819088D01*
X182824794Y-116680468D01*
X182775444Y-116517780D01*
X182773274Y-116510628D01*
X182755878Y-116334001D01*
X182773274Y-116157374D01*
X182824794Y-115987535D01*
X182824794Y-115987534D01*
X182908458Y-115831012D01*
X182908459Y-115831010D01*
X182937789Y-115795272D01*
X183021051Y-115693815D01*
X183143895Y-115593001D01*
X183158246Y-115581223D01*
X183176150Y-115571653D01*
X183314770Y-115497558D01*
X183371384Y-115480385D01*
X183484610Y-115446038D01*
X183550795Y-115439519D01*
X183616977Y-115433001D01*
X183705497Y-115433001D01*
X183771679Y-115439519D01*
X183771679Y-115439519D01*
G37*
G36*
X150935444Y-114870520D02*
X151001628Y-114877038D01*
X151114854Y-114911385D01*
X151171468Y-114928558D01*
X151310088Y-115002653D01*
X151327992Y-115012223D01*
X151363730Y-115041553D01*
X151465187Y-115124815D01*
X151548449Y-115226272D01*
X151577779Y-115262010D01*
X151577780Y-115262012D01*
X151661444Y-115418534D01*
X151661444Y-115418535D01*
X151712964Y-115588374D01*
X151730360Y-115765001D01*
X151712964Y-115941628D01*
X151678617Y-116054854D01*
X151661444Y-116111468D01*
X151642166Y-116147534D01*
X151577779Y-116267992D01*
X151548449Y-116303730D01*
X151465187Y-116405187D01*
X151363730Y-116488449D01*
X151327992Y-116517779D01*
X151327990Y-116517780D01*
X151171468Y-116601444D01*
X151114854Y-116618617D01*
X151001628Y-116652964D01*
X150935444Y-116659482D01*
X150869261Y-116666001D01*
X150780741Y-116666001D01*
X150714558Y-116659482D01*
X150648374Y-116652964D01*
X150535148Y-116618617D01*
X150478534Y-116601444D01*
X150322012Y-116517780D01*
X150322010Y-116517779D01*
X150286272Y-116488449D01*
X150184815Y-116405187D01*
X150101553Y-116303730D01*
X150072223Y-116267992D01*
X150007836Y-116147534D01*
X149988558Y-116111468D01*
X149971385Y-116054854D01*
X149937038Y-115941628D01*
X149919642Y-115765001D01*
X149937038Y-115588374D01*
X149988558Y-115418535D01*
X149988558Y-115418534D01*
X150072222Y-115262012D01*
X150072223Y-115262010D01*
X150101553Y-115226272D01*
X150184815Y-115124815D01*
X150286272Y-115041553D01*
X150322010Y-115012223D01*
X150339914Y-115002653D01*
X150478534Y-114928558D01*
X150535148Y-114911385D01*
X150648374Y-114877038D01*
X150714558Y-114870520D01*
X150780741Y-114864001D01*
X150869261Y-114864001D01*
X150935444Y-114870520D01*
X150935444Y-114870520D01*
G37*
G36*
X212771680Y-113059520D02*
X212837864Y-113066038D01*
X212951090Y-113100385D01*
X213007704Y-113117558D01*
X213146324Y-113191653D01*
X213164228Y-113201223D01*
X213199966Y-113230553D01*
X213301423Y-113313815D01*
X213384685Y-113415272D01*
X213414015Y-113451010D01*
X213414016Y-113451012D01*
X213497680Y-113607534D01*
X213497680Y-113607535D01*
X213549200Y-113777374D01*
X213566596Y-113954001D01*
X213549200Y-114130628D01*
X213546215Y-114140467D01*
X213497680Y-114300468D01*
X213426205Y-114434186D01*
X213414015Y-114456992D01*
X213384685Y-114492730D01*
X213301423Y-114594187D01*
X213199966Y-114677449D01*
X213164228Y-114706779D01*
X213164226Y-114706780D01*
X213007704Y-114790444D01*
X212951090Y-114807617D01*
X212837864Y-114841964D01*
X212771679Y-114848483D01*
X212705497Y-114855001D01*
X212616977Y-114855001D01*
X212550795Y-114848483D01*
X212484610Y-114841964D01*
X212371384Y-114807617D01*
X212314770Y-114790444D01*
X212158248Y-114706780D01*
X212158246Y-114706779D01*
X212122508Y-114677449D01*
X212021051Y-114594187D01*
X211937789Y-114492730D01*
X211908459Y-114456992D01*
X211896269Y-114434186D01*
X211824794Y-114300468D01*
X211776259Y-114140467D01*
X211773274Y-114130628D01*
X211755878Y-113954001D01*
X211773274Y-113777374D01*
X211824794Y-113607535D01*
X211824794Y-113607534D01*
X211908458Y-113451012D01*
X211908459Y-113451010D01*
X211937789Y-113415272D01*
X212021051Y-113313815D01*
X212122508Y-113230553D01*
X212158246Y-113201223D01*
X212176150Y-113191653D01*
X212314770Y-113117558D01*
X212371384Y-113100385D01*
X212484610Y-113066038D01*
X212550794Y-113059520D01*
X212616977Y-113053001D01*
X212705497Y-113053001D01*
X212771680Y-113059520D01*
X212771680Y-113059520D01*
G37*
G36*
X183771680Y-112899520D02*
X183837864Y-112906038D01*
X183951090Y-112940385D01*
X184007704Y-112957558D01*
X184146324Y-113031653D01*
X184164228Y-113041223D01*
X184178579Y-113053001D01*
X184301423Y-113153815D01*
X184384685Y-113255272D01*
X184414015Y-113291010D01*
X184414016Y-113291012D01*
X184497680Y-113447534D01*
X184497680Y-113447535D01*
X184549200Y-113617374D01*
X184566596Y-113794001D01*
X184549200Y-113970628D01*
X184514853Y-114083854D01*
X184497680Y-114140468D01*
X184423585Y-114279088D01*
X184414015Y-114296992D01*
X184411163Y-114300467D01*
X184301423Y-114434187D01*
X184199966Y-114517449D01*
X184164228Y-114546779D01*
X184164226Y-114546780D01*
X184007704Y-114630444D01*
X183951090Y-114647617D01*
X183837864Y-114681964D01*
X183771679Y-114688483D01*
X183705497Y-114695001D01*
X183616977Y-114695001D01*
X183550795Y-114688483D01*
X183484610Y-114681964D01*
X183371384Y-114647617D01*
X183314770Y-114630444D01*
X183158248Y-114546780D01*
X183158246Y-114546779D01*
X183122508Y-114517449D01*
X183021051Y-114434187D01*
X182911311Y-114300467D01*
X182908459Y-114296992D01*
X182898889Y-114279088D01*
X182824794Y-114140468D01*
X182807621Y-114083854D01*
X182773274Y-113970628D01*
X182755878Y-113794001D01*
X182773274Y-113617374D01*
X182824794Y-113447535D01*
X182824794Y-113447534D01*
X182908458Y-113291012D01*
X182908459Y-113291010D01*
X182937789Y-113255272D01*
X183021051Y-113153815D01*
X183143895Y-113053001D01*
X183158246Y-113041223D01*
X183176150Y-113031653D01*
X183314770Y-112957558D01*
X183371384Y-112940385D01*
X183484610Y-112906038D01*
X183550794Y-112899520D01*
X183616977Y-112893001D01*
X183705497Y-112893001D01*
X183771680Y-112899520D01*
X183771680Y-112899520D01*
G37*
G36*
X151726001Y-114126001D02*
X149924001Y-114126001D01*
X149924001Y-112324001D01*
X151726001Y-112324001D01*
X151726001Y-114126001D01*
X151726001Y-114126001D01*
G37*
G36*
X213562237Y-112315001D02*
X211760237Y-112315001D01*
X211760237Y-110513001D01*
X213562237Y-110513001D01*
X213562237Y-112315001D01*
X213562237Y-112315001D01*
G37*
G36*
X183771680Y-110359520D02*
X183837864Y-110366038D01*
X183951090Y-110400385D01*
X184007704Y-110417558D01*
X184146324Y-110491653D01*
X184164228Y-110501223D01*
X184178579Y-110513001D01*
X184301423Y-110613815D01*
X184384685Y-110715272D01*
X184414015Y-110751010D01*
X184414016Y-110751012D01*
X184497680Y-110907534D01*
X184497680Y-110907535D01*
X184549200Y-111077374D01*
X184566596Y-111254001D01*
X184549200Y-111430628D01*
X184514853Y-111543854D01*
X184497680Y-111600468D01*
X184423585Y-111739088D01*
X184414015Y-111756992D01*
X184384685Y-111792730D01*
X184301423Y-111894187D01*
X184199966Y-111977449D01*
X184164228Y-112006779D01*
X184164226Y-112006780D01*
X184007704Y-112090444D01*
X183951090Y-112107617D01*
X183837864Y-112141964D01*
X183771680Y-112148482D01*
X183705497Y-112155001D01*
X183616977Y-112155001D01*
X183550794Y-112148482D01*
X183484610Y-112141964D01*
X183371384Y-112107617D01*
X183314770Y-112090444D01*
X183158248Y-112006780D01*
X183158246Y-112006779D01*
X183122508Y-111977449D01*
X183021051Y-111894187D01*
X182937789Y-111792730D01*
X182908459Y-111756992D01*
X182898889Y-111739088D01*
X182824794Y-111600468D01*
X182807621Y-111543854D01*
X182773274Y-111430628D01*
X182755878Y-111254001D01*
X182773274Y-111077374D01*
X182824794Y-110907535D01*
X182824794Y-110907534D01*
X182908458Y-110751012D01*
X182908459Y-110751010D01*
X182937789Y-110715272D01*
X183021051Y-110613815D01*
X183143895Y-110513001D01*
X183158246Y-110501223D01*
X183176150Y-110491653D01*
X183314770Y-110417558D01*
X183371384Y-110400385D01*
X183484610Y-110366038D01*
X183550794Y-110359520D01*
X183616977Y-110353001D01*
X183705497Y-110353001D01*
X183771680Y-110359520D01*
X183771680Y-110359520D01*
G37*
G36*
X142077396Y-106325546D02*
X142250466Y-106397234D01*
X142406230Y-106501312D01*
X142538688Y-106633770D01*
X142642766Y-106789534D01*
X142714454Y-106962604D01*
X142751000Y-107146333D01*
X142751000Y-107333667D01*
X142714454Y-107517396D01*
X142642766Y-107690466D01*
X142538688Y-107846230D01*
X142406230Y-107978688D01*
X142250466Y-108082766D01*
X142077396Y-108154454D01*
X141893667Y-108191000D01*
X141706333Y-108191000D01*
X141522604Y-108154454D01*
X141349534Y-108082766D01*
X141193770Y-107978688D01*
X141061312Y-107846230D01*
X140957234Y-107690466D01*
X140885546Y-107517396D01*
X140849000Y-107333667D01*
X140849000Y-107146333D01*
X140885546Y-106962604D01*
X140957234Y-106789534D01*
X141061312Y-106633770D01*
X141193770Y-106501312D01*
X141349534Y-106397234D01*
X141522604Y-106325546D01*
X141706333Y-106289000D01*
X141893667Y-106289000D01*
X142077396Y-106325546D01*
X142077396Y-106325546D01*
G37*
G36*
X215751000Y-108151000D02*
X213849000Y-108151000D01*
X213849000Y-106249000D01*
X215751000Y-106249000D01*
X215751000Y-108151000D01*
X215751000Y-108151000D01*
G37*
G36*
X170751000Y-106451000D02*
X169649000Y-106451000D01*
X169649000Y-105349000D01*
X170751000Y-105349000D01*
X170751000Y-106451000D01*
X170751000Y-106451000D01*
G37*
G36*
X168451000Y-106451000D02*
X167349000Y-106451000D01*
X167349000Y-105349000D01*
X168451000Y-105349000D01*
X168451000Y-106451000D01*
X168451000Y-106451000D01*
G37*
G36*
X142751000Y-105651000D02*
X140849000Y-105651000D01*
X140849000Y-103749000D01*
X142751000Y-103749000D01*
X142751000Y-105651000D01*
X142751000Y-105651000D01*
G37*
G36*
X215077396Y-103745546D02*
X215250466Y-103817234D01*
X215406230Y-103921312D01*
X215538688Y-104053770D01*
X215642766Y-104209534D01*
X215714454Y-104382604D01*
X215751000Y-104566333D01*
X215751000Y-104753667D01*
X215714454Y-104937396D01*
X215642766Y-105110466D01*
X215538688Y-105266230D01*
X215406230Y-105398688D01*
X215250466Y-105502766D01*
X215077396Y-105574454D01*
X214893667Y-105611000D01*
X214706333Y-105611000D01*
X214522604Y-105574454D01*
X214349534Y-105502766D01*
X214193770Y-105398688D01*
X214061312Y-105266230D01*
X213957234Y-105110466D01*
X213885546Y-104937396D01*
X213849000Y-104753667D01*
X213849000Y-104566333D01*
X213885546Y-104382604D01*
X213957234Y-104209534D01*
X214061312Y-104053770D01*
X214193770Y-103921312D01*
X214349534Y-103817234D01*
X214522604Y-103745546D01*
X214706333Y-103709000D01*
X214893667Y-103709000D01*
X215077396Y-103745546D01*
X215077396Y-103745546D01*
G37*
G36*
X149701000Y-103301000D02*
X148599000Y-103301000D01*
X148599000Y-102199000D01*
X149701000Y-102199000D01*
X149701000Y-103301000D01*
X149701000Y-103301000D01*
G37*
G36*
X191091000Y-101771000D02*
X189989000Y-101771000D01*
X189989000Y-98669000D01*
X191091000Y-98669000D01*
X191091000Y-101771000D01*
X191091000Y-101771000D01*
G37*
G36*
X188551000Y-101771000D02*
X187449000Y-101771000D01*
X187449000Y-98669000D01*
X188551000Y-98669000D01*
X188551000Y-101771000D01*
X188551000Y-101771000D01*
G37*
G36*
X186011000Y-101771000D02*
X184909000Y-101771000D01*
X184909000Y-98669000D01*
X186011000Y-98669000D01*
X186011000Y-101771000D01*
X186011000Y-101771000D01*
G37*
G36*
X179617396Y-99881547D02*
X179790466Y-99953235D01*
X179946230Y-100057313D01*
X180078688Y-100189771D01*
X180182766Y-100345535D01*
X180254454Y-100518605D01*
X180291000Y-100702334D01*
X180291000Y-100889668D01*
X180254454Y-101073397D01*
X180182766Y-101246467D01*
X180078688Y-101402231D01*
X179946230Y-101534689D01*
X179790466Y-101638767D01*
X179617396Y-101710455D01*
X179433667Y-101747001D01*
X179246333Y-101747001D01*
X179062604Y-101710455D01*
X178889534Y-101638767D01*
X178733770Y-101534689D01*
X178601312Y-101402231D01*
X178497234Y-101246467D01*
X178425546Y-101073397D01*
X178389000Y-100889668D01*
X178389000Y-100702334D01*
X178425546Y-100518605D01*
X178497234Y-100345535D01*
X178601312Y-100189771D01*
X178733770Y-100057313D01*
X178889534Y-99953235D01*
X179062604Y-99881547D01*
X179246333Y-99845001D01*
X179433667Y-99845001D01*
X179617396Y-99881547D01*
X179617396Y-99881547D01*
G37*
G36*
X177751000Y-101747001D02*
X175849000Y-101747001D01*
X175849000Y-99845001D01*
X177751000Y-99845001D01*
X177751000Y-101747001D01*
X177751000Y-101747001D01*
G37*
G36*
X216300000Y-100200000D02*
X206800000Y-100200000D01*
X206800000Y-97700000D01*
X216300000Y-97700000D01*
X216300000Y-100200000D01*
X216300000Y-100200000D01*
G37*
G36*
X191091000Y-96731000D02*
X189989000Y-96731000D01*
X189989000Y-93629000D01*
X191091000Y-93629000D01*
X191091000Y-96731000D01*
X191091000Y-96731000D01*
G37*
G36*
X188551000Y-96731000D02*
X187449000Y-96731000D01*
X187449000Y-93629000D01*
X188551000Y-93629000D01*
X188551000Y-96731000D01*
X188551000Y-96731000D01*
G37*
G36*
X186011000Y-96731000D02*
X184909000Y-96731000D01*
X184909000Y-93629000D01*
X186011000Y-93629000D01*
X186011000Y-96731000D01*
X186011000Y-96731000D01*
G37*
M02*
