G04 #@! TF.GenerationSoftware,KiCad,Pcbnew,(5.0.1-3-g963ef8bb5)*
G04 #@! TF.CreationDate,2020-05-04T17:29:04+02:00*
G04 #@! TF.ProjectId,trackix,747261636B69782E6B696361645F7063,rev?*
G04 #@! TF.SameCoordinates,Original*
G04 #@! TF.FileFunction,Other,Fab,Bot*
%FSLAX46Y46*%
G04 Gerber Fmt 4.6, Leading zero omitted, Abs format (unit mm)*
G04 Created by KiCad (PCBNEW (5.0.1-3-g963ef8bb5)) date 2020 May 04, Monday 17:29:04*
%MOMM*%
%LPD*%
G01*
G04 APERTURE LIST*
%ADD10C,0.150000*%
G04 APERTURE END LIST*
G04 #@! TO.C,TP1*
D10*
X72797619Y-69452380D02*
X72797619Y-68452380D01*
X72559523Y-68452380D01*
X72416666Y-68500000D01*
X72321428Y-68595238D01*
X72273809Y-68690476D01*
X72226190Y-68880952D01*
X72226190Y-69023809D01*
X72273809Y-69214285D01*
X72321428Y-69309523D01*
X72416666Y-69404761D01*
X72559523Y-69452380D01*
X72797619Y-69452380D01*
X71607142Y-68976190D02*
X71607142Y-69452380D01*
X71940476Y-68452380D02*
X71607142Y-68976190D01*
X71273809Y-68452380D01*
X70940476Y-69452380D02*
X70940476Y-68452380D01*
X70369047Y-69452380D01*
X70369047Y-68452380D01*
X69940476Y-69166666D02*
X69464285Y-69166666D01*
X70035714Y-69452380D02*
X69702380Y-68452380D01*
X69369047Y-69452380D01*
X69035714Y-69452380D02*
X69035714Y-68452380D01*
X68702380Y-69166666D01*
X68369047Y-68452380D01*
X68369047Y-69452380D01*
X67702380Y-68452380D02*
X67511904Y-68452380D01*
X67416666Y-68500000D01*
X67321428Y-68595238D01*
X67273809Y-68785714D01*
X67273809Y-69119047D01*
X67321428Y-69309523D01*
X67416666Y-69404761D01*
X67511904Y-69452380D01*
X67702380Y-69452380D01*
X67797619Y-69404761D01*
X67892857Y-69309523D01*
X67940476Y-69119047D01*
X67940476Y-68785714D01*
X67892857Y-68595238D01*
X67797619Y-68500000D01*
X67702380Y-68452380D01*
X67083333Y-69547619D02*
X66321428Y-69547619D01*
X66130952Y-69166666D02*
X65654761Y-69166666D01*
X66226190Y-69452380D02*
X65892857Y-68452380D01*
X65559523Y-69452380D01*
X72761904Y-73152380D02*
X72190476Y-73152380D01*
X72476190Y-74152380D02*
X72476190Y-73152380D01*
X71857142Y-74152380D02*
X71857142Y-73152380D01*
X71476190Y-73152380D01*
X71380952Y-73200000D01*
X71333333Y-73247619D01*
X71285714Y-73342857D01*
X71285714Y-73485714D01*
X71333333Y-73580952D01*
X71380952Y-73628571D01*
X71476190Y-73676190D01*
X71857142Y-73676190D01*
X70333333Y-74152380D02*
X70904761Y-74152380D01*
X70619047Y-74152380D02*
X70619047Y-73152380D01*
X70714285Y-73295238D01*
X70809523Y-73390476D01*
X70904761Y-73438095D01*
G04 #@! TO.C,TP2*
X80869047Y-69452380D02*
X80869047Y-68452380D01*
X80630952Y-68452380D01*
X80488095Y-68500000D01*
X80392857Y-68595238D01*
X80345238Y-68690476D01*
X80297619Y-68880952D01*
X80297619Y-69023809D01*
X80345238Y-69214285D01*
X80392857Y-69309523D01*
X80488095Y-69404761D01*
X80630952Y-69452380D01*
X80869047Y-69452380D01*
X79678571Y-68976190D02*
X79678571Y-69452380D01*
X80011904Y-68452380D02*
X79678571Y-68976190D01*
X79345238Y-68452380D01*
X79011904Y-69452380D02*
X79011904Y-68452380D01*
X78440476Y-69452380D01*
X78440476Y-68452380D01*
X78011904Y-69166666D02*
X77535714Y-69166666D01*
X78107142Y-69452380D02*
X77773809Y-68452380D01*
X77440476Y-69452380D01*
X77107142Y-69452380D02*
X77107142Y-68452380D01*
X76773809Y-69166666D01*
X76440476Y-68452380D01*
X76440476Y-69452380D01*
X75773809Y-68452380D02*
X75583333Y-68452380D01*
X75488095Y-68500000D01*
X75392857Y-68595238D01*
X75345238Y-68785714D01*
X75345238Y-69119047D01*
X75392857Y-69309523D01*
X75488095Y-69404761D01*
X75583333Y-69452380D01*
X75773809Y-69452380D01*
X75869047Y-69404761D01*
X75964285Y-69309523D01*
X76011904Y-69119047D01*
X76011904Y-68785714D01*
X75964285Y-68595238D01*
X75869047Y-68500000D01*
X75773809Y-68452380D01*
X75154761Y-69547619D02*
X74392857Y-69547619D01*
X73821428Y-68928571D02*
X73678571Y-68976190D01*
X73630952Y-69023809D01*
X73583333Y-69119047D01*
X73583333Y-69261904D01*
X73630952Y-69357142D01*
X73678571Y-69404761D01*
X73773809Y-69452380D01*
X74154761Y-69452380D01*
X74154761Y-68452380D01*
X73821428Y-68452380D01*
X73726190Y-68500000D01*
X73678571Y-68547619D01*
X73630952Y-68642857D01*
X73630952Y-68738095D01*
X73678571Y-68833333D01*
X73726190Y-68880952D01*
X73821428Y-68928571D01*
X74154761Y-68928571D01*
X78511904Y-73152380D02*
X77940476Y-73152380D01*
X78226190Y-74152380D02*
X78226190Y-73152380D01*
X77607142Y-74152380D02*
X77607142Y-73152380D01*
X77226190Y-73152380D01*
X77130952Y-73200000D01*
X77083333Y-73247619D01*
X77035714Y-73342857D01*
X77035714Y-73485714D01*
X77083333Y-73580952D01*
X77130952Y-73628571D01*
X77226190Y-73676190D01*
X77607142Y-73676190D01*
X76654761Y-73247619D02*
X76607142Y-73200000D01*
X76511904Y-73152380D01*
X76273809Y-73152380D01*
X76178571Y-73200000D01*
X76130952Y-73247619D01*
X76083333Y-73342857D01*
X76083333Y-73438095D01*
X76130952Y-73580952D01*
X76702380Y-74152380D01*
X76083333Y-74152380D01*
G04 #@! TO.C,TP3*
X88061904Y-69400000D02*
X88157142Y-69352380D01*
X88300000Y-69352380D01*
X88442857Y-69400000D01*
X88538095Y-69495238D01*
X88585714Y-69590476D01*
X88633333Y-69780952D01*
X88633333Y-69923809D01*
X88585714Y-70114285D01*
X88538095Y-70209523D01*
X88442857Y-70304761D01*
X88300000Y-70352380D01*
X88204761Y-70352380D01*
X88061904Y-70304761D01*
X88014285Y-70257142D01*
X88014285Y-69923809D01*
X88204761Y-69923809D01*
X87585714Y-70352380D02*
X87585714Y-69352380D01*
X87014285Y-70352380D01*
X87014285Y-69352380D01*
X86538095Y-70352380D02*
X86538095Y-69352380D01*
X86300000Y-69352380D01*
X86157142Y-69400000D01*
X86061904Y-69495238D01*
X86014285Y-69590476D01*
X85966666Y-69780952D01*
X85966666Y-69923809D01*
X86014285Y-70114285D01*
X86061904Y-70209523D01*
X86157142Y-70304761D01*
X86300000Y-70352380D01*
X86538095Y-70352380D01*
X85302380Y-67138095D02*
X85302380Y-67709523D01*
X86302380Y-67423809D02*
X85302380Y-67423809D01*
X86302380Y-68042857D02*
X85302380Y-68042857D01*
X85302380Y-68423809D01*
X85350000Y-68519047D01*
X85397619Y-68566666D01*
X85492857Y-68614285D01*
X85635714Y-68614285D01*
X85730952Y-68566666D01*
X85778571Y-68519047D01*
X85826190Y-68423809D01*
X85826190Y-68042857D01*
X85302380Y-68947619D02*
X85302380Y-69566666D01*
X85683333Y-69233333D01*
X85683333Y-69376190D01*
X85730952Y-69471428D01*
X85778571Y-69519047D01*
X85873809Y-69566666D01*
X86111904Y-69566666D01*
X86207142Y-69519047D01*
X86254761Y-69471428D01*
X86302380Y-69376190D01*
X86302380Y-69090476D01*
X86254761Y-68995238D01*
X86207142Y-68947619D01*
G04 #@! TO.C,TP4*
X105607142Y-68952380D02*
X105273809Y-69952380D01*
X104940476Y-68952380D01*
X104035714Y-69857142D02*
X104083333Y-69904761D01*
X104226190Y-69952380D01*
X104321428Y-69952380D01*
X104464285Y-69904761D01*
X104559523Y-69809523D01*
X104607142Y-69714285D01*
X104654761Y-69523809D01*
X104654761Y-69380952D01*
X104607142Y-69190476D01*
X104559523Y-69095238D01*
X104464285Y-69000000D01*
X104321428Y-68952380D01*
X104226190Y-68952380D01*
X104083333Y-69000000D01*
X104035714Y-69047619D01*
X103035714Y-69857142D02*
X103083333Y-69904761D01*
X103226190Y-69952380D01*
X103321428Y-69952380D01*
X103464285Y-69904761D01*
X103559523Y-69809523D01*
X103607142Y-69714285D01*
X103654761Y-69523809D01*
X103654761Y-69380952D01*
X103607142Y-69190476D01*
X103559523Y-69095238D01*
X103464285Y-69000000D01*
X103321428Y-68952380D01*
X103226190Y-68952380D01*
X103083333Y-69000000D01*
X103035714Y-69047619D01*
X102845238Y-70047619D02*
X102083333Y-70047619D01*
X101845238Y-69952380D02*
X101845238Y-68952380D01*
X101369047Y-69952380D02*
X101369047Y-68952380D01*
X100797619Y-69952380D01*
X100797619Y-68952380D01*
X100559523Y-70047619D02*
X99797619Y-70047619D01*
X99559523Y-69952380D02*
X99559523Y-68952380D01*
X99321428Y-68952380D01*
X99178571Y-69000000D01*
X99083333Y-69095238D01*
X99035714Y-69190476D01*
X98988095Y-69380952D01*
X98988095Y-69523809D01*
X99035714Y-69714285D01*
X99083333Y-69809523D01*
X99178571Y-69904761D01*
X99321428Y-69952380D01*
X99559523Y-69952380D01*
X97988095Y-69857142D02*
X98035714Y-69904761D01*
X98178571Y-69952380D01*
X98273809Y-69952380D01*
X98416666Y-69904761D01*
X98511904Y-69809523D01*
X98559523Y-69714285D01*
X98607142Y-69523809D01*
X98607142Y-69380952D01*
X98559523Y-69190476D01*
X98511904Y-69095238D01*
X98416666Y-69000000D01*
X98273809Y-68952380D01*
X98178571Y-68952380D01*
X98035714Y-69000000D01*
X97988095Y-69047619D01*
X100002380Y-66238095D02*
X100002380Y-66809523D01*
X101002380Y-66523809D02*
X100002380Y-66523809D01*
X101002380Y-67142857D02*
X100002380Y-67142857D01*
X100002380Y-67523809D01*
X100050000Y-67619047D01*
X100097619Y-67666666D01*
X100192857Y-67714285D01*
X100335714Y-67714285D01*
X100430952Y-67666666D01*
X100478571Y-67619047D01*
X100526190Y-67523809D01*
X100526190Y-67142857D01*
X100335714Y-68571428D02*
X101002380Y-68571428D01*
X99954761Y-68333333D02*
X100669047Y-68095238D01*
X100669047Y-68714285D01*
G04 #@! TO.C,TP5*
X94666666Y-58616666D02*
X94190476Y-58616666D01*
X94761904Y-58902380D02*
X94428571Y-57902380D01*
X94095238Y-58902380D01*
X93761904Y-57902380D02*
X93761904Y-58711904D01*
X93714285Y-58807142D01*
X93666666Y-58854761D01*
X93571428Y-58902380D01*
X93380952Y-58902380D01*
X93285714Y-58854761D01*
X93238095Y-58807142D01*
X93190476Y-58711904D01*
X93190476Y-57902380D01*
X92809523Y-57902380D02*
X92142857Y-58902380D01*
X92142857Y-57902380D02*
X92809523Y-58902380D01*
X92000000Y-58997619D02*
X91238095Y-58997619D01*
X90809523Y-57902380D02*
X90619047Y-57902380D01*
X90523809Y-57950000D01*
X90428571Y-58045238D01*
X90380952Y-58235714D01*
X90380952Y-58569047D01*
X90428571Y-58759523D01*
X90523809Y-58854761D01*
X90619047Y-58902380D01*
X90809523Y-58902380D01*
X90904761Y-58854761D01*
X91000000Y-58759523D01*
X91047619Y-58569047D01*
X91047619Y-58235714D01*
X91000000Y-58045238D01*
X90904761Y-57950000D01*
X90809523Y-57902380D01*
X89952380Y-58902380D02*
X89952380Y-57902380D01*
X89380952Y-58902380D01*
X89380952Y-57902380D01*
X93261904Y-60902380D02*
X92690476Y-60902380D01*
X92976190Y-61902380D02*
X92976190Y-60902380D01*
X92357142Y-61902380D02*
X92357142Y-60902380D01*
X91976190Y-60902380D01*
X91880952Y-60950000D01*
X91833333Y-60997619D01*
X91785714Y-61092857D01*
X91785714Y-61235714D01*
X91833333Y-61330952D01*
X91880952Y-61378571D01*
X91976190Y-61426190D01*
X92357142Y-61426190D01*
X90880952Y-60902380D02*
X91357142Y-60902380D01*
X91404761Y-61378571D01*
X91357142Y-61330952D01*
X91261904Y-61283333D01*
X91023809Y-61283333D01*
X90928571Y-61330952D01*
X90880952Y-61378571D01*
X90833333Y-61473809D01*
X90833333Y-61711904D01*
X90880952Y-61807142D01*
X90928571Y-61854761D01*
X91023809Y-61902380D01*
X91261904Y-61902380D01*
X91357142Y-61854761D01*
X91404761Y-61807142D01*
G04 #@! TO.C,TP6*
X126952380Y-58450000D02*
X127047619Y-58402380D01*
X127190476Y-58402380D01*
X127333333Y-58450000D01*
X127428571Y-58545238D01*
X127476190Y-58640476D01*
X127523809Y-58830952D01*
X127523809Y-58973809D01*
X127476190Y-59164285D01*
X127428571Y-59259523D01*
X127333333Y-59354761D01*
X127190476Y-59402380D01*
X127095238Y-59402380D01*
X126952380Y-59354761D01*
X126904761Y-59307142D01*
X126904761Y-58973809D01*
X127095238Y-58973809D01*
X126476190Y-59402380D02*
X126476190Y-58402380D01*
X126095238Y-58402380D01*
X126000000Y-58450000D01*
X125952380Y-58497619D01*
X125904761Y-58592857D01*
X125904761Y-58735714D01*
X125952380Y-58830952D01*
X126000000Y-58878571D01*
X126095238Y-58926190D01*
X126476190Y-58926190D01*
X125523809Y-59354761D02*
X125380952Y-59402380D01*
X125142857Y-59402380D01*
X125047619Y-59354761D01*
X125000000Y-59307142D01*
X124952380Y-59211904D01*
X124952380Y-59116666D01*
X125000000Y-59021428D01*
X125047619Y-58973809D01*
X125142857Y-58926190D01*
X125333333Y-58878571D01*
X125428571Y-58830952D01*
X125476190Y-58783333D01*
X125523809Y-58688095D01*
X125523809Y-58592857D01*
X125476190Y-58497619D01*
X125428571Y-58450000D01*
X125333333Y-58402380D01*
X125095238Y-58402380D01*
X124952380Y-58450000D01*
X124761904Y-59497619D02*
X124000000Y-59497619D01*
X123904761Y-58402380D02*
X123333333Y-58402380D01*
X123619047Y-59402380D02*
X123619047Y-58402380D01*
X123095238Y-58402380D02*
X122428571Y-59402380D01*
X122428571Y-58402380D02*
X123095238Y-59402380D01*
X126261904Y-61402380D02*
X125690476Y-61402380D01*
X125976190Y-62402380D02*
X125976190Y-61402380D01*
X125357142Y-62402380D02*
X125357142Y-61402380D01*
X124976190Y-61402380D01*
X124880952Y-61450000D01*
X124833333Y-61497619D01*
X124785714Y-61592857D01*
X124785714Y-61735714D01*
X124833333Y-61830952D01*
X124880952Y-61878571D01*
X124976190Y-61926190D01*
X125357142Y-61926190D01*
X123928571Y-61402380D02*
X124119047Y-61402380D01*
X124214285Y-61450000D01*
X124261904Y-61497619D01*
X124357142Y-61640476D01*
X124404761Y-61830952D01*
X124404761Y-62211904D01*
X124357142Y-62307142D01*
X124309523Y-62354761D01*
X124214285Y-62402380D01*
X124023809Y-62402380D01*
X123928571Y-62354761D01*
X123880952Y-62307142D01*
X123833333Y-62211904D01*
X123833333Y-61973809D01*
X123880952Y-61878571D01*
X123928571Y-61830952D01*
X124023809Y-61783333D01*
X124214285Y-61783333D01*
X124309523Y-61830952D01*
X124357142Y-61878571D01*
X124404761Y-61973809D01*
G04 #@! TO.C,TP7*
X110261904Y-49902380D02*
X109690476Y-49902380D01*
X109976190Y-50902380D02*
X109976190Y-49902380D01*
X109452380Y-49902380D02*
X108785714Y-50902380D01*
X108785714Y-49902380D02*
X109452380Y-50902380D01*
X110761904Y-52902380D02*
X110190476Y-52902380D01*
X110476190Y-53902380D02*
X110476190Y-52902380D01*
X109857142Y-53902380D02*
X109857142Y-52902380D01*
X109476190Y-52902380D01*
X109380952Y-52950000D01*
X109333333Y-52997619D01*
X109285714Y-53092857D01*
X109285714Y-53235714D01*
X109333333Y-53330952D01*
X109380952Y-53378571D01*
X109476190Y-53426190D01*
X109857142Y-53426190D01*
X108952380Y-52902380D02*
X108285714Y-52902380D01*
X108714285Y-53902380D01*
G04 #@! TO.C,TP8*
X104666666Y-50902380D02*
X105000000Y-50426190D01*
X105238095Y-50902380D02*
X105238095Y-49902380D01*
X104857142Y-49902380D01*
X104761904Y-49950000D01*
X104714285Y-49997619D01*
X104666666Y-50092857D01*
X104666666Y-50235714D01*
X104714285Y-50330952D01*
X104761904Y-50378571D01*
X104857142Y-50426190D01*
X105238095Y-50426190D01*
X104333333Y-49902380D02*
X103666666Y-50902380D01*
X103666666Y-49902380D02*
X104333333Y-50902380D01*
X105761904Y-52902380D02*
X105190476Y-52902380D01*
X105476190Y-53902380D02*
X105476190Y-52902380D01*
X104857142Y-53902380D02*
X104857142Y-52902380D01*
X104476190Y-52902380D01*
X104380952Y-52950000D01*
X104333333Y-52997619D01*
X104285714Y-53092857D01*
X104285714Y-53235714D01*
X104333333Y-53330952D01*
X104380952Y-53378571D01*
X104476190Y-53426190D01*
X104857142Y-53426190D01*
X103714285Y-53330952D02*
X103809523Y-53283333D01*
X103857142Y-53235714D01*
X103904761Y-53140476D01*
X103904761Y-53092857D01*
X103857142Y-52997619D01*
X103809523Y-52950000D01*
X103714285Y-52902380D01*
X103523809Y-52902380D01*
X103428571Y-52950000D01*
X103380952Y-52997619D01*
X103333333Y-53092857D01*
X103333333Y-53140476D01*
X103380952Y-53235714D01*
X103428571Y-53283333D01*
X103523809Y-53330952D01*
X103714285Y-53330952D01*
X103809523Y-53378571D01*
X103857142Y-53426190D01*
X103904761Y-53521428D01*
X103904761Y-53711904D01*
X103857142Y-53807142D01*
X103809523Y-53854761D01*
X103714285Y-53902380D01*
X103523809Y-53902380D01*
X103428571Y-53854761D01*
X103380952Y-53807142D01*
X103333333Y-53711904D01*
X103333333Y-53521428D01*
X103380952Y-53426190D01*
X103428571Y-53378571D01*
X103523809Y-53330952D01*
G04 #@! TO.C,TP9*
X97252380Y-66302380D02*
X96680952Y-66302380D01*
X96966666Y-67302380D02*
X96966666Y-66302380D01*
X95966666Y-67254761D02*
X96061904Y-67302380D01*
X96252380Y-67302380D01*
X96347619Y-67254761D01*
X96395238Y-67159523D01*
X96395238Y-66778571D01*
X96347619Y-66683333D01*
X96252380Y-66635714D01*
X96061904Y-66635714D01*
X95966666Y-66683333D01*
X95919047Y-66778571D01*
X95919047Y-66873809D01*
X96395238Y-66969047D01*
X95538095Y-67254761D02*
X95442857Y-67302380D01*
X95252380Y-67302380D01*
X95157142Y-67254761D01*
X95109523Y-67159523D01*
X95109523Y-67111904D01*
X95157142Y-67016666D01*
X95252380Y-66969047D01*
X95395238Y-66969047D01*
X95490476Y-66921428D01*
X95538095Y-66826190D01*
X95538095Y-66778571D01*
X95490476Y-66683333D01*
X95395238Y-66635714D01*
X95252380Y-66635714D01*
X95157142Y-66683333D01*
X94823809Y-66635714D02*
X94442857Y-66635714D01*
X94680952Y-66302380D02*
X94680952Y-67159523D01*
X94633333Y-67254761D01*
X94538095Y-67302380D01*
X94442857Y-67302380D01*
X94109523Y-67302380D02*
X94109523Y-66302380D01*
X93728571Y-66302380D01*
X93633333Y-66350000D01*
X93585714Y-66397619D01*
X93538095Y-66492857D01*
X93538095Y-66635714D01*
X93585714Y-66730952D01*
X93633333Y-66778571D01*
X93728571Y-66826190D01*
X94109523Y-66826190D01*
X92966666Y-67302380D02*
X93061904Y-67254761D01*
X93109523Y-67207142D01*
X93157142Y-67111904D01*
X93157142Y-66826190D01*
X93109523Y-66730952D01*
X93061904Y-66683333D01*
X92966666Y-66635714D01*
X92823809Y-66635714D01*
X92728571Y-66683333D01*
X92680952Y-66730952D01*
X92633333Y-66826190D01*
X92633333Y-67111904D01*
X92680952Y-67207142D01*
X92728571Y-67254761D01*
X92823809Y-67302380D01*
X92966666Y-67302380D01*
X92204761Y-67302380D02*
X92204761Y-66635714D01*
X92204761Y-66302380D02*
X92252380Y-66350000D01*
X92204761Y-66397619D01*
X92157142Y-66350000D01*
X92204761Y-66302380D01*
X92204761Y-66397619D01*
X91728571Y-66635714D02*
X91728571Y-67302380D01*
X91728571Y-66730952D02*
X91680952Y-66683333D01*
X91585714Y-66635714D01*
X91442857Y-66635714D01*
X91347619Y-66683333D01*
X91300000Y-66778571D01*
X91300000Y-67302380D01*
X90966666Y-66635714D02*
X90585714Y-66635714D01*
X90823809Y-66302380D02*
X90823809Y-67159523D01*
X90776190Y-67254761D01*
X90680952Y-67302380D01*
X90585714Y-67302380D01*
X90347619Y-66302380D02*
X89728571Y-66302380D01*
X90061904Y-66683333D01*
X89919047Y-66683333D01*
X89823809Y-66730952D01*
X89776190Y-66778571D01*
X89728571Y-66873809D01*
X89728571Y-67111904D01*
X89776190Y-67207142D01*
X89823809Y-67254761D01*
X89919047Y-67302380D01*
X90204761Y-67302380D01*
X90300000Y-67254761D01*
X90347619Y-67207142D01*
X89300000Y-67207142D02*
X89252380Y-67254761D01*
X89300000Y-67302380D01*
X89347619Y-67254761D01*
X89300000Y-67207142D01*
X89300000Y-67302380D01*
X88919047Y-66302380D02*
X88300000Y-66302380D01*
X88633333Y-66683333D01*
X88490476Y-66683333D01*
X88395238Y-66730952D01*
X88347619Y-66778571D01*
X88300000Y-66873809D01*
X88300000Y-67111904D01*
X88347619Y-67207142D01*
X88395238Y-67254761D01*
X88490476Y-67302380D01*
X88776190Y-67302380D01*
X88871428Y-67254761D01*
X88919047Y-67207142D01*
X88014285Y-66302380D02*
X87680952Y-67302380D01*
X87347619Y-66302380D01*
X93561904Y-69302380D02*
X92990476Y-69302380D01*
X93276190Y-70302380D02*
X93276190Y-69302380D01*
X92657142Y-70302380D02*
X92657142Y-69302380D01*
X92276190Y-69302380D01*
X92180952Y-69350000D01*
X92133333Y-69397619D01*
X92085714Y-69492857D01*
X92085714Y-69635714D01*
X92133333Y-69730952D01*
X92180952Y-69778571D01*
X92276190Y-69826190D01*
X92657142Y-69826190D01*
X91609523Y-70302380D02*
X91419047Y-70302380D01*
X91323809Y-70254761D01*
X91276190Y-70207142D01*
X91180952Y-70064285D01*
X91133333Y-69873809D01*
X91133333Y-69492857D01*
X91180952Y-69397619D01*
X91228571Y-69350000D01*
X91323809Y-69302380D01*
X91514285Y-69302380D01*
X91609523Y-69350000D01*
X91657142Y-69397619D01*
X91704761Y-69492857D01*
X91704761Y-69730952D01*
X91657142Y-69826190D01*
X91609523Y-69873809D01*
X91514285Y-69921428D01*
X91323809Y-69921428D01*
X91228571Y-69873809D01*
X91180952Y-69826190D01*
X91133333Y-69730952D01*
G04 #@! TD*
M02*
