G04 #@! TF.GenerationSoftware,KiCad,Pcbnew,(5.0.1-3-g963ef8bb5)*
G04 #@! TF.CreationDate,2020-05-04T17:29:04+02:00*
G04 #@! TF.ProjectId,trackix,747261636B69782E6B696361645F7063,rev?*
G04 #@! TF.SameCoordinates,Original*
G04 #@! TF.FileFunction,Legend,Top*
G04 #@! TF.FilePolarity,Positive*
%FSLAX46Y46*%
G04 Gerber Fmt 4.6, Leading zero omitted, Abs format (unit mm)*
G04 Created by KiCad (PCBNEW (5.0.1-3-g963ef8bb5)) date 2020 May 04, Monday 17:29:04*
%MOMM*%
%LPD*%
G01*
G04 APERTURE LIST*
%ADD10C,0.200000*%
%ADD11C,0.150000*%
%ADD12C,0.120000*%
%ADD13C,0.100000*%
%ADD14C,0.127000*%
%ADD15C,0.125000*%
G04 APERTURE END LIST*
D10*
X73425575Y-64650000D02*
G75*
G03X73425575Y-64650000I-2175575J0D01*
G01*
X108077000Y-44958000D02*
X108712000Y-44958000D01*
X108077000Y-41148000D02*
X108712000Y-41148000D01*
X99822000Y-41148000D02*
X100457000Y-41148000D01*
X99822000Y-44958000D02*
X100457000Y-44958000D01*
X122047000Y-42418000D02*
G75*
G03X122047000Y-42418000I-1905000J0D01*
G01*
X108076998Y-44958000D02*
G75*
G02X100457001Y-44957999I-3809998J1905000D01*
G01*
X100457002Y-41148000D02*
G75*
G02X108076999Y-41148001I3809998J-1905000D01*
G01*
X108712000Y-41148000D02*
G75*
G02X108712000Y-44958000I0J-1905000D01*
G01*
X99822000Y-44958000D02*
G75*
G02X99822000Y-41148000I0J1905000D01*
G01*
D11*
G04 #@! TO.C,U1*
X108532575Y-58409099D02*
X107524948Y-59416726D01*
X113500000Y-53123476D02*
X113270190Y-53353286D01*
X118626524Y-58250000D02*
X118396714Y-58479810D01*
X113500000Y-63376524D02*
X113729810Y-63146714D01*
X108373476Y-58250000D02*
X108603286Y-58020190D01*
X113500000Y-63376524D02*
X113270190Y-63146714D01*
X118626524Y-58250000D02*
X118396714Y-58020190D01*
X113500000Y-53123476D02*
X113729810Y-53353286D01*
X108373476Y-58250000D02*
X108532575Y-58409099D01*
D12*
G04 #@! TO.C,D4*
X66920000Y-49540000D02*
X66920000Y-49540000D01*
X66790000Y-49540000D02*
X66920000Y-49540000D01*
X66790000Y-49540000D02*
X66790000Y-49540000D01*
X66920000Y-49540000D02*
X66790000Y-49540000D01*
X66920000Y-47000000D02*
X66920000Y-47000000D01*
X66790000Y-47000000D02*
X66920000Y-47000000D01*
X66790000Y-47000000D02*
X66790000Y-47000000D01*
X66920000Y-47000000D02*
X66790000Y-47000000D01*
X66790000Y-50830000D02*
X66790000Y-51230000D01*
X65670000Y-50830000D02*
X66790000Y-50830000D01*
X65670000Y-51230000D02*
X65670000Y-50830000D01*
X66790000Y-51230000D02*
X65670000Y-51230000D01*
X66790000Y-45710000D02*
X66790000Y-50830000D01*
X66790000Y-50830000D02*
X60630000Y-50830000D01*
X66790000Y-45710000D02*
X60630000Y-45710000D01*
X60630000Y-50830000D02*
G75*
G02X60630000Y-45710000I0J2560000D01*
G01*
G04 #@! TO.C,D5*
X148370000Y-45670000D02*
G75*
G02X148370000Y-50790000I0J-2560000D01*
G01*
X142210000Y-50790000D02*
X148370000Y-50790000D01*
X142210000Y-45670000D02*
X148370000Y-45670000D01*
X142210000Y-50790000D02*
X142210000Y-45670000D01*
X142210000Y-45270000D02*
X143330000Y-45270000D01*
X143330000Y-45270000D02*
X143330000Y-45670000D01*
X143330000Y-45670000D02*
X142210000Y-45670000D01*
X142210000Y-45670000D02*
X142210000Y-45270000D01*
X142080000Y-49500000D02*
X142210000Y-49500000D01*
X142210000Y-49500000D02*
X142210000Y-49500000D01*
X142210000Y-49500000D02*
X142080000Y-49500000D01*
X142080000Y-49500000D02*
X142080000Y-49500000D01*
X142080000Y-46960000D02*
X142210000Y-46960000D01*
X142210000Y-46960000D02*
X142210000Y-46960000D01*
X142210000Y-46960000D02*
X142080000Y-46960000D01*
X142080000Y-46960000D02*
X142080000Y-46960000D01*
G04 #@! TO.C,D6*
X101710000Y-41551001D02*
X101710000Y-44641001D01*
X106770000Y-43096001D02*
G75*
G03X106770000Y-43096001I-2500000J0D01*
G01*
X107260000Y-43095539D02*
G75*
G02X101710000Y-44640831I-2990000J-462D01*
G01*
X107260000Y-43096463D02*
G75*
G03X101710000Y-41551171I-2990000J462D01*
G01*
G04 #@! TO.C,J3*
X68750000Y-39700000D02*
X68750000Y-40300000D01*
X68750000Y-40300000D02*
X68550000Y-40500000D01*
X68550000Y-37500000D02*
X68750000Y-37500000D01*
X68750000Y-37500000D02*
X68750000Y-38300000D01*
X65750000Y-38300000D02*
X65750000Y-37500000D01*
X65750000Y-37500000D02*
X65950000Y-37500000D01*
X65950000Y-40500000D02*
X65750000Y-40500000D01*
X65750000Y-40500000D02*
X65750000Y-39700000D01*
D13*
G04 #@! TO.C,U5*
X74380000Y-52120000D02*
X74380000Y-51950000D01*
X76500000Y-52120000D02*
X74380000Y-52120000D01*
X90620000Y-35880000D02*
X90620000Y-36050000D01*
X90620000Y-35880000D02*
X88500000Y-35880000D01*
X74380000Y-35880000D02*
X74380000Y-36050000D01*
X76500000Y-35880000D02*
X74380000Y-35880000D01*
X90620000Y-52120000D02*
X82500000Y-52120000D01*
D12*
G04 #@! TO.C,BZ1*
X144610000Y-67710000D02*
X144610000Y-70360000D01*
X144610000Y-70360000D02*
X135390000Y-70360000D01*
X135390000Y-70360000D02*
X135390000Y-67710000D01*
X135390000Y-63790000D02*
X135390000Y-61140000D01*
X135390000Y-61140000D02*
X144610000Y-61140000D01*
X144610000Y-61140000D02*
X144610000Y-63790000D01*
X144610000Y-67710000D02*
X144940000Y-67710000D01*
G04 #@! TO.C,C1*
X81750000Y-61350000D02*
X82750000Y-61350000D01*
X82750000Y-59650000D02*
X81750000Y-59650000D01*
G04 #@! TO.C,C2*
X64000000Y-57520000D02*
X66000000Y-57520000D01*
X66000000Y-55480000D02*
X64000000Y-55480000D01*
G04 #@! TO.C,C3*
X69900000Y-57600000D02*
X69900000Y-56900000D01*
X71100000Y-56900000D02*
X71100000Y-57600000D01*
G04 #@! TO.C,C4*
X119730000Y-48500000D02*
X119730000Y-50500000D01*
X121770000Y-50500000D02*
X121770000Y-48500000D01*
G04 #@! TO.C,C5*
X117900000Y-49350000D02*
X117900000Y-48650000D01*
X119100000Y-48650000D02*
X119100000Y-49350000D01*
G04 #@! TO.C,C6*
X124000000Y-43770000D02*
X126000000Y-43770000D01*
X126000000Y-41730000D02*
X124000000Y-41730000D01*
G04 #@! TO.C,C7*
X123100000Y-39150000D02*
X123100000Y-39850000D01*
X121900000Y-39850000D02*
X121900000Y-39150000D01*
G04 #@! TO.C,C8*
X117926777Y-52578249D02*
X118421751Y-53073223D01*
X117573223Y-53921751D02*
X117078249Y-53426777D01*
G04 #@! TO.C,C9*
X89750000Y-60480000D02*
X87750000Y-60480000D01*
X87750000Y-62520000D02*
X89750000Y-62520000D01*
G04 #@! TO.C,C10*
X105601974Y-68266654D02*
X105955528Y-68620208D01*
X106620208Y-67955528D02*
X106266654Y-67601974D01*
G04 #@! TO.C,C11*
X103601974Y-66266654D02*
X103955528Y-66620208D01*
X104620208Y-65955528D02*
X104266654Y-65601974D01*
G04 #@! TO.C,C12*
X91980000Y-63750000D02*
X91980000Y-65750000D01*
X94020000Y-65750000D02*
X94020000Y-63750000D01*
G04 #@! TO.C,C13*
X63650000Y-57900000D02*
X64350000Y-57900000D01*
X64350000Y-59100000D02*
X63650000Y-59100000D01*
G04 #@! TO.C,C14*
X64350000Y-60600000D02*
X63650000Y-60600000D01*
X63650000Y-59400000D02*
X64350000Y-59400000D01*
G04 #@! TO.C,C15*
X76500000Y-61520000D02*
X78500000Y-61520000D01*
X78500000Y-59480000D02*
X76500000Y-59480000D01*
G04 #@! TO.C,C16*
X95600000Y-65150000D02*
X95600000Y-65850000D01*
X94400000Y-65850000D02*
X94400000Y-65150000D01*
G04 #@! TO.C,C17*
X114150000Y-40900000D02*
X114850000Y-40900000D01*
X114850000Y-42100000D02*
X114150000Y-42100000D01*
G04 #@! TO.C,D1*
X114950000Y-44050000D02*
X114950000Y-45450000D01*
X114950000Y-45450000D02*
X117750000Y-45450000D01*
X114950000Y-44050000D02*
X117750000Y-44050000D01*
G04 #@! TO.C,D2*
X117550000Y-69200000D02*
X114750000Y-69200000D01*
X117550000Y-67800000D02*
X114750000Y-67800000D01*
X117550000Y-69200000D02*
X117550000Y-67800000D01*
G04 #@! TO.C,D3*
X66000000Y-69100000D02*
X63450000Y-69100000D01*
X66000000Y-67400000D02*
X63450000Y-67400000D01*
X66000000Y-69100000D02*
X66000000Y-67400000D01*
G04 #@! TO.C,D7*
X66026464Y-64427980D02*
X66026464Y-63027980D01*
X66026464Y-63027980D02*
X63226464Y-63027980D01*
X66026464Y-64427980D02*
X63226464Y-64427980D01*
G04 #@! TO.C,D8*
X66026464Y-62427980D02*
X63226464Y-62427980D01*
X66026464Y-61027980D02*
X63226464Y-61027980D01*
X66026464Y-62427980D02*
X66026464Y-61027980D01*
G04 #@! TO.C,D9*
X66750000Y-67400000D02*
X66750000Y-69100000D01*
X66750000Y-69100000D02*
X69300000Y-69100000D01*
X66750000Y-67400000D02*
X69300000Y-67400000D01*
G04 #@! TO.C,D10*
X62750000Y-64900000D02*
X65300000Y-64900000D01*
X62750000Y-66600000D02*
X65300000Y-66600000D01*
X62750000Y-64900000D02*
X62750000Y-66600000D01*
G04 #@! TO.C,D11*
X66900000Y-66775000D02*
X68600000Y-66775000D01*
X68600000Y-66775000D02*
X68600000Y-64225000D01*
X66900000Y-66775000D02*
X66900000Y-64225000D01*
D11*
G04 #@! TO.C,IC2*
X80075000Y-67275000D02*
X81475000Y-67275000D01*
X80075000Y-62175000D02*
X75925000Y-62175000D01*
X80075000Y-67325000D02*
X75925000Y-67325000D01*
X80075000Y-62175000D02*
X80075000Y-62320000D01*
X75925000Y-62175000D02*
X75925000Y-62320000D01*
X75925000Y-67325000D02*
X75925000Y-67180000D01*
X80075000Y-67325000D02*
X80075000Y-67275000D01*
D12*
G04 #@! TO.C,J2*
X140000000Y-57500000D02*
X139200000Y-57500000D01*
X140000000Y-57300000D02*
X140000000Y-57500000D01*
X137000000Y-57500000D02*
X137000000Y-57300000D01*
X137800000Y-57500000D02*
X137000000Y-57500000D01*
X137000000Y-54500000D02*
X137800000Y-54500000D01*
X137000000Y-54700000D02*
X137000000Y-54500000D01*
X139800000Y-54500000D02*
X140000000Y-54700000D01*
X139200000Y-54500000D02*
X139800000Y-54500000D01*
G04 #@! TO.C,J4*
X121410000Y-61730000D02*
X121410000Y-63150000D01*
X128620000Y-63150000D02*
X128090000Y-63150000D01*
X128620000Y-68350000D02*
X128620000Y-63150000D01*
X128090000Y-68350000D02*
X128620000Y-68350000D01*
X120880000Y-63150000D02*
X121410000Y-63150000D01*
X120880000Y-68350000D02*
X120880000Y-63150000D01*
X121410000Y-68350000D02*
X120880000Y-68350000D01*
G04 #@! TO.C,L1*
X137970000Y-51750000D02*
X137970000Y-52250000D01*
X139030000Y-52250000D02*
X139030000Y-51750000D01*
G04 #@! TO.C,L2*
X88250000Y-66770000D02*
X90250000Y-66770000D01*
X90250000Y-69730000D02*
X88250000Y-69730000D01*
G04 #@! TO.C,Q1*
X130420000Y-66760000D02*
X131350000Y-66760000D01*
X133580000Y-66760000D02*
X132650000Y-66760000D01*
X133580000Y-66760000D02*
X133580000Y-64600000D01*
X130420000Y-66760000D02*
X130420000Y-65300000D01*
D11*
G04 #@! TO.C,Q3*
X78675000Y-54225000D02*
X77325000Y-54225000D01*
X78675000Y-57375000D02*
X83325000Y-57375000D01*
X78675000Y-54125000D02*
X83325000Y-54125000D01*
X78675000Y-57375000D02*
X78675000Y-57175000D01*
X83325000Y-57375000D02*
X83325000Y-57175000D01*
X83325000Y-54125000D02*
X83325000Y-54325000D01*
X78675000Y-54125000D02*
X78675000Y-54225000D01*
D12*
G04 #@! TO.C,Q5*
X101529926Y-48375010D02*
X102989926Y-48375010D01*
X101529926Y-51535010D02*
X103689926Y-51535010D01*
X101529926Y-51535010D02*
X101529926Y-50605010D01*
X101529926Y-48375010D02*
X101529926Y-49305010D01*
G04 #@! TO.C,R1*
X71180000Y-53750000D02*
X71180000Y-54750000D01*
X69820000Y-54750000D02*
X69820000Y-53750000D01*
G04 #@! TO.C,R2*
X72500000Y-53570000D02*
X73500000Y-53570000D01*
X73500000Y-54930000D02*
X72500000Y-54930000D01*
G04 #@! TO.C,R5*
X131750000Y-62570000D02*
X132750000Y-62570000D01*
X132750000Y-63930000D02*
X131750000Y-63930000D01*
G04 #@! TO.C,R6*
X144000000Y-42820000D02*
X145000000Y-42820000D01*
X145000000Y-44180000D02*
X144000000Y-44180000D01*
G04 #@! TO.C,R7*
X119000000Y-66930000D02*
X118000000Y-66930000D01*
X118000000Y-65570000D02*
X119000000Y-65570000D01*
G04 #@! TO.C,R8*
X110380182Y-38054873D02*
X111380182Y-38054873D01*
X111380182Y-39414873D02*
X110380182Y-39414873D01*
G04 #@! TO.C,R9*
X105969926Y-49455010D02*
X105969926Y-50455010D01*
X104609926Y-50455010D02*
X104609926Y-49455010D01*
G04 #@! TO.C,R10*
X71180000Y-49750000D02*
X71180000Y-50750000D01*
X69820000Y-50750000D02*
X69820000Y-49750000D01*
G04 #@! TO.C,R11*
X139430000Y-45500000D02*
X139430000Y-46500000D01*
X138070000Y-46500000D02*
X138070000Y-45500000D01*
G04 #@! TO.C,R12*
X109430000Y-46500000D02*
X109430000Y-47500000D01*
X108070000Y-47500000D02*
X108070000Y-46500000D01*
G04 #@! TO.C,R13*
X69000000Y-62180000D02*
X68000000Y-62180000D01*
X68000000Y-60820000D02*
X69000000Y-60820000D01*
G04 #@! TO.C,R14*
X68750000Y-60430000D02*
X67750000Y-60430000D01*
X67750000Y-59070000D02*
X68750000Y-59070000D01*
G04 #@! TO.C,R15*
X83930000Y-65750000D02*
X83930000Y-66750000D01*
X82570000Y-66750000D02*
X82570000Y-65750000D01*
G04 #@! TO.C,R16*
X123334386Y-60127279D02*
X122627279Y-60834386D01*
X121665614Y-59872721D02*
X122372721Y-59165614D01*
G04 #@! TO.C,R17*
X138000000Y-50680000D02*
X137000000Y-50680000D01*
X137000000Y-49320000D02*
X138000000Y-49320000D01*
G04 #@! TO.C,R18*
X120750000Y-46430000D02*
X119750000Y-46430000D01*
X119750000Y-45070000D02*
X120750000Y-45070000D01*
G04 #@! TO.C,R19*
X99500000Y-60570000D02*
X100500000Y-60570000D01*
X100500000Y-61930000D02*
X99500000Y-61930000D01*
G04 #@! TO.C,R20*
X100250000Y-63570000D02*
X101250000Y-63570000D01*
X101250000Y-64930000D02*
X100250000Y-64930000D01*
G04 #@! TO.C,R21*
X111380182Y-37563606D02*
X110380182Y-37563606D01*
X110380182Y-36203606D02*
X111380182Y-36203606D01*
G04 #@! TO.C,reset1*
X145900000Y-40150000D02*
X145600000Y-40150000D01*
X145900000Y-36850000D02*
X145900000Y-40150000D01*
X145600000Y-36850000D02*
X145900000Y-36850000D01*
X143100000Y-40150000D02*
X143400000Y-40150000D01*
X143100000Y-36850000D02*
X143100000Y-40150000D01*
X143400000Y-36850000D02*
X143100000Y-36850000D01*
D10*
G04 #@! TO.C,U2*
X122500000Y-45500000D02*
G75*
G03X122500000Y-45500000I-100000J0D01*
G01*
D14*
X134100000Y-44936500D02*
X124400000Y-44936500D01*
X124400000Y-55063500D02*
X134100000Y-55063500D01*
D12*
G04 #@! TO.C,U3*
X72870000Y-58760000D02*
X75300000Y-58760000D01*
X74630000Y-55690000D02*
X72870000Y-55690000D01*
D14*
G04 #@! TO.C,U4*
X88450000Y-65800000D02*
X88450000Y-63700000D01*
X90550000Y-63700000D02*
X90550000Y-65800000D01*
D10*
X88900000Y-66650000D02*
G75*
G03X88900000Y-66650000I-100000J0D01*
G01*
D13*
G04 #@! TO.C,U6*
X113165302Y-36384873D02*
X113385302Y-36384873D01*
X113165302Y-37104873D02*
X113165302Y-36384873D01*
X115865302Y-36384873D02*
X115865302Y-37104873D01*
X115645302Y-36384873D02*
X115865302Y-36384873D01*
X115865302Y-39584873D02*
X115645302Y-39584873D01*
X115865302Y-39584873D02*
X115865302Y-38864873D01*
X113165302Y-39684873D02*
X113165302Y-38864873D01*
D12*
G04 #@! TO.C,J1*
X67830000Y-52170000D02*
X67830000Y-53500000D01*
X66500000Y-52170000D02*
X67830000Y-52170000D01*
X65230000Y-52170000D02*
X65230000Y-54830000D01*
X65230000Y-54830000D02*
X62630000Y-54830000D01*
X65230000Y-52170000D02*
X62630000Y-52170000D01*
X62630000Y-52170000D02*
X62630000Y-54830000D01*
G04 #@! TO.C,JP1*
X94300000Y-44250000D02*
X95700000Y-44250000D01*
X96400000Y-44950000D02*
X96400000Y-45550000D01*
X95700000Y-46250000D02*
X94300000Y-46250000D01*
X93600000Y-45550000D02*
X93600000Y-44950000D01*
X93600000Y-44950000D02*
G75*
G02X94300000Y-44250000I700000J0D01*
G01*
X94300000Y-46250000D02*
G75*
G02X93600000Y-45550000I0J700000D01*
G01*
X96400000Y-45550000D02*
G75*
G02X95700000Y-46250000I-700000J0D01*
G01*
X95700000Y-44250000D02*
G75*
G02X96400000Y-44950000I0J-700000D01*
G01*
G04 #@! TO.C,JP3*
X94300000Y-48500000D02*
G75*
G02X93600000Y-47800000I0J700000D01*
G01*
X93600000Y-47200000D02*
G75*
G02X94300000Y-46500000I700000J0D01*
G01*
X95700000Y-46500000D02*
G75*
G02X96400000Y-47200000I0J-700000D01*
G01*
X96400000Y-47800000D02*
G75*
G02X95700000Y-48500000I-700000J0D01*
G01*
X96400000Y-47200000D02*
X96400000Y-47800000D01*
X94300000Y-46500000D02*
X95700000Y-46500000D01*
X93600000Y-47800000D02*
X93600000Y-47200000D01*
X95700000Y-48500000D02*
X94300000Y-48500000D01*
G04 #@! TO.C,JP4*
X95700000Y-50750000D02*
X94300000Y-50750000D01*
X93600000Y-50050000D02*
X93600000Y-49450000D01*
X94300000Y-48750000D02*
X95700000Y-48750000D01*
X96400000Y-49450000D02*
X96400000Y-50050000D01*
X96400000Y-50050000D02*
G75*
G02X95700000Y-50750000I-700000J0D01*
G01*
X95700000Y-48750000D02*
G75*
G02X96400000Y-49450000I0J-700000D01*
G01*
X93600000Y-49450000D02*
G75*
G02X94300000Y-48750000I700000J0D01*
G01*
X94300000Y-50750000D02*
G75*
G02X93600000Y-50050000I0J700000D01*
G01*
G04 #@! TO.C,8MHz1*
X108399604Y-68720493D02*
G75*
G03X111970494Y-65149605I1785445J1785444D01*
G01*
X103980188Y-64301077D02*
G75*
G02X107551076Y-60730187I1785444J1785445D01*
G01*
X103980187Y-64301076D02*
X108399605Y-68720494D01*
X107551076Y-60730187D02*
X111970494Y-65149605D01*
G04 #@! TO.C,U1*
D11*
X108296030Y-54123526D02*
X108868450Y-54695946D01*
X108969465Y-54729618D01*
X109036809Y-54729618D01*
X109137824Y-54695946D01*
X109272511Y-54561259D01*
X109306183Y-54460244D01*
X109306183Y-54392900D01*
X109272511Y-54291885D01*
X108700091Y-53719465D01*
X110114305Y-53719465D02*
X109710244Y-54123526D01*
X109912274Y-53921496D02*
X109205168Y-53214389D01*
X109238839Y-53382748D01*
X109238839Y-53517435D01*
X109205168Y-53618450D01*
G04 #@! TO.C,D4*
D15*
X66226190Y-45119047D02*
X65726190Y-45119047D01*
X65726190Y-45000000D01*
X65750000Y-44928571D01*
X65797619Y-44880952D01*
X65845238Y-44857142D01*
X65940476Y-44833333D01*
X66011904Y-44833333D01*
X66107142Y-44857142D01*
X66154761Y-44880952D01*
X66202380Y-44928571D01*
X66226190Y-45000000D01*
X66226190Y-45119047D01*
X65892857Y-44404761D02*
X66226190Y-44404761D01*
X65702380Y-44523809D02*
X66059523Y-44642857D01*
X66059523Y-44333333D01*
G04 #@! TO.C,D5*
X143130952Y-50726190D02*
X143130952Y-50226190D01*
X143250000Y-50226190D01*
X143321428Y-50250000D01*
X143369047Y-50297619D01*
X143392857Y-50345238D01*
X143416666Y-50440476D01*
X143416666Y-50511904D01*
X143392857Y-50607142D01*
X143369047Y-50654761D01*
X143321428Y-50702380D01*
X143250000Y-50726190D01*
X143130952Y-50726190D01*
X143869047Y-50226190D02*
X143630952Y-50226190D01*
X143607142Y-50464285D01*
X143630952Y-50440476D01*
X143678571Y-50416666D01*
X143797619Y-50416666D01*
X143845238Y-50440476D01*
X143869047Y-50464285D01*
X143892857Y-50511904D01*
X143892857Y-50630952D01*
X143869047Y-50678571D01*
X143845238Y-50702380D01*
X143797619Y-50726190D01*
X143678571Y-50726190D01*
X143630952Y-50702380D01*
X143607142Y-50678571D01*
G04 #@! TO.C,D6*
X105630952Y-40226190D02*
X105630952Y-39726190D01*
X105750000Y-39726190D01*
X105821428Y-39750000D01*
X105869047Y-39797619D01*
X105892857Y-39845238D01*
X105916666Y-39940476D01*
X105916666Y-40011904D01*
X105892857Y-40107142D01*
X105869047Y-40154761D01*
X105821428Y-40202380D01*
X105750000Y-40226190D01*
X105630952Y-40226190D01*
X106345238Y-39726190D02*
X106250000Y-39726190D01*
X106202380Y-39750000D01*
X106178571Y-39773809D01*
X106130952Y-39845238D01*
X106107142Y-39940476D01*
X106107142Y-40130952D01*
X106130952Y-40178571D01*
X106154761Y-40202380D01*
X106202380Y-40226190D01*
X106297619Y-40226190D01*
X106345238Y-40202380D01*
X106369047Y-40178571D01*
X106392857Y-40130952D01*
X106392857Y-40011904D01*
X106369047Y-39964285D01*
X106345238Y-39940476D01*
X106297619Y-39916666D01*
X106202380Y-39916666D01*
X106154761Y-39940476D01*
X106130952Y-39964285D01*
X106107142Y-40011904D01*
G04 #@! TO.C,J3*
D11*
X64416666Y-36952380D02*
X64416666Y-37666666D01*
X64369047Y-37809523D01*
X64273809Y-37904761D01*
X64130952Y-37952380D01*
X64035714Y-37952380D01*
X64797619Y-36952380D02*
X65416666Y-36952380D01*
X65083333Y-37333333D01*
X65226190Y-37333333D01*
X65321428Y-37380952D01*
X65369047Y-37428571D01*
X65416666Y-37523809D01*
X65416666Y-37761904D01*
X65369047Y-37857142D01*
X65321428Y-37904761D01*
X65226190Y-37952380D01*
X64940476Y-37952380D01*
X64845238Y-37904761D01*
X64797619Y-37857142D01*
G04 #@! TO.C,U5*
D15*
X92619047Y-36226190D02*
X92619047Y-36630952D01*
X92642857Y-36678571D01*
X92666666Y-36702380D01*
X92714285Y-36726190D01*
X92809523Y-36726190D01*
X92857142Y-36702380D01*
X92880952Y-36678571D01*
X92904761Y-36630952D01*
X92904761Y-36226190D01*
X93380952Y-36226190D02*
X93142857Y-36226190D01*
X93119047Y-36464285D01*
X93142857Y-36440476D01*
X93190476Y-36416666D01*
X93309523Y-36416666D01*
X93357142Y-36440476D01*
X93380952Y-36464285D01*
X93404761Y-36511904D01*
X93404761Y-36630952D01*
X93380952Y-36678571D01*
X93357142Y-36702380D01*
X93309523Y-36726190D01*
X93190476Y-36726190D01*
X93142857Y-36702380D01*
X93119047Y-36678571D01*
G04 #@! TO.C,H1*
X71119047Y-70626190D02*
X71119047Y-70126190D01*
X71119047Y-70364285D02*
X71404761Y-70364285D01*
X71404761Y-70626190D02*
X71404761Y-70126190D01*
X71904761Y-70626190D02*
X71619047Y-70626190D01*
X71761904Y-70626190D02*
X71761904Y-70126190D01*
X71714285Y-70197619D01*
X71666666Y-70245238D01*
X71619047Y-70269047D01*
G04 #@! TO.C,H2*
X76919047Y-70626190D02*
X76919047Y-70126190D01*
X76919047Y-70364285D02*
X77204761Y-70364285D01*
X77204761Y-70626190D02*
X77204761Y-70126190D01*
X77419047Y-70173809D02*
X77442857Y-70150000D01*
X77490476Y-70126190D01*
X77609523Y-70126190D01*
X77657142Y-70150000D01*
X77680952Y-70173809D01*
X77704761Y-70221428D01*
X77704761Y-70269047D01*
X77680952Y-70340476D01*
X77395238Y-70626190D01*
X77704761Y-70626190D01*
G04 #@! TO.C,BZ1*
X139559523Y-71214285D02*
X139630952Y-71238095D01*
X139654761Y-71261904D01*
X139678571Y-71309523D01*
X139678571Y-71380952D01*
X139654761Y-71428571D01*
X139630952Y-71452380D01*
X139583333Y-71476190D01*
X139392857Y-71476190D01*
X139392857Y-70976190D01*
X139559523Y-70976190D01*
X139607142Y-71000000D01*
X139630952Y-71023809D01*
X139654761Y-71071428D01*
X139654761Y-71119047D01*
X139630952Y-71166666D01*
X139607142Y-71190476D01*
X139559523Y-71214285D01*
X139392857Y-71214285D01*
X139845238Y-70976190D02*
X140178571Y-70976190D01*
X139845238Y-71476190D01*
X140178571Y-71476190D01*
X140630952Y-71476190D02*
X140345238Y-71476190D01*
X140488095Y-71476190D02*
X140488095Y-70976190D01*
X140440476Y-71047619D01*
X140392857Y-71095238D01*
X140345238Y-71119047D01*
G04 #@! TO.C,C1*
X81916666Y-59428571D02*
X81892857Y-59452380D01*
X81821428Y-59476190D01*
X81773809Y-59476190D01*
X81702380Y-59452380D01*
X81654761Y-59404761D01*
X81630952Y-59357142D01*
X81607142Y-59261904D01*
X81607142Y-59190476D01*
X81630952Y-59095238D01*
X81654761Y-59047619D01*
X81702380Y-59000000D01*
X81773809Y-58976190D01*
X81821428Y-58976190D01*
X81892857Y-59000000D01*
X81916666Y-59023809D01*
X82392857Y-59476190D02*
X82107142Y-59476190D01*
X82250000Y-59476190D02*
X82250000Y-58976190D01*
X82202380Y-59047619D01*
X82154761Y-59095238D01*
X82107142Y-59119047D01*
G04 #@! TO.C,C2*
X67666666Y-56678571D02*
X67642857Y-56702380D01*
X67571428Y-56726190D01*
X67523809Y-56726190D01*
X67452380Y-56702380D01*
X67404761Y-56654761D01*
X67380952Y-56607142D01*
X67357142Y-56511904D01*
X67357142Y-56440476D01*
X67380952Y-56345238D01*
X67404761Y-56297619D01*
X67452380Y-56250000D01*
X67523809Y-56226190D01*
X67571428Y-56226190D01*
X67642857Y-56250000D01*
X67666666Y-56273809D01*
X67857142Y-56273809D02*
X67880952Y-56250000D01*
X67928571Y-56226190D01*
X68047619Y-56226190D01*
X68095238Y-56250000D01*
X68119047Y-56273809D01*
X68142857Y-56321428D01*
X68142857Y-56369047D01*
X68119047Y-56440476D01*
X67833333Y-56726190D01*
X68142857Y-56726190D01*
G04 #@! TO.C,C3*
X69678571Y-57333333D02*
X69702380Y-57357142D01*
X69726190Y-57428571D01*
X69726190Y-57476190D01*
X69702380Y-57547619D01*
X69654761Y-57595238D01*
X69607142Y-57619047D01*
X69511904Y-57642857D01*
X69440476Y-57642857D01*
X69345238Y-57619047D01*
X69297619Y-57595238D01*
X69250000Y-57547619D01*
X69226190Y-57476190D01*
X69226190Y-57428571D01*
X69250000Y-57357142D01*
X69273809Y-57333333D01*
X69226190Y-57166666D02*
X69226190Y-56857142D01*
X69416666Y-57023809D01*
X69416666Y-56952380D01*
X69440476Y-56904761D01*
X69464285Y-56880952D01*
X69511904Y-56857142D01*
X69630952Y-56857142D01*
X69678571Y-56880952D01*
X69702380Y-56904761D01*
X69726190Y-56952380D01*
X69726190Y-57095238D01*
X69702380Y-57142857D01*
X69678571Y-57166666D01*
G04 #@! TO.C,C4*
X120666666Y-52428571D02*
X120642857Y-52452380D01*
X120571428Y-52476190D01*
X120523809Y-52476190D01*
X120452380Y-52452380D01*
X120404761Y-52404761D01*
X120380952Y-52357142D01*
X120357142Y-52261904D01*
X120357142Y-52190476D01*
X120380952Y-52095238D01*
X120404761Y-52047619D01*
X120452380Y-52000000D01*
X120523809Y-51976190D01*
X120571428Y-51976190D01*
X120642857Y-52000000D01*
X120666666Y-52023809D01*
X121095238Y-52142857D02*
X121095238Y-52476190D01*
X120976190Y-51952380D02*
X120857142Y-52309523D01*
X121166666Y-52309523D01*
G04 #@! TO.C,C5*
X118416666Y-50928571D02*
X118392857Y-50952380D01*
X118321428Y-50976190D01*
X118273809Y-50976190D01*
X118202380Y-50952380D01*
X118154761Y-50904761D01*
X118130952Y-50857142D01*
X118107142Y-50761904D01*
X118107142Y-50690476D01*
X118130952Y-50595238D01*
X118154761Y-50547619D01*
X118202380Y-50500000D01*
X118273809Y-50476190D01*
X118321428Y-50476190D01*
X118392857Y-50500000D01*
X118416666Y-50523809D01*
X118869047Y-50476190D02*
X118630952Y-50476190D01*
X118607142Y-50714285D01*
X118630952Y-50690476D01*
X118678571Y-50666666D01*
X118797619Y-50666666D01*
X118845238Y-50690476D01*
X118869047Y-50714285D01*
X118892857Y-50761904D01*
X118892857Y-50880952D01*
X118869047Y-50928571D01*
X118845238Y-50952380D01*
X118797619Y-50976190D01*
X118678571Y-50976190D01*
X118630952Y-50952380D01*
X118607142Y-50928571D01*
G04 #@! TO.C,C6*
X127821665Y-43048570D02*
X127797856Y-43072379D01*
X127726427Y-43096189D01*
X127678808Y-43096189D01*
X127607379Y-43072379D01*
X127559760Y-43024760D01*
X127535951Y-42977141D01*
X127512141Y-42881903D01*
X127512141Y-42810475D01*
X127535951Y-42715237D01*
X127559760Y-42667618D01*
X127607379Y-42619999D01*
X127678808Y-42596189D01*
X127726427Y-42596189D01*
X127797856Y-42619999D01*
X127821665Y-42643808D01*
X128250237Y-42596189D02*
X128154999Y-42596189D01*
X128107379Y-42619999D01*
X128083570Y-42643808D01*
X128035951Y-42715237D01*
X128012141Y-42810475D01*
X128012141Y-43000951D01*
X128035951Y-43048570D01*
X128059760Y-43072379D01*
X128107379Y-43096189D01*
X128202618Y-43096189D01*
X128250237Y-43072379D01*
X128274046Y-43048570D01*
X128297856Y-43000951D01*
X128297856Y-42881903D01*
X128274046Y-42834284D01*
X128250237Y-42810475D01*
X128202618Y-42786665D01*
X128107379Y-42786665D01*
X128059760Y-42810475D01*
X128035951Y-42834284D01*
X128012141Y-42881903D01*
G04 #@! TO.C,C7*
X122416666Y-37928571D02*
X122392857Y-37952380D01*
X122321428Y-37976190D01*
X122273809Y-37976190D01*
X122202380Y-37952380D01*
X122154761Y-37904761D01*
X122130952Y-37857142D01*
X122107142Y-37761904D01*
X122107142Y-37690476D01*
X122130952Y-37595238D01*
X122154761Y-37547619D01*
X122202380Y-37500000D01*
X122273809Y-37476190D01*
X122321428Y-37476190D01*
X122392857Y-37500000D01*
X122416666Y-37523809D01*
X122583333Y-37476190D02*
X122916666Y-37476190D01*
X122702380Y-37976190D01*
G04 #@! TO.C,C8*
X118314805Y-52567343D02*
X118281133Y-52567343D01*
X118213790Y-52533671D01*
X118180118Y-52500000D01*
X118146446Y-52432656D01*
X118146446Y-52365312D01*
X118163282Y-52314805D01*
X118213790Y-52230625D01*
X118264297Y-52180118D01*
X118348477Y-52129610D01*
X118398984Y-52112774D01*
X118466328Y-52112774D01*
X118533671Y-52146446D01*
X118567343Y-52180118D01*
X118601015Y-52247461D01*
X118601015Y-52281133D01*
X118685194Y-52601015D02*
X118668358Y-52550507D01*
X118668358Y-52516835D01*
X118685194Y-52466328D01*
X118702030Y-52449492D01*
X118752538Y-52432656D01*
X118786209Y-52432656D01*
X118836717Y-52449492D01*
X118904061Y-52516835D01*
X118920896Y-52567343D01*
X118920896Y-52601015D01*
X118904061Y-52651522D01*
X118887225Y-52668358D01*
X118836717Y-52685194D01*
X118803045Y-52685194D01*
X118752538Y-52668358D01*
X118685194Y-52601015D01*
X118634687Y-52584179D01*
X118601015Y-52584179D01*
X118550507Y-52601015D01*
X118483164Y-52668358D01*
X118466328Y-52718866D01*
X118466328Y-52752538D01*
X118483164Y-52803045D01*
X118550507Y-52870389D01*
X118601015Y-52887225D01*
X118634687Y-52887225D01*
X118685194Y-52870389D01*
X118752538Y-52803045D01*
X118769374Y-52752538D01*
X118769374Y-52718866D01*
X118752538Y-52668358D01*
G04 #@! TO.C,C9*
X91678571Y-61583333D02*
X91702380Y-61607142D01*
X91726190Y-61678571D01*
X91726190Y-61726190D01*
X91702380Y-61797619D01*
X91654761Y-61845238D01*
X91607142Y-61869047D01*
X91511904Y-61892857D01*
X91440476Y-61892857D01*
X91345238Y-61869047D01*
X91297619Y-61845238D01*
X91250000Y-61797619D01*
X91226190Y-61726190D01*
X91226190Y-61678571D01*
X91250000Y-61607142D01*
X91273809Y-61583333D01*
X91726190Y-61345238D02*
X91726190Y-61250000D01*
X91702380Y-61202380D01*
X91678571Y-61178571D01*
X91607142Y-61130952D01*
X91511904Y-61107142D01*
X91321428Y-61107142D01*
X91273809Y-61130952D01*
X91250000Y-61154761D01*
X91226190Y-61202380D01*
X91226190Y-61297619D01*
X91250000Y-61345238D01*
X91273809Y-61369047D01*
X91321428Y-61392857D01*
X91440476Y-61392857D01*
X91488095Y-61369047D01*
X91511904Y-61345238D01*
X91535714Y-61297619D01*
X91535714Y-61202380D01*
X91511904Y-61154761D01*
X91488095Y-61130952D01*
X91440476Y-61107142D01*
G04 #@! TO.C,C10*
X104896446Y-68648984D02*
X104862774Y-68648984D01*
X104795431Y-68615312D01*
X104761759Y-68581641D01*
X104728087Y-68514297D01*
X104728087Y-68446954D01*
X104744923Y-68396446D01*
X104795431Y-68312267D01*
X104845938Y-68261759D01*
X104930118Y-68211251D01*
X104980625Y-68194416D01*
X105047969Y-68194416D01*
X105115312Y-68228087D01*
X105148984Y-68261759D01*
X105182656Y-68329103D01*
X105182656Y-68362774D01*
X105199492Y-69019374D02*
X104997461Y-68817343D01*
X105098477Y-68918358D02*
X105452030Y-68564805D01*
X105367851Y-68581641D01*
X105300507Y-68581641D01*
X105250000Y-68564805D01*
X105771912Y-68884687D02*
X105805583Y-68918358D01*
X105822419Y-68968866D01*
X105822419Y-69002538D01*
X105805583Y-69053045D01*
X105755076Y-69137225D01*
X105670896Y-69221404D01*
X105586717Y-69271912D01*
X105536209Y-69288748D01*
X105502538Y-69288748D01*
X105452030Y-69271912D01*
X105418358Y-69238240D01*
X105401522Y-69187732D01*
X105401522Y-69154061D01*
X105418358Y-69103553D01*
X105468866Y-69019374D01*
X105553045Y-68935194D01*
X105637225Y-68884687D01*
X105687732Y-68867851D01*
X105721404Y-68867851D01*
X105771912Y-68884687D01*
G04 #@! TO.C,C11*
X102859511Y-66908101D02*
X102825839Y-66908101D01*
X102758496Y-66874429D01*
X102724824Y-66840758D01*
X102691152Y-66773414D01*
X102691152Y-66706071D01*
X102707988Y-66655563D01*
X102758496Y-66571384D01*
X102809003Y-66520876D01*
X102893183Y-66470368D01*
X102943690Y-66453533D01*
X103011034Y-66453533D01*
X103078377Y-66487204D01*
X103112049Y-66520876D01*
X103145721Y-66588220D01*
X103145721Y-66621891D01*
X103162557Y-67278491D02*
X102960526Y-67076460D01*
X103061542Y-67177475D02*
X103415095Y-66823922D01*
X103330916Y-66840758D01*
X103263572Y-66840758D01*
X103213065Y-66823922D01*
X103499274Y-67615208D02*
X103297244Y-67413178D01*
X103398259Y-67514193D02*
X103751813Y-67160639D01*
X103667633Y-67177475D01*
X103600290Y-67177475D01*
X103549782Y-67160639D01*
G04 #@! TO.C,C12*
X93178571Y-61821428D02*
X93202380Y-61845238D01*
X93226190Y-61916666D01*
X93226190Y-61964285D01*
X93202380Y-62035714D01*
X93154761Y-62083333D01*
X93107142Y-62107142D01*
X93011904Y-62130952D01*
X92940476Y-62130952D01*
X92845238Y-62107142D01*
X92797619Y-62083333D01*
X92750000Y-62035714D01*
X92726190Y-61964285D01*
X92726190Y-61916666D01*
X92750000Y-61845238D01*
X92773809Y-61821428D01*
X93226190Y-61345238D02*
X93226190Y-61630952D01*
X93226190Y-61488095D02*
X92726190Y-61488095D01*
X92797619Y-61535714D01*
X92845238Y-61583333D01*
X92869047Y-61630952D01*
X92773809Y-61154761D02*
X92750000Y-61130952D01*
X92726190Y-61083333D01*
X92726190Y-60964285D01*
X92750000Y-60916666D01*
X92773809Y-60892857D01*
X92821428Y-60869047D01*
X92869047Y-60869047D01*
X92940476Y-60892857D01*
X93226190Y-61178571D01*
X93226190Y-60869047D01*
G04 #@! TO.C,C13*
X65928571Y-58678571D02*
X65904761Y-58702380D01*
X65833333Y-58726190D01*
X65785714Y-58726190D01*
X65714285Y-58702380D01*
X65666666Y-58654761D01*
X65642857Y-58607142D01*
X65619047Y-58511904D01*
X65619047Y-58440476D01*
X65642857Y-58345238D01*
X65666666Y-58297619D01*
X65714285Y-58250000D01*
X65785714Y-58226190D01*
X65833333Y-58226190D01*
X65904761Y-58250000D01*
X65928571Y-58273809D01*
X66404761Y-58726190D02*
X66119047Y-58726190D01*
X66261904Y-58726190D02*
X66261904Y-58226190D01*
X66214285Y-58297619D01*
X66166666Y-58345238D01*
X66119047Y-58369047D01*
X66571428Y-58226190D02*
X66880952Y-58226190D01*
X66714285Y-58416666D01*
X66785714Y-58416666D01*
X66833333Y-58440476D01*
X66857142Y-58464285D01*
X66880952Y-58511904D01*
X66880952Y-58630952D01*
X66857142Y-58678571D01*
X66833333Y-58702380D01*
X66785714Y-58726190D01*
X66642857Y-58726190D01*
X66595238Y-58702380D01*
X66571428Y-58678571D01*
G04 #@! TO.C,C14*
X65928571Y-60178571D02*
X65904761Y-60202380D01*
X65833333Y-60226190D01*
X65785714Y-60226190D01*
X65714285Y-60202380D01*
X65666666Y-60154761D01*
X65642857Y-60107142D01*
X65619047Y-60011904D01*
X65619047Y-59940476D01*
X65642857Y-59845238D01*
X65666666Y-59797619D01*
X65714285Y-59750000D01*
X65785714Y-59726190D01*
X65833333Y-59726190D01*
X65904761Y-59750000D01*
X65928571Y-59773809D01*
X66404761Y-60226190D02*
X66119047Y-60226190D01*
X66261904Y-60226190D02*
X66261904Y-59726190D01*
X66214285Y-59797619D01*
X66166666Y-59845238D01*
X66119047Y-59869047D01*
X66833333Y-59892857D02*
X66833333Y-60226190D01*
X66714285Y-59702380D02*
X66595238Y-60059523D01*
X66904761Y-60059523D01*
G04 #@! TO.C,C15*
X76928571Y-59178571D02*
X76904761Y-59202380D01*
X76833333Y-59226190D01*
X76785714Y-59226190D01*
X76714285Y-59202380D01*
X76666666Y-59154761D01*
X76642857Y-59107142D01*
X76619047Y-59011904D01*
X76619047Y-58940476D01*
X76642857Y-58845238D01*
X76666666Y-58797619D01*
X76714285Y-58750000D01*
X76785714Y-58726190D01*
X76833333Y-58726190D01*
X76904761Y-58750000D01*
X76928571Y-58773809D01*
X77404761Y-59226190D02*
X77119047Y-59226190D01*
X77261904Y-59226190D02*
X77261904Y-58726190D01*
X77214285Y-58797619D01*
X77166666Y-58845238D01*
X77119047Y-58869047D01*
X77857142Y-58726190D02*
X77619047Y-58726190D01*
X77595238Y-58964285D01*
X77619047Y-58940476D01*
X77666666Y-58916666D01*
X77785714Y-58916666D01*
X77833333Y-58940476D01*
X77857142Y-58964285D01*
X77880952Y-59011904D01*
X77880952Y-59130952D01*
X77857142Y-59178571D01*
X77833333Y-59202380D01*
X77785714Y-59226190D01*
X77666666Y-59226190D01*
X77619047Y-59202380D01*
X77595238Y-59178571D01*
G04 #@! TO.C,C16*
X95178571Y-63571428D02*
X95202380Y-63595238D01*
X95226190Y-63666666D01*
X95226190Y-63714285D01*
X95202380Y-63785714D01*
X95154761Y-63833333D01*
X95107142Y-63857142D01*
X95011904Y-63880952D01*
X94940476Y-63880952D01*
X94845238Y-63857142D01*
X94797619Y-63833333D01*
X94750000Y-63785714D01*
X94726190Y-63714285D01*
X94726190Y-63666666D01*
X94750000Y-63595238D01*
X94773809Y-63571428D01*
X95226190Y-63095238D02*
X95226190Y-63380952D01*
X95226190Y-63238095D02*
X94726190Y-63238095D01*
X94797619Y-63285714D01*
X94845238Y-63333333D01*
X94869047Y-63380952D01*
X94726190Y-62666666D02*
X94726190Y-62761904D01*
X94750000Y-62809523D01*
X94773809Y-62833333D01*
X94845238Y-62880952D01*
X94940476Y-62904761D01*
X95130952Y-62904761D01*
X95178571Y-62880952D01*
X95202380Y-62857142D01*
X95226190Y-62809523D01*
X95226190Y-62714285D01*
X95202380Y-62666666D01*
X95178571Y-62642857D01*
X95130952Y-62619047D01*
X95011904Y-62619047D01*
X94964285Y-62642857D01*
X94940476Y-62666666D01*
X94916666Y-62714285D01*
X94916666Y-62809523D01*
X94940476Y-62857142D01*
X94964285Y-62880952D01*
X95011904Y-62904761D01*
G04 #@! TO.C,C17*
X114178571Y-42928571D02*
X114154761Y-42952380D01*
X114083333Y-42976190D01*
X114035714Y-42976190D01*
X113964285Y-42952380D01*
X113916666Y-42904761D01*
X113892857Y-42857142D01*
X113869047Y-42761904D01*
X113869047Y-42690476D01*
X113892857Y-42595238D01*
X113916666Y-42547619D01*
X113964285Y-42500000D01*
X114035714Y-42476190D01*
X114083333Y-42476190D01*
X114154761Y-42500000D01*
X114178571Y-42523809D01*
X114654761Y-42976190D02*
X114369047Y-42976190D01*
X114511904Y-42976190D02*
X114511904Y-42476190D01*
X114464285Y-42547619D01*
X114416666Y-42595238D01*
X114369047Y-42619047D01*
X114821428Y-42476190D02*
X115154761Y-42476190D01*
X114940476Y-42976190D01*
G04 #@! TO.C,D1*
X113880952Y-44476190D02*
X113880952Y-43976190D01*
X114000000Y-43976190D01*
X114071428Y-44000000D01*
X114119047Y-44047619D01*
X114142857Y-44095238D01*
X114166666Y-44190476D01*
X114166666Y-44261904D01*
X114142857Y-44357142D01*
X114119047Y-44404761D01*
X114071428Y-44452380D01*
X114000000Y-44476190D01*
X113880952Y-44476190D01*
X114642857Y-44476190D02*
X114357142Y-44476190D01*
X114500000Y-44476190D02*
X114500000Y-43976190D01*
X114452380Y-44047619D01*
X114404761Y-44095238D01*
X114357142Y-44119047D01*
G04 #@! TO.C,D2*
X117880952Y-69226190D02*
X117880952Y-68726190D01*
X118000000Y-68726190D01*
X118071428Y-68750000D01*
X118119047Y-68797619D01*
X118142857Y-68845238D01*
X118166666Y-68940476D01*
X118166666Y-69011904D01*
X118142857Y-69107142D01*
X118119047Y-69154761D01*
X118071428Y-69202380D01*
X118000000Y-69226190D01*
X117880952Y-69226190D01*
X118357142Y-68773809D02*
X118380952Y-68750000D01*
X118428571Y-68726190D01*
X118547619Y-68726190D01*
X118595238Y-68750000D01*
X118619047Y-68773809D01*
X118642857Y-68821428D01*
X118642857Y-68869047D01*
X118619047Y-68940476D01*
X118333333Y-69226190D01*
X118642857Y-69226190D01*
G04 #@! TO.C,D3*
X62726190Y-68619047D02*
X62226190Y-68619047D01*
X62226190Y-68500000D01*
X62250000Y-68428571D01*
X62297619Y-68380952D01*
X62345238Y-68357142D01*
X62440476Y-68333333D01*
X62511904Y-68333333D01*
X62607142Y-68357142D01*
X62654761Y-68380952D01*
X62702380Y-68428571D01*
X62726190Y-68500000D01*
X62726190Y-68619047D01*
X62226190Y-68166666D02*
X62226190Y-67857142D01*
X62416666Y-68023809D01*
X62416666Y-67952380D01*
X62440476Y-67904761D01*
X62464285Y-67880952D01*
X62511904Y-67857142D01*
X62630952Y-67857142D01*
X62678571Y-67880952D01*
X62702380Y-67904761D01*
X62726190Y-67952380D01*
X62726190Y-68095238D01*
X62702380Y-68142857D01*
X62678571Y-68166666D01*
G04 #@! TO.C,D7*
X66380952Y-63476190D02*
X66380952Y-62976190D01*
X66500000Y-62976190D01*
X66571428Y-63000000D01*
X66619047Y-63047619D01*
X66642857Y-63095238D01*
X66666666Y-63190476D01*
X66666666Y-63261904D01*
X66642857Y-63357142D01*
X66619047Y-63404761D01*
X66571428Y-63452380D01*
X66500000Y-63476190D01*
X66380952Y-63476190D01*
X66833333Y-62976190D02*
X67166666Y-62976190D01*
X66952380Y-63476190D01*
G04 #@! TO.C,D8*
X66380952Y-61726190D02*
X66380952Y-61226190D01*
X66500000Y-61226190D01*
X66571428Y-61250000D01*
X66619047Y-61297619D01*
X66642857Y-61345238D01*
X66666666Y-61440476D01*
X66666666Y-61511904D01*
X66642857Y-61607142D01*
X66619047Y-61654761D01*
X66571428Y-61702380D01*
X66500000Y-61726190D01*
X66380952Y-61726190D01*
X66952380Y-61440476D02*
X66904761Y-61416666D01*
X66880952Y-61392857D01*
X66857142Y-61345238D01*
X66857142Y-61321428D01*
X66880952Y-61273809D01*
X66904761Y-61250000D01*
X66952380Y-61226190D01*
X67047619Y-61226190D01*
X67095238Y-61250000D01*
X67119047Y-61273809D01*
X67142857Y-61321428D01*
X67142857Y-61345238D01*
X67119047Y-61392857D01*
X67095238Y-61416666D01*
X67047619Y-61440476D01*
X66952380Y-61440476D01*
X66904761Y-61464285D01*
X66880952Y-61488095D01*
X66857142Y-61535714D01*
X66857142Y-61630952D01*
X66880952Y-61678571D01*
X66904761Y-61702380D01*
X66952380Y-61726190D01*
X67047619Y-61726190D01*
X67095238Y-61702380D01*
X67119047Y-61678571D01*
X67142857Y-61630952D01*
X67142857Y-61535714D01*
X67119047Y-61488095D01*
X67095238Y-61464285D01*
X67047619Y-61440476D01*
G04 #@! TO.C,D9*
X70476190Y-68619047D02*
X69976190Y-68619047D01*
X69976190Y-68500000D01*
X70000000Y-68428571D01*
X70047619Y-68380952D01*
X70095238Y-68357142D01*
X70190476Y-68333333D01*
X70261904Y-68333333D01*
X70357142Y-68357142D01*
X70404761Y-68380952D01*
X70452380Y-68428571D01*
X70476190Y-68500000D01*
X70476190Y-68619047D01*
X70476190Y-68095238D02*
X70476190Y-68000000D01*
X70452380Y-67952380D01*
X70428571Y-67928571D01*
X70357142Y-67880952D01*
X70261904Y-67857142D01*
X70071428Y-67857142D01*
X70023809Y-67880952D01*
X70000000Y-67904761D01*
X69976190Y-67952380D01*
X69976190Y-68047619D01*
X70000000Y-68095238D01*
X70023809Y-68119047D01*
X70071428Y-68142857D01*
X70190476Y-68142857D01*
X70238095Y-68119047D01*
X70261904Y-68095238D01*
X70285714Y-68047619D01*
X70285714Y-67952380D01*
X70261904Y-67904761D01*
X70238095Y-67880952D01*
X70190476Y-67857142D01*
G04 #@! TO.C,D10*
X62476190Y-66357142D02*
X61976190Y-66357142D01*
X61976190Y-66238095D01*
X62000000Y-66166666D01*
X62047619Y-66119047D01*
X62095238Y-66095238D01*
X62190476Y-66071428D01*
X62261904Y-66071428D01*
X62357142Y-66095238D01*
X62404761Y-66119047D01*
X62452380Y-66166666D01*
X62476190Y-66238095D01*
X62476190Y-66357142D01*
X62476190Y-65595238D02*
X62476190Y-65880952D01*
X62476190Y-65738095D02*
X61976190Y-65738095D01*
X62047619Y-65785714D01*
X62095238Y-65833333D01*
X62119047Y-65880952D01*
X61976190Y-65285714D02*
X61976190Y-65238095D01*
X62000000Y-65190476D01*
X62023809Y-65166666D01*
X62071428Y-65142857D01*
X62166666Y-65119047D01*
X62285714Y-65119047D01*
X62380952Y-65142857D01*
X62428571Y-65166666D01*
X62452380Y-65190476D01*
X62476190Y-65238095D01*
X62476190Y-65285714D01*
X62452380Y-65333333D01*
X62428571Y-65357142D01*
X62380952Y-65380952D01*
X62285714Y-65404761D01*
X62166666Y-65404761D01*
X62071428Y-65380952D01*
X62023809Y-65357142D01*
X62000000Y-65333333D01*
X61976190Y-65285714D01*
G04 #@! TO.C,D11*
X66626190Y-66607142D02*
X66126190Y-66607142D01*
X66126190Y-66488095D01*
X66150000Y-66416666D01*
X66197619Y-66369047D01*
X66245238Y-66345238D01*
X66340476Y-66321428D01*
X66411904Y-66321428D01*
X66507142Y-66345238D01*
X66554761Y-66369047D01*
X66602380Y-66416666D01*
X66626190Y-66488095D01*
X66626190Y-66607142D01*
X66626190Y-65845238D02*
X66626190Y-66130952D01*
X66626190Y-65988095D02*
X66126190Y-65988095D01*
X66197619Y-66035714D01*
X66245238Y-66083333D01*
X66269047Y-66130952D01*
X66626190Y-65369047D02*
X66626190Y-65654761D01*
X66626190Y-65511904D02*
X66126190Y-65511904D01*
X66197619Y-65559523D01*
X66245238Y-65607142D01*
X66269047Y-65654761D01*
G04 #@! TO.C,IC2*
X77511904Y-68476190D02*
X77511904Y-67976190D01*
X78035714Y-68428571D02*
X78011904Y-68452380D01*
X77940476Y-68476190D01*
X77892857Y-68476190D01*
X77821428Y-68452380D01*
X77773809Y-68404761D01*
X77750000Y-68357142D01*
X77726190Y-68261904D01*
X77726190Y-68190476D01*
X77750000Y-68095238D01*
X77773809Y-68047619D01*
X77821428Y-68000000D01*
X77892857Y-67976190D01*
X77940476Y-67976190D01*
X78011904Y-68000000D01*
X78035714Y-68023809D01*
X78226190Y-68023809D02*
X78250000Y-68000000D01*
X78297619Y-67976190D01*
X78416666Y-67976190D01*
X78464285Y-68000000D01*
X78488095Y-68023809D01*
X78511904Y-68071428D01*
X78511904Y-68119047D01*
X78488095Y-68190476D01*
X78202380Y-68476190D01*
X78511904Y-68476190D01*
G04 #@! TO.C,J2*
X140333333Y-53226190D02*
X140333333Y-53583333D01*
X140309523Y-53654761D01*
X140261904Y-53702380D01*
X140190476Y-53726190D01*
X140142857Y-53726190D01*
X140547619Y-53273809D02*
X140571428Y-53250000D01*
X140619047Y-53226190D01*
X140738095Y-53226190D01*
X140785714Y-53250000D01*
X140809523Y-53273809D01*
X140833333Y-53321428D01*
X140833333Y-53369047D01*
X140809523Y-53440476D01*
X140523809Y-53726190D01*
X140833333Y-53726190D01*
G04 #@! TO.C,J4*
X119976190Y-64166666D02*
X120333333Y-64166666D01*
X120404761Y-64190476D01*
X120452380Y-64238095D01*
X120476190Y-64309523D01*
X120476190Y-64357142D01*
X120142857Y-63714285D02*
X120476190Y-63714285D01*
X119952380Y-63833333D02*
X120309523Y-63952380D01*
X120309523Y-63642857D01*
G04 #@! TO.C,L1*
X137226190Y-52083333D02*
X137226190Y-52321428D01*
X136726190Y-52321428D01*
X137226190Y-51654761D02*
X137226190Y-51940476D01*
X137226190Y-51797619D02*
X136726190Y-51797619D01*
X136797619Y-51845238D01*
X136845238Y-51892857D01*
X136869047Y-51940476D01*
G04 #@! TO.C,L2*
X87666666Y-66476190D02*
X87428571Y-66476190D01*
X87428571Y-65976190D01*
X87809523Y-66023809D02*
X87833333Y-66000000D01*
X87880952Y-65976190D01*
X88000000Y-65976190D01*
X88047619Y-66000000D01*
X88071428Y-66023809D01*
X88095238Y-66071428D01*
X88095238Y-66119047D01*
X88071428Y-66190476D01*
X87785714Y-66476190D01*
X88095238Y-66476190D01*
G04 #@! TO.C,Q1*
X133273809Y-67547619D02*
X133250000Y-67595238D01*
X133202380Y-67642857D01*
X133130952Y-67714285D01*
X133107142Y-67761904D01*
X133107142Y-67809523D01*
X133226190Y-67785714D02*
X133202380Y-67833333D01*
X133154761Y-67880952D01*
X133059523Y-67904761D01*
X132892857Y-67904761D01*
X132797619Y-67880952D01*
X132750000Y-67833333D01*
X132726190Y-67785714D01*
X132726190Y-67690476D01*
X132750000Y-67642857D01*
X132797619Y-67595238D01*
X132892857Y-67571428D01*
X133059523Y-67571428D01*
X133154761Y-67595238D01*
X133202380Y-67642857D01*
X133226190Y-67690476D01*
X133226190Y-67785714D01*
X133226190Y-67095238D02*
X133226190Y-67380952D01*
X133226190Y-67238095D02*
X132726190Y-67238095D01*
X132797619Y-67285714D01*
X132845238Y-67333333D01*
X132869047Y-67380952D01*
G04 #@! TO.C,Q3*
X80452380Y-55773809D02*
X80404761Y-55750000D01*
X80357142Y-55702380D01*
X80285714Y-55630952D01*
X80238095Y-55607142D01*
X80190476Y-55607142D01*
X80214285Y-55726190D02*
X80166666Y-55702380D01*
X80119047Y-55654761D01*
X80095238Y-55559523D01*
X80095238Y-55392857D01*
X80119047Y-55297619D01*
X80166666Y-55250000D01*
X80214285Y-55226190D01*
X80309523Y-55226190D01*
X80357142Y-55250000D01*
X80404761Y-55297619D01*
X80428571Y-55392857D01*
X80428571Y-55559523D01*
X80404761Y-55654761D01*
X80357142Y-55702380D01*
X80309523Y-55726190D01*
X80214285Y-55726190D01*
X80595238Y-55226190D02*
X80904761Y-55226190D01*
X80738095Y-55416666D01*
X80809523Y-55416666D01*
X80857142Y-55440476D01*
X80880952Y-55464285D01*
X80904761Y-55511904D01*
X80904761Y-55630952D01*
X80880952Y-55678571D01*
X80857142Y-55702380D01*
X80809523Y-55726190D01*
X80666666Y-55726190D01*
X80619047Y-55702380D01*
X80595238Y-55678571D01*
G04 #@! TO.C,Q5*
X104992306Y-51478819D02*
X104944687Y-51455010D01*
X104897068Y-51407390D01*
X104825640Y-51335962D01*
X104778021Y-51312152D01*
X104730402Y-51312152D01*
X104754211Y-51431200D02*
X104706592Y-51407390D01*
X104658973Y-51359771D01*
X104635164Y-51264533D01*
X104635164Y-51097867D01*
X104658973Y-51002629D01*
X104706592Y-50955010D01*
X104754211Y-50931200D01*
X104849449Y-50931200D01*
X104897068Y-50955010D01*
X104944687Y-51002629D01*
X104968497Y-51097867D01*
X104968497Y-51264533D01*
X104944687Y-51359771D01*
X104897068Y-51407390D01*
X104849449Y-51431200D01*
X104754211Y-51431200D01*
X105420878Y-50931200D02*
X105182783Y-50931200D01*
X105158973Y-51169295D01*
X105182783Y-51145486D01*
X105230402Y-51121676D01*
X105349449Y-51121676D01*
X105397068Y-51145486D01*
X105420878Y-51169295D01*
X105444687Y-51216914D01*
X105444687Y-51335962D01*
X105420878Y-51383581D01*
X105397068Y-51407390D01*
X105349449Y-51431200D01*
X105230402Y-51431200D01*
X105182783Y-51407390D01*
X105158973Y-51383581D01*
G04 #@! TO.C,R1*
X69476190Y-54333333D02*
X69238095Y-54500000D01*
X69476190Y-54619047D02*
X68976190Y-54619047D01*
X68976190Y-54428571D01*
X69000000Y-54380952D01*
X69023809Y-54357142D01*
X69071428Y-54333333D01*
X69142857Y-54333333D01*
X69190476Y-54357142D01*
X69214285Y-54380952D01*
X69238095Y-54428571D01*
X69238095Y-54619047D01*
X69476190Y-53857142D02*
X69476190Y-54142857D01*
X69476190Y-54000000D02*
X68976190Y-54000000D01*
X69047619Y-54047619D01*
X69095238Y-54095238D01*
X69119047Y-54142857D01*
G04 #@! TO.C,R2*
X72916666Y-53476190D02*
X72750000Y-53238095D01*
X72630952Y-53476190D02*
X72630952Y-52976190D01*
X72821428Y-52976190D01*
X72869047Y-53000000D01*
X72892857Y-53023809D01*
X72916666Y-53071428D01*
X72916666Y-53142857D01*
X72892857Y-53190476D01*
X72869047Y-53214285D01*
X72821428Y-53238095D01*
X72630952Y-53238095D01*
X73107142Y-53023809D02*
X73130952Y-53000000D01*
X73178571Y-52976190D01*
X73297619Y-52976190D01*
X73345238Y-53000000D01*
X73369047Y-53023809D01*
X73392857Y-53071428D01*
X73392857Y-53119047D01*
X73369047Y-53190476D01*
X73083333Y-53476190D01*
X73392857Y-53476190D01*
G04 #@! TO.C,R5*
X131916666Y-61976190D02*
X131750000Y-61738095D01*
X131630952Y-61976190D02*
X131630952Y-61476190D01*
X131821428Y-61476190D01*
X131869047Y-61500000D01*
X131892857Y-61523809D01*
X131916666Y-61571428D01*
X131916666Y-61642857D01*
X131892857Y-61690476D01*
X131869047Y-61714285D01*
X131821428Y-61738095D01*
X131630952Y-61738095D01*
X132369047Y-61476190D02*
X132130952Y-61476190D01*
X132107142Y-61714285D01*
X132130952Y-61690476D01*
X132178571Y-61666666D01*
X132297619Y-61666666D01*
X132345238Y-61690476D01*
X132369047Y-61714285D01*
X132392857Y-61761904D01*
X132392857Y-61880952D01*
X132369047Y-61928571D01*
X132345238Y-61952380D01*
X132297619Y-61976190D01*
X132178571Y-61976190D01*
X132130952Y-61952380D01*
X132107142Y-61928571D01*
G04 #@! TO.C,R6*
D11*
X144333333Y-42502380D02*
X144000000Y-42026190D01*
X143761904Y-42502380D02*
X143761904Y-41502380D01*
X144142857Y-41502380D01*
X144238095Y-41550000D01*
X144285714Y-41597619D01*
X144333333Y-41692857D01*
X144333333Y-41835714D01*
X144285714Y-41930952D01*
X144238095Y-41978571D01*
X144142857Y-42026190D01*
X143761904Y-42026190D01*
X145190476Y-41502380D02*
X145000000Y-41502380D01*
X144904761Y-41550000D01*
X144857142Y-41597619D01*
X144761904Y-41740476D01*
X144714285Y-41930952D01*
X144714285Y-42311904D01*
X144761904Y-42407142D01*
X144809523Y-42454761D01*
X144904761Y-42502380D01*
X145095238Y-42502380D01*
X145190476Y-42454761D01*
X145238095Y-42407142D01*
X145285714Y-42311904D01*
X145285714Y-42073809D01*
X145238095Y-41978571D01*
X145190476Y-41930952D01*
X145095238Y-41883333D01*
X144904761Y-41883333D01*
X144809523Y-41930952D01*
X144761904Y-41978571D01*
X144714285Y-42073809D01*
G04 #@! TO.C,R7*
D15*
X118726190Y-64833333D02*
X118488095Y-65000000D01*
X118726190Y-65119047D02*
X118226190Y-65119047D01*
X118226190Y-64928571D01*
X118250000Y-64880952D01*
X118273809Y-64857142D01*
X118321428Y-64833333D01*
X118392857Y-64833333D01*
X118440476Y-64857142D01*
X118464285Y-64880952D01*
X118488095Y-64928571D01*
X118488095Y-65119047D01*
X118226190Y-64666666D02*
X118226190Y-64333333D01*
X118726190Y-64547619D01*
G04 #@! TO.C,R8*
X108916666Y-38726190D02*
X108750000Y-38488095D01*
X108630952Y-38726190D02*
X108630952Y-38226190D01*
X108821428Y-38226190D01*
X108869047Y-38250000D01*
X108892857Y-38273809D01*
X108916666Y-38321428D01*
X108916666Y-38392857D01*
X108892857Y-38440476D01*
X108869047Y-38464285D01*
X108821428Y-38488095D01*
X108630952Y-38488095D01*
X109202380Y-38440476D02*
X109154761Y-38416666D01*
X109130952Y-38392857D01*
X109107142Y-38345238D01*
X109107142Y-38321428D01*
X109130952Y-38273809D01*
X109154761Y-38250000D01*
X109202380Y-38226190D01*
X109297619Y-38226190D01*
X109345238Y-38250000D01*
X109369047Y-38273809D01*
X109392857Y-38321428D01*
X109392857Y-38345238D01*
X109369047Y-38392857D01*
X109345238Y-38416666D01*
X109297619Y-38440476D01*
X109202380Y-38440476D01*
X109154761Y-38464285D01*
X109130952Y-38488095D01*
X109107142Y-38535714D01*
X109107142Y-38630952D01*
X109130952Y-38678571D01*
X109154761Y-38702380D01*
X109202380Y-38726190D01*
X109297619Y-38726190D01*
X109345238Y-38702380D01*
X109369047Y-38678571D01*
X109392857Y-38630952D01*
X109392857Y-38535714D01*
X109369047Y-38488095D01*
X109345238Y-38464285D01*
X109297619Y-38440476D01*
G04 #@! TO.C,R9*
X106966116Y-50038343D02*
X106728021Y-50205010D01*
X106966116Y-50324057D02*
X106466116Y-50324057D01*
X106466116Y-50133581D01*
X106489926Y-50085962D01*
X106513735Y-50062152D01*
X106561354Y-50038343D01*
X106632783Y-50038343D01*
X106680402Y-50062152D01*
X106704211Y-50085962D01*
X106728021Y-50133581D01*
X106728021Y-50324057D01*
X106966116Y-49800248D02*
X106966116Y-49705010D01*
X106942306Y-49657390D01*
X106918497Y-49633581D01*
X106847068Y-49585962D01*
X106751830Y-49562152D01*
X106561354Y-49562152D01*
X106513735Y-49585962D01*
X106489926Y-49609771D01*
X106466116Y-49657390D01*
X106466116Y-49752629D01*
X106489926Y-49800248D01*
X106513735Y-49824057D01*
X106561354Y-49847867D01*
X106680402Y-49847867D01*
X106728021Y-49824057D01*
X106751830Y-49800248D01*
X106775640Y-49752629D01*
X106775640Y-49657390D01*
X106751830Y-49609771D01*
X106728021Y-49585962D01*
X106680402Y-49562152D01*
G04 #@! TO.C,R10*
X70178571Y-52226190D02*
X70011904Y-51988095D01*
X69892857Y-52226190D02*
X69892857Y-51726190D01*
X70083333Y-51726190D01*
X70130952Y-51750000D01*
X70154761Y-51773809D01*
X70178571Y-51821428D01*
X70178571Y-51892857D01*
X70154761Y-51940476D01*
X70130952Y-51964285D01*
X70083333Y-51988095D01*
X69892857Y-51988095D01*
X70654761Y-52226190D02*
X70369047Y-52226190D01*
X70511904Y-52226190D02*
X70511904Y-51726190D01*
X70464285Y-51797619D01*
X70416666Y-51845238D01*
X70369047Y-51869047D01*
X70964285Y-51726190D02*
X71011904Y-51726190D01*
X71059523Y-51750000D01*
X71083333Y-51773809D01*
X71107142Y-51821428D01*
X71130952Y-51916666D01*
X71130952Y-52035714D01*
X71107142Y-52130952D01*
X71083333Y-52178571D01*
X71059523Y-52202380D01*
X71011904Y-52226190D01*
X70964285Y-52226190D01*
X70916666Y-52202380D01*
X70892857Y-52178571D01*
X70869047Y-52130952D01*
X70845238Y-52035714D01*
X70845238Y-51916666D01*
X70869047Y-51821428D01*
X70892857Y-51773809D01*
X70916666Y-51750000D01*
X70964285Y-51726190D01*
G04 #@! TO.C,R11*
X137726190Y-46321428D02*
X137488095Y-46488095D01*
X137726190Y-46607142D02*
X137226190Y-46607142D01*
X137226190Y-46416666D01*
X137250000Y-46369047D01*
X137273809Y-46345238D01*
X137321428Y-46321428D01*
X137392857Y-46321428D01*
X137440476Y-46345238D01*
X137464285Y-46369047D01*
X137488095Y-46416666D01*
X137488095Y-46607142D01*
X137726190Y-45845238D02*
X137726190Y-46130952D01*
X137726190Y-45988095D02*
X137226190Y-45988095D01*
X137297619Y-46035714D01*
X137345238Y-46083333D01*
X137369047Y-46130952D01*
X137726190Y-45369047D02*
X137726190Y-45654761D01*
X137726190Y-45511904D02*
X137226190Y-45511904D01*
X137297619Y-45559523D01*
X137345238Y-45607142D01*
X137369047Y-45654761D01*
G04 #@! TO.C,R12*
X110226190Y-47321428D02*
X109988095Y-47488095D01*
X110226190Y-47607142D02*
X109726190Y-47607142D01*
X109726190Y-47416666D01*
X109750000Y-47369047D01*
X109773809Y-47345238D01*
X109821428Y-47321428D01*
X109892857Y-47321428D01*
X109940476Y-47345238D01*
X109964285Y-47369047D01*
X109988095Y-47416666D01*
X109988095Y-47607142D01*
X110226190Y-46845238D02*
X110226190Y-47130952D01*
X110226190Y-46988095D02*
X109726190Y-46988095D01*
X109797619Y-47035714D01*
X109845238Y-47083333D01*
X109869047Y-47130952D01*
X109773809Y-46654761D02*
X109750000Y-46630952D01*
X109726190Y-46583333D01*
X109726190Y-46464285D01*
X109750000Y-46416666D01*
X109773809Y-46392857D01*
X109821428Y-46369047D01*
X109869047Y-46369047D01*
X109940476Y-46392857D01*
X110226190Y-46678571D01*
X110226190Y-46369047D01*
G04 #@! TO.C,R13*
X70178571Y-61476190D02*
X70011904Y-61238095D01*
X69892857Y-61476190D02*
X69892857Y-60976190D01*
X70083333Y-60976190D01*
X70130952Y-61000000D01*
X70154761Y-61023809D01*
X70178571Y-61071428D01*
X70178571Y-61142857D01*
X70154761Y-61190476D01*
X70130952Y-61214285D01*
X70083333Y-61238095D01*
X69892857Y-61238095D01*
X70654761Y-61476190D02*
X70369047Y-61476190D01*
X70511904Y-61476190D02*
X70511904Y-60976190D01*
X70464285Y-61047619D01*
X70416666Y-61095238D01*
X70369047Y-61119047D01*
X70821428Y-60976190D02*
X71130952Y-60976190D01*
X70964285Y-61166666D01*
X71035714Y-61166666D01*
X71083333Y-61190476D01*
X71107142Y-61214285D01*
X71130952Y-61261904D01*
X71130952Y-61380952D01*
X71107142Y-61428571D01*
X71083333Y-61452380D01*
X71035714Y-61476190D01*
X70892857Y-61476190D01*
X70845238Y-61452380D01*
X70821428Y-61428571D01*
G04 #@! TO.C,R14*
X69928571Y-59476190D02*
X69761904Y-59238095D01*
X69642857Y-59476190D02*
X69642857Y-58976190D01*
X69833333Y-58976190D01*
X69880952Y-59000000D01*
X69904761Y-59023809D01*
X69928571Y-59071428D01*
X69928571Y-59142857D01*
X69904761Y-59190476D01*
X69880952Y-59214285D01*
X69833333Y-59238095D01*
X69642857Y-59238095D01*
X70404761Y-59476190D02*
X70119047Y-59476190D01*
X70261904Y-59476190D02*
X70261904Y-58976190D01*
X70214285Y-59047619D01*
X70166666Y-59095238D01*
X70119047Y-59119047D01*
X70833333Y-59142857D02*
X70833333Y-59476190D01*
X70714285Y-58952380D02*
X70595238Y-59309523D01*
X70904761Y-59309523D01*
G04 #@! TO.C,R15*
X84926190Y-66571428D02*
X84688095Y-66738095D01*
X84926190Y-66857142D02*
X84426190Y-66857142D01*
X84426190Y-66666666D01*
X84450000Y-66619047D01*
X84473809Y-66595238D01*
X84521428Y-66571428D01*
X84592857Y-66571428D01*
X84640476Y-66595238D01*
X84664285Y-66619047D01*
X84688095Y-66666666D01*
X84688095Y-66857142D01*
X84926190Y-66095238D02*
X84926190Y-66380952D01*
X84926190Y-66238095D02*
X84426190Y-66238095D01*
X84497619Y-66285714D01*
X84545238Y-66333333D01*
X84569047Y-66380952D01*
X84426190Y-65642857D02*
X84426190Y-65880952D01*
X84664285Y-65904761D01*
X84640476Y-65880952D01*
X84616666Y-65833333D01*
X84616666Y-65714285D01*
X84640476Y-65666666D01*
X84664285Y-65642857D01*
X84711904Y-65619047D01*
X84830952Y-65619047D01*
X84878571Y-65642857D01*
X84902380Y-65666666D01*
X84926190Y-65714285D01*
X84926190Y-65833333D01*
X84902380Y-65880952D01*
X84878571Y-65904761D01*
G04 #@! TO.C,R16*
X123457961Y-61412530D02*
X123171751Y-61362022D01*
X123255930Y-61614560D02*
X122902377Y-61261007D01*
X123037064Y-61126320D01*
X123087572Y-61109484D01*
X123121243Y-61109484D01*
X123171751Y-61126320D01*
X123222259Y-61176827D01*
X123239095Y-61227335D01*
X123239095Y-61261007D01*
X123222259Y-61311514D01*
X123087572Y-61446201D01*
X123794679Y-61075812D02*
X123592648Y-61277843D01*
X123693663Y-61176827D02*
X123340110Y-60823274D01*
X123356946Y-60907453D01*
X123356946Y-60974797D01*
X123340110Y-61025305D01*
X123744171Y-60419213D02*
X123676827Y-60486556D01*
X123659992Y-60537064D01*
X123659992Y-60570736D01*
X123676827Y-60654915D01*
X123727335Y-60739095D01*
X123862022Y-60873782D01*
X123912530Y-60890617D01*
X123946201Y-60890617D01*
X123996709Y-60873782D01*
X124064053Y-60806438D01*
X124080888Y-60755930D01*
X124080888Y-60722259D01*
X124064053Y-60671751D01*
X123979873Y-60587572D01*
X123929366Y-60570736D01*
X123895694Y-60570736D01*
X123845186Y-60587572D01*
X123777843Y-60654915D01*
X123761007Y-60705423D01*
X123761007Y-60739095D01*
X123777843Y-60789602D01*
G04 #@! TO.C,R17*
X137178571Y-48976190D02*
X137011904Y-48738095D01*
X136892857Y-48976190D02*
X136892857Y-48476190D01*
X137083333Y-48476190D01*
X137130952Y-48500000D01*
X137154761Y-48523809D01*
X137178571Y-48571428D01*
X137178571Y-48642857D01*
X137154761Y-48690476D01*
X137130952Y-48714285D01*
X137083333Y-48738095D01*
X136892857Y-48738095D01*
X137654761Y-48976190D02*
X137369047Y-48976190D01*
X137511904Y-48976190D02*
X137511904Y-48476190D01*
X137464285Y-48547619D01*
X137416666Y-48595238D01*
X137369047Y-48619047D01*
X137821428Y-48476190D02*
X138154761Y-48476190D01*
X137940476Y-48976190D01*
G04 #@! TO.C,R18*
X122226190Y-46071428D02*
X121988095Y-46238095D01*
X122226190Y-46357142D02*
X121726190Y-46357142D01*
X121726190Y-46166666D01*
X121750000Y-46119047D01*
X121773809Y-46095238D01*
X121821428Y-46071428D01*
X121892857Y-46071428D01*
X121940476Y-46095238D01*
X121964285Y-46119047D01*
X121988095Y-46166666D01*
X121988095Y-46357142D01*
X122226190Y-45595238D02*
X122226190Y-45880952D01*
X122226190Y-45738095D02*
X121726190Y-45738095D01*
X121797619Y-45785714D01*
X121845238Y-45833333D01*
X121869047Y-45880952D01*
X121940476Y-45309523D02*
X121916666Y-45357142D01*
X121892857Y-45380952D01*
X121845238Y-45404761D01*
X121821428Y-45404761D01*
X121773809Y-45380952D01*
X121750000Y-45357142D01*
X121726190Y-45309523D01*
X121726190Y-45214285D01*
X121750000Y-45166666D01*
X121773809Y-45142857D01*
X121821428Y-45119047D01*
X121845238Y-45119047D01*
X121892857Y-45142857D01*
X121916666Y-45166666D01*
X121940476Y-45214285D01*
X121940476Y-45309523D01*
X121964285Y-45357142D01*
X121988095Y-45380952D01*
X122035714Y-45404761D01*
X122130952Y-45404761D01*
X122178571Y-45380952D01*
X122202380Y-45357142D01*
X122226190Y-45309523D01*
X122226190Y-45214285D01*
X122202380Y-45166666D01*
X122178571Y-45142857D01*
X122130952Y-45119047D01*
X122035714Y-45119047D01*
X121988095Y-45142857D01*
X121964285Y-45166666D01*
X121940476Y-45214285D01*
G04 #@! TO.C,R19*
X97678571Y-61476190D02*
X97511904Y-61238095D01*
X97392857Y-61476190D02*
X97392857Y-60976190D01*
X97583333Y-60976190D01*
X97630952Y-61000000D01*
X97654761Y-61023809D01*
X97678571Y-61071428D01*
X97678571Y-61142857D01*
X97654761Y-61190476D01*
X97630952Y-61214285D01*
X97583333Y-61238095D01*
X97392857Y-61238095D01*
X98154761Y-61476190D02*
X97869047Y-61476190D01*
X98011904Y-61476190D02*
X98011904Y-60976190D01*
X97964285Y-61047619D01*
X97916666Y-61095238D01*
X97869047Y-61119047D01*
X98392857Y-61476190D02*
X98488095Y-61476190D01*
X98535714Y-61452380D01*
X98559523Y-61428571D01*
X98607142Y-61357142D01*
X98630952Y-61261904D01*
X98630952Y-61071428D01*
X98607142Y-61023809D01*
X98583333Y-61000000D01*
X98535714Y-60976190D01*
X98440476Y-60976190D01*
X98392857Y-61000000D01*
X98369047Y-61023809D01*
X98345238Y-61071428D01*
X98345238Y-61190476D01*
X98369047Y-61238095D01*
X98392857Y-61261904D01*
X98440476Y-61285714D01*
X98535714Y-61285714D01*
X98583333Y-61261904D01*
X98607142Y-61238095D01*
X98630952Y-61190476D01*
G04 #@! TO.C,R20*
X102428571Y-64476190D02*
X102261904Y-64238095D01*
X102142857Y-64476190D02*
X102142857Y-63976190D01*
X102333333Y-63976190D01*
X102380952Y-64000000D01*
X102404761Y-64023809D01*
X102428571Y-64071428D01*
X102428571Y-64142857D01*
X102404761Y-64190476D01*
X102380952Y-64214285D01*
X102333333Y-64238095D01*
X102142857Y-64238095D01*
X102619047Y-64023809D02*
X102642857Y-64000000D01*
X102690476Y-63976190D01*
X102809523Y-63976190D01*
X102857142Y-64000000D01*
X102880952Y-64023809D01*
X102904761Y-64071428D01*
X102904761Y-64119047D01*
X102880952Y-64190476D01*
X102595238Y-64476190D01*
X102904761Y-64476190D01*
X103214285Y-63976190D02*
X103261904Y-63976190D01*
X103309523Y-64000000D01*
X103333333Y-64023809D01*
X103357142Y-64071428D01*
X103380952Y-64166666D01*
X103380952Y-64285714D01*
X103357142Y-64380952D01*
X103333333Y-64428571D01*
X103309523Y-64452380D01*
X103261904Y-64476190D01*
X103214285Y-64476190D01*
X103166666Y-64452380D01*
X103142857Y-64428571D01*
X103119047Y-64380952D01*
X103095238Y-64285714D01*
X103095238Y-64166666D01*
X103119047Y-64071428D01*
X103142857Y-64023809D01*
X103166666Y-64000000D01*
X103214285Y-63976190D01*
G04 #@! TO.C,R21*
X108428571Y-36976190D02*
X108261904Y-36738095D01*
X108142857Y-36976190D02*
X108142857Y-36476190D01*
X108333333Y-36476190D01*
X108380952Y-36500000D01*
X108404761Y-36523809D01*
X108428571Y-36571428D01*
X108428571Y-36642857D01*
X108404761Y-36690476D01*
X108380952Y-36714285D01*
X108333333Y-36738095D01*
X108142857Y-36738095D01*
X108619047Y-36523809D02*
X108642857Y-36500000D01*
X108690476Y-36476190D01*
X108809523Y-36476190D01*
X108857142Y-36500000D01*
X108880952Y-36523809D01*
X108904761Y-36571428D01*
X108904761Y-36619047D01*
X108880952Y-36690476D01*
X108595238Y-36976190D01*
X108904761Y-36976190D01*
X109380952Y-36976190D02*
X109095238Y-36976190D01*
X109238095Y-36976190D02*
X109238095Y-36476190D01*
X109190476Y-36547619D01*
X109142857Y-36595238D01*
X109095238Y-36619047D01*
G04 #@! TO.C,reset1*
D11*
X146452380Y-40595238D02*
X145785714Y-40595238D01*
X145976190Y-40595238D02*
X145880952Y-40547619D01*
X145833333Y-40500000D01*
X145785714Y-40404761D01*
X145785714Y-40309523D01*
X146404761Y-39595238D02*
X146452380Y-39690476D01*
X146452380Y-39880952D01*
X146404761Y-39976190D01*
X146309523Y-40023809D01*
X145928571Y-40023809D01*
X145833333Y-39976190D01*
X145785714Y-39880952D01*
X145785714Y-39690476D01*
X145833333Y-39595238D01*
X145928571Y-39547619D01*
X146023809Y-39547619D01*
X146119047Y-40023809D01*
X146404761Y-39166666D02*
X146452380Y-39071428D01*
X146452380Y-38880952D01*
X146404761Y-38785714D01*
X146309523Y-38738095D01*
X146261904Y-38738095D01*
X146166666Y-38785714D01*
X146119047Y-38880952D01*
X146119047Y-39023809D01*
X146071428Y-39119047D01*
X145976190Y-39166666D01*
X145928571Y-39166666D01*
X145833333Y-39119047D01*
X145785714Y-39023809D01*
X145785714Y-38880952D01*
X145833333Y-38785714D01*
X146404761Y-37928571D02*
X146452380Y-38023809D01*
X146452380Y-38214285D01*
X146404761Y-38309523D01*
X146309523Y-38357142D01*
X145928571Y-38357142D01*
X145833333Y-38309523D01*
X145785714Y-38214285D01*
X145785714Y-38023809D01*
X145833333Y-37928571D01*
X145928571Y-37880952D01*
X146023809Y-37880952D01*
X146119047Y-38357142D01*
X145785714Y-37595238D02*
X145785714Y-37214285D01*
X145452380Y-37452380D02*
X146309523Y-37452380D01*
X146404761Y-37404761D01*
X146452380Y-37309523D01*
X146452380Y-37214285D01*
X146452380Y-36357142D02*
X146452380Y-36928571D01*
X146452380Y-36642857D02*
X145452380Y-36642857D01*
X145595238Y-36738095D01*
X145690476Y-36833333D01*
X145738095Y-36928571D01*
G04 #@! TO.C,U2*
D15*
X132869047Y-44226190D02*
X132869047Y-44630952D01*
X132892857Y-44678571D01*
X132916666Y-44702380D01*
X132964285Y-44726190D01*
X133059523Y-44726190D01*
X133107142Y-44702380D01*
X133130952Y-44678571D01*
X133154761Y-44630952D01*
X133154761Y-44226190D01*
X133369047Y-44273809D02*
X133392857Y-44250000D01*
X133440476Y-44226190D01*
X133559523Y-44226190D01*
X133607142Y-44250000D01*
X133630952Y-44273809D01*
X133654761Y-44321428D01*
X133654761Y-44369047D01*
X133630952Y-44440476D01*
X133345238Y-44726190D01*
X133654761Y-44726190D01*
G04 #@! TO.C,U3*
X73476190Y-57630952D02*
X73880952Y-57630952D01*
X73928571Y-57607142D01*
X73952380Y-57583333D01*
X73976190Y-57535714D01*
X73976190Y-57440476D01*
X73952380Y-57392857D01*
X73928571Y-57369047D01*
X73880952Y-57345238D01*
X73476190Y-57345238D01*
X73476190Y-57154761D02*
X73476190Y-56845238D01*
X73666666Y-57011904D01*
X73666666Y-56940476D01*
X73690476Y-56892857D01*
X73714285Y-56869047D01*
X73761904Y-56845238D01*
X73880952Y-56845238D01*
X73928571Y-56869047D01*
X73952380Y-56892857D01*
X73976190Y-56940476D01*
X73976190Y-57083333D01*
X73952380Y-57130952D01*
X73928571Y-57154761D01*
G04 #@! TO.C,U4*
X87476190Y-65130952D02*
X87880952Y-65130952D01*
X87928571Y-65107142D01*
X87952380Y-65083333D01*
X87976190Y-65035714D01*
X87976190Y-64940476D01*
X87952380Y-64892857D01*
X87928571Y-64869047D01*
X87880952Y-64845238D01*
X87476190Y-64845238D01*
X87642857Y-64392857D02*
X87976190Y-64392857D01*
X87452380Y-64511904D02*
X87809523Y-64630952D01*
X87809523Y-64321428D01*
G04 #@! TO.C,U6*
X116726190Y-37380952D02*
X117130952Y-37380952D01*
X117178571Y-37357142D01*
X117202380Y-37333333D01*
X117226190Y-37285714D01*
X117226190Y-37190476D01*
X117202380Y-37142857D01*
X117178571Y-37119047D01*
X117130952Y-37095238D01*
X116726190Y-37095238D01*
X116726190Y-36642857D02*
X116726190Y-36738095D01*
X116750000Y-36785714D01*
X116773809Y-36809523D01*
X116845238Y-36857142D01*
X116940476Y-36880952D01*
X117130952Y-36880952D01*
X117178571Y-36857142D01*
X117202380Y-36833333D01*
X117226190Y-36785714D01*
X117226190Y-36690476D01*
X117202380Y-36642857D01*
X117178571Y-36619047D01*
X117130952Y-36595238D01*
X117011904Y-36595238D01*
X116964285Y-36619047D01*
X116940476Y-36642857D01*
X116916666Y-36690476D01*
X116916666Y-36785714D01*
X116940476Y-36833333D01*
X116964285Y-36857142D01*
X117011904Y-36880952D01*
G04 #@! TO.C,J1*
X67726190Y-54666666D02*
X68083333Y-54666666D01*
X68154761Y-54690476D01*
X68202380Y-54738095D01*
X68226190Y-54809523D01*
X68226190Y-54857142D01*
X68226190Y-54166666D02*
X68226190Y-54452380D01*
X68226190Y-54309523D02*
X67726190Y-54309523D01*
X67797619Y-54357142D01*
X67845238Y-54404761D01*
X67869047Y-54452380D01*
G04 #@! TO.C,JP1*
X97083333Y-44976190D02*
X97083333Y-45333333D01*
X97059523Y-45404761D01*
X97011904Y-45452380D01*
X96940476Y-45476190D01*
X96892857Y-45476190D01*
X97321428Y-45476190D02*
X97321428Y-44976190D01*
X97511904Y-44976190D01*
X97559523Y-45000000D01*
X97583333Y-45023809D01*
X97607142Y-45071428D01*
X97607142Y-45142857D01*
X97583333Y-45190476D01*
X97559523Y-45214285D01*
X97511904Y-45238095D01*
X97321428Y-45238095D01*
X98083333Y-45476190D02*
X97797619Y-45476190D01*
X97940476Y-45476190D02*
X97940476Y-44976190D01*
X97892857Y-45047619D01*
X97845238Y-45095238D01*
X97797619Y-45119047D01*
G04 #@! TO.C,JP3*
X97083333Y-47226190D02*
X97083333Y-47583333D01*
X97059523Y-47654761D01*
X97011904Y-47702380D01*
X96940476Y-47726190D01*
X96892857Y-47726190D01*
X97321428Y-47726190D02*
X97321428Y-47226190D01*
X97511904Y-47226190D01*
X97559523Y-47250000D01*
X97583333Y-47273809D01*
X97607142Y-47321428D01*
X97607142Y-47392857D01*
X97583333Y-47440476D01*
X97559523Y-47464285D01*
X97511904Y-47488095D01*
X97321428Y-47488095D01*
X97773809Y-47226190D02*
X98083333Y-47226190D01*
X97916666Y-47416666D01*
X97988095Y-47416666D01*
X98035714Y-47440476D01*
X98059523Y-47464285D01*
X98083333Y-47511904D01*
X98083333Y-47630952D01*
X98059523Y-47678571D01*
X98035714Y-47702380D01*
X97988095Y-47726190D01*
X97845238Y-47726190D01*
X97797619Y-47702380D01*
X97773809Y-47678571D01*
G04 #@! TO.C,JP4*
X97083333Y-49476190D02*
X97083333Y-49833333D01*
X97059523Y-49904761D01*
X97011904Y-49952380D01*
X96940476Y-49976190D01*
X96892857Y-49976190D01*
X97321428Y-49976190D02*
X97321428Y-49476190D01*
X97511904Y-49476190D01*
X97559523Y-49500000D01*
X97583333Y-49523809D01*
X97607142Y-49571428D01*
X97607142Y-49642857D01*
X97583333Y-49690476D01*
X97559523Y-49714285D01*
X97511904Y-49738095D01*
X97321428Y-49738095D01*
X98035714Y-49642857D02*
X98035714Y-49976190D01*
X97916666Y-49452380D02*
X97797619Y-49809523D01*
X98107142Y-49809523D01*
G04 #@! TO.C,8MHz1*
X109777621Y-61458338D02*
X109760785Y-61407831D01*
X109760785Y-61374159D01*
X109777621Y-61323651D01*
X109794456Y-61306815D01*
X109844964Y-61289979D01*
X109878636Y-61289979D01*
X109929143Y-61306815D01*
X109996487Y-61374159D01*
X110013323Y-61424666D01*
X110013323Y-61458338D01*
X109996487Y-61508846D01*
X109979651Y-61525682D01*
X109929143Y-61542518D01*
X109895472Y-61542518D01*
X109844964Y-61525682D01*
X109777621Y-61458338D01*
X109727113Y-61441502D01*
X109693441Y-61441502D01*
X109642934Y-61458338D01*
X109575590Y-61525682D01*
X109558754Y-61576189D01*
X109558754Y-61609861D01*
X109575590Y-61660369D01*
X109642934Y-61727712D01*
X109693441Y-61744548D01*
X109727113Y-61744548D01*
X109777621Y-61727712D01*
X109844964Y-61660369D01*
X109861800Y-61609861D01*
X109861800Y-61576189D01*
X109844964Y-61525682D01*
X109861800Y-61946579D02*
X110215353Y-61593025D01*
X110080666Y-61963414D01*
X110451056Y-61828727D01*
X110097502Y-62182281D01*
X110265861Y-62350640D02*
X110619414Y-61997086D01*
X110451056Y-62165445D02*
X110653086Y-62367476D01*
X110467892Y-62552670D02*
X110821445Y-62199117D01*
X110838281Y-62451655D02*
X111023475Y-62636850D01*
X110602579Y-62687357D01*
X110787773Y-62872552D01*
X111107655Y-63192433D02*
X110905624Y-62990403D01*
X111006640Y-63091418D02*
X111360193Y-62737865D01*
X111276014Y-62754701D01*
X111208670Y-62754701D01*
X111158162Y-62737865D01*
G04 #@! TD*
M02*
