G04 #@! TF.GenerationSoftware,KiCad,Pcbnew,(5.0.1-3-g963ef8bb5)*
G04 #@! TF.CreationDate,2020-05-04T17:29:04+02:00*
G04 #@! TF.ProjectId,trackix,747261636B69782E6B696361645F7063,rev?*
G04 #@! TF.SameCoordinates,Original*
G04 #@! TF.FileFunction,Other,Fab,Top*
%FSLAX46Y46*%
G04 Gerber Fmt 4.6, Leading zero omitted, Abs format (unit mm)*
G04 Created by KiCad (PCBNEW (5.0.1-3-g963ef8bb5)) date 2020 May 04, Monday 17:29:04*
%MOMM*%
%LPD*%
G01*
G04 APERTURE LIST*
%ADD10C,0.150000*%
%ADD11C,0.100000*%
%ADD12C,0.120000*%
%ADD13C,0.200000*%
%ADD14C,0.127000*%
%ADD15C,0.075000*%
%ADD16C,0.135000*%
%ADD17C,0.030000*%
%ADD18C,0.015000*%
G04 APERTURE END LIST*
D10*
G04 #@! TO.C,U1*
X109257359Y-58957107D02*
X109257359Y-57542893D01*
X113500000Y-63199747D02*
X109257359Y-58957107D01*
X118449747Y-58250000D02*
X113500000Y-63199747D01*
X113500000Y-53300253D02*
X118449747Y-58250000D01*
X109257359Y-57542893D02*
X113500000Y-53300253D01*
D11*
G04 #@! TO.C,D4*
X68000000Y-49540000D02*
X68000000Y-49540000D01*
X66730000Y-49540000D02*
X68000000Y-49540000D01*
X66730000Y-49540000D02*
X66730000Y-49540000D01*
X68000000Y-49540000D02*
X66730000Y-49540000D01*
X68000000Y-47000000D02*
X68000000Y-47000000D01*
X66730000Y-47000000D02*
X68000000Y-47000000D01*
X66730000Y-47000000D02*
X66730000Y-47000000D01*
X68000000Y-47000000D02*
X66730000Y-47000000D01*
X66730000Y-50770000D02*
X66730000Y-51170000D01*
X65730000Y-50770000D02*
X66730000Y-50770000D01*
X65730000Y-51170000D02*
X65730000Y-50770000D01*
X66730000Y-51170000D02*
X65730000Y-51170000D01*
X66730000Y-45770000D02*
X66730000Y-50770000D01*
X66730000Y-50770000D02*
X60630000Y-50770000D01*
X66730000Y-45770000D02*
X60630000Y-45770000D01*
X60630000Y-50770000D02*
G75*
G02X60630000Y-45770000I0J2500000D01*
G01*
G04 #@! TO.C,D5*
X148370000Y-45730000D02*
G75*
G02X148370000Y-50730000I0J-2500000D01*
G01*
X142270000Y-50730000D02*
X148370000Y-50730000D01*
X142270000Y-45730000D02*
X148370000Y-45730000D01*
X142270000Y-50730000D02*
X142270000Y-45730000D01*
X142270000Y-45330000D02*
X143270000Y-45330000D01*
X143270000Y-45330000D02*
X143270000Y-45730000D01*
X143270000Y-45730000D02*
X142270000Y-45730000D01*
X142270000Y-45730000D02*
X142270000Y-45330000D01*
X141000000Y-49500000D02*
X142270000Y-49500000D01*
X142270000Y-49500000D02*
X142270000Y-49500000D01*
X142270000Y-49500000D02*
X141000000Y-49500000D01*
X141000000Y-49500000D02*
X141000000Y-49500000D01*
X141000000Y-46960000D02*
X142270000Y-46960000D01*
X142270000Y-46960000D02*
X142270000Y-46960000D01*
X142270000Y-46960000D02*
X141000000Y-46960000D01*
X141000000Y-46960000D02*
X141000000Y-46960000D01*
G04 #@! TO.C,D6*
X101770000Y-41626307D02*
X101770000Y-44565695D01*
X106770000Y-43096001D02*
G75*
G03X106770000Y-43096001I-2500000J0D01*
G01*
X101769984Y-44565667D02*
G75*
G03X101770000Y-41626307I2500016J1469666D01*
G01*
G04 #@! TO.C,J3*
X67300000Y-39000000D02*
G75*
G03X67300000Y-39000000I-50000J0D01*
G01*
X67375000Y-39000000D02*
G75*
G03X67375000Y-39000000I-125000J0D01*
G01*
X68250000Y-39000000D02*
G75*
G03X68250000Y-39000000I-1000000J0D01*
G01*
X65950000Y-40300000D02*
X65950000Y-37700000D01*
X65950000Y-40300000D02*
X68250000Y-40300000D01*
X68250000Y-40300000D02*
X68550000Y-40000000D01*
X65950000Y-37700000D02*
X68550000Y-37700000D01*
X68550000Y-40000000D02*
X68550000Y-37700000D01*
X67450000Y-39000000D02*
G75*
G03X67450000Y-39000000I-200000J0D01*
G01*
D12*
G04 #@! TO.C,U5*
X90500000Y-36000000D02*
X90500000Y-52000000D01*
X90500000Y-36000000D02*
X74500000Y-36000000D01*
X74500000Y-36000000D02*
X74500000Y-52000000D01*
X90500000Y-52000000D02*
X74500000Y-52000000D01*
D11*
G04 #@! TO.C,BZ1*
X144500000Y-61250000D02*
X144500000Y-69250000D01*
X143500000Y-70250000D02*
X135500000Y-70250000D01*
X135500000Y-70250000D02*
X135500000Y-61250000D01*
X135500000Y-61250000D02*
X144500000Y-61250000D01*
X144500000Y-69250000D02*
X143500000Y-70250000D01*
G04 #@! TO.C,C1*
X81250000Y-59880000D02*
X83250000Y-59880000D01*
X83250000Y-59880000D02*
X83250000Y-61120000D01*
X83250000Y-61120000D02*
X81250000Y-61120000D01*
X81250000Y-61120000D02*
X81250000Y-59880000D01*
G04 #@! TO.C,C2*
X63400000Y-55700000D02*
X66600000Y-55700000D01*
X66600000Y-55700000D02*
X66600000Y-57300000D01*
X66600000Y-57300000D02*
X63400000Y-57300000D01*
X63400000Y-57300000D02*
X63400000Y-55700000D01*
G04 #@! TO.C,C3*
X70900000Y-56450000D02*
X70900000Y-58050000D01*
X70900000Y-58050000D02*
X70100000Y-58050000D01*
X70100000Y-58050000D02*
X70100000Y-56450000D01*
X70100000Y-56450000D02*
X70900000Y-56450000D01*
G04 #@! TO.C,C4*
X121550000Y-51100000D02*
X119950000Y-51100000D01*
X121550000Y-47900000D02*
X121550000Y-51100000D01*
X119950000Y-47900000D02*
X121550000Y-47900000D01*
X119950000Y-51100000D02*
X119950000Y-47900000D01*
G04 #@! TO.C,C5*
X118900000Y-49800000D02*
X118100000Y-49800000D01*
X118900000Y-48200000D02*
X118900000Y-49800000D01*
X118100000Y-48200000D02*
X118900000Y-48200000D01*
X118100000Y-49800000D02*
X118100000Y-48200000D01*
G04 #@! TO.C,C6*
X123400000Y-41950000D02*
X126600000Y-41950000D01*
X126600000Y-41950000D02*
X126600000Y-43550000D01*
X126600000Y-43550000D02*
X123400000Y-43550000D01*
X123400000Y-43550000D02*
X123400000Y-41950000D01*
G04 #@! TO.C,C7*
X122100000Y-40300000D02*
X122100000Y-38700000D01*
X122100000Y-38700000D02*
X122900000Y-38700000D01*
X122900000Y-38700000D02*
X122900000Y-40300000D01*
X122900000Y-40300000D02*
X122100000Y-40300000D01*
G04 #@! TO.C,C8*
X116901472Y-52967157D02*
X117467157Y-52401472D01*
X118032843Y-54098528D02*
X116901472Y-52967157D01*
X118598528Y-53532843D02*
X118032843Y-54098528D01*
X117467157Y-52401472D02*
X118598528Y-53532843D01*
G04 #@! TO.C,C9*
X90350000Y-62300000D02*
X87150000Y-62300000D01*
X87150000Y-62300000D02*
X87150000Y-60700000D01*
X87150000Y-60700000D02*
X90350000Y-60700000D01*
X90350000Y-60700000D02*
X90350000Y-62300000D01*
G04 #@! TO.C,C10*
X105934314Y-67580761D02*
X106641421Y-68287868D01*
X106641421Y-68287868D02*
X106287868Y-68641421D01*
X106287868Y-68641421D02*
X105580761Y-67934314D01*
X105580761Y-67934314D02*
X105934314Y-67580761D01*
G04 #@! TO.C,C11*
X104641421Y-66287868D02*
X104287868Y-66641421D01*
X103934314Y-65580761D02*
X104641421Y-66287868D01*
X103580761Y-65934314D02*
X103934314Y-65580761D01*
X104287868Y-66641421D02*
X103580761Y-65934314D01*
G04 #@! TO.C,C12*
X93800000Y-66350000D02*
X92200000Y-66350000D01*
X93800000Y-63150000D02*
X93800000Y-66350000D01*
X92200000Y-63150000D02*
X93800000Y-63150000D01*
X92200000Y-66350000D02*
X92200000Y-63150000D01*
G04 #@! TO.C,C13*
X63200000Y-58900000D02*
X63200000Y-58100000D01*
X64800000Y-58900000D02*
X63200000Y-58900000D01*
X64800000Y-58100000D02*
X64800000Y-58900000D01*
X63200000Y-58100000D02*
X64800000Y-58100000D01*
G04 #@! TO.C,C14*
X63200000Y-59600000D02*
X64800000Y-59600000D01*
X64800000Y-59600000D02*
X64800000Y-60400000D01*
X64800000Y-60400000D02*
X63200000Y-60400000D01*
X63200000Y-60400000D02*
X63200000Y-59600000D01*
G04 #@! TO.C,C15*
X79100000Y-59700000D02*
X79100000Y-61300000D01*
X75900000Y-59700000D02*
X79100000Y-59700000D01*
X75900000Y-61300000D02*
X75900000Y-59700000D01*
X79100000Y-61300000D02*
X75900000Y-61300000D01*
G04 #@! TO.C,C16*
X94600000Y-66300000D02*
X94600000Y-64700000D01*
X94600000Y-64700000D02*
X95400000Y-64700000D01*
X95400000Y-64700000D02*
X95400000Y-66300000D01*
X95400000Y-66300000D02*
X94600000Y-66300000D01*
G04 #@! TO.C,C17*
X113700000Y-41900000D02*
X113700000Y-41100000D01*
X115300000Y-41900000D02*
X113700000Y-41900000D01*
X115300000Y-41100000D02*
X115300000Y-41900000D01*
X113700000Y-41100000D02*
X115300000Y-41100000D01*
G04 #@! TO.C,D1*
X116350000Y-44350000D02*
X116350000Y-45150000D01*
X116350000Y-44750000D02*
X116950000Y-44350000D01*
X116950000Y-45150000D02*
X116350000Y-44750000D01*
X116950000Y-44350000D02*
X116950000Y-45150000D01*
X117750000Y-45350000D02*
X115750000Y-45350000D01*
X117750000Y-44150000D02*
X117750000Y-45350000D01*
X115750000Y-44150000D02*
X117750000Y-44150000D01*
X115750000Y-45350000D02*
X115750000Y-44150000D01*
G04 #@! TO.C,D2*
X116750000Y-67900000D02*
X116750000Y-69100000D01*
X116750000Y-69100000D02*
X114750000Y-69100000D01*
X114750000Y-69100000D02*
X114750000Y-67900000D01*
X114750000Y-67900000D02*
X116750000Y-67900000D01*
X115550000Y-68900000D02*
X115550000Y-68100000D01*
X115550000Y-68100000D02*
X116150000Y-68500000D01*
X116150000Y-68500000D02*
X115550000Y-68900000D01*
X116150000Y-68900000D02*
X116150000Y-68100000D01*
G04 #@! TO.C,D3*
X65400000Y-68950000D02*
X63600000Y-68950000D01*
X63600000Y-68950000D02*
X63600000Y-67550000D01*
X63600000Y-67550000D02*
X65400000Y-67550000D01*
X65400000Y-67550000D02*
X65400000Y-68950000D01*
X64800000Y-68600000D02*
X64800000Y-67900000D01*
X64800000Y-68250000D02*
X65000000Y-68250000D01*
X64800000Y-68250000D02*
X64300000Y-68600000D01*
X64300000Y-68600000D02*
X64300000Y-67900000D01*
X64300000Y-67900000D02*
X64800000Y-68250000D01*
X64300000Y-68250000D02*
X64050000Y-68250000D01*
G04 #@! TO.C,D7*
X64626464Y-64127980D02*
X64626464Y-63327980D01*
X64626464Y-63727980D02*
X64026464Y-64127980D01*
X64026464Y-63327980D02*
X64626464Y-63727980D01*
X64026464Y-64127980D02*
X64026464Y-63327980D01*
X63226464Y-63127980D02*
X65226464Y-63127980D01*
X63226464Y-64327980D02*
X63226464Y-63127980D01*
X65226464Y-64327980D02*
X63226464Y-64327980D01*
X65226464Y-63127980D02*
X65226464Y-64327980D01*
G04 #@! TO.C,D8*
X65226464Y-61127980D02*
X65226464Y-62327980D01*
X65226464Y-62327980D02*
X63226464Y-62327980D01*
X63226464Y-62327980D02*
X63226464Y-61127980D01*
X63226464Y-61127980D02*
X65226464Y-61127980D01*
X64026464Y-62127980D02*
X64026464Y-61327980D01*
X64026464Y-61327980D02*
X64626464Y-61727980D01*
X64626464Y-61727980D02*
X64026464Y-62127980D01*
X64626464Y-62127980D02*
X64626464Y-61327980D01*
G04 #@! TO.C,D9*
X68450000Y-68250000D02*
X68700000Y-68250000D01*
X68450000Y-68600000D02*
X67950000Y-68250000D01*
X68450000Y-67900000D02*
X68450000Y-68600000D01*
X67950000Y-68250000D02*
X68450000Y-67900000D01*
X67950000Y-68250000D02*
X67750000Y-68250000D01*
X67950000Y-67900000D02*
X67950000Y-68600000D01*
X67350000Y-68950000D02*
X67350000Y-67550000D01*
X69150000Y-68950000D02*
X67350000Y-68950000D01*
X69150000Y-67550000D02*
X69150000Y-68950000D01*
X67350000Y-67550000D02*
X69150000Y-67550000D01*
G04 #@! TO.C,D10*
X63350000Y-65050000D02*
X65150000Y-65050000D01*
X65150000Y-65050000D02*
X65150000Y-66450000D01*
X65150000Y-66450000D02*
X63350000Y-66450000D01*
X63350000Y-66450000D02*
X63350000Y-65050000D01*
X63950000Y-65400000D02*
X63950000Y-66100000D01*
X63950000Y-65750000D02*
X63750000Y-65750000D01*
X63950000Y-65750000D02*
X64450000Y-65400000D01*
X64450000Y-65400000D02*
X64450000Y-66100000D01*
X64450000Y-66100000D02*
X63950000Y-65750000D01*
X64450000Y-65750000D02*
X64700000Y-65750000D01*
G04 #@! TO.C,D11*
X67750000Y-65075000D02*
X67750000Y-64825000D01*
X68100000Y-65075000D02*
X67750000Y-65575000D01*
X67400000Y-65075000D02*
X68100000Y-65075000D01*
X67750000Y-65575000D02*
X67400000Y-65075000D01*
X67750000Y-65575000D02*
X67750000Y-65775000D01*
X67400000Y-65575000D02*
X68100000Y-65575000D01*
X68450000Y-66175000D02*
X67050000Y-66175000D01*
X68450000Y-64375000D02*
X68450000Y-66175000D01*
X67050000Y-64375000D02*
X68450000Y-64375000D01*
X67050000Y-66175000D02*
X67050000Y-64375000D01*
D10*
G04 #@! TO.C,IC2*
X79950000Y-66200000D02*
X78950000Y-67200000D01*
X79950000Y-62300000D02*
X79950000Y-66200000D01*
X76050000Y-62300000D02*
X79950000Y-62300000D01*
X76050000Y-67200000D02*
X76050000Y-62300000D01*
X78950000Y-67200000D02*
X76050000Y-67200000D01*
D11*
G04 #@! TO.C,J2*
X138700000Y-56000000D02*
G75*
G03X138700000Y-56000000I-200000J0D01*
G01*
X139500000Y-54700000D02*
X137200000Y-54700000D01*
X137200000Y-57300000D02*
X137200000Y-54700000D01*
X139800000Y-55000000D02*
X139500000Y-54700000D01*
X139800000Y-57300000D02*
X139800000Y-55000000D01*
X139800000Y-57300000D02*
X137200000Y-57300000D01*
X139500000Y-56000000D02*
G75*
G03X139500000Y-56000000I-1000000J0D01*
G01*
X138625000Y-56000000D02*
G75*
G03X138625000Y-56000000I-125000J0D01*
G01*
X138550000Y-56000000D02*
G75*
G03X138550000Y-56000000I-50000J0D01*
G01*
G04 #@! TO.C,J4*
X126970000Y-61830000D02*
X126970000Y-63210000D01*
X127610000Y-61830000D02*
X126970000Y-61830000D01*
X127610000Y-63210000D02*
X127610000Y-61830000D01*
X126970000Y-63210000D02*
X127610000Y-63210000D01*
X126970000Y-69670000D02*
X126970000Y-68290000D01*
X127610000Y-69670000D02*
X126970000Y-69670000D01*
X127610000Y-68290000D02*
X127610000Y-69670000D01*
X126970000Y-68290000D02*
X127610000Y-68290000D01*
X124430000Y-61830000D02*
X124430000Y-63210000D01*
X125070000Y-61830000D02*
X124430000Y-61830000D01*
X125070000Y-63210000D02*
X125070000Y-61830000D01*
X124430000Y-63210000D02*
X125070000Y-63210000D01*
X124430000Y-69670000D02*
X124430000Y-68290000D01*
X125070000Y-69670000D02*
X124430000Y-69670000D01*
X125070000Y-68290000D02*
X125070000Y-69670000D01*
X124430000Y-68290000D02*
X125070000Y-68290000D01*
X121890000Y-61830000D02*
X121890000Y-63210000D01*
X122530000Y-61830000D02*
X121890000Y-61830000D01*
X122530000Y-63210000D02*
X122530000Y-61830000D01*
X121890000Y-63210000D02*
X122530000Y-63210000D01*
X121890000Y-69670000D02*
X121890000Y-68290000D01*
X122530000Y-69670000D02*
X121890000Y-69670000D01*
X122530000Y-68290000D02*
X122530000Y-69670000D01*
X121890000Y-68290000D02*
X122530000Y-68290000D01*
X120940000Y-63210000D02*
X120940000Y-68290000D01*
X128560000Y-63210000D02*
X120940000Y-63210000D01*
X128560000Y-68290000D02*
X128560000Y-63210000D01*
X120940000Y-68290000D02*
X128560000Y-68290000D01*
G04 #@! TO.C,L1*
X138750000Y-51500000D02*
X138750000Y-52500000D01*
X138750000Y-52500000D02*
X138250000Y-52500000D01*
X138250000Y-52500000D02*
X138250000Y-51500000D01*
X138250000Y-51500000D02*
X138750000Y-51500000D01*
G04 #@! TO.C,L2*
X87650000Y-67000000D02*
X90850000Y-67000000D01*
X90850000Y-67000000D02*
X90850000Y-69500000D01*
X90850000Y-69500000D02*
X87650000Y-69500000D01*
X87650000Y-69500000D02*
X87650000Y-67000000D01*
G04 #@! TO.C,Q1*
X132950000Y-65300000D02*
X130500000Y-65300000D01*
X133520000Y-65850000D02*
X133520000Y-66700000D01*
X132950000Y-65300000D02*
X133520000Y-65850000D01*
X133520000Y-66700000D02*
X130480000Y-66700000D01*
X130480000Y-65300000D02*
X130480000Y-66700000D01*
D10*
G04 #@! TO.C,Q3*
X78800000Y-55250000D02*
X79800000Y-54250000D01*
X78800000Y-57250000D02*
X78800000Y-55250000D01*
X83200000Y-57250000D02*
X78800000Y-57250000D01*
X83200000Y-54250000D02*
X83200000Y-57250000D01*
X79800000Y-54250000D02*
X83200000Y-54250000D01*
D11*
G04 #@! TO.C,Q5*
X102989926Y-48435010D02*
X101589926Y-48435010D01*
X101589926Y-51475010D02*
X101589926Y-48435010D01*
X102989926Y-50905010D02*
X102439926Y-51475010D01*
X102439926Y-51475010D02*
X101589926Y-51475010D01*
X102989926Y-50905010D02*
X102989926Y-48455010D01*
G04 #@! TO.C,R1*
X70900000Y-55050000D02*
X70100000Y-55050000D01*
X70900000Y-53450000D02*
X70900000Y-55050000D01*
X70100000Y-53450000D02*
X70900000Y-53450000D01*
X70100000Y-55050000D02*
X70100000Y-53450000D01*
G04 #@! TO.C,R2*
X73800000Y-53850000D02*
X73800000Y-54650000D01*
X72200000Y-53850000D02*
X73800000Y-53850000D01*
X72200000Y-54650000D02*
X72200000Y-53850000D01*
X73800000Y-54650000D02*
X72200000Y-54650000D01*
G04 #@! TO.C,R5*
X133050000Y-62850000D02*
X133050000Y-63650000D01*
X131450000Y-62850000D02*
X133050000Y-62850000D01*
X131450000Y-63650000D02*
X131450000Y-62850000D01*
X133050000Y-63650000D02*
X131450000Y-63650000D01*
G04 #@! TO.C,R6*
X143700000Y-43100000D02*
X145300000Y-43100000D01*
X145300000Y-43100000D02*
X145300000Y-43900000D01*
X145300000Y-43900000D02*
X143700000Y-43900000D01*
X143700000Y-43900000D02*
X143700000Y-43100000D01*
G04 #@! TO.C,R7*
X117700000Y-66650000D02*
X117700000Y-65850000D01*
X119300000Y-66650000D02*
X117700000Y-66650000D01*
X119300000Y-65850000D02*
X119300000Y-66650000D01*
X117700000Y-65850000D02*
X119300000Y-65850000D01*
G04 #@! TO.C,R8*
X110080182Y-38334873D02*
X111680182Y-38334873D01*
X111680182Y-38334873D02*
X111680182Y-39134873D01*
X111680182Y-39134873D02*
X110080182Y-39134873D01*
X110080182Y-39134873D02*
X110080182Y-38334873D01*
G04 #@! TO.C,R9*
X105689926Y-49155010D02*
X105689926Y-50755010D01*
X105689926Y-50755010D02*
X104889926Y-50755010D01*
X104889926Y-50755010D02*
X104889926Y-49155010D01*
X104889926Y-49155010D02*
X105689926Y-49155010D01*
G04 #@! TO.C,R10*
X70900000Y-51050000D02*
X70100000Y-51050000D01*
X70900000Y-49450000D02*
X70900000Y-51050000D01*
X70100000Y-49450000D02*
X70900000Y-49450000D01*
X70100000Y-51050000D02*
X70100000Y-49450000D01*
G04 #@! TO.C,R11*
X139150000Y-45200000D02*
X139150000Y-46800000D01*
X139150000Y-46800000D02*
X138350000Y-46800000D01*
X138350000Y-46800000D02*
X138350000Y-45200000D01*
X138350000Y-45200000D02*
X139150000Y-45200000D01*
G04 #@! TO.C,R12*
X109150000Y-47800000D02*
X108350000Y-47800000D01*
X109150000Y-46200000D02*
X109150000Y-47800000D01*
X108350000Y-46200000D02*
X109150000Y-46200000D01*
X108350000Y-47800000D02*
X108350000Y-46200000D01*
G04 #@! TO.C,R13*
X69300000Y-61900000D02*
X67700000Y-61900000D01*
X67700000Y-61900000D02*
X67700000Y-61100000D01*
X67700000Y-61100000D02*
X69300000Y-61100000D01*
X69300000Y-61100000D02*
X69300000Y-61900000D01*
G04 #@! TO.C,R14*
X69050000Y-60150000D02*
X67450000Y-60150000D01*
X67450000Y-60150000D02*
X67450000Y-59350000D01*
X67450000Y-59350000D02*
X69050000Y-59350000D01*
X69050000Y-59350000D02*
X69050000Y-60150000D01*
G04 #@! TO.C,R15*
X83650000Y-65450000D02*
X83650000Y-67050000D01*
X83650000Y-67050000D02*
X82850000Y-67050000D01*
X82850000Y-67050000D02*
X82850000Y-65450000D01*
X82850000Y-65450000D02*
X83650000Y-65450000D01*
G04 #@! TO.C,R16*
X123348528Y-59717157D02*
X122217157Y-60848528D01*
X122217157Y-60848528D02*
X121651472Y-60282843D01*
X121651472Y-60282843D02*
X122782843Y-59151472D01*
X122782843Y-59151472D02*
X123348528Y-59717157D01*
G04 #@! TO.C,R17*
X138300000Y-50400000D02*
X136700000Y-50400000D01*
X136700000Y-50400000D02*
X136700000Y-49600000D01*
X136700000Y-49600000D02*
X138300000Y-49600000D01*
X138300000Y-49600000D02*
X138300000Y-50400000D01*
G04 #@! TO.C,R18*
X119450000Y-46150000D02*
X119450000Y-45350000D01*
X121050000Y-46150000D02*
X119450000Y-46150000D01*
X121050000Y-45350000D02*
X121050000Y-46150000D01*
X119450000Y-45350000D02*
X121050000Y-45350000D01*
G04 #@! TO.C,R19*
X100800000Y-60850000D02*
X100800000Y-61650000D01*
X99200000Y-60850000D02*
X100800000Y-60850000D01*
X99200000Y-61650000D02*
X99200000Y-60850000D01*
X100800000Y-61650000D02*
X99200000Y-61650000D01*
G04 #@! TO.C,R20*
X99950000Y-63850000D02*
X101550000Y-63850000D01*
X101550000Y-63850000D02*
X101550000Y-64650000D01*
X101550000Y-64650000D02*
X99950000Y-64650000D01*
X99950000Y-64650000D02*
X99950000Y-63850000D01*
G04 #@! TO.C,R21*
X110080182Y-37283606D02*
X110080182Y-36483606D01*
X111680182Y-37283606D02*
X110080182Y-37283606D01*
X111680182Y-36483606D02*
X111680182Y-37283606D01*
X110080182Y-36483606D02*
X111680182Y-36483606D01*
G04 #@! TO.C,reset1*
X145250000Y-38500000D02*
G75*
G03X145250000Y-38500000I-750000J0D01*
G01*
X143250000Y-37000000D02*
X145750000Y-37000000D01*
X143250000Y-40000000D02*
X143250000Y-37000000D01*
X145750000Y-40000000D02*
X143250000Y-40000000D01*
X145750000Y-37000000D02*
X145750000Y-40000000D01*
D13*
G04 #@! TO.C,U2*
X122500000Y-45500000D02*
G75*
G03X122500000Y-45500000I-100000J0D01*
G01*
D14*
X134100000Y-44950000D02*
X124400000Y-44950000D01*
X124400000Y-44950000D02*
X124400000Y-55050000D01*
X124400000Y-55050000D02*
X134100000Y-55050000D01*
X134100000Y-55050000D02*
X134100000Y-44950000D01*
D11*
G04 #@! TO.C,U3*
X72870000Y-58700000D02*
X72870000Y-55800000D01*
X72870000Y-55800000D02*
X74630000Y-55800000D01*
X74630000Y-58250000D02*
X74630000Y-55800000D01*
X72870000Y-58700000D02*
X74180000Y-58700000D01*
X74630000Y-58250000D02*
X74180000Y-58700000D01*
D14*
G04 #@! TO.C,U4*
X88450000Y-65800000D02*
X88450000Y-63700000D01*
X88450000Y-63700000D02*
X90550000Y-63700000D01*
X90550000Y-63700000D02*
X90550000Y-65800000D01*
X90550000Y-65800000D02*
X88450000Y-65800000D01*
D13*
X88900000Y-66650000D02*
G75*
G03X88900000Y-66650000I-100000J0D01*
G01*
D11*
G04 #@! TO.C,U6*
X115765302Y-39484873D02*
X114015302Y-39484873D01*
X115765302Y-36484873D02*
X115765302Y-39484873D01*
X113265302Y-36484873D02*
X115765302Y-36484873D01*
X113265302Y-38734873D02*
X113265302Y-36484873D01*
X113265302Y-38734873D02*
X114015302Y-39484873D01*
G04 #@! TO.C,J1*
X67135000Y-52230000D02*
X67770000Y-52865000D01*
X62690000Y-52230000D02*
X67135000Y-52230000D01*
X62690000Y-54770000D02*
X62690000Y-52230000D01*
X67770000Y-54770000D02*
X62690000Y-54770000D01*
X67770000Y-52865000D02*
X67770000Y-54770000D01*
G04 #@! TO.C,8MHz1*
X108682448Y-68260875D02*
G75*
G03X111510874Y-65432447I1414213J1414214D01*
G01*
X104439806Y-64018233D02*
G75*
G02X107268234Y-61189807I1414214J1414213D01*
G01*
X108541025Y-68579072D02*
G75*
G03X111829073Y-65291026I1644024J1644023D01*
G01*
X104121609Y-64159655D02*
G75*
G02X107409655Y-60871609I1644023J1644023D01*
G01*
X104439807Y-64018234D02*
X108682447Y-68260874D01*
X107268234Y-61189807D02*
X111510874Y-65432447D01*
X104121609Y-64159655D02*
X108541026Y-68579073D01*
X107409655Y-60871609D02*
X111829073Y-65291026D01*
G04 #@! TD*
G04 #@! TO.C,U1*
D10*
X113569027Y-66972667D02*
X113905744Y-66635949D01*
X113703714Y-67242041D02*
X113232309Y-66299232D01*
X114175118Y-66770636D01*
X113602698Y-65928842D02*
X114006759Y-65524781D01*
X114511836Y-66433919D02*
X113804729Y-65726812D01*
X114949568Y-65996186D02*
X114478164Y-65524781D01*
X114545507Y-65592125D02*
X114545507Y-65524781D01*
X114579179Y-65423766D01*
X114680194Y-65322751D01*
X114781210Y-65289079D01*
X114882225Y-65322751D01*
X115252614Y-65693140D01*
X114882225Y-65322751D02*
X114848553Y-65221736D01*
X114882225Y-65120720D01*
X114983240Y-65019705D01*
X115084255Y-64986033D01*
X115185271Y-65019705D01*
X115555660Y-65390094D01*
X116128080Y-64750331D02*
X116094408Y-64851346D01*
X115959721Y-64986033D01*
X115858706Y-65019705D01*
X115757690Y-64986033D01*
X115488316Y-64716659D01*
X115454645Y-64615644D01*
X115488316Y-64514629D01*
X115623003Y-64379942D01*
X115724019Y-64346270D01*
X115825034Y-64379942D01*
X115892377Y-64447285D01*
X115623003Y-64851346D01*
X116330110Y-63672835D02*
X116902530Y-64245255D01*
X116936202Y-64346270D01*
X116936202Y-64413614D01*
X116902530Y-64514629D01*
X116801515Y-64615644D01*
X116700499Y-64649316D01*
X116767843Y-64110568D02*
X116734171Y-64211583D01*
X116599484Y-64346270D01*
X116498469Y-64379942D01*
X116431125Y-64379942D01*
X116330110Y-64346270D01*
X116128080Y-64144240D01*
X116094408Y-64043224D01*
X116094408Y-63975881D01*
X116128080Y-63874866D01*
X116262767Y-63740179D01*
X116363782Y-63706507D01*
X117441278Y-63504476D02*
X117070889Y-63134087D01*
X116969873Y-63100415D01*
X116868858Y-63134087D01*
X116734171Y-63268774D01*
X116700499Y-63369789D01*
X117407606Y-63470805D02*
X117373934Y-63571820D01*
X117205576Y-63740179D01*
X117104560Y-63773850D01*
X117003545Y-63740179D01*
X116936202Y-63672835D01*
X116902530Y-63571820D01*
X116936202Y-63470805D01*
X117104560Y-63302446D01*
X117138232Y-63201431D01*
X117003545Y-62527996D02*
X117441278Y-62090263D01*
X117474950Y-62595339D01*
X117575965Y-62494324D01*
X117676980Y-62460652D01*
X117744324Y-62460652D01*
X117845339Y-62494324D01*
X118013698Y-62662683D01*
X118047370Y-62763698D01*
X118047370Y-62831041D01*
X118013698Y-62932057D01*
X117811667Y-63134087D01*
X117710652Y-63167759D01*
X117643308Y-63167759D01*
X117777996Y-61888232D02*
X117777996Y-61820889D01*
X117811667Y-61719873D01*
X117980026Y-61551515D01*
X118081041Y-61517843D01*
X118148385Y-61517843D01*
X118249400Y-61551515D01*
X118316744Y-61618858D01*
X118384087Y-61753545D01*
X118384087Y-62561667D01*
X118821820Y-62123934D01*
X118821820Y-61315812D02*
X118720805Y-61349484D01*
X118653461Y-61349484D01*
X118552446Y-61315812D01*
X118518774Y-61282141D01*
X118485102Y-61181125D01*
X118485102Y-61113782D01*
X118518774Y-61012767D01*
X118653461Y-60878080D01*
X118754476Y-60844408D01*
X118821820Y-60844408D01*
X118922835Y-60878080D01*
X118956507Y-60911751D01*
X118990179Y-61012767D01*
X118990179Y-61080110D01*
X118956507Y-61181125D01*
X118821820Y-61315812D01*
X118788148Y-61416828D01*
X118788148Y-61484171D01*
X118821820Y-61585186D01*
X118956507Y-61719873D01*
X119057522Y-61753545D01*
X119124866Y-61753545D01*
X119225881Y-61719873D01*
X119360568Y-61585186D01*
X119394240Y-61484171D01*
X119394240Y-61416828D01*
X119360568Y-61315812D01*
X119225881Y-61181125D01*
X119124866Y-61147454D01*
X119057522Y-61147454D01*
X118956507Y-61181125D01*
X119798301Y-61147454D02*
X119091194Y-60440347D01*
X119360568Y-60170973D01*
X119461583Y-60137301D01*
X119528927Y-60137301D01*
X119629942Y-60170973D01*
X119730957Y-60271988D01*
X119764629Y-60373003D01*
X119764629Y-60440347D01*
X119730957Y-60541362D01*
X119461583Y-60810736D01*
X120236033Y-60170973D02*
X120774781Y-59632225D01*
X121145171Y-59396523D02*
X121481888Y-59059805D01*
X121279858Y-59665897D02*
X120808453Y-58723088D01*
X121751262Y-59194492D01*
X121279858Y-58251683D02*
X121852277Y-58824103D01*
X121953293Y-58857775D01*
X122020636Y-58857775D01*
X122121651Y-58824103D01*
X122256338Y-58689416D01*
X122290010Y-58588401D01*
X122290010Y-58521057D01*
X122256338Y-58420042D01*
X121683919Y-57847622D01*
X112574026Y-58401522D02*
X113146446Y-58973942D01*
X113247461Y-59007614D01*
X113314805Y-59007614D01*
X113415820Y-58973942D01*
X113550507Y-58839255D01*
X113584179Y-58738240D01*
X113584179Y-58670896D01*
X113550507Y-58569881D01*
X112978087Y-57997461D01*
X114392301Y-57997461D02*
X113988240Y-58401522D01*
X114190270Y-58199492D02*
X113483164Y-57492385D01*
X113516835Y-57660744D01*
X113516835Y-57795431D01*
X113483164Y-57896446D01*
G04 #@! TO.C,D4*
X56855714Y-51555714D02*
X57855714Y-51555714D01*
X56903333Y-51555714D02*
X56855714Y-51460476D01*
X56855714Y-51270000D01*
X56903333Y-51174761D01*
X56950952Y-51127142D01*
X57046190Y-51079523D01*
X57331904Y-51079523D01*
X57427142Y-51127142D01*
X57474761Y-51174761D01*
X57522380Y-51270000D01*
X57522380Y-51460476D01*
X57474761Y-51555714D01*
X57522380Y-50508095D02*
X57474761Y-50603333D01*
X57427142Y-50650952D01*
X57331904Y-50698571D01*
X57046190Y-50698571D01*
X56950952Y-50650952D01*
X56903333Y-50603333D01*
X56855714Y-50508095D01*
X56855714Y-50365238D01*
X56903333Y-50270000D01*
X56950952Y-50222380D01*
X57046190Y-50174761D01*
X57331904Y-50174761D01*
X57427142Y-50222380D01*
X57474761Y-50270000D01*
X57522380Y-50365238D01*
X57522380Y-50508095D01*
X56855714Y-49841428D02*
X57522380Y-49650952D01*
X57046190Y-49460476D01*
X57522380Y-49270000D01*
X56855714Y-49079523D01*
X57474761Y-48317619D02*
X57522380Y-48412857D01*
X57522380Y-48603333D01*
X57474761Y-48698571D01*
X57379523Y-48746190D01*
X56998571Y-48746190D01*
X56903333Y-48698571D01*
X56855714Y-48603333D01*
X56855714Y-48412857D01*
X56903333Y-48317619D01*
X56998571Y-48270000D01*
X57093809Y-48270000D01*
X57189047Y-48746190D01*
X57522380Y-47841428D02*
X56855714Y-47841428D01*
X57046190Y-47841428D02*
X56950952Y-47793809D01*
X56903333Y-47746190D01*
X56855714Y-47650952D01*
X56855714Y-47555714D01*
X57522380Y-46746190D02*
X57522380Y-47222380D01*
X56522380Y-47222380D01*
X56998571Y-46412857D02*
X56998571Y-46079523D01*
X57522380Y-45936666D02*
X57522380Y-46412857D01*
X56522380Y-46412857D01*
X56522380Y-45936666D01*
X57522380Y-45508095D02*
X56522380Y-45508095D01*
X56522380Y-45270000D01*
X56570000Y-45127142D01*
X56665238Y-45031904D01*
X56760476Y-44984285D01*
X56950952Y-44936666D01*
X57093809Y-44936666D01*
X57284285Y-44984285D01*
X57379523Y-45031904D01*
X57474761Y-45127142D01*
X57522380Y-45270000D01*
X57522380Y-45508095D01*
G04 #@! TO.C,D5*
X151715714Y-51515714D02*
X152715714Y-51515714D01*
X151763333Y-51515714D02*
X151715714Y-51420476D01*
X151715714Y-51230000D01*
X151763333Y-51134761D01*
X151810952Y-51087142D01*
X151906190Y-51039523D01*
X152191904Y-51039523D01*
X152287142Y-51087142D01*
X152334761Y-51134761D01*
X152382380Y-51230000D01*
X152382380Y-51420476D01*
X152334761Y-51515714D01*
X152382380Y-50468095D02*
X152334761Y-50563333D01*
X152287142Y-50610952D01*
X152191904Y-50658571D01*
X151906190Y-50658571D01*
X151810952Y-50610952D01*
X151763333Y-50563333D01*
X151715714Y-50468095D01*
X151715714Y-50325238D01*
X151763333Y-50230000D01*
X151810952Y-50182380D01*
X151906190Y-50134761D01*
X152191904Y-50134761D01*
X152287142Y-50182380D01*
X152334761Y-50230000D01*
X152382380Y-50325238D01*
X152382380Y-50468095D01*
X151715714Y-49801428D02*
X152382380Y-49610952D01*
X151906190Y-49420476D01*
X152382380Y-49230000D01*
X151715714Y-49039523D01*
X152334761Y-48277619D02*
X152382380Y-48372857D01*
X152382380Y-48563333D01*
X152334761Y-48658571D01*
X152239523Y-48706190D01*
X151858571Y-48706190D01*
X151763333Y-48658571D01*
X151715714Y-48563333D01*
X151715714Y-48372857D01*
X151763333Y-48277619D01*
X151858571Y-48230000D01*
X151953809Y-48230000D01*
X152049047Y-48706190D01*
X152382380Y-47801428D02*
X151715714Y-47801428D01*
X151906190Y-47801428D02*
X151810952Y-47753809D01*
X151763333Y-47706190D01*
X151715714Y-47610952D01*
X151715714Y-47515714D01*
X152382380Y-46706190D02*
X152382380Y-47182380D01*
X151382380Y-47182380D01*
X151858571Y-46372857D02*
X151858571Y-46039523D01*
X152382380Y-45896666D02*
X152382380Y-46372857D01*
X151382380Y-46372857D01*
X151382380Y-45896666D01*
X152382380Y-45468095D02*
X151382380Y-45468095D01*
X151382380Y-45230000D01*
X151430000Y-45087142D01*
X151525238Y-44991904D01*
X151620476Y-44944285D01*
X151810952Y-44896666D01*
X151953809Y-44896666D01*
X152144285Y-44944285D01*
X152239523Y-44991904D01*
X152334761Y-45087142D01*
X152382380Y-45230000D01*
X152382380Y-45468095D01*
G04 #@! TO.C,D6*
X100984285Y-46841715D02*
X100984285Y-47841715D01*
X100984285Y-46889334D02*
X101079523Y-46841715D01*
X101270000Y-46841715D01*
X101365238Y-46889334D01*
X101412857Y-46936953D01*
X101460476Y-47032191D01*
X101460476Y-47317905D01*
X101412857Y-47413143D01*
X101365238Y-47460762D01*
X101270000Y-47508381D01*
X101079523Y-47508381D01*
X100984285Y-47460762D01*
X102031904Y-47508381D02*
X101936666Y-47460762D01*
X101889047Y-47413143D01*
X101841428Y-47317905D01*
X101841428Y-47032191D01*
X101889047Y-46936953D01*
X101936666Y-46889334D01*
X102031904Y-46841715D01*
X102174761Y-46841715D01*
X102270000Y-46889334D01*
X102317619Y-46936953D01*
X102365238Y-47032191D01*
X102365238Y-47317905D01*
X102317619Y-47413143D01*
X102270000Y-47460762D01*
X102174761Y-47508381D01*
X102031904Y-47508381D01*
X102698571Y-46841715D02*
X102889047Y-47508381D01*
X103079523Y-47032191D01*
X103270000Y-47508381D01*
X103460476Y-46841715D01*
X104222380Y-47460762D02*
X104127142Y-47508381D01*
X103936666Y-47508381D01*
X103841428Y-47460762D01*
X103793809Y-47365524D01*
X103793809Y-46984572D01*
X103841428Y-46889334D01*
X103936666Y-46841715D01*
X104127142Y-46841715D01*
X104222380Y-46889334D01*
X104270000Y-46984572D01*
X104270000Y-47079810D01*
X103793809Y-47175048D01*
X104698571Y-47508381D02*
X104698571Y-46841715D01*
X104698571Y-47032191D02*
X104746190Y-46936953D01*
X104793809Y-46889334D01*
X104889047Y-46841715D01*
X104984285Y-46841715D01*
X105793809Y-47508381D02*
X105317619Y-47508381D01*
X105317619Y-46508381D01*
X106127142Y-46984572D02*
X106460476Y-46984572D01*
X106603333Y-47508381D02*
X106127142Y-47508381D01*
X106127142Y-46508381D01*
X106603333Y-46508381D01*
X107031904Y-47508381D02*
X107031904Y-46508381D01*
X107270000Y-46508381D01*
X107412857Y-46556001D01*
X107508095Y-46651239D01*
X107555714Y-46746477D01*
X107603333Y-46936953D01*
X107603333Y-47079810D01*
X107555714Y-47270286D01*
X107508095Y-47365524D01*
X107412857Y-47460762D01*
X107270000Y-47508381D01*
X107031904Y-47508381D01*
D13*
X103659523Y-43457905D02*
X103659523Y-42657905D01*
X103850000Y-42657905D01*
X103964285Y-42696001D01*
X104040476Y-42772191D01*
X104078571Y-42848381D01*
X104116666Y-43000762D01*
X104116666Y-43115048D01*
X104078571Y-43267429D01*
X104040476Y-43343620D01*
X103964285Y-43419810D01*
X103850000Y-43457905D01*
X103659523Y-43457905D01*
X104802380Y-42657905D02*
X104650000Y-42657905D01*
X104573809Y-42696001D01*
X104535714Y-42734096D01*
X104459523Y-42848381D01*
X104421428Y-43000762D01*
X104421428Y-43305524D01*
X104459523Y-43381715D01*
X104497619Y-43419810D01*
X104573809Y-43457905D01*
X104726190Y-43457905D01*
X104802380Y-43419810D01*
X104840476Y-43381715D01*
X104878571Y-43305524D01*
X104878571Y-43115048D01*
X104840476Y-43038858D01*
X104802380Y-43000762D01*
X104726190Y-42962667D01*
X104573809Y-42962667D01*
X104497619Y-43000762D01*
X104459523Y-43038858D01*
X104421428Y-43115048D01*
G04 #@! TO.C,J3*
D10*
X64400380Y-41952380D02*
X64400380Y-42428571D01*
X63400380Y-42428571D01*
X63400380Y-41428571D02*
X63400380Y-41238095D01*
X63448000Y-41142857D01*
X63543238Y-41047619D01*
X63733714Y-41000000D01*
X64067047Y-41000000D01*
X64257523Y-41047619D01*
X64352761Y-41142857D01*
X64400380Y-41238095D01*
X64400380Y-41428571D01*
X64352761Y-41523809D01*
X64257523Y-41619047D01*
X64067047Y-41666666D01*
X63733714Y-41666666D01*
X63543238Y-41619047D01*
X63448000Y-41523809D01*
X63400380Y-41428571D01*
X64400380Y-40000000D02*
X63924190Y-40333333D01*
X64400380Y-40571428D02*
X63400380Y-40571428D01*
X63400380Y-40190476D01*
X63448000Y-40095238D01*
X63495619Y-40047619D01*
X63590857Y-40000000D01*
X63733714Y-40000000D01*
X63828952Y-40047619D01*
X63876571Y-40095238D01*
X63924190Y-40190476D01*
X63924190Y-40571428D01*
X64114666Y-39619047D02*
X64114666Y-39142857D01*
X64400380Y-39714285D02*
X63400380Y-39380952D01*
X64400380Y-39047619D01*
X64495619Y-38952380D02*
X64495619Y-38190476D01*
X63828952Y-37809523D02*
X63781333Y-37904761D01*
X63733714Y-37952380D01*
X63638476Y-38000000D01*
X63590857Y-38000000D01*
X63495619Y-37952380D01*
X63448000Y-37904761D01*
X63400380Y-37809523D01*
X63400380Y-37619047D01*
X63448000Y-37523809D01*
X63495619Y-37476190D01*
X63590857Y-37428571D01*
X63638476Y-37428571D01*
X63733714Y-37476190D01*
X63781333Y-37523809D01*
X63828952Y-37619047D01*
X63828952Y-37809523D01*
X63876571Y-37904761D01*
X63924190Y-37952380D01*
X64019428Y-38000000D01*
X64209904Y-38000000D01*
X64305142Y-37952380D01*
X64352761Y-37904761D01*
X64400380Y-37809523D01*
X64400380Y-37619047D01*
X64352761Y-37523809D01*
X64305142Y-37476190D01*
X64209904Y-37428571D01*
X64019428Y-37428571D01*
X63924190Y-37476190D01*
X63876571Y-37523809D01*
X63828952Y-37619047D01*
X63400380Y-36571428D02*
X63400380Y-36761904D01*
X63448000Y-36857142D01*
X63495619Y-36904761D01*
X63638476Y-37000000D01*
X63828952Y-37047619D01*
X64209904Y-37047619D01*
X64305142Y-37000000D01*
X64352761Y-36952380D01*
X64400380Y-36857142D01*
X64400380Y-36666666D01*
X64352761Y-36571428D01*
X64305142Y-36523809D01*
X64209904Y-36476190D01*
X63971809Y-36476190D01*
X63876571Y-36523809D01*
X63828952Y-36571428D01*
X63781333Y-36666666D01*
X63781333Y-36857142D01*
X63828952Y-36952380D01*
X63876571Y-37000000D01*
X63971809Y-37047619D01*
X63828952Y-35904761D02*
X63781333Y-36000000D01*
X63733714Y-36047619D01*
X63638476Y-36095238D01*
X63590857Y-36095238D01*
X63495619Y-36047619D01*
X63448000Y-36000000D01*
X63400380Y-35904761D01*
X63400380Y-35714285D01*
X63448000Y-35619047D01*
X63495619Y-35571428D01*
X63590857Y-35523809D01*
X63638476Y-35523809D01*
X63733714Y-35571428D01*
X63781333Y-35619047D01*
X63828952Y-35714285D01*
X63828952Y-35904761D01*
X63876571Y-36000000D01*
X63924190Y-36047619D01*
X64019428Y-36095238D01*
X64209904Y-36095238D01*
X64305142Y-36047619D01*
X64352761Y-36000000D01*
X64400380Y-35904761D01*
X64400380Y-35714285D01*
X64352761Y-35619047D01*
X64305142Y-35571428D01*
X64209904Y-35523809D01*
X64019428Y-35523809D01*
X63924190Y-35571428D01*
X63876571Y-35619047D01*
X63828952Y-35714285D01*
G04 #@! TO.C,U5*
X77285714Y-34952380D02*
X76952380Y-34476190D01*
X76714285Y-34952380D02*
X76714285Y-33952380D01*
X77095238Y-33952380D01*
X77190476Y-34000000D01*
X77238095Y-34047619D01*
X77285714Y-34142857D01*
X77285714Y-34285714D01*
X77238095Y-34380952D01*
X77190476Y-34428571D01*
X77095238Y-34476190D01*
X76714285Y-34476190D01*
X78047619Y-34428571D02*
X77714285Y-34428571D01*
X77714285Y-34952380D02*
X77714285Y-33952380D01*
X78190476Y-33952380D01*
X78571428Y-34952380D02*
X78571428Y-33952380D01*
X78904761Y-34666666D01*
X79238095Y-33952380D01*
X79238095Y-34952380D01*
X79761904Y-34952380D02*
X79952380Y-34952380D01*
X80047619Y-34904761D01*
X80095238Y-34857142D01*
X80190476Y-34714285D01*
X80238095Y-34523809D01*
X80238095Y-34142857D01*
X80190476Y-34047619D01*
X80142857Y-34000000D01*
X80047619Y-33952380D01*
X79857142Y-33952380D01*
X79761904Y-34000000D01*
X79714285Y-34047619D01*
X79666666Y-34142857D01*
X79666666Y-34380952D01*
X79714285Y-34476190D01*
X79761904Y-34523809D01*
X79857142Y-34571428D01*
X80047619Y-34571428D01*
X80142857Y-34523809D01*
X80190476Y-34476190D01*
X80238095Y-34380952D01*
X81142857Y-33952380D02*
X80666666Y-33952380D01*
X80619047Y-34428571D01*
X80666666Y-34380952D01*
X80761904Y-34333333D01*
X81000000Y-34333333D01*
X81095238Y-34380952D01*
X81142857Y-34428571D01*
X81190476Y-34523809D01*
X81190476Y-34761904D01*
X81142857Y-34857142D01*
X81095238Y-34904761D01*
X81000000Y-34952380D01*
X80761904Y-34952380D01*
X80666666Y-34904761D01*
X80619047Y-34857142D01*
X81523809Y-33952380D02*
X81761904Y-34952380D01*
X81952380Y-34238095D01*
X82142857Y-34952380D01*
X82380952Y-33952380D01*
X82761904Y-34571428D02*
X83523809Y-34571428D01*
X84142857Y-34380952D02*
X84047619Y-34333333D01*
X84000000Y-34285714D01*
X83952380Y-34190476D01*
X83952380Y-34142857D01*
X84000000Y-34047619D01*
X84047619Y-34000000D01*
X84142857Y-33952380D01*
X84333333Y-33952380D01*
X84428571Y-34000000D01*
X84476190Y-34047619D01*
X84523809Y-34142857D01*
X84523809Y-34190476D01*
X84476190Y-34285714D01*
X84428571Y-34333333D01*
X84333333Y-34380952D01*
X84142857Y-34380952D01*
X84047619Y-34428571D01*
X84000000Y-34476190D01*
X83952380Y-34571428D01*
X83952380Y-34761904D01*
X84000000Y-34857142D01*
X84047619Y-34904761D01*
X84142857Y-34952380D01*
X84333333Y-34952380D01*
X84428571Y-34904761D01*
X84476190Y-34857142D01*
X84523809Y-34761904D01*
X84523809Y-34571428D01*
X84476190Y-34476190D01*
X84428571Y-34428571D01*
X84333333Y-34380952D01*
X85380952Y-33952380D02*
X85190476Y-33952380D01*
X85095238Y-34000000D01*
X85047619Y-34047619D01*
X84952380Y-34190476D01*
X84904761Y-34380952D01*
X84904761Y-34761904D01*
X84952380Y-34857142D01*
X85000000Y-34904761D01*
X85095238Y-34952380D01*
X85285714Y-34952380D01*
X85380952Y-34904761D01*
X85428571Y-34857142D01*
X85476190Y-34761904D01*
X85476190Y-34523809D01*
X85428571Y-34428571D01*
X85380952Y-34380952D01*
X85285714Y-34333333D01*
X85095238Y-34333333D01*
X85000000Y-34380952D01*
X84952380Y-34428571D01*
X84904761Y-34523809D01*
X86047619Y-34380952D02*
X85952380Y-34333333D01*
X85904761Y-34285714D01*
X85857142Y-34190476D01*
X85857142Y-34142857D01*
X85904761Y-34047619D01*
X85952380Y-34000000D01*
X86047619Y-33952380D01*
X86238095Y-33952380D01*
X86333333Y-34000000D01*
X86380952Y-34047619D01*
X86428571Y-34142857D01*
X86428571Y-34190476D01*
X86380952Y-34285714D01*
X86333333Y-34333333D01*
X86238095Y-34380952D01*
X86047619Y-34380952D01*
X85952380Y-34428571D01*
X85904761Y-34476190D01*
X85857142Y-34571428D01*
X85857142Y-34761904D01*
X85904761Y-34857142D01*
X85952380Y-34904761D01*
X86047619Y-34952380D01*
X86238095Y-34952380D01*
X86333333Y-34904761D01*
X86380952Y-34857142D01*
X86428571Y-34761904D01*
X86428571Y-34571428D01*
X86380952Y-34476190D01*
X86333333Y-34428571D01*
X86238095Y-34380952D01*
X86809523Y-34904761D02*
X86952380Y-34952380D01*
X87190476Y-34952380D01*
X87285714Y-34904761D01*
X87333333Y-34857142D01*
X87380952Y-34761904D01*
X87380952Y-34666666D01*
X87333333Y-34571428D01*
X87285714Y-34523809D01*
X87190476Y-34476190D01*
X87000000Y-34428571D01*
X86904761Y-34380952D01*
X86857142Y-34333333D01*
X86809523Y-34238095D01*
X86809523Y-34142857D01*
X86857142Y-34047619D01*
X86904761Y-34000000D01*
X87000000Y-33952380D01*
X87238095Y-33952380D01*
X87380952Y-34000000D01*
X87761904Y-34047619D02*
X87809523Y-34000000D01*
X87904761Y-33952380D01*
X88142857Y-33952380D01*
X88238095Y-34000000D01*
X88285714Y-34047619D01*
X88333333Y-34142857D01*
X88333333Y-34238095D01*
X88285714Y-34380952D01*
X87714285Y-34952380D01*
X88333333Y-34952380D01*
X81738095Y-43452380D02*
X81738095Y-44261904D01*
X81785714Y-44357142D01*
X81833333Y-44404761D01*
X81928571Y-44452380D01*
X82119047Y-44452380D01*
X82214285Y-44404761D01*
X82261904Y-44357142D01*
X82309523Y-44261904D01*
X82309523Y-43452380D01*
X83261904Y-43452380D02*
X82785714Y-43452380D01*
X82738095Y-43928571D01*
X82785714Y-43880952D01*
X82880952Y-43833333D01*
X83119047Y-43833333D01*
X83214285Y-43880952D01*
X83261904Y-43928571D01*
X83309523Y-44023809D01*
X83309523Y-44261904D01*
X83261904Y-44357142D01*
X83214285Y-44404761D01*
X83119047Y-44452380D01*
X82880952Y-44452380D01*
X82785714Y-44404761D01*
X82738095Y-44357142D01*
G04 #@! TO.C,H1*
X67952380Y-79852380D02*
X67952380Y-78852380D01*
X68190476Y-78852380D01*
X68333333Y-78900000D01*
X68428571Y-78995238D01*
X68476190Y-79090476D01*
X68523809Y-79280952D01*
X68523809Y-79423809D01*
X68476190Y-79614285D01*
X68428571Y-79709523D01*
X68333333Y-79804761D01*
X68190476Y-79852380D01*
X67952380Y-79852380D01*
X69142857Y-79376190D02*
X69142857Y-79852380D01*
X68809523Y-78852380D02*
X69142857Y-79376190D01*
X69476190Y-78852380D01*
X69809523Y-79852380D02*
X69809523Y-78852380D01*
X70380952Y-79852380D01*
X70380952Y-78852380D01*
X70809523Y-79566666D02*
X71285714Y-79566666D01*
X70714285Y-79852380D02*
X71047619Y-78852380D01*
X71380952Y-79852380D01*
X71714285Y-79852380D02*
X71714285Y-78852380D01*
X72047619Y-79566666D01*
X72380952Y-78852380D01*
X72380952Y-79852380D01*
X73047619Y-78852380D02*
X73238095Y-78852380D01*
X73333333Y-78900000D01*
X73428571Y-78995238D01*
X73476190Y-79185714D01*
X73476190Y-79519047D01*
X73428571Y-79709523D01*
X73333333Y-79804761D01*
X73238095Y-79852380D01*
X73047619Y-79852380D01*
X72952380Y-79804761D01*
X72857142Y-79709523D01*
X72809523Y-79519047D01*
X72809523Y-79185714D01*
X72857142Y-78995238D01*
X72952380Y-78900000D01*
X73047619Y-78852380D01*
X73666666Y-79947619D02*
X74428571Y-79947619D01*
X74619047Y-79566666D02*
X75095238Y-79566666D01*
X74523809Y-79852380D02*
X74857142Y-78852380D01*
X75190476Y-79852380D01*
X71038095Y-76952380D02*
X71038095Y-75952380D01*
X71038095Y-76428571D02*
X71609523Y-76428571D01*
X71609523Y-76952380D02*
X71609523Y-75952380D01*
X72609523Y-76952380D02*
X72038095Y-76952380D01*
X72323809Y-76952380D02*
X72323809Y-75952380D01*
X72228571Y-76095238D01*
X72133333Y-76190476D01*
X72038095Y-76238095D01*
G04 #@! TO.C,H2*
X73630952Y-79852380D02*
X73630952Y-78852380D01*
X73869047Y-78852380D01*
X74011904Y-78900000D01*
X74107142Y-78995238D01*
X74154761Y-79090476D01*
X74202380Y-79280952D01*
X74202380Y-79423809D01*
X74154761Y-79614285D01*
X74107142Y-79709523D01*
X74011904Y-79804761D01*
X73869047Y-79852380D01*
X73630952Y-79852380D01*
X74821428Y-79376190D02*
X74821428Y-79852380D01*
X74488095Y-78852380D02*
X74821428Y-79376190D01*
X75154761Y-78852380D01*
X75488095Y-79852380D02*
X75488095Y-78852380D01*
X76059523Y-79852380D01*
X76059523Y-78852380D01*
X76488095Y-79566666D02*
X76964285Y-79566666D01*
X76392857Y-79852380D02*
X76726190Y-78852380D01*
X77059523Y-79852380D01*
X77392857Y-79852380D02*
X77392857Y-78852380D01*
X77726190Y-79566666D01*
X78059523Y-78852380D01*
X78059523Y-79852380D01*
X78726190Y-78852380D02*
X78916666Y-78852380D01*
X79011904Y-78900000D01*
X79107142Y-78995238D01*
X79154761Y-79185714D01*
X79154761Y-79519047D01*
X79107142Y-79709523D01*
X79011904Y-79804761D01*
X78916666Y-79852380D01*
X78726190Y-79852380D01*
X78630952Y-79804761D01*
X78535714Y-79709523D01*
X78488095Y-79519047D01*
X78488095Y-79185714D01*
X78535714Y-78995238D01*
X78630952Y-78900000D01*
X78726190Y-78852380D01*
X79345238Y-79947619D02*
X80107142Y-79947619D01*
X80678571Y-79328571D02*
X80821428Y-79376190D01*
X80869047Y-79423809D01*
X80916666Y-79519047D01*
X80916666Y-79661904D01*
X80869047Y-79757142D01*
X80821428Y-79804761D01*
X80726190Y-79852380D01*
X80345238Y-79852380D01*
X80345238Y-78852380D01*
X80678571Y-78852380D01*
X80773809Y-78900000D01*
X80821428Y-78947619D01*
X80869047Y-79042857D01*
X80869047Y-79138095D01*
X80821428Y-79233333D01*
X80773809Y-79280952D01*
X80678571Y-79328571D01*
X80345238Y-79328571D01*
X76788095Y-76952380D02*
X76788095Y-75952380D01*
X76788095Y-76428571D02*
X77359523Y-76428571D01*
X77359523Y-76952380D02*
X77359523Y-75952380D01*
X77788095Y-76047619D02*
X77835714Y-76000000D01*
X77930952Y-75952380D01*
X78169047Y-75952380D01*
X78264285Y-76000000D01*
X78311904Y-76047619D01*
X78359523Y-76142857D01*
X78359523Y-76238095D01*
X78311904Y-76380952D01*
X77740476Y-76952380D01*
X78359523Y-76952380D01*
G04 #@! TO.C,BZ1*
X138071428Y-60178571D02*
X138214285Y-60226190D01*
X138261904Y-60273809D01*
X138309523Y-60369047D01*
X138309523Y-60511904D01*
X138261904Y-60607142D01*
X138214285Y-60654761D01*
X138119047Y-60702380D01*
X137738095Y-60702380D01*
X137738095Y-59702380D01*
X138071428Y-59702380D01*
X138166666Y-59750000D01*
X138214285Y-59797619D01*
X138261904Y-59892857D01*
X138261904Y-59988095D01*
X138214285Y-60083333D01*
X138166666Y-60130952D01*
X138071428Y-60178571D01*
X137738095Y-60178571D01*
X139166666Y-60035714D02*
X139166666Y-60702380D01*
X138738095Y-60035714D02*
X138738095Y-60559523D01*
X138785714Y-60654761D01*
X138880952Y-60702380D01*
X139023809Y-60702380D01*
X139119047Y-60654761D01*
X139166666Y-60607142D01*
X139547619Y-60035714D02*
X140071428Y-60035714D01*
X139547619Y-60702380D01*
X140071428Y-60702380D01*
X140357142Y-60035714D02*
X140880952Y-60035714D01*
X140357142Y-60702380D01*
X140880952Y-60702380D01*
X141642857Y-60654761D02*
X141547619Y-60702380D01*
X141357142Y-60702380D01*
X141261904Y-60654761D01*
X141214285Y-60559523D01*
X141214285Y-60178571D01*
X141261904Y-60083333D01*
X141357142Y-60035714D01*
X141547619Y-60035714D01*
X141642857Y-60083333D01*
X141690476Y-60178571D01*
X141690476Y-60273809D01*
X141214285Y-60369047D01*
X142119047Y-60702380D02*
X142119047Y-60035714D01*
X142119047Y-60226190D02*
X142166666Y-60130952D01*
X142214285Y-60083333D01*
X142309523Y-60035714D01*
X142404761Y-60035714D01*
X139119047Y-65678571D02*
X139261904Y-65726190D01*
X139309523Y-65773809D01*
X139357142Y-65869047D01*
X139357142Y-66011904D01*
X139309523Y-66107142D01*
X139261904Y-66154761D01*
X139166666Y-66202380D01*
X138785714Y-66202380D01*
X138785714Y-65202380D01*
X139119047Y-65202380D01*
X139214285Y-65250000D01*
X139261904Y-65297619D01*
X139309523Y-65392857D01*
X139309523Y-65488095D01*
X139261904Y-65583333D01*
X139214285Y-65630952D01*
X139119047Y-65678571D01*
X138785714Y-65678571D01*
X139690476Y-65202380D02*
X140357142Y-65202380D01*
X139690476Y-66202380D01*
X140357142Y-66202380D01*
X141261904Y-66202380D02*
X140690476Y-66202380D01*
X140976190Y-66202380D02*
X140976190Y-65202380D01*
X140880952Y-65345238D01*
X140785714Y-65440476D01*
X140690476Y-65488095D01*
G04 #@! TO.C,C1*
X80702380Y-62702380D02*
X80130952Y-62702380D01*
X80416666Y-62702380D02*
X80416666Y-61702380D01*
X80321428Y-61845238D01*
X80226190Y-61940476D01*
X80130952Y-61988095D01*
X81321428Y-61702380D02*
X81416666Y-61702380D01*
X81511904Y-61750000D01*
X81559523Y-61797619D01*
X81607142Y-61892857D01*
X81654761Y-62083333D01*
X81654761Y-62321428D01*
X81607142Y-62511904D01*
X81559523Y-62607142D01*
X81511904Y-62654761D01*
X81416666Y-62702380D01*
X81321428Y-62702380D01*
X81226190Y-62654761D01*
X81178571Y-62607142D01*
X81130952Y-62511904D01*
X81083333Y-62321428D01*
X81083333Y-62083333D01*
X81130952Y-61892857D01*
X81178571Y-61797619D01*
X81226190Y-61750000D01*
X81321428Y-61702380D01*
X82273809Y-61702380D02*
X82369047Y-61702380D01*
X82464285Y-61750000D01*
X82511904Y-61797619D01*
X82559523Y-61892857D01*
X82607142Y-62083333D01*
X82607142Y-62321428D01*
X82559523Y-62511904D01*
X82511904Y-62607142D01*
X82464285Y-62654761D01*
X82369047Y-62702380D01*
X82273809Y-62702380D01*
X82178571Y-62654761D01*
X82130952Y-62607142D01*
X82083333Y-62511904D01*
X82035714Y-62321428D01*
X82035714Y-62083333D01*
X82083333Y-61892857D01*
X82130952Y-61797619D01*
X82178571Y-61750000D01*
X82273809Y-61702380D01*
X83035714Y-62035714D02*
X83035714Y-62702380D01*
X83035714Y-62130952D02*
X83083333Y-62083333D01*
X83178571Y-62035714D01*
X83321428Y-62035714D01*
X83416666Y-62083333D01*
X83464285Y-62178571D01*
X83464285Y-62702380D01*
X84273809Y-62178571D02*
X83940476Y-62178571D01*
X83940476Y-62702380D02*
X83940476Y-61702380D01*
X84416666Y-61702380D01*
X82083333Y-59357142D02*
X82035714Y-59404761D01*
X81892857Y-59452380D01*
X81797619Y-59452380D01*
X81654761Y-59404761D01*
X81559523Y-59309523D01*
X81511904Y-59214285D01*
X81464285Y-59023809D01*
X81464285Y-58880952D01*
X81511904Y-58690476D01*
X81559523Y-58595238D01*
X81654761Y-58500000D01*
X81797619Y-58452380D01*
X81892857Y-58452380D01*
X82035714Y-58500000D01*
X82083333Y-58547619D01*
X83035714Y-59452380D02*
X82464285Y-59452380D01*
X82750000Y-59452380D02*
X82750000Y-58452380D01*
X82654761Y-58595238D01*
X82559523Y-58690476D01*
X82464285Y-58738095D01*
G04 #@! TO.C,C2*
X63928571Y-58952380D02*
X63357142Y-58952380D01*
X63642857Y-58952380D02*
X63642857Y-57952380D01*
X63547619Y-58095238D01*
X63452380Y-58190476D01*
X63357142Y-58238095D01*
X64547619Y-57952380D02*
X64642857Y-57952380D01*
X64738095Y-58000000D01*
X64785714Y-58047619D01*
X64833333Y-58142857D01*
X64880952Y-58333333D01*
X64880952Y-58571428D01*
X64833333Y-58761904D01*
X64785714Y-58857142D01*
X64738095Y-58904761D01*
X64642857Y-58952380D01*
X64547619Y-58952380D01*
X64452380Y-58904761D01*
X64404761Y-58857142D01*
X64357142Y-58761904D01*
X64309523Y-58571428D01*
X64309523Y-58333333D01*
X64357142Y-58142857D01*
X64404761Y-58047619D01*
X64452380Y-58000000D01*
X64547619Y-57952380D01*
X65738095Y-58285714D02*
X65738095Y-58952380D01*
X65309523Y-58285714D02*
X65309523Y-58809523D01*
X65357142Y-58904761D01*
X65452380Y-58952380D01*
X65595238Y-58952380D01*
X65690476Y-58904761D01*
X65738095Y-58857142D01*
X66547619Y-58428571D02*
X66214285Y-58428571D01*
X66214285Y-58952380D02*
X66214285Y-57952380D01*
X66690476Y-57952380D01*
X64833333Y-55107142D02*
X64785714Y-55154761D01*
X64642857Y-55202380D01*
X64547619Y-55202380D01*
X64404761Y-55154761D01*
X64309523Y-55059523D01*
X64261904Y-54964285D01*
X64214285Y-54773809D01*
X64214285Y-54630952D01*
X64261904Y-54440476D01*
X64309523Y-54345238D01*
X64404761Y-54250000D01*
X64547619Y-54202380D01*
X64642857Y-54202380D01*
X64785714Y-54250000D01*
X64833333Y-54297619D01*
X65214285Y-54297619D02*
X65261904Y-54250000D01*
X65357142Y-54202380D01*
X65595238Y-54202380D01*
X65690476Y-54250000D01*
X65738095Y-54297619D01*
X65785714Y-54392857D01*
X65785714Y-54488095D01*
X65738095Y-54630952D01*
X65166666Y-55202380D01*
X65785714Y-55202380D01*
G04 #@! TO.C,C3*
X69357142Y-59630952D02*
X69404761Y-59678571D01*
X69452380Y-59821428D01*
X69452380Y-59916666D01*
X69404761Y-60059523D01*
X69309523Y-60154761D01*
X69214285Y-60202380D01*
X69023809Y-60250000D01*
X68880952Y-60250000D01*
X68690476Y-60202380D01*
X68595238Y-60154761D01*
X68500000Y-60059523D01*
X68452380Y-59916666D01*
X68452380Y-59821428D01*
X68500000Y-59678571D01*
X68547619Y-59630952D01*
X69547619Y-59440476D02*
X69547619Y-58678571D01*
X69452380Y-57916666D02*
X69452380Y-58488095D01*
X69452380Y-58202380D02*
X68452380Y-58202380D01*
X68595238Y-58297619D01*
X68690476Y-58392857D01*
X68738095Y-58488095D01*
X68452380Y-57297619D02*
X68452380Y-57202380D01*
X68500000Y-57107142D01*
X68547619Y-57059523D01*
X68642857Y-57011904D01*
X68833333Y-56964285D01*
X69071428Y-56964285D01*
X69261904Y-57011904D01*
X69357142Y-57059523D01*
X69404761Y-57107142D01*
X69452380Y-57202380D01*
X69452380Y-57297619D01*
X69404761Y-57392857D01*
X69357142Y-57440476D01*
X69261904Y-57488095D01*
X69071428Y-57535714D01*
X68833333Y-57535714D01*
X68642857Y-57488095D01*
X68547619Y-57440476D01*
X68500000Y-57392857D01*
X68452380Y-57297619D01*
X68452380Y-56345238D02*
X68452380Y-56250000D01*
X68500000Y-56154761D01*
X68547619Y-56107142D01*
X68642857Y-56059523D01*
X68833333Y-56011904D01*
X69071428Y-56011904D01*
X69261904Y-56059523D01*
X69357142Y-56107142D01*
X69404761Y-56154761D01*
X69452380Y-56250000D01*
X69452380Y-56345238D01*
X69404761Y-56440476D01*
X69357142Y-56488095D01*
X69261904Y-56535714D01*
X69071428Y-56583333D01*
X68833333Y-56583333D01*
X68642857Y-56535714D01*
X68547619Y-56488095D01*
X68500000Y-56440476D01*
X68452380Y-56345238D01*
X68785714Y-55583333D02*
X69452380Y-55583333D01*
X68880952Y-55583333D02*
X68833333Y-55535714D01*
X68785714Y-55440476D01*
X68785714Y-55297619D01*
X68833333Y-55202380D01*
X68928571Y-55154761D01*
X69452380Y-55154761D01*
X68928571Y-54345238D02*
X68928571Y-54678571D01*
X69452380Y-54678571D02*
X68452380Y-54678571D01*
X68452380Y-54202380D01*
D15*
X70607142Y-57300000D02*
X70621428Y-57314285D01*
X70635714Y-57357142D01*
X70635714Y-57385714D01*
X70621428Y-57428571D01*
X70592857Y-57457142D01*
X70564285Y-57471428D01*
X70507142Y-57485714D01*
X70464285Y-57485714D01*
X70407142Y-57471428D01*
X70378571Y-57457142D01*
X70350000Y-57428571D01*
X70335714Y-57385714D01*
X70335714Y-57357142D01*
X70350000Y-57314285D01*
X70364285Y-57300000D01*
X70335714Y-57200000D02*
X70335714Y-57014285D01*
X70450000Y-57114285D01*
X70450000Y-57071428D01*
X70464285Y-57042857D01*
X70478571Y-57028571D01*
X70507142Y-57014285D01*
X70578571Y-57014285D01*
X70607142Y-57028571D01*
X70621428Y-57042857D01*
X70635714Y-57071428D01*
X70635714Y-57157142D01*
X70621428Y-57185714D01*
X70607142Y-57200000D01*
G04 #@! TO.C,C4*
D10*
X123107142Y-51642857D02*
X123154761Y-51690476D01*
X123202380Y-51833333D01*
X123202380Y-51928571D01*
X123154761Y-52071428D01*
X123059523Y-52166666D01*
X122964285Y-52214285D01*
X122773809Y-52261904D01*
X122630952Y-52261904D01*
X122440476Y-52214285D01*
X122345238Y-52166666D01*
X122250000Y-52071428D01*
X122202380Y-51928571D01*
X122202380Y-51833333D01*
X122250000Y-51690476D01*
X122297619Y-51642857D01*
X123297619Y-51452380D02*
X123297619Y-50690476D01*
X122535714Y-50023809D02*
X123202380Y-50023809D01*
X122154761Y-50261904D02*
X122869047Y-50500000D01*
X122869047Y-49880952D01*
X123107142Y-49500000D02*
X123154761Y-49452380D01*
X123202380Y-49500000D01*
X123154761Y-49547619D01*
X123107142Y-49500000D01*
X123202380Y-49500000D01*
X122202380Y-49119047D02*
X122202380Y-48452380D01*
X123202380Y-48880952D01*
X122535714Y-47642857D02*
X123202380Y-47642857D01*
X122535714Y-48071428D02*
X123059523Y-48071428D01*
X123154761Y-48023809D01*
X123202380Y-47928571D01*
X123202380Y-47785714D01*
X123154761Y-47690476D01*
X123107142Y-47642857D01*
X122678571Y-46833333D02*
X122678571Y-47166666D01*
X123202380Y-47166666D02*
X122202380Y-47166666D01*
X122202380Y-46690476D01*
X119357142Y-49666666D02*
X119404761Y-49714285D01*
X119452380Y-49857142D01*
X119452380Y-49952380D01*
X119404761Y-50095238D01*
X119309523Y-50190476D01*
X119214285Y-50238095D01*
X119023809Y-50285714D01*
X118880952Y-50285714D01*
X118690476Y-50238095D01*
X118595238Y-50190476D01*
X118500000Y-50095238D01*
X118452380Y-49952380D01*
X118452380Y-49857142D01*
X118500000Y-49714285D01*
X118547619Y-49666666D01*
X118785714Y-48809523D02*
X119452380Y-48809523D01*
X118404761Y-49047619D02*
X119119047Y-49285714D01*
X119119047Y-48666666D01*
G04 #@! TO.C,C5*
X120357142Y-51380952D02*
X120404761Y-51428571D01*
X120452380Y-51571428D01*
X120452380Y-51666666D01*
X120404761Y-51809523D01*
X120309523Y-51904761D01*
X120214285Y-51952380D01*
X120023809Y-52000000D01*
X119880952Y-52000000D01*
X119690476Y-51952380D01*
X119595238Y-51904761D01*
X119500000Y-51809523D01*
X119452380Y-51666666D01*
X119452380Y-51571428D01*
X119500000Y-51428571D01*
X119547619Y-51380952D01*
X120547619Y-51190476D02*
X120547619Y-50428571D01*
X120452380Y-49666666D02*
X120452380Y-50238095D01*
X120452380Y-49952380D02*
X119452380Y-49952380D01*
X119595238Y-50047619D01*
X119690476Y-50142857D01*
X119738095Y-50238095D01*
X119452380Y-49047619D02*
X119452380Y-48952380D01*
X119500000Y-48857142D01*
X119547619Y-48809523D01*
X119642857Y-48761904D01*
X119833333Y-48714285D01*
X120071428Y-48714285D01*
X120261904Y-48761904D01*
X120357142Y-48809523D01*
X120404761Y-48857142D01*
X120452380Y-48952380D01*
X120452380Y-49047619D01*
X120404761Y-49142857D01*
X120357142Y-49190476D01*
X120261904Y-49238095D01*
X120071428Y-49285714D01*
X119833333Y-49285714D01*
X119642857Y-49238095D01*
X119547619Y-49190476D01*
X119500000Y-49142857D01*
X119452380Y-49047619D01*
X119452380Y-48095238D02*
X119452380Y-48000000D01*
X119500000Y-47904761D01*
X119547619Y-47857142D01*
X119642857Y-47809523D01*
X119833333Y-47761904D01*
X120071428Y-47761904D01*
X120261904Y-47809523D01*
X120357142Y-47857142D01*
X120404761Y-47904761D01*
X120452380Y-48000000D01*
X120452380Y-48095238D01*
X120404761Y-48190476D01*
X120357142Y-48238095D01*
X120261904Y-48285714D01*
X120071428Y-48333333D01*
X119833333Y-48333333D01*
X119642857Y-48285714D01*
X119547619Y-48238095D01*
X119500000Y-48190476D01*
X119452380Y-48095238D01*
X119785714Y-47333333D02*
X120452380Y-47333333D01*
X119880952Y-47333333D02*
X119833333Y-47285714D01*
X119785714Y-47190476D01*
X119785714Y-47047619D01*
X119833333Y-46952380D01*
X119928571Y-46904761D01*
X120452380Y-46904761D01*
X119928571Y-46095238D02*
X119928571Y-46428571D01*
X120452380Y-46428571D02*
X119452380Y-46428571D01*
X119452380Y-45952380D01*
D15*
X118607142Y-49050000D02*
X118621428Y-49064285D01*
X118635714Y-49107142D01*
X118635714Y-49135714D01*
X118621428Y-49178571D01*
X118592857Y-49207142D01*
X118564285Y-49221428D01*
X118507142Y-49235714D01*
X118464285Y-49235714D01*
X118407142Y-49221428D01*
X118378571Y-49207142D01*
X118350000Y-49178571D01*
X118335714Y-49135714D01*
X118335714Y-49107142D01*
X118350000Y-49064285D01*
X118364285Y-49050000D01*
X118335714Y-48778571D02*
X118335714Y-48921428D01*
X118478571Y-48935714D01*
X118464285Y-48921428D01*
X118450000Y-48892857D01*
X118450000Y-48821428D01*
X118464285Y-48792857D01*
X118478571Y-48778571D01*
X118507142Y-48764285D01*
X118578571Y-48764285D01*
X118607142Y-48778571D01*
X118621428Y-48792857D01*
X118635714Y-48821428D01*
X118635714Y-48892857D01*
X118621428Y-48921428D01*
X118607142Y-48935714D01*
G04 #@! TO.C,C6*
D10*
X122857142Y-45107142D02*
X122809523Y-45154761D01*
X122666666Y-45202380D01*
X122571428Y-45202380D01*
X122428571Y-45154761D01*
X122333333Y-45059523D01*
X122285714Y-44964285D01*
X122238095Y-44773809D01*
X122238095Y-44630952D01*
X122285714Y-44440476D01*
X122333333Y-44345238D01*
X122428571Y-44250000D01*
X122571428Y-44202380D01*
X122666666Y-44202380D01*
X122809523Y-44250000D01*
X122857142Y-44297619D01*
X123047619Y-45297619D02*
X123809523Y-45297619D01*
X124476190Y-44535714D02*
X124476190Y-45202380D01*
X124238095Y-44154761D02*
X124000000Y-44869047D01*
X124619047Y-44869047D01*
X125000000Y-45107142D02*
X125047619Y-45154761D01*
X125000000Y-45202380D01*
X124952380Y-45154761D01*
X125000000Y-45107142D01*
X125000000Y-45202380D01*
X125380952Y-44202380D02*
X126047619Y-44202380D01*
X125619047Y-45202380D01*
X126857142Y-44535714D02*
X126857142Y-45202380D01*
X126428571Y-44535714D02*
X126428571Y-45059523D01*
X126476190Y-45154761D01*
X126571428Y-45202380D01*
X126714285Y-45202380D01*
X126809523Y-45154761D01*
X126857142Y-45107142D01*
X127666666Y-44678571D02*
X127333333Y-44678571D01*
X127333333Y-45202380D02*
X127333333Y-44202380D01*
X127809523Y-44202380D01*
X124833333Y-41357142D02*
X124785714Y-41404761D01*
X124642857Y-41452380D01*
X124547619Y-41452380D01*
X124404761Y-41404761D01*
X124309523Y-41309523D01*
X124261904Y-41214285D01*
X124214285Y-41023809D01*
X124214285Y-40880952D01*
X124261904Y-40690476D01*
X124309523Y-40595238D01*
X124404761Y-40500000D01*
X124547619Y-40452380D01*
X124642857Y-40452380D01*
X124785714Y-40500000D01*
X124833333Y-40547619D01*
X125690476Y-40452380D02*
X125500000Y-40452380D01*
X125404761Y-40500000D01*
X125357142Y-40547619D01*
X125261904Y-40690476D01*
X125214285Y-40880952D01*
X125214285Y-41261904D01*
X125261904Y-41357142D01*
X125309523Y-41404761D01*
X125404761Y-41452380D01*
X125595238Y-41452380D01*
X125690476Y-41404761D01*
X125738095Y-41357142D01*
X125785714Y-41261904D01*
X125785714Y-41023809D01*
X125738095Y-40928571D01*
X125690476Y-40880952D01*
X125595238Y-40833333D01*
X125404761Y-40833333D01*
X125309523Y-40880952D01*
X125261904Y-40928571D01*
X125214285Y-41023809D01*
G04 #@! TO.C,C7*
X124357142Y-41880952D02*
X124404761Y-41928571D01*
X124452380Y-42071428D01*
X124452380Y-42166666D01*
X124404761Y-42309523D01*
X124309523Y-42404761D01*
X124214285Y-42452380D01*
X124023809Y-42500000D01*
X123880952Y-42500000D01*
X123690476Y-42452380D01*
X123595238Y-42404761D01*
X123500000Y-42309523D01*
X123452380Y-42166666D01*
X123452380Y-42071428D01*
X123500000Y-41928571D01*
X123547619Y-41880952D01*
X124547619Y-41690476D02*
X124547619Y-40928571D01*
X124452380Y-40166666D02*
X124452380Y-40738095D01*
X124452380Y-40452380D02*
X123452380Y-40452380D01*
X123595238Y-40547619D01*
X123690476Y-40642857D01*
X123738095Y-40738095D01*
X123452380Y-39547619D02*
X123452380Y-39452380D01*
X123500000Y-39357142D01*
X123547619Y-39309523D01*
X123642857Y-39261904D01*
X123833333Y-39214285D01*
X124071428Y-39214285D01*
X124261904Y-39261904D01*
X124357142Y-39309523D01*
X124404761Y-39357142D01*
X124452380Y-39452380D01*
X124452380Y-39547619D01*
X124404761Y-39642857D01*
X124357142Y-39690476D01*
X124261904Y-39738095D01*
X124071428Y-39785714D01*
X123833333Y-39785714D01*
X123642857Y-39738095D01*
X123547619Y-39690476D01*
X123500000Y-39642857D01*
X123452380Y-39547619D01*
X123452380Y-38595238D02*
X123452380Y-38500000D01*
X123500000Y-38404761D01*
X123547619Y-38357142D01*
X123642857Y-38309523D01*
X123833333Y-38261904D01*
X124071428Y-38261904D01*
X124261904Y-38309523D01*
X124357142Y-38357142D01*
X124404761Y-38404761D01*
X124452380Y-38500000D01*
X124452380Y-38595238D01*
X124404761Y-38690476D01*
X124357142Y-38738095D01*
X124261904Y-38785714D01*
X124071428Y-38833333D01*
X123833333Y-38833333D01*
X123642857Y-38785714D01*
X123547619Y-38738095D01*
X123500000Y-38690476D01*
X123452380Y-38595238D01*
X123785714Y-37833333D02*
X124452380Y-37833333D01*
X123880952Y-37833333D02*
X123833333Y-37785714D01*
X123785714Y-37690476D01*
X123785714Y-37547619D01*
X123833333Y-37452380D01*
X123928571Y-37404761D01*
X124452380Y-37404761D01*
X123928571Y-36595238D02*
X123928571Y-36928571D01*
X124452380Y-36928571D02*
X123452380Y-36928571D01*
X123452380Y-36452380D01*
D15*
X122607142Y-39550000D02*
X122621428Y-39564285D01*
X122635714Y-39607142D01*
X122635714Y-39635714D01*
X122621428Y-39678571D01*
X122592857Y-39707142D01*
X122564285Y-39721428D01*
X122507142Y-39735714D01*
X122464285Y-39735714D01*
X122407142Y-39721428D01*
X122378571Y-39707142D01*
X122350000Y-39678571D01*
X122335714Y-39635714D01*
X122335714Y-39607142D01*
X122350000Y-39564285D01*
X122364285Y-39550000D01*
X122335714Y-39450000D02*
X122335714Y-39250000D01*
X122635714Y-39378571D01*
G04 #@! TO.C,C8*
D10*
X115275126Y-53536209D02*
X114871065Y-53132148D01*
X115073095Y-53334179D02*
X115780202Y-52627072D01*
X115611843Y-52660744D01*
X115477156Y-52660744D01*
X115376141Y-52627072D01*
X116419965Y-53266835D02*
X116487309Y-53334179D01*
X116520981Y-53435194D01*
X116520981Y-53502537D01*
X116487309Y-53603553D01*
X116386294Y-53771911D01*
X116217935Y-53940270D01*
X116049576Y-54041285D01*
X115948561Y-54074957D01*
X115881217Y-54074957D01*
X115780202Y-54041285D01*
X115712859Y-53973942D01*
X115679187Y-53872927D01*
X115679187Y-53805583D01*
X115712859Y-53704568D01*
X115813874Y-53536209D01*
X115982233Y-53367850D01*
X116150591Y-53266835D01*
X116251607Y-53233163D01*
X116318950Y-53233163D01*
X116419965Y-53266835D01*
X117093401Y-53940270D02*
X117160744Y-54007614D01*
X117194416Y-54108629D01*
X117194416Y-54175972D01*
X117160744Y-54276988D01*
X117059729Y-54445347D01*
X116891370Y-54613705D01*
X116723011Y-54714721D01*
X116621996Y-54748392D01*
X116554652Y-54748392D01*
X116453637Y-54714721D01*
X116386294Y-54647377D01*
X116352622Y-54546362D01*
X116352622Y-54479018D01*
X116386294Y-54378003D01*
X116487309Y-54209644D01*
X116655668Y-54041285D01*
X116824027Y-53940270D01*
X116925042Y-53906598D01*
X116992385Y-53906598D01*
X117093401Y-53940270D01*
X117396446Y-54714721D02*
X116925042Y-55186125D01*
X117329103Y-54782064D02*
X117396446Y-54782064D01*
X117497462Y-54815736D01*
X117598477Y-54916751D01*
X117632149Y-55017766D01*
X117598477Y-55118782D01*
X117228088Y-55489171D01*
X118170897Y-55691201D02*
X117935194Y-55455499D01*
X117564805Y-55825888D02*
X118271912Y-55118782D01*
X118608629Y-55455499D01*
D15*
X117638883Y-53290406D02*
X117618680Y-53290406D01*
X117578274Y-53270203D01*
X117558071Y-53249999D01*
X117537867Y-53209593D01*
X117537867Y-53169187D01*
X117547969Y-53138883D01*
X117578274Y-53088375D01*
X117608578Y-53058071D01*
X117659086Y-53027766D01*
X117689390Y-53017664D01*
X117729796Y-53017664D01*
X117770203Y-53037867D01*
X117790406Y-53058071D01*
X117810609Y-53098477D01*
X117810609Y-53118680D01*
X117861116Y-53310609D02*
X117851015Y-53280304D01*
X117851015Y-53260101D01*
X117861116Y-53229796D01*
X117871218Y-53219695D01*
X117901522Y-53209593D01*
X117921725Y-53209593D01*
X117952030Y-53219695D01*
X117992436Y-53260101D01*
X118002538Y-53290406D01*
X118002538Y-53310609D01*
X117992436Y-53340913D01*
X117982335Y-53351015D01*
X117952030Y-53361116D01*
X117931827Y-53361116D01*
X117901522Y-53351015D01*
X117861116Y-53310609D01*
X117830812Y-53300507D01*
X117810609Y-53300507D01*
X117780304Y-53310609D01*
X117739898Y-53351015D01*
X117729796Y-53381319D01*
X117729796Y-53401522D01*
X117739898Y-53431827D01*
X117780304Y-53472233D01*
X117810609Y-53482335D01*
X117830812Y-53482335D01*
X117861116Y-53472233D01*
X117901522Y-53431827D01*
X117911624Y-53401522D01*
X117911624Y-53381319D01*
X117901522Y-53351015D01*
G04 #@! TO.C,C9*
D10*
X87678571Y-59952380D02*
X87107142Y-59952380D01*
X87392857Y-59952380D02*
X87392857Y-58952380D01*
X87297619Y-59095238D01*
X87202380Y-59190476D01*
X87107142Y-59238095D01*
X88297619Y-58952380D02*
X88392857Y-58952380D01*
X88488095Y-59000000D01*
X88535714Y-59047619D01*
X88583333Y-59142857D01*
X88630952Y-59333333D01*
X88630952Y-59571428D01*
X88583333Y-59761904D01*
X88535714Y-59857142D01*
X88488095Y-59904761D01*
X88392857Y-59952380D01*
X88297619Y-59952380D01*
X88202380Y-59904761D01*
X88154761Y-59857142D01*
X88107142Y-59761904D01*
X88059523Y-59571428D01*
X88059523Y-59333333D01*
X88107142Y-59142857D01*
X88154761Y-59047619D01*
X88202380Y-59000000D01*
X88297619Y-58952380D01*
X89488095Y-59285714D02*
X89488095Y-59952380D01*
X89059523Y-59285714D02*
X89059523Y-59809523D01*
X89107142Y-59904761D01*
X89202380Y-59952380D01*
X89345238Y-59952380D01*
X89440476Y-59904761D01*
X89488095Y-59857142D01*
X90297619Y-59428571D02*
X89964285Y-59428571D01*
X89964285Y-59952380D02*
X89964285Y-58952380D01*
X90440476Y-58952380D01*
X88583333Y-63607142D02*
X88535714Y-63654761D01*
X88392857Y-63702380D01*
X88297619Y-63702380D01*
X88154761Y-63654761D01*
X88059523Y-63559523D01*
X88011904Y-63464285D01*
X87964285Y-63273809D01*
X87964285Y-63130952D01*
X88011904Y-62940476D01*
X88059523Y-62845238D01*
X88154761Y-62750000D01*
X88297619Y-62702380D01*
X88392857Y-62702380D01*
X88535714Y-62750000D01*
X88583333Y-62797619D01*
X89059523Y-63702380D02*
X89250000Y-63702380D01*
X89345238Y-63654761D01*
X89392857Y-63607142D01*
X89488095Y-63464285D01*
X89535714Y-63273809D01*
X89535714Y-62892857D01*
X89488095Y-62797619D01*
X89440476Y-62750000D01*
X89345238Y-62702380D01*
X89154761Y-62702380D01*
X89059523Y-62750000D01*
X89011904Y-62797619D01*
X88964285Y-62892857D01*
X88964285Y-63130952D01*
X89011904Y-63226190D01*
X89059523Y-63273809D01*
X89154761Y-63321428D01*
X89345238Y-63321428D01*
X89440476Y-63273809D01*
X89488095Y-63226190D01*
X89535714Y-63130952D01*
G04 #@! TO.C,C10*
X104371271Y-67527559D02*
X104438614Y-67527559D01*
X104539629Y-67561231D01*
X104707988Y-67729590D01*
X104741660Y-67830605D01*
X104741660Y-67897949D01*
X104707988Y-67998964D01*
X104640645Y-68066307D01*
X104505958Y-68133651D01*
X103697836Y-68133651D01*
X104135568Y-68571384D01*
X105044706Y-68200994D02*
X105112049Y-68200994D01*
X105213065Y-68234666D01*
X105381423Y-68403025D01*
X105415095Y-68504040D01*
X105415095Y-68571384D01*
X105381423Y-68672399D01*
X105314080Y-68739742D01*
X105179393Y-68807086D01*
X104371271Y-68807086D01*
X104809003Y-69244819D01*
X105583454Y-69076460D02*
X104876347Y-69783567D01*
X105549782Y-69110132D02*
X105650797Y-69143804D01*
X105785484Y-69278491D01*
X105819156Y-69379506D01*
X105819156Y-69446849D01*
X105785484Y-69547865D01*
X105583454Y-69749895D01*
X105482439Y-69783567D01*
X105415095Y-69783567D01*
X105314080Y-69749895D01*
X105179393Y-69615208D01*
X105145721Y-69514193D01*
X106357904Y-70052941D02*
X106122202Y-69817239D01*
X105751813Y-70187628D02*
X106458919Y-69480521D01*
X106795637Y-69817239D01*
X106302010Y-67011034D02*
X106234666Y-67011034D01*
X106099979Y-66943690D01*
X106032636Y-66876347D01*
X105965292Y-66741660D01*
X105965292Y-66606973D01*
X105998964Y-66505958D01*
X106099979Y-66337599D01*
X106200994Y-66236584D01*
X106369353Y-66135568D01*
X106470368Y-66101897D01*
X106605055Y-66101897D01*
X106739742Y-66169240D01*
X106807086Y-66236584D01*
X106874429Y-66371271D01*
X106874429Y-66438614D01*
X106908101Y-67751813D02*
X106504040Y-67347752D01*
X106706071Y-67549782D02*
X107413178Y-66842675D01*
X107244819Y-66876347D01*
X107110132Y-66876347D01*
X107009117Y-66842675D01*
X108052941Y-67482439D02*
X108120284Y-67549782D01*
X108153956Y-67650797D01*
X108153956Y-67718141D01*
X108120284Y-67819156D01*
X108019269Y-67987515D01*
X107850910Y-68155874D01*
X107682552Y-68256889D01*
X107581536Y-68290561D01*
X107514193Y-68290561D01*
X107413178Y-68256889D01*
X107345834Y-68189545D01*
X107312162Y-68088530D01*
X107312162Y-68021187D01*
X107345834Y-67920171D01*
X107446849Y-67751813D01*
X107615208Y-67583454D01*
X107783567Y-67482439D01*
X107884582Y-67448767D01*
X107951926Y-67448767D01*
X108052941Y-67482439D01*
G04 #@! TO.C,C11*
X104167323Y-63731507D02*
X104234666Y-63731507D01*
X104335681Y-63765179D01*
X104504040Y-63933538D01*
X104537712Y-64034553D01*
X104537712Y-64101897D01*
X104504040Y-64202912D01*
X104436697Y-64270255D01*
X104302010Y-64337599D01*
X103493888Y-64337599D01*
X103931620Y-64775332D01*
X104840758Y-64404942D02*
X104908101Y-64404942D01*
X105009117Y-64438614D01*
X105177475Y-64606973D01*
X105211147Y-64707988D01*
X105211147Y-64775332D01*
X105177475Y-64876347D01*
X105110132Y-64943690D01*
X104975445Y-65011034D01*
X104167323Y-65011034D01*
X104605055Y-65448767D01*
X105379506Y-65280408D02*
X104672399Y-65987515D01*
X105345834Y-65314080D02*
X105446849Y-65347752D01*
X105581536Y-65482439D01*
X105615208Y-65583454D01*
X105615208Y-65650797D01*
X105581536Y-65751813D01*
X105379506Y-65953843D01*
X105278491Y-65987515D01*
X105211147Y-65987515D01*
X105110132Y-65953843D01*
X104975445Y-65819156D01*
X104941773Y-65718141D01*
X106153956Y-66256889D02*
X105918254Y-66021187D01*
X105547865Y-66391576D02*
X106254971Y-65684469D01*
X106591689Y-66021187D01*
X102505958Y-66807086D02*
X102438614Y-66807086D01*
X102303927Y-66739742D01*
X102236584Y-66672399D01*
X102169240Y-66537712D01*
X102169240Y-66403025D01*
X102202912Y-66302010D01*
X102303927Y-66133651D01*
X102404942Y-66032636D01*
X102573301Y-65931620D01*
X102674316Y-65897949D01*
X102809003Y-65897949D01*
X102943690Y-65965292D01*
X103011034Y-66032636D01*
X103078377Y-66167323D01*
X103078377Y-66234666D01*
X103112049Y-67547865D02*
X102707988Y-67143804D01*
X102910019Y-67345834D02*
X103617126Y-66638727D01*
X103448767Y-66672399D01*
X103314080Y-66672399D01*
X103213065Y-66638727D01*
X103785484Y-68221300D02*
X103381423Y-67817239D01*
X103583454Y-68019269D02*
X104290561Y-67312162D01*
X104122202Y-67345834D01*
X103987515Y-67345834D01*
X103886500Y-67312162D01*
G04 #@! TO.C,C12*
X95452380Y-65821428D02*
X95452380Y-66392857D01*
X95452380Y-66107142D02*
X94452380Y-66107142D01*
X94595238Y-66202380D01*
X94690476Y-66297619D01*
X94738095Y-66392857D01*
X94452380Y-65202380D02*
X94452380Y-65107142D01*
X94500000Y-65011904D01*
X94547619Y-64964285D01*
X94642857Y-64916666D01*
X94833333Y-64869047D01*
X95071428Y-64869047D01*
X95261904Y-64916666D01*
X95357142Y-64964285D01*
X95404761Y-65011904D01*
X95452380Y-65107142D01*
X95452380Y-65202380D01*
X95404761Y-65297619D01*
X95357142Y-65345238D01*
X95261904Y-65392857D01*
X95071428Y-65440476D01*
X94833333Y-65440476D01*
X94642857Y-65392857D01*
X94547619Y-65345238D01*
X94500000Y-65297619D01*
X94452380Y-65202380D01*
X94785714Y-64011904D02*
X95452380Y-64011904D01*
X94785714Y-64440476D02*
X95309523Y-64440476D01*
X95404761Y-64392857D01*
X95452380Y-64297619D01*
X95452380Y-64154761D01*
X95404761Y-64059523D01*
X95357142Y-64011904D01*
X94928571Y-63202380D02*
X94928571Y-63535714D01*
X95452380Y-63535714D02*
X94452380Y-63535714D01*
X94452380Y-63059523D01*
X91607142Y-65392857D02*
X91654761Y-65440476D01*
X91702380Y-65583333D01*
X91702380Y-65678571D01*
X91654761Y-65821428D01*
X91559523Y-65916666D01*
X91464285Y-65964285D01*
X91273809Y-66011904D01*
X91130952Y-66011904D01*
X90940476Y-65964285D01*
X90845238Y-65916666D01*
X90750000Y-65821428D01*
X90702380Y-65678571D01*
X90702380Y-65583333D01*
X90750000Y-65440476D01*
X90797619Y-65392857D01*
X91702380Y-64440476D02*
X91702380Y-65011904D01*
X91702380Y-64726190D02*
X90702380Y-64726190D01*
X90845238Y-64821428D01*
X90940476Y-64916666D01*
X90988095Y-65011904D01*
X90797619Y-64059523D02*
X90750000Y-64011904D01*
X90702380Y-63916666D01*
X90702380Y-63678571D01*
X90750000Y-63583333D01*
X90797619Y-63535714D01*
X90892857Y-63488095D01*
X90988095Y-63488095D01*
X91130952Y-63535714D01*
X91702380Y-64107142D01*
X91702380Y-63488095D01*
G04 #@! TO.C,C13*
X63404761Y-60452380D02*
X62833333Y-60452380D01*
X63119047Y-60452380D02*
X63119047Y-59452380D01*
X63023809Y-59595238D01*
X62928571Y-59690476D01*
X62833333Y-59738095D01*
X64261904Y-59785714D02*
X64261904Y-60452380D01*
X63833333Y-59785714D02*
X63833333Y-60309523D01*
X63880952Y-60404761D01*
X63976190Y-60452380D01*
X64119047Y-60452380D01*
X64214285Y-60404761D01*
X64261904Y-60357142D01*
X65071428Y-59928571D02*
X64738095Y-59928571D01*
X64738095Y-60452380D02*
X64738095Y-59452380D01*
X65214285Y-59452380D01*
D15*
X63807142Y-58607142D02*
X63792857Y-58621428D01*
X63750000Y-58635714D01*
X63721428Y-58635714D01*
X63678571Y-58621428D01*
X63650000Y-58592857D01*
X63635714Y-58564285D01*
X63621428Y-58507142D01*
X63621428Y-58464285D01*
X63635714Y-58407142D01*
X63650000Y-58378571D01*
X63678571Y-58350000D01*
X63721428Y-58335714D01*
X63750000Y-58335714D01*
X63792857Y-58350000D01*
X63807142Y-58364285D01*
X64092857Y-58635714D02*
X63921428Y-58635714D01*
X64007142Y-58635714D02*
X64007142Y-58335714D01*
X63978571Y-58378571D01*
X63950000Y-58407142D01*
X63921428Y-58421428D01*
X64192857Y-58335714D02*
X64378571Y-58335714D01*
X64278571Y-58450000D01*
X64321428Y-58450000D01*
X64350000Y-58464285D01*
X64364285Y-58478571D01*
X64378571Y-58507142D01*
X64378571Y-58578571D01*
X64364285Y-58607142D01*
X64350000Y-58621428D01*
X64321428Y-58635714D01*
X64235714Y-58635714D01*
X64207142Y-58621428D01*
X64192857Y-58607142D01*
G04 #@! TO.C,C14*
D10*
X62357142Y-60952380D02*
X62452380Y-60952380D01*
X62547619Y-61000000D01*
X62595238Y-61047619D01*
X62642857Y-61142857D01*
X62690476Y-61333333D01*
X62690476Y-61571428D01*
X62642857Y-61761904D01*
X62595238Y-61857142D01*
X62547619Y-61904761D01*
X62452380Y-61952380D01*
X62357142Y-61952380D01*
X62261904Y-61904761D01*
X62214285Y-61857142D01*
X62166666Y-61761904D01*
X62119047Y-61571428D01*
X62119047Y-61333333D01*
X62166666Y-61142857D01*
X62214285Y-61047619D01*
X62261904Y-61000000D01*
X62357142Y-60952380D01*
X63119047Y-61857142D02*
X63166666Y-61904761D01*
X63119047Y-61952380D01*
X63071428Y-61904761D01*
X63119047Y-61857142D01*
X63119047Y-61952380D01*
X64119047Y-61952380D02*
X63547619Y-61952380D01*
X63833333Y-61952380D02*
X63833333Y-60952380D01*
X63738095Y-61095238D01*
X63642857Y-61190476D01*
X63547619Y-61238095D01*
X64976190Y-61285714D02*
X64976190Y-61952380D01*
X64547619Y-61285714D02*
X64547619Y-61809523D01*
X64595238Y-61904761D01*
X64690476Y-61952380D01*
X64833333Y-61952380D01*
X64928571Y-61904761D01*
X64976190Y-61857142D01*
X65785714Y-61428571D02*
X65452380Y-61428571D01*
X65452380Y-61952380D02*
X65452380Y-60952380D01*
X65928571Y-60952380D01*
D15*
X63807142Y-60107142D02*
X63792857Y-60121428D01*
X63750000Y-60135714D01*
X63721428Y-60135714D01*
X63678571Y-60121428D01*
X63650000Y-60092857D01*
X63635714Y-60064285D01*
X63621428Y-60007142D01*
X63621428Y-59964285D01*
X63635714Y-59907142D01*
X63650000Y-59878571D01*
X63678571Y-59850000D01*
X63721428Y-59835714D01*
X63750000Y-59835714D01*
X63792857Y-59850000D01*
X63807142Y-59864285D01*
X64092857Y-60135714D02*
X63921428Y-60135714D01*
X64007142Y-60135714D02*
X64007142Y-59835714D01*
X63978571Y-59878571D01*
X63950000Y-59907142D01*
X63921428Y-59921428D01*
X64350000Y-59935714D02*
X64350000Y-60135714D01*
X64278571Y-59821428D02*
X64207142Y-60035714D01*
X64392857Y-60035714D01*
G04 #@! TO.C,C15*
D10*
X76428571Y-58952380D02*
X75857142Y-58952380D01*
X76142857Y-58952380D02*
X76142857Y-57952380D01*
X76047619Y-58095238D01*
X75952380Y-58190476D01*
X75857142Y-58238095D01*
X77047619Y-57952380D02*
X77142857Y-57952380D01*
X77238095Y-58000000D01*
X77285714Y-58047619D01*
X77333333Y-58142857D01*
X77380952Y-58333333D01*
X77380952Y-58571428D01*
X77333333Y-58761904D01*
X77285714Y-58857142D01*
X77238095Y-58904761D01*
X77142857Y-58952380D01*
X77047619Y-58952380D01*
X76952380Y-58904761D01*
X76904761Y-58857142D01*
X76857142Y-58761904D01*
X76809523Y-58571428D01*
X76809523Y-58333333D01*
X76857142Y-58142857D01*
X76904761Y-58047619D01*
X76952380Y-58000000D01*
X77047619Y-57952380D01*
X78238095Y-58285714D02*
X78238095Y-58952380D01*
X77809523Y-58285714D02*
X77809523Y-58809523D01*
X77857142Y-58904761D01*
X77952380Y-58952380D01*
X78095238Y-58952380D01*
X78190476Y-58904761D01*
X78238095Y-58857142D01*
X79047619Y-58428571D02*
X78714285Y-58428571D01*
X78714285Y-58952380D02*
X78714285Y-57952380D01*
X79190476Y-57952380D01*
X76857142Y-62607142D02*
X76809523Y-62654761D01*
X76666666Y-62702380D01*
X76571428Y-62702380D01*
X76428571Y-62654761D01*
X76333333Y-62559523D01*
X76285714Y-62464285D01*
X76238095Y-62273809D01*
X76238095Y-62130952D01*
X76285714Y-61940476D01*
X76333333Y-61845238D01*
X76428571Y-61750000D01*
X76571428Y-61702380D01*
X76666666Y-61702380D01*
X76809523Y-61750000D01*
X76857142Y-61797619D01*
X77809523Y-62702380D02*
X77238095Y-62702380D01*
X77523809Y-62702380D02*
X77523809Y-61702380D01*
X77428571Y-61845238D01*
X77333333Y-61940476D01*
X77238095Y-61988095D01*
X78714285Y-61702380D02*
X78238095Y-61702380D01*
X78190476Y-62178571D01*
X78238095Y-62130952D01*
X78333333Y-62083333D01*
X78571428Y-62083333D01*
X78666666Y-62130952D01*
X78714285Y-62178571D01*
X78761904Y-62273809D01*
X78761904Y-62511904D01*
X78714285Y-62607142D01*
X78666666Y-62654761D01*
X78571428Y-62702380D01*
X78333333Y-62702380D01*
X78238095Y-62654761D01*
X78190476Y-62607142D01*
G04 #@! TO.C,C16*
X96952380Y-67047619D02*
X96952380Y-67619047D01*
X96952380Y-67333333D02*
X95952380Y-67333333D01*
X96095238Y-67428571D01*
X96190476Y-67523809D01*
X96238095Y-67619047D01*
X95952380Y-66428571D02*
X95952380Y-66333333D01*
X96000000Y-66238095D01*
X96047619Y-66190476D01*
X96142857Y-66142857D01*
X96333333Y-66095238D01*
X96571428Y-66095238D01*
X96761904Y-66142857D01*
X96857142Y-66190476D01*
X96904761Y-66238095D01*
X96952380Y-66333333D01*
X96952380Y-66428571D01*
X96904761Y-66523809D01*
X96857142Y-66571428D01*
X96761904Y-66619047D01*
X96571428Y-66666666D01*
X96333333Y-66666666D01*
X96142857Y-66619047D01*
X96047619Y-66571428D01*
X96000000Y-66523809D01*
X95952380Y-66428571D01*
X95952380Y-65476190D02*
X95952380Y-65380952D01*
X96000000Y-65285714D01*
X96047619Y-65238095D01*
X96142857Y-65190476D01*
X96333333Y-65142857D01*
X96571428Y-65142857D01*
X96761904Y-65190476D01*
X96857142Y-65238095D01*
X96904761Y-65285714D01*
X96952380Y-65380952D01*
X96952380Y-65476190D01*
X96904761Y-65571428D01*
X96857142Y-65619047D01*
X96761904Y-65666666D01*
X96571428Y-65714285D01*
X96333333Y-65714285D01*
X96142857Y-65666666D01*
X96047619Y-65619047D01*
X96000000Y-65571428D01*
X95952380Y-65476190D01*
X96285714Y-64714285D02*
X96952380Y-64714285D01*
X96380952Y-64714285D02*
X96333333Y-64666666D01*
X96285714Y-64571428D01*
X96285714Y-64428571D01*
X96333333Y-64333333D01*
X96428571Y-64285714D01*
X96952380Y-64285714D01*
X96428571Y-63476190D02*
X96428571Y-63809523D01*
X96952380Y-63809523D02*
X95952380Y-63809523D01*
X95952380Y-63333333D01*
D15*
X95107142Y-65692857D02*
X95121428Y-65707142D01*
X95135714Y-65750000D01*
X95135714Y-65778571D01*
X95121428Y-65821428D01*
X95092857Y-65850000D01*
X95064285Y-65864285D01*
X95007142Y-65878571D01*
X94964285Y-65878571D01*
X94907142Y-65864285D01*
X94878571Y-65850000D01*
X94850000Y-65821428D01*
X94835714Y-65778571D01*
X94835714Y-65750000D01*
X94850000Y-65707142D01*
X94864285Y-65692857D01*
X95135714Y-65407142D02*
X95135714Y-65578571D01*
X95135714Y-65492857D02*
X94835714Y-65492857D01*
X94878571Y-65521428D01*
X94907142Y-65550000D01*
X94921428Y-65578571D01*
X94835714Y-65150000D02*
X94835714Y-65207142D01*
X94850000Y-65235714D01*
X94864285Y-65250000D01*
X94907142Y-65278571D01*
X94964285Y-65292857D01*
X95078571Y-65292857D01*
X95107142Y-65278571D01*
X95121428Y-65264285D01*
X95135714Y-65235714D01*
X95135714Y-65178571D01*
X95121428Y-65150000D01*
X95107142Y-65135714D01*
X95078571Y-65121428D01*
X95007142Y-65121428D01*
X94978571Y-65135714D01*
X94964285Y-65150000D01*
X94950000Y-65178571D01*
X94950000Y-65235714D01*
X94964285Y-65264285D01*
X94978571Y-65278571D01*
X95007142Y-65292857D01*
G04 #@! TO.C,C17*
D10*
X112119047Y-43357142D02*
X112071428Y-43404761D01*
X111928571Y-43452380D01*
X111833333Y-43452380D01*
X111690476Y-43404761D01*
X111595238Y-43309523D01*
X111547619Y-43214285D01*
X111500000Y-43023809D01*
X111500000Y-42880952D01*
X111547619Y-42690476D01*
X111595238Y-42595238D01*
X111690476Y-42500000D01*
X111833333Y-42452380D01*
X111928571Y-42452380D01*
X112071428Y-42500000D01*
X112119047Y-42547619D01*
X112309523Y-43547619D02*
X113071428Y-43547619D01*
X113833333Y-43452380D02*
X113261904Y-43452380D01*
X113547619Y-43452380D02*
X113547619Y-42452380D01*
X113452380Y-42595238D01*
X113357142Y-42690476D01*
X113261904Y-42738095D01*
X114452380Y-42452380D02*
X114547619Y-42452380D01*
X114642857Y-42500000D01*
X114690476Y-42547619D01*
X114738095Y-42642857D01*
X114785714Y-42833333D01*
X114785714Y-43071428D01*
X114738095Y-43261904D01*
X114690476Y-43357142D01*
X114642857Y-43404761D01*
X114547619Y-43452380D01*
X114452380Y-43452380D01*
X114357142Y-43404761D01*
X114309523Y-43357142D01*
X114261904Y-43261904D01*
X114214285Y-43071428D01*
X114214285Y-42833333D01*
X114261904Y-42642857D01*
X114309523Y-42547619D01*
X114357142Y-42500000D01*
X114452380Y-42452380D01*
X115404761Y-42452380D02*
X115500000Y-42452380D01*
X115595238Y-42500000D01*
X115642857Y-42547619D01*
X115690476Y-42642857D01*
X115738095Y-42833333D01*
X115738095Y-43071428D01*
X115690476Y-43261904D01*
X115642857Y-43357142D01*
X115595238Y-43404761D01*
X115500000Y-43452380D01*
X115404761Y-43452380D01*
X115309523Y-43404761D01*
X115261904Y-43357142D01*
X115214285Y-43261904D01*
X115166666Y-43071428D01*
X115166666Y-42833333D01*
X115214285Y-42642857D01*
X115261904Y-42547619D01*
X115309523Y-42500000D01*
X115404761Y-42452380D01*
X116166666Y-42785714D02*
X116166666Y-43452380D01*
X116166666Y-42880952D02*
X116214285Y-42833333D01*
X116309523Y-42785714D01*
X116452380Y-42785714D01*
X116547619Y-42833333D01*
X116595238Y-42928571D01*
X116595238Y-43452380D01*
X117404761Y-42928571D02*
X117071428Y-42928571D01*
X117071428Y-43452380D02*
X117071428Y-42452380D01*
X117547619Y-42452380D01*
D15*
X114307142Y-41607142D02*
X114292857Y-41621428D01*
X114250000Y-41635714D01*
X114221428Y-41635714D01*
X114178571Y-41621428D01*
X114150000Y-41592857D01*
X114135714Y-41564285D01*
X114121428Y-41507142D01*
X114121428Y-41464285D01*
X114135714Y-41407142D01*
X114150000Y-41378571D01*
X114178571Y-41350000D01*
X114221428Y-41335714D01*
X114250000Y-41335714D01*
X114292857Y-41350000D01*
X114307142Y-41364285D01*
X114592857Y-41635714D02*
X114421428Y-41635714D01*
X114507142Y-41635714D02*
X114507142Y-41335714D01*
X114478571Y-41378571D01*
X114450000Y-41407142D01*
X114421428Y-41421428D01*
X114692857Y-41335714D02*
X114892857Y-41335714D01*
X114764285Y-41635714D01*
G04 #@! TO.C,D1*
D10*
X114297619Y-45800000D02*
X114202380Y-45752380D01*
X114059523Y-45752380D01*
X113916666Y-45800000D01*
X113821428Y-45895238D01*
X113773809Y-45990476D01*
X113726190Y-46180952D01*
X113726190Y-46323809D01*
X113773809Y-46514285D01*
X113821428Y-46609523D01*
X113916666Y-46704761D01*
X114059523Y-46752380D01*
X114154761Y-46752380D01*
X114297619Y-46704761D01*
X114345238Y-46657142D01*
X114345238Y-46323809D01*
X114154761Y-46323809D01*
X114773809Y-46752380D02*
X114773809Y-45752380D01*
X115154761Y-45752380D01*
X115250000Y-45800000D01*
X115297619Y-45847619D01*
X115345238Y-45942857D01*
X115345238Y-46085714D01*
X115297619Y-46180952D01*
X115250000Y-46228571D01*
X115154761Y-46276190D01*
X114773809Y-46276190D01*
X115726190Y-46704761D02*
X115869047Y-46752380D01*
X116107142Y-46752380D01*
X116202380Y-46704761D01*
X116250000Y-46657142D01*
X116297619Y-46561904D01*
X116297619Y-46466666D01*
X116250000Y-46371428D01*
X116202380Y-46323809D01*
X116107142Y-46276190D01*
X115916666Y-46228571D01*
X115821428Y-46180952D01*
X115773809Y-46133333D01*
X115726190Y-46038095D01*
X115726190Y-45942857D01*
X115773809Y-45847619D01*
X115821428Y-45800000D01*
X115916666Y-45752380D01*
X116154761Y-45752380D01*
X116297619Y-45800000D01*
X116488095Y-46847619D02*
X117250000Y-46847619D01*
X117964285Y-46752380D02*
X117488095Y-46752380D01*
X117488095Y-45752380D01*
X118297619Y-46228571D02*
X118630952Y-46228571D01*
X118773809Y-46752380D02*
X118297619Y-46752380D01*
X118297619Y-45752380D01*
X118773809Y-45752380D01*
X119202380Y-46752380D02*
X119202380Y-45752380D01*
X119440476Y-45752380D01*
X119583333Y-45800000D01*
X119678571Y-45895238D01*
X119726190Y-45990476D01*
X119773809Y-46180952D01*
X119773809Y-46323809D01*
X119726190Y-46514285D01*
X119678571Y-46609523D01*
X119583333Y-46704761D01*
X119440476Y-46752380D01*
X119202380Y-46752380D01*
D11*
X116454761Y-43680952D02*
X116454761Y-43280952D01*
X116550000Y-43280952D01*
X116607142Y-43300000D01*
X116645238Y-43338095D01*
X116664285Y-43376190D01*
X116683333Y-43452380D01*
X116683333Y-43509523D01*
X116664285Y-43585714D01*
X116645238Y-43623809D01*
X116607142Y-43661904D01*
X116550000Y-43680952D01*
X116454761Y-43680952D01*
X117064285Y-43680952D02*
X116835714Y-43680952D01*
X116950000Y-43680952D02*
X116950000Y-43280952D01*
X116911904Y-43338095D01*
X116873809Y-43376190D01*
X116835714Y-43395238D01*
G04 #@! TO.C,D2*
D10*
X113654761Y-67402380D02*
X113559523Y-67354761D01*
X113511904Y-67259523D01*
X113511904Y-66402380D01*
X114416666Y-67354761D02*
X114321428Y-67402380D01*
X114130952Y-67402380D01*
X114035714Y-67354761D01*
X113988095Y-67259523D01*
X113988095Y-66878571D01*
X114035714Y-66783333D01*
X114130952Y-66735714D01*
X114321428Y-66735714D01*
X114416666Y-66783333D01*
X114464285Y-66878571D01*
X114464285Y-66973809D01*
X113988095Y-67069047D01*
X115321428Y-67402380D02*
X115321428Y-66402380D01*
X115321428Y-67354761D02*
X115226190Y-67402380D01*
X115035714Y-67402380D01*
X114940476Y-67354761D01*
X114892857Y-67307142D01*
X114845238Y-67211904D01*
X114845238Y-66926190D01*
X114892857Y-66830952D01*
X114940476Y-66783333D01*
X115035714Y-66735714D01*
X115226190Y-66735714D01*
X115321428Y-66783333D01*
X117083333Y-67402380D02*
X116511904Y-67402380D01*
X116797619Y-67402380D02*
X116797619Y-66402380D01*
X116702380Y-66545238D01*
X116607142Y-66640476D01*
X116511904Y-66688095D01*
X117416666Y-66402380D02*
X118035714Y-66402380D01*
X117702380Y-66783333D01*
X117845238Y-66783333D01*
X117940476Y-66830952D01*
X117988095Y-66878571D01*
X118035714Y-66973809D01*
X118035714Y-67211904D01*
X117988095Y-67307142D01*
X117940476Y-67354761D01*
X117845238Y-67402380D01*
X117559523Y-67402380D01*
X117464285Y-67354761D01*
X117416666Y-67307142D01*
D11*
X115454761Y-69930952D02*
X115454761Y-69530952D01*
X115550000Y-69530952D01*
X115607142Y-69550000D01*
X115645238Y-69588095D01*
X115664285Y-69626190D01*
X115683333Y-69702380D01*
X115683333Y-69759523D01*
X115664285Y-69835714D01*
X115645238Y-69873809D01*
X115607142Y-69911904D01*
X115550000Y-69930952D01*
X115454761Y-69930952D01*
X115835714Y-69569047D02*
X115854761Y-69550000D01*
X115892857Y-69530952D01*
X115988095Y-69530952D01*
X116026190Y-69550000D01*
X116045238Y-69569047D01*
X116064285Y-69607142D01*
X116064285Y-69645238D01*
X116045238Y-69702380D01*
X115816666Y-69930952D01*
X116064285Y-69930952D01*
G04 #@! TO.C,D3*
D10*
X58947619Y-66802380D02*
X58947619Y-65802380D01*
X59185714Y-65802380D01*
X59328571Y-65850000D01*
X59423809Y-65945238D01*
X59471428Y-66040476D01*
X59519047Y-66230952D01*
X59519047Y-66373809D01*
X59471428Y-66564285D01*
X59423809Y-66659523D01*
X59328571Y-66754761D01*
X59185714Y-66802380D01*
X58947619Y-66802380D01*
X59709523Y-66897619D02*
X60471428Y-66897619D01*
X61042857Y-66278571D02*
X61185714Y-66326190D01*
X61233333Y-66373809D01*
X61280952Y-66469047D01*
X61280952Y-66611904D01*
X61233333Y-66707142D01*
X61185714Y-66754761D01*
X61090476Y-66802380D01*
X60709523Y-66802380D01*
X60709523Y-65802380D01*
X61042857Y-65802380D01*
X61138095Y-65850000D01*
X61185714Y-65897619D01*
X61233333Y-65992857D01*
X61233333Y-66088095D01*
X61185714Y-66183333D01*
X61138095Y-66230952D01*
X61042857Y-66278571D01*
X60709523Y-66278571D01*
X62185714Y-65802380D02*
X61709523Y-65802380D01*
X61661904Y-66278571D01*
X61709523Y-66230952D01*
X61804761Y-66183333D01*
X62042857Y-66183333D01*
X62138095Y-66230952D01*
X62185714Y-66278571D01*
X62233333Y-66373809D01*
X62233333Y-66611904D01*
X62185714Y-66707142D01*
X62138095Y-66754761D01*
X62042857Y-66802380D01*
X61804761Y-66802380D01*
X61709523Y-66754761D01*
X61661904Y-66707142D01*
X62804761Y-66230952D02*
X62709523Y-66183333D01*
X62661904Y-66135714D01*
X62614285Y-66040476D01*
X62614285Y-65992857D01*
X62661904Y-65897619D01*
X62709523Y-65850000D01*
X62804761Y-65802380D01*
X62995238Y-65802380D01*
X63090476Y-65850000D01*
X63138095Y-65897619D01*
X63185714Y-65992857D01*
X63185714Y-66040476D01*
X63138095Y-66135714D01*
X63090476Y-66183333D01*
X62995238Y-66230952D01*
X62804761Y-66230952D01*
X62709523Y-66278571D01*
X62661904Y-66326190D01*
X62614285Y-66421428D01*
X62614285Y-66611904D01*
X62661904Y-66707142D01*
X62709523Y-66754761D01*
X62804761Y-66802380D01*
X62995238Y-66802380D01*
X63090476Y-66754761D01*
X63138095Y-66707142D01*
X63185714Y-66611904D01*
X63185714Y-66421428D01*
X63138095Y-66326190D01*
X63090476Y-66278571D01*
X62995238Y-66230952D01*
X64138095Y-66802380D02*
X63566666Y-66802380D01*
X63852380Y-66802380D02*
X63852380Y-65802380D01*
X63757142Y-65945238D01*
X63661904Y-66040476D01*
X63566666Y-66088095D01*
X64709523Y-66230952D02*
X64614285Y-66183333D01*
X64566666Y-66135714D01*
X64519047Y-66040476D01*
X64519047Y-65992857D01*
X64566666Y-65897619D01*
X64614285Y-65850000D01*
X64709523Y-65802380D01*
X64900000Y-65802380D01*
X64995238Y-65850000D01*
X65042857Y-65897619D01*
X65090476Y-65992857D01*
X65090476Y-66040476D01*
X65042857Y-66135714D01*
X64995238Y-66183333D01*
X64900000Y-66230952D01*
X64709523Y-66230952D01*
X64614285Y-66278571D01*
X64566666Y-66326190D01*
X64519047Y-66421428D01*
X64519047Y-66611904D01*
X64566666Y-66707142D01*
X64614285Y-66754761D01*
X64709523Y-66802380D01*
X64900000Y-66802380D01*
X64995238Y-66754761D01*
X65042857Y-66707142D01*
X65090476Y-66611904D01*
X65090476Y-66421428D01*
X65042857Y-66326190D01*
X64995238Y-66278571D01*
X64900000Y-66230952D01*
X65423809Y-65802380D02*
X65661904Y-66802380D01*
X65852380Y-66088095D01*
X66042857Y-66802380D01*
X66280952Y-65802380D01*
X66614285Y-66754761D02*
X66757142Y-66802380D01*
X66995238Y-66802380D01*
X67090476Y-66754761D01*
X67138095Y-66707142D01*
X67185714Y-66611904D01*
X67185714Y-66516666D01*
X67138095Y-66421428D01*
X67090476Y-66373809D01*
X66995238Y-66326190D01*
X66804761Y-66278571D01*
X66709523Y-66230952D01*
X66661904Y-66183333D01*
X66614285Y-66088095D01*
X66614285Y-65992857D01*
X66661904Y-65897619D01*
X66709523Y-65850000D01*
X66804761Y-65802380D01*
X67042857Y-65802380D01*
X67185714Y-65850000D01*
X68328571Y-66754761D02*
X68471428Y-66802380D01*
X68709523Y-66802380D01*
X68804761Y-66754761D01*
X68852380Y-66707142D01*
X68900000Y-66611904D01*
X68900000Y-66516666D01*
X68852380Y-66421428D01*
X68804761Y-66373809D01*
X68709523Y-66326190D01*
X68519047Y-66278571D01*
X68423809Y-66230952D01*
X68376190Y-66183333D01*
X68328571Y-66088095D01*
X68328571Y-65992857D01*
X68376190Y-65897619D01*
X68423809Y-65850000D01*
X68519047Y-65802380D01*
X68757142Y-65802380D01*
X68900000Y-65850000D01*
X69328571Y-66802380D02*
X69328571Y-65802380D01*
X69900000Y-66802380D02*
X69471428Y-66230952D01*
X69900000Y-65802380D02*
X69328571Y-66373809D01*
X63761904Y-70552380D02*
X63761904Y-69552380D01*
X64000000Y-69552380D01*
X64142857Y-69600000D01*
X64238095Y-69695238D01*
X64285714Y-69790476D01*
X64333333Y-69980952D01*
X64333333Y-70123809D01*
X64285714Y-70314285D01*
X64238095Y-70409523D01*
X64142857Y-70504761D01*
X64000000Y-70552380D01*
X63761904Y-70552380D01*
X64666666Y-69552380D02*
X65285714Y-69552380D01*
X64952380Y-69933333D01*
X65095238Y-69933333D01*
X65190476Y-69980952D01*
X65238095Y-70028571D01*
X65285714Y-70123809D01*
X65285714Y-70361904D01*
X65238095Y-70457142D01*
X65190476Y-70504761D01*
X65095238Y-70552380D01*
X64809523Y-70552380D01*
X64714285Y-70504761D01*
X64666666Y-70457142D01*
G04 #@! TO.C,D7*
X61559797Y-62630360D02*
X61083606Y-62630360D01*
X61083606Y-61630360D01*
X61893130Y-62106551D02*
X62226464Y-62106551D01*
X62369321Y-62630360D02*
X61893130Y-62630360D01*
X61893130Y-61630360D01*
X62369321Y-61630360D01*
X62797892Y-62630360D02*
X62797892Y-61630360D01*
X63035987Y-61630360D01*
X63178844Y-61677980D01*
X63274083Y-61773218D01*
X63321702Y-61868456D01*
X63369321Y-62058932D01*
X63369321Y-62201789D01*
X63321702Y-62392265D01*
X63274083Y-62487503D01*
X63178844Y-62582741D01*
X63035987Y-62630360D01*
X62797892Y-62630360D01*
X63559797Y-62725599D02*
X64321702Y-62725599D01*
X64988368Y-62582741D02*
X64893130Y-62630360D01*
X64702654Y-62630360D01*
X64607416Y-62582741D01*
X64559797Y-62535122D01*
X64512178Y-62439884D01*
X64512178Y-62154170D01*
X64559797Y-62058932D01*
X64607416Y-62011313D01*
X64702654Y-61963694D01*
X64893130Y-61963694D01*
X64988368Y-62011313D01*
X65416940Y-62630360D02*
X65416940Y-61630360D01*
X65845511Y-62630360D02*
X65845511Y-62106551D01*
X65797892Y-62011313D01*
X65702654Y-61963694D01*
X65559797Y-61963694D01*
X65464559Y-62011313D01*
X65416940Y-62058932D01*
X66321702Y-62630360D02*
X66321702Y-61963694D01*
X66321702Y-62154170D02*
X66369321Y-62058932D01*
X66416940Y-62011313D01*
X66512178Y-61963694D01*
X66607416Y-61963694D01*
X67369321Y-61963694D02*
X67369321Y-62773218D01*
X67321702Y-62868456D01*
X67274083Y-62916075D01*
X67178844Y-62963694D01*
X67035987Y-62963694D01*
X66940749Y-62916075D01*
X67369321Y-62582741D02*
X67274083Y-62630360D01*
X67083606Y-62630360D01*
X66988368Y-62582741D01*
X66940749Y-62535122D01*
X66893130Y-62439884D01*
X66893130Y-62154170D01*
X66940749Y-62058932D01*
X66988368Y-62011313D01*
X67083606Y-61963694D01*
X67274083Y-61963694D01*
X67369321Y-62011313D01*
D11*
X63931225Y-65158932D02*
X63931225Y-64758932D01*
X64026464Y-64758932D01*
X64083606Y-64777980D01*
X64121702Y-64816075D01*
X64140749Y-64854170D01*
X64159797Y-64930360D01*
X64159797Y-64987503D01*
X64140749Y-65063694D01*
X64121702Y-65101789D01*
X64083606Y-65139884D01*
X64026464Y-65158932D01*
X63931225Y-65158932D01*
X64293130Y-64758932D02*
X64559797Y-64758932D01*
X64388368Y-65158932D01*
G04 #@! TO.C,D8*
D10*
X61226464Y-60630360D02*
X60750273Y-60630360D01*
X60750273Y-59630360D01*
X61559797Y-60106551D02*
X61893130Y-60106551D01*
X62035987Y-60630360D02*
X61559797Y-60630360D01*
X61559797Y-59630360D01*
X62035987Y-59630360D01*
X62464559Y-60630360D02*
X62464559Y-59630360D01*
X62702654Y-59630360D01*
X62845511Y-59677980D01*
X62940749Y-59773218D01*
X62988368Y-59868456D01*
X63035987Y-60058932D01*
X63035987Y-60201789D01*
X62988368Y-60392265D01*
X62940749Y-60487503D01*
X62845511Y-60582741D01*
X62702654Y-60630360D01*
X62464559Y-60630360D01*
X63226464Y-60725599D02*
X63988368Y-60725599D01*
X64178844Y-60582741D02*
X64274083Y-60630360D01*
X64464559Y-60630360D01*
X64559797Y-60582741D01*
X64607416Y-60487503D01*
X64607416Y-60439884D01*
X64559797Y-60344646D01*
X64464559Y-60297027D01*
X64321702Y-60297027D01*
X64226464Y-60249408D01*
X64178844Y-60154170D01*
X64178844Y-60106551D01*
X64226464Y-60011313D01*
X64321702Y-59963694D01*
X64464559Y-59963694D01*
X64559797Y-60011313D01*
X64893130Y-59963694D02*
X65274083Y-59963694D01*
X65035987Y-59630360D02*
X65035987Y-60487503D01*
X65083606Y-60582741D01*
X65178844Y-60630360D01*
X65274083Y-60630360D01*
X66035987Y-60630360D02*
X66035987Y-59630360D01*
X66035987Y-60582741D02*
X65940749Y-60630360D01*
X65750273Y-60630360D01*
X65655035Y-60582741D01*
X65607416Y-60535122D01*
X65559797Y-60439884D01*
X65559797Y-60154170D01*
X65607416Y-60058932D01*
X65655035Y-60011313D01*
X65750273Y-59963694D01*
X65940749Y-59963694D01*
X66035987Y-60011313D01*
X66512178Y-60630360D02*
X66512178Y-59630360D01*
X66512178Y-60011313D02*
X66607416Y-59963694D01*
X66797892Y-59963694D01*
X66893130Y-60011313D01*
X66940749Y-60058932D01*
X66988368Y-60154170D01*
X66988368Y-60439884D01*
X66940749Y-60535122D01*
X66893130Y-60582741D01*
X66797892Y-60630360D01*
X66607416Y-60630360D01*
X66512178Y-60582741D01*
X67321702Y-59963694D02*
X67559797Y-60630360D01*
X67797892Y-59963694D02*
X67559797Y-60630360D01*
X67464559Y-60868456D01*
X67416940Y-60916075D01*
X67321702Y-60963694D01*
D11*
X63931225Y-63158932D02*
X63931225Y-62758932D01*
X64026464Y-62758932D01*
X64083606Y-62777980D01*
X64121702Y-62816075D01*
X64140749Y-62854170D01*
X64159797Y-62930360D01*
X64159797Y-62987503D01*
X64140749Y-63063694D01*
X64121702Y-63101789D01*
X64083606Y-63139884D01*
X64026464Y-63158932D01*
X63931225Y-63158932D01*
X64388368Y-62930360D02*
X64350273Y-62911313D01*
X64331225Y-62892265D01*
X64312178Y-62854170D01*
X64312178Y-62835122D01*
X64331225Y-62797027D01*
X64350273Y-62777980D01*
X64388368Y-62758932D01*
X64464559Y-62758932D01*
X64502654Y-62777980D01*
X64521702Y-62797027D01*
X64540749Y-62835122D01*
X64540749Y-62854170D01*
X64521702Y-62892265D01*
X64502654Y-62911313D01*
X64464559Y-62930360D01*
X64388368Y-62930360D01*
X64350273Y-62949408D01*
X64331225Y-62968456D01*
X64312178Y-63006551D01*
X64312178Y-63082741D01*
X64331225Y-63120837D01*
X64350273Y-63139884D01*
X64388368Y-63158932D01*
X64464559Y-63158932D01*
X64502654Y-63139884D01*
X64521702Y-63120837D01*
X64540749Y-63082741D01*
X64540749Y-63006551D01*
X64521702Y-62968456D01*
X64502654Y-62949408D01*
X64464559Y-62930360D01*
G04 #@! TO.C,D9*
D10*
X62897619Y-70602380D02*
X62897619Y-69602380D01*
X63135714Y-69602380D01*
X63278571Y-69650000D01*
X63373809Y-69745238D01*
X63421428Y-69840476D01*
X63469047Y-70030952D01*
X63469047Y-70173809D01*
X63421428Y-70364285D01*
X63373809Y-70459523D01*
X63278571Y-70554761D01*
X63135714Y-70602380D01*
X62897619Y-70602380D01*
X63659523Y-70697619D02*
X64421428Y-70697619D01*
X64992857Y-70078571D02*
X65135714Y-70126190D01*
X65183333Y-70173809D01*
X65230952Y-70269047D01*
X65230952Y-70411904D01*
X65183333Y-70507142D01*
X65135714Y-70554761D01*
X65040476Y-70602380D01*
X64659523Y-70602380D01*
X64659523Y-69602380D01*
X64992857Y-69602380D01*
X65088095Y-69650000D01*
X65135714Y-69697619D01*
X65183333Y-69792857D01*
X65183333Y-69888095D01*
X65135714Y-69983333D01*
X65088095Y-70030952D01*
X64992857Y-70078571D01*
X64659523Y-70078571D01*
X66135714Y-69602380D02*
X65659523Y-69602380D01*
X65611904Y-70078571D01*
X65659523Y-70030952D01*
X65754761Y-69983333D01*
X65992857Y-69983333D01*
X66088095Y-70030952D01*
X66135714Y-70078571D01*
X66183333Y-70173809D01*
X66183333Y-70411904D01*
X66135714Y-70507142D01*
X66088095Y-70554761D01*
X65992857Y-70602380D01*
X65754761Y-70602380D01*
X65659523Y-70554761D01*
X65611904Y-70507142D01*
X66754761Y-70030952D02*
X66659523Y-69983333D01*
X66611904Y-69935714D01*
X66564285Y-69840476D01*
X66564285Y-69792857D01*
X66611904Y-69697619D01*
X66659523Y-69650000D01*
X66754761Y-69602380D01*
X66945238Y-69602380D01*
X67040476Y-69650000D01*
X67088095Y-69697619D01*
X67135714Y-69792857D01*
X67135714Y-69840476D01*
X67088095Y-69935714D01*
X67040476Y-69983333D01*
X66945238Y-70030952D01*
X66754761Y-70030952D01*
X66659523Y-70078571D01*
X66611904Y-70126190D01*
X66564285Y-70221428D01*
X66564285Y-70411904D01*
X66611904Y-70507142D01*
X66659523Y-70554761D01*
X66754761Y-70602380D01*
X66945238Y-70602380D01*
X67040476Y-70554761D01*
X67088095Y-70507142D01*
X67135714Y-70411904D01*
X67135714Y-70221428D01*
X67088095Y-70126190D01*
X67040476Y-70078571D01*
X66945238Y-70030952D01*
X68088095Y-70602380D02*
X67516666Y-70602380D01*
X67802380Y-70602380D02*
X67802380Y-69602380D01*
X67707142Y-69745238D01*
X67611904Y-69840476D01*
X67516666Y-69888095D01*
X68659523Y-70030952D02*
X68564285Y-69983333D01*
X68516666Y-69935714D01*
X68469047Y-69840476D01*
X68469047Y-69792857D01*
X68516666Y-69697619D01*
X68564285Y-69650000D01*
X68659523Y-69602380D01*
X68850000Y-69602380D01*
X68945238Y-69650000D01*
X68992857Y-69697619D01*
X69040476Y-69792857D01*
X69040476Y-69840476D01*
X68992857Y-69935714D01*
X68945238Y-69983333D01*
X68850000Y-70030952D01*
X68659523Y-70030952D01*
X68564285Y-70078571D01*
X68516666Y-70126190D01*
X68469047Y-70221428D01*
X68469047Y-70411904D01*
X68516666Y-70507142D01*
X68564285Y-70554761D01*
X68659523Y-70602380D01*
X68850000Y-70602380D01*
X68945238Y-70554761D01*
X68992857Y-70507142D01*
X69040476Y-70411904D01*
X69040476Y-70221428D01*
X68992857Y-70126190D01*
X68945238Y-70078571D01*
X68850000Y-70030952D01*
X69373809Y-69602380D02*
X69611904Y-70602380D01*
X69802380Y-69888095D01*
X69992857Y-70602380D01*
X70230952Y-69602380D01*
X70564285Y-70554761D02*
X70707142Y-70602380D01*
X70945238Y-70602380D01*
X71040476Y-70554761D01*
X71088095Y-70507142D01*
X71135714Y-70411904D01*
X71135714Y-70316666D01*
X71088095Y-70221428D01*
X71040476Y-70173809D01*
X70945238Y-70126190D01*
X70754761Y-70078571D01*
X70659523Y-70030952D01*
X70611904Y-69983333D01*
X70564285Y-69888095D01*
X70564285Y-69792857D01*
X70611904Y-69697619D01*
X70659523Y-69650000D01*
X70754761Y-69602380D01*
X70992857Y-69602380D01*
X71135714Y-69650000D01*
X72278571Y-70554761D02*
X72421428Y-70602380D01*
X72659523Y-70602380D01*
X72754761Y-70554761D01*
X72802380Y-70507142D01*
X72850000Y-70411904D01*
X72850000Y-70316666D01*
X72802380Y-70221428D01*
X72754761Y-70173809D01*
X72659523Y-70126190D01*
X72469047Y-70078571D01*
X72373809Y-70030952D01*
X72326190Y-69983333D01*
X72278571Y-69888095D01*
X72278571Y-69792857D01*
X72326190Y-69697619D01*
X72373809Y-69650000D01*
X72469047Y-69602380D01*
X72707142Y-69602380D01*
X72850000Y-69650000D01*
X73278571Y-70602380D02*
X73278571Y-69602380D01*
X73850000Y-70602380D02*
X73421428Y-70030952D01*
X73850000Y-69602380D02*
X73278571Y-70173809D01*
X67511904Y-66852380D02*
X67511904Y-65852380D01*
X67750000Y-65852380D01*
X67892857Y-65900000D01*
X67988095Y-65995238D01*
X68035714Y-66090476D01*
X68083333Y-66280952D01*
X68083333Y-66423809D01*
X68035714Y-66614285D01*
X67988095Y-66709523D01*
X67892857Y-66804761D01*
X67750000Y-66852380D01*
X67511904Y-66852380D01*
X68559523Y-66852380D02*
X68750000Y-66852380D01*
X68845238Y-66804761D01*
X68892857Y-66757142D01*
X68988095Y-66614285D01*
X69035714Y-66423809D01*
X69035714Y-66042857D01*
X68988095Y-65947619D01*
X68940476Y-65900000D01*
X68845238Y-65852380D01*
X68654761Y-65852380D01*
X68559523Y-65900000D01*
X68511904Y-65947619D01*
X68464285Y-66042857D01*
X68464285Y-66280952D01*
X68511904Y-66376190D01*
X68559523Y-66423809D01*
X68654761Y-66471428D01*
X68845238Y-66471428D01*
X68940476Y-66423809D01*
X68988095Y-66376190D01*
X69035714Y-66280952D01*
G04 #@! TO.C,D10*
X58897619Y-68102380D02*
X58897619Y-67102380D01*
X59135714Y-67102380D01*
X59278571Y-67150000D01*
X59373809Y-67245238D01*
X59421428Y-67340476D01*
X59469047Y-67530952D01*
X59469047Y-67673809D01*
X59421428Y-67864285D01*
X59373809Y-67959523D01*
X59278571Y-68054761D01*
X59135714Y-68102380D01*
X58897619Y-68102380D01*
X59659523Y-68197619D02*
X60421428Y-68197619D01*
X60992857Y-67578571D02*
X61135714Y-67626190D01*
X61183333Y-67673809D01*
X61230952Y-67769047D01*
X61230952Y-67911904D01*
X61183333Y-68007142D01*
X61135714Y-68054761D01*
X61040476Y-68102380D01*
X60659523Y-68102380D01*
X60659523Y-67102380D01*
X60992857Y-67102380D01*
X61088095Y-67150000D01*
X61135714Y-67197619D01*
X61183333Y-67292857D01*
X61183333Y-67388095D01*
X61135714Y-67483333D01*
X61088095Y-67530952D01*
X60992857Y-67578571D01*
X60659523Y-67578571D01*
X62135714Y-67102380D02*
X61659523Y-67102380D01*
X61611904Y-67578571D01*
X61659523Y-67530952D01*
X61754761Y-67483333D01*
X61992857Y-67483333D01*
X62088095Y-67530952D01*
X62135714Y-67578571D01*
X62183333Y-67673809D01*
X62183333Y-67911904D01*
X62135714Y-68007142D01*
X62088095Y-68054761D01*
X61992857Y-68102380D01*
X61754761Y-68102380D01*
X61659523Y-68054761D01*
X61611904Y-68007142D01*
X62754761Y-67530952D02*
X62659523Y-67483333D01*
X62611904Y-67435714D01*
X62564285Y-67340476D01*
X62564285Y-67292857D01*
X62611904Y-67197619D01*
X62659523Y-67150000D01*
X62754761Y-67102380D01*
X62945238Y-67102380D01*
X63040476Y-67150000D01*
X63088095Y-67197619D01*
X63135714Y-67292857D01*
X63135714Y-67340476D01*
X63088095Y-67435714D01*
X63040476Y-67483333D01*
X62945238Y-67530952D01*
X62754761Y-67530952D01*
X62659523Y-67578571D01*
X62611904Y-67626190D01*
X62564285Y-67721428D01*
X62564285Y-67911904D01*
X62611904Y-68007142D01*
X62659523Y-68054761D01*
X62754761Y-68102380D01*
X62945238Y-68102380D01*
X63040476Y-68054761D01*
X63088095Y-68007142D01*
X63135714Y-67911904D01*
X63135714Y-67721428D01*
X63088095Y-67626190D01*
X63040476Y-67578571D01*
X62945238Y-67530952D01*
X64088095Y-68102380D02*
X63516666Y-68102380D01*
X63802380Y-68102380D02*
X63802380Y-67102380D01*
X63707142Y-67245238D01*
X63611904Y-67340476D01*
X63516666Y-67388095D01*
X64659523Y-67530952D02*
X64564285Y-67483333D01*
X64516666Y-67435714D01*
X64469047Y-67340476D01*
X64469047Y-67292857D01*
X64516666Y-67197619D01*
X64564285Y-67150000D01*
X64659523Y-67102380D01*
X64850000Y-67102380D01*
X64945238Y-67150000D01*
X64992857Y-67197619D01*
X65040476Y-67292857D01*
X65040476Y-67340476D01*
X64992857Y-67435714D01*
X64945238Y-67483333D01*
X64850000Y-67530952D01*
X64659523Y-67530952D01*
X64564285Y-67578571D01*
X64516666Y-67626190D01*
X64469047Y-67721428D01*
X64469047Y-67911904D01*
X64516666Y-68007142D01*
X64564285Y-68054761D01*
X64659523Y-68102380D01*
X64850000Y-68102380D01*
X64945238Y-68054761D01*
X64992857Y-68007142D01*
X65040476Y-67911904D01*
X65040476Y-67721428D01*
X64992857Y-67626190D01*
X64945238Y-67578571D01*
X64850000Y-67530952D01*
X65373809Y-67102380D02*
X65611904Y-68102380D01*
X65802380Y-67388095D01*
X65992857Y-68102380D01*
X66230952Y-67102380D01*
X66564285Y-68054761D02*
X66707142Y-68102380D01*
X66945238Y-68102380D01*
X67040476Y-68054761D01*
X67088095Y-68007142D01*
X67135714Y-67911904D01*
X67135714Y-67816666D01*
X67088095Y-67721428D01*
X67040476Y-67673809D01*
X66945238Y-67626190D01*
X66754761Y-67578571D01*
X66659523Y-67530952D01*
X66611904Y-67483333D01*
X66564285Y-67388095D01*
X66564285Y-67292857D01*
X66611904Y-67197619D01*
X66659523Y-67150000D01*
X66754761Y-67102380D01*
X66992857Y-67102380D01*
X67135714Y-67150000D01*
X68278571Y-68054761D02*
X68421428Y-68102380D01*
X68659523Y-68102380D01*
X68754761Y-68054761D01*
X68802380Y-68007142D01*
X68850000Y-67911904D01*
X68850000Y-67816666D01*
X68802380Y-67721428D01*
X68754761Y-67673809D01*
X68659523Y-67626190D01*
X68469047Y-67578571D01*
X68373809Y-67530952D01*
X68326190Y-67483333D01*
X68278571Y-67388095D01*
X68278571Y-67292857D01*
X68326190Y-67197619D01*
X68373809Y-67150000D01*
X68469047Y-67102380D01*
X68707142Y-67102380D01*
X68850000Y-67150000D01*
X69278571Y-68102380D02*
X69278571Y-67102380D01*
X69850000Y-68102380D02*
X69421428Y-67530952D01*
X69850000Y-67102380D02*
X69278571Y-67673809D01*
X63035714Y-64352380D02*
X63035714Y-63352380D01*
X63273809Y-63352380D01*
X63416666Y-63400000D01*
X63511904Y-63495238D01*
X63559523Y-63590476D01*
X63607142Y-63780952D01*
X63607142Y-63923809D01*
X63559523Y-64114285D01*
X63511904Y-64209523D01*
X63416666Y-64304761D01*
X63273809Y-64352380D01*
X63035714Y-64352380D01*
X64559523Y-64352380D02*
X63988095Y-64352380D01*
X64273809Y-64352380D02*
X64273809Y-63352380D01*
X64178571Y-63495238D01*
X64083333Y-63590476D01*
X63988095Y-63638095D01*
X65178571Y-63352380D02*
X65273809Y-63352380D01*
X65369047Y-63400000D01*
X65416666Y-63447619D01*
X65464285Y-63542857D01*
X65511904Y-63733333D01*
X65511904Y-63971428D01*
X65464285Y-64161904D01*
X65416666Y-64257142D01*
X65369047Y-64304761D01*
X65273809Y-64352380D01*
X65178571Y-64352380D01*
X65083333Y-64304761D01*
X65035714Y-64257142D01*
X64988095Y-64161904D01*
X64940476Y-63971428D01*
X64940476Y-63733333D01*
X64988095Y-63542857D01*
X65035714Y-63447619D01*
X65083333Y-63400000D01*
X65178571Y-63352380D01*
G04 #@! TO.C,D11*
X70102380Y-70627380D02*
X69102380Y-70627380D01*
X69102380Y-70389285D01*
X69150000Y-70246428D01*
X69245238Y-70151190D01*
X69340476Y-70103571D01*
X69530952Y-70055952D01*
X69673809Y-70055952D01*
X69864285Y-70103571D01*
X69959523Y-70151190D01*
X70054761Y-70246428D01*
X70102380Y-70389285D01*
X70102380Y-70627380D01*
X70197619Y-69865476D02*
X70197619Y-69103571D01*
X69578571Y-68532142D02*
X69626190Y-68389285D01*
X69673809Y-68341666D01*
X69769047Y-68294047D01*
X69911904Y-68294047D01*
X70007142Y-68341666D01*
X70054761Y-68389285D01*
X70102380Y-68484523D01*
X70102380Y-68865476D01*
X69102380Y-68865476D01*
X69102380Y-68532142D01*
X69150000Y-68436904D01*
X69197619Y-68389285D01*
X69292857Y-68341666D01*
X69388095Y-68341666D01*
X69483333Y-68389285D01*
X69530952Y-68436904D01*
X69578571Y-68532142D01*
X69578571Y-68865476D01*
X69102380Y-67389285D02*
X69102380Y-67865476D01*
X69578571Y-67913095D01*
X69530952Y-67865476D01*
X69483333Y-67770238D01*
X69483333Y-67532142D01*
X69530952Y-67436904D01*
X69578571Y-67389285D01*
X69673809Y-67341666D01*
X69911904Y-67341666D01*
X70007142Y-67389285D01*
X70054761Y-67436904D01*
X70102380Y-67532142D01*
X70102380Y-67770238D01*
X70054761Y-67865476D01*
X70007142Y-67913095D01*
X69530952Y-66770238D02*
X69483333Y-66865476D01*
X69435714Y-66913095D01*
X69340476Y-66960714D01*
X69292857Y-66960714D01*
X69197619Y-66913095D01*
X69150000Y-66865476D01*
X69102380Y-66770238D01*
X69102380Y-66579761D01*
X69150000Y-66484523D01*
X69197619Y-66436904D01*
X69292857Y-66389285D01*
X69340476Y-66389285D01*
X69435714Y-66436904D01*
X69483333Y-66484523D01*
X69530952Y-66579761D01*
X69530952Y-66770238D01*
X69578571Y-66865476D01*
X69626190Y-66913095D01*
X69721428Y-66960714D01*
X69911904Y-66960714D01*
X70007142Y-66913095D01*
X70054761Y-66865476D01*
X70102380Y-66770238D01*
X70102380Y-66579761D01*
X70054761Y-66484523D01*
X70007142Y-66436904D01*
X69911904Y-66389285D01*
X69721428Y-66389285D01*
X69626190Y-66436904D01*
X69578571Y-66484523D01*
X69530952Y-66579761D01*
X70102380Y-65436904D02*
X70102380Y-66008333D01*
X70102380Y-65722619D02*
X69102380Y-65722619D01*
X69245238Y-65817857D01*
X69340476Y-65913095D01*
X69388095Y-66008333D01*
X69530952Y-64865476D02*
X69483333Y-64960714D01*
X69435714Y-65008333D01*
X69340476Y-65055952D01*
X69292857Y-65055952D01*
X69197619Y-65008333D01*
X69150000Y-64960714D01*
X69102380Y-64865476D01*
X69102380Y-64675000D01*
X69150000Y-64579761D01*
X69197619Y-64532142D01*
X69292857Y-64484523D01*
X69340476Y-64484523D01*
X69435714Y-64532142D01*
X69483333Y-64579761D01*
X69530952Y-64675000D01*
X69530952Y-64865476D01*
X69578571Y-64960714D01*
X69626190Y-65008333D01*
X69721428Y-65055952D01*
X69911904Y-65055952D01*
X70007142Y-65008333D01*
X70054761Y-64960714D01*
X70102380Y-64865476D01*
X70102380Y-64675000D01*
X70054761Y-64579761D01*
X70007142Y-64532142D01*
X69911904Y-64484523D01*
X69721428Y-64484523D01*
X69626190Y-64532142D01*
X69578571Y-64579761D01*
X69530952Y-64675000D01*
X69102380Y-64151190D02*
X70102380Y-63913095D01*
X69388095Y-63722619D01*
X70102380Y-63532142D01*
X69102380Y-63294047D01*
X70054761Y-62960714D02*
X70102380Y-62817857D01*
X70102380Y-62579761D01*
X70054761Y-62484523D01*
X70007142Y-62436904D01*
X69911904Y-62389285D01*
X69816666Y-62389285D01*
X69721428Y-62436904D01*
X69673809Y-62484523D01*
X69626190Y-62579761D01*
X69578571Y-62770238D01*
X69530952Y-62865476D01*
X69483333Y-62913095D01*
X69388095Y-62960714D01*
X69292857Y-62960714D01*
X69197619Y-62913095D01*
X69150000Y-62865476D01*
X69102380Y-62770238D01*
X69102380Y-62532142D01*
X69150000Y-62389285D01*
X70054761Y-61246428D02*
X70102380Y-61103571D01*
X70102380Y-60865476D01*
X70054761Y-60770238D01*
X70007142Y-60722619D01*
X69911904Y-60675000D01*
X69816666Y-60675000D01*
X69721428Y-60722619D01*
X69673809Y-60770238D01*
X69626190Y-60865476D01*
X69578571Y-61055952D01*
X69530952Y-61151190D01*
X69483333Y-61198809D01*
X69388095Y-61246428D01*
X69292857Y-61246428D01*
X69197619Y-61198809D01*
X69150000Y-61151190D01*
X69102380Y-61055952D01*
X69102380Y-60817857D01*
X69150000Y-60675000D01*
X70102380Y-60246428D02*
X69102380Y-60246428D01*
X70102380Y-59675000D02*
X69530952Y-60103571D01*
X69102380Y-59675000D02*
X69673809Y-60246428D01*
X66352380Y-66489285D02*
X65352380Y-66489285D01*
X65352380Y-66251190D01*
X65400000Y-66108333D01*
X65495238Y-66013095D01*
X65590476Y-65965476D01*
X65780952Y-65917857D01*
X65923809Y-65917857D01*
X66114285Y-65965476D01*
X66209523Y-66013095D01*
X66304761Y-66108333D01*
X66352380Y-66251190D01*
X66352380Y-66489285D01*
X66352380Y-64965476D02*
X66352380Y-65536904D01*
X66352380Y-65251190D02*
X65352380Y-65251190D01*
X65495238Y-65346428D01*
X65590476Y-65441666D01*
X65638095Y-65536904D01*
X66352380Y-64013095D02*
X66352380Y-64584523D01*
X66352380Y-64298809D02*
X65352380Y-64298809D01*
X65495238Y-64394047D01*
X65590476Y-64489285D01*
X65638095Y-64584523D01*
G04 #@! TO.C,IC2*
X75309523Y-60702380D02*
X75880952Y-60702380D01*
X75595238Y-61702380D02*
X75595238Y-60702380D01*
X76214285Y-61702380D02*
X76214285Y-60702380D01*
X76595238Y-60702380D01*
X76690476Y-60750000D01*
X76738095Y-60797619D01*
X76785714Y-60892857D01*
X76785714Y-61035714D01*
X76738095Y-61130952D01*
X76690476Y-61178571D01*
X76595238Y-61226190D01*
X76214285Y-61226190D01*
X77642857Y-61035714D02*
X77642857Y-61702380D01*
X77404761Y-60654761D02*
X77166666Y-61369047D01*
X77785714Y-61369047D01*
X78357142Y-60702380D02*
X78452380Y-60702380D01*
X78547619Y-60750000D01*
X78595238Y-60797619D01*
X78642857Y-60892857D01*
X78690476Y-61083333D01*
X78690476Y-61321428D01*
X78642857Y-61511904D01*
X78595238Y-61607142D01*
X78547619Y-61654761D01*
X78452380Y-61702380D01*
X78357142Y-61702380D01*
X78261904Y-61654761D01*
X78214285Y-61607142D01*
X78166666Y-61511904D01*
X78119047Y-61321428D01*
X78119047Y-61083333D01*
X78166666Y-60892857D01*
X78214285Y-60797619D01*
X78261904Y-60750000D01*
X78357142Y-60702380D01*
X79595238Y-60702380D02*
X79119047Y-60702380D01*
X79071428Y-61178571D01*
X79119047Y-61130952D01*
X79214285Y-61083333D01*
X79452380Y-61083333D01*
X79547619Y-61130952D01*
X79595238Y-61178571D01*
X79642857Y-61273809D01*
X79642857Y-61511904D01*
X79595238Y-61607142D01*
X79547619Y-61654761D01*
X79452380Y-61702380D01*
X79214285Y-61702380D01*
X79119047Y-61654761D01*
X79071428Y-61607142D01*
X80500000Y-60702380D02*
X80309523Y-60702380D01*
X80214285Y-60750000D01*
X80166666Y-60797619D01*
X80071428Y-60940476D01*
X80023809Y-61130952D01*
X80023809Y-61511904D01*
X80071428Y-61607142D01*
X80119047Y-61654761D01*
X80214285Y-61702380D01*
X80404761Y-61702380D01*
X80500000Y-61654761D01*
X80547619Y-61607142D01*
X80595238Y-61511904D01*
X80595238Y-61273809D01*
X80547619Y-61178571D01*
X80500000Y-61130952D01*
X80404761Y-61083333D01*
X80214285Y-61083333D01*
X80119047Y-61130952D01*
X80071428Y-61178571D01*
X80023809Y-61273809D01*
D16*
X77121428Y-65157142D02*
X77121428Y-64257142D01*
X78064285Y-65071428D02*
X78021428Y-65114285D01*
X77892857Y-65157142D01*
X77807142Y-65157142D01*
X77678571Y-65114285D01*
X77592857Y-65028571D01*
X77550000Y-64942857D01*
X77507142Y-64771428D01*
X77507142Y-64642857D01*
X77550000Y-64471428D01*
X77592857Y-64385714D01*
X77678571Y-64300000D01*
X77807142Y-64257142D01*
X77892857Y-64257142D01*
X78021428Y-64300000D01*
X78064285Y-64342857D01*
X78407142Y-64342857D02*
X78450000Y-64300000D01*
X78535714Y-64257142D01*
X78750000Y-64257142D01*
X78835714Y-64300000D01*
X78878571Y-64342857D01*
X78921428Y-64428571D01*
X78921428Y-64514285D01*
X78878571Y-64642857D01*
X78364285Y-65157142D01*
X78921428Y-65157142D01*
G04 #@! TO.C,J2*
D10*
X137785714Y-58802000D02*
X137690476Y-58754380D01*
X137547619Y-58754380D01*
X137404761Y-58802000D01*
X137309523Y-58897238D01*
X137261904Y-58992476D01*
X137214285Y-59182952D01*
X137214285Y-59325809D01*
X137261904Y-59516285D01*
X137309523Y-59611523D01*
X137404761Y-59706761D01*
X137547619Y-59754380D01*
X137642857Y-59754380D01*
X137785714Y-59706761D01*
X137833333Y-59659142D01*
X137833333Y-59325809D01*
X137642857Y-59325809D01*
X138261904Y-59754380D02*
X138261904Y-58754380D01*
X138642857Y-58754380D01*
X138738095Y-58802000D01*
X138785714Y-58849619D01*
X138833333Y-58944857D01*
X138833333Y-59087714D01*
X138785714Y-59182952D01*
X138738095Y-59230571D01*
X138642857Y-59278190D01*
X138261904Y-59278190D01*
X139214285Y-59706761D02*
X139357142Y-59754380D01*
X139595238Y-59754380D01*
X139690476Y-59706761D01*
X139738095Y-59659142D01*
X139785714Y-59563904D01*
X139785714Y-59468666D01*
X139738095Y-59373428D01*
X139690476Y-59325809D01*
X139595238Y-59278190D01*
X139404761Y-59230571D01*
X139309523Y-59182952D01*
X139261904Y-59135333D01*
X139214285Y-59040095D01*
X139214285Y-58944857D01*
X139261904Y-58849619D01*
X139309523Y-58802000D01*
X139404761Y-58754380D01*
X139642857Y-58754380D01*
X139785714Y-58802000D01*
G04 #@! TO.C,J4*
X129786666Y-69845238D02*
X129786666Y-69369047D01*
X130072380Y-69940476D02*
X129072380Y-69607142D01*
X130072380Y-69273809D01*
X129072380Y-69083333D02*
X130072380Y-68750000D01*
X129072380Y-68416666D01*
X130072380Y-67511904D02*
X129596190Y-67845238D01*
X130072380Y-68083333D02*
X129072380Y-68083333D01*
X129072380Y-67702380D01*
X129120000Y-67607142D01*
X129167619Y-67559523D01*
X129262857Y-67511904D01*
X129405714Y-67511904D01*
X129500952Y-67559523D01*
X129548571Y-67607142D01*
X129596190Y-67702380D01*
X129596190Y-68083333D01*
X129691428Y-67083333D02*
X129691428Y-66321428D01*
X130072380Y-65845238D02*
X129072380Y-65845238D01*
X130024761Y-65416666D02*
X130072380Y-65273809D01*
X130072380Y-65035714D01*
X130024761Y-64940476D01*
X129977142Y-64892857D01*
X129881904Y-64845238D01*
X129786666Y-64845238D01*
X129691428Y-64892857D01*
X129643809Y-64940476D01*
X129596190Y-65035714D01*
X129548571Y-65226190D01*
X129500952Y-65321428D01*
X129453333Y-65369047D01*
X129358095Y-65416666D01*
X129262857Y-65416666D01*
X129167619Y-65369047D01*
X129120000Y-65321428D01*
X129072380Y-65226190D01*
X129072380Y-64988095D01*
X129120000Y-64845238D01*
X130072380Y-64416666D02*
X129072380Y-64416666D01*
X129072380Y-64035714D01*
X129120000Y-63940476D01*
X129167619Y-63892857D01*
X129262857Y-63845238D01*
X129405714Y-63845238D01*
X129500952Y-63892857D01*
X129548571Y-63940476D01*
X129596190Y-64035714D01*
X129596190Y-64416666D01*
X129691428Y-63416666D02*
X129691428Y-62654761D01*
X129072380Y-61750000D02*
X129072380Y-61940476D01*
X129120000Y-62035714D01*
X129167619Y-62083333D01*
X129310476Y-62178571D01*
X129500952Y-62226190D01*
X129881904Y-62226190D01*
X129977142Y-62178571D01*
X130024761Y-62130952D01*
X130072380Y-62035714D01*
X130072380Y-61845238D01*
X130024761Y-61750000D01*
X129977142Y-61702380D01*
X129881904Y-61654761D01*
X129643809Y-61654761D01*
X129548571Y-61702380D01*
X129500952Y-61750000D01*
X129453333Y-61845238D01*
X129453333Y-62035714D01*
X129500952Y-62130952D01*
X129548571Y-62178571D01*
X129643809Y-62226190D01*
X119332380Y-66083333D02*
X120046666Y-66083333D01*
X120189523Y-66130952D01*
X120284761Y-66226190D01*
X120332380Y-66369047D01*
X120332380Y-66464285D01*
X119665714Y-65178571D02*
X120332380Y-65178571D01*
X119284761Y-65416666D02*
X119999047Y-65654761D01*
X119999047Y-65035714D01*
G04 #@! TO.C,L1*
X137152380Y-53619047D02*
X137152380Y-54095238D01*
X136152380Y-54095238D01*
X136247619Y-53333333D02*
X136200000Y-53285714D01*
X136152380Y-53190476D01*
X136152380Y-52952380D01*
X136200000Y-52857142D01*
X136247619Y-52809523D01*
X136342857Y-52761904D01*
X136438095Y-52761904D01*
X136580952Y-52809523D01*
X137152380Y-53380952D01*
X137152380Y-52761904D01*
X136152380Y-52428571D02*
X136152380Y-51761904D01*
X137152380Y-52190476D01*
X136485714Y-51380952D02*
X137152380Y-51380952D01*
X136580952Y-51380952D02*
X136533333Y-51333333D01*
X136485714Y-51238095D01*
X136485714Y-51095238D01*
X136533333Y-51000000D01*
X136628571Y-50952380D01*
X137152380Y-50952380D01*
X137152380Y-50476190D02*
X136152380Y-50476190D01*
X136628571Y-50476190D02*
X136628571Y-49904761D01*
X137152380Y-49904761D02*
X136152380Y-49904761D01*
D17*
X138590476Y-52033333D02*
X138590476Y-52128571D01*
X138390476Y-52128571D01*
X138590476Y-51861904D02*
X138590476Y-51976190D01*
X138590476Y-51919047D02*
X138390476Y-51919047D01*
X138419047Y-51938095D01*
X138438095Y-51957142D01*
X138447619Y-51976190D01*
G04 #@! TO.C,L2*
D10*
X87392857Y-71402380D02*
X86916666Y-71402380D01*
X86916666Y-70402380D01*
X87678571Y-70497619D02*
X87726190Y-70450000D01*
X87821428Y-70402380D01*
X88059523Y-70402380D01*
X88154761Y-70450000D01*
X88202380Y-70497619D01*
X88250000Y-70592857D01*
X88250000Y-70688095D01*
X88202380Y-70830952D01*
X87630952Y-71402380D01*
X88250000Y-71402380D01*
X88678571Y-71307142D02*
X88726190Y-71354761D01*
X88678571Y-71402380D01*
X88630952Y-71354761D01*
X88678571Y-71307142D01*
X88678571Y-71402380D01*
X89107142Y-70497619D02*
X89154761Y-70450000D01*
X89250000Y-70402380D01*
X89488095Y-70402380D01*
X89583333Y-70450000D01*
X89630952Y-70497619D01*
X89678571Y-70592857D01*
X89678571Y-70688095D01*
X89630952Y-70830952D01*
X89059523Y-71402380D01*
X89678571Y-71402380D01*
X90535714Y-70735714D02*
X90535714Y-71402380D01*
X90107142Y-70735714D02*
X90107142Y-71259523D01*
X90154761Y-71354761D01*
X90250000Y-71402380D01*
X90392857Y-71402380D01*
X90488095Y-71354761D01*
X90535714Y-71307142D01*
X91011904Y-71402380D02*
X91011904Y-70402380D01*
X91011904Y-70878571D02*
X91583333Y-70878571D01*
X91583333Y-71402380D02*
X91583333Y-70402380D01*
D15*
X89166666Y-68476190D02*
X88928571Y-68476190D01*
X88928571Y-67976190D01*
X89309523Y-68023809D02*
X89333333Y-68000000D01*
X89380952Y-67976190D01*
X89500000Y-67976190D01*
X89547619Y-68000000D01*
X89571428Y-68023809D01*
X89595238Y-68071428D01*
X89595238Y-68119047D01*
X89571428Y-68190476D01*
X89285714Y-68476190D01*
X89595238Y-68476190D01*
G04 #@! TO.C,Q1*
D10*
X129047619Y-68714285D02*
X129000000Y-68666666D01*
X128952380Y-68571428D01*
X128952380Y-68333333D01*
X129000000Y-68238095D01*
X129047619Y-68190476D01*
X129142857Y-68142857D01*
X129238095Y-68142857D01*
X129380952Y-68190476D01*
X129952380Y-68761904D01*
X129952380Y-68142857D01*
X129952380Y-67714285D02*
X128952380Y-67714285D01*
X129952380Y-67142857D01*
X128952380Y-67142857D01*
X128952380Y-66761904D02*
X128952380Y-66142857D01*
X129333333Y-66476190D01*
X129333333Y-66333333D01*
X129380952Y-66238095D01*
X129428571Y-66190476D01*
X129523809Y-66142857D01*
X129761904Y-66142857D01*
X129857142Y-66190476D01*
X129904761Y-66238095D01*
X129952380Y-66333333D01*
X129952380Y-66619047D01*
X129904761Y-66714285D01*
X129857142Y-66761904D01*
X129952380Y-65666666D02*
X129952380Y-65476190D01*
X129904761Y-65380952D01*
X129857142Y-65333333D01*
X129714285Y-65238095D01*
X129523809Y-65190476D01*
X129142857Y-65190476D01*
X129047619Y-65238095D01*
X129000000Y-65285714D01*
X128952380Y-65380952D01*
X128952380Y-65571428D01*
X129000000Y-65666666D01*
X129047619Y-65714285D01*
X129142857Y-65761904D01*
X129380952Y-65761904D01*
X129476190Y-65714285D01*
X129523809Y-65666666D01*
X129571428Y-65571428D01*
X129571428Y-65380952D01*
X129523809Y-65285714D01*
X129476190Y-65238095D01*
X129380952Y-65190476D01*
X128952380Y-64571428D02*
X128952380Y-64476190D01*
X129000000Y-64380952D01*
X129047619Y-64333333D01*
X129142857Y-64285714D01*
X129333333Y-64238095D01*
X129571428Y-64238095D01*
X129761904Y-64285714D01*
X129857142Y-64333333D01*
X129904761Y-64380952D01*
X129952380Y-64476190D01*
X129952380Y-64571428D01*
X129904761Y-64666666D01*
X129857142Y-64714285D01*
X129761904Y-64761904D01*
X129571428Y-64809523D01*
X129333333Y-64809523D01*
X129142857Y-64761904D01*
X129047619Y-64714285D01*
X129000000Y-64666666D01*
X128952380Y-64571428D01*
X129285714Y-63380952D02*
X129952380Y-63380952D01*
X128904761Y-63619047D02*
X129619047Y-63857142D01*
X129619047Y-63238095D01*
D15*
X131952380Y-66273809D02*
X131904761Y-66250000D01*
X131857142Y-66202380D01*
X131785714Y-66130952D01*
X131738095Y-66107142D01*
X131690476Y-66107142D01*
X131714285Y-66226190D02*
X131666666Y-66202380D01*
X131619047Y-66154761D01*
X131595238Y-66059523D01*
X131595238Y-65892857D01*
X131619047Y-65797619D01*
X131666666Y-65750000D01*
X131714285Y-65726190D01*
X131809523Y-65726190D01*
X131857142Y-65750000D01*
X131904761Y-65797619D01*
X131928571Y-65892857D01*
X131928571Y-66059523D01*
X131904761Y-66154761D01*
X131857142Y-66202380D01*
X131809523Y-66226190D01*
X131714285Y-66226190D01*
X132404761Y-66226190D02*
X132119047Y-66226190D01*
X132261904Y-66226190D02*
X132261904Y-65726190D01*
X132214285Y-65797619D01*
X132166666Y-65845238D01*
X132119047Y-65869047D01*
G04 #@! TO.C,Q3*
D10*
X78333333Y-58228571D02*
X78000000Y-58228571D01*
X78000000Y-58752380D02*
X78000000Y-57752380D01*
X78476190Y-57752380D01*
X78809523Y-58704761D02*
X78952380Y-58752380D01*
X79190476Y-58752380D01*
X79285714Y-58704761D01*
X79333333Y-58657142D01*
X79380952Y-58561904D01*
X79380952Y-58466666D01*
X79333333Y-58371428D01*
X79285714Y-58323809D01*
X79190476Y-58276190D01*
X79000000Y-58228571D01*
X78904761Y-58180952D01*
X78857142Y-58133333D01*
X78809523Y-58038095D01*
X78809523Y-57942857D01*
X78857142Y-57847619D01*
X78904761Y-57800000D01*
X79000000Y-57752380D01*
X79238095Y-57752380D01*
X79380952Y-57800000D01*
X79952380Y-58180952D02*
X79857142Y-58133333D01*
X79809523Y-58085714D01*
X79761904Y-57990476D01*
X79761904Y-57942857D01*
X79809523Y-57847619D01*
X79857142Y-57800000D01*
X79952380Y-57752380D01*
X80142857Y-57752380D01*
X80238095Y-57800000D01*
X80285714Y-57847619D01*
X80333333Y-57942857D01*
X80333333Y-57990476D01*
X80285714Y-58085714D01*
X80238095Y-58133333D01*
X80142857Y-58180952D01*
X79952380Y-58180952D01*
X79857142Y-58228571D01*
X79809523Y-58276190D01*
X79761904Y-58371428D01*
X79761904Y-58561904D01*
X79809523Y-58657142D01*
X79857142Y-58704761D01*
X79952380Y-58752380D01*
X80142857Y-58752380D01*
X80238095Y-58704761D01*
X80285714Y-58657142D01*
X80333333Y-58561904D01*
X80333333Y-58371428D01*
X80285714Y-58276190D01*
X80238095Y-58228571D01*
X80142857Y-58180952D01*
X80714285Y-57847619D02*
X80761904Y-57800000D01*
X80857142Y-57752380D01*
X81095238Y-57752380D01*
X81190476Y-57800000D01*
X81238095Y-57847619D01*
X81285714Y-57942857D01*
X81285714Y-58038095D01*
X81238095Y-58180952D01*
X80666666Y-58752380D01*
X81285714Y-58752380D01*
X81904761Y-57752380D02*
X82000000Y-57752380D01*
X82095238Y-57800000D01*
X82142857Y-57847619D01*
X82190476Y-57942857D01*
X82238095Y-58133333D01*
X82238095Y-58371428D01*
X82190476Y-58561904D01*
X82142857Y-58657142D01*
X82095238Y-58704761D01*
X82000000Y-58752380D01*
X81904761Y-58752380D01*
X81809523Y-58704761D01*
X81761904Y-58657142D01*
X81714285Y-58561904D01*
X81666666Y-58371428D01*
X81666666Y-58133333D01*
X81714285Y-57942857D01*
X81761904Y-57847619D01*
X81809523Y-57800000D01*
X81904761Y-57752380D01*
X83142857Y-57752380D02*
X82666666Y-57752380D01*
X82619047Y-58228571D01*
X82666666Y-58180952D01*
X82761904Y-58133333D01*
X83000000Y-58133333D01*
X83095238Y-58180952D01*
X83142857Y-58228571D01*
X83190476Y-58323809D01*
X83190476Y-58561904D01*
X83142857Y-58657142D01*
X83095238Y-58704761D01*
X83000000Y-58752380D01*
X82761904Y-58752380D01*
X82666666Y-58704761D01*
X82619047Y-58657142D01*
X83571428Y-58466666D02*
X84047619Y-58466666D01*
X83476190Y-58752380D02*
X83809523Y-57752380D01*
X84142857Y-58752380D01*
X80933333Y-56133333D02*
X80866666Y-56100000D01*
X80800000Y-56033333D01*
X80700000Y-55933333D01*
X80633333Y-55900000D01*
X80566666Y-55900000D01*
X80600000Y-56066666D02*
X80533333Y-56033333D01*
X80466666Y-55966666D01*
X80433333Y-55833333D01*
X80433333Y-55600000D01*
X80466666Y-55466666D01*
X80533333Y-55400000D01*
X80600000Y-55366666D01*
X80733333Y-55366666D01*
X80800000Y-55400000D01*
X80866666Y-55466666D01*
X80900000Y-55600000D01*
X80900000Y-55833333D01*
X80866666Y-55966666D01*
X80800000Y-56033333D01*
X80733333Y-56066666D01*
X80600000Y-56066666D01*
X81133333Y-55366666D02*
X81566666Y-55366666D01*
X81333333Y-55633333D01*
X81433333Y-55633333D01*
X81500000Y-55666666D01*
X81533333Y-55700000D01*
X81566666Y-55766666D01*
X81566666Y-55933333D01*
X81533333Y-56000000D01*
X81500000Y-56033333D01*
X81433333Y-56066666D01*
X81233333Y-56066666D01*
X81166666Y-56033333D01*
X81133333Y-56000000D01*
G04 #@! TO.C,Q5*
X99575640Y-47002629D02*
X99623259Y-46955010D01*
X99718497Y-46907390D01*
X99956592Y-46907390D01*
X100051830Y-46955010D01*
X100099449Y-47002629D01*
X100147068Y-47097867D01*
X100147068Y-47193105D01*
X100099449Y-47335962D01*
X99528021Y-47907390D01*
X100147068Y-47907390D01*
X100575640Y-47907390D02*
X100575640Y-46907390D01*
X101147068Y-47907390D01*
X101147068Y-46907390D01*
X101528021Y-46907390D02*
X102147068Y-46907390D01*
X101813735Y-47288343D01*
X101956592Y-47288343D01*
X102051830Y-47335962D01*
X102099449Y-47383581D01*
X102147068Y-47478819D01*
X102147068Y-47716914D01*
X102099449Y-47812152D01*
X102051830Y-47859771D01*
X101956592Y-47907390D01*
X101670878Y-47907390D01*
X101575640Y-47859771D01*
X101528021Y-47812152D01*
X102623259Y-47907390D02*
X102813735Y-47907390D01*
X102908973Y-47859771D01*
X102956592Y-47812152D01*
X103051830Y-47669295D01*
X103099449Y-47478819D01*
X103099449Y-47097867D01*
X103051830Y-47002629D01*
X103004211Y-46955010D01*
X102908973Y-46907390D01*
X102718497Y-46907390D01*
X102623259Y-46955010D01*
X102575640Y-47002629D01*
X102528021Y-47097867D01*
X102528021Y-47335962D01*
X102575640Y-47431200D01*
X102623259Y-47478819D01*
X102718497Y-47526438D01*
X102908973Y-47526438D01*
X103004211Y-47478819D01*
X103051830Y-47431200D01*
X103099449Y-47335962D01*
X103718497Y-46907390D02*
X103813735Y-46907390D01*
X103908973Y-46955010D01*
X103956592Y-47002629D01*
X104004211Y-47097867D01*
X104051830Y-47288343D01*
X104051830Y-47526438D01*
X104004211Y-47716914D01*
X103956592Y-47812152D01*
X103908973Y-47859771D01*
X103813735Y-47907390D01*
X103718497Y-47907390D01*
X103623259Y-47859771D01*
X103575640Y-47812152D01*
X103528021Y-47716914D01*
X103480402Y-47526438D01*
X103480402Y-47288343D01*
X103528021Y-47097867D01*
X103575640Y-47002629D01*
X103623259Y-46955010D01*
X103718497Y-46907390D01*
X104908973Y-47240724D02*
X104908973Y-47907390D01*
X104670878Y-46859771D02*
X104432783Y-47574057D01*
X105051830Y-47574057D01*
D15*
X102563735Y-50002629D02*
X102539926Y-50050248D01*
X102492306Y-50097867D01*
X102420878Y-50169295D01*
X102397068Y-50216914D01*
X102397068Y-50264533D01*
X102516116Y-50240724D02*
X102492306Y-50288343D01*
X102444687Y-50335962D01*
X102349449Y-50359771D01*
X102182783Y-50359771D01*
X102087545Y-50335962D01*
X102039926Y-50288343D01*
X102016116Y-50240724D01*
X102016116Y-50145486D01*
X102039926Y-50097867D01*
X102087545Y-50050248D01*
X102182783Y-50026438D01*
X102349449Y-50026438D01*
X102444687Y-50050248D01*
X102492306Y-50097867D01*
X102516116Y-50145486D01*
X102516116Y-50240724D01*
X102016116Y-49574057D02*
X102016116Y-49812152D01*
X102254211Y-49835962D01*
X102230402Y-49812152D01*
X102206592Y-49764533D01*
X102206592Y-49645486D01*
X102230402Y-49597867D01*
X102254211Y-49574057D01*
X102301830Y-49550248D01*
X102420878Y-49550248D01*
X102468497Y-49574057D01*
X102492306Y-49597867D01*
X102516116Y-49645486D01*
X102516116Y-49764533D01*
X102492306Y-49812152D01*
X102468497Y-49835962D01*
G04 #@! TO.C,R1*
D10*
X72452380Y-54916666D02*
X72452380Y-55488095D01*
X72452380Y-55202380D02*
X71452380Y-55202380D01*
X71595238Y-55297619D01*
X71690476Y-55392857D01*
X71738095Y-55488095D01*
X71452380Y-54297619D02*
X71452380Y-54202380D01*
X71500000Y-54107142D01*
X71547619Y-54059523D01*
X71642857Y-54011904D01*
X71833333Y-53964285D01*
X72071428Y-53964285D01*
X72261904Y-54011904D01*
X72357142Y-54059523D01*
X72404761Y-54107142D01*
X72452380Y-54202380D01*
X72452380Y-54297619D01*
X72404761Y-54392857D01*
X72357142Y-54440476D01*
X72261904Y-54488095D01*
X72071428Y-54535714D01*
X71833333Y-54535714D01*
X71642857Y-54488095D01*
X71547619Y-54440476D01*
X71500000Y-54392857D01*
X71452380Y-54297619D01*
X71452380Y-53345238D02*
X71452380Y-53250000D01*
X71500000Y-53154761D01*
X71547619Y-53107142D01*
X71642857Y-53059523D01*
X71833333Y-53011904D01*
X72071428Y-53011904D01*
X72261904Y-53059523D01*
X72357142Y-53107142D01*
X72404761Y-53154761D01*
X72452380Y-53250000D01*
X72452380Y-53345238D01*
X72404761Y-53440476D01*
X72357142Y-53488095D01*
X72261904Y-53535714D01*
X72071428Y-53583333D01*
X71833333Y-53583333D01*
X71642857Y-53535714D01*
X71547619Y-53488095D01*
X71500000Y-53440476D01*
X71452380Y-53345238D01*
D15*
X70680952Y-54316666D02*
X70490476Y-54450000D01*
X70680952Y-54545238D02*
X70280952Y-54545238D01*
X70280952Y-54392857D01*
X70300000Y-54354761D01*
X70319047Y-54335714D01*
X70357142Y-54316666D01*
X70414285Y-54316666D01*
X70452380Y-54335714D01*
X70471428Y-54354761D01*
X70490476Y-54392857D01*
X70490476Y-54545238D01*
X70680952Y-53935714D02*
X70680952Y-54164285D01*
X70680952Y-54050000D02*
X70280952Y-54050000D01*
X70338095Y-54088095D01*
X70376190Y-54126190D01*
X70395238Y-54164285D01*
G04 #@! TO.C,R2*
D10*
X72880952Y-53202380D02*
X72309523Y-53202380D01*
X72595238Y-53202380D02*
X72595238Y-52202380D01*
X72500000Y-52345238D01*
X72404761Y-52440476D01*
X72309523Y-52488095D01*
X73309523Y-53202380D02*
X73309523Y-52202380D01*
X73404761Y-52821428D02*
X73690476Y-53202380D01*
X73690476Y-52535714D02*
X73309523Y-52916666D01*
D15*
X72933333Y-54430952D02*
X72800000Y-54240476D01*
X72704761Y-54430952D02*
X72704761Y-54030952D01*
X72857142Y-54030952D01*
X72895238Y-54050000D01*
X72914285Y-54069047D01*
X72933333Y-54107142D01*
X72933333Y-54164285D01*
X72914285Y-54202380D01*
X72895238Y-54221428D01*
X72857142Y-54240476D01*
X72704761Y-54240476D01*
X73085714Y-54069047D02*
X73104761Y-54050000D01*
X73142857Y-54030952D01*
X73238095Y-54030952D01*
X73276190Y-54050000D01*
X73295238Y-54069047D01*
X73314285Y-54107142D01*
X73314285Y-54145238D01*
X73295238Y-54202380D01*
X73066666Y-54430952D01*
X73314285Y-54430952D01*
G04 #@! TO.C,R5*
D10*
X131654761Y-62202380D02*
X131083333Y-62202380D01*
X131369047Y-62202380D02*
X131369047Y-61202380D01*
X131273809Y-61345238D01*
X131178571Y-61440476D01*
X131083333Y-61488095D01*
X132273809Y-61202380D02*
X132369047Y-61202380D01*
X132464285Y-61250000D01*
X132511904Y-61297619D01*
X132559523Y-61392857D01*
X132607142Y-61583333D01*
X132607142Y-61821428D01*
X132559523Y-62011904D01*
X132511904Y-62107142D01*
X132464285Y-62154761D01*
X132369047Y-62202380D01*
X132273809Y-62202380D01*
X132178571Y-62154761D01*
X132130952Y-62107142D01*
X132083333Y-62011904D01*
X132035714Y-61821428D01*
X132035714Y-61583333D01*
X132083333Y-61392857D01*
X132130952Y-61297619D01*
X132178571Y-61250000D01*
X132273809Y-61202380D01*
X133035714Y-62202380D02*
X133035714Y-61202380D01*
X133130952Y-61821428D02*
X133416666Y-62202380D01*
X133416666Y-61535714D02*
X133035714Y-61916666D01*
D15*
X132183333Y-63430952D02*
X132050000Y-63240476D01*
X131954761Y-63430952D02*
X131954761Y-63030952D01*
X132107142Y-63030952D01*
X132145238Y-63050000D01*
X132164285Y-63069047D01*
X132183333Y-63107142D01*
X132183333Y-63164285D01*
X132164285Y-63202380D01*
X132145238Y-63221428D01*
X132107142Y-63240476D01*
X131954761Y-63240476D01*
X132545238Y-63030952D02*
X132354761Y-63030952D01*
X132335714Y-63221428D01*
X132354761Y-63202380D01*
X132392857Y-63183333D01*
X132488095Y-63183333D01*
X132526190Y-63202380D01*
X132545238Y-63221428D01*
X132564285Y-63259523D01*
X132564285Y-63354761D01*
X132545238Y-63392857D01*
X132526190Y-63411904D01*
X132488095Y-63430952D01*
X132392857Y-63430952D01*
X132354761Y-63411904D01*
X132335714Y-63392857D01*
G04 #@! TO.C,R6*
D10*
X143904761Y-45452380D02*
X143333333Y-45452380D01*
X143619047Y-45452380D02*
X143619047Y-44452380D01*
X143523809Y-44595238D01*
X143428571Y-44690476D01*
X143333333Y-44738095D01*
X144523809Y-44452380D02*
X144619047Y-44452380D01*
X144714285Y-44500000D01*
X144761904Y-44547619D01*
X144809523Y-44642857D01*
X144857142Y-44833333D01*
X144857142Y-45071428D01*
X144809523Y-45261904D01*
X144761904Y-45357142D01*
X144714285Y-45404761D01*
X144619047Y-45452380D01*
X144523809Y-45452380D01*
X144428571Y-45404761D01*
X144380952Y-45357142D01*
X144333333Y-45261904D01*
X144285714Y-45071428D01*
X144285714Y-44833333D01*
X144333333Y-44642857D01*
X144380952Y-44547619D01*
X144428571Y-44500000D01*
X144523809Y-44452380D01*
X145285714Y-45452380D02*
X145285714Y-44452380D01*
X145380952Y-45071428D02*
X145666666Y-45452380D01*
X145666666Y-44785714D02*
X145285714Y-45166666D01*
D15*
X144433333Y-43680952D02*
X144300000Y-43490476D01*
X144204761Y-43680952D02*
X144204761Y-43280952D01*
X144357142Y-43280952D01*
X144395238Y-43300000D01*
X144414285Y-43319047D01*
X144433333Y-43357142D01*
X144433333Y-43414285D01*
X144414285Y-43452380D01*
X144395238Y-43471428D01*
X144357142Y-43490476D01*
X144204761Y-43490476D01*
X144776190Y-43280952D02*
X144700000Y-43280952D01*
X144661904Y-43300000D01*
X144642857Y-43319047D01*
X144604761Y-43376190D01*
X144585714Y-43452380D01*
X144585714Y-43604761D01*
X144604761Y-43642857D01*
X144623809Y-43661904D01*
X144661904Y-43680952D01*
X144738095Y-43680952D01*
X144776190Y-43661904D01*
X144795238Y-43642857D01*
X144814285Y-43604761D01*
X144814285Y-43509523D01*
X144795238Y-43471428D01*
X144776190Y-43452380D01*
X144738095Y-43433333D01*
X144661904Y-43433333D01*
X144623809Y-43452380D01*
X144604761Y-43471428D01*
X144585714Y-43509523D01*
G04 #@! TO.C,R7*
D10*
X117214285Y-67202380D02*
X117833333Y-67202380D01*
X117500000Y-67583333D01*
X117642857Y-67583333D01*
X117738095Y-67630952D01*
X117785714Y-67678571D01*
X117833333Y-67773809D01*
X117833333Y-68011904D01*
X117785714Y-68107142D01*
X117738095Y-68154761D01*
X117642857Y-68202380D01*
X117357142Y-68202380D01*
X117261904Y-68154761D01*
X117214285Y-68107142D01*
X118166666Y-67202380D02*
X118785714Y-67202380D01*
X118452380Y-67583333D01*
X118595238Y-67583333D01*
X118690476Y-67630952D01*
X118738095Y-67678571D01*
X118785714Y-67773809D01*
X118785714Y-68011904D01*
X118738095Y-68107142D01*
X118690476Y-68154761D01*
X118595238Y-68202380D01*
X118309523Y-68202380D01*
X118214285Y-68154761D01*
X118166666Y-68107142D01*
X119404761Y-67202380D02*
X119500000Y-67202380D01*
X119595238Y-67250000D01*
X119642857Y-67297619D01*
X119690476Y-67392857D01*
X119738095Y-67583333D01*
X119738095Y-67821428D01*
X119690476Y-68011904D01*
X119642857Y-68107142D01*
X119595238Y-68154761D01*
X119500000Y-68202380D01*
X119404761Y-68202380D01*
X119309523Y-68154761D01*
X119261904Y-68107142D01*
X119214285Y-68011904D01*
X119166666Y-67821428D01*
X119166666Y-67583333D01*
X119214285Y-67392857D01*
X119261904Y-67297619D01*
X119309523Y-67250000D01*
X119404761Y-67202380D01*
D15*
X118433333Y-66430952D02*
X118300000Y-66240476D01*
X118204761Y-66430952D02*
X118204761Y-66030952D01*
X118357142Y-66030952D01*
X118395238Y-66050000D01*
X118414285Y-66069047D01*
X118433333Y-66107142D01*
X118433333Y-66164285D01*
X118414285Y-66202380D01*
X118395238Y-66221428D01*
X118357142Y-66240476D01*
X118204761Y-66240476D01*
X118566666Y-66030952D02*
X118833333Y-66030952D01*
X118661904Y-66430952D01*
G04 #@! TO.C,R8*
D10*
X109951610Y-40020587D02*
X109951610Y-40687253D01*
X109713515Y-39639634D02*
X109475420Y-40353920D01*
X110094467Y-40353920D01*
X110475420Y-40592015D02*
X110523039Y-40639634D01*
X110475420Y-40687253D01*
X110427801Y-40639634D01*
X110475420Y-40592015D01*
X110475420Y-40687253D01*
X110856372Y-39687253D02*
X111523039Y-39687253D01*
X111094467Y-40687253D01*
X111903991Y-40687253D02*
X111903991Y-39687253D01*
X111999229Y-40306301D02*
X112284943Y-40687253D01*
X112284943Y-40020587D02*
X111903991Y-40401539D01*
D15*
X110813515Y-38915825D02*
X110680182Y-38725349D01*
X110584943Y-38915825D02*
X110584943Y-38515825D01*
X110737324Y-38515825D01*
X110775420Y-38534873D01*
X110794467Y-38553920D01*
X110813515Y-38592015D01*
X110813515Y-38649158D01*
X110794467Y-38687253D01*
X110775420Y-38706301D01*
X110737324Y-38725349D01*
X110584943Y-38725349D01*
X111042086Y-38687253D02*
X111003991Y-38668206D01*
X110984943Y-38649158D01*
X110965896Y-38611063D01*
X110965896Y-38592015D01*
X110984943Y-38553920D01*
X111003991Y-38534873D01*
X111042086Y-38515825D01*
X111118277Y-38515825D01*
X111156372Y-38534873D01*
X111175420Y-38553920D01*
X111194467Y-38592015D01*
X111194467Y-38611063D01*
X111175420Y-38649158D01*
X111156372Y-38668206D01*
X111118277Y-38687253D01*
X111042086Y-38687253D01*
X111003991Y-38706301D01*
X110984943Y-38725349D01*
X110965896Y-38763444D01*
X110965896Y-38839634D01*
X110984943Y-38877730D01*
X111003991Y-38896777D01*
X111042086Y-38915825D01*
X111118277Y-38915825D01*
X111156372Y-38896777D01*
X111175420Y-38877730D01*
X111194467Y-38839634D01*
X111194467Y-38763444D01*
X111175420Y-38725349D01*
X111156372Y-38706301D01*
X111118277Y-38687253D01*
G04 #@! TO.C,R9*
D10*
X104242306Y-50550248D02*
X104242306Y-51121676D01*
X104242306Y-50835962D02*
X103242306Y-50835962D01*
X103385164Y-50931200D01*
X103480402Y-51026438D01*
X103528021Y-51121676D01*
X103242306Y-49931200D02*
X103242306Y-49835962D01*
X103289926Y-49740724D01*
X103337545Y-49693105D01*
X103432783Y-49645486D01*
X103623259Y-49597867D01*
X103861354Y-49597867D01*
X104051830Y-49645486D01*
X104147068Y-49693105D01*
X104194687Y-49740724D01*
X104242306Y-49835962D01*
X104242306Y-49931200D01*
X104194687Y-50026438D01*
X104147068Y-50074057D01*
X104051830Y-50121676D01*
X103861354Y-50169295D01*
X103623259Y-50169295D01*
X103432783Y-50121676D01*
X103337545Y-50074057D01*
X103289926Y-50026438D01*
X103242306Y-49931200D01*
X104242306Y-49169295D02*
X103242306Y-49169295D01*
X103861354Y-49074057D02*
X104242306Y-48788343D01*
X103575640Y-48788343D02*
X103956592Y-49169295D01*
D15*
X105470878Y-50021676D02*
X105280402Y-50155010D01*
X105470878Y-50250248D02*
X105070878Y-50250248D01*
X105070878Y-50097867D01*
X105089926Y-50059771D01*
X105108973Y-50040724D01*
X105147068Y-50021676D01*
X105204211Y-50021676D01*
X105242306Y-50040724D01*
X105261354Y-50059771D01*
X105280402Y-50097867D01*
X105280402Y-50250248D01*
X105470878Y-49831200D02*
X105470878Y-49755010D01*
X105451830Y-49716914D01*
X105432783Y-49697867D01*
X105375640Y-49659771D01*
X105299449Y-49640724D01*
X105147068Y-49640724D01*
X105108973Y-49659771D01*
X105089926Y-49678819D01*
X105070878Y-49716914D01*
X105070878Y-49793105D01*
X105089926Y-49831200D01*
X105108973Y-49850248D01*
X105147068Y-49869295D01*
X105242306Y-49869295D01*
X105280402Y-49850248D01*
X105299449Y-49831200D01*
X105318497Y-49793105D01*
X105318497Y-49716914D01*
X105299449Y-49678819D01*
X105280402Y-49659771D01*
X105242306Y-49640724D01*
G04 #@! TO.C,R10*
D10*
X71452380Y-51535714D02*
X71452380Y-50916666D01*
X71833333Y-51250000D01*
X71833333Y-51107142D01*
X71880952Y-51011904D01*
X71928571Y-50964285D01*
X72023809Y-50916666D01*
X72261904Y-50916666D01*
X72357142Y-50964285D01*
X72404761Y-51011904D01*
X72452380Y-51107142D01*
X72452380Y-51392857D01*
X72404761Y-51488095D01*
X72357142Y-51535714D01*
X71452380Y-50583333D02*
X71452380Y-49964285D01*
X71833333Y-50297619D01*
X71833333Y-50154761D01*
X71880952Y-50059523D01*
X71928571Y-50011904D01*
X72023809Y-49964285D01*
X72261904Y-49964285D01*
X72357142Y-50011904D01*
X72404761Y-50059523D01*
X72452380Y-50154761D01*
X72452380Y-50440476D01*
X72404761Y-50535714D01*
X72357142Y-50583333D01*
X71452380Y-49345238D02*
X71452380Y-49250000D01*
X71500000Y-49154761D01*
X71547619Y-49107142D01*
X71642857Y-49059523D01*
X71833333Y-49011904D01*
X72071428Y-49011904D01*
X72261904Y-49059523D01*
X72357142Y-49107142D01*
X72404761Y-49154761D01*
X72452380Y-49250000D01*
X72452380Y-49345238D01*
X72404761Y-49440476D01*
X72357142Y-49488095D01*
X72261904Y-49535714D01*
X72071428Y-49583333D01*
X71833333Y-49583333D01*
X71642857Y-49535714D01*
X71547619Y-49488095D01*
X71500000Y-49440476D01*
X71452380Y-49345238D01*
D15*
X70680952Y-50507142D02*
X70490476Y-50640476D01*
X70680952Y-50735714D02*
X70280952Y-50735714D01*
X70280952Y-50583333D01*
X70300000Y-50545238D01*
X70319047Y-50526190D01*
X70357142Y-50507142D01*
X70414285Y-50507142D01*
X70452380Y-50526190D01*
X70471428Y-50545238D01*
X70490476Y-50583333D01*
X70490476Y-50735714D01*
X70680952Y-50126190D02*
X70680952Y-50354761D01*
X70680952Y-50240476D02*
X70280952Y-50240476D01*
X70338095Y-50278571D01*
X70376190Y-50316666D01*
X70395238Y-50354761D01*
X70280952Y-49878571D02*
X70280952Y-49840476D01*
X70300000Y-49802380D01*
X70319047Y-49783333D01*
X70357142Y-49764285D01*
X70433333Y-49745238D01*
X70528571Y-49745238D01*
X70604761Y-49764285D01*
X70642857Y-49783333D01*
X70661904Y-49802380D01*
X70680952Y-49840476D01*
X70680952Y-49878571D01*
X70661904Y-49916666D01*
X70642857Y-49935714D01*
X70604761Y-49954761D01*
X70528571Y-49973809D01*
X70433333Y-49973809D01*
X70357142Y-49954761D01*
X70319047Y-49935714D01*
X70300000Y-49916666D01*
X70280952Y-49878571D01*
G04 #@! TO.C,R11*
D10*
X136702380Y-47285714D02*
X136702380Y-46666666D01*
X137083333Y-47000000D01*
X137083333Y-46857142D01*
X137130952Y-46761904D01*
X137178571Y-46714285D01*
X137273809Y-46666666D01*
X137511904Y-46666666D01*
X137607142Y-46714285D01*
X137654761Y-46761904D01*
X137702380Y-46857142D01*
X137702380Y-47142857D01*
X137654761Y-47238095D01*
X137607142Y-47285714D01*
X136702380Y-46333333D02*
X136702380Y-45714285D01*
X137083333Y-46047619D01*
X137083333Y-45904761D01*
X137130952Y-45809523D01*
X137178571Y-45761904D01*
X137273809Y-45714285D01*
X137511904Y-45714285D01*
X137607142Y-45761904D01*
X137654761Y-45809523D01*
X137702380Y-45904761D01*
X137702380Y-46190476D01*
X137654761Y-46285714D01*
X137607142Y-46333333D01*
X136702380Y-45095238D02*
X136702380Y-45000000D01*
X136750000Y-44904761D01*
X136797619Y-44857142D01*
X136892857Y-44809523D01*
X137083333Y-44761904D01*
X137321428Y-44761904D01*
X137511904Y-44809523D01*
X137607142Y-44857142D01*
X137654761Y-44904761D01*
X137702380Y-45000000D01*
X137702380Y-45095238D01*
X137654761Y-45190476D01*
X137607142Y-45238095D01*
X137511904Y-45285714D01*
X137321428Y-45333333D01*
X137083333Y-45333333D01*
X136892857Y-45285714D01*
X136797619Y-45238095D01*
X136750000Y-45190476D01*
X136702380Y-45095238D01*
D15*
X138930952Y-46257142D02*
X138740476Y-46390476D01*
X138930952Y-46485714D02*
X138530952Y-46485714D01*
X138530952Y-46333333D01*
X138550000Y-46295238D01*
X138569047Y-46276190D01*
X138607142Y-46257142D01*
X138664285Y-46257142D01*
X138702380Y-46276190D01*
X138721428Y-46295238D01*
X138740476Y-46333333D01*
X138740476Y-46485714D01*
X138930952Y-45876190D02*
X138930952Y-46104761D01*
X138930952Y-45990476D02*
X138530952Y-45990476D01*
X138588095Y-46028571D01*
X138626190Y-46066666D01*
X138645238Y-46104761D01*
X138930952Y-45495238D02*
X138930952Y-45723809D01*
X138930952Y-45609523D02*
X138530952Y-45609523D01*
X138588095Y-45647619D01*
X138626190Y-45685714D01*
X138645238Y-45723809D01*
G04 #@! TO.C,R12*
D10*
X109702380Y-48285714D02*
X109702380Y-47666666D01*
X110083333Y-48000000D01*
X110083333Y-47857142D01*
X110130952Y-47761904D01*
X110178571Y-47714285D01*
X110273809Y-47666666D01*
X110511904Y-47666666D01*
X110607142Y-47714285D01*
X110654761Y-47761904D01*
X110702380Y-47857142D01*
X110702380Y-48142857D01*
X110654761Y-48238095D01*
X110607142Y-48285714D01*
X109702380Y-47333333D02*
X109702380Y-46714285D01*
X110083333Y-47047619D01*
X110083333Y-46904761D01*
X110130952Y-46809523D01*
X110178571Y-46761904D01*
X110273809Y-46714285D01*
X110511904Y-46714285D01*
X110607142Y-46761904D01*
X110654761Y-46809523D01*
X110702380Y-46904761D01*
X110702380Y-47190476D01*
X110654761Y-47285714D01*
X110607142Y-47333333D01*
X109702380Y-46095238D02*
X109702380Y-46000000D01*
X109750000Y-45904761D01*
X109797619Y-45857142D01*
X109892857Y-45809523D01*
X110083333Y-45761904D01*
X110321428Y-45761904D01*
X110511904Y-45809523D01*
X110607142Y-45857142D01*
X110654761Y-45904761D01*
X110702380Y-46000000D01*
X110702380Y-46095238D01*
X110654761Y-46190476D01*
X110607142Y-46238095D01*
X110511904Y-46285714D01*
X110321428Y-46333333D01*
X110083333Y-46333333D01*
X109892857Y-46285714D01*
X109797619Y-46238095D01*
X109750000Y-46190476D01*
X109702380Y-46095238D01*
D15*
X108930952Y-47257142D02*
X108740476Y-47390476D01*
X108930952Y-47485714D02*
X108530952Y-47485714D01*
X108530952Y-47333333D01*
X108550000Y-47295238D01*
X108569047Y-47276190D01*
X108607142Y-47257142D01*
X108664285Y-47257142D01*
X108702380Y-47276190D01*
X108721428Y-47295238D01*
X108740476Y-47333333D01*
X108740476Y-47485714D01*
X108930952Y-46876190D02*
X108930952Y-47104761D01*
X108930952Y-46990476D02*
X108530952Y-46990476D01*
X108588095Y-47028571D01*
X108626190Y-47066666D01*
X108645238Y-47104761D01*
X108569047Y-46723809D02*
X108550000Y-46704761D01*
X108530952Y-46666666D01*
X108530952Y-46571428D01*
X108550000Y-46533333D01*
X108569047Y-46514285D01*
X108607142Y-46495238D01*
X108645238Y-46495238D01*
X108702380Y-46514285D01*
X108930952Y-46742857D01*
X108930952Y-46495238D01*
G04 #@! TO.C,R13*
D10*
X67738095Y-59785714D02*
X67738095Y-60452380D01*
X67500000Y-59404761D02*
X67261904Y-60119047D01*
X67880952Y-60119047D01*
X68166666Y-59452380D02*
X68833333Y-59452380D01*
X68404761Y-60452380D01*
X69404761Y-59452380D02*
X69500000Y-59452380D01*
X69595238Y-59500000D01*
X69642857Y-59547619D01*
X69690476Y-59642857D01*
X69738095Y-59833333D01*
X69738095Y-60071428D01*
X69690476Y-60261904D01*
X69642857Y-60357142D01*
X69595238Y-60404761D01*
X69500000Y-60452380D01*
X69404761Y-60452380D01*
X69309523Y-60404761D01*
X69261904Y-60357142D01*
X69214285Y-60261904D01*
X69166666Y-60071428D01*
X69166666Y-59833333D01*
X69214285Y-59642857D01*
X69261904Y-59547619D01*
X69309523Y-59500000D01*
X69404761Y-59452380D01*
D15*
X68242857Y-61680952D02*
X68109523Y-61490476D01*
X68014285Y-61680952D02*
X68014285Y-61280952D01*
X68166666Y-61280952D01*
X68204761Y-61300000D01*
X68223809Y-61319047D01*
X68242857Y-61357142D01*
X68242857Y-61414285D01*
X68223809Y-61452380D01*
X68204761Y-61471428D01*
X68166666Y-61490476D01*
X68014285Y-61490476D01*
X68623809Y-61680952D02*
X68395238Y-61680952D01*
X68509523Y-61680952D02*
X68509523Y-61280952D01*
X68471428Y-61338095D01*
X68433333Y-61376190D01*
X68395238Y-61395238D01*
X68757142Y-61280952D02*
X69004761Y-61280952D01*
X68871428Y-61433333D01*
X68928571Y-61433333D01*
X68966666Y-61452380D01*
X68985714Y-61471428D01*
X69004761Y-61509523D01*
X69004761Y-61604761D01*
X68985714Y-61642857D01*
X68966666Y-61661904D01*
X68928571Y-61680952D01*
X68814285Y-61680952D01*
X68776190Y-61661904D01*
X68757142Y-61642857D01*
G04 #@! TO.C,R14*
D10*
X67488095Y-58035714D02*
X67488095Y-58702380D01*
X67250000Y-57654761D02*
X67011904Y-58369047D01*
X67630952Y-58369047D01*
X67916666Y-57702380D02*
X68583333Y-57702380D01*
X68154761Y-58702380D01*
X69154761Y-57702380D02*
X69250000Y-57702380D01*
X69345238Y-57750000D01*
X69392857Y-57797619D01*
X69440476Y-57892857D01*
X69488095Y-58083333D01*
X69488095Y-58321428D01*
X69440476Y-58511904D01*
X69392857Y-58607142D01*
X69345238Y-58654761D01*
X69250000Y-58702380D01*
X69154761Y-58702380D01*
X69059523Y-58654761D01*
X69011904Y-58607142D01*
X68964285Y-58511904D01*
X68916666Y-58321428D01*
X68916666Y-58083333D01*
X68964285Y-57892857D01*
X69011904Y-57797619D01*
X69059523Y-57750000D01*
X69154761Y-57702380D01*
D15*
X67992857Y-59930952D02*
X67859523Y-59740476D01*
X67764285Y-59930952D02*
X67764285Y-59530952D01*
X67916666Y-59530952D01*
X67954761Y-59550000D01*
X67973809Y-59569047D01*
X67992857Y-59607142D01*
X67992857Y-59664285D01*
X67973809Y-59702380D01*
X67954761Y-59721428D01*
X67916666Y-59740476D01*
X67764285Y-59740476D01*
X68373809Y-59930952D02*
X68145238Y-59930952D01*
X68259523Y-59930952D02*
X68259523Y-59530952D01*
X68221428Y-59588095D01*
X68183333Y-59626190D01*
X68145238Y-59645238D01*
X68716666Y-59664285D02*
X68716666Y-59930952D01*
X68621428Y-59511904D02*
X68526190Y-59797619D01*
X68773809Y-59797619D01*
G04 #@! TO.C,R15*
D10*
X81535714Y-72607142D02*
X82202380Y-72607142D01*
X81154761Y-72845238D02*
X81869047Y-73083333D01*
X81869047Y-72464285D01*
X82202380Y-72083333D02*
X81202380Y-72083333D01*
X81821428Y-71988095D02*
X82202380Y-71702380D01*
X81535714Y-71702380D02*
X81916666Y-72083333D01*
X81535714Y-70654761D02*
X81535714Y-70273809D01*
X82202380Y-70511904D02*
X81345238Y-70511904D01*
X81250000Y-70464285D01*
X81202380Y-70369047D01*
X81202380Y-70273809D01*
X82202380Y-69797619D02*
X82154761Y-69892857D01*
X82107142Y-69940476D01*
X82011904Y-69988095D01*
X81726190Y-69988095D01*
X81630952Y-69940476D01*
X81583333Y-69892857D01*
X81535714Y-69797619D01*
X81535714Y-69654761D01*
X81583333Y-69559523D01*
X81630952Y-69511904D01*
X81726190Y-69464285D01*
X82011904Y-69464285D01*
X82107142Y-69511904D01*
X82154761Y-69559523D01*
X82202380Y-69654761D01*
X82202380Y-69797619D01*
X82202380Y-69035714D02*
X81535714Y-69035714D01*
X81726190Y-69035714D02*
X81630952Y-68988095D01*
X81583333Y-68940476D01*
X81535714Y-68845238D01*
X81535714Y-68750000D01*
X82202380Y-67654761D02*
X81202380Y-67654761D01*
X82202380Y-67178571D02*
X81202380Y-67178571D01*
X81583333Y-67178571D02*
X81535714Y-67083333D01*
X81535714Y-66892857D01*
X81583333Y-66797619D01*
X81630952Y-66750000D01*
X81726190Y-66702380D01*
X82011904Y-66702380D01*
X82107142Y-66750000D01*
X82154761Y-66797619D01*
X82202380Y-66892857D01*
X82202380Y-67083333D01*
X82154761Y-67178571D01*
X82202380Y-65845238D02*
X81678571Y-65845238D01*
X81583333Y-65892857D01*
X81535714Y-65988095D01*
X81535714Y-66178571D01*
X81583333Y-66273809D01*
X82154761Y-65845238D02*
X82202380Y-65940476D01*
X82202380Y-66178571D01*
X82154761Y-66273809D01*
X82059523Y-66321428D01*
X81964285Y-66321428D01*
X81869047Y-66273809D01*
X81821428Y-66178571D01*
X81821428Y-65940476D01*
X81773809Y-65845238D01*
X81535714Y-65511904D02*
X81535714Y-65130952D01*
X81202380Y-65369047D02*
X82059523Y-65369047D01*
X82154761Y-65321428D01*
X82202380Y-65226190D01*
X82202380Y-65130952D01*
X81202380Y-64130952D02*
X81202380Y-63511904D01*
X81583333Y-63845238D01*
X81583333Y-63702380D01*
X81630952Y-63607142D01*
X81678571Y-63559523D01*
X81773809Y-63511904D01*
X82011904Y-63511904D01*
X82107142Y-63559523D01*
X82154761Y-63607142D01*
X82202380Y-63702380D01*
X82202380Y-63988095D01*
X82154761Y-64083333D01*
X82107142Y-64130952D01*
X81202380Y-62892857D02*
X81202380Y-62797619D01*
X81250000Y-62702380D01*
X81297619Y-62654761D01*
X81392857Y-62607142D01*
X81583333Y-62559523D01*
X81821428Y-62559523D01*
X82011904Y-62607142D01*
X82107142Y-62654761D01*
X82154761Y-62702380D01*
X82202380Y-62797619D01*
X82202380Y-62892857D01*
X82154761Y-62988095D01*
X82107142Y-63035714D01*
X82011904Y-63083333D01*
X81821428Y-63130952D01*
X81583333Y-63130952D01*
X81392857Y-63083333D01*
X81297619Y-63035714D01*
X81250000Y-62988095D01*
X81202380Y-62892857D01*
X81202380Y-61940476D02*
X81202380Y-61845238D01*
X81250000Y-61750000D01*
X81297619Y-61702380D01*
X81392857Y-61654761D01*
X81583333Y-61607142D01*
X81821428Y-61607142D01*
X82011904Y-61654761D01*
X82107142Y-61702380D01*
X82154761Y-61750000D01*
X82202380Y-61845238D01*
X82202380Y-61940476D01*
X82154761Y-62035714D01*
X82107142Y-62083333D01*
X82011904Y-62130952D01*
X81821428Y-62178571D01*
X81583333Y-62178571D01*
X81392857Y-62130952D01*
X81297619Y-62083333D01*
X81250000Y-62035714D01*
X81202380Y-61940476D01*
X82202380Y-61178571D02*
X81535714Y-61178571D01*
X81630952Y-61178571D02*
X81583333Y-61130952D01*
X81535714Y-61035714D01*
X81535714Y-60892857D01*
X81583333Y-60797619D01*
X81678571Y-60750000D01*
X82202380Y-60750000D01*
X81678571Y-60750000D02*
X81583333Y-60702380D01*
X81535714Y-60607142D01*
X81535714Y-60464285D01*
X81583333Y-60369047D01*
X81678571Y-60321428D01*
X82202380Y-60321428D01*
X81916666Y-59892857D02*
X81916666Y-59416666D01*
X82202380Y-59988095D02*
X81202380Y-59654761D01*
X82202380Y-59321428D01*
D15*
X83430952Y-66507142D02*
X83240476Y-66640476D01*
X83430952Y-66735714D02*
X83030952Y-66735714D01*
X83030952Y-66583333D01*
X83050000Y-66545238D01*
X83069047Y-66526190D01*
X83107142Y-66507142D01*
X83164285Y-66507142D01*
X83202380Y-66526190D01*
X83221428Y-66545238D01*
X83240476Y-66583333D01*
X83240476Y-66735714D01*
X83430952Y-66126190D02*
X83430952Y-66354761D01*
X83430952Y-66240476D02*
X83030952Y-66240476D01*
X83088095Y-66278571D01*
X83126190Y-66316666D01*
X83145238Y-66354761D01*
X83030952Y-65764285D02*
X83030952Y-65954761D01*
X83221428Y-65973809D01*
X83202380Y-65954761D01*
X83183333Y-65916666D01*
X83183333Y-65821428D01*
X83202380Y-65783333D01*
X83221428Y-65764285D01*
X83259523Y-65745238D01*
X83354761Y-65745238D01*
X83392857Y-65764285D01*
X83411904Y-65783333D01*
X83430952Y-65821428D01*
X83430952Y-65916666D01*
X83411904Y-65954761D01*
X83392857Y-65973809D01*
G04 #@! TO.C,R16*
D10*
X120967935Y-60050507D02*
X120395515Y-59949492D01*
X120563874Y-60454568D02*
X119856767Y-59747462D01*
X120126141Y-59478088D01*
X120227156Y-59444416D01*
X120294500Y-59444416D01*
X120395515Y-59478088D01*
X120496530Y-59579103D01*
X120530202Y-59680118D01*
X120530202Y-59747462D01*
X120496530Y-59848477D01*
X120227156Y-60117851D01*
X121641370Y-59377072D02*
X121237309Y-59781133D01*
X121439340Y-59579103D02*
X120732233Y-58871996D01*
X120765904Y-59040355D01*
X120765904Y-59175042D01*
X120732233Y-59276057D01*
X121371996Y-58232233D02*
X121439340Y-58164889D01*
X121540355Y-58131217D01*
X121607698Y-58131217D01*
X121708714Y-58164889D01*
X121877072Y-58265904D01*
X122045431Y-58434263D01*
X122146446Y-58602622D01*
X122180118Y-58703637D01*
X122180118Y-58770981D01*
X122146446Y-58871996D01*
X122079103Y-58939340D01*
X121978088Y-58973011D01*
X121910744Y-58973011D01*
X121809729Y-58939340D01*
X121641370Y-58838324D01*
X121473011Y-58669965D01*
X121371996Y-58501607D01*
X121338324Y-58400591D01*
X121338324Y-58333248D01*
X121371996Y-58232233D01*
X122045431Y-57558798D02*
X122112775Y-57491454D01*
X122213790Y-57457782D01*
X122281133Y-57457782D01*
X122382149Y-57491454D01*
X122550507Y-57592469D01*
X122718866Y-57760828D01*
X122819881Y-57929187D01*
X122853553Y-58030202D01*
X122853553Y-58097546D01*
X122819881Y-58198561D01*
X122752538Y-58265904D01*
X122651523Y-58299576D01*
X122584179Y-58299576D01*
X122483164Y-58265904D01*
X122314805Y-58164889D01*
X122146446Y-57996530D01*
X122045431Y-57828172D01*
X122011759Y-57727156D01*
X122011759Y-57659813D01*
X122045431Y-57558798D01*
D15*
X122446125Y-60309780D02*
X122217157Y-60269374D01*
X122284500Y-60471404D02*
X122001658Y-60188561D01*
X122109407Y-60080812D01*
X122149813Y-60067343D01*
X122176751Y-60067343D01*
X122217157Y-60080812D01*
X122257563Y-60121218D01*
X122271032Y-60161624D01*
X122271032Y-60188561D01*
X122257563Y-60228967D01*
X122149813Y-60336717D01*
X122715499Y-60040406D02*
X122553874Y-60202030D01*
X122634687Y-60121218D02*
X122351844Y-59838375D01*
X122365312Y-59905719D01*
X122365312Y-59959593D01*
X122351844Y-60000000D01*
X122675093Y-59515126D02*
X122621218Y-59569001D01*
X122607749Y-59609407D01*
X122607749Y-59636345D01*
X122621218Y-59703688D01*
X122661624Y-59771032D01*
X122769374Y-59878781D01*
X122809780Y-59892250D01*
X122836717Y-59892250D01*
X122877123Y-59878781D01*
X122930998Y-59824906D01*
X122944467Y-59784500D01*
X122944467Y-59757563D01*
X122930998Y-59717157D01*
X122863654Y-59649813D01*
X122823248Y-59636345D01*
X122796311Y-59636345D01*
X122755905Y-59649813D01*
X122702030Y-59703688D01*
X122688561Y-59744094D01*
X122688561Y-59771032D01*
X122702030Y-59811438D01*
G04 #@! TO.C,R17*
D10*
X136857142Y-48952380D02*
X136523809Y-48476190D01*
X136285714Y-48952380D02*
X136285714Y-47952380D01*
X136666666Y-47952380D01*
X136761904Y-48000000D01*
X136809523Y-48047619D01*
X136857142Y-48142857D01*
X136857142Y-48285714D01*
X136809523Y-48380952D01*
X136761904Y-48428571D01*
X136666666Y-48476190D01*
X136285714Y-48476190D01*
X137238095Y-48047619D02*
X137285714Y-48000000D01*
X137380952Y-47952380D01*
X137619047Y-47952380D01*
X137714285Y-48000000D01*
X137761904Y-48047619D01*
X137809523Y-48142857D01*
X137809523Y-48238095D01*
X137761904Y-48380952D01*
X137190476Y-48952380D01*
X137809523Y-48952380D01*
X138190476Y-48047619D02*
X138238095Y-48000000D01*
X138333333Y-47952380D01*
X138571428Y-47952380D01*
X138666666Y-48000000D01*
X138714285Y-48047619D01*
X138761904Y-48142857D01*
X138761904Y-48238095D01*
X138714285Y-48380952D01*
X138142857Y-48952380D01*
X138761904Y-48952380D01*
D15*
X137242857Y-50180952D02*
X137109523Y-49990476D01*
X137014285Y-50180952D02*
X137014285Y-49780952D01*
X137166666Y-49780952D01*
X137204761Y-49800000D01*
X137223809Y-49819047D01*
X137242857Y-49857142D01*
X137242857Y-49914285D01*
X137223809Y-49952380D01*
X137204761Y-49971428D01*
X137166666Y-49990476D01*
X137014285Y-49990476D01*
X137623809Y-50180952D02*
X137395238Y-50180952D01*
X137509523Y-50180952D02*
X137509523Y-49780952D01*
X137471428Y-49838095D01*
X137433333Y-49876190D01*
X137395238Y-49895238D01*
X137757142Y-49780952D02*
X138023809Y-49780952D01*
X137852380Y-50180952D01*
G04 #@! TO.C,R18*
D10*
X119130952Y-47702380D02*
X118797619Y-47226190D01*
X118559523Y-47702380D02*
X118559523Y-46702380D01*
X118940476Y-46702380D01*
X119035714Y-46750000D01*
X119083333Y-46797619D01*
X119130952Y-46892857D01*
X119130952Y-47035714D01*
X119083333Y-47130952D01*
X119035714Y-47178571D01*
X118940476Y-47226190D01*
X118559523Y-47226190D01*
X120083333Y-47702380D02*
X119511904Y-47702380D01*
X119797619Y-47702380D02*
X119797619Y-46702380D01*
X119702380Y-46845238D01*
X119607142Y-46940476D01*
X119511904Y-46988095D01*
X120702380Y-46702380D02*
X120797619Y-46702380D01*
X120892857Y-46750000D01*
X120940476Y-46797619D01*
X120988095Y-46892857D01*
X121035714Y-47083333D01*
X121035714Y-47321428D01*
X120988095Y-47511904D01*
X120940476Y-47607142D01*
X120892857Y-47654761D01*
X120797619Y-47702380D01*
X120702380Y-47702380D01*
X120607142Y-47654761D01*
X120559523Y-47607142D01*
X120511904Y-47511904D01*
X120464285Y-47321428D01*
X120464285Y-47083333D01*
X120511904Y-46892857D01*
X120559523Y-46797619D01*
X120607142Y-46750000D01*
X120702380Y-46702380D01*
X121654761Y-46702380D02*
X121750000Y-46702380D01*
X121845238Y-46750000D01*
X121892857Y-46797619D01*
X121940476Y-46892857D01*
X121988095Y-47083333D01*
X121988095Y-47321428D01*
X121940476Y-47511904D01*
X121892857Y-47607142D01*
X121845238Y-47654761D01*
X121750000Y-47702380D01*
X121654761Y-47702380D01*
X121559523Y-47654761D01*
X121511904Y-47607142D01*
X121464285Y-47511904D01*
X121416666Y-47321428D01*
X121416666Y-47083333D01*
X121464285Y-46892857D01*
X121511904Y-46797619D01*
X121559523Y-46750000D01*
X121654761Y-46702380D01*
D15*
X119992857Y-45930952D02*
X119859523Y-45740476D01*
X119764285Y-45930952D02*
X119764285Y-45530952D01*
X119916666Y-45530952D01*
X119954761Y-45550000D01*
X119973809Y-45569047D01*
X119992857Y-45607142D01*
X119992857Y-45664285D01*
X119973809Y-45702380D01*
X119954761Y-45721428D01*
X119916666Y-45740476D01*
X119764285Y-45740476D01*
X120373809Y-45930952D02*
X120145238Y-45930952D01*
X120259523Y-45930952D02*
X120259523Y-45530952D01*
X120221428Y-45588095D01*
X120183333Y-45626190D01*
X120145238Y-45645238D01*
X120602380Y-45702380D02*
X120564285Y-45683333D01*
X120545238Y-45664285D01*
X120526190Y-45626190D01*
X120526190Y-45607142D01*
X120545238Y-45569047D01*
X120564285Y-45550000D01*
X120602380Y-45530952D01*
X120678571Y-45530952D01*
X120716666Y-45550000D01*
X120735714Y-45569047D01*
X120754761Y-45607142D01*
X120754761Y-45626190D01*
X120735714Y-45664285D01*
X120716666Y-45683333D01*
X120678571Y-45702380D01*
X120602380Y-45702380D01*
X120564285Y-45721428D01*
X120545238Y-45740476D01*
X120526190Y-45778571D01*
X120526190Y-45854761D01*
X120545238Y-45892857D01*
X120564285Y-45911904D01*
X120602380Y-45930952D01*
X120678571Y-45930952D01*
X120716666Y-45911904D01*
X120735714Y-45892857D01*
X120754761Y-45854761D01*
X120754761Y-45778571D01*
X120735714Y-45740476D01*
X120716666Y-45721428D01*
X120678571Y-45702380D01*
G04 #@! TO.C,R19*
D10*
X99428571Y-60202380D02*
X99095238Y-59726190D01*
X98857142Y-60202380D02*
X98857142Y-59202380D01*
X99238095Y-59202380D01*
X99333333Y-59250000D01*
X99380952Y-59297619D01*
X99428571Y-59392857D01*
X99428571Y-59535714D01*
X99380952Y-59630952D01*
X99333333Y-59678571D01*
X99238095Y-59726190D01*
X98857142Y-59726190D01*
X100333333Y-59202380D02*
X99857142Y-59202380D01*
X99809523Y-59678571D01*
X99857142Y-59630952D01*
X99952380Y-59583333D01*
X100190476Y-59583333D01*
X100285714Y-59630952D01*
X100333333Y-59678571D01*
X100380952Y-59773809D01*
X100380952Y-60011904D01*
X100333333Y-60107142D01*
X100285714Y-60154761D01*
X100190476Y-60202380D01*
X99952380Y-60202380D01*
X99857142Y-60154761D01*
X99809523Y-60107142D01*
X100809523Y-60202380D02*
X100809523Y-59202380D01*
X100904761Y-59821428D02*
X101190476Y-60202380D01*
X101190476Y-59535714D02*
X100809523Y-59916666D01*
D15*
X99742857Y-61430952D02*
X99609523Y-61240476D01*
X99514285Y-61430952D02*
X99514285Y-61030952D01*
X99666666Y-61030952D01*
X99704761Y-61050000D01*
X99723809Y-61069047D01*
X99742857Y-61107142D01*
X99742857Y-61164285D01*
X99723809Y-61202380D01*
X99704761Y-61221428D01*
X99666666Y-61240476D01*
X99514285Y-61240476D01*
X100123809Y-61430952D02*
X99895238Y-61430952D01*
X100009523Y-61430952D02*
X100009523Y-61030952D01*
X99971428Y-61088095D01*
X99933333Y-61126190D01*
X99895238Y-61145238D01*
X100314285Y-61430952D02*
X100390476Y-61430952D01*
X100428571Y-61411904D01*
X100447619Y-61392857D01*
X100485714Y-61335714D01*
X100504761Y-61259523D01*
X100504761Y-61107142D01*
X100485714Y-61069047D01*
X100466666Y-61050000D01*
X100428571Y-61030952D01*
X100352380Y-61030952D01*
X100314285Y-61050000D01*
X100295238Y-61069047D01*
X100276190Y-61107142D01*
X100276190Y-61202380D01*
X100295238Y-61240476D01*
X100314285Y-61259523D01*
X100352380Y-61278571D01*
X100428571Y-61278571D01*
X100466666Y-61259523D01*
X100485714Y-61240476D01*
X100504761Y-61202380D01*
G04 #@! TO.C,R20*
D10*
X99702380Y-66202380D02*
X99369047Y-65726190D01*
X99130952Y-66202380D02*
X99130952Y-65202380D01*
X99511904Y-65202380D01*
X99607142Y-65250000D01*
X99654761Y-65297619D01*
X99702380Y-65392857D01*
X99702380Y-65535714D01*
X99654761Y-65630952D01*
X99607142Y-65678571D01*
X99511904Y-65726190D01*
X99130952Y-65726190D01*
X100654761Y-66202380D02*
X100083333Y-66202380D01*
X100369047Y-66202380D02*
X100369047Y-65202380D01*
X100273809Y-65345238D01*
X100178571Y-65440476D01*
X100083333Y-65488095D01*
X101273809Y-65202380D02*
X101369047Y-65202380D01*
X101464285Y-65250000D01*
X101511904Y-65297619D01*
X101559523Y-65392857D01*
X101607142Y-65583333D01*
X101607142Y-65821428D01*
X101559523Y-66011904D01*
X101511904Y-66107142D01*
X101464285Y-66154761D01*
X101369047Y-66202380D01*
X101273809Y-66202380D01*
X101178571Y-66154761D01*
X101130952Y-66107142D01*
X101083333Y-66011904D01*
X101035714Y-65821428D01*
X101035714Y-65583333D01*
X101083333Y-65392857D01*
X101130952Y-65297619D01*
X101178571Y-65250000D01*
X101273809Y-65202380D01*
X102035714Y-66202380D02*
X102035714Y-65202380D01*
X102130952Y-65821428D02*
X102416666Y-66202380D01*
X102416666Y-65535714D02*
X102035714Y-65916666D01*
D15*
X100492857Y-64430952D02*
X100359523Y-64240476D01*
X100264285Y-64430952D02*
X100264285Y-64030952D01*
X100416666Y-64030952D01*
X100454761Y-64050000D01*
X100473809Y-64069047D01*
X100492857Y-64107142D01*
X100492857Y-64164285D01*
X100473809Y-64202380D01*
X100454761Y-64221428D01*
X100416666Y-64240476D01*
X100264285Y-64240476D01*
X100645238Y-64069047D02*
X100664285Y-64050000D01*
X100702380Y-64030952D01*
X100797619Y-64030952D01*
X100835714Y-64050000D01*
X100854761Y-64069047D01*
X100873809Y-64107142D01*
X100873809Y-64145238D01*
X100854761Y-64202380D01*
X100626190Y-64430952D01*
X100873809Y-64430952D01*
X101121428Y-64030952D02*
X101159523Y-64030952D01*
X101197619Y-64050000D01*
X101216666Y-64069047D01*
X101235714Y-64107142D01*
X101254761Y-64183333D01*
X101254761Y-64278571D01*
X101235714Y-64354761D01*
X101216666Y-64392857D01*
X101197619Y-64411904D01*
X101159523Y-64430952D01*
X101121428Y-64430952D01*
X101083333Y-64411904D01*
X101064285Y-64392857D01*
X101045238Y-64354761D01*
X101026190Y-64278571D01*
X101026190Y-64183333D01*
X101045238Y-64107142D01*
X101064285Y-64069047D01*
X101083333Y-64050000D01*
X101121428Y-64030952D01*
G04 #@! TO.C,R21*
D10*
X109951610Y-38169320D02*
X109951610Y-38835986D01*
X109713515Y-37788367D02*
X109475420Y-38502653D01*
X110094467Y-38502653D01*
X110475420Y-38740748D02*
X110523039Y-38788367D01*
X110475420Y-38835986D01*
X110427801Y-38788367D01*
X110475420Y-38740748D01*
X110475420Y-38835986D01*
X110856372Y-37835986D02*
X111523039Y-37835986D01*
X111094467Y-38835986D01*
X111903991Y-38835986D02*
X111903991Y-37835986D01*
X111999229Y-38455034D02*
X112284943Y-38835986D01*
X112284943Y-38169320D02*
X111903991Y-38550272D01*
D15*
X110623039Y-37064558D02*
X110489705Y-36874082D01*
X110394467Y-37064558D02*
X110394467Y-36664558D01*
X110546848Y-36664558D01*
X110584943Y-36683606D01*
X110603991Y-36702653D01*
X110623039Y-36740748D01*
X110623039Y-36797891D01*
X110603991Y-36835986D01*
X110584943Y-36855034D01*
X110546848Y-36874082D01*
X110394467Y-36874082D01*
X110775420Y-36702653D02*
X110794467Y-36683606D01*
X110832562Y-36664558D01*
X110927801Y-36664558D01*
X110965896Y-36683606D01*
X110984943Y-36702653D01*
X111003991Y-36740748D01*
X111003991Y-36778844D01*
X110984943Y-36835986D01*
X110756372Y-37064558D01*
X111003991Y-37064558D01*
X111384943Y-37064558D02*
X111156372Y-37064558D01*
X111270658Y-37064558D02*
X111270658Y-36664558D01*
X111232562Y-36721701D01*
X111194467Y-36759796D01*
X111156372Y-36778844D01*
G04 #@! TO.C,reset1*
D10*
X142452380Y-40119047D02*
X141785714Y-40119047D01*
X141976190Y-40119047D02*
X141880952Y-40071428D01*
X141833333Y-40023809D01*
X141785714Y-39928571D01*
X141785714Y-39833333D01*
X142404761Y-39119047D02*
X142452380Y-39214285D01*
X142452380Y-39404761D01*
X142404761Y-39500000D01*
X142309523Y-39547619D01*
X141928571Y-39547619D01*
X141833333Y-39500000D01*
X141785714Y-39404761D01*
X141785714Y-39214285D01*
X141833333Y-39119047D01*
X141928571Y-39071428D01*
X142023809Y-39071428D01*
X142119047Y-39547619D01*
X142404761Y-38690476D02*
X142452380Y-38595238D01*
X142452380Y-38404761D01*
X142404761Y-38309523D01*
X142309523Y-38261904D01*
X142261904Y-38261904D01*
X142166666Y-38309523D01*
X142119047Y-38404761D01*
X142119047Y-38547619D01*
X142071428Y-38642857D01*
X141976190Y-38690476D01*
X141928571Y-38690476D01*
X141833333Y-38642857D01*
X141785714Y-38547619D01*
X141785714Y-38404761D01*
X141833333Y-38309523D01*
X142404761Y-37452380D02*
X142452380Y-37547619D01*
X142452380Y-37738095D01*
X142404761Y-37833333D01*
X142309523Y-37880952D01*
X141928571Y-37880952D01*
X141833333Y-37833333D01*
X141785714Y-37738095D01*
X141785714Y-37547619D01*
X141833333Y-37452380D01*
X141928571Y-37404761D01*
X142023809Y-37404761D01*
X142119047Y-37880952D01*
X141785714Y-37119047D02*
X141785714Y-36738095D01*
X141452380Y-36976190D02*
X142309523Y-36976190D01*
X142404761Y-36928571D01*
X142452380Y-36833333D01*
X142452380Y-36738095D01*
X147452380Y-40595238D02*
X146785714Y-40595238D01*
X146976190Y-40595238D02*
X146880952Y-40547619D01*
X146833333Y-40500000D01*
X146785714Y-40404761D01*
X146785714Y-40309523D01*
X147404761Y-39595238D02*
X147452380Y-39690476D01*
X147452380Y-39880952D01*
X147404761Y-39976190D01*
X147309523Y-40023809D01*
X146928571Y-40023809D01*
X146833333Y-39976190D01*
X146785714Y-39880952D01*
X146785714Y-39690476D01*
X146833333Y-39595238D01*
X146928571Y-39547619D01*
X147023809Y-39547619D01*
X147119047Y-40023809D01*
X147404761Y-39166666D02*
X147452380Y-39071428D01*
X147452380Y-38880952D01*
X147404761Y-38785714D01*
X147309523Y-38738095D01*
X147261904Y-38738095D01*
X147166666Y-38785714D01*
X147119047Y-38880952D01*
X147119047Y-39023809D01*
X147071428Y-39119047D01*
X146976190Y-39166666D01*
X146928571Y-39166666D01*
X146833333Y-39119047D01*
X146785714Y-39023809D01*
X146785714Y-38880952D01*
X146833333Y-38785714D01*
X147404761Y-37928571D02*
X147452380Y-38023809D01*
X147452380Y-38214285D01*
X147404761Y-38309523D01*
X147309523Y-38357142D01*
X146928571Y-38357142D01*
X146833333Y-38309523D01*
X146785714Y-38214285D01*
X146785714Y-38023809D01*
X146833333Y-37928571D01*
X146928571Y-37880952D01*
X147023809Y-37880952D01*
X147119047Y-38357142D01*
X146785714Y-37595238D02*
X146785714Y-37214285D01*
X146452380Y-37452380D02*
X147309523Y-37452380D01*
X147404761Y-37404761D01*
X147452380Y-37309523D01*
X147452380Y-37214285D01*
X147452380Y-36357142D02*
X147452380Y-36928571D01*
X147452380Y-36642857D02*
X146452380Y-36642857D01*
X146595238Y-36738095D01*
X146690476Y-36833333D01*
X146738095Y-36928571D01*
G04 #@! TO.C,U2*
D18*
X127291561Y-56465447D02*
X127382990Y-56495923D01*
X127535371Y-56495923D01*
X127596323Y-56465447D01*
X127626800Y-56434971D01*
X127657276Y-56374019D01*
X127657276Y-56313066D01*
X127626800Y-56252114D01*
X127596323Y-56221638D01*
X127535371Y-56191161D01*
X127413466Y-56160685D01*
X127352514Y-56130209D01*
X127322038Y-56099733D01*
X127291561Y-56038780D01*
X127291561Y-55977828D01*
X127322038Y-55916876D01*
X127352514Y-55886400D01*
X127413466Y-55855923D01*
X127565847Y-55855923D01*
X127657276Y-55886400D01*
X127931561Y-56495923D02*
X127931561Y-55855923D01*
X128236323Y-56495923D02*
X128236323Y-55855923D01*
X128449657Y-56313066D01*
X128662990Y-55855923D01*
X128662990Y-56495923D01*
X128937276Y-55916876D02*
X128967752Y-55886400D01*
X129028704Y-55855923D01*
X129181085Y-55855923D01*
X129242038Y-55886400D01*
X129272514Y-55916876D01*
X129302990Y-55977828D01*
X129302990Y-56038780D01*
X129272514Y-56130209D01*
X128906800Y-56495923D01*
X129302990Y-56495923D01*
X129668704Y-56130209D02*
X129607752Y-56099733D01*
X129577276Y-56069257D01*
X129546800Y-56008304D01*
X129546800Y-55977828D01*
X129577276Y-55916876D01*
X129607752Y-55886400D01*
X129668704Y-55855923D01*
X129790609Y-55855923D01*
X129851561Y-55886400D01*
X129882038Y-55916876D01*
X129912514Y-55977828D01*
X129912514Y-56008304D01*
X129882038Y-56069257D01*
X129851561Y-56099733D01*
X129790609Y-56130209D01*
X129668704Y-56130209D01*
X129607752Y-56160685D01*
X129577276Y-56191161D01*
X129546800Y-56252114D01*
X129546800Y-56374019D01*
X129577276Y-56434971D01*
X129607752Y-56465447D01*
X129668704Y-56495923D01*
X129790609Y-56495923D01*
X129851561Y-56465447D01*
X129882038Y-56434971D01*
X129912514Y-56374019D01*
X129912514Y-56252114D01*
X129882038Y-56191161D01*
X129851561Y-56160685D01*
X129790609Y-56130209D01*
X130186800Y-56495923D02*
X130186800Y-55855923D01*
X130400133Y-56313066D01*
X130613466Y-55855923D01*
X130613466Y-56495923D01*
X131222990Y-56495923D02*
X130918228Y-56495923D01*
X130918228Y-55855923D01*
G04 #@! TO.C,U3*
D10*
X71345238Y-55202380D02*
X71345238Y-54202380D01*
X71583333Y-54202380D01*
X71726190Y-54250000D01*
X71821428Y-54345238D01*
X71869047Y-54440476D01*
X71916666Y-54630952D01*
X71916666Y-54773809D01*
X71869047Y-54964285D01*
X71821428Y-55059523D01*
X71726190Y-55154761D01*
X71583333Y-55202380D01*
X71345238Y-55202380D01*
X72250000Y-54202380D02*
X72488095Y-55202380D01*
X72678571Y-54488095D01*
X72869047Y-55202380D01*
X73107142Y-54202380D01*
X73488095Y-54821428D02*
X74250000Y-54821428D01*
X74916666Y-54202380D02*
X75011904Y-54202380D01*
X75107142Y-54250000D01*
X75154761Y-54297619D01*
X75202380Y-54392857D01*
X75250000Y-54583333D01*
X75250000Y-54821428D01*
X75202380Y-55011904D01*
X75154761Y-55107142D01*
X75107142Y-55154761D01*
X75011904Y-55202380D01*
X74916666Y-55202380D01*
X74821428Y-55154761D01*
X74773809Y-55107142D01*
X74726190Y-55011904D01*
X74678571Y-54821428D01*
X74678571Y-54583333D01*
X74726190Y-54392857D01*
X74773809Y-54297619D01*
X74821428Y-54250000D01*
X74916666Y-54202380D01*
X76202380Y-55202380D02*
X75630952Y-55202380D01*
X75916666Y-55202380D02*
X75916666Y-54202380D01*
X75821428Y-54345238D01*
X75726190Y-54440476D01*
X75630952Y-54488095D01*
D15*
X73476190Y-57630952D02*
X73880952Y-57630952D01*
X73928571Y-57607142D01*
X73952380Y-57583333D01*
X73976190Y-57535714D01*
X73976190Y-57440476D01*
X73952380Y-57392857D01*
X73928571Y-57369047D01*
X73880952Y-57345238D01*
X73476190Y-57345238D01*
X73476190Y-57154761D02*
X73476190Y-56845238D01*
X73666666Y-57011904D01*
X73666666Y-56940476D01*
X73690476Y-56892857D01*
X73714285Y-56869047D01*
X73761904Y-56845238D01*
X73880952Y-56845238D01*
X73928571Y-56869047D01*
X73952380Y-56892857D01*
X73976190Y-56940476D01*
X73976190Y-57083333D01*
X73952380Y-57130952D01*
X73928571Y-57154761D01*
G04 #@! TO.C,U4*
D18*
X91275105Y-59209461D02*
X91275105Y-58408660D01*
X92676507Y-58809060D02*
X91275105Y-58809060D01*
X92676507Y-57941526D02*
X91275105Y-57941526D01*
X91275105Y-57407658D01*
X91341839Y-57274191D01*
X91408572Y-57207458D01*
X91542039Y-57140724D01*
X91742239Y-57140724D01*
X91875706Y-57207458D01*
X91942439Y-57274191D01*
X92009173Y-57407658D01*
X92009173Y-57941526D01*
X92609774Y-56606857D02*
X92676507Y-56406657D01*
X92676507Y-56072990D01*
X92609774Y-55939523D01*
X92543040Y-55872789D01*
X92409573Y-55806056D01*
X92276107Y-55806056D01*
X92142640Y-55872789D01*
X92075906Y-55939523D01*
X92009173Y-56072990D01*
X91942439Y-56339923D01*
X91875706Y-56473390D01*
X91808973Y-56540124D01*
X91675506Y-56606857D01*
X91542039Y-56606857D01*
X91408572Y-56540124D01*
X91341839Y-56473390D01*
X91275105Y-56339923D01*
X91275105Y-56006256D01*
X91341839Y-55806056D01*
X91275105Y-54604854D02*
X91275105Y-54871788D01*
X91341839Y-55005255D01*
X91408572Y-55071988D01*
X91608772Y-55205455D01*
X91875706Y-55272188D01*
X92409573Y-55272188D01*
X92543040Y-55205455D01*
X92609774Y-55138722D01*
X92676507Y-55005255D01*
X92676507Y-54738321D01*
X92609774Y-54604854D01*
X92543040Y-54538121D01*
X92409573Y-54471387D01*
X92075906Y-54471387D01*
X91942439Y-54538121D01*
X91875706Y-54604854D01*
X91808973Y-54738321D01*
X91808973Y-55005255D01*
X91875706Y-55138722D01*
X91942439Y-55205455D01*
X92075906Y-55272188D01*
X91408572Y-53937520D02*
X91341839Y-53870786D01*
X91275105Y-53737320D01*
X91275105Y-53403652D01*
X91341839Y-53270186D01*
X91408572Y-53203452D01*
X91542039Y-53136719D01*
X91675506Y-53136719D01*
X91875706Y-53203452D01*
X92676507Y-54004253D01*
X92676507Y-53136719D01*
X91408572Y-52602851D02*
X91341839Y-52536118D01*
X91275105Y-52402651D01*
X91275105Y-52068984D01*
X91341839Y-51935517D01*
X91408572Y-51868784D01*
X91542039Y-51802050D01*
X91675506Y-51802050D01*
X91875706Y-51868784D01*
X92676507Y-52669585D01*
X92676507Y-51802050D01*
X92676507Y-51134716D02*
X92676507Y-50867782D01*
X92609774Y-50734315D01*
X92543040Y-50667582D01*
X92342840Y-50534115D01*
X92075906Y-50467382D01*
X91542039Y-50467382D01*
X91408572Y-50534115D01*
X91341839Y-50600848D01*
X91275105Y-50734315D01*
X91275105Y-51001249D01*
X91341839Y-51134716D01*
X91408572Y-51201449D01*
X91542039Y-51268183D01*
X91875706Y-51268183D01*
X92009173Y-51201449D01*
X92075906Y-51134716D01*
X92142640Y-51001249D01*
X92142640Y-50734315D01*
X92075906Y-50600848D01*
X92009173Y-50534115D01*
X91875706Y-50467382D01*
X92676507Y-49132713D02*
X92676507Y-49933514D01*
X92676507Y-49533114D02*
X91275105Y-49533114D01*
X91475305Y-49666580D01*
X91608772Y-49800047D01*
X91675506Y-49933514D01*
X92676507Y-48532112D02*
X91275105Y-48532112D01*
X91275105Y-48198445D01*
X91341839Y-47998245D01*
X91475305Y-47864778D01*
X91608772Y-47798044D01*
X91875706Y-47731311D01*
X92075906Y-47731311D01*
X92342840Y-47798044D01*
X92476307Y-47864778D01*
X92609774Y-47998245D01*
X92676507Y-48198445D01*
X92676507Y-48532112D01*
X92676507Y-46329909D02*
X92009173Y-46797043D01*
X92676507Y-47130710D02*
X91275105Y-47130710D01*
X91275105Y-46596843D01*
X91341839Y-46463376D01*
X91408572Y-46396642D01*
X91542039Y-46329909D01*
X91742239Y-46329909D01*
X91875706Y-46396642D01*
X91942439Y-46463376D01*
X92009173Y-46596843D01*
X92009173Y-47130710D01*
X91275105Y-45929508D02*
X92676507Y-45462374D01*
X91275105Y-44995240D01*
X92676507Y-43727305D02*
X92009173Y-44194439D01*
X92676507Y-44528106D02*
X91275105Y-44528106D01*
X91275105Y-43994239D01*
X91341839Y-43860772D01*
X91408572Y-43794039D01*
X91542039Y-43727305D01*
X91742239Y-43727305D01*
X91875706Y-43794039D01*
X91942439Y-43860772D01*
X92009173Y-43994239D01*
X92009173Y-44528106D01*
G04 #@! TO.C,U6*
D10*
X117181968Y-43008682D02*
X117181968Y-42532492D01*
X117467682Y-43103920D02*
X116467682Y-42770587D01*
X117467682Y-42437253D01*
X117467682Y-42103920D02*
X116467682Y-42103920D01*
X116467682Y-41865825D01*
X116515302Y-41722968D01*
X116610540Y-41627730D01*
X116705778Y-41580111D01*
X116896254Y-41532492D01*
X117039111Y-41532492D01*
X117229587Y-41580111D01*
X117324825Y-41627730D01*
X117420063Y-41722968D01*
X117467682Y-41865825D01*
X117467682Y-42103920D01*
X116467682Y-41199158D02*
X117467682Y-40532492D01*
X116467682Y-40532492D02*
X117467682Y-41199158D01*
X117467682Y-39675349D02*
X117467682Y-40151539D01*
X116467682Y-40151539D01*
X116467682Y-39437253D02*
X116467682Y-38818206D01*
X116848635Y-39151539D01*
X116848635Y-39008682D01*
X116896254Y-38913444D01*
X116943873Y-38865825D01*
X117039111Y-38818206D01*
X117277206Y-38818206D01*
X117372444Y-38865825D01*
X117420063Y-38913444D01*
X117467682Y-39008682D01*
X117467682Y-39294396D01*
X117420063Y-39389634D01*
X117372444Y-39437253D01*
X116801016Y-37961063D02*
X117467682Y-37961063D01*
X116420063Y-38199158D02*
X117134349Y-38437253D01*
X117134349Y-37818206D01*
X116467682Y-36961063D02*
X116467682Y-37437253D01*
X116943873Y-37484873D01*
X116896254Y-37437253D01*
X116848635Y-37342015D01*
X116848635Y-37103920D01*
X116896254Y-37008682D01*
X116943873Y-36961063D01*
X117039111Y-36913444D01*
X117277206Y-36913444D01*
X117372444Y-36961063D01*
X117420063Y-37008682D01*
X117467682Y-37103920D01*
X117467682Y-37342015D01*
X117420063Y-37437253D01*
X117372444Y-37484873D01*
X116943873Y-36151539D02*
X116991492Y-36008682D01*
X117039111Y-35961063D01*
X117134349Y-35913444D01*
X117277206Y-35913444D01*
X117372444Y-35961063D01*
X117420063Y-36008682D01*
X117467682Y-36103920D01*
X117467682Y-36484873D01*
X116467682Y-36484873D01*
X116467682Y-36151539D01*
X116515302Y-36056301D01*
X116562921Y-36008682D01*
X116658159Y-35961063D01*
X116753397Y-35961063D01*
X116848635Y-36008682D01*
X116896254Y-36056301D01*
X116943873Y-36151539D01*
X116943873Y-36484873D01*
X117372444Y-34913444D02*
X117420063Y-34961063D01*
X117467682Y-35103920D01*
X117467682Y-35199158D01*
X117420063Y-35342015D01*
X117324825Y-35437253D01*
X117229587Y-35484873D01*
X117039111Y-35532492D01*
X116896254Y-35532492D01*
X116705778Y-35484873D01*
X116610540Y-35437253D01*
X116515302Y-35342015D01*
X116467682Y-35199158D01*
X116467682Y-35103920D01*
X116515302Y-34961063D01*
X116562921Y-34913444D01*
X117372444Y-33913444D02*
X117420063Y-33961063D01*
X117467682Y-34103920D01*
X117467682Y-34199158D01*
X117420063Y-34342015D01*
X117324825Y-34437253D01*
X117229587Y-34484873D01*
X117039111Y-34532492D01*
X116896254Y-34532492D01*
X116705778Y-34484873D01*
X116610540Y-34437253D01*
X116515302Y-34342015D01*
X116467682Y-34199158D01*
X116467682Y-34103920D01*
X116515302Y-33961063D01*
X116562921Y-33913444D01*
X116467682Y-33580111D02*
X116467682Y-32913444D01*
X117467682Y-33580111D01*
X117467682Y-32913444D01*
D15*
X114241492Y-38365825D02*
X114646254Y-38365825D01*
X114693873Y-38342015D01*
X114717682Y-38318206D01*
X114741492Y-38270587D01*
X114741492Y-38175349D01*
X114717682Y-38127730D01*
X114693873Y-38103920D01*
X114646254Y-38080111D01*
X114241492Y-38080111D01*
X114241492Y-37627730D02*
X114241492Y-37722968D01*
X114265302Y-37770587D01*
X114289111Y-37794396D01*
X114360540Y-37842015D01*
X114455778Y-37865825D01*
X114646254Y-37865825D01*
X114693873Y-37842015D01*
X114717682Y-37818206D01*
X114741492Y-37770587D01*
X114741492Y-37675349D01*
X114717682Y-37627730D01*
X114693873Y-37603920D01*
X114646254Y-37580111D01*
X114527206Y-37580111D01*
X114479587Y-37603920D01*
X114455778Y-37627730D01*
X114431968Y-37675349D01*
X114431968Y-37770587D01*
X114455778Y-37818206D01*
X114479587Y-37842015D01*
X114527206Y-37865825D01*
G04 #@! TO.C,J1*
D10*
X61558571Y-55999999D02*
X61606190Y-55857142D01*
X61653809Y-55809523D01*
X61749047Y-55761904D01*
X61891904Y-55761904D01*
X61987142Y-55809523D01*
X62034761Y-55857142D01*
X62082380Y-55952380D01*
X62082380Y-56333333D01*
X61082380Y-56333333D01*
X61082380Y-55999999D01*
X61130000Y-55904761D01*
X61177619Y-55857142D01*
X61272857Y-55809523D01*
X61368095Y-55809523D01*
X61463333Y-55857142D01*
X61510952Y-55904761D01*
X61558571Y-55999999D01*
X61558571Y-56333333D01*
X61796666Y-55380952D02*
X61796666Y-54904761D01*
X62082380Y-55476190D02*
X61082380Y-55142857D01*
X62082380Y-54809523D01*
X61082380Y-54619047D02*
X61082380Y-54047619D01*
X62082380Y-54333333D02*
X61082380Y-54333333D01*
X61082380Y-53857142D02*
X61082380Y-53285714D01*
X62082380Y-53571428D02*
X61082380Y-53571428D01*
X61558571Y-52952380D02*
X61558571Y-52619047D01*
X62082380Y-52476190D02*
X62082380Y-52952380D01*
X61082380Y-52952380D01*
X61082380Y-52476190D01*
X62082380Y-51476190D02*
X61606190Y-51809523D01*
X62082380Y-52047619D02*
X61082380Y-52047619D01*
X61082380Y-51666666D01*
X61130000Y-51571428D01*
X61177619Y-51523809D01*
X61272857Y-51476190D01*
X61415714Y-51476190D01*
X61510952Y-51523809D01*
X61558571Y-51571428D01*
X61606190Y-51666666D01*
X61606190Y-52047619D01*
X61606190Y-50857142D02*
X62082380Y-50857142D01*
X61082380Y-51190476D02*
X61606190Y-50857142D01*
X61082380Y-50523809D01*
X64896666Y-52952380D02*
X64896666Y-53666666D01*
X64849047Y-53809523D01*
X64753809Y-53904761D01*
X64610952Y-53952380D01*
X64515714Y-53952380D01*
X65896666Y-53952380D02*
X65325238Y-53952380D01*
X65610952Y-53952380D02*
X65610952Y-52952380D01*
X65515714Y-53095238D01*
X65420476Y-53190476D01*
X65325238Y-53238095D01*
G04 #@! TO.C,JP1*
X93714285Y-47554761D02*
X93857142Y-47602380D01*
X94095238Y-47602380D01*
X94190476Y-47554761D01*
X94238095Y-47507142D01*
X94285714Y-47411904D01*
X94285714Y-47316666D01*
X94238095Y-47221428D01*
X94190476Y-47173809D01*
X94095238Y-47126190D01*
X93904761Y-47078571D01*
X93809523Y-47030952D01*
X93761904Y-46983333D01*
X93714285Y-46888095D01*
X93714285Y-46792857D01*
X93761904Y-46697619D01*
X93809523Y-46650000D01*
X93904761Y-46602380D01*
X94142857Y-46602380D01*
X94285714Y-46650000D01*
X95285714Y-47507142D02*
X95238095Y-47554761D01*
X95095238Y-47602380D01*
X95000000Y-47602380D01*
X94857142Y-47554761D01*
X94761904Y-47459523D01*
X94714285Y-47364285D01*
X94666666Y-47173809D01*
X94666666Y-47030952D01*
X94714285Y-46840476D01*
X94761904Y-46745238D01*
X94857142Y-46650000D01*
X95000000Y-46602380D01*
X95095238Y-46602380D01*
X95238095Y-46650000D01*
X95285714Y-46697619D01*
X95714285Y-47602380D02*
X95714285Y-46602380D01*
X96285714Y-47602380D02*
X95857142Y-47030952D01*
X96285714Y-46602380D02*
X95714285Y-47173809D01*
G04 #@! TO.C,JP3*
X93428571Y-46052380D02*
X93428571Y-45052380D01*
X93761904Y-45766666D01*
X94095238Y-45052380D01*
X94095238Y-46052380D01*
X94761904Y-45052380D02*
X94952380Y-45052380D01*
X95047619Y-45100000D01*
X95142857Y-45195238D01*
X95190476Y-45385714D01*
X95190476Y-45719047D01*
X95142857Y-45909523D01*
X95047619Y-46004761D01*
X94952380Y-46052380D01*
X94761904Y-46052380D01*
X94666666Y-46004761D01*
X94571428Y-45909523D01*
X94523809Y-45719047D01*
X94523809Y-45385714D01*
X94571428Y-45195238D01*
X94666666Y-45100000D01*
X94761904Y-45052380D01*
X95571428Y-46004761D02*
X95714285Y-46052380D01*
X95952380Y-46052380D01*
X96047619Y-46004761D01*
X96095238Y-45957142D01*
X96142857Y-45861904D01*
X96142857Y-45766666D01*
X96095238Y-45671428D01*
X96047619Y-45623809D01*
X95952380Y-45576190D01*
X95761904Y-45528571D01*
X95666666Y-45480952D01*
X95619047Y-45433333D01*
X95571428Y-45338095D01*
X95571428Y-45242857D01*
X95619047Y-45147619D01*
X95666666Y-45100000D01*
X95761904Y-45052380D01*
X96000000Y-45052380D01*
X96142857Y-45100000D01*
X96571428Y-46052380D02*
X96571428Y-45052380D01*
G04 #@! TO.C,JP4*
X93428571Y-48302380D02*
X93428571Y-47302380D01*
X93761904Y-48016666D01*
X94095238Y-47302380D01*
X94095238Y-48302380D01*
X94571428Y-48302380D02*
X94571428Y-47302380D01*
X95000000Y-48254761D02*
X95142857Y-48302380D01*
X95380952Y-48302380D01*
X95476190Y-48254761D01*
X95523809Y-48207142D01*
X95571428Y-48111904D01*
X95571428Y-48016666D01*
X95523809Y-47921428D01*
X95476190Y-47873809D01*
X95380952Y-47826190D01*
X95190476Y-47778571D01*
X95095238Y-47730952D01*
X95047619Y-47683333D01*
X95000000Y-47588095D01*
X95000000Y-47492857D01*
X95047619Y-47397619D01*
X95095238Y-47350000D01*
X95190476Y-47302380D01*
X95428571Y-47302380D01*
X95571428Y-47350000D01*
X96190476Y-47302380D02*
X96380952Y-47302380D01*
X96476190Y-47350000D01*
X96571428Y-47445238D01*
X96619047Y-47635714D01*
X96619047Y-47969047D01*
X96571428Y-48159523D01*
X96476190Y-48254761D01*
X96380952Y-48302380D01*
X96190476Y-48302380D01*
X96095238Y-48254761D01*
X96000000Y-48159523D01*
X95952380Y-47969047D01*
X95952380Y-47635714D01*
X96000000Y-47445238D01*
X96095238Y-47350000D01*
X96190476Y-47302380D01*
G04 #@! TO.C,8MHz1*
X103967560Y-66207739D02*
X103900216Y-66207739D01*
X103765529Y-66140395D01*
X103698186Y-66073052D01*
X103630842Y-65938365D01*
X103630842Y-65803678D01*
X103664514Y-65702663D01*
X103765529Y-65534304D01*
X103866544Y-65433289D01*
X104034903Y-65332273D01*
X104135918Y-65298602D01*
X104270605Y-65298602D01*
X104405292Y-65365945D01*
X104472636Y-65433289D01*
X104539979Y-65567976D01*
X104539979Y-65635319D01*
X104203262Y-66578128D02*
X104674666Y-66106724D01*
X104539979Y-66241411D02*
X104640995Y-66207739D01*
X104708338Y-66207739D01*
X104809353Y-66241411D01*
X104876697Y-66308754D01*
X105045056Y-66477113D02*
X104742010Y-67116876D01*
X105381773Y-66813830D02*
X104742010Y-67116876D01*
X104506308Y-67217892D01*
X104438964Y-67217892D01*
X104337949Y-67184220D01*
X105179743Y-67487266D02*
X105213414Y-67588281D01*
X105348101Y-67722968D01*
X105449117Y-67756640D01*
X105550132Y-67722968D01*
X105583804Y-67689296D01*
X105617476Y-67588281D01*
X105583804Y-67487266D01*
X105482789Y-67386250D01*
X105449117Y-67285235D01*
X105482789Y-67184220D01*
X105516460Y-67150548D01*
X105617476Y-67116876D01*
X105718491Y-67150548D01*
X105819506Y-67251563D01*
X105853178Y-67352579D01*
X106122552Y-67554609D02*
X106391926Y-67823983D01*
X106459269Y-67419922D02*
X105853178Y-68026014D01*
X105819506Y-68127029D01*
X105853178Y-68228044D01*
X105920521Y-68295388D01*
X106459269Y-68834136D02*
X106829659Y-68463746D01*
X106863330Y-68362731D01*
X106829659Y-68261716D01*
X106694972Y-68127029D01*
X106593956Y-68093357D01*
X106492941Y-68800464D02*
X106391926Y-68766792D01*
X106223567Y-68598433D01*
X106189895Y-68497418D01*
X106223567Y-68396403D01*
X106290911Y-68329059D01*
X106391926Y-68295388D01*
X106492941Y-68329059D01*
X106661300Y-68497418D01*
X106762315Y-68531090D01*
X106897002Y-69271868D02*
X106863330Y-69170853D01*
X106897002Y-69069838D01*
X107503094Y-68463746D01*
X106594799Y-63176440D02*
X106561127Y-63075425D01*
X106561127Y-63008081D01*
X106594799Y-62907066D01*
X106628470Y-62873394D01*
X106729486Y-62839722D01*
X106796829Y-62839722D01*
X106897844Y-62873394D01*
X107032531Y-63008081D01*
X107066203Y-63109096D01*
X107066203Y-63176440D01*
X107032531Y-63277455D01*
X106998860Y-63311127D01*
X106897844Y-63344799D01*
X106830501Y-63344799D01*
X106729486Y-63311127D01*
X106594799Y-63176440D01*
X106493783Y-63142768D01*
X106426440Y-63142768D01*
X106325425Y-63176440D01*
X106190738Y-63311127D01*
X106157066Y-63412142D01*
X106157066Y-63479486D01*
X106190738Y-63580501D01*
X106325425Y-63715188D01*
X106426440Y-63748860D01*
X106493783Y-63748860D01*
X106594799Y-63715188D01*
X106729486Y-63580501D01*
X106763157Y-63479486D01*
X106763157Y-63412142D01*
X106729486Y-63311127D01*
X106763157Y-64152921D02*
X107470264Y-63445814D01*
X107200890Y-64186592D01*
X107941669Y-63917218D01*
X107234562Y-64624325D01*
X107571279Y-64961043D02*
X108278386Y-64253936D01*
X107941669Y-64590653D02*
X108345730Y-64994715D01*
X107975341Y-65365104D02*
X108682447Y-64657997D01*
X108716119Y-65163073D02*
X109086508Y-65533463D01*
X108244715Y-65634478D01*
X108615104Y-66004867D01*
X109254867Y-66644630D02*
X108850806Y-66240569D01*
X109052837Y-66442600D02*
X109759943Y-65735493D01*
X109591585Y-65769165D01*
X109456898Y-65769165D01*
X109355882Y-65735493D01*
G04 #@! TD*
M02*
