M48
;DRILL file {KiCad (5.0.1-3-g963ef8bb5)} date 2020 May 04, Monday 17:29:10
;FORMAT={-:-/ absolute / inch / decimal}
FMAT,2
INCH,TZ
T1C0.0079
T2C0.0118
T3C0.0157
T4C0.0315
T5C0.0354
T6C0.0394
T7C0.0866
%
G90
G05
M72
T1
X3.502Y-2.5492
X3.5453Y-2.5492
T2
X3.0472Y-2.502
X3.0472Y-2.5335
X3.0472Y-2.565
X3.0472Y-2.5965
X3.0945Y-2.502
X3.0945Y-2.5335
X3.0945Y-2.565
X3.0945Y-2.5965
T3
X2.5098Y-1.4469
X2.5197Y-1.5551
X2.5492Y-1.6831
X2.5984Y-2.313
X2.5984Y-2.628
X2.6083Y-2.5689
X2.6575Y-1.6831
X2.6614Y-1.5236
X2.6614Y-1.5571
X2.6811Y-1.4921
X2.6811Y-1.5846
X2.6831Y-2.6909
X2.7067Y-2.4803
X2.7165Y-1.4902
X2.7165Y-1.5846
X2.7165Y-1.7421
X2.7441Y-2.6417
X2.748Y-1.4843
X2.75Y-1.5669
X2.7736Y-1.4606
X2.7795Y-1.5433
X2.7953Y-2.4606
X2.7992Y-1.437
X2.8071Y-1.5157
X2.8248Y-1.8701
X2.8327Y-1.4232
X2.8346Y-1.4921
X2.8445Y-2.3425
X2.8445Y-2.7461
X2.8681Y-1.4232
X2.8701Y-1.4921
X2.878Y-2.5787
X2.9035Y-1.4114
X2.9075Y-1.502
X2.9094Y-2.7205
X2.9134Y-2.372
X2.9232Y-2.4213
X2.9409Y-1.4114
X2.9429Y-1.502
X2.9783Y-1.4134
X2.9783Y-1.502
X3.Y-1.439
X3.Y-1.4724
X3.0079Y-2.2087
X3.061Y-2.7461
X3.1457Y-2.4291
X3.1654Y-2.2441
X3.2087Y-2.1063
X3.2185Y-2.5295
X3.2382Y-2.1949
X3.2795Y-2.5433
X3.2874Y-1.5256
X3.2874Y-2.4508
X3.2972Y-2.0866
X3.3169Y-2.6083
X3.3465Y-2.0374
X3.3858Y-2.7461
X3.4252Y-2.2343
X3.4252Y-2.5098
X3.4744Y-1.4469
X3.4744Y-1.9685
X3.4744Y-2.3425
X3.4843Y-2.4213
X3.5236Y-2.6476
X3.5236Y-2.7165
X3.5236Y-2.7953
X3.5433Y-2.2441
X3.6122Y-2.5492
X3.6319Y-2.4213
X3.6516Y-2.1358
X3.6713Y-2.3425
X3.6811Y-2.0374
X3.6811Y-2.0374
X3.6811Y-2.0374
X3.685Y-2.7283
X3.7205Y-1.4567
X3.7303Y-2.4311
X3.75Y-2.1752
X3.7992Y-2.313
X3.8189Y-1.6634
X3.8248Y-2.0177
X3.8287Y-1.8209
X3.8287Y-1.8996
X3.8484Y-2.185
X3.8563Y-2.4409
X3.8976Y-1.8799
X3.9075Y-2.0177
X3.9075Y-2.687
X3.9272Y-1.4961
X3.9272Y-1.8012
X3.937Y-2.3524
X3.9567Y-1.8602
X3.9567Y-2.4606
X3.9567Y-2.815
X3.9764Y-2.5866
X4.0059Y-2.0669
X4.0059Y-2.0669
X4.0059Y-2.0669
X4.0157Y-2.1654
X4.0354Y-1.5748
X4.0846Y-1.4665
X4.1043Y-2.3031
X4.1043Y-2.4803
X4.1142Y-1.7913
X4.124Y-2.1457
X4.1339Y-2.3425
X4.1634Y-2.6181
X4.1732Y-2.1358
X4.1831Y-2.4114
X4.1929Y-2.3524
X4.2028Y-2.2441
X4.2028Y-2.2933
X4.2028Y-2.5689
X4.2421Y-1.9587
X4.2559Y-2.1693
X4.2618Y-1.5945
X4.2618Y-2.4705
X4.2815Y-1.4862
X4.2815Y-2.5492
X4.3209Y-2.687
X4.3307Y-1.6437
X4.3307Y-1.9685
X4.3307Y-2.0965
X4.3406Y-1.752
X4.3701Y-1.4862
X4.3898Y-2.6083
X4.3996Y-2.2933
X4.4291Y-1.5152
X4.4291Y-1.5984
X4.4291Y-2.2539
X4.4291Y-2.2539
X4.439Y-1.4469
X4.439Y-1.8307
X4.439Y-2.185
X4.4449Y-1.9291
X4.4764Y-2.0551
X4.4764Y-2.3976
X4.4783Y-2.5492
X4.4882Y-2.185
X4.498Y-1.9685
X4.5079Y-2.815
X4.5276Y-1.5846
X4.5591Y-2.0079
X4.5669Y-2.313
X4.5965Y-2.5689
X4.6161Y-2.5295
X4.626Y-1.8504
X4.6457Y-1.5059
X4.689Y-2.0157
X4.6949Y-2.7362
X4.7146Y-2.4213
X4.7244Y-2.2146
X4.7343Y-2.4803
X4.7441Y-2.6654
X4.7539Y-1.4469
X4.7614Y-2.3425
X4.7638Y-1.9291
X4.7638Y-2.1181
X4.7638Y-2.5689
X4.7736Y-2.1949
X4.7736Y-2.1949
X4.813Y-2.1457
X4.813Y-2.815
X4.8228Y-1.7618
X4.8583Y-1.874
X4.8622Y-1.4567
X4.8917Y-1.7618
X4.8917Y-2.313
X4.9213Y-2.2441
X4.9311Y-1.624
X4.9606Y-2.4803
X4.9606Y-2.5886
X4.9705Y-1.624
X4.9803Y-2.3622
X5.0098Y-1.624
X5.0472Y-1.7441
X5.0492Y-1.624
X5.0689Y-2.2244
X5.0886Y-1.624
X5.128Y-1.624
X5.128Y-2.4311
X5.1476Y-2.7264
X5.1614Y-1.6693
X5.1673Y-1.624
X5.1772Y-2.1161
X5.2067Y-1.624
X5.2205Y-1.7402
X5.2461Y-1.6142
X5.2756Y-2.2244
X5.2854Y-1.6142
X5.2953Y-2.4606
X5.3248Y-1.6142
X5.3346Y-2.0669
X5.3543Y-1.8898
X5.3543Y-1.939
X5.3543Y-2.0079
X5.3543Y-2.126
X5.3642Y-1.6142
X5.3661Y-1.748
X5.374Y-2.0669
X5.3937Y-1.9291
X5.3937Y-2.0177
X5.3937Y-2.126
X5.4035Y-1.6142
X5.4035Y-2.687
X5.4035Y-2.687
X5.4035Y-2.687
X5.4134Y-2.0571
X5.4429Y-1.6142
X5.4429Y-2.5197
X5.4724Y-2.3327
X5.4823Y-1.6142
X5.4823Y-2.0965
X5.4843Y-1.7441
X5.4921Y-1.8819
X5.5Y-1.8071
X5.5118Y-2.1358
X5.5217Y-1.6142
X5.561Y-1.6142
X5.561Y-1.7028
X5.561Y-2.4606
X5.5906Y-2.687
X5.6004Y-1.6142
X5.6004Y-2.372
X5.6201Y-2.2539
X5.6299Y-2.0276
X5.6398Y-1.6437
X5.6791Y-1.5453
X5.6988Y-2.0866
X5.7283Y-2.7854
X5.7382Y-2.1654
X5.7382Y-2.4114
T4
X4.1831Y-2.4803
X4.3189Y-2.6162
T5
X5.5512Y-1.8488
X5.5512Y-1.9488
X4.0551Y-1.6967
X4.1551Y-1.6967
X2.6772Y-1.8504
X2.6772Y-1.9504
T6
X2.5181Y-2.1063
X2.6181Y-2.1063
T7
X3.0413Y-3.0118
X2.815Y-3.0118
T0
M30
