G04 #@! TF.GenerationSoftware,KiCad,Pcbnew,(5.0.1-3-g963ef8bb5)*
G04 #@! TF.CreationDate,2020-05-04T17:29:04+02:00*
G04 #@! TF.ProjectId,trackix,747261636B69782E6B696361645F7063,rev?*
G04 #@! TF.SameCoordinates,Original*
G04 #@! TF.FileFunction,Soldermask,Bot*
G04 #@! TF.FilePolarity,Negative*
%FSLAX46Y46*%
G04 Gerber Fmt 4.6, Leading zero omitted, Abs format (unit mm)*
G04 Created by KiCad (PCBNEW (5.0.1-3-g963ef8bb5)) date 2020 May 04, Monday 17:29:04*
%MOMM*%
%LPD*%
G01*
G04 APERTURE LIST*
%ADD10C,0.100000*%
G04 APERTURE END LIST*
D10*
G36*
X79757095Y-79000000D02*
X69132095Y-79000000D01*
X69132095Y-71000000D01*
X79757095Y-71000000D01*
X79757095Y-79000000D01*
X79757095Y-79000000D01*
G37*
G36*
X87851000Y-68951000D02*
X86749000Y-68951000D01*
X86749000Y-67849000D01*
X87851000Y-67849000D01*
X87851000Y-68951000D01*
X87851000Y-68951000D01*
G37*
G36*
X92851000Y-68951000D02*
X91749000Y-68951000D01*
X91749000Y-67849000D01*
X92851000Y-67849000D01*
X92851000Y-68951000D01*
X92851000Y-68951000D01*
G37*
G36*
X102551000Y-68051000D02*
X101449000Y-68051000D01*
X101449000Y-66949000D01*
X102551000Y-66949000D01*
X102551000Y-68051000D01*
X102551000Y-68051000D01*
G37*
G36*
X109934324Y-65680462D02*
X110080096Y-65740843D01*
X110211292Y-65828505D01*
X110322857Y-65940070D01*
X110410519Y-66071266D01*
X110470900Y-66217038D01*
X110501681Y-66371788D01*
X110501681Y-66529574D01*
X110470900Y-66684324D01*
X110410519Y-66830096D01*
X110322857Y-66961292D01*
X110211292Y-67072857D01*
X110080096Y-67160519D01*
X109934324Y-67220900D01*
X109779574Y-67251681D01*
X109621788Y-67251681D01*
X109467038Y-67220900D01*
X109321266Y-67160519D01*
X109190070Y-67072857D01*
X109078505Y-66961292D01*
X108990843Y-66830096D01*
X108930462Y-66684324D01*
X108899681Y-66529574D01*
X108899681Y-66371788D01*
X108930462Y-66217038D01*
X108990843Y-66071266D01*
X109078505Y-65940070D01*
X109190070Y-65828505D01*
X109321266Y-65740843D01*
X109467038Y-65680462D01*
X109621788Y-65649681D01*
X109779574Y-65649681D01*
X109934324Y-65680462D01*
X109934324Y-65680462D01*
G37*
G36*
X106483643Y-62229781D02*
X106629415Y-62290162D01*
X106760611Y-62377824D01*
X106872176Y-62489389D01*
X106959838Y-62620585D01*
X107020219Y-62766357D01*
X107051000Y-62921107D01*
X107051000Y-63078893D01*
X107020219Y-63233643D01*
X106959838Y-63379415D01*
X106872176Y-63510611D01*
X106760611Y-63622176D01*
X106629415Y-63709838D01*
X106483643Y-63770219D01*
X106328893Y-63801000D01*
X106171107Y-63801000D01*
X106016357Y-63770219D01*
X105870585Y-63709838D01*
X105739389Y-63622176D01*
X105627824Y-63510611D01*
X105540162Y-63379415D01*
X105479781Y-63233643D01*
X105449000Y-63078893D01*
X105449000Y-62921107D01*
X105479781Y-62766357D01*
X105540162Y-62620585D01*
X105627824Y-62489389D01*
X105739389Y-62377824D01*
X105870585Y-62290162D01*
X106016357Y-62229781D01*
X106171107Y-62199000D01*
X106328893Y-62199000D01*
X106483643Y-62229781D01*
X106483643Y-62229781D01*
G37*
G36*
X125551000Y-61051000D02*
X124449000Y-61051000D01*
X124449000Y-59949000D01*
X125551000Y-59949000D01*
X125551000Y-61051000D01*
X125551000Y-61051000D01*
G37*
G36*
X92551000Y-60551000D02*
X91449000Y-60551000D01*
X91449000Y-59449000D01*
X92551000Y-59449000D01*
X92551000Y-60551000D01*
X92551000Y-60551000D01*
G37*
G36*
X67401000Y-54401000D02*
X65599000Y-54401000D01*
X65599000Y-52599000D01*
X67401000Y-52599000D01*
X67401000Y-54401000D01*
X67401000Y-54401000D01*
G37*
G36*
X64070443Y-52605519D02*
X64136627Y-52612037D01*
X64249853Y-52646384D01*
X64306467Y-52663557D01*
X64445087Y-52737652D01*
X64462991Y-52747222D01*
X64498729Y-52776552D01*
X64600186Y-52859814D01*
X64683448Y-52961271D01*
X64712778Y-52997009D01*
X64712779Y-52997011D01*
X64796443Y-53153533D01*
X64796443Y-53153534D01*
X64847963Y-53323373D01*
X64865359Y-53500000D01*
X64847963Y-53676627D01*
X64813616Y-53789853D01*
X64796443Y-53846467D01*
X64722348Y-53985087D01*
X64712778Y-54002991D01*
X64683448Y-54038729D01*
X64600186Y-54140186D01*
X64498729Y-54223448D01*
X64462991Y-54252778D01*
X64462989Y-54252779D01*
X64306467Y-54336443D01*
X64249853Y-54353616D01*
X64136627Y-54387963D01*
X64070443Y-54394481D01*
X64004260Y-54401000D01*
X63915740Y-54401000D01*
X63849557Y-54394481D01*
X63783373Y-54387963D01*
X63670147Y-54353616D01*
X63613533Y-54336443D01*
X63457011Y-54252779D01*
X63457009Y-54252778D01*
X63421271Y-54223448D01*
X63319814Y-54140186D01*
X63236552Y-54038729D01*
X63207222Y-54002991D01*
X63197652Y-53985087D01*
X63123557Y-53846467D01*
X63106384Y-53789853D01*
X63072037Y-53676627D01*
X63054641Y-53500000D01*
X63072037Y-53323373D01*
X63123557Y-53153534D01*
X63123557Y-53153533D01*
X63207221Y-52997011D01*
X63207222Y-52997009D01*
X63236552Y-52961271D01*
X63319814Y-52859814D01*
X63421271Y-52776552D01*
X63457009Y-52747222D01*
X63474913Y-52737652D01*
X63613533Y-52663557D01*
X63670147Y-52646384D01*
X63783373Y-52612037D01*
X63849557Y-52605519D01*
X63915740Y-52599000D01*
X64004260Y-52599000D01*
X64070443Y-52605519D01*
X64070443Y-52605519D01*
G37*
G36*
X110051000Y-52551000D02*
X108949000Y-52551000D01*
X108949000Y-51449000D01*
X110051000Y-51449000D01*
X110051000Y-52551000D01*
X110051000Y-52551000D01*
G37*
G36*
X105051000Y-52551000D02*
X103949000Y-52551000D01*
X103949000Y-51449000D01*
X105051000Y-51449000D01*
X105051000Y-52551000D01*
X105051000Y-52551000D01*
G37*
G36*
X68277396Y-48625546D02*
X68450466Y-48697234D01*
X68606230Y-48801312D01*
X68738688Y-48933770D01*
X68842766Y-49089534D01*
X68914454Y-49262604D01*
X68951000Y-49446333D01*
X68951000Y-49633667D01*
X68914454Y-49817396D01*
X68842766Y-49990466D01*
X68738688Y-50146230D01*
X68606230Y-50278688D01*
X68450466Y-50382766D01*
X68277396Y-50454454D01*
X68093667Y-50491000D01*
X67906333Y-50491000D01*
X67722604Y-50454454D01*
X67549534Y-50382766D01*
X67393770Y-50278688D01*
X67261312Y-50146230D01*
X67157234Y-49990466D01*
X67085546Y-49817396D01*
X67049000Y-49633667D01*
X67049000Y-49446333D01*
X67085546Y-49262604D01*
X67157234Y-49089534D01*
X67261312Y-48933770D01*
X67393770Y-48801312D01*
X67549534Y-48697234D01*
X67722604Y-48625546D01*
X67906333Y-48589000D01*
X68093667Y-48589000D01*
X68277396Y-48625546D01*
X68277396Y-48625546D01*
G37*
G36*
X141951000Y-50451000D02*
X140049000Y-50451000D01*
X140049000Y-48549000D01*
X141951000Y-48549000D01*
X141951000Y-50451000D01*
X141951000Y-50451000D01*
G37*
G36*
X68951000Y-47951000D02*
X67049000Y-47951000D01*
X67049000Y-46049000D01*
X68951000Y-46049000D01*
X68951000Y-47951000D01*
X68951000Y-47951000D01*
G37*
G36*
X141277396Y-46045546D02*
X141450466Y-46117234D01*
X141606230Y-46221312D01*
X141738688Y-46353770D01*
X141842766Y-46509534D01*
X141914454Y-46682604D01*
X141951000Y-46866333D01*
X141951000Y-47053667D01*
X141914454Y-47237396D01*
X141842766Y-47410466D01*
X141738688Y-47566230D01*
X141606230Y-47698688D01*
X141450466Y-47802766D01*
X141277396Y-47874454D01*
X141093667Y-47911000D01*
X140906333Y-47911000D01*
X140722604Y-47874454D01*
X140549534Y-47802766D01*
X140393770Y-47698688D01*
X140261312Y-47566230D01*
X140157234Y-47410466D01*
X140085546Y-47237396D01*
X140049000Y-47053667D01*
X140049000Y-46866333D01*
X140085546Y-46682604D01*
X140157234Y-46509534D01*
X140261312Y-46353770D01*
X140393770Y-46221312D01*
X140549534Y-46117234D01*
X140722604Y-46045546D01*
X140906333Y-46009000D01*
X141093667Y-46009000D01*
X141277396Y-46045546D01*
X141277396Y-46045546D01*
G37*
G36*
X105817396Y-42181547D02*
X105990466Y-42253235D01*
X106146230Y-42357313D01*
X106278688Y-42489771D01*
X106382766Y-42645535D01*
X106454454Y-42818605D01*
X106491000Y-43002334D01*
X106491000Y-43189668D01*
X106454454Y-43373397D01*
X106382766Y-43546467D01*
X106278688Y-43702231D01*
X106146230Y-43834689D01*
X105990466Y-43938767D01*
X105817396Y-44010455D01*
X105633667Y-44047001D01*
X105446333Y-44047001D01*
X105262604Y-44010455D01*
X105089534Y-43938767D01*
X104933770Y-43834689D01*
X104801312Y-43702231D01*
X104697234Y-43546467D01*
X104625546Y-43373397D01*
X104589000Y-43189668D01*
X104589000Y-43002334D01*
X104625546Y-42818605D01*
X104697234Y-42645535D01*
X104801312Y-42489771D01*
X104933770Y-42357313D01*
X105089534Y-42253235D01*
X105262604Y-42181547D01*
X105446333Y-42145001D01*
X105633667Y-42145001D01*
X105817396Y-42181547D01*
X105817396Y-42181547D01*
G37*
G36*
X103951000Y-44047001D02*
X102049000Y-44047001D01*
X102049000Y-42145001D01*
X103951000Y-42145001D01*
X103951000Y-44047001D01*
X103951000Y-44047001D01*
G37*
G36*
X142500000Y-42500000D02*
X133000000Y-42500000D01*
X133000000Y-40000000D01*
X142500000Y-40000000D01*
X142500000Y-42500000D01*
X142500000Y-42500000D01*
G37*
M02*
