M48
;DRILL file {KiCad (5.0.1-3-g963ef8bb5)} date 2020 September 15, Tuesday 14:43:21
;FORMAT={-:-/ absolute / inch / decimal}
FMAT,2
INCH,TZ
T1C0.0079
T2C0.0118
T3C0.0157
T4C0.0354
T5C0.0394
T6C0.0866
%
G90
G05
M72
T1
X6.8799Y-4.7854
X6.8799Y-4.8287
T2
X6.1476Y-4.7047
X6.1476Y-4.7362
X6.1476Y-4.7677
X6.1476Y-4.7992
X6.1949Y-4.7047
X6.1949Y-4.7362
X6.1949Y-4.7677
X6.1949Y-4.7992
T3
X5.3642Y-4.8051
X5.372Y-4.9665
X5.376Y-4.3425
X5.376Y-4.8996
X5.3976Y-4.685
X5.4154Y-4.9508
X5.4626Y-3.9862
X5.4646Y-4.9311
X5.4744Y-3.8602
X5.4744Y-4.498
X5.4823Y-4.3228
X5.4862Y-4.9862
X5.5217Y-4.6772
X5.5374Y-4.4154
X5.5571Y-4.3799
X5.5709Y-3.7224
X5.6043Y-4.6713
X5.6102Y-4.8307
X5.6319Y-4.3209
X5.6398Y-4.4783
X5.6614Y-3.8386
X5.6614Y-3.8386
X5.6614Y-3.8386
X5.6988Y-4.1122
X5.7067Y-4.939
X5.7972Y-3.8465
X5.8051Y-4.7815
X5.813Y-4.0256
X5.8366Y-4.9193
X5.8425Y-3.75
X5.8484Y-4.1201
X5.8524Y-4.1949
X5.8957Y-3.8051
X5.9193Y-4.6555
X5.9685Y-3.7165
X5.9961Y-4.935
X6.002Y-4.6693
X6.0669Y-4.6161
X6.0728Y-3.7579
X6.0728Y-3.7913
X6.0728Y-4.4961
X6.0728Y-4.4961
X6.0728Y-4.4961
X6.0846Y-3.7264
X6.0846Y-3.8228
X6.0925Y-4.3406
X6.1122Y-4.937
X6.1181Y-3.7264
X6.1516Y-3.7244
X6.1654Y-4.4961
X6.185Y-3.7244
X6.1988Y-4.6181
X6.2146Y-4.3642
X6.2185Y-3.7303
X6.2224Y-3.8189
X6.2382Y-4.9823
X6.252Y-3.7303
X6.2559Y-3.8189
X6.2579Y-4.5866
X6.2756Y-4.8839
X6.2854Y-3.7303
X6.2913Y-5.063
X6.3071Y-3.8169
X6.3189Y-3.7303
X6.3205Y-4.8583
X6.3425Y-3.8248
X6.3445Y-4.4685
X6.3465Y-4.6614
X6.3524Y-3.7283
X6.3543Y-3.8583
X6.3819Y-4.8839
X6.3957Y-4.7539
X6.3996Y-4.2992
X6.4055Y-3.7598
X6.4055Y-3.7933
X6.4055Y-3.9173
X6.4685Y-4.8917
X6.4764Y-3.9606
X6.4902Y-4.2835
X6.5Y-4.4626
X6.5177Y-3.7795
X6.5197Y-4.1614
X6.5295Y-4.3346
X6.5571Y-4.4016
X6.5591Y-3.9016
X6.5866Y-3.7894
X6.5921Y-4.2559
X6.6004Y-4.1732
X6.6063Y-4.876
X6.6063Y-4.876
X6.6063Y-4.876
X6.6437Y-4.5965
X6.6496Y-3.7283
X6.6575Y-4.7579
X6.6831Y-3.7579
X6.6909Y-4.1752
X6.6969Y-3.9547
X6.7205Y-5.0728
X6.7323Y-4.502
X6.7382Y-4.3479
X6.7559Y-4.9764
X6.7776Y-3.7323
X6.8031Y-3.8917
X6.8064Y-4.9035
X6.8091Y-4.3445
X6.857Y-4.4869
X6.8583Y-4.2461
X6.8819Y-4.439
X6.8878Y-4.9232
X6.903Y-4.6949
X6.9272Y-3.7244
X6.9291Y-4.3169
X6.937Y-3.8366
X6.937Y-4.4035
X6.9449Y-4.6024
X6.9567Y-4.8091
X6.9606Y-5.0138
X6.9744Y-5.0138
X6.9902Y-4.7047
X6.9902Y-4.7677
X7.002Y-4.1594
X7.0136Y-4.5593
X7.0335Y-4.9744
X7.0374Y-4.8484
X7.0413Y-4.9193
X7.0531Y-4.6594
X7.0689Y-4.0531
X7.0728Y-4.7829
X7.0728Y-5.0315
X7.0925Y-4.8839
X7.0925Y-4.9154
X7.0925Y-4.9744
X7.1063Y-4.8366
X7.1102Y-4.7008
X7.1102Y-4.7874
X7.1122Y-4.4744
X7.1122Y-4.6516
X7.128Y-4.1417
X7.1358Y-3.7087
X7.1358Y-3.7087
X7.1358Y-3.7087
X7.1437Y-4.2047
X7.1516Y-4.3169
X7.1535Y-3.7756
X7.1555Y-4.1004
X7.1594Y-4.9429
X7.2087Y-4.1898
X7.2146Y-3.811
X7.2283Y-4.8819
X7.2323Y-4.2874
X7.2441Y-4.1339
X7.2559Y-4.9252
X7.2618Y-4.2283
X7.2618Y-5.0571
X7.3071Y-3.9035
X7.3917Y-3.7638
X7.4055Y-3.9862
X7.4614Y-3.8661
X7.4882Y-3.7854
X7.5354Y-3.7087
X7.5433Y-5.0217
X7.561Y-3.8327
X7.565Y-3.748
X7.5728Y-4.0059
X7.7402Y-3.8012
X7.7657Y-3.7008
X7.7697Y-3.7618
X7.7697Y-3.9291
X7.7835Y-3.9803
X7.8366Y-3.8957
X7.874Y-3.8957
X7.9094Y-4.
X7.9114Y-3.8957
X7.9488Y-3.8957
X7.9862Y-3.8957
X8.0138Y-3.998
X8.0217Y-3.8957
X8.0374Y-5.0217
X8.0591Y-3.8957
X8.1004Y-3.8957
X8.1614Y-3.8878
X8.1791Y-3.9213
X8.1949Y-3.8878
X8.2126Y-3.9213
X8.2283Y-3.8878
X8.2461Y-3.9213
X8.2618Y-3.8878
X8.2795Y-3.9213
X8.2953Y-3.8878
X8.3071Y-4.0079
X8.313Y-3.9213
X8.3287Y-3.8878
X8.3465Y-3.9213
X8.3504Y-4.9843
X8.3622Y-3.8878
X8.3799Y-3.9213
X8.3858Y-4.1358
X8.3957Y-3.8878
X8.4134Y-3.9213
X8.4291Y-3.8878
X8.4469Y-3.9213
X8.4626Y-3.8878
X8.4724Y-4.0197
X8.4724Y-4.8346
X8.4803Y-3.9213
X8.4862Y-4.4843
X8.4862Y-4.4843
X8.4862Y-4.4843
X8.4902Y-4.9843
X8.4961Y-3.8878
X8.5039Y-5.0768
X8.5177Y-3.9528
X8.5335Y-4.9252
X8.5413Y-4.2913
X8.5866Y-3.8248
X8.5866Y-4.624
X8.6142Y-5.0728
X8.6496Y-4.0098
T4
X5.5827Y-4.122
X5.5827Y-4.222
X6.9606Y-3.9683
X7.0606Y-3.9683
X8.4567Y-4.1205
X8.4567Y-4.2205
T5
X5.938Y-4.4577
X5.938Y-4.5577
X8.3725Y-4.3864
X8.3725Y-4.4864
X8.3725Y-4.5864
X8.3725Y-4.6864
X8.3725Y-4.7864
X8.3725Y-4.8864
X7.2308Y-4.3801
X7.2308Y-4.4801
X7.2308Y-4.5801
X7.2308Y-4.6801
X7.2308Y-4.7801
T6
X5.7205Y-5.2835
X5.9469Y-5.2835
T0
M30
