G04 #@! TF.GenerationSoftware,KiCad,Pcbnew,(5.0.1-3-g963ef8bb5)*
G04 #@! TF.CreationDate,2020-05-04T17:29:04+02:00*
G04 #@! TF.ProjectId,trackix,747261636B69782E6B696361645F7063,rev?*
G04 #@! TF.SameCoordinates,Original*
G04 #@! TF.FileFunction,Copper,L2,Bot,Signal*
G04 #@! TF.FilePolarity,Positive*
%FSLAX46Y46*%
G04 Gerber Fmt 4.6, Leading zero omitted, Abs format (unit mm)*
G04 Created by KiCad (PCBNEW (5.0.1-3-g963ef8bb5)) date 2020 May 04, Monday 17:29:04*
%MOMM*%
%LPD*%
G01*
G04 APERTURE LIST*
G04 #@! TA.AperFunction,ComponentPad*
%ADD10C,1.800000*%
G04 #@! TD*
G04 #@! TA.AperFunction,ComponentPad*
%ADD11R,1.800000X1.800000*%
G04 #@! TD*
G04 #@! TA.AperFunction,ComponentPad*
%ADD12C,3.800000*%
G04 #@! TD*
G04 #@! TA.AperFunction,ViaPad*
%ADD13C,0.600000*%
G04 #@! TD*
G04 #@! TA.AperFunction,Conductor*
%ADD14R,2.950000X4.500000*%
G04 #@! TD*
G04 #@! TA.AperFunction,SMDPad,CuDef*
%ADD15R,1.000000X1.000000*%
G04 #@! TD*
G04 #@! TA.AperFunction,ViaPad*
%ADD16C,0.400000*%
G04 #@! TD*
G04 #@! TA.AperFunction,ComponentPad*
%ADD17O,1.700000X1.700000*%
G04 #@! TD*
G04 #@! TA.AperFunction,ComponentPad*
%ADD18R,1.700000X1.700000*%
G04 #@! TD*
G04 #@! TA.AperFunction,ComponentPad*
%ADD19C,1.500000*%
G04 #@! TD*
G04 #@! TA.AperFunction,ViaPad*
%ADD20C,0.800000*%
G04 #@! TD*
G04 #@! TA.AperFunction,Conductor*
%ADD21C,0.500000*%
G04 #@! TD*
G04 #@! TA.AperFunction,Conductor*
%ADD22C,0.250000*%
G04 #@! TD*
G04 #@! TA.AperFunction,Conductor*
%ADD23C,2.000000*%
G04 #@! TD*
G04 #@! TA.AperFunction,Conductor*
%ADD24C,3.800000*%
G04 #@! TD*
G04 #@! TA.AperFunction,Conductor*
%ADD25C,0.125000*%
G04 #@! TD*
G04 #@! TA.AperFunction,Conductor*
%ADD26C,0.254000*%
G04 #@! TD*
G04 APERTURE END LIST*
D10*
G04 #@! TO.P,D4,2*
G04 #@! TO.N,Net-(D4-Pad2)*
X68000000Y-49540000D03*
D11*
G04 #@! TO.P,D4,1*
G04 #@! TO.N,Net-(D4-Pad1)*
X68000000Y-47000000D03*
G04 #@! TD*
G04 #@! TO.P,D5,1*
G04 #@! TO.N,Net-(D4-Pad1)*
X141000000Y-49500000D03*
D10*
G04 #@! TO.P,D5,2*
G04 #@! TO.N,Net-(D5-Pad2)*
X141000000Y-46960000D03*
G04 #@! TD*
G04 #@! TO.P,D6,2*
G04 #@! TO.N,Net-(D6-Pad2)*
X105540000Y-43096001D03*
D11*
G04 #@! TO.P,D6,1*
G04 #@! TO.N,Net-(D4-Pad1)*
X103000000Y-43096001D03*
G04 #@! TD*
D12*
G04 #@! TO.P,H1,1*
G04 #@! TO.N,DYNAMO_A*
X71500000Y-76500000D03*
G04 #@! TD*
G04 #@! TO.P,H2,1*
G04 #@! TO.N,DYNAMO_B*
X77250000Y-76500000D03*
G04 #@! TD*
D13*
G04 #@! TO.N,N/C*
G04 #@! TO.C,IC2*
X77400000Y-63550000D03*
X77400000Y-64350000D03*
X78600000Y-64350000D03*
X78600000Y-63550000D03*
X77400000Y-65950000D03*
X77400000Y-65150000D03*
X78600000Y-65150000D03*
X78600000Y-65950000D03*
D14*
X78000000Y-64750000D03*
G04 #@! TD*
D15*
G04 #@! TO.P,TP1,1*
G04 #@! TO.N,DYNAMO_A*
X71500000Y-72250000D03*
G04 #@! TD*
G04 #@! TO.P,TP2,1*
G04 #@! TO.N,DYNAMO_B*
X77250000Y-72250000D03*
G04 #@! TD*
G04 #@! TO.P,TP3,1*
G04 #@! TO.N,GND*
X87300000Y-68400000D03*
G04 #@! TD*
G04 #@! TO.P,TP4,1*
G04 #@! TO.N,CHARGE_DETECT*
X102000000Y-67500000D03*
G04 #@! TD*
G04 #@! TO.P,TP5,1*
G04 #@! TO.N,AUX_ON*
X92000000Y-60000000D03*
G04 #@! TD*
G04 #@! TO.P,TP6,1*
G04 #@! TO.N,GPS_TX*
X125000000Y-60500000D03*
G04 #@! TD*
G04 #@! TO.P,TP7,1*
G04 #@! TO.N,Net-(TP7-Pad1)*
X109500000Y-52000000D03*
G04 #@! TD*
G04 #@! TO.P,TP8,1*
G04 #@! TO.N,Net-(TP8-Pad1)*
X104500000Y-52000000D03*
G04 #@! TD*
D16*
G04 #@! TO.N,N/C*
G04 #@! TO.C,U4*
X88950000Y-64750000D03*
X90050000Y-64750000D03*
G04 #@! TD*
D17*
G04 #@! TO.P,J1,2*
G04 #@! TO.N,+BATT*
X63960000Y-53500000D03*
D18*
G04 #@! TO.P,J1,1*
G04 #@! TO.N,-BATT*
X66500000Y-53500000D03*
G04 #@! TD*
D19*
G04 #@! TO.P,8MHz1,2*
G04 #@! TO.N,Net-(8MHz1-Pad2)*
X109700681Y-66450681D03*
G04 #@! TO.P,8MHz1,1*
G04 #@! TO.N,Net-(8MHz1-Pad1)*
X106250000Y-63000000D03*
G04 #@! TD*
D15*
G04 #@! TO.P,TP9,1*
G04 #@! TO.N,+3V3*
X92300000Y-68400000D03*
G04 #@! TD*
D20*
G04 #@! TO.N,*
X134250000Y-41000000D03*
X135250000Y-41000000D03*
X136250000Y-41000000D03*
X137250000Y-41000000D03*
X138250000Y-41000000D03*
X139250000Y-41000000D03*
X140250000Y-41000000D03*
X141250000Y-41000000D03*
X133250000Y-41000000D03*
X142250000Y-41000000D03*
G04 #@! TO.N,+BATT*
X121250000Y-55750000D03*
X121250000Y-55750000D03*
X142250000Y-60250000D03*
X87000000Y-56750000D03*
X88250000Y-59500000D03*
G04 #@! TO.N,GND*
X68100000Y-37900000D03*
X68100000Y-40250000D03*
X123400000Y-47600000D03*
X100500000Y-47250000D03*
X99250000Y-51250000D03*
X111750000Y-58250000D03*
X102500000Y-40000000D03*
X108250000Y-40500000D03*
X118000000Y-38250000D03*
X120750000Y-36750000D03*
X125250000Y-41250000D03*
X126250000Y-41250000D03*
X127250000Y-41250000D03*
X128250000Y-41250000D03*
X129250000Y-41250000D03*
X130250000Y-41250000D03*
X131250000Y-41250000D03*
X132250000Y-41250000D03*
X123500000Y-37000000D03*
X144250000Y-39250000D03*
X143250000Y-41750000D03*
X141250000Y-43250000D03*
X136000000Y-51000000D03*
X136000000Y-48000000D03*
X131500000Y-53750000D03*
X128750000Y-56500000D03*
X134000000Y-56500000D03*
X139000000Y-59250000D03*
X142750000Y-57250000D03*
X144750000Y-53000000D03*
X143000000Y-51500000D03*
X142000000Y-68250000D03*
X145500000Y-70750000D03*
X145750000Y-61250000D03*
X145750000Y-55000000D03*
X137250000Y-68250000D03*
X137250000Y-68250000D03*
X137250000Y-68250000D03*
X134500000Y-62500000D03*
X138250000Y-64000000D03*
X130750000Y-69250000D03*
X126000000Y-65750000D03*
X121000000Y-65250000D03*
X119250000Y-69500000D03*
X114500000Y-71500000D03*
X122250000Y-71500000D03*
X116750000Y-65250000D03*
X106250000Y-61250000D03*
X99250000Y-68250000D03*
X100500000Y-71500000D03*
X89500000Y-67250000D03*
X89500000Y-69000000D03*
X86000000Y-69750000D03*
X84250000Y-66250000D03*
X83300000Y-64600000D03*
X81750000Y-64250000D03*
X83500000Y-62250000D03*
X82250000Y-55750000D03*
X81500000Y-53500000D03*
X68750000Y-63000000D03*
X71000000Y-62500000D03*
X66000000Y-58750000D03*
X74000000Y-60250000D03*
X72250000Y-59500000D03*
X74250000Y-61500000D03*
X66250000Y-65250000D03*
X66000000Y-66750000D03*
X64000000Y-39500000D03*
X64750000Y-42750000D03*
X69000000Y-44250000D03*
X67500000Y-42750000D03*
X63750000Y-36750000D03*
X83500000Y-38750000D03*
X88250000Y-50000000D03*
X88250000Y-36750000D03*
X94500000Y-37000000D03*
X99750000Y-38000000D03*
X103750000Y-37250000D03*
X108750000Y-37750000D03*
X110000000Y-41750000D03*
X110250000Y-44500000D03*
X112750000Y-46500000D03*
X107750000Y-49750000D03*
X101750000Y-52500000D03*
X101750000Y-52500000D03*
X101750000Y-52500000D03*
X104750000Y-54500000D03*
X105000000Y-59500000D03*
X93500000Y-51750000D03*
X93500000Y-51750000D03*
X93500000Y-51750000D03*
X117500000Y-47000000D03*
X121000000Y-49000000D03*
X124250000Y-44750000D03*
X99750000Y-45750000D03*
X104500000Y-45500000D03*
X125000000Y-57000000D03*
X124250000Y-58750000D03*
X126000000Y-63000000D03*
X101000000Y-65700000D03*
X96500000Y-58750000D03*
X97750000Y-55500000D03*
X106000000Y-54250000D03*
X95250000Y-55250000D03*
X100500000Y-62500000D03*
X106750000Y-65250000D03*
X109750000Y-68250000D03*
X111500000Y-66250000D03*
X104250000Y-63000000D03*
X108250000Y-62750000D03*
X108750000Y-64750000D03*
X105750000Y-66500000D03*
X136000000Y-54000000D03*
X137000000Y-54000000D03*
X137000000Y-51250000D03*
X137500000Y-52250000D03*
X135500000Y-52500000D03*
X136500000Y-52500000D03*
X139250000Y-53250000D03*
X140000000Y-54250000D03*
X136000000Y-49250000D03*
X137000000Y-49000000D03*
X87000000Y-63750000D03*
X90000000Y-57000000D03*
X93250000Y-59500000D03*
X92750000Y-54250000D03*
X91750000Y-64750000D03*
X94750000Y-61750000D03*
X88500000Y-61500000D03*
X89500000Y-71000000D03*
X74750000Y-38150000D03*
X119100000Y-51200000D03*
X121000000Y-53800000D03*
X113700000Y-60900000D03*
X120500000Y-67700000D03*
X112500000Y-40600000D03*
X139300000Y-44300000D03*
X139500000Y-47800000D03*
X139700000Y-45900000D03*
X80400000Y-57000000D03*
X76400000Y-56100000D03*
X136300000Y-44400000D03*
X131100000Y-42400000D03*
X132600000Y-44200000D03*
X128200000Y-44300000D03*
X113700000Y-52200000D03*
X112900000Y-49000000D03*
X115800000Y-51000000D03*
X73100000Y-65500000D03*
X69700000Y-67100000D03*
X73900000Y-69100000D03*
X70450000Y-37100000D03*
X69800000Y-37700000D03*
X71100000Y-36500000D03*
X71950000Y-36150000D03*
X72850000Y-36150000D03*
X72900000Y-37900000D03*
X72000000Y-37900000D03*
X71300000Y-38500000D03*
X70600000Y-39200000D03*
X69850000Y-39800000D03*
X73750000Y-35850000D03*
X74700000Y-35850000D03*
X75650000Y-35900000D03*
X76200000Y-36550000D03*
X76200000Y-37400000D03*
X75650000Y-38150000D03*
X73850000Y-38150000D03*
X69000000Y-40250000D03*
X67600000Y-39550000D03*
X67600000Y-38700000D03*
X69000000Y-37850000D03*
X68150000Y-68350000D03*
X79900000Y-61700000D03*
G04 #@! TO.N,CHARGE_DETECT*
X97950000Y-62000000D03*
G04 #@! TO.N,+3V3*
X93600000Y-69300000D03*
G04 #@! TO.N,DYNAMO_A*
X72250000Y-69750000D03*
G04 #@! TO.N,DYNAMO_B*
X77750000Y-69750000D03*
G04 #@! TO.N,RESET*
X112500000Y-57250000D03*
X126500000Y-60000000D03*
X141250000Y-62500000D03*
X112500000Y-57250000D03*
G04 #@! TO.N,AUX_ON*
X113750000Y-64750000D03*
X92250000Y-61500000D03*
G04 #@! TO.N,DRIVE_BUZZER*
X117250000Y-64250000D03*
X130250000Y-61750000D03*
G04 #@! TO.N,SCL*
X112500000Y-38484873D03*
X114000000Y-55500000D03*
G04 #@! TO.N,GPS_TX*
X120939340Y-59500000D03*
G04 #@! TO.N,Net-(R16-Pad1)*
X122250000Y-54500000D03*
X122500000Y-44750000D03*
G04 #@! TO.N,Net-(R19-Pad2)*
X104250000Y-58500000D03*
X100000000Y-59750000D03*
G04 #@! TO.N,SDA*
X111000000Y-37750000D03*
X112750000Y-55500000D03*
G04 #@! TO.N,Net-(TP7-Pad1)*
X110000000Y-53250000D03*
G04 #@! TO.N,Net-(TP8-Pad1)*
X108100000Y-55100000D03*
G04 #@! TO.N,DIO_0*
X106750000Y-57000000D03*
X71750000Y-47500000D03*
G04 #@! TO.N,NSS*
X99000000Y-47750000D03*
X116000000Y-58750000D03*
G04 #@! TO.N,RFM_RESET*
X97000000Y-42250000D03*
X102000000Y-55000000D03*
G04 #@! TO.N,DIO_2*
X106500000Y-59750000D03*
X83750000Y-53000000D03*
G04 #@! TO.N,DIO_1*
X106750000Y-58250000D03*
X85000000Y-51750000D03*
G04 #@! TO.N,Net-(U6-Pad11)*
X112750000Y-36750000D03*
X115000000Y-40250000D03*
G04 #@! TO.N,Net-(J4-Pad4)*
X97250000Y-48250000D03*
X119750000Y-61500000D03*
G04 #@! TO.N,Net-(J4-Pad3)*
X97250000Y-46250000D03*
X110000000Y-50000000D03*
X120000000Y-56250000D03*
X114250000Y-50000000D03*
G04 #@! TO.N,Net-(J4-Pad1)*
X97150000Y-51250000D03*
X120250000Y-63000000D03*
G04 #@! TD*
D21*
G04 #@! TO.N,+BATT*
X125508002Y-55750000D02*
X130008002Y-60250000D01*
X121250000Y-55750000D02*
X125508002Y-55750000D01*
X130008002Y-60250000D02*
X142250000Y-60250000D01*
X142250000Y-60250000D02*
X142250000Y-60250000D01*
X87399999Y-57149999D02*
X87399999Y-58899999D01*
X87000000Y-56750000D02*
X87399999Y-57149999D01*
X87399999Y-58899999D02*
X88250000Y-59500000D01*
X87649999Y-58899999D02*
X88250000Y-59500000D01*
X88250000Y-59500000D02*
X87649999Y-58899999D01*
D22*
G04 #@! TO.N,GND*
X103750000Y-54500000D02*
X104750000Y-54500000D01*
X101750000Y-52500000D02*
X103750000Y-54500000D01*
D21*
G04 #@! TO.N,CHARGE_DETECT*
X100000000Y-64050000D02*
X97950000Y-62000000D01*
X100000000Y-66750000D02*
X100000000Y-64050000D01*
X100750000Y-67500000D02*
X102000000Y-67500000D01*
X100000000Y-66750000D02*
X100750000Y-67500000D01*
D22*
G04 #@! TO.N,+3V3*
X92800000Y-68500000D02*
X93600000Y-69300000D01*
X92200000Y-68500000D02*
X92800000Y-68500000D01*
D21*
G04 #@! TO.N,DYNAMO_A*
X71500000Y-71250000D02*
X72250000Y-70500000D01*
X71500000Y-72250000D02*
X71500000Y-71250000D01*
X72250000Y-70500000D02*
X72250000Y-69750000D01*
X72250000Y-69750000D02*
X72250000Y-69750000D01*
D23*
X71500000Y-72250000D02*
X71500000Y-76250000D01*
D24*
X71500000Y-76250000D02*
X71500000Y-71250000D01*
D22*
G04 #@! TO.N,Net-(D4-Pad1)*
X69150000Y-47000000D02*
X75150000Y-41000000D01*
X68000000Y-47000000D02*
X69150000Y-47000000D01*
X101850000Y-43096001D02*
X103000000Y-43096001D01*
X99753999Y-41000000D02*
X101850000Y-43096001D01*
X75150000Y-41000000D02*
X99753999Y-41000000D01*
X103000000Y-41946001D02*
X108921002Y-36024999D01*
X103000000Y-43096001D02*
X103000000Y-41946001D01*
X118500000Y-36024999D02*
X118524999Y-36024999D01*
X108921002Y-36024999D02*
X118500000Y-36024999D01*
X118524999Y-36024999D02*
X125750000Y-43250000D01*
X139850000Y-49500000D02*
X141000000Y-49500000D01*
X133600000Y-43250000D02*
X139850000Y-49500000D01*
X125750000Y-43250000D02*
X133600000Y-43250000D01*
X75150000Y-41000000D02*
X75150000Y-40950000D01*
D21*
G04 #@! TO.N,DYNAMO_B*
X77250000Y-71250000D02*
X77750000Y-70750000D01*
X77250000Y-72250000D02*
X77250000Y-71250000D01*
X77750000Y-70750000D02*
X77750000Y-69750000D01*
X77750000Y-69750000D02*
X77750000Y-69750000D01*
D23*
X77250000Y-72250000D02*
X77250000Y-76250000D01*
D24*
X77250000Y-76250000D02*
X77250000Y-71250000D01*
D22*
G04 #@! TO.N,RESET*
X126500000Y-60000000D02*
X124500000Y-58000000D01*
X113250000Y-58000000D02*
X112500000Y-57250000D01*
X124500000Y-58000000D02*
X113250000Y-58000000D01*
D25*
X127262510Y-60762510D02*
X129262510Y-60762510D01*
X126500000Y-60000000D02*
X127262510Y-60762510D01*
X129262510Y-60762510D02*
X129500000Y-61000000D01*
X129500000Y-61000000D02*
X136000000Y-61000000D01*
X137500000Y-62500000D02*
X141250000Y-62500000D01*
X136000000Y-61000000D02*
X137500000Y-62500000D01*
G04 #@! TO.N,AUX_ON*
X92250000Y-62065685D02*
X92250000Y-61500000D01*
X92250000Y-62722502D02*
X92250000Y-62065685D01*
X92000000Y-61250000D02*
X92250000Y-61500000D01*
X92000000Y-60000000D02*
X92000000Y-61250000D01*
X113750000Y-67500000D02*
X113750000Y-64750000D01*
X111750000Y-69500000D02*
X113750000Y-67500000D01*
X93500000Y-67250000D02*
X95750000Y-69500000D01*
X95750000Y-69500000D02*
X111750000Y-69500000D01*
X93500000Y-65472502D02*
X93500000Y-67250000D01*
X92250000Y-64222502D02*
X93500000Y-65472502D01*
X92250000Y-61500000D02*
X92250000Y-64222502D01*
G04 #@! TO.N,DRIVE_BUZZER*
X127750000Y-64250000D02*
X117250000Y-64250000D01*
X130250000Y-61750000D02*
X127750000Y-64250000D01*
G04 #@! TO.N,SCL*
X111750000Y-53250000D02*
X114000000Y-55500000D01*
X111750000Y-39234873D02*
X111750000Y-53250000D01*
X112500000Y-38484873D02*
X111750000Y-39234873D01*
G04 #@! TO.N,GPS_TX*
X121939340Y-60500000D02*
X120939340Y-59500000D01*
X125000000Y-60500000D02*
X121939340Y-60500000D01*
G04 #@! TO.N,Net-(R16-Pad1)*
X120500000Y-44750000D02*
X122500000Y-44750000D01*
X120500000Y-46500000D02*
X120500000Y-44750000D01*
X122500000Y-48500000D02*
X120500000Y-46500000D01*
X122500000Y-54250000D02*
X122500000Y-48500000D01*
X122250000Y-54500000D02*
X122500000Y-54250000D01*
G04 #@! TO.N,Net-(R19-Pad2)*
X103250000Y-59750000D02*
X103750000Y-59750000D01*
X100000000Y-59750000D02*
X103250000Y-59750000D01*
X103250000Y-59750000D02*
X103500000Y-59750000D01*
X104250000Y-59250000D02*
X104250000Y-58500000D01*
X103750000Y-59750000D02*
X104250000Y-59250000D01*
G04 #@! TO.N,SDA*
X111250000Y-39000000D02*
X111250000Y-50000000D01*
X111000000Y-38750000D02*
X111250000Y-39000000D01*
X111000000Y-37750000D02*
X111000000Y-38750000D01*
X111250000Y-54000000D02*
X112750000Y-55500000D01*
X111250000Y-50000000D02*
X111250000Y-54000000D01*
G04 #@! TO.N,Net-(TP7-Pad1)*
X110000000Y-52500000D02*
X109500000Y-52000000D01*
X110000000Y-53250000D02*
X110000000Y-52500000D01*
D22*
G04 #@! TO.N,Net-(TP8-Pad1)*
X105565685Y-52000000D02*
X105250000Y-52000000D01*
X108100000Y-54534315D02*
X105565685Y-52000000D01*
X105250000Y-52000000D02*
X104500000Y-52000000D01*
X108100000Y-55100000D02*
X108100000Y-54534315D01*
D25*
G04 #@! TO.N,DIO_0*
X71750000Y-47500000D02*
X71750000Y-47500000D01*
X81912501Y-51087499D02*
X87646143Y-51087499D01*
X81750000Y-51250000D02*
X81912501Y-51087499D01*
X87646143Y-51087499D02*
X93558644Y-57000000D01*
X75500000Y-51250000D02*
X81750000Y-51250000D01*
X93558644Y-57000000D02*
X106750000Y-57000000D01*
X71750000Y-47500000D02*
X75500000Y-51250000D01*
G04 #@! TO.N,NSS*
X116000000Y-58750000D02*
X116000000Y-58750000D01*
X115500000Y-59250000D02*
X116000000Y-58750000D01*
X99500000Y-49500000D02*
X100500000Y-50500000D01*
X111500000Y-59250000D02*
X115500000Y-59250000D01*
X101500000Y-54337499D02*
X102337499Y-54337499D01*
X102337499Y-54337499D02*
X103674990Y-55674990D01*
X107250000Y-55000000D02*
X111500000Y-59250000D01*
X105825010Y-55674990D02*
X106500000Y-55000000D01*
X103674990Y-55674990D02*
X105825010Y-55674990D01*
X106500000Y-55000000D02*
X107250000Y-55000000D01*
X100500000Y-50500000D02*
X100500000Y-53337499D01*
X100500000Y-53337499D02*
X101500000Y-54337499D01*
X99500000Y-48250000D02*
X99000000Y-47750000D01*
X99500000Y-49500000D02*
X99500000Y-48250000D01*
G04 #@! TO.N,RFM_RESET*
X97000000Y-42250000D02*
X96500000Y-42750000D01*
X98325010Y-48344508D02*
X98325010Y-48865377D01*
X96500000Y-46519498D02*
X98325010Y-48344508D01*
X96500000Y-42750000D02*
X96500000Y-46519498D01*
X98325010Y-48865377D02*
X98325010Y-52575010D01*
X98325010Y-52575010D02*
X100750000Y-55000000D01*
X100750000Y-55000000D02*
X102000000Y-55000000D01*
X102000000Y-55000000D02*
X102000000Y-55000000D01*
G04 #@! TO.N,DIO_2*
X105500000Y-58750000D02*
X106500000Y-59750000D01*
X104400020Y-57650020D02*
X105500000Y-58750000D01*
X93150020Y-57650020D02*
X104400020Y-57650020D01*
X89250000Y-53750000D02*
X93150020Y-57650020D01*
X83750000Y-53000000D02*
X88500000Y-53000000D01*
X88500000Y-53000000D02*
X89250000Y-53750000D01*
G04 #@! TO.N,DIO_1*
X105825010Y-57325010D02*
X106750000Y-58250000D01*
X93325010Y-57325010D02*
X105825010Y-57325010D01*
X87750000Y-51750000D02*
X85000000Y-51750000D01*
X88000000Y-52000000D02*
X87750000Y-51750000D01*
X88000000Y-52000000D02*
X93325010Y-57325010D01*
G04 #@! TO.N,Net-(U6-Pad11)*
X112750000Y-36750000D02*
X114000000Y-38000000D01*
X114000000Y-38000000D02*
X114500000Y-38000000D01*
X114500000Y-38000000D02*
X114765302Y-38265302D01*
X114765302Y-38265302D02*
X114765302Y-40234698D01*
G04 #@! TO.N,Net-(J4-Pad4)*
X97250000Y-48250000D02*
X98000000Y-49000000D01*
X98000000Y-49000000D02*
X98000000Y-53040368D01*
X100959632Y-56000000D02*
X101000000Y-56000000D01*
X98000000Y-53040368D02*
X100000000Y-55040368D01*
X100000000Y-55040368D02*
X100959632Y-56000000D01*
X111709632Y-60000000D02*
X114104816Y-62395184D01*
X114384622Y-62674990D02*
X116174990Y-62674990D01*
X114104816Y-62395184D02*
X114384622Y-62674990D01*
X116174990Y-62674990D02*
X116250000Y-62750000D01*
X116250000Y-62750000D02*
X119000000Y-62750000D01*
X119000000Y-62750000D02*
X119750000Y-62000000D01*
X119750000Y-62000000D02*
X119750000Y-61500000D01*
X119750000Y-61500000D02*
X119750000Y-61500000D01*
X106750000Y-55500000D02*
X107209632Y-55500000D01*
X107209632Y-55500000D02*
X111709632Y-60000000D01*
X106250000Y-56000000D02*
X106750000Y-55500000D01*
X100959632Y-56000000D02*
X106250000Y-56000000D01*
G04 #@! TO.N,Net-(J4-Pad3)*
X97649999Y-46649999D02*
X106649999Y-46649999D01*
X97250000Y-46250000D02*
X97649999Y-46649999D01*
X106649999Y-46649999D02*
X110000000Y-50000000D01*
X110000000Y-50000000D02*
X110000000Y-50000000D01*
X120000000Y-56250000D02*
X114250000Y-50500000D01*
X114250000Y-50500000D02*
X114250000Y-50000000D01*
X114250000Y-50000000D02*
X114250000Y-50000000D01*
G04 #@! TO.N,Net-(J4-Pad1)*
X120000000Y-63250000D02*
X120250000Y-63000000D01*
X116000000Y-63250000D02*
X120000000Y-63250000D01*
X107250000Y-56000000D02*
X114250000Y-63000000D01*
X106250000Y-56500000D02*
X106750000Y-56000000D01*
X97549999Y-53049999D02*
X101000000Y-56500000D01*
X114250000Y-63000000D02*
X115750000Y-63000000D01*
X97549999Y-51649999D02*
X97549999Y-53049999D01*
X115750000Y-63000000D02*
X116000000Y-63250000D01*
X101000000Y-56500000D02*
X106250000Y-56500000D01*
X106750000Y-56000000D02*
X107250000Y-56000000D01*
X97150000Y-51250000D02*
X97549999Y-51649999D01*
X120250000Y-63000000D02*
X120250000Y-63000000D01*
G04 #@! TD*
D26*
G04 #@! TO.N,GND*
G36*
X125159673Y-43734476D02*
X125202071Y-43797929D01*
X125265524Y-43840327D01*
X125265526Y-43840329D01*
X125313777Y-43872569D01*
X125453463Y-43965904D01*
X125675148Y-44010000D01*
X125675152Y-44010000D01*
X125749999Y-44024888D01*
X125824846Y-44010000D01*
X133285199Y-44010000D01*
X139259671Y-49984473D01*
X139302071Y-50047929D01*
X139365527Y-50090329D01*
X139452560Y-50148483D01*
X139452560Y-50400000D01*
X139501843Y-50647765D01*
X139642191Y-50857809D01*
X139852235Y-50998157D01*
X140100000Y-51047440D01*
X141900000Y-51047440D01*
X142147765Y-50998157D01*
X142357809Y-50857809D01*
X142498157Y-50647765D01*
X142547440Y-50400000D01*
X142547440Y-50020767D01*
X142620483Y-50051022D01*
X142863488Y-50099358D01*
X142863491Y-50099358D01*
X142932074Y-50113000D01*
X144197001Y-50113000D01*
X144197001Y-50742926D01*
X144210642Y-50811504D01*
X144210642Y-50811513D01*
X144258978Y-51054517D01*
X144364992Y-51310458D01*
X144364993Y-51310459D01*
X144502644Y-51516468D01*
X144698532Y-51712356D01*
X144904541Y-51850007D01*
X144904543Y-51850008D01*
X145160483Y-51956022D01*
X145403488Y-52004358D01*
X145403491Y-52004358D01*
X145472074Y-52018000D01*
X146102001Y-52018000D01*
X146102000Y-56011283D01*
X146071935Y-56041348D01*
X146017503Y-56089184D01*
X145623892Y-56538960D01*
X145573854Y-56614018D01*
X145517460Y-56698608D01*
X145253671Y-57234932D01*
X145238129Y-57280876D01*
X145192185Y-57416688D01*
X145076196Y-58003011D01*
X145071072Y-58082472D01*
X145063847Y-58194486D01*
X145103561Y-58790851D01*
X145125150Y-58898795D01*
X145141191Y-58978999D01*
X145333903Y-59544764D01*
X145418946Y-59716761D01*
X145751522Y-60213371D01*
X145792186Y-60259641D01*
X145878184Y-60357497D01*
X146102000Y-60553364D01*
X146102001Y-70930875D01*
X146057935Y-71180787D01*
X145962596Y-71345919D01*
X145816524Y-71468488D01*
X145607532Y-71544555D01*
X145511004Y-71553000D01*
X85292000Y-71553000D01*
X85292000Y-70288074D01*
X85278358Y-70219491D01*
X85278358Y-70219488D01*
X85230022Y-69976483D01*
X85124008Y-69720543D01*
X85124007Y-69720542D01*
X85124007Y-69720541D01*
X84986356Y-69514532D01*
X84790468Y-69318644D01*
X84584459Y-69180993D01*
X84584458Y-69180992D01*
X84328517Y-69074978D01*
X84085513Y-69026642D01*
X84085509Y-69026642D01*
X84016926Y-69013000D01*
X80067074Y-69013000D01*
X79998491Y-69026642D01*
X79998488Y-69026642D01*
X79755483Y-69074978D01*
X79499543Y-69180992D01*
X79499541Y-69180993D01*
X79293532Y-69318644D01*
X79122564Y-69489612D01*
X79077633Y-69422367D01*
X78500351Y-69036640D01*
X78336280Y-68872569D01*
X77955874Y-68715000D01*
X77544126Y-68715000D01*
X77529704Y-68720974D01*
X77352623Y-68685750D01*
X86165000Y-68685750D01*
X86165000Y-69026309D01*
X86261673Y-69259698D01*
X86440301Y-69438327D01*
X86673690Y-69535000D01*
X87014250Y-69535000D01*
X87173000Y-69376250D01*
X87173000Y-68527000D01*
X87427000Y-68527000D01*
X87427000Y-69376250D01*
X87585750Y-69535000D01*
X87926310Y-69535000D01*
X88159699Y-69438327D01*
X88338327Y-69259698D01*
X88435000Y-69026309D01*
X88435000Y-68685750D01*
X88276250Y-68527000D01*
X87427000Y-68527000D01*
X87173000Y-68527000D01*
X86323750Y-68527000D01*
X86165000Y-68685750D01*
X77352623Y-68685750D01*
X77250000Y-68665337D01*
X76260893Y-68862083D01*
X75422368Y-69422367D01*
X75399098Y-69457193D01*
X75297450Y-69355546D01*
X75248010Y-69306105D01*
X75085800Y-69197718D01*
X75085797Y-69197717D01*
X75085796Y-69197716D01*
X74829856Y-69091702D01*
X74638513Y-69053642D01*
X74638509Y-69053642D01*
X74569926Y-69040000D01*
X74180074Y-69040000D01*
X74111491Y-69053642D01*
X74111487Y-69053642D01*
X73920145Y-69091702D01*
X73664204Y-69197716D01*
X73664203Y-69197717D01*
X73664200Y-69197718D01*
X73501989Y-69306105D01*
X73403406Y-69404690D01*
X73350903Y-69457193D01*
X73327633Y-69422367D01*
X73198951Y-69336384D01*
X73127431Y-69163720D01*
X72836280Y-68872569D01*
X72455874Y-68715000D01*
X72044126Y-68715000D01*
X71948598Y-68754569D01*
X71500000Y-68665337D01*
X70510893Y-68862083D01*
X69672368Y-69422367D01*
X69649098Y-69457193D01*
X69547450Y-69355546D01*
X69498010Y-69306105D01*
X69335800Y-69197718D01*
X69335797Y-69197717D01*
X69335796Y-69197716D01*
X69079856Y-69091702D01*
X68889879Y-69053914D01*
X68823254Y-69040336D01*
X63055771Y-69013291D01*
X62804213Y-68968935D01*
X62639081Y-68873596D01*
X62516512Y-68727524D01*
X62440445Y-68518532D01*
X62432000Y-68422004D01*
X62432000Y-67773691D01*
X86165000Y-67773691D01*
X86165000Y-68114250D01*
X86323750Y-68273000D01*
X87173000Y-68273000D01*
X87173000Y-67423750D01*
X87427000Y-67423750D01*
X87427000Y-68273000D01*
X88276250Y-68273000D01*
X88435000Y-68114250D01*
X88435000Y-67773691D01*
X88338327Y-67540302D01*
X88159699Y-67361673D01*
X87926310Y-67265000D01*
X87585750Y-67265000D01*
X87427000Y-67423750D01*
X87173000Y-67423750D01*
X87014250Y-67265000D01*
X86673690Y-67265000D01*
X86440301Y-67361673D01*
X86261673Y-67540302D01*
X86165000Y-67773691D01*
X62432000Y-67773691D01*
X62432000Y-64643000D01*
X69247000Y-64643000D01*
X69367615Y-65327040D01*
X69714911Y-65928575D01*
X70247000Y-66375051D01*
X70899704Y-66612616D01*
X71594296Y-66612616D01*
X72247000Y-66375051D01*
X72779089Y-65928575D01*
X73126385Y-65327040D01*
X73247000Y-64643000D01*
X73126385Y-63958960D01*
X72779089Y-63357425D01*
X72247000Y-62910949D01*
X71594296Y-62673384D01*
X70899704Y-62673384D01*
X70247000Y-62910949D01*
X69714911Y-63357425D01*
X69367615Y-63958960D01*
X69247000Y-64643000D01*
X62432000Y-64643000D01*
X62432000Y-62500000D01*
X75877560Y-62500000D01*
X75877560Y-67000000D01*
X75926843Y-67247765D01*
X76067191Y-67457809D01*
X76277235Y-67598157D01*
X76525000Y-67647440D01*
X79475000Y-67647440D01*
X79722765Y-67598157D01*
X79932809Y-67457809D01*
X80073157Y-67247765D01*
X80122440Y-67000000D01*
X80122440Y-64583908D01*
X88115000Y-64583908D01*
X88115000Y-64916092D01*
X88242121Y-65222990D01*
X88477010Y-65457879D01*
X88783908Y-65585000D01*
X89116092Y-65585000D01*
X89422990Y-65457879D01*
X89500000Y-65380869D01*
X89577010Y-65457879D01*
X89883908Y-65585000D01*
X90216092Y-65585000D01*
X90522990Y-65457879D01*
X90757879Y-65222990D01*
X90885000Y-64916092D01*
X90885000Y-64583908D01*
X90757879Y-64277010D01*
X90522990Y-64042121D01*
X90216092Y-63915000D01*
X89883908Y-63915000D01*
X89577010Y-64042121D01*
X89500000Y-64119131D01*
X89422990Y-64042121D01*
X89116092Y-63915000D01*
X88783908Y-63915000D01*
X88477010Y-64042121D01*
X88242121Y-64277010D01*
X88115000Y-64583908D01*
X80122440Y-64583908D01*
X80122440Y-62500000D01*
X80073157Y-62252235D01*
X79932809Y-62042191D01*
X79722765Y-61901843D01*
X79475000Y-61852560D01*
X76525000Y-61852560D01*
X76277235Y-61901843D01*
X76067191Y-62042191D01*
X75926843Y-62252235D01*
X75877560Y-62500000D01*
X62432000Y-62500000D01*
X62432000Y-60504088D01*
X62497069Y-60430282D01*
X62533011Y-60377986D01*
X62572428Y-60328254D01*
X62576415Y-60321670D01*
X62908838Y-59766231D01*
X62943180Y-59689097D01*
X62978366Y-59612244D01*
X62980668Y-59604899D01*
X63171005Y-58986200D01*
X63185959Y-58903086D01*
X63201795Y-58820071D01*
X63202278Y-58812389D01*
X63239540Y-58166148D01*
X63234237Y-58081854D01*
X63229815Y-57997470D01*
X63228452Y-57989902D01*
X63228452Y-57989895D01*
X63228450Y-57989889D01*
X63110487Y-57353419D01*
X63085235Y-57272837D01*
X63060808Y-57191932D01*
X63057677Y-57184900D01*
X62791298Y-56594934D01*
X62760529Y-56544126D01*
X85965000Y-56544126D01*
X85965000Y-56955874D01*
X86122569Y-57336280D01*
X86413720Y-57627431D01*
X86514999Y-57669382D01*
X86515000Y-58888655D01*
X86510782Y-59053312D01*
X86546780Y-59146932D01*
X86566348Y-59245309D01*
X86609355Y-59309674D01*
X86637139Y-59381931D01*
X86706227Y-59454652D01*
X86761951Y-59538048D01*
X86898904Y-59629558D01*
X87300938Y-59913347D01*
X87372569Y-60086280D01*
X87663720Y-60377431D01*
X88044126Y-60535000D01*
X88455874Y-60535000D01*
X88836280Y-60377431D01*
X89127431Y-60086280D01*
X89285000Y-59705874D01*
X89285000Y-59500000D01*
X90852560Y-59500000D01*
X90852560Y-60500000D01*
X90901843Y-60747765D01*
X91042191Y-60957809D01*
X91252235Y-61098157D01*
X91292828Y-61106231D01*
X91215000Y-61294126D01*
X91215000Y-61705874D01*
X91372569Y-62086280D01*
X91552500Y-62266211D01*
X91552501Y-64153804D01*
X91538836Y-64222502D01*
X91592970Y-64494652D01*
X91620587Y-64535983D01*
X91747132Y-64725371D01*
X91805371Y-64764285D01*
X92802500Y-65761416D01*
X92802501Y-67181302D01*
X92788836Y-67250000D01*
X92789345Y-67252560D01*
X91800000Y-67252560D01*
X91552235Y-67301843D01*
X91342191Y-67442191D01*
X91201843Y-67652235D01*
X91152560Y-67900000D01*
X91152560Y-68900000D01*
X91201843Y-69147765D01*
X91342191Y-69357809D01*
X91552235Y-69498157D01*
X91800000Y-69547440D01*
X92582217Y-69547440D01*
X92722569Y-69886280D01*
X93013720Y-70177431D01*
X93394126Y-70335000D01*
X93805874Y-70335000D01*
X94186280Y-70177431D01*
X94477431Y-69886280D01*
X94635000Y-69505874D01*
X94635000Y-69371413D01*
X95208219Y-69944632D01*
X95247131Y-70002869D01*
X95313929Y-70047502D01*
X95477849Y-70157030D01*
X95750000Y-70211164D01*
X95818694Y-70197500D01*
X111681306Y-70197500D01*
X111750000Y-70211164D01*
X111818694Y-70197500D01*
X112022151Y-70157030D01*
X112252869Y-70002869D01*
X112291785Y-69944627D01*
X114194634Y-68041779D01*
X114252868Y-68002869D01*
X114315142Y-67909671D01*
X114407030Y-67772151D01*
X114461164Y-67500001D01*
X114447500Y-67431307D01*
X114447500Y-65516211D01*
X114627431Y-65336280D01*
X114785000Y-64955874D01*
X114785000Y-64544126D01*
X114627431Y-64163720D01*
X114336280Y-63872569D01*
X113955874Y-63715000D01*
X113544126Y-63715000D01*
X113163720Y-63872569D01*
X112872569Y-64163720D01*
X112715000Y-64544126D01*
X112715000Y-64955874D01*
X112872569Y-65336280D01*
X113052501Y-65516212D01*
X113052500Y-67211086D01*
X111461088Y-68802500D01*
X96038914Y-68802500D01*
X94197500Y-66961088D01*
X94197500Y-65541196D01*
X94211164Y-65472502D01*
X94157030Y-65200351D01*
X94041781Y-65027869D01*
X94041779Y-65027867D01*
X94002868Y-64969633D01*
X93944634Y-64930722D01*
X93656912Y-64643000D01*
X95282000Y-64643000D01*
X95402615Y-65327040D01*
X95749911Y-65928575D01*
X96282000Y-66375051D01*
X96934704Y-66612616D01*
X97629296Y-66612616D01*
X98282000Y-66375051D01*
X98814089Y-65928575D01*
X99115000Y-65407380D01*
X99115000Y-66662839D01*
X99097663Y-66750000D01*
X99115000Y-66837161D01*
X99115000Y-66837164D01*
X99166348Y-67095309D01*
X99361951Y-67388049D01*
X99435847Y-67437425D01*
X100062577Y-68064156D01*
X100111951Y-68138049D01*
X100185844Y-68187423D01*
X100185845Y-68187424D01*
X100230339Y-68217154D01*
X100404690Y-68333652D01*
X100662835Y-68385000D01*
X100662839Y-68385000D01*
X100749999Y-68402337D01*
X100837159Y-68385000D01*
X100993541Y-68385000D01*
X101042191Y-68457809D01*
X101252235Y-68598157D01*
X101500000Y-68647440D01*
X102500000Y-68647440D01*
X102747765Y-68598157D01*
X102957809Y-68457809D01*
X103098157Y-68247765D01*
X103147440Y-68000000D01*
X103147440Y-67000000D01*
X103098157Y-66752235D01*
X102957809Y-66542191D01*
X102747765Y-66401843D01*
X102500000Y-66352560D01*
X101500000Y-66352560D01*
X101252235Y-66401843D01*
X101043137Y-66541559D01*
X100885000Y-66383422D01*
X100885000Y-66175187D01*
X108315681Y-66175187D01*
X108315681Y-66726175D01*
X108526534Y-67235221D01*
X108916141Y-67624828D01*
X109425187Y-67835681D01*
X109976175Y-67835681D01*
X110485221Y-67624828D01*
X110874828Y-67235221D01*
X111085681Y-66726175D01*
X111085681Y-66175187D01*
X110874828Y-65666141D01*
X110485221Y-65276534D01*
X109976175Y-65065681D01*
X109425187Y-65065681D01*
X108916141Y-65276534D01*
X108526534Y-65666141D01*
X108315681Y-66175187D01*
X100885000Y-66175187D01*
X100885000Y-64137161D01*
X100902337Y-64050000D01*
X100885000Y-63962839D01*
X100885000Y-63962835D01*
X100833652Y-63704690D01*
X100806277Y-63663720D01*
X100687424Y-63485845D01*
X100687423Y-63485844D01*
X100638049Y-63411951D01*
X100564156Y-63362577D01*
X99926085Y-62724506D01*
X104865000Y-62724506D01*
X104865000Y-63275494D01*
X105075853Y-63784540D01*
X105465460Y-64174147D01*
X105974506Y-64385000D01*
X106525494Y-64385000D01*
X107034540Y-64174147D01*
X107424147Y-63784540D01*
X107635000Y-63275494D01*
X107635000Y-62724506D01*
X107424147Y-62215460D01*
X107034540Y-61825853D01*
X106525494Y-61615000D01*
X105974506Y-61615000D01*
X105465460Y-61825853D01*
X105075853Y-62215460D01*
X104865000Y-62724506D01*
X99926085Y-62724506D01*
X98977431Y-61775853D01*
X98827431Y-61413720D01*
X98536280Y-61122569D01*
X98155874Y-60965000D01*
X97744126Y-60965000D01*
X97363720Y-61122569D01*
X97072569Y-61413720D01*
X96915000Y-61794126D01*
X96915000Y-62205874D01*
X97072569Y-62586280D01*
X97159673Y-62673384D01*
X96934704Y-62673384D01*
X96282000Y-62910949D01*
X95749911Y-63357425D01*
X95402615Y-63958960D01*
X95282000Y-64643000D01*
X93656912Y-64643000D01*
X92947500Y-63933590D01*
X92947500Y-62266211D01*
X93127431Y-62086280D01*
X93285000Y-61705874D01*
X93285000Y-61294126D01*
X93127431Y-60913720D01*
X93043410Y-60829699D01*
X93098157Y-60747765D01*
X93147440Y-60500000D01*
X93147440Y-59500000D01*
X93098157Y-59252235D01*
X92957809Y-59042191D01*
X92747765Y-58901843D01*
X92500000Y-58852560D01*
X91500000Y-58852560D01*
X91252235Y-58901843D01*
X91042191Y-59042191D01*
X90901843Y-59252235D01*
X90852560Y-59500000D01*
X89285000Y-59500000D01*
X89285000Y-59294126D01*
X89127431Y-58913720D01*
X88836280Y-58622569D01*
X88474147Y-58472569D01*
X88284999Y-58283421D01*
X88284999Y-57237159D01*
X88302336Y-57149998D01*
X88284999Y-57062835D01*
X88284999Y-57062834D01*
X88233651Y-56804689D01*
X88038048Y-56511950D01*
X88015406Y-56496821D01*
X87877431Y-56163720D01*
X87586280Y-55872569D01*
X87205874Y-55715000D01*
X86794126Y-55715000D01*
X86413720Y-55872569D01*
X86122569Y-56163720D01*
X85965000Y-56544126D01*
X62760529Y-56544126D01*
X62747541Y-56522681D01*
X62704531Y-56449956D01*
X62699813Y-56443874D01*
X62432000Y-56102320D01*
X62432000Y-53500000D01*
X62445908Y-53500000D01*
X62561161Y-54079418D01*
X62889375Y-54570625D01*
X63380582Y-54898839D01*
X63813744Y-54985000D01*
X64106256Y-54985000D01*
X64539418Y-54898839D01*
X65030625Y-54570625D01*
X65042816Y-54552381D01*
X65051843Y-54597765D01*
X65192191Y-54807809D01*
X65402235Y-54948157D01*
X65650000Y-54997440D01*
X67350000Y-54997440D01*
X67597765Y-54948157D01*
X67807809Y-54807809D01*
X67948157Y-54597765D01*
X67997440Y-54350000D01*
X67997440Y-52650000D01*
X67948157Y-52402235D01*
X67807809Y-52192191D01*
X67597765Y-52051843D01*
X67350000Y-52002560D01*
X65650000Y-52002560D01*
X65402235Y-52051843D01*
X65192191Y-52192191D01*
X65051843Y-52402235D01*
X65042816Y-52447619D01*
X65030625Y-52429375D01*
X64539418Y-52101161D01*
X64106256Y-52015000D01*
X63813744Y-52015000D01*
X63380582Y-52101161D01*
X62889375Y-52429375D01*
X62561161Y-52920582D01*
X62445908Y-53500000D01*
X62432000Y-53500000D01*
X62432000Y-52018000D01*
X63061926Y-52018000D01*
X63130509Y-52004358D01*
X63130513Y-52004358D01*
X63373517Y-51956022D01*
X63629458Y-51850008D01*
X63629459Y-51850007D01*
X63835468Y-51712356D01*
X64031356Y-51516468D01*
X64169007Y-51310459D01*
X64195238Y-51247132D01*
X64275022Y-51054517D01*
X64323358Y-50811512D01*
X64323358Y-50811509D01*
X64337000Y-50742926D01*
X64337000Y-50113000D01*
X65601926Y-50113000D01*
X65670509Y-50099358D01*
X65670513Y-50099358D01*
X65913517Y-50051022D01*
X66169458Y-49945008D01*
X66169459Y-49945007D01*
X66375468Y-49807356D01*
X66465000Y-49717824D01*
X66465000Y-49845330D01*
X66698690Y-50409507D01*
X67130493Y-50841310D01*
X67694670Y-51075000D01*
X68305330Y-51075000D01*
X68869507Y-50841310D01*
X69301310Y-50409507D01*
X69535000Y-49845330D01*
X69535000Y-49234670D01*
X69301310Y-48670493D01*
X69132092Y-48501275D01*
X69147765Y-48498157D01*
X69357809Y-48357809D01*
X69498157Y-48147765D01*
X69547440Y-47900000D01*
X69547440Y-47648483D01*
X69697929Y-47547929D01*
X69740331Y-47484470D01*
X75464803Y-41760000D01*
X76503800Y-41760000D01*
X76325214Y-41879327D01*
X76271516Y-41933026D01*
X76129327Y-42075214D01*
X75966747Y-42318531D01*
X75877457Y-42534097D01*
X75860732Y-42574474D01*
X75803642Y-42861487D01*
X75803642Y-42861496D01*
X75790001Y-42930074D01*
X75790000Y-48569925D01*
X75803642Y-48638508D01*
X75803642Y-48638513D01*
X75860732Y-48925526D01*
X75860733Y-48925528D01*
X75860733Y-48925529D01*
X75966747Y-49181469D01*
X76129327Y-49424786D01*
X76187912Y-49483370D01*
X76325214Y-49620673D01*
X76568531Y-49783252D01*
X76568533Y-49783254D01*
X76780559Y-49871078D01*
X76824471Y-49889267D01*
X76824472Y-49889267D01*
X76824474Y-49889268D01*
X77111487Y-49946358D01*
X77111491Y-49946358D01*
X77180074Y-49960000D01*
X87319926Y-49960000D01*
X87388509Y-49946358D01*
X87388513Y-49946358D01*
X87675526Y-49889268D01*
X87675528Y-49889267D01*
X87675529Y-49889267D01*
X87873279Y-49807356D01*
X87931467Y-49783254D01*
X87931469Y-49783253D01*
X88174786Y-49620673D01*
X88312088Y-49483370D01*
X88370673Y-49424786D01*
X88533252Y-49181469D01*
X88533254Y-49181467D01*
X88635729Y-48934071D01*
X88639267Y-48925529D01*
X88639267Y-48925528D01*
X88639268Y-48925526D01*
X88696358Y-48638513D01*
X88696358Y-48638509D01*
X88710000Y-48569926D01*
X88710000Y-42930074D01*
X88696358Y-42861491D01*
X88696358Y-42861487D01*
X88639268Y-42574474D01*
X88533254Y-42318533D01*
X88533252Y-42318531D01*
X88370673Y-42075214D01*
X88228484Y-41933026D01*
X88174786Y-41879327D01*
X87996201Y-41760000D01*
X96082689Y-41760000D01*
X95965000Y-42044126D01*
X95965000Y-42295219D01*
X95937751Y-42336001D01*
X95842970Y-42477850D01*
X95788836Y-42750000D01*
X95802500Y-42818694D01*
X95802501Y-46450800D01*
X95788836Y-46519498D01*
X95842970Y-46791648D01*
X95875507Y-46840343D01*
X95997132Y-47022367D01*
X96055371Y-47061281D01*
X96515189Y-47521100D01*
X96372569Y-47663720D01*
X96215000Y-48044126D01*
X96215000Y-48455874D01*
X96372569Y-48836280D01*
X96663720Y-49127431D01*
X97044126Y-49285000D01*
X97298587Y-49285000D01*
X97302500Y-49288913D01*
X97302500Y-50215000D01*
X96944126Y-50215000D01*
X96563720Y-50372569D01*
X96272569Y-50663720D01*
X96115000Y-51044126D01*
X96115000Y-51455874D01*
X96272569Y-51836280D01*
X96563720Y-52127431D01*
X96852499Y-52247047D01*
X96852500Y-52981301D01*
X96838835Y-53049999D01*
X96892969Y-53322149D01*
X96892970Y-53322150D01*
X97047131Y-53552868D01*
X97105370Y-53591782D01*
X99816086Y-56302500D01*
X93847558Y-56302500D01*
X88187928Y-50642872D01*
X88149012Y-50584630D01*
X87918294Y-50430469D01*
X87714837Y-50389999D01*
X87646143Y-50376335D01*
X87577449Y-50389999D01*
X81981194Y-50389999D01*
X81912500Y-50376335D01*
X81843807Y-50389999D01*
X81640350Y-50430469D01*
X81457718Y-50552500D01*
X75788914Y-50552500D01*
X72785000Y-47548588D01*
X72785000Y-47294126D01*
X72627431Y-46913720D01*
X72336280Y-46622569D01*
X71955874Y-46465000D01*
X71544126Y-46465000D01*
X71163720Y-46622569D01*
X70872569Y-46913720D01*
X70715000Y-47294126D01*
X70715000Y-47705874D01*
X70872569Y-48086280D01*
X71163720Y-48377431D01*
X71544126Y-48535000D01*
X71798588Y-48535000D01*
X74958218Y-51694632D01*
X74997131Y-51752869D01*
X75163220Y-51863846D01*
X75227849Y-51907030D01*
X75500000Y-51961164D01*
X75568694Y-51947500D01*
X81681306Y-51947500D01*
X81750000Y-51961164D01*
X81818694Y-51947500D01*
X82022151Y-51907030D01*
X82204783Y-51784999D01*
X83965000Y-51784999D01*
X83965000Y-51955874D01*
X83971453Y-51971453D01*
X83955874Y-51965000D01*
X83544126Y-51965000D01*
X83163720Y-52122569D01*
X82872569Y-52413720D01*
X82715000Y-52794126D01*
X82715000Y-53205874D01*
X82872569Y-53586280D01*
X83163720Y-53877431D01*
X83544126Y-54035000D01*
X83955874Y-54035000D01*
X84336280Y-53877431D01*
X84516211Y-53697500D01*
X88211087Y-53697500D01*
X88805366Y-54291780D01*
X88805372Y-54291784D01*
X92608238Y-58094652D01*
X92647151Y-58152889D01*
X92800077Y-58255071D01*
X92877869Y-58307050D01*
X93150019Y-58361184D01*
X93218713Y-58347520D01*
X103215000Y-58347520D01*
X103215000Y-58705874D01*
X103358577Y-59052500D01*
X100766211Y-59052500D01*
X100586280Y-58872569D01*
X100205874Y-58715000D01*
X99794126Y-58715000D01*
X99413720Y-58872569D01*
X99122569Y-59163720D01*
X98965000Y-59544126D01*
X98965000Y-59955874D01*
X99122569Y-60336280D01*
X99413720Y-60627431D01*
X99794126Y-60785000D01*
X100205874Y-60785000D01*
X100586280Y-60627431D01*
X100766211Y-60447500D01*
X103681306Y-60447500D01*
X103750000Y-60461164D01*
X103818694Y-60447500D01*
X104022151Y-60407030D01*
X104252869Y-60252869D01*
X104291785Y-60194628D01*
X104694634Y-59791780D01*
X104752868Y-59752869D01*
X104791779Y-59694635D01*
X104791781Y-59694633D01*
X104907030Y-59522151D01*
X104923817Y-59437759D01*
X104947500Y-59318694D01*
X104947500Y-59318693D01*
X104960532Y-59253179D01*
X104988649Y-59225062D01*
X105055367Y-59291781D01*
X105055372Y-59291785D01*
X105465000Y-59701413D01*
X105465000Y-59955874D01*
X105622569Y-60336280D01*
X105913720Y-60627431D01*
X106294126Y-60785000D01*
X106705874Y-60785000D01*
X107086280Y-60627431D01*
X107377431Y-60336280D01*
X107535000Y-59955874D01*
X107535000Y-59544126D01*
X107377431Y-59163720D01*
X107338711Y-59125000D01*
X107627431Y-58836280D01*
X107785000Y-58455874D01*
X107785000Y-58044126D01*
X107627431Y-57663720D01*
X107588711Y-57625000D01*
X107627431Y-57586280D01*
X107692581Y-57428993D01*
X113708218Y-63444632D01*
X113747131Y-63502869D01*
X113805367Y-63541781D01*
X113977849Y-63657030D01*
X114250000Y-63711164D01*
X114318694Y-63697500D01*
X115460135Y-63697500D01*
X115497131Y-63752869D01*
X115727849Y-63907030D01*
X115931306Y-63947500D01*
X115931311Y-63947500D01*
X115999999Y-63961163D01*
X116068688Y-63947500D01*
X116255024Y-63947500D01*
X116215000Y-64044126D01*
X116215000Y-64455874D01*
X116372569Y-64836280D01*
X116663720Y-65127431D01*
X117044126Y-65285000D01*
X117455874Y-65285000D01*
X117836280Y-65127431D01*
X118016211Y-64947500D01*
X127681306Y-64947500D01*
X127750000Y-64961164D01*
X127818694Y-64947500D01*
X128022151Y-64907030D01*
X128252869Y-64752869D01*
X128291785Y-64694627D01*
X130201414Y-62785000D01*
X130455874Y-62785000D01*
X130836280Y-62627431D01*
X131127431Y-62336280D01*
X131285000Y-61955874D01*
X131285000Y-61697500D01*
X135711088Y-61697500D01*
X136958218Y-62944632D01*
X136997131Y-63002869D01*
X137227849Y-63157030D01*
X137431306Y-63197500D01*
X137431310Y-63197500D01*
X137499999Y-63211163D01*
X137568688Y-63197500D01*
X140483789Y-63197500D01*
X140663720Y-63377431D01*
X141044126Y-63535000D01*
X141455874Y-63535000D01*
X141836280Y-63377431D01*
X142127431Y-63086280D01*
X142285000Y-62705874D01*
X142285000Y-62294126D01*
X142127431Y-61913720D01*
X141836280Y-61622569D01*
X141455874Y-61465000D01*
X141044126Y-61465000D01*
X140663720Y-61622569D01*
X140483789Y-61802500D01*
X137788914Y-61802500D01*
X137121413Y-61135000D01*
X141681993Y-61135000D01*
X142044126Y-61285000D01*
X142455874Y-61285000D01*
X142836280Y-61127431D01*
X143127431Y-60836280D01*
X143285000Y-60455874D01*
X143285000Y-60044126D01*
X143127431Y-59663720D01*
X142836280Y-59372569D01*
X142455874Y-59215000D01*
X142044126Y-59215000D01*
X141681993Y-59365000D01*
X130374581Y-59365000D01*
X126195427Y-55185847D01*
X126146051Y-55111951D01*
X125853312Y-54916348D01*
X125595167Y-54865000D01*
X125595163Y-54865000D01*
X125508002Y-54847663D01*
X125420841Y-54865000D01*
X123219088Y-54865000D01*
X123285000Y-54705874D01*
X123285000Y-54294126D01*
X123197500Y-54082882D01*
X123197500Y-51819925D01*
X125540000Y-51819925D01*
X125553642Y-51888508D01*
X125553642Y-51888513D01*
X125610732Y-52175526D01*
X125610733Y-52175528D01*
X125610733Y-52175529D01*
X125657666Y-52288836D01*
X125715880Y-52429375D01*
X125716747Y-52431469D01*
X125879327Y-52674786D01*
X125932391Y-52727849D01*
X126075214Y-52870673D01*
X126318531Y-53033252D01*
X126318533Y-53033254D01*
X126530559Y-53121078D01*
X126574471Y-53139267D01*
X126574472Y-53139267D01*
X126574474Y-53139268D01*
X126861487Y-53196358D01*
X126861491Y-53196358D01*
X126930074Y-53210000D01*
X131569926Y-53210000D01*
X131638509Y-53196358D01*
X131638513Y-53196358D01*
X131925526Y-53139268D01*
X131925528Y-53139267D01*
X131925529Y-53139267D01*
X132141041Y-53049999D01*
X132181467Y-53033254D01*
X132181469Y-53033253D01*
X132424786Y-52870673D01*
X132567609Y-52727849D01*
X132620673Y-52674786D01*
X132783252Y-52431469D01*
X132783254Y-52431467D01*
X132889268Y-52175526D01*
X132946358Y-51888513D01*
X132946358Y-51888509D01*
X132960000Y-51819926D01*
X132960000Y-46180074D01*
X132946358Y-46111491D01*
X132946358Y-46111487D01*
X132889268Y-45824474D01*
X132783254Y-45568533D01*
X132783252Y-45568531D01*
X132620673Y-45325214D01*
X132484102Y-45188644D01*
X132424786Y-45129327D01*
X132181469Y-44966747D01*
X132155220Y-44955874D01*
X131942643Y-44867822D01*
X131925529Y-44860733D01*
X131925528Y-44860733D01*
X131925526Y-44860732D01*
X131638513Y-44803642D01*
X131638509Y-44803642D01*
X131569926Y-44790000D01*
X126930074Y-44790000D01*
X126861491Y-44803642D01*
X126861487Y-44803642D01*
X126574474Y-44860732D01*
X126574472Y-44860733D01*
X126574471Y-44860733D01*
X126557357Y-44867822D01*
X126318533Y-44966746D01*
X126318531Y-44966748D01*
X126075214Y-45129327D01*
X126015898Y-45188644D01*
X125879327Y-45325214D01*
X125716747Y-45568531D01*
X125716746Y-45568533D01*
X125705088Y-45596679D01*
X125627083Y-45785000D01*
X125610732Y-45824474D01*
X125553642Y-46111487D01*
X125553642Y-46111496D01*
X125540001Y-46180074D01*
X125540000Y-51819925D01*
X123197500Y-51819925D01*
X123197500Y-48568693D01*
X123211164Y-48499999D01*
X123157030Y-48227849D01*
X123136751Y-48197500D01*
X123002869Y-47997131D01*
X122944632Y-47958219D01*
X121197500Y-46211088D01*
X121197500Y-45447500D01*
X121733789Y-45447500D01*
X121913720Y-45627431D01*
X122294126Y-45785000D01*
X122705874Y-45785000D01*
X123086280Y-45627431D01*
X123377431Y-45336280D01*
X123535000Y-44955874D01*
X123535000Y-44544126D01*
X123377431Y-44163720D01*
X123086280Y-43872569D01*
X122705874Y-43715000D01*
X122294126Y-43715000D01*
X121913720Y-43872569D01*
X121733789Y-44052500D01*
X121258257Y-44052500D01*
X121674089Y-43703575D01*
X122021385Y-43102040D01*
X122142000Y-42418000D01*
X122021385Y-41733960D01*
X121674089Y-41132425D01*
X121142000Y-40685949D01*
X120489296Y-40448384D01*
X119794704Y-40448384D01*
X119142000Y-40685949D01*
X118609911Y-41132425D01*
X118262615Y-41733960D01*
X118142000Y-42418000D01*
X118262615Y-43102040D01*
X118609911Y-43703575D01*
X119142000Y-44150051D01*
X119794704Y-44387616D01*
X119903262Y-44387616D01*
X119842970Y-44477849D01*
X119788836Y-44750000D01*
X119802501Y-44818698D01*
X119802500Y-46431306D01*
X119788836Y-46500000D01*
X119820532Y-46659345D01*
X119842970Y-46772150D01*
X119997131Y-47002868D01*
X120055371Y-47041783D01*
X121802501Y-48788915D01*
X121802500Y-53565085D01*
X121663720Y-53622569D01*
X121372569Y-53913720D01*
X121215000Y-54294126D01*
X121215000Y-54705874D01*
X121218780Y-54715000D01*
X121044126Y-54715000D01*
X120663720Y-54872569D01*
X120372569Y-55163720D01*
X120330027Y-55266426D01*
X120205874Y-55215000D01*
X119951413Y-55215000D01*
X115184622Y-50448209D01*
X115285000Y-50205874D01*
X115285000Y-49794126D01*
X115127431Y-49413720D01*
X114836280Y-49122569D01*
X114455874Y-48965000D01*
X114044126Y-48965000D01*
X113663720Y-49122569D01*
X113372569Y-49413720D01*
X113215000Y-49794126D01*
X113215000Y-50205874D01*
X113372569Y-50586280D01*
X113662504Y-50876215D01*
X113747131Y-51002868D01*
X113805371Y-51041783D01*
X118965000Y-56201413D01*
X118965000Y-56455874D01*
X119122569Y-56836280D01*
X119413720Y-57127431D01*
X119685486Y-57240000D01*
X113564802Y-57240000D01*
X113535000Y-57210198D01*
X113535000Y-57044126D01*
X113377431Y-56663720D01*
X113162941Y-56449230D01*
X113336280Y-56377431D01*
X113375000Y-56338711D01*
X113413720Y-56377431D01*
X113794126Y-56535000D01*
X114205874Y-56535000D01*
X114586280Y-56377431D01*
X114877431Y-56086280D01*
X115035000Y-55705874D01*
X115035000Y-55294126D01*
X114877431Y-54913720D01*
X114586280Y-54622569D01*
X114205874Y-54465000D01*
X113951413Y-54465000D01*
X112447500Y-52961088D01*
X112447500Y-39523786D01*
X112451413Y-39519873D01*
X112705874Y-39519873D01*
X113086280Y-39362304D01*
X113377431Y-39071153D01*
X113535000Y-38690747D01*
X113535000Y-38528172D01*
X113555367Y-38541781D01*
X113727849Y-38657030D01*
X114000000Y-38711164D01*
X114067802Y-38697677D01*
X114067803Y-39795938D01*
X113965000Y-40044126D01*
X113965000Y-40455874D01*
X114122569Y-40836280D01*
X114413720Y-41127431D01*
X114794126Y-41285000D01*
X115205874Y-41285000D01*
X115586280Y-41127431D01*
X115877431Y-40836280D01*
X116035000Y-40455874D01*
X116035000Y-40044126D01*
X115877431Y-39663720D01*
X115586280Y-39372569D01*
X115462802Y-39321423D01*
X115462802Y-38333996D01*
X115476466Y-38265302D01*
X115422332Y-37993152D01*
X115422332Y-37993151D01*
X115268170Y-37762433D01*
X115209933Y-37723520D01*
X115041785Y-37555372D01*
X115002869Y-37497131D01*
X114772151Y-37342970D01*
X114568694Y-37302500D01*
X114500000Y-37288836D01*
X114431306Y-37302500D01*
X114288914Y-37302500D01*
X113785000Y-36798587D01*
X113785000Y-36784999D01*
X118210198Y-36784999D01*
X125159673Y-43734476D01*
X125159673Y-43734476D01*
G37*
X125159673Y-43734476D02*
X125202071Y-43797929D01*
X125265524Y-43840327D01*
X125265526Y-43840329D01*
X125313777Y-43872569D01*
X125453463Y-43965904D01*
X125675148Y-44010000D01*
X125675152Y-44010000D01*
X125749999Y-44024888D01*
X125824846Y-44010000D01*
X133285199Y-44010000D01*
X139259671Y-49984473D01*
X139302071Y-50047929D01*
X139365527Y-50090329D01*
X139452560Y-50148483D01*
X139452560Y-50400000D01*
X139501843Y-50647765D01*
X139642191Y-50857809D01*
X139852235Y-50998157D01*
X140100000Y-51047440D01*
X141900000Y-51047440D01*
X142147765Y-50998157D01*
X142357809Y-50857809D01*
X142498157Y-50647765D01*
X142547440Y-50400000D01*
X142547440Y-50020767D01*
X142620483Y-50051022D01*
X142863488Y-50099358D01*
X142863491Y-50099358D01*
X142932074Y-50113000D01*
X144197001Y-50113000D01*
X144197001Y-50742926D01*
X144210642Y-50811504D01*
X144210642Y-50811513D01*
X144258978Y-51054517D01*
X144364992Y-51310458D01*
X144364993Y-51310459D01*
X144502644Y-51516468D01*
X144698532Y-51712356D01*
X144904541Y-51850007D01*
X144904543Y-51850008D01*
X145160483Y-51956022D01*
X145403488Y-52004358D01*
X145403491Y-52004358D01*
X145472074Y-52018000D01*
X146102001Y-52018000D01*
X146102000Y-56011283D01*
X146071935Y-56041348D01*
X146017503Y-56089184D01*
X145623892Y-56538960D01*
X145573854Y-56614018D01*
X145517460Y-56698608D01*
X145253671Y-57234932D01*
X145238129Y-57280876D01*
X145192185Y-57416688D01*
X145076196Y-58003011D01*
X145071072Y-58082472D01*
X145063847Y-58194486D01*
X145103561Y-58790851D01*
X145125150Y-58898795D01*
X145141191Y-58978999D01*
X145333903Y-59544764D01*
X145418946Y-59716761D01*
X145751522Y-60213371D01*
X145792186Y-60259641D01*
X145878184Y-60357497D01*
X146102000Y-60553364D01*
X146102001Y-70930875D01*
X146057935Y-71180787D01*
X145962596Y-71345919D01*
X145816524Y-71468488D01*
X145607532Y-71544555D01*
X145511004Y-71553000D01*
X85292000Y-71553000D01*
X85292000Y-70288074D01*
X85278358Y-70219491D01*
X85278358Y-70219488D01*
X85230022Y-69976483D01*
X85124008Y-69720543D01*
X85124007Y-69720542D01*
X85124007Y-69720541D01*
X84986356Y-69514532D01*
X84790468Y-69318644D01*
X84584459Y-69180993D01*
X84584458Y-69180992D01*
X84328517Y-69074978D01*
X84085513Y-69026642D01*
X84085509Y-69026642D01*
X84016926Y-69013000D01*
X80067074Y-69013000D01*
X79998491Y-69026642D01*
X79998488Y-69026642D01*
X79755483Y-69074978D01*
X79499543Y-69180992D01*
X79499541Y-69180993D01*
X79293532Y-69318644D01*
X79122564Y-69489612D01*
X79077633Y-69422367D01*
X78500351Y-69036640D01*
X78336280Y-68872569D01*
X77955874Y-68715000D01*
X77544126Y-68715000D01*
X77529704Y-68720974D01*
X77352623Y-68685750D01*
X86165000Y-68685750D01*
X86165000Y-69026309D01*
X86261673Y-69259698D01*
X86440301Y-69438327D01*
X86673690Y-69535000D01*
X87014250Y-69535000D01*
X87173000Y-69376250D01*
X87173000Y-68527000D01*
X87427000Y-68527000D01*
X87427000Y-69376250D01*
X87585750Y-69535000D01*
X87926310Y-69535000D01*
X88159699Y-69438327D01*
X88338327Y-69259698D01*
X88435000Y-69026309D01*
X88435000Y-68685750D01*
X88276250Y-68527000D01*
X87427000Y-68527000D01*
X87173000Y-68527000D01*
X86323750Y-68527000D01*
X86165000Y-68685750D01*
X77352623Y-68685750D01*
X77250000Y-68665337D01*
X76260893Y-68862083D01*
X75422368Y-69422367D01*
X75399098Y-69457193D01*
X75297450Y-69355546D01*
X75248010Y-69306105D01*
X75085800Y-69197718D01*
X75085797Y-69197717D01*
X75085796Y-69197716D01*
X74829856Y-69091702D01*
X74638513Y-69053642D01*
X74638509Y-69053642D01*
X74569926Y-69040000D01*
X74180074Y-69040000D01*
X74111491Y-69053642D01*
X74111487Y-69053642D01*
X73920145Y-69091702D01*
X73664204Y-69197716D01*
X73664203Y-69197717D01*
X73664200Y-69197718D01*
X73501989Y-69306105D01*
X73403406Y-69404690D01*
X73350903Y-69457193D01*
X73327633Y-69422367D01*
X73198951Y-69336384D01*
X73127431Y-69163720D01*
X72836280Y-68872569D01*
X72455874Y-68715000D01*
X72044126Y-68715000D01*
X71948598Y-68754569D01*
X71500000Y-68665337D01*
X70510893Y-68862083D01*
X69672368Y-69422367D01*
X69649098Y-69457193D01*
X69547450Y-69355546D01*
X69498010Y-69306105D01*
X69335800Y-69197718D01*
X69335797Y-69197717D01*
X69335796Y-69197716D01*
X69079856Y-69091702D01*
X68889879Y-69053914D01*
X68823254Y-69040336D01*
X63055771Y-69013291D01*
X62804213Y-68968935D01*
X62639081Y-68873596D01*
X62516512Y-68727524D01*
X62440445Y-68518532D01*
X62432000Y-68422004D01*
X62432000Y-67773691D01*
X86165000Y-67773691D01*
X86165000Y-68114250D01*
X86323750Y-68273000D01*
X87173000Y-68273000D01*
X87173000Y-67423750D01*
X87427000Y-67423750D01*
X87427000Y-68273000D01*
X88276250Y-68273000D01*
X88435000Y-68114250D01*
X88435000Y-67773691D01*
X88338327Y-67540302D01*
X88159699Y-67361673D01*
X87926310Y-67265000D01*
X87585750Y-67265000D01*
X87427000Y-67423750D01*
X87173000Y-67423750D01*
X87014250Y-67265000D01*
X86673690Y-67265000D01*
X86440301Y-67361673D01*
X86261673Y-67540302D01*
X86165000Y-67773691D01*
X62432000Y-67773691D01*
X62432000Y-64643000D01*
X69247000Y-64643000D01*
X69367615Y-65327040D01*
X69714911Y-65928575D01*
X70247000Y-66375051D01*
X70899704Y-66612616D01*
X71594296Y-66612616D01*
X72247000Y-66375051D01*
X72779089Y-65928575D01*
X73126385Y-65327040D01*
X73247000Y-64643000D01*
X73126385Y-63958960D01*
X72779089Y-63357425D01*
X72247000Y-62910949D01*
X71594296Y-62673384D01*
X70899704Y-62673384D01*
X70247000Y-62910949D01*
X69714911Y-63357425D01*
X69367615Y-63958960D01*
X69247000Y-64643000D01*
X62432000Y-64643000D01*
X62432000Y-62500000D01*
X75877560Y-62500000D01*
X75877560Y-67000000D01*
X75926843Y-67247765D01*
X76067191Y-67457809D01*
X76277235Y-67598157D01*
X76525000Y-67647440D01*
X79475000Y-67647440D01*
X79722765Y-67598157D01*
X79932809Y-67457809D01*
X80073157Y-67247765D01*
X80122440Y-67000000D01*
X80122440Y-64583908D01*
X88115000Y-64583908D01*
X88115000Y-64916092D01*
X88242121Y-65222990D01*
X88477010Y-65457879D01*
X88783908Y-65585000D01*
X89116092Y-65585000D01*
X89422990Y-65457879D01*
X89500000Y-65380869D01*
X89577010Y-65457879D01*
X89883908Y-65585000D01*
X90216092Y-65585000D01*
X90522990Y-65457879D01*
X90757879Y-65222990D01*
X90885000Y-64916092D01*
X90885000Y-64583908D01*
X90757879Y-64277010D01*
X90522990Y-64042121D01*
X90216092Y-63915000D01*
X89883908Y-63915000D01*
X89577010Y-64042121D01*
X89500000Y-64119131D01*
X89422990Y-64042121D01*
X89116092Y-63915000D01*
X88783908Y-63915000D01*
X88477010Y-64042121D01*
X88242121Y-64277010D01*
X88115000Y-64583908D01*
X80122440Y-64583908D01*
X80122440Y-62500000D01*
X80073157Y-62252235D01*
X79932809Y-62042191D01*
X79722765Y-61901843D01*
X79475000Y-61852560D01*
X76525000Y-61852560D01*
X76277235Y-61901843D01*
X76067191Y-62042191D01*
X75926843Y-62252235D01*
X75877560Y-62500000D01*
X62432000Y-62500000D01*
X62432000Y-60504088D01*
X62497069Y-60430282D01*
X62533011Y-60377986D01*
X62572428Y-60328254D01*
X62576415Y-60321670D01*
X62908838Y-59766231D01*
X62943180Y-59689097D01*
X62978366Y-59612244D01*
X62980668Y-59604899D01*
X63171005Y-58986200D01*
X63185959Y-58903086D01*
X63201795Y-58820071D01*
X63202278Y-58812389D01*
X63239540Y-58166148D01*
X63234237Y-58081854D01*
X63229815Y-57997470D01*
X63228452Y-57989902D01*
X63228452Y-57989895D01*
X63228450Y-57989889D01*
X63110487Y-57353419D01*
X63085235Y-57272837D01*
X63060808Y-57191932D01*
X63057677Y-57184900D01*
X62791298Y-56594934D01*
X62760529Y-56544126D01*
X85965000Y-56544126D01*
X85965000Y-56955874D01*
X86122569Y-57336280D01*
X86413720Y-57627431D01*
X86514999Y-57669382D01*
X86515000Y-58888655D01*
X86510782Y-59053312D01*
X86546780Y-59146932D01*
X86566348Y-59245309D01*
X86609355Y-59309674D01*
X86637139Y-59381931D01*
X86706227Y-59454652D01*
X86761951Y-59538048D01*
X86898904Y-59629558D01*
X87300938Y-59913347D01*
X87372569Y-60086280D01*
X87663720Y-60377431D01*
X88044126Y-60535000D01*
X88455874Y-60535000D01*
X88836280Y-60377431D01*
X89127431Y-60086280D01*
X89285000Y-59705874D01*
X89285000Y-59500000D01*
X90852560Y-59500000D01*
X90852560Y-60500000D01*
X90901843Y-60747765D01*
X91042191Y-60957809D01*
X91252235Y-61098157D01*
X91292828Y-61106231D01*
X91215000Y-61294126D01*
X91215000Y-61705874D01*
X91372569Y-62086280D01*
X91552500Y-62266211D01*
X91552501Y-64153804D01*
X91538836Y-64222502D01*
X91592970Y-64494652D01*
X91620587Y-64535983D01*
X91747132Y-64725371D01*
X91805371Y-64764285D01*
X92802500Y-65761416D01*
X92802501Y-67181302D01*
X92788836Y-67250000D01*
X92789345Y-67252560D01*
X91800000Y-67252560D01*
X91552235Y-67301843D01*
X91342191Y-67442191D01*
X91201843Y-67652235D01*
X91152560Y-67900000D01*
X91152560Y-68900000D01*
X91201843Y-69147765D01*
X91342191Y-69357809D01*
X91552235Y-69498157D01*
X91800000Y-69547440D01*
X92582217Y-69547440D01*
X92722569Y-69886280D01*
X93013720Y-70177431D01*
X93394126Y-70335000D01*
X93805874Y-70335000D01*
X94186280Y-70177431D01*
X94477431Y-69886280D01*
X94635000Y-69505874D01*
X94635000Y-69371413D01*
X95208219Y-69944632D01*
X95247131Y-70002869D01*
X95313929Y-70047502D01*
X95477849Y-70157030D01*
X95750000Y-70211164D01*
X95818694Y-70197500D01*
X111681306Y-70197500D01*
X111750000Y-70211164D01*
X111818694Y-70197500D01*
X112022151Y-70157030D01*
X112252869Y-70002869D01*
X112291785Y-69944627D01*
X114194634Y-68041779D01*
X114252868Y-68002869D01*
X114315142Y-67909671D01*
X114407030Y-67772151D01*
X114461164Y-67500001D01*
X114447500Y-67431307D01*
X114447500Y-65516211D01*
X114627431Y-65336280D01*
X114785000Y-64955874D01*
X114785000Y-64544126D01*
X114627431Y-64163720D01*
X114336280Y-63872569D01*
X113955874Y-63715000D01*
X113544126Y-63715000D01*
X113163720Y-63872569D01*
X112872569Y-64163720D01*
X112715000Y-64544126D01*
X112715000Y-64955874D01*
X112872569Y-65336280D01*
X113052501Y-65516212D01*
X113052500Y-67211086D01*
X111461088Y-68802500D01*
X96038914Y-68802500D01*
X94197500Y-66961088D01*
X94197500Y-65541196D01*
X94211164Y-65472502D01*
X94157030Y-65200351D01*
X94041781Y-65027869D01*
X94041779Y-65027867D01*
X94002868Y-64969633D01*
X93944634Y-64930722D01*
X93656912Y-64643000D01*
X95282000Y-64643000D01*
X95402615Y-65327040D01*
X95749911Y-65928575D01*
X96282000Y-66375051D01*
X96934704Y-66612616D01*
X97629296Y-66612616D01*
X98282000Y-66375051D01*
X98814089Y-65928575D01*
X99115000Y-65407380D01*
X99115000Y-66662839D01*
X99097663Y-66750000D01*
X99115000Y-66837161D01*
X99115000Y-66837164D01*
X99166348Y-67095309D01*
X99361951Y-67388049D01*
X99435847Y-67437425D01*
X100062577Y-68064156D01*
X100111951Y-68138049D01*
X100185844Y-68187423D01*
X100185845Y-68187424D01*
X100230339Y-68217154D01*
X100404690Y-68333652D01*
X100662835Y-68385000D01*
X100662839Y-68385000D01*
X100749999Y-68402337D01*
X100837159Y-68385000D01*
X100993541Y-68385000D01*
X101042191Y-68457809D01*
X101252235Y-68598157D01*
X101500000Y-68647440D01*
X102500000Y-68647440D01*
X102747765Y-68598157D01*
X102957809Y-68457809D01*
X103098157Y-68247765D01*
X103147440Y-68000000D01*
X103147440Y-67000000D01*
X103098157Y-66752235D01*
X102957809Y-66542191D01*
X102747765Y-66401843D01*
X102500000Y-66352560D01*
X101500000Y-66352560D01*
X101252235Y-66401843D01*
X101043137Y-66541559D01*
X100885000Y-66383422D01*
X100885000Y-66175187D01*
X108315681Y-66175187D01*
X108315681Y-66726175D01*
X108526534Y-67235221D01*
X108916141Y-67624828D01*
X109425187Y-67835681D01*
X109976175Y-67835681D01*
X110485221Y-67624828D01*
X110874828Y-67235221D01*
X111085681Y-66726175D01*
X111085681Y-66175187D01*
X110874828Y-65666141D01*
X110485221Y-65276534D01*
X109976175Y-65065681D01*
X109425187Y-65065681D01*
X108916141Y-65276534D01*
X108526534Y-65666141D01*
X108315681Y-66175187D01*
X100885000Y-66175187D01*
X100885000Y-64137161D01*
X100902337Y-64050000D01*
X100885000Y-63962839D01*
X100885000Y-63962835D01*
X100833652Y-63704690D01*
X100806277Y-63663720D01*
X100687424Y-63485845D01*
X100687423Y-63485844D01*
X100638049Y-63411951D01*
X100564156Y-63362577D01*
X99926085Y-62724506D01*
X104865000Y-62724506D01*
X104865000Y-63275494D01*
X105075853Y-63784540D01*
X105465460Y-64174147D01*
X105974506Y-64385000D01*
X106525494Y-64385000D01*
X107034540Y-64174147D01*
X107424147Y-63784540D01*
X107635000Y-63275494D01*
X107635000Y-62724506D01*
X107424147Y-62215460D01*
X107034540Y-61825853D01*
X106525494Y-61615000D01*
X105974506Y-61615000D01*
X105465460Y-61825853D01*
X105075853Y-62215460D01*
X104865000Y-62724506D01*
X99926085Y-62724506D01*
X98977431Y-61775853D01*
X98827431Y-61413720D01*
X98536280Y-61122569D01*
X98155874Y-60965000D01*
X97744126Y-60965000D01*
X97363720Y-61122569D01*
X97072569Y-61413720D01*
X96915000Y-61794126D01*
X96915000Y-62205874D01*
X97072569Y-62586280D01*
X97159673Y-62673384D01*
X96934704Y-62673384D01*
X96282000Y-62910949D01*
X95749911Y-63357425D01*
X95402615Y-63958960D01*
X95282000Y-64643000D01*
X93656912Y-64643000D01*
X92947500Y-63933590D01*
X92947500Y-62266211D01*
X93127431Y-62086280D01*
X93285000Y-61705874D01*
X93285000Y-61294126D01*
X93127431Y-60913720D01*
X93043410Y-60829699D01*
X93098157Y-60747765D01*
X93147440Y-60500000D01*
X93147440Y-59500000D01*
X93098157Y-59252235D01*
X92957809Y-59042191D01*
X92747765Y-58901843D01*
X92500000Y-58852560D01*
X91500000Y-58852560D01*
X91252235Y-58901843D01*
X91042191Y-59042191D01*
X90901843Y-59252235D01*
X90852560Y-59500000D01*
X89285000Y-59500000D01*
X89285000Y-59294126D01*
X89127431Y-58913720D01*
X88836280Y-58622569D01*
X88474147Y-58472569D01*
X88284999Y-58283421D01*
X88284999Y-57237159D01*
X88302336Y-57149998D01*
X88284999Y-57062835D01*
X88284999Y-57062834D01*
X88233651Y-56804689D01*
X88038048Y-56511950D01*
X88015406Y-56496821D01*
X87877431Y-56163720D01*
X87586280Y-55872569D01*
X87205874Y-55715000D01*
X86794126Y-55715000D01*
X86413720Y-55872569D01*
X86122569Y-56163720D01*
X85965000Y-56544126D01*
X62760529Y-56544126D01*
X62747541Y-56522681D01*
X62704531Y-56449956D01*
X62699813Y-56443874D01*
X62432000Y-56102320D01*
X62432000Y-53500000D01*
X62445908Y-53500000D01*
X62561161Y-54079418D01*
X62889375Y-54570625D01*
X63380582Y-54898839D01*
X63813744Y-54985000D01*
X64106256Y-54985000D01*
X64539418Y-54898839D01*
X65030625Y-54570625D01*
X65042816Y-54552381D01*
X65051843Y-54597765D01*
X65192191Y-54807809D01*
X65402235Y-54948157D01*
X65650000Y-54997440D01*
X67350000Y-54997440D01*
X67597765Y-54948157D01*
X67807809Y-54807809D01*
X67948157Y-54597765D01*
X67997440Y-54350000D01*
X67997440Y-52650000D01*
X67948157Y-52402235D01*
X67807809Y-52192191D01*
X67597765Y-52051843D01*
X67350000Y-52002560D01*
X65650000Y-52002560D01*
X65402235Y-52051843D01*
X65192191Y-52192191D01*
X65051843Y-52402235D01*
X65042816Y-52447619D01*
X65030625Y-52429375D01*
X64539418Y-52101161D01*
X64106256Y-52015000D01*
X63813744Y-52015000D01*
X63380582Y-52101161D01*
X62889375Y-52429375D01*
X62561161Y-52920582D01*
X62445908Y-53500000D01*
X62432000Y-53500000D01*
X62432000Y-52018000D01*
X63061926Y-52018000D01*
X63130509Y-52004358D01*
X63130513Y-52004358D01*
X63373517Y-51956022D01*
X63629458Y-51850008D01*
X63629459Y-51850007D01*
X63835468Y-51712356D01*
X64031356Y-51516468D01*
X64169007Y-51310459D01*
X64195238Y-51247132D01*
X64275022Y-51054517D01*
X64323358Y-50811512D01*
X64323358Y-50811509D01*
X64337000Y-50742926D01*
X64337000Y-50113000D01*
X65601926Y-50113000D01*
X65670509Y-50099358D01*
X65670513Y-50099358D01*
X65913517Y-50051022D01*
X66169458Y-49945008D01*
X66169459Y-49945007D01*
X66375468Y-49807356D01*
X66465000Y-49717824D01*
X66465000Y-49845330D01*
X66698690Y-50409507D01*
X67130493Y-50841310D01*
X67694670Y-51075000D01*
X68305330Y-51075000D01*
X68869507Y-50841310D01*
X69301310Y-50409507D01*
X69535000Y-49845330D01*
X69535000Y-49234670D01*
X69301310Y-48670493D01*
X69132092Y-48501275D01*
X69147765Y-48498157D01*
X69357809Y-48357809D01*
X69498157Y-48147765D01*
X69547440Y-47900000D01*
X69547440Y-47648483D01*
X69697929Y-47547929D01*
X69740331Y-47484470D01*
X75464803Y-41760000D01*
X76503800Y-41760000D01*
X76325214Y-41879327D01*
X76271516Y-41933026D01*
X76129327Y-42075214D01*
X75966747Y-42318531D01*
X75877457Y-42534097D01*
X75860732Y-42574474D01*
X75803642Y-42861487D01*
X75803642Y-42861496D01*
X75790001Y-42930074D01*
X75790000Y-48569925D01*
X75803642Y-48638508D01*
X75803642Y-48638513D01*
X75860732Y-48925526D01*
X75860733Y-48925528D01*
X75860733Y-48925529D01*
X75966747Y-49181469D01*
X76129327Y-49424786D01*
X76187912Y-49483370D01*
X76325214Y-49620673D01*
X76568531Y-49783252D01*
X76568533Y-49783254D01*
X76780559Y-49871078D01*
X76824471Y-49889267D01*
X76824472Y-49889267D01*
X76824474Y-49889268D01*
X77111487Y-49946358D01*
X77111491Y-49946358D01*
X77180074Y-49960000D01*
X87319926Y-49960000D01*
X87388509Y-49946358D01*
X87388513Y-49946358D01*
X87675526Y-49889268D01*
X87675528Y-49889267D01*
X87675529Y-49889267D01*
X87873279Y-49807356D01*
X87931467Y-49783254D01*
X87931469Y-49783253D01*
X88174786Y-49620673D01*
X88312088Y-49483370D01*
X88370673Y-49424786D01*
X88533252Y-49181469D01*
X88533254Y-49181467D01*
X88635729Y-48934071D01*
X88639267Y-48925529D01*
X88639267Y-48925528D01*
X88639268Y-48925526D01*
X88696358Y-48638513D01*
X88696358Y-48638509D01*
X88710000Y-48569926D01*
X88710000Y-42930074D01*
X88696358Y-42861491D01*
X88696358Y-42861487D01*
X88639268Y-42574474D01*
X88533254Y-42318533D01*
X88533252Y-42318531D01*
X88370673Y-42075214D01*
X88228484Y-41933026D01*
X88174786Y-41879327D01*
X87996201Y-41760000D01*
X96082689Y-41760000D01*
X95965000Y-42044126D01*
X95965000Y-42295219D01*
X95937751Y-42336001D01*
X95842970Y-42477850D01*
X95788836Y-42750000D01*
X95802500Y-42818694D01*
X95802501Y-46450800D01*
X95788836Y-46519498D01*
X95842970Y-46791648D01*
X95875507Y-46840343D01*
X95997132Y-47022367D01*
X96055371Y-47061281D01*
X96515189Y-47521100D01*
X96372569Y-47663720D01*
X96215000Y-48044126D01*
X96215000Y-48455874D01*
X96372569Y-48836280D01*
X96663720Y-49127431D01*
X97044126Y-49285000D01*
X97298587Y-49285000D01*
X97302500Y-49288913D01*
X97302500Y-50215000D01*
X96944126Y-50215000D01*
X96563720Y-50372569D01*
X96272569Y-50663720D01*
X96115000Y-51044126D01*
X96115000Y-51455874D01*
X96272569Y-51836280D01*
X96563720Y-52127431D01*
X96852499Y-52247047D01*
X96852500Y-52981301D01*
X96838835Y-53049999D01*
X96892969Y-53322149D01*
X96892970Y-53322150D01*
X97047131Y-53552868D01*
X97105370Y-53591782D01*
X99816086Y-56302500D01*
X93847558Y-56302500D01*
X88187928Y-50642872D01*
X88149012Y-50584630D01*
X87918294Y-50430469D01*
X87714837Y-50389999D01*
X87646143Y-50376335D01*
X87577449Y-50389999D01*
X81981194Y-50389999D01*
X81912500Y-50376335D01*
X81843807Y-50389999D01*
X81640350Y-50430469D01*
X81457718Y-50552500D01*
X75788914Y-50552500D01*
X72785000Y-47548588D01*
X72785000Y-47294126D01*
X72627431Y-46913720D01*
X72336280Y-46622569D01*
X71955874Y-46465000D01*
X71544126Y-46465000D01*
X71163720Y-46622569D01*
X70872569Y-46913720D01*
X70715000Y-47294126D01*
X70715000Y-47705874D01*
X70872569Y-48086280D01*
X71163720Y-48377431D01*
X71544126Y-48535000D01*
X71798588Y-48535000D01*
X74958218Y-51694632D01*
X74997131Y-51752869D01*
X75163220Y-51863846D01*
X75227849Y-51907030D01*
X75500000Y-51961164D01*
X75568694Y-51947500D01*
X81681306Y-51947500D01*
X81750000Y-51961164D01*
X81818694Y-51947500D01*
X82022151Y-51907030D01*
X82204783Y-51784999D01*
X83965000Y-51784999D01*
X83965000Y-51955874D01*
X83971453Y-51971453D01*
X83955874Y-51965000D01*
X83544126Y-51965000D01*
X83163720Y-52122569D01*
X82872569Y-52413720D01*
X82715000Y-52794126D01*
X82715000Y-53205874D01*
X82872569Y-53586280D01*
X83163720Y-53877431D01*
X83544126Y-54035000D01*
X83955874Y-54035000D01*
X84336280Y-53877431D01*
X84516211Y-53697500D01*
X88211087Y-53697500D01*
X88805366Y-54291780D01*
X88805372Y-54291784D01*
X92608238Y-58094652D01*
X92647151Y-58152889D01*
X92800077Y-58255071D01*
X92877869Y-58307050D01*
X93150019Y-58361184D01*
X93218713Y-58347520D01*
X103215000Y-58347520D01*
X103215000Y-58705874D01*
X103358577Y-59052500D01*
X100766211Y-59052500D01*
X100586280Y-58872569D01*
X100205874Y-58715000D01*
X99794126Y-58715000D01*
X99413720Y-58872569D01*
X99122569Y-59163720D01*
X98965000Y-59544126D01*
X98965000Y-59955874D01*
X99122569Y-60336280D01*
X99413720Y-60627431D01*
X99794126Y-60785000D01*
X100205874Y-60785000D01*
X100586280Y-60627431D01*
X100766211Y-60447500D01*
X103681306Y-60447500D01*
X103750000Y-60461164D01*
X103818694Y-60447500D01*
X104022151Y-60407030D01*
X104252869Y-60252869D01*
X104291785Y-60194628D01*
X104694634Y-59791780D01*
X104752868Y-59752869D01*
X104791779Y-59694635D01*
X104791781Y-59694633D01*
X104907030Y-59522151D01*
X104923817Y-59437759D01*
X104947500Y-59318694D01*
X104947500Y-59318693D01*
X104960532Y-59253179D01*
X104988649Y-59225062D01*
X105055367Y-59291781D01*
X105055372Y-59291785D01*
X105465000Y-59701413D01*
X105465000Y-59955874D01*
X105622569Y-60336280D01*
X105913720Y-60627431D01*
X106294126Y-60785000D01*
X106705874Y-60785000D01*
X107086280Y-60627431D01*
X107377431Y-60336280D01*
X107535000Y-59955874D01*
X107535000Y-59544126D01*
X107377431Y-59163720D01*
X107338711Y-59125000D01*
X107627431Y-58836280D01*
X107785000Y-58455874D01*
X107785000Y-58044126D01*
X107627431Y-57663720D01*
X107588711Y-57625000D01*
X107627431Y-57586280D01*
X107692581Y-57428993D01*
X113708218Y-63444632D01*
X113747131Y-63502869D01*
X113805367Y-63541781D01*
X113977849Y-63657030D01*
X114250000Y-63711164D01*
X114318694Y-63697500D01*
X115460135Y-63697500D01*
X115497131Y-63752869D01*
X115727849Y-63907030D01*
X115931306Y-63947500D01*
X115931311Y-63947500D01*
X115999999Y-63961163D01*
X116068688Y-63947500D01*
X116255024Y-63947500D01*
X116215000Y-64044126D01*
X116215000Y-64455874D01*
X116372569Y-64836280D01*
X116663720Y-65127431D01*
X117044126Y-65285000D01*
X117455874Y-65285000D01*
X117836280Y-65127431D01*
X118016211Y-64947500D01*
X127681306Y-64947500D01*
X127750000Y-64961164D01*
X127818694Y-64947500D01*
X128022151Y-64907030D01*
X128252869Y-64752869D01*
X128291785Y-64694627D01*
X130201414Y-62785000D01*
X130455874Y-62785000D01*
X130836280Y-62627431D01*
X131127431Y-62336280D01*
X131285000Y-61955874D01*
X131285000Y-61697500D01*
X135711088Y-61697500D01*
X136958218Y-62944632D01*
X136997131Y-63002869D01*
X137227849Y-63157030D01*
X137431306Y-63197500D01*
X137431310Y-63197500D01*
X137499999Y-63211163D01*
X137568688Y-63197500D01*
X140483789Y-63197500D01*
X140663720Y-63377431D01*
X141044126Y-63535000D01*
X141455874Y-63535000D01*
X141836280Y-63377431D01*
X142127431Y-63086280D01*
X142285000Y-62705874D01*
X142285000Y-62294126D01*
X142127431Y-61913720D01*
X141836280Y-61622569D01*
X141455874Y-61465000D01*
X141044126Y-61465000D01*
X140663720Y-61622569D01*
X140483789Y-61802500D01*
X137788914Y-61802500D01*
X137121413Y-61135000D01*
X141681993Y-61135000D01*
X142044126Y-61285000D01*
X142455874Y-61285000D01*
X142836280Y-61127431D01*
X143127431Y-60836280D01*
X143285000Y-60455874D01*
X143285000Y-60044126D01*
X143127431Y-59663720D01*
X142836280Y-59372569D01*
X142455874Y-59215000D01*
X142044126Y-59215000D01*
X141681993Y-59365000D01*
X130374581Y-59365000D01*
X126195427Y-55185847D01*
X126146051Y-55111951D01*
X125853312Y-54916348D01*
X125595167Y-54865000D01*
X125595163Y-54865000D01*
X125508002Y-54847663D01*
X125420841Y-54865000D01*
X123219088Y-54865000D01*
X123285000Y-54705874D01*
X123285000Y-54294126D01*
X123197500Y-54082882D01*
X123197500Y-51819925D01*
X125540000Y-51819925D01*
X125553642Y-51888508D01*
X125553642Y-51888513D01*
X125610732Y-52175526D01*
X125610733Y-52175528D01*
X125610733Y-52175529D01*
X125657666Y-52288836D01*
X125715880Y-52429375D01*
X125716747Y-52431469D01*
X125879327Y-52674786D01*
X125932391Y-52727849D01*
X126075214Y-52870673D01*
X126318531Y-53033252D01*
X126318533Y-53033254D01*
X126530559Y-53121078D01*
X126574471Y-53139267D01*
X126574472Y-53139267D01*
X126574474Y-53139268D01*
X126861487Y-53196358D01*
X126861491Y-53196358D01*
X126930074Y-53210000D01*
X131569926Y-53210000D01*
X131638509Y-53196358D01*
X131638513Y-53196358D01*
X131925526Y-53139268D01*
X131925528Y-53139267D01*
X131925529Y-53139267D01*
X132141041Y-53049999D01*
X132181467Y-53033254D01*
X132181469Y-53033253D01*
X132424786Y-52870673D01*
X132567609Y-52727849D01*
X132620673Y-52674786D01*
X132783252Y-52431469D01*
X132783254Y-52431467D01*
X132889268Y-52175526D01*
X132946358Y-51888513D01*
X132946358Y-51888509D01*
X132960000Y-51819926D01*
X132960000Y-46180074D01*
X132946358Y-46111491D01*
X132946358Y-46111487D01*
X132889268Y-45824474D01*
X132783254Y-45568533D01*
X132783252Y-45568531D01*
X132620673Y-45325214D01*
X132484102Y-45188644D01*
X132424786Y-45129327D01*
X132181469Y-44966747D01*
X132155220Y-44955874D01*
X131942643Y-44867822D01*
X131925529Y-44860733D01*
X131925528Y-44860733D01*
X131925526Y-44860732D01*
X131638513Y-44803642D01*
X131638509Y-44803642D01*
X131569926Y-44790000D01*
X126930074Y-44790000D01*
X126861491Y-44803642D01*
X126861487Y-44803642D01*
X126574474Y-44860732D01*
X126574472Y-44860733D01*
X126574471Y-44860733D01*
X126557357Y-44867822D01*
X126318533Y-44966746D01*
X126318531Y-44966748D01*
X126075214Y-45129327D01*
X126015898Y-45188644D01*
X125879327Y-45325214D01*
X125716747Y-45568531D01*
X125716746Y-45568533D01*
X125705088Y-45596679D01*
X125627083Y-45785000D01*
X125610732Y-45824474D01*
X125553642Y-46111487D01*
X125553642Y-46111496D01*
X125540001Y-46180074D01*
X125540000Y-51819925D01*
X123197500Y-51819925D01*
X123197500Y-48568693D01*
X123211164Y-48499999D01*
X123157030Y-48227849D01*
X123136751Y-48197500D01*
X123002869Y-47997131D01*
X122944632Y-47958219D01*
X121197500Y-46211088D01*
X121197500Y-45447500D01*
X121733789Y-45447500D01*
X121913720Y-45627431D01*
X122294126Y-45785000D01*
X122705874Y-45785000D01*
X123086280Y-45627431D01*
X123377431Y-45336280D01*
X123535000Y-44955874D01*
X123535000Y-44544126D01*
X123377431Y-44163720D01*
X123086280Y-43872569D01*
X122705874Y-43715000D01*
X122294126Y-43715000D01*
X121913720Y-43872569D01*
X121733789Y-44052500D01*
X121258257Y-44052500D01*
X121674089Y-43703575D01*
X122021385Y-43102040D01*
X122142000Y-42418000D01*
X122021385Y-41733960D01*
X121674089Y-41132425D01*
X121142000Y-40685949D01*
X120489296Y-40448384D01*
X119794704Y-40448384D01*
X119142000Y-40685949D01*
X118609911Y-41132425D01*
X118262615Y-41733960D01*
X118142000Y-42418000D01*
X118262615Y-43102040D01*
X118609911Y-43703575D01*
X119142000Y-44150051D01*
X119794704Y-44387616D01*
X119903262Y-44387616D01*
X119842970Y-44477849D01*
X119788836Y-44750000D01*
X119802501Y-44818698D01*
X119802500Y-46431306D01*
X119788836Y-46500000D01*
X119820532Y-46659345D01*
X119842970Y-46772150D01*
X119997131Y-47002868D01*
X120055371Y-47041783D01*
X121802501Y-48788915D01*
X121802500Y-53565085D01*
X121663720Y-53622569D01*
X121372569Y-53913720D01*
X121215000Y-54294126D01*
X121215000Y-54705874D01*
X121218780Y-54715000D01*
X121044126Y-54715000D01*
X120663720Y-54872569D01*
X120372569Y-55163720D01*
X120330027Y-55266426D01*
X120205874Y-55215000D01*
X119951413Y-55215000D01*
X115184622Y-50448209D01*
X115285000Y-50205874D01*
X115285000Y-49794126D01*
X115127431Y-49413720D01*
X114836280Y-49122569D01*
X114455874Y-48965000D01*
X114044126Y-48965000D01*
X113663720Y-49122569D01*
X113372569Y-49413720D01*
X113215000Y-49794126D01*
X113215000Y-50205874D01*
X113372569Y-50586280D01*
X113662504Y-50876215D01*
X113747131Y-51002868D01*
X113805371Y-51041783D01*
X118965000Y-56201413D01*
X118965000Y-56455874D01*
X119122569Y-56836280D01*
X119413720Y-57127431D01*
X119685486Y-57240000D01*
X113564802Y-57240000D01*
X113535000Y-57210198D01*
X113535000Y-57044126D01*
X113377431Y-56663720D01*
X113162941Y-56449230D01*
X113336280Y-56377431D01*
X113375000Y-56338711D01*
X113413720Y-56377431D01*
X113794126Y-56535000D01*
X114205874Y-56535000D01*
X114586280Y-56377431D01*
X114877431Y-56086280D01*
X115035000Y-55705874D01*
X115035000Y-55294126D01*
X114877431Y-54913720D01*
X114586280Y-54622569D01*
X114205874Y-54465000D01*
X113951413Y-54465000D01*
X112447500Y-52961088D01*
X112447500Y-39523786D01*
X112451413Y-39519873D01*
X112705874Y-39519873D01*
X113086280Y-39362304D01*
X113377431Y-39071153D01*
X113535000Y-38690747D01*
X113535000Y-38528172D01*
X113555367Y-38541781D01*
X113727849Y-38657030D01*
X114000000Y-38711164D01*
X114067802Y-38697677D01*
X114067803Y-39795938D01*
X113965000Y-40044126D01*
X113965000Y-40455874D01*
X114122569Y-40836280D01*
X114413720Y-41127431D01*
X114794126Y-41285000D01*
X115205874Y-41285000D01*
X115586280Y-41127431D01*
X115877431Y-40836280D01*
X116035000Y-40455874D01*
X116035000Y-40044126D01*
X115877431Y-39663720D01*
X115586280Y-39372569D01*
X115462802Y-39321423D01*
X115462802Y-38333996D01*
X115476466Y-38265302D01*
X115422332Y-37993152D01*
X115422332Y-37993151D01*
X115268170Y-37762433D01*
X115209933Y-37723520D01*
X115041785Y-37555372D01*
X115002869Y-37497131D01*
X114772151Y-37342970D01*
X114568694Y-37302500D01*
X114500000Y-37288836D01*
X114431306Y-37302500D01*
X114288914Y-37302500D01*
X113785000Y-36798587D01*
X113785000Y-36784999D01*
X118210198Y-36784999D01*
X125159673Y-43734476D01*
G36*
X120061909Y-58913720D02*
X119904340Y-59294126D01*
X119904340Y-59705874D01*
X120061909Y-60086280D01*
X120353060Y-60377431D01*
X120733466Y-60535000D01*
X120987927Y-60535000D01*
X121397558Y-60944632D01*
X121436471Y-61002869D01*
X121494707Y-61041781D01*
X121667189Y-61157030D01*
X121939340Y-61211164D01*
X122008034Y-61197500D01*
X123891845Y-61197500D01*
X123901843Y-61247765D01*
X124042191Y-61457809D01*
X124252235Y-61598157D01*
X124500000Y-61647440D01*
X125500000Y-61647440D01*
X125747765Y-61598157D01*
X125957809Y-61457809D01*
X126098157Y-61247765D01*
X126147440Y-61000000D01*
X126147440Y-60974241D01*
X126294126Y-61035000D01*
X126548587Y-61035000D01*
X126720726Y-61207139D01*
X126759641Y-61265379D01*
X126981649Y-61413720D01*
X126990359Y-61419540D01*
X127262510Y-61473674D01*
X127331204Y-61460010D01*
X128968494Y-61460010D01*
X128997131Y-61502869D01*
X129215000Y-61648445D01*
X129215000Y-61798586D01*
X127461088Y-63552500D01*
X121141423Y-63552500D01*
X121285000Y-63205874D01*
X121285000Y-62794126D01*
X121127431Y-62413720D01*
X120836280Y-62122569D01*
X120645186Y-62043415D01*
X120785000Y-61705874D01*
X120785000Y-61294126D01*
X120627431Y-60913720D01*
X120336280Y-60622569D01*
X119955874Y-60465000D01*
X119544126Y-60465000D01*
X119163720Y-60622569D01*
X118872569Y-60913720D01*
X118715000Y-61294126D01*
X118715000Y-61705874D01*
X118815378Y-61948209D01*
X118711087Y-62052500D01*
X116498834Y-62052500D01*
X116447141Y-62017960D01*
X116243684Y-61977490D01*
X116174990Y-61963826D01*
X116106296Y-61977490D01*
X114673534Y-61977490D01*
X114646601Y-61950556D01*
X114646597Y-61950551D01*
X112643544Y-59947500D01*
X115431306Y-59947500D01*
X115500000Y-59961164D01*
X115568694Y-59947500D01*
X115772151Y-59907030D01*
X115954782Y-59785000D01*
X116205874Y-59785000D01*
X116586280Y-59627431D01*
X116877431Y-59336280D01*
X117035000Y-58955874D01*
X117035000Y-58760000D01*
X120215629Y-58760000D01*
X120061909Y-58913720D01*
X120061909Y-58913720D01*
G37*
X120061909Y-58913720D02*
X119904340Y-59294126D01*
X119904340Y-59705874D01*
X120061909Y-60086280D01*
X120353060Y-60377431D01*
X120733466Y-60535000D01*
X120987927Y-60535000D01*
X121397558Y-60944632D01*
X121436471Y-61002869D01*
X121494707Y-61041781D01*
X121667189Y-61157030D01*
X121939340Y-61211164D01*
X122008034Y-61197500D01*
X123891845Y-61197500D01*
X123901843Y-61247765D01*
X124042191Y-61457809D01*
X124252235Y-61598157D01*
X124500000Y-61647440D01*
X125500000Y-61647440D01*
X125747765Y-61598157D01*
X125957809Y-61457809D01*
X126098157Y-61247765D01*
X126147440Y-61000000D01*
X126147440Y-60974241D01*
X126294126Y-61035000D01*
X126548587Y-61035000D01*
X126720726Y-61207139D01*
X126759641Y-61265379D01*
X126981649Y-61413720D01*
X126990359Y-61419540D01*
X127262510Y-61473674D01*
X127331204Y-61460010D01*
X128968494Y-61460010D01*
X128997131Y-61502869D01*
X129215000Y-61648445D01*
X129215000Y-61798586D01*
X127461088Y-63552500D01*
X121141423Y-63552500D01*
X121285000Y-63205874D01*
X121285000Y-62794126D01*
X121127431Y-62413720D01*
X120836280Y-62122569D01*
X120645186Y-62043415D01*
X120785000Y-61705874D01*
X120785000Y-61294126D01*
X120627431Y-60913720D01*
X120336280Y-60622569D01*
X119955874Y-60465000D01*
X119544126Y-60465000D01*
X119163720Y-60622569D01*
X118872569Y-60913720D01*
X118715000Y-61294126D01*
X118715000Y-61705874D01*
X118815378Y-61948209D01*
X118711087Y-62052500D01*
X116498834Y-62052500D01*
X116447141Y-62017960D01*
X116243684Y-61977490D01*
X116174990Y-61963826D01*
X116106296Y-61977490D01*
X114673534Y-61977490D01*
X114646601Y-61950556D01*
X114646597Y-61950551D01*
X112643544Y-59947500D01*
X115431306Y-59947500D01*
X115500000Y-59961164D01*
X115568694Y-59947500D01*
X115772151Y-59907030D01*
X115954782Y-59785000D01*
X116205874Y-59785000D01*
X116586280Y-59627431D01*
X116877431Y-59336280D01*
X117035000Y-58955874D01*
X117035000Y-58760000D01*
X120215629Y-58760000D01*
X120061909Y-58913720D01*
G36*
X128571433Y-60065010D02*
X127551423Y-60065010D01*
X127535000Y-60048587D01*
X127535000Y-59794126D01*
X127377431Y-59413720D01*
X127086280Y-59122569D01*
X126705874Y-58965000D01*
X126539802Y-58965000D01*
X125090331Y-57515530D01*
X125047929Y-57452071D01*
X124796537Y-57284096D01*
X124574852Y-57240000D01*
X124574847Y-57240000D01*
X124500000Y-57225112D01*
X124425153Y-57240000D01*
X120314514Y-57240000D01*
X120586280Y-57127431D01*
X120877431Y-56836280D01*
X120919973Y-56733574D01*
X121044126Y-56785000D01*
X121455874Y-56785000D01*
X121818007Y-56635000D01*
X125141424Y-56635000D01*
X128571433Y-60065010D01*
X128571433Y-60065010D01*
G37*
X128571433Y-60065010D02*
X127551423Y-60065010D01*
X127535000Y-60048587D01*
X127535000Y-59794126D01*
X127377431Y-59413720D01*
X127086280Y-59122569D01*
X126705874Y-58965000D01*
X126539802Y-58965000D01*
X125090331Y-57515530D01*
X125047929Y-57452071D01*
X124796537Y-57284096D01*
X124574852Y-57240000D01*
X124574847Y-57240000D01*
X124500000Y-57225112D01*
X124425153Y-57240000D01*
X120314514Y-57240000D01*
X120586280Y-57127431D01*
X120877431Y-56836280D01*
X120919973Y-56733574D01*
X121044126Y-56785000D01*
X121455874Y-56785000D01*
X121818007Y-56635000D01*
X125141424Y-56635000D01*
X128571433Y-60065010D01*
G36*
X124777759Y-59352560D02*
X124500000Y-59352560D01*
X124252235Y-59401843D01*
X124042191Y-59542191D01*
X123901843Y-59752235D01*
X123891845Y-59802500D01*
X122228254Y-59802500D01*
X121974340Y-59548587D01*
X121974340Y-59294126D01*
X121816771Y-58913720D01*
X121663051Y-58760000D01*
X124185199Y-58760000D01*
X124777759Y-59352560D01*
X124777759Y-59352560D01*
G37*
X124777759Y-59352560D02*
X124500000Y-59352560D01*
X124252235Y-59401843D01*
X124042191Y-59542191D01*
X123901843Y-59752235D01*
X123891845Y-59802500D01*
X122228254Y-59802500D01*
X121974340Y-59548587D01*
X121974340Y-59294126D01*
X121816771Y-58913720D01*
X121663051Y-58760000D01*
X124185199Y-58760000D01*
X124777759Y-59352560D01*
G36*
X108965000Y-49951414D02*
X108965000Y-50205874D01*
X109122569Y-50586280D01*
X109388849Y-50852560D01*
X109000000Y-50852560D01*
X108752235Y-50901843D01*
X108542191Y-51042191D01*
X108401843Y-51252235D01*
X108352560Y-51500000D01*
X108352560Y-52500000D01*
X108401843Y-52747765D01*
X108542191Y-52957809D01*
X108752235Y-53098157D01*
X108965000Y-53140478D01*
X108965000Y-53455874D01*
X109122569Y-53836280D01*
X109413720Y-54127431D01*
X109794126Y-54285000D01*
X110205874Y-54285000D01*
X110565866Y-54135887D01*
X110592970Y-54272150D01*
X110624069Y-54318693D01*
X110747132Y-54502869D01*
X110805371Y-54541783D01*
X111715000Y-55451413D01*
X111715000Y-55705874D01*
X111872569Y-56086280D01*
X112087059Y-56300770D01*
X111913720Y-56372569D01*
X111622569Y-56663720D01*
X111465000Y-57044126D01*
X111465000Y-57455874D01*
X111622569Y-57836280D01*
X111913720Y-58127431D01*
X112294126Y-58285000D01*
X112460198Y-58285000D01*
X112659670Y-58484472D01*
X112702071Y-58547929D01*
X112708912Y-58552500D01*
X111788914Y-58552500D01*
X108950062Y-55713649D01*
X108977431Y-55686280D01*
X109135000Y-55305874D01*
X109135000Y-54894126D01*
X108977431Y-54513720D01*
X108844314Y-54380603D01*
X108815904Y-54237778D01*
X108647929Y-53986386D01*
X108584473Y-53943986D01*
X106156016Y-51515530D01*
X106113614Y-51452071D01*
X105862222Y-51284096D01*
X105640537Y-51240000D01*
X105640532Y-51240000D01*
X105582233Y-51228404D01*
X105457809Y-51042191D01*
X105247765Y-50901843D01*
X105000000Y-50852560D01*
X104000000Y-50852560D01*
X103752235Y-50901843D01*
X103542191Y-51042191D01*
X103401843Y-51252235D01*
X103352560Y-51500000D01*
X103352560Y-52500000D01*
X103401843Y-52747765D01*
X103542191Y-52957809D01*
X103752235Y-53098157D01*
X104000000Y-53147440D01*
X105000000Y-53147440D01*
X105247765Y-53098157D01*
X105452344Y-52961460D01*
X106793383Y-54302500D01*
X106568693Y-54302500D01*
X106499999Y-54288836D01*
X106255354Y-54337499D01*
X106227849Y-54342970D01*
X105997131Y-54497131D01*
X105958216Y-54555371D01*
X105536098Y-54977490D01*
X103963904Y-54977490D01*
X102879284Y-53892872D01*
X102840368Y-53834630D01*
X102609650Y-53680469D01*
X102406193Y-53639999D01*
X102337499Y-53626335D01*
X102268805Y-53639999D01*
X101788914Y-53639999D01*
X101197500Y-53048587D01*
X101197500Y-50568693D01*
X101211164Y-50500000D01*
X101197334Y-50430469D01*
X101157030Y-50227849D01*
X101080290Y-50113000D01*
X101041781Y-50055367D01*
X101041779Y-50055365D01*
X101002868Y-49997131D01*
X100944634Y-49958220D01*
X100197500Y-49211088D01*
X100197500Y-48318694D01*
X100211164Y-48250000D01*
X100157030Y-47977849D01*
X100134835Y-47944632D01*
X100035000Y-47795218D01*
X100035000Y-47544126D01*
X99953555Y-47347499D01*
X106361087Y-47347499D01*
X108965000Y-49951414D01*
X108965000Y-49951414D01*
G37*
X108965000Y-49951414D02*
X108965000Y-50205874D01*
X109122569Y-50586280D01*
X109388849Y-50852560D01*
X109000000Y-50852560D01*
X108752235Y-50901843D01*
X108542191Y-51042191D01*
X108401843Y-51252235D01*
X108352560Y-51500000D01*
X108352560Y-52500000D01*
X108401843Y-52747765D01*
X108542191Y-52957809D01*
X108752235Y-53098157D01*
X108965000Y-53140478D01*
X108965000Y-53455874D01*
X109122569Y-53836280D01*
X109413720Y-54127431D01*
X109794126Y-54285000D01*
X110205874Y-54285000D01*
X110565866Y-54135887D01*
X110592970Y-54272150D01*
X110624069Y-54318693D01*
X110747132Y-54502869D01*
X110805371Y-54541783D01*
X111715000Y-55451413D01*
X111715000Y-55705874D01*
X111872569Y-56086280D01*
X112087059Y-56300770D01*
X111913720Y-56372569D01*
X111622569Y-56663720D01*
X111465000Y-57044126D01*
X111465000Y-57455874D01*
X111622569Y-57836280D01*
X111913720Y-58127431D01*
X112294126Y-58285000D01*
X112460198Y-58285000D01*
X112659670Y-58484472D01*
X112702071Y-58547929D01*
X112708912Y-58552500D01*
X111788914Y-58552500D01*
X108950062Y-55713649D01*
X108977431Y-55686280D01*
X109135000Y-55305874D01*
X109135000Y-54894126D01*
X108977431Y-54513720D01*
X108844314Y-54380603D01*
X108815904Y-54237778D01*
X108647929Y-53986386D01*
X108584473Y-53943986D01*
X106156016Y-51515530D01*
X106113614Y-51452071D01*
X105862222Y-51284096D01*
X105640537Y-51240000D01*
X105640532Y-51240000D01*
X105582233Y-51228404D01*
X105457809Y-51042191D01*
X105247765Y-50901843D01*
X105000000Y-50852560D01*
X104000000Y-50852560D01*
X103752235Y-50901843D01*
X103542191Y-51042191D01*
X103401843Y-51252235D01*
X103352560Y-51500000D01*
X103352560Y-52500000D01*
X103401843Y-52747765D01*
X103542191Y-52957809D01*
X103752235Y-53098157D01*
X104000000Y-53147440D01*
X105000000Y-53147440D01*
X105247765Y-53098157D01*
X105452344Y-52961460D01*
X106793383Y-54302500D01*
X106568693Y-54302500D01*
X106499999Y-54288836D01*
X106255354Y-54337499D01*
X106227849Y-54342970D01*
X105997131Y-54497131D01*
X105958216Y-54555371D01*
X105536098Y-54977490D01*
X103963904Y-54977490D01*
X102879284Y-53892872D01*
X102840368Y-53834630D01*
X102609650Y-53680469D01*
X102406193Y-53639999D01*
X102337499Y-53626335D01*
X102268805Y-53639999D01*
X101788914Y-53639999D01*
X101197500Y-53048587D01*
X101197500Y-50568693D01*
X101211164Y-50500000D01*
X101197334Y-50430469D01*
X101157030Y-50227849D01*
X101080290Y-50113000D01*
X101041781Y-50055367D01*
X101041779Y-50055365D01*
X101002868Y-49997131D01*
X100944634Y-49958220D01*
X100197500Y-49211088D01*
X100197500Y-48318694D01*
X100211164Y-48250000D01*
X100157030Y-47977849D01*
X100134835Y-47944632D01*
X100035000Y-47795218D01*
X100035000Y-47544126D01*
X99953555Y-47347499D01*
X106361087Y-47347499D01*
X108965000Y-49951414D01*
G36*
X99055371Y-50041783D02*
X99802500Y-50788914D01*
X99802501Y-53066088D01*
X99022510Y-52286098D01*
X99022510Y-50019826D01*
X99055371Y-50041783D01*
X99055371Y-50041783D01*
G37*
X99055371Y-50041783D02*
X99802500Y-50788914D01*
X99802501Y-53066088D01*
X99022510Y-52286098D01*
X99022510Y-50019826D01*
X99055371Y-50041783D01*
G36*
X110413720Y-36872569D02*
X110122569Y-37163720D01*
X109965000Y-37544126D01*
X109965000Y-37955874D01*
X110122569Y-38336280D01*
X110302501Y-38516212D01*
X110302501Y-38681302D01*
X110288836Y-38750000D01*
X110342970Y-39022150D01*
X110342971Y-39022151D01*
X110497132Y-39252869D01*
X110552500Y-39289865D01*
X110552501Y-49108577D01*
X110205874Y-48965000D01*
X109951414Y-48965000D01*
X107191784Y-46205372D01*
X107152868Y-46147130D01*
X106922150Y-45992969D01*
X106718693Y-45952499D01*
X106649999Y-45938835D01*
X106581305Y-45952499D01*
X98247047Y-45952499D01*
X98127431Y-45663720D01*
X97836280Y-45372569D01*
X97455874Y-45215000D01*
X97197500Y-45215000D01*
X97197500Y-43285000D01*
X97205874Y-43285000D01*
X97586280Y-43127431D01*
X97877431Y-42836280D01*
X98035000Y-42455874D01*
X98035000Y-42044126D01*
X97917311Y-41760000D01*
X99439198Y-41760000D01*
X99440955Y-41761758D01*
X99063647Y-41918044D01*
X98687044Y-42294647D01*
X98483228Y-42786702D01*
X98483228Y-43319298D01*
X98687044Y-43811353D01*
X99063647Y-44187956D01*
X99555702Y-44391772D01*
X100088298Y-44391772D01*
X100580353Y-44187956D01*
X100956956Y-43811353D01*
X101113242Y-43434045D01*
X101259671Y-43580474D01*
X101302071Y-43643930D01*
X101452560Y-43744484D01*
X101452560Y-43996001D01*
X101501843Y-44243766D01*
X101642191Y-44453810D01*
X101852235Y-44594158D01*
X102100000Y-44643441D01*
X103900000Y-44643441D01*
X104147765Y-44594158D01*
X104357809Y-44453810D01*
X104498157Y-44243766D01*
X104501275Y-44228093D01*
X104670493Y-44397311D01*
X105234670Y-44631001D01*
X105845330Y-44631001D01*
X106409507Y-44397311D01*
X106841310Y-43965508D01*
X107075000Y-43401331D01*
X107075000Y-42790671D01*
X107071336Y-42781824D01*
X107348708Y-42781824D01*
X107348708Y-43324176D01*
X107556257Y-43825243D01*
X107939757Y-44208743D01*
X108440824Y-44416292D01*
X108983176Y-44416292D01*
X109484243Y-44208743D01*
X109867743Y-43825243D01*
X110075292Y-43324176D01*
X110075292Y-42781824D01*
X109867743Y-42280757D01*
X109484243Y-41897257D01*
X108983176Y-41689708D01*
X108440824Y-41689708D01*
X107939757Y-41897257D01*
X107556257Y-42280757D01*
X107348708Y-42781824D01*
X107071336Y-42781824D01*
X106841310Y-42226494D01*
X106409507Y-41794691D01*
X105845330Y-41561001D01*
X105234670Y-41561001D01*
X104670493Y-41794691D01*
X104501275Y-41963909D01*
X104498157Y-41948236D01*
X104357809Y-41738192D01*
X104312731Y-41708071D01*
X109235805Y-36784999D01*
X110625133Y-36784999D01*
X110413720Y-36872569D01*
X110413720Y-36872569D01*
G37*
X110413720Y-36872569D02*
X110122569Y-37163720D01*
X109965000Y-37544126D01*
X109965000Y-37955874D01*
X110122569Y-38336280D01*
X110302501Y-38516212D01*
X110302501Y-38681302D01*
X110288836Y-38750000D01*
X110342970Y-39022150D01*
X110342971Y-39022151D01*
X110497132Y-39252869D01*
X110552500Y-39289865D01*
X110552501Y-49108577D01*
X110205874Y-48965000D01*
X109951414Y-48965000D01*
X107191784Y-46205372D01*
X107152868Y-46147130D01*
X106922150Y-45992969D01*
X106718693Y-45952499D01*
X106649999Y-45938835D01*
X106581305Y-45952499D01*
X98247047Y-45952499D01*
X98127431Y-45663720D01*
X97836280Y-45372569D01*
X97455874Y-45215000D01*
X97197500Y-45215000D01*
X97197500Y-43285000D01*
X97205874Y-43285000D01*
X97586280Y-43127431D01*
X97877431Y-42836280D01*
X98035000Y-42455874D01*
X98035000Y-42044126D01*
X97917311Y-41760000D01*
X99439198Y-41760000D01*
X99440955Y-41761758D01*
X99063647Y-41918044D01*
X98687044Y-42294647D01*
X98483228Y-42786702D01*
X98483228Y-43319298D01*
X98687044Y-43811353D01*
X99063647Y-44187956D01*
X99555702Y-44391772D01*
X100088298Y-44391772D01*
X100580353Y-44187956D01*
X100956956Y-43811353D01*
X101113242Y-43434045D01*
X101259671Y-43580474D01*
X101302071Y-43643930D01*
X101452560Y-43744484D01*
X101452560Y-43996001D01*
X101501843Y-44243766D01*
X101642191Y-44453810D01*
X101852235Y-44594158D01*
X102100000Y-44643441D01*
X103900000Y-44643441D01*
X104147765Y-44594158D01*
X104357809Y-44453810D01*
X104498157Y-44243766D01*
X104501275Y-44228093D01*
X104670493Y-44397311D01*
X105234670Y-44631001D01*
X105845330Y-44631001D01*
X106409507Y-44397311D01*
X106841310Y-43965508D01*
X107075000Y-43401331D01*
X107075000Y-42790671D01*
X107071336Y-42781824D01*
X107348708Y-42781824D01*
X107348708Y-43324176D01*
X107556257Y-43825243D01*
X107939757Y-44208743D01*
X108440824Y-44416292D01*
X108983176Y-44416292D01*
X109484243Y-44208743D01*
X109867743Y-43825243D01*
X110075292Y-43324176D01*
X110075292Y-42781824D01*
X109867743Y-42280757D01*
X109484243Y-41897257D01*
X108983176Y-41689708D01*
X108440824Y-41689708D01*
X107939757Y-41897257D01*
X107556257Y-42280757D01*
X107348708Y-42781824D01*
X107071336Y-42781824D01*
X106841310Y-42226494D01*
X106409507Y-41794691D01*
X105845330Y-41561001D01*
X105234670Y-41561001D01*
X104670493Y-41794691D01*
X104501275Y-41963909D01*
X104498157Y-41948236D01*
X104357809Y-41738192D01*
X104312731Y-41708071D01*
X109235805Y-36784999D01*
X110625133Y-36784999D01*
X110413720Y-36872569D01*
G36*
X145729787Y-36187065D02*
X145894920Y-36282405D01*
X146017488Y-36428477D01*
X146093555Y-36637465D01*
X146102001Y-36734007D01*
X146102000Y-44248000D01*
X145472074Y-44248000D01*
X145403491Y-44261642D01*
X145403488Y-44261642D01*
X145160483Y-44309978D01*
X144949643Y-44397311D01*
X144904541Y-44415993D01*
X144698532Y-44553644D01*
X144502644Y-44749532D01*
X144413463Y-44883000D01*
X142932074Y-44883000D01*
X142863491Y-44896642D01*
X142863488Y-44896642D01*
X142620483Y-44944978D01*
X142364543Y-45050992D01*
X142364541Y-45050993D01*
X142158532Y-45188644D01*
X141962644Y-45384532D01*
X141824994Y-45590540D01*
X141824992Y-45590542D01*
X141807417Y-45632972D01*
X141305330Y-45425000D01*
X140694670Y-45425000D01*
X140130493Y-45658690D01*
X139698690Y-46090493D01*
X139465000Y-46654670D01*
X139465000Y-47265330D01*
X139698690Y-47829507D01*
X139867908Y-47998725D01*
X139852235Y-48001843D01*
X139642191Y-48142191D01*
X139612071Y-48187269D01*
X134190331Y-42765530D01*
X134147929Y-42702071D01*
X133896537Y-42534096D01*
X133674852Y-42490000D01*
X133674847Y-42490000D01*
X133600000Y-42475112D01*
X133525153Y-42490000D01*
X126064803Y-42490000D01*
X124822803Y-41248000D01*
X132232449Y-41248000D01*
X132372569Y-41586280D01*
X132663720Y-41877431D01*
X133044126Y-42035000D01*
X133455874Y-42035000D01*
X133750000Y-41913169D01*
X134044126Y-42035000D01*
X134455874Y-42035000D01*
X134750000Y-41913169D01*
X135044126Y-42035000D01*
X135455874Y-42035000D01*
X135750000Y-41913169D01*
X136044126Y-42035000D01*
X136455874Y-42035000D01*
X136750000Y-41913169D01*
X137044126Y-42035000D01*
X137455874Y-42035000D01*
X137750000Y-41913169D01*
X138044126Y-42035000D01*
X138455874Y-42035000D01*
X138750000Y-41913169D01*
X139044126Y-42035000D01*
X139455874Y-42035000D01*
X139750000Y-41913169D01*
X140044126Y-42035000D01*
X140455874Y-42035000D01*
X140750000Y-41913169D01*
X141044126Y-42035000D01*
X141455874Y-42035000D01*
X141750000Y-41913169D01*
X142044126Y-42035000D01*
X142455874Y-42035000D01*
X142836280Y-41877431D01*
X143127431Y-41586280D01*
X143285000Y-41205874D01*
X143285000Y-41032287D01*
X143440354Y-40799783D01*
X143483000Y-40585388D01*
X143497399Y-40513000D01*
X143483000Y-40440612D01*
X143483000Y-36143000D01*
X145479881Y-36143000D01*
X145729787Y-36187065D01*
X145729787Y-36187065D01*
G37*
X145729787Y-36187065D02*
X145894920Y-36282405D01*
X146017488Y-36428477D01*
X146093555Y-36637465D01*
X146102001Y-36734007D01*
X146102000Y-44248000D01*
X145472074Y-44248000D01*
X145403491Y-44261642D01*
X145403488Y-44261642D01*
X145160483Y-44309978D01*
X144949643Y-44397311D01*
X144904541Y-44415993D01*
X144698532Y-44553644D01*
X144502644Y-44749532D01*
X144413463Y-44883000D01*
X142932074Y-44883000D01*
X142863491Y-44896642D01*
X142863488Y-44896642D01*
X142620483Y-44944978D01*
X142364543Y-45050992D01*
X142364541Y-45050993D01*
X142158532Y-45188644D01*
X141962644Y-45384532D01*
X141824994Y-45590540D01*
X141824992Y-45590542D01*
X141807417Y-45632972D01*
X141305330Y-45425000D01*
X140694670Y-45425000D01*
X140130493Y-45658690D01*
X139698690Y-46090493D01*
X139465000Y-46654670D01*
X139465000Y-47265330D01*
X139698690Y-47829507D01*
X139867908Y-47998725D01*
X139852235Y-48001843D01*
X139642191Y-48142191D01*
X139612071Y-48187269D01*
X134190331Y-42765530D01*
X134147929Y-42702071D01*
X133896537Y-42534096D01*
X133674852Y-42490000D01*
X133674847Y-42490000D01*
X133600000Y-42475112D01*
X133525153Y-42490000D01*
X126064803Y-42490000D01*
X124822803Y-41248000D01*
X132232449Y-41248000D01*
X132372569Y-41586280D01*
X132663720Y-41877431D01*
X133044126Y-42035000D01*
X133455874Y-42035000D01*
X133750000Y-41913169D01*
X134044126Y-42035000D01*
X134455874Y-42035000D01*
X134750000Y-41913169D01*
X135044126Y-42035000D01*
X135455874Y-42035000D01*
X135750000Y-41913169D01*
X136044126Y-42035000D01*
X136455874Y-42035000D01*
X136750000Y-41913169D01*
X137044126Y-42035000D01*
X137455874Y-42035000D01*
X137750000Y-41913169D01*
X138044126Y-42035000D01*
X138455874Y-42035000D01*
X138750000Y-41913169D01*
X139044126Y-42035000D01*
X139455874Y-42035000D01*
X139750000Y-41913169D01*
X140044126Y-42035000D01*
X140455874Y-42035000D01*
X140750000Y-41913169D01*
X141044126Y-42035000D01*
X141455874Y-42035000D01*
X141750000Y-41913169D01*
X142044126Y-42035000D01*
X142455874Y-42035000D01*
X142836280Y-41877431D01*
X143127431Y-41586280D01*
X143285000Y-41205874D01*
X143285000Y-41032287D01*
X143440354Y-40799783D01*
X143483000Y-40585388D01*
X143497399Y-40513000D01*
X143483000Y-40440612D01*
X143483000Y-36143000D01*
X145479881Y-36143000D01*
X145729787Y-36187065D01*
G36*
X102515528Y-41355672D02*
X102452072Y-41398072D01*
X102409672Y-41461528D01*
X102409671Y-41461529D01*
X102351518Y-41548561D01*
X102100000Y-41548561D01*
X101852235Y-41597844D01*
X101642191Y-41738192D01*
X101612071Y-41783270D01*
X100344330Y-40515530D01*
X100301928Y-40452071D01*
X100050536Y-40284096D01*
X99828851Y-40240000D01*
X99828846Y-40240000D01*
X99753999Y-40225112D01*
X99679152Y-40240000D01*
X75455373Y-40240000D01*
X75446537Y-40234096D01*
X75150000Y-40175111D01*
X74853464Y-40234096D01*
X74602071Y-40402071D01*
X74458989Y-40616208D01*
X73158591Y-41916607D01*
X73126385Y-41733960D01*
X72779089Y-41132425D01*
X72247000Y-40685949D01*
X71594296Y-40448384D01*
X70899704Y-40448384D01*
X70247000Y-40685949D01*
X69714911Y-41132425D01*
X69367615Y-41733960D01*
X69247000Y-42418000D01*
X69367615Y-43102040D01*
X69714911Y-43703575D01*
X70247000Y-44150051D01*
X70744186Y-44331012D01*
X69387930Y-45687269D01*
X69357809Y-45642191D01*
X69147765Y-45501843D01*
X68900000Y-45452560D01*
X67100000Y-45452560D01*
X66852235Y-45501843D01*
X66711280Y-45596027D01*
X66709008Y-45590543D01*
X66709007Y-45590542D01*
X66709007Y-45590541D01*
X66571356Y-45384532D01*
X66375468Y-45188644D01*
X66169459Y-45050993D01*
X66169458Y-45050992D01*
X65913517Y-44944978D01*
X65670513Y-44896642D01*
X65670509Y-44896642D01*
X65601926Y-44883000D01*
X64120537Y-44883000D01*
X64031356Y-44749532D01*
X63835468Y-44553644D01*
X63629459Y-44415993D01*
X63629458Y-44415992D01*
X63373517Y-44309978D01*
X63130513Y-44261642D01*
X63130509Y-44261642D01*
X63061926Y-44248000D01*
X62432000Y-44248000D01*
X62432000Y-36765119D01*
X62476065Y-36515213D01*
X62571405Y-36350080D01*
X62717477Y-36227512D01*
X62926465Y-36151445D01*
X63022996Y-36143000D01*
X107728198Y-36143000D01*
X102515528Y-41355672D01*
X102515528Y-41355672D01*
G37*
X102515528Y-41355672D02*
X102452072Y-41398072D01*
X102409672Y-41461528D01*
X102409671Y-41461529D01*
X102351518Y-41548561D01*
X102100000Y-41548561D01*
X101852235Y-41597844D01*
X101642191Y-41738192D01*
X101612071Y-41783270D01*
X100344330Y-40515530D01*
X100301928Y-40452071D01*
X100050536Y-40284096D01*
X99828851Y-40240000D01*
X99828846Y-40240000D01*
X99753999Y-40225112D01*
X99679152Y-40240000D01*
X75455373Y-40240000D01*
X75446537Y-40234096D01*
X75150000Y-40175111D01*
X74853464Y-40234096D01*
X74602071Y-40402071D01*
X74458989Y-40616208D01*
X73158591Y-41916607D01*
X73126385Y-41733960D01*
X72779089Y-41132425D01*
X72247000Y-40685949D01*
X71594296Y-40448384D01*
X70899704Y-40448384D01*
X70247000Y-40685949D01*
X69714911Y-41132425D01*
X69367615Y-41733960D01*
X69247000Y-42418000D01*
X69367615Y-43102040D01*
X69714911Y-43703575D01*
X70247000Y-44150051D01*
X70744186Y-44331012D01*
X69387930Y-45687269D01*
X69357809Y-45642191D01*
X69147765Y-45501843D01*
X68900000Y-45452560D01*
X67100000Y-45452560D01*
X66852235Y-45501843D01*
X66711280Y-45596027D01*
X66709008Y-45590543D01*
X66709007Y-45590542D01*
X66709007Y-45590541D01*
X66571356Y-45384532D01*
X66375468Y-45188644D01*
X66169459Y-45050993D01*
X66169458Y-45050992D01*
X65913517Y-44944978D01*
X65670513Y-44896642D01*
X65670509Y-44896642D01*
X65601926Y-44883000D01*
X64120537Y-44883000D01*
X64031356Y-44749532D01*
X63835468Y-44553644D01*
X63629459Y-44415993D01*
X63629458Y-44415992D01*
X63373517Y-44309978D01*
X63130513Y-44261642D01*
X63130509Y-44261642D01*
X63061926Y-44248000D01*
X62432000Y-44248000D01*
X62432000Y-36765119D01*
X62476065Y-36515213D01*
X62571405Y-36350080D01*
X62717477Y-36227512D01*
X62926465Y-36151445D01*
X63022996Y-36143000D01*
X107728198Y-36143000D01*
X102515528Y-41355672D01*
G36*
X123979001Y-40404199D02*
X119717801Y-36143000D01*
X123979000Y-36143000D01*
X123979001Y-40404199D01*
X123979001Y-40404199D01*
G37*
X123979001Y-40404199D02*
X119717801Y-36143000D01*
X123979000Y-36143000D01*
X123979001Y-40404199D01*
G04 #@! TO.N,DYNAMO_B*
G36*
X77443748Y-76485858D02*
X77429605Y-76500000D01*
X77443748Y-76514143D01*
X77264143Y-76693748D01*
X77250000Y-76679605D01*
X77235858Y-76693748D01*
X77056253Y-76514143D01*
X77070395Y-76500000D01*
X77056253Y-76485858D01*
X77235858Y-76306253D01*
X77250000Y-76320395D01*
X77264143Y-76306253D01*
X77443748Y-76485858D01*
X77443748Y-76485858D01*
G37*
X77443748Y-76485858D02*
X77429605Y-76500000D01*
X77443748Y-76514143D01*
X77264143Y-76693748D01*
X77250000Y-76679605D01*
X77235858Y-76693748D01*
X77056253Y-76514143D01*
X77070395Y-76500000D01*
X77056253Y-76485858D01*
X77235858Y-76306253D01*
X77250000Y-76320395D01*
X77264143Y-76306253D01*
X77443748Y-76485858D01*
G36*
X78790634Y-74554489D02*
X78664647Y-74336839D01*
X77729157Y-73960138D01*
X76720721Y-73970108D01*
X75835353Y-74336839D01*
X75710000Y-74553394D01*
X75710000Y-72535750D01*
X76115000Y-72535750D01*
X76115000Y-72876310D01*
X76211673Y-73109699D01*
X76390302Y-73288327D01*
X76623691Y-73385000D01*
X76964250Y-73385000D01*
X77123000Y-73226250D01*
X77123000Y-72377000D01*
X77377000Y-72377000D01*
X77377000Y-73226250D01*
X77535750Y-73385000D01*
X77876309Y-73385000D01*
X78109698Y-73288327D01*
X78288327Y-73109699D01*
X78385000Y-72876310D01*
X78385000Y-72535750D01*
X78226250Y-72377000D01*
X77377000Y-72377000D01*
X77123000Y-72377000D01*
X76273750Y-72377000D01*
X76115000Y-72535750D01*
X75710000Y-72535750D01*
X75710000Y-71623690D01*
X76115000Y-71623690D01*
X76115000Y-71964250D01*
X76273750Y-72123000D01*
X77123000Y-72123000D01*
X77123000Y-71273750D01*
X77377000Y-71273750D01*
X77377000Y-72123000D01*
X78226250Y-72123000D01*
X78385000Y-71964250D01*
X78385000Y-71623690D01*
X78288327Y-71390301D01*
X78109698Y-71211673D01*
X77876309Y-71115000D01*
X77535750Y-71115000D01*
X77377000Y-71273750D01*
X77123000Y-71273750D01*
X76964250Y-71115000D01*
X76623691Y-71115000D01*
X76390302Y-71211673D01*
X76211673Y-71390301D01*
X76115000Y-71623690D01*
X75710000Y-71623690D01*
X75710000Y-70928974D01*
X78791814Y-70928974D01*
X78790634Y-74554489D01*
X78790634Y-74554489D01*
G37*
X78790634Y-74554489D02*
X78664647Y-74336839D01*
X77729157Y-73960138D01*
X76720721Y-73970108D01*
X75835353Y-74336839D01*
X75710000Y-74553394D01*
X75710000Y-72535750D01*
X76115000Y-72535750D01*
X76115000Y-72876310D01*
X76211673Y-73109699D01*
X76390302Y-73288327D01*
X76623691Y-73385000D01*
X76964250Y-73385000D01*
X77123000Y-73226250D01*
X77123000Y-72377000D01*
X77377000Y-72377000D01*
X77377000Y-73226250D01*
X77535750Y-73385000D01*
X77876309Y-73385000D01*
X78109698Y-73288327D01*
X78288327Y-73109699D01*
X78385000Y-72876310D01*
X78385000Y-72535750D01*
X78226250Y-72377000D01*
X77377000Y-72377000D01*
X77123000Y-72377000D01*
X76273750Y-72377000D01*
X76115000Y-72535750D01*
X75710000Y-72535750D01*
X75710000Y-71623690D01*
X76115000Y-71623690D01*
X76115000Y-71964250D01*
X76273750Y-72123000D01*
X77123000Y-72123000D01*
X77123000Y-71273750D01*
X77377000Y-71273750D01*
X77377000Y-72123000D01*
X78226250Y-72123000D01*
X78385000Y-71964250D01*
X78385000Y-71623690D01*
X78288327Y-71390301D01*
X78109698Y-71211673D01*
X77876309Y-71115000D01*
X77535750Y-71115000D01*
X77377000Y-71273750D01*
X77123000Y-71273750D01*
X76964250Y-71115000D01*
X76623691Y-71115000D01*
X76390302Y-71211673D01*
X76211673Y-71390301D01*
X76115000Y-71623690D01*
X75710000Y-71623690D01*
X75710000Y-70928974D01*
X78791814Y-70928974D01*
X78790634Y-74554489D01*
G04 #@! TO.N,DYNAMO_A*
G36*
X71693748Y-76485858D02*
X71679605Y-76500000D01*
X71693748Y-76514143D01*
X71514143Y-76693748D01*
X71500000Y-76679605D01*
X71485858Y-76693748D01*
X71306253Y-76514143D01*
X71320395Y-76500000D01*
X71306253Y-76485858D01*
X71485858Y-76306253D01*
X71500000Y-76320395D01*
X71514143Y-76306253D01*
X71693748Y-76485858D01*
X71693748Y-76485858D01*
G37*
X71693748Y-76485858D02*
X71679605Y-76500000D01*
X71693748Y-76514143D01*
X71514143Y-76693748D01*
X71500000Y-76679605D01*
X71485858Y-76693748D01*
X71306253Y-76514143D01*
X71320395Y-76500000D01*
X71306253Y-76485858D01*
X71485858Y-76306253D01*
X71500000Y-76320395D01*
X71514143Y-76306253D01*
X71693748Y-76485858D01*
G36*
X73040000Y-74553394D02*
X72914647Y-74336839D01*
X71979157Y-73960138D01*
X70970721Y-73970108D01*
X70085353Y-74336839D01*
X69960000Y-74553394D01*
X69960000Y-72535750D01*
X70365000Y-72535750D01*
X70365000Y-72876310D01*
X70461673Y-73109699D01*
X70640302Y-73288327D01*
X70873691Y-73385000D01*
X71214250Y-73385000D01*
X71373000Y-73226250D01*
X71373000Y-72377000D01*
X71627000Y-72377000D01*
X71627000Y-73226250D01*
X71785750Y-73385000D01*
X72126309Y-73385000D01*
X72359698Y-73288327D01*
X72538327Y-73109699D01*
X72635000Y-72876310D01*
X72635000Y-72535750D01*
X72476250Y-72377000D01*
X71627000Y-72377000D01*
X71373000Y-72377000D01*
X70523750Y-72377000D01*
X70365000Y-72535750D01*
X69960000Y-72535750D01*
X69960000Y-71623690D01*
X70365000Y-71623690D01*
X70365000Y-71964250D01*
X70523750Y-72123000D01*
X71373000Y-72123000D01*
X71373000Y-71273750D01*
X71627000Y-71273750D01*
X71627000Y-72123000D01*
X72476250Y-72123000D01*
X72635000Y-71964250D01*
X72635000Y-71623690D01*
X72538327Y-71390301D01*
X72359698Y-71211673D01*
X72126309Y-71115000D01*
X71785750Y-71115000D01*
X71627000Y-71273750D01*
X71373000Y-71273750D01*
X71214250Y-71115000D01*
X70873691Y-71115000D01*
X70640302Y-71211673D01*
X70461673Y-71390301D01*
X70365000Y-71623690D01*
X69960000Y-71623690D01*
X69960000Y-70924497D01*
X73040001Y-70908100D01*
X73040000Y-74553394D01*
X73040000Y-74553394D01*
G37*
X73040000Y-74553394D02*
X72914647Y-74336839D01*
X71979157Y-73960138D01*
X70970721Y-73970108D01*
X70085353Y-74336839D01*
X69960000Y-74553394D01*
X69960000Y-72535750D01*
X70365000Y-72535750D01*
X70365000Y-72876310D01*
X70461673Y-73109699D01*
X70640302Y-73288327D01*
X70873691Y-73385000D01*
X71214250Y-73385000D01*
X71373000Y-73226250D01*
X71373000Y-72377000D01*
X71627000Y-72377000D01*
X71627000Y-73226250D01*
X71785750Y-73385000D01*
X72126309Y-73385000D01*
X72359698Y-73288327D01*
X72538327Y-73109699D01*
X72635000Y-72876310D01*
X72635000Y-72535750D01*
X72476250Y-72377000D01*
X71627000Y-72377000D01*
X71373000Y-72377000D01*
X70523750Y-72377000D01*
X70365000Y-72535750D01*
X69960000Y-72535750D01*
X69960000Y-71623690D01*
X70365000Y-71623690D01*
X70365000Y-71964250D01*
X70523750Y-72123000D01*
X71373000Y-72123000D01*
X71373000Y-71273750D01*
X71627000Y-71273750D01*
X71627000Y-72123000D01*
X72476250Y-72123000D01*
X72635000Y-71964250D01*
X72635000Y-71623690D01*
X72538327Y-71390301D01*
X72359698Y-71211673D01*
X72126309Y-71115000D01*
X71785750Y-71115000D01*
X71627000Y-71273750D01*
X71373000Y-71273750D01*
X71214250Y-71115000D01*
X70873691Y-71115000D01*
X70640302Y-71211673D01*
X70461673Y-71390301D01*
X70365000Y-71623690D01*
X69960000Y-71623690D01*
X69960000Y-70924497D01*
X73040001Y-70908100D01*
X73040000Y-74553394D01*
G04 #@! TD*
M02*
