G04 #@! TF.GenerationSoftware,KiCad,Pcbnew,(5.0.1-3-g963ef8bb5)*
G04 #@! TF.CreationDate,2020-09-15T14:43:14+02:00*
G04 #@! TF.ProjectId,trackix,747261636B69782E6B696361645F7063,rev?*
G04 #@! TF.SameCoordinates,Original*
G04 #@! TF.FileFunction,Copper,L2,Bot,Signal*
G04 #@! TF.FilePolarity,Positive*
%FSLAX46Y46*%
G04 Gerber Fmt 4.6, Leading zero omitted, Abs format (unit mm)*
G04 Created by KiCad (PCBNEW (5.0.1-3-g963ef8bb5)) date 2020 September 15, Tuesday 14:43:14*
%MOMM*%
%LPD*%
G01*
G04 APERTURE LIST*
G04 #@! TA.AperFunction,SMDPad,CuDef*
%ADD10R,1.000000X1.000000*%
G04 #@! TD*
G04 #@! TA.AperFunction,ComponentPad*
%ADD11C,3.800000*%
G04 #@! TD*
G04 #@! TA.AperFunction,ComponentPad*
%ADD12R,1.800000X1.800000*%
G04 #@! TD*
G04 #@! TA.AperFunction,ComponentPad*
%ADD13C,1.800000*%
G04 #@! TD*
G04 #@! TA.AperFunction,ViaPad*
%ADD14C,0.600000*%
G04 #@! TD*
G04 #@! TA.AperFunction,Conductor*
%ADD15R,2.950000X4.500000*%
G04 #@! TD*
G04 #@! TA.AperFunction,ComponentPad*
%ADD16O,1.700000X1.700000*%
G04 #@! TD*
G04 #@! TA.AperFunction,ComponentPad*
%ADD17R,1.700000X1.700000*%
G04 #@! TD*
G04 #@! TA.AperFunction,SMDPad,CuDef*
%ADD18R,1.000000X3.000000*%
G04 #@! TD*
G04 #@! TA.AperFunction,ViaPad*
%ADD19C,0.400000*%
G04 #@! TD*
G04 #@! TA.AperFunction,ViaPad*
%ADD20C,0.800000*%
G04 #@! TD*
G04 #@! TA.AperFunction,Conductor*
%ADD21C,0.500000*%
G04 #@! TD*
G04 #@! TA.AperFunction,Conductor*
%ADD22C,0.250000*%
G04 #@! TD*
G04 #@! TA.AperFunction,Conductor*
%ADD23C,3.800000*%
G04 #@! TD*
G04 #@! TA.AperFunction,Conductor*
%ADD24C,2.000000*%
G04 #@! TD*
G04 #@! TA.AperFunction,Conductor*
%ADD25C,0.125000*%
G04 #@! TD*
G04 #@! TA.AperFunction,Conductor*
%ADD26C,0.254000*%
G04 #@! TD*
G04 APERTURE END LIST*
D10*
G04 #@! TO.P,TP2,1*
G04 #@! TO.N,DYNAMO_B*
X151050000Y-129950000D03*
G04 #@! TD*
G04 #@! TO.P,TP1,1*
G04 #@! TO.N,DYNAMO_A*
X145300000Y-129950000D03*
G04 #@! TD*
D11*
G04 #@! TO.P,H2,1*
G04 #@! TO.N,DYNAMO_B*
X151050000Y-134200000D03*
G04 #@! TD*
G04 #@! TO.P,H1,1*
G04 #@! TO.N,DYNAMO_A*
X145300000Y-134200000D03*
G04 #@! TD*
D12*
G04 #@! TO.P,D6,1*
G04 #@! TO.N,Net-(D4-Pad1)*
X176800000Y-100796001D03*
D13*
G04 #@! TO.P,D6,2*
G04 #@! TO.N,Net-(D6-Pad2)*
X179340000Y-100796001D03*
G04 #@! TD*
G04 #@! TO.P,D5,2*
G04 #@! TO.N,Net-(D5-Pad2)*
X214800000Y-104660000D03*
D12*
G04 #@! TO.P,D5,1*
G04 #@! TO.N,Net-(D4-Pad1)*
X214800000Y-107200000D03*
G04 #@! TD*
G04 #@! TO.P,D4,1*
G04 #@! TO.N,Net-(D4-Pad1)*
X141800000Y-104700000D03*
D13*
G04 #@! TO.P,D4,2*
G04 #@! TO.N,Net-(D4-Pad2)*
X141800000Y-107240000D03*
G04 #@! TD*
D14*
G04 #@! TO.N,N/C*
G04 #@! TO.C,IC2*
X157350000Y-121900000D03*
X157350000Y-121100000D03*
X156150000Y-121100000D03*
X156150000Y-121900000D03*
X157350000Y-119500000D03*
X157350000Y-120300000D03*
X156150000Y-120300000D03*
X156150000Y-119500000D03*
D15*
X156750000Y-120700000D03*
G04 #@! TD*
D16*
G04 #@! TO.P,J1,2*
G04 #@! TO.N,+BATT*
X150825001Y-115765001D03*
D17*
G04 #@! TO.P,J1,1*
G04 #@! TO.N,-BATT*
X150825001Y-113225001D03*
G04 #@! TD*
D16*
G04 #@! TO.P,J3,5*
G04 #@! TO.N,+3V3*
X183661237Y-111254001D03*
G04 #@! TO.P,J3,4*
G04 #@! TO.N,sim_rst*
X183661237Y-113794001D03*
G04 #@! TO.P,J3,3*
G04 #@! TO.N,sim_tx*
X183661237Y-116334001D03*
G04 #@! TO.P,J3,2*
G04 #@! TO.N,sim_rx*
X183661237Y-118874001D03*
D17*
G04 #@! TO.P,J3,1*
G04 #@! TO.N,GND*
X183661237Y-121414001D03*
G04 #@! TD*
D18*
G04 #@! TO.P,J4,6*
G04 #@! TO.N,GND*
X190540000Y-95180000D03*
G04 #@! TO.P,J4,5*
G04 #@! TO.N,RESET*
X190540000Y-100220000D03*
G04 #@! TO.P,J4,4*
G04 #@! TO.N,Net-(J4-Pad4)*
X188000000Y-95180000D03*
G04 #@! TO.P,J4,3*
G04 #@! TO.N,Net-(J4-Pad3)*
X188000000Y-100220000D03*
G04 #@! TO.P,J4,2*
G04 #@! TO.N,Net-(J4-Pad2)*
X185460000Y-95180000D03*
G04 #@! TO.P,J4,1*
G04 #@! TO.N,Net-(J4-Pad1)*
X185460000Y-100220000D03*
G04 #@! TD*
D16*
G04 #@! TO.P,J5,6*
G04 #@! TO.N,Net-(J5-Pad6)*
X212661237Y-124114001D03*
G04 #@! TO.P,J5,5*
G04 #@! TO.N,Net-(J5-Pad5)*
X212661237Y-121574001D03*
G04 #@! TO.P,J5,4*
G04 #@! TO.N,Net-(J5-Pad4)*
X212661237Y-119034001D03*
G04 #@! TO.P,J5,3*
G04 #@! TO.N,Net-(J5-Pad3)*
X212661237Y-116494001D03*
G04 #@! TO.P,J5,2*
G04 #@! TO.N,sim_dtr*
X212661237Y-113954001D03*
D17*
G04 #@! TO.P,J5,1*
G04 #@! TO.N,sim_ring*
X212661237Y-111414001D03*
G04 #@! TD*
D10*
G04 #@! TO.P,TP3,1*
G04 #@! TO.N,GND*
X182200000Y-127800000D03*
G04 #@! TD*
G04 #@! TO.P,TP4,1*
G04 #@! TO.N,CHARGE_DETECT*
X151150000Y-125200000D03*
G04 #@! TD*
G04 #@! TO.P,TP5,1*
G04 #@! TO.N,AUX_ON*
X175250000Y-119150000D03*
G04 #@! TD*
G04 #@! TO.P,TP6,1*
G04 #@! TO.N,GPS_TX*
X149150000Y-102750000D03*
G04 #@! TD*
G04 #@! TO.P,TP7,1*
G04 #@! TO.N,Net-(TP7-Pad1)*
X170200000Y-105900000D03*
G04 #@! TD*
G04 #@! TO.P,TP8,1*
G04 #@! TO.N,Net-(TP8-Pad1)*
X167900000Y-105900000D03*
G04 #@! TD*
G04 #@! TO.P,TP9,1*
G04 #@! TO.N,+3V3*
X179850000Y-127800000D03*
G04 #@! TD*
D19*
G04 #@! TO.N,N/C*
G04 #@! TO.C,U4*
X174750000Y-122650000D03*
X174750000Y-121550000D03*
G04 #@! TD*
D20*
G04 #@! TO.N,GND*
X171000000Y-114350000D03*
X168750000Y-116750000D03*
X181650000Y-109650000D03*
X180650000Y-113650000D03*
X207300000Y-98750000D03*
X202850000Y-98950000D03*
X201900000Y-98950000D03*
X199050000Y-98950000D03*
X197700000Y-101100000D03*
X203550000Y-101550000D03*
G04 #@! TO.N,+3V3*
X180500000Y-122850000D03*
G04 #@! TO.N,Net-(J4-Pad1)*
X185600000Y-99150000D03*
G04 #@! TO.N,GND*
X190200000Y-96150000D03*
G04 #@! TO.N,Net-(J4-Pad4)*
X187750000Y-95600000D03*
G04 #@! TO.N,Net-(TP7-Pad1)*
X169950000Y-106050000D03*
G04 #@! TO.N,Net-(TP8-Pad1)*
X167650000Y-106000000D03*
G04 #@! TO.N,+BATT*
X159400000Y-124050000D03*
X165100000Y-113350000D03*
X158950000Y-116500000D03*
X172881345Y-124550000D03*
X144750000Y-104450000D03*
G04 #@! TO.N,GND*
X200000000Y-98950000D03*
X200950000Y-98950000D03*
X203750000Y-98950000D03*
X204700000Y-98950000D03*
X205750000Y-98950000D03*
X208150000Y-98750000D03*
X209000000Y-98750000D03*
X209850000Y-98750000D03*
X210700000Y-98750000D03*
X211550000Y-98750000D03*
X212400000Y-98750000D03*
X213250000Y-98750000D03*
X214100000Y-98750000D03*
X214950000Y-98750000D03*
X215800000Y-98750000D03*
X207750000Y-99600000D03*
X208600000Y-99600000D03*
X209450000Y-99600000D03*
X210300000Y-99600000D03*
X211150000Y-99600000D03*
X212000000Y-99600000D03*
X212850000Y-99600000D03*
X213700000Y-99600000D03*
X214550000Y-99600000D03*
X215400000Y-99600000D03*
X218100000Y-97150000D03*
X215550000Y-113900000D03*
X215550000Y-113900000D03*
X215550000Y-113900000D03*
X218100000Y-117450000D03*
X215200000Y-122800000D03*
X216750000Y-125100000D03*
X215650000Y-126600000D03*
X212100000Y-126600000D03*
X218800000Y-128850000D03*
X184450000Y-128450000D03*
X204150000Y-127550000D03*
X191600000Y-127550000D03*
X184300000Y-125100000D03*
X181850000Y-125550000D03*
X174950000Y-125050000D03*
X171600000Y-126400000D03*
X167800000Y-123850000D03*
X167800000Y-123850000D03*
X167800000Y-123850000D03*
X170700000Y-128850000D03*
X164300000Y-124250000D03*
X162100000Y-124050000D03*
X162450000Y-120750000D03*
X159800000Y-128600000D03*
X158450000Y-126550000D03*
X155250000Y-125400000D03*
X148250000Y-124950000D03*
X144950000Y-125450000D03*
X147450000Y-121450000D03*
X142500000Y-122700000D03*
X136450000Y-126150000D03*
X137550000Y-125750000D03*
X139350000Y-126650000D03*
X136550000Y-124450000D03*
X138800000Y-125250000D03*
X136250000Y-122050000D03*
X137100000Y-119000000D03*
X139050000Y-114250000D03*
X140650000Y-112150000D03*
X141150000Y-111250000D03*
X139250000Y-109800000D03*
X143050000Y-109750000D03*
X136550000Y-110300000D03*
X139050000Y-98050000D03*
X143800000Y-97500000D03*
X143800000Y-97500000D03*
X143800000Y-97500000D03*
X138750000Y-101250000D03*
X151600000Y-94400000D03*
X148400000Y-95250000D03*
X154250000Y-95450000D03*
X159650000Y-94750000D03*
X141500000Y-94550000D03*
X149750000Y-96650000D03*
X158800000Y-94750000D03*
X157950000Y-94750000D03*
X157100000Y-94600000D03*
X156250000Y-94600000D03*
X155400000Y-94650000D03*
X154550000Y-94650000D03*
X154250000Y-96300000D03*
X154550000Y-97100000D03*
X158050000Y-97000000D03*
X158900000Y-97000000D03*
X161100000Y-97150000D03*
X161400000Y-98000000D03*
X162700000Y-95500000D03*
X162700000Y-96350000D03*
X161350000Y-94700000D03*
X160500000Y-94750000D03*
X160200000Y-96950000D03*
X165550000Y-96000000D03*
X162700000Y-99500000D03*
X164500000Y-100600000D03*
X168900000Y-94700000D03*
X169750000Y-95450000D03*
X191400000Y-94200000D03*
X197250000Y-94000000D03*
X197350000Y-95550000D03*
X197350000Y-99800000D03*
X200900000Y-101600000D03*
X192350000Y-101750000D03*
X213000000Y-105050000D03*
X219700000Y-101850000D03*
X216350000Y-100400000D03*
X196600000Y-96550000D03*
X192150000Y-95200000D03*
X181250000Y-94200000D03*
X181250000Y-94200000D03*
X181250000Y-94200000D03*
X181700000Y-95900000D03*
X175950000Y-94600000D03*
X176200000Y-97450000D03*
X172150000Y-94800000D03*
X172800000Y-98850000D03*
X172950000Y-110350000D03*
X180650000Y-118150000D03*
X181450000Y-106800000D03*
X177850000Y-105650000D03*
X179550000Y-102950000D03*
X181050000Y-105200000D03*
X216000000Y-128950000D03*
X216950000Y-109000000D03*
X184450000Y-107400000D03*
X169100000Y-120850000D03*
X165850000Y-110100000D03*
X165600000Y-105700000D03*
X174200000Y-107850000D03*
X166600000Y-99100000D03*
X167300000Y-96250000D03*
X164850000Y-108800000D03*
X157850000Y-110850000D03*
X154100000Y-117250000D03*
X152450000Y-118600000D03*
X157450000Y-117300000D03*
X154250000Y-114200000D03*
X154250000Y-114200000D03*
X154250000Y-114200000D03*
X156600000Y-114200000D03*
X150350000Y-118250000D03*
X140250000Y-118800000D03*
X142350000Y-118650000D03*
X143250000Y-113750000D03*
X176700000Y-122150000D03*
X177550000Y-119500000D03*
X179150000Y-118350000D03*
X180600000Y-119400000D03*
G04 #@! TO.N,CHARGE_DETECT*
X161200000Y-118400000D03*
X160540001Y-123400001D03*
X152300000Y-125350000D03*
G04 #@! TO.N,+3V3*
X176800000Y-127350000D03*
X177150000Y-127350000D03*
X183600000Y-124000000D03*
X180600000Y-121600000D03*
X180150000Y-124050000D03*
X178850000Y-124950000D03*
X180150000Y-124850000D03*
X178750000Y-123150000D03*
X177550000Y-121100000D03*
X179650000Y-121485463D03*
X179650000Y-127800000D03*
X180150000Y-126350000D03*
X178650000Y-126350000D03*
X161150000Y-113500000D03*
G04 #@! TO.N,Net-(C6-Pad1)*
X147650000Y-102250000D03*
X147250000Y-97700000D03*
G04 #@! TO.N,Net-(D4-Pad1)*
X183250000Y-96800000D03*
X211000000Y-101800000D03*
G04 #@! TO.N,RESET*
X176000000Y-109650000D03*
X215200000Y-102100000D03*
X189520000Y-98200000D03*
X181750000Y-104150000D03*
G04 #@! TO.N,AUX_ON*
X175335000Y-119250000D03*
X174167337Y-113967337D03*
G04 #@! TO.N,DRIVE_LED*
X176200000Y-111850000D03*
X170100000Y-100450000D03*
G04 #@! TO.N,GPS_TX*
X148650000Y-106550000D03*
X174800000Y-112750000D03*
G04 #@! TO.N,Net-(R18-Pad2)*
X162550000Y-109200000D03*
X154750000Y-110250000D03*
G04 #@! TO.N,Net-(J4-Pad4)*
X184000000Y-105000000D03*
G04 #@! TO.N,Net-(J4-Pad3)*
X192050000Y-97350000D03*
X188100000Y-101250000D03*
G04 #@! TO.N,Net-(J4-Pad1)*
X183700000Y-108900000D03*
G04 #@! TO.N,sim_rst*
X178144188Y-115805812D03*
G04 #@! TO.N,sim_tx*
X176400000Y-116900000D03*
G04 #@! TO.N,sim_rx*
X166550000Y-111800000D03*
G04 #@! TO.N,sim_dtr*
X183100000Y-106419954D03*
X171150000Y-110437499D03*
G04 #@! TO.N,GPS_RX*
X148550000Y-104650000D03*
X167440202Y-108100000D03*
G04 #@! TD*
D21*
G04 #@! TO.N,+BATT*
X158950000Y-116500000D02*
X159700000Y-116500000D01*
X170783329Y-124600000D02*
X172900000Y-124600000D01*
X162850000Y-113350000D02*
X165100000Y-113350000D01*
X161383329Y-115200000D02*
X167083329Y-120900000D01*
X161000000Y-115200000D02*
X161383329Y-115200000D01*
X167083329Y-120900000D02*
X170783329Y-124600000D01*
X166600000Y-120416671D02*
X167083329Y-120900000D01*
X159700000Y-116500000D02*
X161000000Y-115200000D01*
X161000000Y-115200000D02*
X162850000Y-113350000D01*
D22*
X144750000Y-109690000D02*
X150825001Y-115765001D01*
X144750000Y-104450000D02*
X144750000Y-109690000D01*
D21*
X158950000Y-123600000D02*
X159400000Y-124050000D01*
X158950000Y-116500000D02*
X158950000Y-123600000D01*
G04 #@! TO.N,CHARGE_DETECT*
X161200000Y-122740002D02*
X160540001Y-123400001D01*
X161200000Y-118400000D02*
X161200000Y-122740002D01*
X152150000Y-125200000D02*
X152300000Y-125350000D01*
X151150000Y-125200000D02*
X152150000Y-125200000D01*
X152300000Y-125350000D02*
X152300000Y-125350000D01*
G04 #@! TO.N,+3V3*
X177600000Y-127800000D02*
X177150000Y-127350000D01*
X179850000Y-127800000D02*
X179650000Y-127800000D01*
X177250000Y-127800000D02*
X176800000Y-127350000D01*
X179850000Y-127800000D02*
X177250000Y-127800000D01*
X180200000Y-124000000D02*
X180150000Y-124050000D01*
X183600000Y-124000000D02*
X180200000Y-124000000D01*
X179650000Y-127800000D02*
X177600000Y-127800000D01*
X162250000Y-112400000D02*
X165900000Y-112400000D01*
X161150000Y-113500000D02*
X162250000Y-112400000D01*
X176878547Y-120814010D02*
X177150001Y-121085464D01*
X168050000Y-114550000D02*
X168050000Y-114600000D01*
X165900000Y-112400000D02*
X168050000Y-114550000D01*
X171200000Y-117750000D02*
X171200000Y-119350000D01*
X168050000Y-114600000D02*
X171200000Y-117750000D01*
X171200000Y-119350000D02*
X172664010Y-120814010D01*
X176435990Y-121100000D02*
X177550000Y-121100000D01*
X176150000Y-120814010D02*
X176435990Y-121100000D01*
X172664010Y-120814010D02*
X176150000Y-120814010D01*
X176150000Y-120814010D02*
X176878547Y-120814010D01*
D22*
G04 #@! TO.N,Net-(C6-Pad1)*
X147650000Y-101684315D02*
X147650000Y-102250000D01*
X147649999Y-98099999D02*
X147650000Y-101684315D01*
X147250000Y-97700000D02*
X147649999Y-98099999D01*
D23*
G04 #@! TO.N,DYNAMO_A*
X145300000Y-133950000D02*
X145300000Y-128950000D01*
D24*
X145300000Y-129950000D02*
X145300000Y-133950000D01*
D22*
G04 #@! TO.N,Net-(D4-Pad1)*
X211586247Y-105136247D02*
X211586247Y-102386247D01*
X213650000Y-107200000D02*
X211586247Y-105136247D01*
X214800000Y-107200000D02*
X213650000Y-107200000D01*
X211586247Y-102386247D02*
X211000000Y-101800000D01*
X176800000Y-99646001D02*
X179646001Y-96800000D01*
X176800000Y-100796001D02*
X176800000Y-99646001D01*
X179646001Y-96800000D02*
X183250000Y-96800000D01*
X183250000Y-96800000D02*
X183250000Y-96800000D01*
D24*
G04 #@! TO.N,DYNAMO_B*
X151050000Y-129950000D02*
X151050000Y-133950000D01*
D23*
X151050000Y-133950000D02*
X151050000Y-128950000D01*
D25*
G04 #@! TO.N,RESET*
X190540000Y-100220000D02*
X190540000Y-101220000D01*
X177650000Y-109650000D02*
X176000000Y-109650000D01*
X214350000Y-101250000D02*
X215200000Y-102100000D01*
X199200000Y-100300000D02*
X206400000Y-100300000D01*
X196700000Y-97800000D02*
X199200000Y-100300000D01*
X192580502Y-97800000D02*
X196700000Y-97800000D01*
X191700000Y-99685000D02*
X191700000Y-98680502D01*
X191165000Y-100220000D02*
X191700000Y-99685000D01*
X191700000Y-98680502D02*
X192580502Y-97800000D01*
X190540000Y-100220000D02*
X191165000Y-100220000D01*
X181750000Y-105550000D02*
X177650000Y-109650000D01*
D22*
X190540000Y-99220000D02*
X189520000Y-98200000D01*
X190540000Y-100220000D02*
X190540000Y-99220000D01*
X189520000Y-98200000D02*
X189520000Y-98200000D01*
D25*
X181750000Y-105550000D02*
X181750000Y-104150000D01*
X211500000Y-100700000D02*
X212050000Y-101250000D01*
X206800000Y-100700000D02*
X211500000Y-100700000D01*
X212050000Y-101250000D02*
X214350000Y-101250000D01*
X206400000Y-100300000D02*
X206800000Y-100700000D01*
G04 #@! TO.N,AUX_ON*
X174625000Y-119150000D02*
X175250000Y-119150000D01*
X174167337Y-118692337D02*
X174625000Y-119150000D01*
X174167337Y-113967337D02*
X174167337Y-118692337D01*
G04 #@! TO.N,DRIVE_LED*
X170499999Y-100849999D02*
X170100000Y-100450000D01*
X173200000Y-103550000D02*
X170499999Y-100849999D01*
X173200000Y-108850000D02*
X173200000Y-103550000D01*
X176200000Y-111850000D02*
X173200000Y-108850000D01*
G04 #@! TO.N,GPS_TX*
X170500000Y-112750000D02*
X174800000Y-112750000D01*
X167700000Y-109950000D02*
X170500000Y-112750000D01*
X167700000Y-109350000D02*
X167700000Y-109950000D01*
X166450000Y-108100000D02*
X167700000Y-109350000D01*
X150200000Y-108100000D02*
X166450000Y-108100000D01*
X148650000Y-106550000D02*
X150200000Y-108100000D01*
X148525000Y-102750000D02*
X149150000Y-102750000D01*
X147887499Y-103387501D02*
X148525000Y-102750000D01*
X147887499Y-105787499D02*
X147887499Y-103387501D01*
X148650000Y-106550000D02*
X147887499Y-105787499D01*
D22*
G04 #@! TO.N,Net-(R18-Pad2)*
X155800000Y-109200000D02*
X162550000Y-109200000D01*
X154750000Y-110250000D02*
X155800000Y-109200000D01*
D25*
G04 #@! TO.N,Net-(J4-Pad4)*
X188000000Y-96805000D02*
X188000000Y-95180000D01*
X187237499Y-97567501D02*
X188000000Y-96805000D01*
X187237499Y-100915003D02*
X187237499Y-97567501D01*
X186170001Y-101982501D02*
X187237499Y-100915003D01*
X185580071Y-101982501D02*
X186170001Y-101982501D01*
X184399999Y-103162573D02*
X185580071Y-101982501D01*
X184399999Y-104600001D02*
X184399999Y-103162573D01*
X184000000Y-105000000D02*
X184399999Y-104600001D01*
D22*
G04 #@! TO.N,Net-(J4-Pad3)*
X188000000Y-100220000D02*
X188000000Y-97900000D01*
X188550000Y-97350000D02*
X192050000Y-97350000D01*
X188000000Y-97900000D02*
X188550000Y-97350000D01*
D25*
G04 #@! TO.N,Net-(J4-Pad1)*
X183337499Y-102342501D02*
X185460000Y-100220000D01*
X183337499Y-105318001D02*
X183337499Y-102342501D01*
X183762501Y-105743003D02*
X183569498Y-105550000D01*
X183762501Y-106737955D02*
X183762501Y-105743003D01*
X183700000Y-108900000D02*
X183700000Y-106800456D01*
X183569498Y-105550000D02*
X183337499Y-105318001D01*
X183700000Y-106800456D02*
X183762501Y-106737955D01*
G04 #@! TO.N,sim_rst*
X181649426Y-115805812D02*
X183661237Y-113794001D01*
X178144188Y-115805812D02*
X181649426Y-115805812D01*
G04 #@! TO.N,sim_tx*
X183095238Y-116900000D02*
X183661237Y-116334001D01*
X176400000Y-116900000D02*
X183095238Y-116900000D01*
G04 #@! TO.N,sim_rx*
X182811238Y-118024002D02*
X183661237Y-118874001D01*
X171050000Y-116300000D02*
X171400000Y-116300000D01*
X182137236Y-117350000D02*
X182811238Y-118024002D01*
X166550000Y-111800000D02*
X171050000Y-116300000D01*
X176150000Y-118800000D02*
X177600000Y-117350000D01*
X177600000Y-117350000D02*
X182137236Y-117350000D01*
X176150000Y-119722502D02*
X176150000Y-118800000D01*
X172150000Y-117050000D02*
X172150000Y-118900000D01*
X173250000Y-120000000D02*
X175872502Y-120000000D01*
X172150000Y-118900000D02*
X173250000Y-120000000D01*
X171400000Y-116300000D02*
X172150000Y-117050000D01*
X175872502Y-120000000D02*
X176150000Y-119722502D01*
G04 #@! TO.N,sim_dtr*
X172162501Y-111450000D02*
X171150000Y-110437499D01*
X175543003Y-112512501D02*
X174480502Y-111450000D01*
X178637499Y-112512501D02*
X175543003Y-112512501D01*
X183100000Y-106419954D02*
X183100000Y-109900000D01*
X181950000Y-111050000D02*
X180100000Y-111050000D01*
X174480502Y-111450000D02*
X172162501Y-111450000D01*
X183100000Y-109900000D02*
X181950000Y-111050000D01*
X180100000Y-111050000D02*
X178637499Y-112512501D01*
G04 #@! TO.N,GPS_RX*
X167040203Y-107700001D02*
X167440202Y-108100000D01*
X166877701Y-107537499D02*
X167040203Y-107700001D01*
X150850763Y-107537499D02*
X166877701Y-107537499D01*
X148949999Y-105636735D02*
X150850763Y-107537499D01*
X148949999Y-105049999D02*
X148949999Y-105636735D01*
X148550000Y-104650000D02*
X148949999Y-105049999D01*
G04 #@! TD*
D26*
G04 #@! TO.N,DYNAMO_A*
G36*
X145493748Y-134185858D02*
X145479605Y-134200000D01*
X145493748Y-134214143D01*
X145314143Y-134393748D01*
X145300000Y-134379605D01*
X145285858Y-134393748D01*
X145106253Y-134214143D01*
X145120395Y-134200000D01*
X145106253Y-134185858D01*
X145285858Y-134006253D01*
X145300000Y-134020395D01*
X145314143Y-134006253D01*
X145493748Y-134185858D01*
X145493748Y-134185858D01*
G37*
X145493748Y-134185858D02*
X145479605Y-134200000D01*
X145493748Y-134214143D01*
X145314143Y-134393748D01*
X145300000Y-134379605D01*
X145285858Y-134393748D01*
X145106253Y-134214143D01*
X145120395Y-134200000D01*
X145106253Y-134185858D01*
X145285858Y-134006253D01*
X145300000Y-134020395D01*
X145314143Y-134006253D01*
X145493748Y-134185858D01*
G36*
X146840000Y-132253394D02*
X146714647Y-132036839D01*
X145779157Y-131660138D01*
X144770721Y-131670108D01*
X143885353Y-132036839D01*
X143760000Y-132253394D01*
X143760000Y-130235750D01*
X144165000Y-130235750D01*
X144165000Y-130576310D01*
X144261673Y-130809699D01*
X144440302Y-130988327D01*
X144673691Y-131085000D01*
X145014250Y-131085000D01*
X145173000Y-130926250D01*
X145173000Y-130077000D01*
X145427000Y-130077000D01*
X145427000Y-130926250D01*
X145585750Y-131085000D01*
X145926309Y-131085000D01*
X146159698Y-130988327D01*
X146338327Y-130809699D01*
X146435000Y-130576310D01*
X146435000Y-130235750D01*
X146276250Y-130077000D01*
X145427000Y-130077000D01*
X145173000Y-130077000D01*
X144323750Y-130077000D01*
X144165000Y-130235750D01*
X143760000Y-130235750D01*
X143760000Y-129323690D01*
X144165000Y-129323690D01*
X144165000Y-129664250D01*
X144323750Y-129823000D01*
X145173000Y-129823000D01*
X145173000Y-128973750D01*
X145427000Y-128973750D01*
X145427000Y-129823000D01*
X146276250Y-129823000D01*
X146435000Y-129664250D01*
X146435000Y-129323690D01*
X146338327Y-129090301D01*
X146159698Y-128911673D01*
X145926309Y-128815000D01*
X145585750Y-128815000D01*
X145427000Y-128973750D01*
X145173000Y-128973750D01*
X145014250Y-128815000D01*
X144673691Y-128815000D01*
X144440302Y-128911673D01*
X144261673Y-129090301D01*
X144165000Y-129323690D01*
X143760000Y-129323690D01*
X143760000Y-128624497D01*
X146840001Y-128608100D01*
X146840000Y-132253394D01*
X146840000Y-132253394D01*
G37*
X146840000Y-132253394D02*
X146714647Y-132036839D01*
X145779157Y-131660138D01*
X144770721Y-131670108D01*
X143885353Y-132036839D01*
X143760000Y-132253394D01*
X143760000Y-130235750D01*
X144165000Y-130235750D01*
X144165000Y-130576310D01*
X144261673Y-130809699D01*
X144440302Y-130988327D01*
X144673691Y-131085000D01*
X145014250Y-131085000D01*
X145173000Y-130926250D01*
X145173000Y-130077000D01*
X145427000Y-130077000D01*
X145427000Y-130926250D01*
X145585750Y-131085000D01*
X145926309Y-131085000D01*
X146159698Y-130988327D01*
X146338327Y-130809699D01*
X146435000Y-130576310D01*
X146435000Y-130235750D01*
X146276250Y-130077000D01*
X145427000Y-130077000D01*
X145173000Y-130077000D01*
X144323750Y-130077000D01*
X144165000Y-130235750D01*
X143760000Y-130235750D01*
X143760000Y-129323690D01*
X144165000Y-129323690D01*
X144165000Y-129664250D01*
X144323750Y-129823000D01*
X145173000Y-129823000D01*
X145173000Y-128973750D01*
X145427000Y-128973750D01*
X145427000Y-129823000D01*
X146276250Y-129823000D01*
X146435000Y-129664250D01*
X146435000Y-129323690D01*
X146338327Y-129090301D01*
X146159698Y-128911673D01*
X145926309Y-128815000D01*
X145585750Y-128815000D01*
X145427000Y-128973750D01*
X145173000Y-128973750D01*
X145014250Y-128815000D01*
X144673691Y-128815000D01*
X144440302Y-128911673D01*
X144261673Y-129090301D01*
X144165000Y-129323690D01*
X143760000Y-129323690D01*
X143760000Y-128624497D01*
X146840001Y-128608100D01*
X146840000Y-132253394D01*
G04 #@! TO.N,DYNAMO_B*
G36*
X151243748Y-134185858D02*
X151229605Y-134200000D01*
X151243748Y-134214143D01*
X151064143Y-134393748D01*
X151050000Y-134379605D01*
X151035858Y-134393748D01*
X150856253Y-134214143D01*
X150870395Y-134200000D01*
X150856253Y-134185858D01*
X151035858Y-134006253D01*
X151050000Y-134020395D01*
X151064143Y-134006253D01*
X151243748Y-134185858D01*
X151243748Y-134185858D01*
G37*
X151243748Y-134185858D02*
X151229605Y-134200000D01*
X151243748Y-134214143D01*
X151064143Y-134393748D01*
X151050000Y-134379605D01*
X151035858Y-134393748D01*
X150856253Y-134214143D01*
X150870395Y-134200000D01*
X150856253Y-134185858D01*
X151035858Y-134006253D01*
X151050000Y-134020395D01*
X151064143Y-134006253D01*
X151243748Y-134185858D01*
G36*
X152590634Y-132254489D02*
X152464647Y-132036839D01*
X151529157Y-131660138D01*
X150520721Y-131670108D01*
X149635353Y-132036839D01*
X149510000Y-132253394D01*
X149510000Y-130235750D01*
X149915000Y-130235750D01*
X149915000Y-130576310D01*
X150011673Y-130809699D01*
X150190302Y-130988327D01*
X150423691Y-131085000D01*
X150764250Y-131085000D01*
X150923000Y-130926250D01*
X150923000Y-130077000D01*
X151177000Y-130077000D01*
X151177000Y-130926250D01*
X151335750Y-131085000D01*
X151676309Y-131085000D01*
X151909698Y-130988327D01*
X152088327Y-130809699D01*
X152185000Y-130576310D01*
X152185000Y-130235750D01*
X152026250Y-130077000D01*
X151177000Y-130077000D01*
X150923000Y-130077000D01*
X150073750Y-130077000D01*
X149915000Y-130235750D01*
X149510000Y-130235750D01*
X149510000Y-129323690D01*
X149915000Y-129323690D01*
X149915000Y-129664250D01*
X150073750Y-129823000D01*
X150923000Y-129823000D01*
X150923000Y-128973750D01*
X151177000Y-128973750D01*
X151177000Y-129823000D01*
X152026250Y-129823000D01*
X152185000Y-129664250D01*
X152185000Y-129323690D01*
X152088327Y-129090301D01*
X151909698Y-128911673D01*
X151676309Y-128815000D01*
X151335750Y-128815000D01*
X151177000Y-128973750D01*
X150923000Y-128973750D01*
X150764250Y-128815000D01*
X150423691Y-128815000D01*
X150190302Y-128911673D01*
X150011673Y-129090301D01*
X149915000Y-129323690D01*
X149510000Y-129323690D01*
X149510000Y-128628974D01*
X152591814Y-128628974D01*
X152590634Y-132254489D01*
X152590634Y-132254489D01*
G37*
X152590634Y-132254489D02*
X152464647Y-132036839D01*
X151529157Y-131660138D01*
X150520721Y-131670108D01*
X149635353Y-132036839D01*
X149510000Y-132253394D01*
X149510000Y-130235750D01*
X149915000Y-130235750D01*
X149915000Y-130576310D01*
X150011673Y-130809699D01*
X150190302Y-130988327D01*
X150423691Y-131085000D01*
X150764250Y-131085000D01*
X150923000Y-130926250D01*
X150923000Y-130077000D01*
X151177000Y-130077000D01*
X151177000Y-130926250D01*
X151335750Y-131085000D01*
X151676309Y-131085000D01*
X151909698Y-130988327D01*
X152088327Y-130809699D01*
X152185000Y-130576310D01*
X152185000Y-130235750D01*
X152026250Y-130077000D01*
X151177000Y-130077000D01*
X150923000Y-130077000D01*
X150073750Y-130077000D01*
X149915000Y-130235750D01*
X149510000Y-130235750D01*
X149510000Y-129323690D01*
X149915000Y-129323690D01*
X149915000Y-129664250D01*
X150073750Y-129823000D01*
X150923000Y-129823000D01*
X150923000Y-128973750D01*
X151177000Y-128973750D01*
X151177000Y-129823000D01*
X152026250Y-129823000D01*
X152185000Y-129664250D01*
X152185000Y-129323690D01*
X152088327Y-129090301D01*
X151909698Y-128911673D01*
X151676309Y-128815000D01*
X151335750Y-128815000D01*
X151177000Y-128973750D01*
X150923000Y-128973750D01*
X150764250Y-128815000D01*
X150423691Y-128815000D01*
X150190302Y-128911673D01*
X150011673Y-129090301D01*
X149915000Y-129323690D01*
X149510000Y-129323690D01*
X149510000Y-128628974D01*
X152591814Y-128628974D01*
X152590634Y-132254489D01*
G04 #@! TO.N,+3V3*
G36*
X180998382Y-128723000D02*
X178202438Y-128723000D01*
X178226999Y-121600438D01*
X178217500Y-121551804D01*
X178190112Y-121510508D01*
X178149005Y-121482836D01*
X178100000Y-121473000D01*
X176986225Y-121473000D01*
X176846201Y-121415000D01*
X176553799Y-121415000D01*
X176527000Y-121426101D01*
X176527000Y-120677000D01*
X181022617Y-120677000D01*
X180998382Y-128723000D01*
X180998382Y-128723000D01*
G37*
X180998382Y-128723000D02*
X178202438Y-128723000D01*
X178226999Y-121600438D01*
X178217500Y-121551804D01*
X178190112Y-121510508D01*
X178149005Y-121482836D01*
X178100000Y-121473000D01*
X176986225Y-121473000D01*
X176846201Y-121415000D01*
X176553799Y-121415000D01*
X176527000Y-121426101D01*
X176527000Y-120677000D01*
X181022617Y-120677000D01*
X180998382Y-128723000D01*
G04 #@! TO.N,GND*
G36*
X184644437Y-93549289D02*
X184618437Y-93680000D01*
X184618437Y-96680000D01*
X184644437Y-96810711D01*
X184718478Y-96921522D01*
X184829289Y-96995563D01*
X184960000Y-97021563D01*
X185960000Y-97021563D01*
X186090711Y-96995563D01*
X186201522Y-96921522D01*
X186275563Y-96810711D01*
X186301563Y-96680000D01*
X186301563Y-93680000D01*
X186275563Y-93549289D01*
X186271361Y-93543000D01*
X187188639Y-93543000D01*
X187184437Y-93549289D01*
X187158437Y-93680000D01*
X187158437Y-95152116D01*
X187126897Y-95183656D01*
X187015000Y-95453799D01*
X187015000Y-95746201D01*
X187126897Y-96016344D01*
X187158437Y-96047884D01*
X187158437Y-96680000D01*
X187184437Y-96810711D01*
X187258478Y-96921522D01*
X187296154Y-96946696D01*
X186984105Y-97258745D01*
X186950919Y-97280920D01*
X186928744Y-97314107D01*
X186928743Y-97314108D01*
X186863063Y-97412405D01*
X186832213Y-97567501D01*
X186840000Y-97606649D01*
X186839999Y-100750353D01*
X186301563Y-101288790D01*
X186301563Y-99376925D01*
X186335000Y-99296201D01*
X186335000Y-99003799D01*
X186301563Y-98923075D01*
X186301563Y-98720000D01*
X186275563Y-98589289D01*
X186201522Y-98478478D01*
X186090711Y-98404437D01*
X185960000Y-98378437D01*
X184960000Y-98378437D01*
X184829289Y-98404437D01*
X184718478Y-98478478D01*
X184644437Y-98589289D01*
X184618437Y-98720000D01*
X184618437Y-100499414D01*
X183084106Y-102033745D01*
X183050919Y-102055920D01*
X183028744Y-102089107D01*
X183028743Y-102089108D01*
X182963063Y-102187405D01*
X182932213Y-102342501D01*
X182940000Y-102381649D01*
X182939999Y-105278857D01*
X182932213Y-105318001D01*
X182939999Y-105357145D01*
X182939999Y-105357148D01*
X182963063Y-105473097D01*
X183050918Y-105604582D01*
X183084108Y-105626759D01*
X183142303Y-105684954D01*
X182953799Y-105684954D01*
X182683656Y-105796851D01*
X182476897Y-106003610D01*
X182365000Y-106273753D01*
X182365000Y-106566155D01*
X182476897Y-106836298D01*
X182683656Y-107043057D01*
X182702500Y-107050863D01*
X182702501Y-109735349D01*
X181785351Y-110652500D01*
X180139144Y-110652500D01*
X180100000Y-110644714D01*
X180060856Y-110652500D01*
X180060852Y-110652500D01*
X179944903Y-110675564D01*
X179813419Y-110763419D01*
X179791242Y-110796609D01*
X178472850Y-112115001D01*
X176885791Y-112115001D01*
X176935000Y-111996201D01*
X176935000Y-111703799D01*
X176823103Y-111433656D01*
X176616344Y-111226897D01*
X176346201Y-111115000D01*
X176053799Y-111115000D01*
X176034955Y-111122806D01*
X174415948Y-109503799D01*
X175265000Y-109503799D01*
X175265000Y-109796201D01*
X175376897Y-110066344D01*
X175583656Y-110273103D01*
X175853799Y-110385000D01*
X176146201Y-110385000D01*
X176416344Y-110273103D01*
X176623103Y-110066344D01*
X176630908Y-110047500D01*
X177610856Y-110047500D01*
X177650000Y-110055286D01*
X177689144Y-110047500D01*
X177689148Y-110047500D01*
X177805097Y-110024436D01*
X177936581Y-109936581D01*
X177958758Y-109903391D01*
X182003395Y-105858755D01*
X182036581Y-105836581D01*
X182066482Y-105791832D01*
X182084723Y-105764531D01*
X182124436Y-105705097D01*
X182147500Y-105589148D01*
X182147500Y-105589147D01*
X182155287Y-105550000D01*
X182147500Y-105510853D01*
X182147500Y-104780908D01*
X182166344Y-104773103D01*
X182373103Y-104566344D01*
X182485000Y-104296201D01*
X182485000Y-104003799D01*
X182373103Y-103733656D01*
X182166344Y-103526897D01*
X181896201Y-103415000D01*
X181603799Y-103415000D01*
X181333656Y-103526897D01*
X181126897Y-103733656D01*
X181015000Y-104003799D01*
X181015000Y-104296201D01*
X181126897Y-104566344D01*
X181333656Y-104773103D01*
X181352501Y-104780909D01*
X181352500Y-105385350D01*
X177485351Y-109252500D01*
X176630908Y-109252500D01*
X176623103Y-109233656D01*
X176416344Y-109026897D01*
X176146201Y-108915000D01*
X175853799Y-108915000D01*
X175583656Y-109026897D01*
X175376897Y-109233656D01*
X175265000Y-109503799D01*
X174415948Y-109503799D01*
X173597500Y-108685351D01*
X173597500Y-103589143D01*
X173605286Y-103549999D01*
X173597500Y-103510855D01*
X173597500Y-103510852D01*
X173574436Y-103394903D01*
X173559792Y-103372987D01*
X173508756Y-103296606D01*
X173486581Y-103263419D01*
X173453394Y-103241244D01*
X170965150Y-100753000D01*
X172557000Y-100753000D01*
X172638068Y-101160558D01*
X172868931Y-101506069D01*
X173214442Y-101736932D01*
X173622000Y-101818000D01*
X174029558Y-101736932D01*
X174375069Y-101506069D01*
X174605932Y-101160558D01*
X174687000Y-100753000D01*
X174605932Y-100345442D01*
X174375069Y-99999931D01*
X174219527Y-99896001D01*
X175558437Y-99896001D01*
X175558437Y-101696001D01*
X175584437Y-101826712D01*
X175658478Y-101937523D01*
X175769289Y-102011564D01*
X175900000Y-102037564D01*
X177700000Y-102037564D01*
X177830711Y-102011564D01*
X177941522Y-101937523D01*
X178015563Y-101826712D01*
X178041563Y-101696001D01*
X178041563Y-100550344D01*
X178105000Y-100550344D01*
X178105000Y-101041658D01*
X178293018Y-101495572D01*
X178640429Y-101842983D01*
X179094343Y-102031001D01*
X179585657Y-102031001D01*
X180039571Y-101842983D01*
X180386982Y-101495572D01*
X180575000Y-101041658D01*
X180575000Y-100753000D01*
X181422000Y-100753000D01*
X181504971Y-101170125D01*
X181741254Y-101523746D01*
X182094875Y-101760029D01*
X182512000Y-101843000D01*
X182929125Y-101760029D01*
X183282746Y-101523746D01*
X183519029Y-101170125D01*
X183602000Y-100753000D01*
X183519029Y-100335875D01*
X183282746Y-99982254D01*
X182929125Y-99745971D01*
X182512000Y-99663000D01*
X182094875Y-99745971D01*
X181741254Y-99982254D01*
X181504971Y-100335875D01*
X181422000Y-100753000D01*
X180575000Y-100753000D01*
X180575000Y-100550344D01*
X180386982Y-100096430D01*
X180039571Y-99749019D01*
X179585657Y-99561001D01*
X179094343Y-99561001D01*
X178640429Y-99749019D01*
X178293018Y-100096430D01*
X178105000Y-100550344D01*
X178041563Y-100550344D01*
X178041563Y-99896001D01*
X178015563Y-99765290D01*
X177941522Y-99654479D01*
X177830711Y-99580438D01*
X177700000Y-99554438D01*
X177542100Y-99554438D01*
X179836539Y-97260000D01*
X182670553Y-97260000D01*
X182833656Y-97423103D01*
X183103799Y-97535000D01*
X183396201Y-97535000D01*
X183666344Y-97423103D01*
X183873103Y-97216344D01*
X183985000Y-96946201D01*
X183985000Y-96653799D01*
X183873103Y-96383656D01*
X183666344Y-96176897D01*
X183396201Y-96065000D01*
X183103799Y-96065000D01*
X182833656Y-96176897D01*
X182670553Y-96340000D01*
X179691301Y-96340000D01*
X179646000Y-96330989D01*
X179600700Y-96340000D01*
X179600699Y-96340000D01*
X179466518Y-96366690D01*
X179314360Y-96468359D01*
X179288698Y-96506765D01*
X176506766Y-99288698D01*
X176468360Y-99314360D01*
X176442698Y-99352766D01*
X176366690Y-99466519D01*
X176349202Y-99554438D01*
X175900000Y-99554438D01*
X175769289Y-99580438D01*
X175658478Y-99654479D01*
X175584437Y-99765290D01*
X175558437Y-99896001D01*
X174219527Y-99896001D01*
X174029558Y-99769068D01*
X173622000Y-99688000D01*
X173214442Y-99769068D01*
X172868931Y-99999931D01*
X172638068Y-100345442D01*
X172557000Y-100753000D01*
X170965150Y-100753000D01*
X170827194Y-100615045D01*
X170835000Y-100596201D01*
X170835000Y-100303799D01*
X170723103Y-100033656D01*
X170516344Y-99826897D01*
X170246201Y-99715000D01*
X169953799Y-99715000D01*
X169683656Y-99826897D01*
X169476897Y-100033656D01*
X169365000Y-100303799D01*
X169365000Y-100596201D01*
X169476897Y-100866344D01*
X169683656Y-101073103D01*
X169953799Y-101185000D01*
X170246201Y-101185000D01*
X170265045Y-101177194D01*
X172802501Y-103714651D01*
X172802500Y-108810856D01*
X172794714Y-108850000D01*
X172802500Y-108889144D01*
X172802500Y-108889147D01*
X172825564Y-109005096D01*
X172913419Y-109136581D01*
X172946609Y-109158758D01*
X175472806Y-111684955D01*
X175465000Y-111703799D01*
X175465000Y-111872348D01*
X174789260Y-111196609D01*
X174767083Y-111163419D01*
X174635599Y-111075564D01*
X174519650Y-111052500D01*
X174519646Y-111052500D01*
X174480502Y-111044714D01*
X174441358Y-111052500D01*
X172327151Y-111052500D01*
X171877195Y-110602544D01*
X171885000Y-110583700D01*
X171885000Y-110291298D01*
X171773103Y-110021155D01*
X171566344Y-109814396D01*
X171296201Y-109702499D01*
X171003799Y-109702499D01*
X170733656Y-109814396D01*
X170526897Y-110021155D01*
X170415000Y-110291298D01*
X170415000Y-110583700D01*
X170526897Y-110853843D01*
X170733656Y-111060602D01*
X171003799Y-111172499D01*
X171296201Y-111172499D01*
X171315045Y-111164694D01*
X171853744Y-111703393D01*
X171875920Y-111736581D01*
X171909107Y-111758756D01*
X171909108Y-111758757D01*
X171947970Y-111784723D01*
X172007404Y-111824436D01*
X172123353Y-111847500D01*
X172123357Y-111847500D01*
X172162501Y-111855286D01*
X172201645Y-111847500D01*
X174315853Y-111847500D01*
X174533275Y-112064923D01*
X174383656Y-112126897D01*
X174176897Y-112333656D01*
X174169092Y-112352500D01*
X170664650Y-112352500D01*
X168097500Y-109785351D01*
X168097500Y-109389144D01*
X168105286Y-109350000D01*
X168097500Y-109310856D01*
X168097500Y-109310852D01*
X168074436Y-109194903D01*
X167986581Y-109063419D01*
X167953395Y-109041245D01*
X167700068Y-108787918D01*
X167856546Y-108723103D01*
X168063305Y-108516344D01*
X168175202Y-108246201D01*
X168175202Y-107953799D01*
X168063305Y-107683656D01*
X167856546Y-107476897D01*
X167586403Y-107365000D01*
X167294001Y-107365000D01*
X167275157Y-107372806D01*
X167186459Y-107284108D01*
X167164282Y-107250918D01*
X167032798Y-107163063D01*
X166916849Y-107139999D01*
X166916845Y-107139999D01*
X166877701Y-107132213D01*
X166838557Y-107139999D01*
X161705198Y-107139999D01*
X161808114Y-107071232D01*
X161921233Y-106958114D01*
X161921234Y-106958113D01*
X162083812Y-106714798D01*
X162145032Y-106567002D01*
X162145032Y-106566999D01*
X162202122Y-106279986D01*
X162202122Y-106279984D01*
X162210000Y-106240379D01*
X162210000Y-105853799D01*
X166915000Y-105853799D01*
X166915000Y-106146201D01*
X167026897Y-106416344D01*
X167070327Y-106459774D01*
X167084437Y-106530711D01*
X167158478Y-106641522D01*
X167269289Y-106715563D01*
X167400000Y-106741563D01*
X168400000Y-106741563D01*
X168530711Y-106715563D01*
X168641522Y-106641522D01*
X168715563Y-106530711D01*
X168741563Y-106400000D01*
X168741563Y-105903799D01*
X169215000Y-105903799D01*
X169215000Y-106196201D01*
X169326897Y-106466344D01*
X169382742Y-106522189D01*
X169384437Y-106530711D01*
X169458478Y-106641522D01*
X169569289Y-106715563D01*
X169697947Y-106741155D01*
X169803799Y-106785000D01*
X170096201Y-106785000D01*
X170201067Y-106741563D01*
X170700000Y-106741563D01*
X170830711Y-106715563D01*
X170941522Y-106641522D01*
X171015563Y-106530711D01*
X171041563Y-106400000D01*
X171041563Y-105400000D01*
X171015563Y-105269289D01*
X170941522Y-105158478D01*
X170830711Y-105084437D01*
X170700000Y-105058437D01*
X169700000Y-105058437D01*
X169569289Y-105084437D01*
X169458478Y-105158478D01*
X169384437Y-105269289D01*
X169358437Y-105400000D01*
X169358437Y-105602116D01*
X169326897Y-105633656D01*
X169215000Y-105903799D01*
X168741563Y-105903799D01*
X168741563Y-105400000D01*
X168715563Y-105269289D01*
X168641522Y-105158478D01*
X168530711Y-105084437D01*
X168400000Y-105058437D01*
X167400000Y-105058437D01*
X167269289Y-105084437D01*
X167158478Y-105158478D01*
X167084437Y-105269289D01*
X167058437Y-105400000D01*
X167058437Y-105552116D01*
X167026897Y-105583656D01*
X166915000Y-105853799D01*
X162210000Y-105853799D01*
X162210000Y-100659621D01*
X162200444Y-100611579D01*
X162145032Y-100333001D01*
X162145032Y-100332998D01*
X162083812Y-100185202D01*
X161921232Y-99941885D01*
X161808113Y-99828767D01*
X161808112Y-99828766D01*
X161564798Y-99666188D01*
X161536357Y-99654407D01*
X161516063Y-99646001D01*
X161417001Y-99604968D01*
X161417000Y-99604968D01*
X161129986Y-99547878D01*
X161129984Y-99547878D01*
X161090379Y-99540000D01*
X151009621Y-99540000D01*
X150970016Y-99547878D01*
X150970014Y-99547878D01*
X150683001Y-99604968D01*
X150682998Y-99604968D01*
X150535202Y-99666188D01*
X150291887Y-99828766D01*
X150291886Y-99828767D01*
X150178768Y-99941886D01*
X150016188Y-100185202D01*
X149954969Y-100332998D01*
X149954968Y-100333000D01*
X149897878Y-100620014D01*
X149897878Y-100620021D01*
X149890001Y-100659621D01*
X149890001Y-102007462D01*
X149780711Y-101934437D01*
X149650000Y-101908437D01*
X148650000Y-101908437D01*
X148519289Y-101934437D01*
X148408478Y-102008478D01*
X148369611Y-102066647D01*
X148273103Y-101833656D01*
X148110000Y-101670553D01*
X148110000Y-101639013D01*
X148109998Y-98145305D01*
X148119010Y-98099998D01*
X148083309Y-97920516D01*
X148007301Y-97806763D01*
X148007299Y-97806761D01*
X147985000Y-97773388D01*
X147985000Y-97553799D01*
X147873103Y-97283656D01*
X147666344Y-97076897D01*
X147396201Y-96965000D01*
X147103799Y-96965000D01*
X146833656Y-97076897D01*
X146626897Y-97283656D01*
X146515000Y-97553799D01*
X146515000Y-97846201D01*
X146626897Y-98116344D01*
X146833656Y-98323103D01*
X147103799Y-98435000D01*
X147189999Y-98435000D01*
X147190001Y-101639009D01*
X147190000Y-101639014D01*
X147190000Y-101670553D01*
X147026897Y-101833656D01*
X146915000Y-102103799D01*
X146915000Y-102396201D01*
X147026897Y-102666344D01*
X147233656Y-102873103D01*
X147503799Y-102985000D01*
X147727851Y-102985000D01*
X147634105Y-103078745D01*
X147600919Y-103100920D01*
X147578744Y-103134107D01*
X147578743Y-103134108D01*
X147513063Y-103232405D01*
X147482213Y-103387501D01*
X147490000Y-103426649D01*
X147489999Y-105748355D01*
X147482213Y-105787499D01*
X147489999Y-105826643D01*
X147489999Y-105826646D01*
X147513063Y-105942595D01*
X147600918Y-106074080D01*
X147634107Y-106096257D01*
X147922805Y-106384955D01*
X147915000Y-106403799D01*
X147915000Y-106696201D01*
X148026897Y-106966344D01*
X148233656Y-107173103D01*
X148503799Y-107285000D01*
X148796201Y-107285000D01*
X148815045Y-107277194D01*
X149891243Y-108353393D01*
X149913419Y-108386581D01*
X149946606Y-108408756D01*
X149963271Y-108419891D01*
X150044903Y-108474436D01*
X150160852Y-108497500D01*
X150160855Y-108497500D01*
X150199999Y-108505286D01*
X150239143Y-108497500D01*
X162325337Y-108497500D01*
X162133656Y-108576897D01*
X161970553Y-108740000D01*
X155845300Y-108740000D01*
X155799999Y-108730989D01*
X155754699Y-108740000D01*
X155754698Y-108740000D01*
X155620517Y-108766690D01*
X155468359Y-108868359D01*
X155442696Y-108906766D01*
X154834463Y-109515000D01*
X154603799Y-109515000D01*
X154333656Y-109626897D01*
X154126897Y-109833656D01*
X154015000Y-110103799D01*
X154015000Y-110396201D01*
X154126897Y-110666344D01*
X154333656Y-110873103D01*
X154603799Y-110985000D01*
X154896201Y-110985000D01*
X155166344Y-110873103D01*
X155373103Y-110666344D01*
X155485000Y-110396201D01*
X155485000Y-110165537D01*
X155990538Y-109660000D01*
X161970553Y-109660000D01*
X162133656Y-109823103D01*
X162403799Y-109935000D01*
X162696201Y-109935000D01*
X162966344Y-109823103D01*
X163173103Y-109616344D01*
X163285000Y-109346201D01*
X163285000Y-109053799D01*
X163173103Y-108783656D01*
X162966344Y-108576897D01*
X162774663Y-108497500D01*
X166285351Y-108497500D01*
X167302500Y-109514650D01*
X167302501Y-109910852D01*
X167294714Y-109950000D01*
X167325564Y-110105096D01*
X167356182Y-110150918D01*
X167413420Y-110236581D01*
X167446607Y-110258756D01*
X170191244Y-113003394D01*
X170213419Y-113036581D01*
X170246606Y-113058756D01*
X170307829Y-113099664D01*
X170344903Y-113124436D01*
X170460852Y-113147500D01*
X170460856Y-113147500D01*
X170500000Y-113155286D01*
X170539144Y-113147500D01*
X174169092Y-113147500D01*
X174176897Y-113166344D01*
X174242890Y-113232337D01*
X174021136Y-113232337D01*
X173750993Y-113344234D01*
X173544234Y-113550993D01*
X173432337Y-113821136D01*
X173432337Y-114113538D01*
X173544234Y-114383681D01*
X173750993Y-114590440D01*
X173769837Y-114598246D01*
X173769838Y-118653189D01*
X173762051Y-118692337D01*
X173792901Y-118847433D01*
X173828026Y-118900000D01*
X173880757Y-118978918D01*
X173913943Y-119001092D01*
X174316244Y-119403394D01*
X174338419Y-119436581D01*
X174408437Y-119483366D01*
X174408437Y-119602500D01*
X173414650Y-119602500D01*
X172547500Y-118735351D01*
X172547500Y-117089143D01*
X172555286Y-117049999D01*
X172547500Y-117010853D01*
X172547500Y-117010852D01*
X172524436Y-116894903D01*
X172436581Y-116763419D01*
X172403395Y-116741245D01*
X171708758Y-116046608D01*
X171686581Y-116013419D01*
X171555097Y-115925564D01*
X171439148Y-115902500D01*
X171439144Y-115902500D01*
X171400000Y-115894714D01*
X171360856Y-115902500D01*
X171214650Y-115902500D01*
X167277194Y-111965045D01*
X167285000Y-111946201D01*
X167285000Y-111653799D01*
X167173103Y-111383656D01*
X166966344Y-111176897D01*
X166696201Y-111065000D01*
X166403799Y-111065000D01*
X166133656Y-111176897D01*
X165926897Y-111383656D01*
X165815000Y-111653799D01*
X165815000Y-111815000D01*
X162307612Y-111815000D01*
X162250000Y-111803540D01*
X162192388Y-111815000D01*
X162192387Y-111815000D01*
X162021745Y-111848943D01*
X161828239Y-111978239D01*
X161795604Y-112027081D01*
X161057686Y-112765000D01*
X161003799Y-112765000D01*
X160733656Y-112876897D01*
X160526897Y-113083656D01*
X160415000Y-113353799D01*
X160415000Y-113646201D01*
X160526897Y-113916344D01*
X160733656Y-114123103D01*
X161003799Y-114235000D01*
X161137686Y-114235000D01*
X160627084Y-114745602D01*
X160578239Y-114778239D01*
X160545604Y-114827081D01*
X159457686Y-115915000D01*
X159404447Y-115915000D01*
X159366344Y-115876897D01*
X159096201Y-115765000D01*
X158803799Y-115765000D01*
X158533656Y-115876897D01*
X158326897Y-116083656D01*
X158215000Y-116353799D01*
X158215000Y-116646201D01*
X158326897Y-116916344D01*
X158365000Y-116954447D01*
X158365000Y-118140644D01*
X158355711Y-118134437D01*
X158225000Y-118108437D01*
X155275000Y-118108437D01*
X155144289Y-118134437D01*
X155033478Y-118208478D01*
X154959437Y-118319289D01*
X154933437Y-118450000D01*
X154933437Y-122950000D01*
X154959437Y-123080711D01*
X155033478Y-123191522D01*
X155144289Y-123265563D01*
X155275000Y-123291563D01*
X158225000Y-123291563D01*
X158355711Y-123265563D01*
X158365001Y-123259356D01*
X158365001Y-123542383D01*
X158353540Y-123600000D01*
X158396307Y-123815000D01*
X158398944Y-123828255D01*
X158528240Y-124021761D01*
X158577082Y-124054396D01*
X158665000Y-124142314D01*
X158665000Y-124196201D01*
X158776897Y-124466344D01*
X158983656Y-124673103D01*
X159253799Y-124785000D01*
X159546201Y-124785000D01*
X159816344Y-124673103D01*
X160023103Y-124466344D01*
X160135000Y-124196201D01*
X160135000Y-124027802D01*
X160393800Y-124135001D01*
X160686202Y-124135001D01*
X160956345Y-124023104D01*
X161163104Y-123816345D01*
X161275001Y-123546202D01*
X161275001Y-123492315D01*
X161572919Y-123194398D01*
X161621761Y-123161763D01*
X161727482Y-123003540D01*
X161751057Y-122968258D01*
X161796460Y-122740002D01*
X161785000Y-122682389D01*
X161785000Y-118854447D01*
X161823103Y-118816344D01*
X161935000Y-118546201D01*
X161935000Y-118253799D01*
X161823103Y-117983656D01*
X161616344Y-117776897D01*
X161346201Y-117665000D01*
X161053799Y-117665000D01*
X160783656Y-117776897D01*
X160576897Y-117983656D01*
X160465000Y-118253799D01*
X160465000Y-118546201D01*
X160576897Y-118816344D01*
X160615000Y-118854447D01*
X160615001Y-122497686D01*
X160447687Y-122665001D01*
X160393800Y-122665001D01*
X160123657Y-122776898D01*
X159916898Y-122983657D01*
X159805001Y-123253800D01*
X159805001Y-123422199D01*
X159546201Y-123315000D01*
X159535000Y-123315000D01*
X159535000Y-117085000D01*
X159642388Y-117085000D01*
X159700000Y-117096460D01*
X159757612Y-117085000D01*
X159757613Y-117085000D01*
X159928255Y-117051057D01*
X160121761Y-116921761D01*
X160154398Y-116872916D01*
X161191665Y-115835650D01*
X166710409Y-121354395D01*
X166710412Y-121354397D01*
X170328933Y-124972919D01*
X170361568Y-125021761D01*
X170555074Y-125151057D01*
X170725716Y-125185000D01*
X170725720Y-125185000D01*
X170783328Y-125196459D01*
X170840936Y-125185000D01*
X172493723Y-125185000D01*
X172735144Y-125285000D01*
X173027546Y-125285000D01*
X173297689Y-125173103D01*
X173504448Y-124966344D01*
X173616345Y-124696201D01*
X173616345Y-124403799D01*
X173504448Y-124133656D01*
X173297689Y-123926897D01*
X173027546Y-123815000D01*
X172735144Y-123815000D01*
X172465001Y-123926897D01*
X172376898Y-124015000D01*
X171383172Y-124015000D01*
X171932000Y-123815243D01*
X172384276Y-123435739D01*
X172679477Y-122924434D01*
X172746631Y-122543582D01*
X174215000Y-122543582D01*
X174215000Y-122756418D01*
X174296449Y-122953053D01*
X174446947Y-123103551D01*
X174643582Y-123185000D01*
X174856418Y-123185000D01*
X175053053Y-123103551D01*
X175203551Y-122953053D01*
X175285000Y-122756418D01*
X175285000Y-122543582D01*
X175203551Y-122346947D01*
X175053053Y-122196449D01*
X174856418Y-122115000D01*
X174643582Y-122115000D01*
X174446947Y-122196449D01*
X174296449Y-122346947D01*
X174215000Y-122543582D01*
X172746631Y-122543582D01*
X172782000Y-122343000D01*
X172679477Y-121761566D01*
X172452480Y-121368394D01*
X172606397Y-121399010D01*
X172606398Y-121399010D01*
X172664010Y-121410470D01*
X172721622Y-121399010D01*
X174233462Y-121399010D01*
X174215000Y-121443582D01*
X174215000Y-121656418D01*
X174296449Y-121853053D01*
X174446947Y-122003551D01*
X174643582Y-122085000D01*
X174856418Y-122085000D01*
X175053053Y-122003551D01*
X175203551Y-121853053D01*
X175285000Y-121656418D01*
X175285000Y-121443582D01*
X175266538Y-121399010D01*
X175907686Y-121399010D01*
X175981592Y-121472916D01*
X176014229Y-121521761D01*
X176065000Y-121555685D01*
X176065000Y-121600000D01*
X176090500Y-121728199D01*
X176163119Y-121836881D01*
X176271801Y-121909500D01*
X176400000Y-121935000D01*
X177763843Y-121935000D01*
X177746697Y-126907250D01*
X177566344Y-126726897D01*
X177296201Y-126615000D01*
X177003799Y-126615000D01*
X176975000Y-126626929D01*
X176946201Y-126615000D01*
X176653799Y-126615000D01*
X176383656Y-126726897D01*
X176176897Y-126933656D01*
X176065000Y-127203799D01*
X176065000Y-127496201D01*
X176176897Y-127766344D01*
X176383656Y-127973103D01*
X176653799Y-128085000D01*
X176707686Y-128085000D01*
X176795602Y-128172916D01*
X176828239Y-128221761D01*
X177021745Y-128351057D01*
X177192387Y-128385000D01*
X177249999Y-128396460D01*
X177307611Y-128385000D01*
X177542387Y-128385000D01*
X177599999Y-128396460D01*
X177657611Y-128385000D01*
X177741601Y-128385000D01*
X177740002Y-128848845D01*
X177765500Y-128978199D01*
X177838119Y-129086881D01*
X177946801Y-129159500D01*
X178075000Y-129185000D01*
X181125000Y-129185000D01*
X181252266Y-129159884D01*
X181361166Y-129087593D01*
X181434112Y-128979131D01*
X181453119Y-128885057D01*
X181573691Y-128935000D01*
X181914250Y-128935000D01*
X182073000Y-128776250D01*
X182073000Y-127927000D01*
X182327000Y-127927000D01*
X182327000Y-128776250D01*
X182485750Y-128935000D01*
X182826309Y-128935000D01*
X183059698Y-128838327D01*
X183238327Y-128659699D01*
X183335000Y-128426310D01*
X183335000Y-128085750D01*
X183176250Y-127927000D01*
X182327000Y-127927000D01*
X182073000Y-127927000D01*
X182053000Y-127927000D01*
X182053000Y-127673000D01*
X182073000Y-127673000D01*
X182073000Y-126823750D01*
X182327000Y-126823750D01*
X182327000Y-127673000D01*
X183176250Y-127673000D01*
X183335000Y-127514250D01*
X183335000Y-127173690D01*
X183238327Y-126940301D01*
X183059698Y-126761673D01*
X182826309Y-126665000D01*
X182485750Y-126665000D01*
X182327000Y-126823750D01*
X182073000Y-126823750D01*
X181914250Y-126665000D01*
X181573691Y-126665000D01*
X181466449Y-126709421D01*
X181472847Y-124585000D01*
X183145553Y-124585000D01*
X183183656Y-124623103D01*
X183453799Y-124735000D01*
X183746201Y-124735000D01*
X184016344Y-124623103D01*
X184223103Y-124416344D01*
X184335000Y-124146201D01*
X184335000Y-123853799D01*
X184223103Y-123583656D01*
X184016344Y-123376897D01*
X183746201Y-123265000D01*
X183453799Y-123265000D01*
X183183656Y-123376897D01*
X183145553Y-123415000D01*
X181476372Y-123415000D01*
X181481538Y-121699751D01*
X182176237Y-121699751D01*
X182176237Y-122390311D01*
X182272910Y-122623700D01*
X182451539Y-122802328D01*
X182684928Y-122899001D01*
X183375487Y-122899001D01*
X183534237Y-122740251D01*
X183534237Y-121541001D01*
X182334987Y-121541001D01*
X182176237Y-121699751D01*
X181481538Y-121699751D01*
X181484998Y-120551009D01*
X181459500Y-120421801D01*
X181386881Y-120313119D01*
X181278199Y-120240500D01*
X181150000Y-120215000D01*
X176400000Y-120215000D01*
X176329566Y-120229010D01*
X176207612Y-120229010D01*
X176205968Y-120228683D01*
X176403394Y-120031258D01*
X176436581Y-120009083D01*
X176478425Y-119946460D01*
X176524436Y-119877599D01*
X176527997Y-119859698D01*
X176547500Y-119761650D01*
X176547500Y-119761647D01*
X176555286Y-119722503D01*
X176547500Y-119683359D01*
X176547500Y-118964649D01*
X177764649Y-117747500D01*
X181972587Y-117747500D01*
X182581735Y-118356648D01*
X182544992Y-118411637D01*
X182453022Y-118874001D01*
X182544992Y-119336365D01*
X182806900Y-119728338D01*
X183107213Y-119929001D01*
X182684928Y-119929001D01*
X182451539Y-120025674D01*
X182272910Y-120204302D01*
X182176237Y-120437691D01*
X182176237Y-121128251D01*
X182334987Y-121287001D01*
X183534237Y-121287001D01*
X183534237Y-121267001D01*
X183788237Y-121267001D01*
X183788237Y-121287001D01*
X183808237Y-121287001D01*
X183808237Y-121541001D01*
X183788237Y-121541001D01*
X183788237Y-122740251D01*
X183946987Y-122899001D01*
X184637546Y-122899001D01*
X184726237Y-122862264D01*
X184726237Y-126871158D01*
X184717715Y-126914001D01*
X184751476Y-127083730D01*
X184833753Y-127206865D01*
X184847620Y-127227618D01*
X184991508Y-127323762D01*
X185161237Y-127357523D01*
X185204080Y-127349001D01*
X211118394Y-127349001D01*
X211161237Y-127357523D01*
X211204080Y-127349001D01*
X211330966Y-127323762D01*
X211474854Y-127227618D01*
X211570998Y-127083730D01*
X211604759Y-126914001D01*
X211596237Y-126871158D01*
X211596237Y-124653059D01*
X211806900Y-124968338D01*
X212198873Y-125230246D01*
X212544527Y-125299001D01*
X212777947Y-125299001D01*
X213123601Y-125230246D01*
X213515574Y-124968338D01*
X213777482Y-124576365D01*
X213869452Y-124114001D01*
X213777482Y-123651637D01*
X213515574Y-123259664D01*
X213123601Y-122997756D01*
X212777947Y-122929001D01*
X212544527Y-122929001D01*
X212198873Y-122997756D01*
X211806900Y-123259664D01*
X211596237Y-123574943D01*
X211596237Y-122113059D01*
X211806900Y-122428338D01*
X212198873Y-122690246D01*
X212544527Y-122759001D01*
X212777947Y-122759001D01*
X213123601Y-122690246D01*
X213515574Y-122428338D01*
X213777482Y-122036365D01*
X213869452Y-121574001D01*
X213777482Y-121111637D01*
X213515574Y-120719664D01*
X213123601Y-120457756D01*
X212777947Y-120389001D01*
X212544527Y-120389001D01*
X212198873Y-120457756D01*
X211806900Y-120719664D01*
X211596237Y-121034943D01*
X211596237Y-119573059D01*
X211806900Y-119888338D01*
X212198873Y-120150246D01*
X212544527Y-120219001D01*
X212777947Y-120219001D01*
X213123601Y-120150246D01*
X213515574Y-119888338D01*
X213777482Y-119496365D01*
X213869452Y-119034001D01*
X213777482Y-118571637D01*
X213515574Y-118179664D01*
X213123601Y-117917756D01*
X212777947Y-117849001D01*
X212544527Y-117849001D01*
X212198873Y-117917756D01*
X211806900Y-118179664D01*
X211596237Y-118494943D01*
X211596237Y-117033059D01*
X211806900Y-117348338D01*
X212198873Y-117610246D01*
X212544527Y-117679001D01*
X212777947Y-117679001D01*
X213123601Y-117610246D01*
X213515574Y-117348338D01*
X213777482Y-116956365D01*
X213869452Y-116494001D01*
X213777482Y-116031637D01*
X213515574Y-115639664D01*
X213123601Y-115377756D01*
X212777947Y-115309001D01*
X212544527Y-115309001D01*
X212198873Y-115377756D01*
X211806900Y-115639664D01*
X211596237Y-115954943D01*
X211596237Y-114493059D01*
X211806900Y-114808338D01*
X212198873Y-115070246D01*
X212544527Y-115139001D01*
X212777947Y-115139001D01*
X213123601Y-115070246D01*
X213515574Y-114808338D01*
X213777482Y-114416365D01*
X213869452Y-113954001D01*
X213777482Y-113491637D01*
X213515574Y-113099664D01*
X213123601Y-112837756D01*
X212777947Y-112769001D01*
X212544527Y-112769001D01*
X212198873Y-112837756D01*
X211806900Y-113099664D01*
X211596237Y-113414943D01*
X211596237Y-112523244D01*
X211680526Y-112579564D01*
X211811237Y-112605564D01*
X213511237Y-112605564D01*
X213641948Y-112579564D01*
X213752759Y-112505523D01*
X213826800Y-112394712D01*
X213852800Y-112264001D01*
X213852800Y-110564001D01*
X213826800Y-110433290D01*
X213752759Y-110322479D01*
X213641948Y-110248438D01*
X213511237Y-110222438D01*
X211811237Y-110222438D01*
X211680526Y-110248438D01*
X211596237Y-110304758D01*
X211596237Y-105796774D01*
X213292698Y-107493237D01*
X213318359Y-107531641D01*
X213470517Y-107633310D01*
X213558437Y-107650798D01*
X213558437Y-108100000D01*
X213584437Y-108230711D01*
X213658478Y-108341522D01*
X213769289Y-108415563D01*
X213900000Y-108441563D01*
X215700000Y-108441563D01*
X215830711Y-108415563D01*
X215941522Y-108341522D01*
X216015563Y-108230711D01*
X216041563Y-108100000D01*
X216041563Y-107174276D01*
X216068644Y-107201356D01*
X216125203Y-107257916D01*
X216125207Y-107257918D01*
X216331212Y-107395566D01*
X216331213Y-107395567D01*
X216392432Y-107420924D01*
X216479008Y-107456786D01*
X216479010Y-107456786D01*
X216722014Y-107505122D01*
X216722016Y-107505122D01*
X216761621Y-107513000D01*
X218297000Y-107513000D01*
X218297001Y-108413379D01*
X218304878Y-108452979D01*
X218304878Y-108452986D01*
X218353214Y-108695990D01*
X218353214Y-108695992D01*
X218368080Y-108731880D01*
X218414433Y-108843787D01*
X218414434Y-108843788D01*
X218552082Y-109049793D01*
X218552084Y-109049797D01*
X218608644Y-109106356D01*
X218665203Y-109162916D01*
X218665207Y-109162918D01*
X218871212Y-109300566D01*
X218871213Y-109300567D01*
X218932432Y-109325924D01*
X219019008Y-109361786D01*
X219019010Y-109361786D01*
X219262014Y-109410122D01*
X219262016Y-109410122D01*
X219301621Y-109418000D01*
X220202001Y-109418000D01*
X220202000Y-113854300D01*
X220105801Y-113928116D01*
X220075475Y-113958442D01*
X220043262Y-113986752D01*
X219649655Y-114436524D01*
X219649651Y-114436527D01*
X219630575Y-114465141D01*
X219586660Y-114531013D01*
X219586658Y-114531020D01*
X219322871Y-115067337D01*
X219294550Y-115151057D01*
X219286482Y-115174907D01*
X219170493Y-115761230D01*
X219163184Y-115874552D01*
X219202898Y-116470917D01*
X219202898Y-116470918D01*
X219225169Y-116582270D01*
X219417881Y-117148035D01*
X219468212Y-117249829D01*
X219468216Y-117249834D01*
X219800787Y-117746436D01*
X219800789Y-117746440D01*
X219875752Y-117831738D01*
X220202000Y-118117247D01*
X220202001Y-128657125D01*
X220144193Y-128984973D01*
X219995952Y-129241732D01*
X219768838Y-129432304D01*
X219473027Y-129539970D01*
X219324097Y-129553000D01*
X159057381Y-129553000D01*
X158933969Y-129528452D01*
X158863580Y-129481420D01*
X158816548Y-129411031D01*
X158792000Y-129287620D01*
X158792000Y-128017621D01*
X158783145Y-127973103D01*
X158735786Y-127735010D01*
X158735786Y-127735008D01*
X158684744Y-127611783D01*
X158674567Y-127587213D01*
X158674565Y-127587211D01*
X158536918Y-127381207D01*
X158536916Y-127381203D01*
X158480356Y-127324644D01*
X158423797Y-127268084D01*
X158423793Y-127268082D01*
X158217788Y-127130434D01*
X158217787Y-127130433D01*
X158131211Y-127094572D01*
X158069992Y-127069214D01*
X158069991Y-127069214D01*
X157826986Y-127020878D01*
X157826984Y-127020878D01*
X157787379Y-127013000D01*
X153896621Y-127013000D01*
X153857016Y-127020878D01*
X153857014Y-127020878D01*
X153614010Y-127069214D01*
X153614008Y-127069214D01*
X153527432Y-127105076D01*
X153466213Y-127130433D01*
X153466212Y-127130434D01*
X153260207Y-127268082D01*
X153260203Y-127268084D01*
X153203644Y-127324644D01*
X153147084Y-127381203D01*
X153147082Y-127381207D01*
X153009435Y-127587211D01*
X153009433Y-127587213D01*
X152974422Y-127671738D01*
X152955014Y-127718593D01*
X152948214Y-127735009D01*
X152943160Y-127760420D01*
X152661345Y-127338655D01*
X151922054Y-126844676D01*
X151050000Y-126671214D01*
X150177947Y-126844676D01*
X149438656Y-127338655D01*
X149174936Y-127733339D01*
X149164062Y-127678672D01*
X149164062Y-127678669D01*
X149122468Y-127578255D01*
X149102843Y-127530875D01*
X149102841Y-127530873D01*
X148994460Y-127368671D01*
X148994457Y-127368664D01*
X148881336Y-127255543D01*
X148881333Y-127255542D01*
X148719130Y-127147161D01*
X148719126Y-127147157D01*
X148622046Y-127106946D01*
X148571331Y-127085938D01*
X148571329Y-127085938D01*
X148379986Y-127047878D01*
X148379984Y-127047878D01*
X148340379Y-127040000D01*
X148009621Y-127040000D01*
X147970016Y-127047878D01*
X147970014Y-127047878D01*
X147778672Y-127085938D01*
X147778669Y-127085938D01*
X147722758Y-127109098D01*
X147630875Y-127147157D01*
X147630873Y-127147159D01*
X147468671Y-127255540D01*
X147468664Y-127255543D01*
X147355543Y-127368664D01*
X147355542Y-127368667D01*
X147247161Y-127530870D01*
X147247157Y-127530874D01*
X147214393Y-127609974D01*
X147185938Y-127678669D01*
X147185938Y-127678671D01*
X147175064Y-127733338D01*
X146911345Y-127338655D01*
X146172054Y-126844676D01*
X145300000Y-126671214D01*
X144427947Y-126844676D01*
X143688656Y-127338655D01*
X143424936Y-127733339D01*
X143414062Y-127678672D01*
X143414062Y-127678669D01*
X143372468Y-127578255D01*
X143352843Y-127530875D01*
X143352841Y-127530873D01*
X143244460Y-127368671D01*
X143244457Y-127368664D01*
X143131336Y-127255543D01*
X143131333Y-127255542D01*
X142969130Y-127147161D01*
X142969126Y-127147157D01*
X142872046Y-127106946D01*
X142821331Y-127085938D01*
X142821329Y-127085938D01*
X142630749Y-127048030D01*
X142592300Y-127040194D01*
X136828828Y-127013169D01*
X136500027Y-126955193D01*
X136243268Y-126806952D01*
X136052696Y-126579838D01*
X135945030Y-126284027D01*
X135932000Y-126135097D01*
X135932000Y-124700000D01*
X150308437Y-124700000D01*
X150308437Y-125700000D01*
X150334437Y-125830711D01*
X150408478Y-125941522D01*
X150519289Y-126015563D01*
X150650000Y-126041563D01*
X151650000Y-126041563D01*
X151780711Y-126015563D01*
X151867875Y-125957322D01*
X151883656Y-125973103D01*
X152153799Y-126085000D01*
X152446201Y-126085000D01*
X152716344Y-125973103D01*
X152923103Y-125766344D01*
X153035000Y-125496201D01*
X153035000Y-125203799D01*
X152923103Y-124933656D01*
X152716344Y-124726897D01*
X152446201Y-124615000D01*
X152207612Y-124615000D01*
X152150000Y-124603540D01*
X152092388Y-124615000D01*
X151974655Y-124615000D01*
X151965563Y-124569289D01*
X151891522Y-124458478D01*
X151780711Y-124384437D01*
X151650000Y-124358437D01*
X150650000Y-124358437D01*
X150519289Y-124384437D01*
X150408478Y-124458478D01*
X150334437Y-124569289D01*
X150308437Y-124700000D01*
X135932000Y-124700000D01*
X135932000Y-122343000D01*
X143347000Y-122343000D01*
X143449523Y-122924434D01*
X143744724Y-123435739D01*
X144197000Y-123815243D01*
X144751798Y-124017173D01*
X145342202Y-124017173D01*
X145897000Y-123815243D01*
X146349276Y-123435739D01*
X146644477Y-122924434D01*
X146747000Y-122343000D01*
X146644477Y-121761566D01*
X146349276Y-121250261D01*
X145897000Y-120870757D01*
X145342202Y-120668827D01*
X144751798Y-120668827D01*
X144197000Y-120870757D01*
X143744724Y-121250261D01*
X143449523Y-121761566D01*
X143347000Y-122343000D01*
X135932000Y-122343000D01*
X135932000Y-118090728D01*
X136072036Y-117931888D01*
X136093308Y-117900937D01*
X136116636Y-117871504D01*
X136118995Y-117867608D01*
X136451419Y-117312169D01*
X136471750Y-117266503D01*
X136492568Y-117221033D01*
X136493930Y-117216687D01*
X136684267Y-116597988D01*
X136693112Y-116548825D01*
X136702490Y-116499666D01*
X136702776Y-116495120D01*
X136740038Y-115848879D01*
X136736899Y-115798998D01*
X136734281Y-115749048D01*
X136733475Y-115744565D01*
X136615511Y-115108089D01*
X136600560Y-115060383D01*
X136586108Y-115012515D01*
X136584256Y-115008354D01*
X136317877Y-114418388D01*
X136291974Y-114375617D01*
X136266524Y-114332584D01*
X136263732Y-114328985D01*
X135932000Y-113905911D01*
X135932000Y-109418000D01*
X136832379Y-109418000D01*
X136871984Y-109410122D01*
X136871986Y-109410122D01*
X137114991Y-109361786D01*
X137114992Y-109361786D01*
X137185216Y-109332698D01*
X137262787Y-109300567D01*
X137262788Y-109300566D01*
X137468793Y-109162918D01*
X137468797Y-109162916D01*
X137525356Y-109106356D01*
X137581916Y-109049797D01*
X137581918Y-109049793D01*
X137719566Y-108843788D01*
X137719567Y-108843787D01*
X137751501Y-108766691D01*
X137780786Y-108695992D01*
X137780786Y-108695990D01*
X137829122Y-108452986D01*
X137829122Y-108452984D01*
X137837000Y-108413379D01*
X137837000Y-107513000D01*
X139372379Y-107513000D01*
X139411984Y-107505122D01*
X139411986Y-107505122D01*
X139654991Y-107456786D01*
X139654992Y-107456786D01*
X139716211Y-107431428D01*
X139802787Y-107395567D01*
X139802788Y-107395566D01*
X140008793Y-107257918D01*
X140008797Y-107257916D01*
X140065356Y-107201356D01*
X140121916Y-107144797D01*
X140121918Y-107144793D01*
X140222445Y-106994343D01*
X140565000Y-106994343D01*
X140565000Y-107485657D01*
X140753018Y-107939571D01*
X141100429Y-108286982D01*
X141554343Y-108475000D01*
X142045657Y-108475000D01*
X142499571Y-108286982D01*
X142846982Y-107939571D01*
X143035000Y-107485657D01*
X143035000Y-106994343D01*
X142846982Y-106540429D01*
X142499571Y-106193018D01*
X142045657Y-106005000D01*
X141554343Y-106005000D01*
X141100429Y-106193018D01*
X140753018Y-106540429D01*
X140565000Y-106994343D01*
X140222445Y-106994343D01*
X140259566Y-106938788D01*
X140259567Y-106938787D01*
X140305491Y-106827916D01*
X140320786Y-106790992D01*
X140320786Y-106790990D01*
X140369122Y-106547986D01*
X140369122Y-106547984D01*
X140377000Y-106508379D01*
X140377000Y-103887621D01*
X140369122Y-103848014D01*
X140359572Y-103800000D01*
X140558437Y-103800000D01*
X140558437Y-105600000D01*
X140584437Y-105730711D01*
X140658478Y-105841522D01*
X140769289Y-105915563D01*
X140900000Y-105941563D01*
X142700000Y-105941563D01*
X142830711Y-105915563D01*
X142941522Y-105841522D01*
X143015563Y-105730711D01*
X143041563Y-105600000D01*
X143041563Y-104303799D01*
X144015000Y-104303799D01*
X144015000Y-104596201D01*
X144126897Y-104866344D01*
X144290000Y-105029447D01*
X144290001Y-109644693D01*
X144280989Y-109690000D01*
X144316690Y-109869482D01*
X144316691Y-109869483D01*
X144418360Y-110021641D01*
X144456766Y-110047303D01*
X149710095Y-115300633D01*
X149708756Y-115302637D01*
X149616786Y-115765001D01*
X149708756Y-116227365D01*
X149970664Y-116619338D01*
X150362637Y-116881246D01*
X150708291Y-116950001D01*
X150941711Y-116950001D01*
X151287365Y-116881246D01*
X151679338Y-116619338D01*
X151941246Y-116227365D01*
X152033216Y-115765001D01*
X151941246Y-115302637D01*
X151679338Y-114910664D01*
X151287365Y-114648756D01*
X150941711Y-114580001D01*
X150708291Y-114580001D01*
X150362637Y-114648756D01*
X150360633Y-114650095D01*
X150127102Y-114416564D01*
X151675001Y-114416564D01*
X151805712Y-114390564D01*
X151916523Y-114316523D01*
X151990564Y-114205712D01*
X152016564Y-114075001D01*
X152016564Y-112375001D01*
X151990564Y-112244290D01*
X151916523Y-112133479D01*
X151805712Y-112059438D01*
X151675001Y-112033438D01*
X149975001Y-112033438D01*
X149844290Y-112059438D01*
X149733479Y-112133479D01*
X149659438Y-112244290D01*
X149633438Y-112375001D01*
X149633438Y-113922900D01*
X145210000Y-109499463D01*
X145210000Y-105029447D01*
X145373103Y-104866344D01*
X145485000Y-104596201D01*
X145485000Y-104303799D01*
X145373103Y-104033656D01*
X145166344Y-103826897D01*
X144896201Y-103715000D01*
X144603799Y-103715000D01*
X144333656Y-103826897D01*
X144126897Y-104033656D01*
X144015000Y-104303799D01*
X143041563Y-104303799D01*
X143041563Y-103800000D01*
X143015563Y-103669289D01*
X142941522Y-103558478D01*
X142830711Y-103484437D01*
X142700000Y-103458437D01*
X140900000Y-103458437D01*
X140769289Y-103484437D01*
X140658478Y-103558478D01*
X140584437Y-103669289D01*
X140558437Y-103800000D01*
X140359572Y-103800000D01*
X140320786Y-103605010D01*
X140320786Y-103605008D01*
X140265414Y-103471329D01*
X140259567Y-103457213D01*
X140259565Y-103457211D01*
X140121918Y-103251207D01*
X140121916Y-103251203D01*
X140065356Y-103194644D01*
X140008797Y-103138084D01*
X140008793Y-103138082D01*
X139802788Y-103000434D01*
X139802787Y-103000433D01*
X139686096Y-102952098D01*
X139654992Y-102939214D01*
X139654991Y-102939214D01*
X139411986Y-102890878D01*
X139411984Y-102890878D01*
X139372379Y-102883000D01*
X137744746Y-102883000D01*
X137739841Y-102871159D01*
X137719567Y-102822213D01*
X137719565Y-102822211D01*
X137581918Y-102616207D01*
X137581916Y-102616203D01*
X137525356Y-102559644D01*
X137468797Y-102503084D01*
X137468793Y-102503082D01*
X137262788Y-102365434D01*
X137262787Y-102365433D01*
X137146096Y-102317098D01*
X137114992Y-102304214D01*
X137114991Y-102304214D01*
X136980411Y-102277445D01*
X136959974Y-102263789D01*
X136840379Y-102240000D01*
X135932000Y-102240000D01*
X135932000Y-100118000D01*
X143347000Y-100118000D01*
X143449523Y-100699434D01*
X143744724Y-101210739D01*
X144197000Y-101590243D01*
X144751798Y-101792173D01*
X145342202Y-101792173D01*
X145897000Y-101590243D01*
X146349276Y-101210739D01*
X146644477Y-100699434D01*
X146747000Y-100118000D01*
X146644477Y-99536566D01*
X146349276Y-99025261D01*
X145897000Y-98645757D01*
X145342202Y-98443827D01*
X144751798Y-98443827D01*
X144197000Y-98645757D01*
X143744724Y-99025261D01*
X143449523Y-99536566D01*
X143347000Y-100118000D01*
X135932000Y-100118000D01*
X135932000Y-94438868D01*
X135989807Y-94111027D01*
X136138048Y-93854268D01*
X136365162Y-93663696D01*
X136660973Y-93556030D01*
X136809902Y-93543000D01*
X184648639Y-93543000D01*
X184644437Y-93549289D01*
X184644437Y-93549289D01*
G37*
X184644437Y-93549289D02*
X184618437Y-93680000D01*
X184618437Y-96680000D01*
X184644437Y-96810711D01*
X184718478Y-96921522D01*
X184829289Y-96995563D01*
X184960000Y-97021563D01*
X185960000Y-97021563D01*
X186090711Y-96995563D01*
X186201522Y-96921522D01*
X186275563Y-96810711D01*
X186301563Y-96680000D01*
X186301563Y-93680000D01*
X186275563Y-93549289D01*
X186271361Y-93543000D01*
X187188639Y-93543000D01*
X187184437Y-93549289D01*
X187158437Y-93680000D01*
X187158437Y-95152116D01*
X187126897Y-95183656D01*
X187015000Y-95453799D01*
X187015000Y-95746201D01*
X187126897Y-96016344D01*
X187158437Y-96047884D01*
X187158437Y-96680000D01*
X187184437Y-96810711D01*
X187258478Y-96921522D01*
X187296154Y-96946696D01*
X186984105Y-97258745D01*
X186950919Y-97280920D01*
X186928744Y-97314107D01*
X186928743Y-97314108D01*
X186863063Y-97412405D01*
X186832213Y-97567501D01*
X186840000Y-97606649D01*
X186839999Y-100750353D01*
X186301563Y-101288790D01*
X186301563Y-99376925D01*
X186335000Y-99296201D01*
X186335000Y-99003799D01*
X186301563Y-98923075D01*
X186301563Y-98720000D01*
X186275563Y-98589289D01*
X186201522Y-98478478D01*
X186090711Y-98404437D01*
X185960000Y-98378437D01*
X184960000Y-98378437D01*
X184829289Y-98404437D01*
X184718478Y-98478478D01*
X184644437Y-98589289D01*
X184618437Y-98720000D01*
X184618437Y-100499414D01*
X183084106Y-102033745D01*
X183050919Y-102055920D01*
X183028744Y-102089107D01*
X183028743Y-102089108D01*
X182963063Y-102187405D01*
X182932213Y-102342501D01*
X182940000Y-102381649D01*
X182939999Y-105278857D01*
X182932213Y-105318001D01*
X182939999Y-105357145D01*
X182939999Y-105357148D01*
X182963063Y-105473097D01*
X183050918Y-105604582D01*
X183084108Y-105626759D01*
X183142303Y-105684954D01*
X182953799Y-105684954D01*
X182683656Y-105796851D01*
X182476897Y-106003610D01*
X182365000Y-106273753D01*
X182365000Y-106566155D01*
X182476897Y-106836298D01*
X182683656Y-107043057D01*
X182702500Y-107050863D01*
X182702501Y-109735349D01*
X181785351Y-110652500D01*
X180139144Y-110652500D01*
X180100000Y-110644714D01*
X180060856Y-110652500D01*
X180060852Y-110652500D01*
X179944903Y-110675564D01*
X179813419Y-110763419D01*
X179791242Y-110796609D01*
X178472850Y-112115001D01*
X176885791Y-112115001D01*
X176935000Y-111996201D01*
X176935000Y-111703799D01*
X176823103Y-111433656D01*
X176616344Y-111226897D01*
X176346201Y-111115000D01*
X176053799Y-111115000D01*
X176034955Y-111122806D01*
X174415948Y-109503799D01*
X175265000Y-109503799D01*
X175265000Y-109796201D01*
X175376897Y-110066344D01*
X175583656Y-110273103D01*
X175853799Y-110385000D01*
X176146201Y-110385000D01*
X176416344Y-110273103D01*
X176623103Y-110066344D01*
X176630908Y-110047500D01*
X177610856Y-110047500D01*
X177650000Y-110055286D01*
X177689144Y-110047500D01*
X177689148Y-110047500D01*
X177805097Y-110024436D01*
X177936581Y-109936581D01*
X177958758Y-109903391D01*
X182003395Y-105858755D01*
X182036581Y-105836581D01*
X182066482Y-105791832D01*
X182084723Y-105764531D01*
X182124436Y-105705097D01*
X182147500Y-105589148D01*
X182147500Y-105589147D01*
X182155287Y-105550000D01*
X182147500Y-105510853D01*
X182147500Y-104780908D01*
X182166344Y-104773103D01*
X182373103Y-104566344D01*
X182485000Y-104296201D01*
X182485000Y-104003799D01*
X182373103Y-103733656D01*
X182166344Y-103526897D01*
X181896201Y-103415000D01*
X181603799Y-103415000D01*
X181333656Y-103526897D01*
X181126897Y-103733656D01*
X181015000Y-104003799D01*
X181015000Y-104296201D01*
X181126897Y-104566344D01*
X181333656Y-104773103D01*
X181352501Y-104780909D01*
X181352500Y-105385350D01*
X177485351Y-109252500D01*
X176630908Y-109252500D01*
X176623103Y-109233656D01*
X176416344Y-109026897D01*
X176146201Y-108915000D01*
X175853799Y-108915000D01*
X175583656Y-109026897D01*
X175376897Y-109233656D01*
X175265000Y-109503799D01*
X174415948Y-109503799D01*
X173597500Y-108685351D01*
X173597500Y-103589143D01*
X173605286Y-103549999D01*
X173597500Y-103510855D01*
X173597500Y-103510852D01*
X173574436Y-103394903D01*
X173559792Y-103372987D01*
X173508756Y-103296606D01*
X173486581Y-103263419D01*
X173453394Y-103241244D01*
X170965150Y-100753000D01*
X172557000Y-100753000D01*
X172638068Y-101160558D01*
X172868931Y-101506069D01*
X173214442Y-101736932D01*
X173622000Y-101818000D01*
X174029558Y-101736932D01*
X174375069Y-101506069D01*
X174605932Y-101160558D01*
X174687000Y-100753000D01*
X174605932Y-100345442D01*
X174375069Y-99999931D01*
X174219527Y-99896001D01*
X175558437Y-99896001D01*
X175558437Y-101696001D01*
X175584437Y-101826712D01*
X175658478Y-101937523D01*
X175769289Y-102011564D01*
X175900000Y-102037564D01*
X177700000Y-102037564D01*
X177830711Y-102011564D01*
X177941522Y-101937523D01*
X178015563Y-101826712D01*
X178041563Y-101696001D01*
X178041563Y-100550344D01*
X178105000Y-100550344D01*
X178105000Y-101041658D01*
X178293018Y-101495572D01*
X178640429Y-101842983D01*
X179094343Y-102031001D01*
X179585657Y-102031001D01*
X180039571Y-101842983D01*
X180386982Y-101495572D01*
X180575000Y-101041658D01*
X180575000Y-100753000D01*
X181422000Y-100753000D01*
X181504971Y-101170125D01*
X181741254Y-101523746D01*
X182094875Y-101760029D01*
X182512000Y-101843000D01*
X182929125Y-101760029D01*
X183282746Y-101523746D01*
X183519029Y-101170125D01*
X183602000Y-100753000D01*
X183519029Y-100335875D01*
X183282746Y-99982254D01*
X182929125Y-99745971D01*
X182512000Y-99663000D01*
X182094875Y-99745971D01*
X181741254Y-99982254D01*
X181504971Y-100335875D01*
X181422000Y-100753000D01*
X180575000Y-100753000D01*
X180575000Y-100550344D01*
X180386982Y-100096430D01*
X180039571Y-99749019D01*
X179585657Y-99561001D01*
X179094343Y-99561001D01*
X178640429Y-99749019D01*
X178293018Y-100096430D01*
X178105000Y-100550344D01*
X178041563Y-100550344D01*
X178041563Y-99896001D01*
X178015563Y-99765290D01*
X177941522Y-99654479D01*
X177830711Y-99580438D01*
X177700000Y-99554438D01*
X177542100Y-99554438D01*
X179836539Y-97260000D01*
X182670553Y-97260000D01*
X182833656Y-97423103D01*
X183103799Y-97535000D01*
X183396201Y-97535000D01*
X183666344Y-97423103D01*
X183873103Y-97216344D01*
X183985000Y-96946201D01*
X183985000Y-96653799D01*
X183873103Y-96383656D01*
X183666344Y-96176897D01*
X183396201Y-96065000D01*
X183103799Y-96065000D01*
X182833656Y-96176897D01*
X182670553Y-96340000D01*
X179691301Y-96340000D01*
X179646000Y-96330989D01*
X179600700Y-96340000D01*
X179600699Y-96340000D01*
X179466518Y-96366690D01*
X179314360Y-96468359D01*
X179288698Y-96506765D01*
X176506766Y-99288698D01*
X176468360Y-99314360D01*
X176442698Y-99352766D01*
X176366690Y-99466519D01*
X176349202Y-99554438D01*
X175900000Y-99554438D01*
X175769289Y-99580438D01*
X175658478Y-99654479D01*
X175584437Y-99765290D01*
X175558437Y-99896001D01*
X174219527Y-99896001D01*
X174029558Y-99769068D01*
X173622000Y-99688000D01*
X173214442Y-99769068D01*
X172868931Y-99999931D01*
X172638068Y-100345442D01*
X172557000Y-100753000D01*
X170965150Y-100753000D01*
X170827194Y-100615045D01*
X170835000Y-100596201D01*
X170835000Y-100303799D01*
X170723103Y-100033656D01*
X170516344Y-99826897D01*
X170246201Y-99715000D01*
X169953799Y-99715000D01*
X169683656Y-99826897D01*
X169476897Y-100033656D01*
X169365000Y-100303799D01*
X169365000Y-100596201D01*
X169476897Y-100866344D01*
X169683656Y-101073103D01*
X169953799Y-101185000D01*
X170246201Y-101185000D01*
X170265045Y-101177194D01*
X172802501Y-103714651D01*
X172802500Y-108810856D01*
X172794714Y-108850000D01*
X172802500Y-108889144D01*
X172802500Y-108889147D01*
X172825564Y-109005096D01*
X172913419Y-109136581D01*
X172946609Y-109158758D01*
X175472806Y-111684955D01*
X175465000Y-111703799D01*
X175465000Y-111872348D01*
X174789260Y-111196609D01*
X174767083Y-111163419D01*
X174635599Y-111075564D01*
X174519650Y-111052500D01*
X174519646Y-111052500D01*
X174480502Y-111044714D01*
X174441358Y-111052500D01*
X172327151Y-111052500D01*
X171877195Y-110602544D01*
X171885000Y-110583700D01*
X171885000Y-110291298D01*
X171773103Y-110021155D01*
X171566344Y-109814396D01*
X171296201Y-109702499D01*
X171003799Y-109702499D01*
X170733656Y-109814396D01*
X170526897Y-110021155D01*
X170415000Y-110291298D01*
X170415000Y-110583700D01*
X170526897Y-110853843D01*
X170733656Y-111060602D01*
X171003799Y-111172499D01*
X171296201Y-111172499D01*
X171315045Y-111164694D01*
X171853744Y-111703393D01*
X171875920Y-111736581D01*
X171909107Y-111758756D01*
X171909108Y-111758757D01*
X171947970Y-111784723D01*
X172007404Y-111824436D01*
X172123353Y-111847500D01*
X172123357Y-111847500D01*
X172162501Y-111855286D01*
X172201645Y-111847500D01*
X174315853Y-111847500D01*
X174533275Y-112064923D01*
X174383656Y-112126897D01*
X174176897Y-112333656D01*
X174169092Y-112352500D01*
X170664650Y-112352500D01*
X168097500Y-109785351D01*
X168097500Y-109389144D01*
X168105286Y-109350000D01*
X168097500Y-109310856D01*
X168097500Y-109310852D01*
X168074436Y-109194903D01*
X167986581Y-109063419D01*
X167953395Y-109041245D01*
X167700068Y-108787918D01*
X167856546Y-108723103D01*
X168063305Y-108516344D01*
X168175202Y-108246201D01*
X168175202Y-107953799D01*
X168063305Y-107683656D01*
X167856546Y-107476897D01*
X167586403Y-107365000D01*
X167294001Y-107365000D01*
X167275157Y-107372806D01*
X167186459Y-107284108D01*
X167164282Y-107250918D01*
X167032798Y-107163063D01*
X166916849Y-107139999D01*
X166916845Y-107139999D01*
X166877701Y-107132213D01*
X166838557Y-107139999D01*
X161705198Y-107139999D01*
X161808114Y-107071232D01*
X161921233Y-106958114D01*
X161921234Y-106958113D01*
X162083812Y-106714798D01*
X162145032Y-106567002D01*
X162145032Y-106566999D01*
X162202122Y-106279986D01*
X162202122Y-106279984D01*
X162210000Y-106240379D01*
X162210000Y-105853799D01*
X166915000Y-105853799D01*
X166915000Y-106146201D01*
X167026897Y-106416344D01*
X167070327Y-106459774D01*
X167084437Y-106530711D01*
X167158478Y-106641522D01*
X167269289Y-106715563D01*
X167400000Y-106741563D01*
X168400000Y-106741563D01*
X168530711Y-106715563D01*
X168641522Y-106641522D01*
X168715563Y-106530711D01*
X168741563Y-106400000D01*
X168741563Y-105903799D01*
X169215000Y-105903799D01*
X169215000Y-106196201D01*
X169326897Y-106466344D01*
X169382742Y-106522189D01*
X169384437Y-106530711D01*
X169458478Y-106641522D01*
X169569289Y-106715563D01*
X169697947Y-106741155D01*
X169803799Y-106785000D01*
X170096201Y-106785000D01*
X170201067Y-106741563D01*
X170700000Y-106741563D01*
X170830711Y-106715563D01*
X170941522Y-106641522D01*
X171015563Y-106530711D01*
X171041563Y-106400000D01*
X171041563Y-105400000D01*
X171015563Y-105269289D01*
X170941522Y-105158478D01*
X170830711Y-105084437D01*
X170700000Y-105058437D01*
X169700000Y-105058437D01*
X169569289Y-105084437D01*
X169458478Y-105158478D01*
X169384437Y-105269289D01*
X169358437Y-105400000D01*
X169358437Y-105602116D01*
X169326897Y-105633656D01*
X169215000Y-105903799D01*
X168741563Y-105903799D01*
X168741563Y-105400000D01*
X168715563Y-105269289D01*
X168641522Y-105158478D01*
X168530711Y-105084437D01*
X168400000Y-105058437D01*
X167400000Y-105058437D01*
X167269289Y-105084437D01*
X167158478Y-105158478D01*
X167084437Y-105269289D01*
X167058437Y-105400000D01*
X167058437Y-105552116D01*
X167026897Y-105583656D01*
X166915000Y-105853799D01*
X162210000Y-105853799D01*
X162210000Y-100659621D01*
X162200444Y-100611579D01*
X162145032Y-100333001D01*
X162145032Y-100332998D01*
X162083812Y-100185202D01*
X161921232Y-99941885D01*
X161808113Y-99828767D01*
X161808112Y-99828766D01*
X161564798Y-99666188D01*
X161536357Y-99654407D01*
X161516063Y-99646001D01*
X161417001Y-99604968D01*
X161417000Y-99604968D01*
X161129986Y-99547878D01*
X161129984Y-99547878D01*
X161090379Y-99540000D01*
X151009621Y-99540000D01*
X150970016Y-99547878D01*
X150970014Y-99547878D01*
X150683001Y-99604968D01*
X150682998Y-99604968D01*
X150535202Y-99666188D01*
X150291887Y-99828766D01*
X150291886Y-99828767D01*
X150178768Y-99941886D01*
X150016188Y-100185202D01*
X149954969Y-100332998D01*
X149954968Y-100333000D01*
X149897878Y-100620014D01*
X149897878Y-100620021D01*
X149890001Y-100659621D01*
X149890001Y-102007462D01*
X149780711Y-101934437D01*
X149650000Y-101908437D01*
X148650000Y-101908437D01*
X148519289Y-101934437D01*
X148408478Y-102008478D01*
X148369611Y-102066647D01*
X148273103Y-101833656D01*
X148110000Y-101670553D01*
X148110000Y-101639013D01*
X148109998Y-98145305D01*
X148119010Y-98099998D01*
X148083309Y-97920516D01*
X148007301Y-97806763D01*
X148007299Y-97806761D01*
X147985000Y-97773388D01*
X147985000Y-97553799D01*
X147873103Y-97283656D01*
X147666344Y-97076897D01*
X147396201Y-96965000D01*
X147103799Y-96965000D01*
X146833656Y-97076897D01*
X146626897Y-97283656D01*
X146515000Y-97553799D01*
X146515000Y-97846201D01*
X146626897Y-98116344D01*
X146833656Y-98323103D01*
X147103799Y-98435000D01*
X147189999Y-98435000D01*
X147190001Y-101639009D01*
X147190000Y-101639014D01*
X147190000Y-101670553D01*
X147026897Y-101833656D01*
X146915000Y-102103799D01*
X146915000Y-102396201D01*
X147026897Y-102666344D01*
X147233656Y-102873103D01*
X147503799Y-102985000D01*
X147727851Y-102985000D01*
X147634105Y-103078745D01*
X147600919Y-103100920D01*
X147578744Y-103134107D01*
X147578743Y-103134108D01*
X147513063Y-103232405D01*
X147482213Y-103387501D01*
X147490000Y-103426649D01*
X147489999Y-105748355D01*
X147482213Y-105787499D01*
X147489999Y-105826643D01*
X147489999Y-105826646D01*
X147513063Y-105942595D01*
X147600918Y-106074080D01*
X147634107Y-106096257D01*
X147922805Y-106384955D01*
X147915000Y-106403799D01*
X147915000Y-106696201D01*
X148026897Y-106966344D01*
X148233656Y-107173103D01*
X148503799Y-107285000D01*
X148796201Y-107285000D01*
X148815045Y-107277194D01*
X149891243Y-108353393D01*
X149913419Y-108386581D01*
X149946606Y-108408756D01*
X149963271Y-108419891D01*
X150044903Y-108474436D01*
X150160852Y-108497500D01*
X150160855Y-108497500D01*
X150199999Y-108505286D01*
X150239143Y-108497500D01*
X162325337Y-108497500D01*
X162133656Y-108576897D01*
X161970553Y-108740000D01*
X155845300Y-108740000D01*
X155799999Y-108730989D01*
X155754699Y-108740000D01*
X155754698Y-108740000D01*
X155620517Y-108766690D01*
X155468359Y-108868359D01*
X155442696Y-108906766D01*
X154834463Y-109515000D01*
X154603799Y-109515000D01*
X154333656Y-109626897D01*
X154126897Y-109833656D01*
X154015000Y-110103799D01*
X154015000Y-110396201D01*
X154126897Y-110666344D01*
X154333656Y-110873103D01*
X154603799Y-110985000D01*
X154896201Y-110985000D01*
X155166344Y-110873103D01*
X155373103Y-110666344D01*
X155485000Y-110396201D01*
X155485000Y-110165537D01*
X155990538Y-109660000D01*
X161970553Y-109660000D01*
X162133656Y-109823103D01*
X162403799Y-109935000D01*
X162696201Y-109935000D01*
X162966344Y-109823103D01*
X163173103Y-109616344D01*
X163285000Y-109346201D01*
X163285000Y-109053799D01*
X163173103Y-108783656D01*
X162966344Y-108576897D01*
X162774663Y-108497500D01*
X166285351Y-108497500D01*
X167302500Y-109514650D01*
X167302501Y-109910852D01*
X167294714Y-109950000D01*
X167325564Y-110105096D01*
X167356182Y-110150918D01*
X167413420Y-110236581D01*
X167446607Y-110258756D01*
X170191244Y-113003394D01*
X170213419Y-113036581D01*
X170246606Y-113058756D01*
X170307829Y-113099664D01*
X170344903Y-113124436D01*
X170460852Y-113147500D01*
X170460856Y-113147500D01*
X170500000Y-113155286D01*
X170539144Y-113147500D01*
X174169092Y-113147500D01*
X174176897Y-113166344D01*
X174242890Y-113232337D01*
X174021136Y-113232337D01*
X173750993Y-113344234D01*
X173544234Y-113550993D01*
X173432337Y-113821136D01*
X173432337Y-114113538D01*
X173544234Y-114383681D01*
X173750993Y-114590440D01*
X173769837Y-114598246D01*
X173769838Y-118653189D01*
X173762051Y-118692337D01*
X173792901Y-118847433D01*
X173828026Y-118900000D01*
X173880757Y-118978918D01*
X173913943Y-119001092D01*
X174316244Y-119403394D01*
X174338419Y-119436581D01*
X174408437Y-119483366D01*
X174408437Y-119602500D01*
X173414650Y-119602500D01*
X172547500Y-118735351D01*
X172547500Y-117089143D01*
X172555286Y-117049999D01*
X172547500Y-117010853D01*
X172547500Y-117010852D01*
X172524436Y-116894903D01*
X172436581Y-116763419D01*
X172403395Y-116741245D01*
X171708758Y-116046608D01*
X171686581Y-116013419D01*
X171555097Y-115925564D01*
X171439148Y-115902500D01*
X171439144Y-115902500D01*
X171400000Y-115894714D01*
X171360856Y-115902500D01*
X171214650Y-115902500D01*
X167277194Y-111965045D01*
X167285000Y-111946201D01*
X167285000Y-111653799D01*
X167173103Y-111383656D01*
X166966344Y-111176897D01*
X166696201Y-111065000D01*
X166403799Y-111065000D01*
X166133656Y-111176897D01*
X165926897Y-111383656D01*
X165815000Y-111653799D01*
X165815000Y-111815000D01*
X162307612Y-111815000D01*
X162250000Y-111803540D01*
X162192388Y-111815000D01*
X162192387Y-111815000D01*
X162021745Y-111848943D01*
X161828239Y-111978239D01*
X161795604Y-112027081D01*
X161057686Y-112765000D01*
X161003799Y-112765000D01*
X160733656Y-112876897D01*
X160526897Y-113083656D01*
X160415000Y-113353799D01*
X160415000Y-113646201D01*
X160526897Y-113916344D01*
X160733656Y-114123103D01*
X161003799Y-114235000D01*
X161137686Y-114235000D01*
X160627084Y-114745602D01*
X160578239Y-114778239D01*
X160545604Y-114827081D01*
X159457686Y-115915000D01*
X159404447Y-115915000D01*
X159366344Y-115876897D01*
X159096201Y-115765000D01*
X158803799Y-115765000D01*
X158533656Y-115876897D01*
X158326897Y-116083656D01*
X158215000Y-116353799D01*
X158215000Y-116646201D01*
X158326897Y-116916344D01*
X158365000Y-116954447D01*
X158365000Y-118140644D01*
X158355711Y-118134437D01*
X158225000Y-118108437D01*
X155275000Y-118108437D01*
X155144289Y-118134437D01*
X155033478Y-118208478D01*
X154959437Y-118319289D01*
X154933437Y-118450000D01*
X154933437Y-122950000D01*
X154959437Y-123080711D01*
X155033478Y-123191522D01*
X155144289Y-123265563D01*
X155275000Y-123291563D01*
X158225000Y-123291563D01*
X158355711Y-123265563D01*
X158365001Y-123259356D01*
X158365001Y-123542383D01*
X158353540Y-123600000D01*
X158396307Y-123815000D01*
X158398944Y-123828255D01*
X158528240Y-124021761D01*
X158577082Y-124054396D01*
X158665000Y-124142314D01*
X158665000Y-124196201D01*
X158776897Y-124466344D01*
X158983656Y-124673103D01*
X159253799Y-124785000D01*
X159546201Y-124785000D01*
X159816344Y-124673103D01*
X160023103Y-124466344D01*
X160135000Y-124196201D01*
X160135000Y-124027802D01*
X160393800Y-124135001D01*
X160686202Y-124135001D01*
X160956345Y-124023104D01*
X161163104Y-123816345D01*
X161275001Y-123546202D01*
X161275001Y-123492315D01*
X161572919Y-123194398D01*
X161621761Y-123161763D01*
X161727482Y-123003540D01*
X161751057Y-122968258D01*
X161796460Y-122740002D01*
X161785000Y-122682389D01*
X161785000Y-118854447D01*
X161823103Y-118816344D01*
X161935000Y-118546201D01*
X161935000Y-118253799D01*
X161823103Y-117983656D01*
X161616344Y-117776897D01*
X161346201Y-117665000D01*
X161053799Y-117665000D01*
X160783656Y-117776897D01*
X160576897Y-117983656D01*
X160465000Y-118253799D01*
X160465000Y-118546201D01*
X160576897Y-118816344D01*
X160615000Y-118854447D01*
X160615001Y-122497686D01*
X160447687Y-122665001D01*
X160393800Y-122665001D01*
X160123657Y-122776898D01*
X159916898Y-122983657D01*
X159805001Y-123253800D01*
X159805001Y-123422199D01*
X159546201Y-123315000D01*
X159535000Y-123315000D01*
X159535000Y-117085000D01*
X159642388Y-117085000D01*
X159700000Y-117096460D01*
X159757612Y-117085000D01*
X159757613Y-117085000D01*
X159928255Y-117051057D01*
X160121761Y-116921761D01*
X160154398Y-116872916D01*
X161191665Y-115835650D01*
X166710409Y-121354395D01*
X166710412Y-121354397D01*
X170328933Y-124972919D01*
X170361568Y-125021761D01*
X170555074Y-125151057D01*
X170725716Y-125185000D01*
X170725720Y-125185000D01*
X170783328Y-125196459D01*
X170840936Y-125185000D01*
X172493723Y-125185000D01*
X172735144Y-125285000D01*
X173027546Y-125285000D01*
X173297689Y-125173103D01*
X173504448Y-124966344D01*
X173616345Y-124696201D01*
X173616345Y-124403799D01*
X173504448Y-124133656D01*
X173297689Y-123926897D01*
X173027546Y-123815000D01*
X172735144Y-123815000D01*
X172465001Y-123926897D01*
X172376898Y-124015000D01*
X171383172Y-124015000D01*
X171932000Y-123815243D01*
X172384276Y-123435739D01*
X172679477Y-122924434D01*
X172746631Y-122543582D01*
X174215000Y-122543582D01*
X174215000Y-122756418D01*
X174296449Y-122953053D01*
X174446947Y-123103551D01*
X174643582Y-123185000D01*
X174856418Y-123185000D01*
X175053053Y-123103551D01*
X175203551Y-122953053D01*
X175285000Y-122756418D01*
X175285000Y-122543582D01*
X175203551Y-122346947D01*
X175053053Y-122196449D01*
X174856418Y-122115000D01*
X174643582Y-122115000D01*
X174446947Y-122196449D01*
X174296449Y-122346947D01*
X174215000Y-122543582D01*
X172746631Y-122543582D01*
X172782000Y-122343000D01*
X172679477Y-121761566D01*
X172452480Y-121368394D01*
X172606397Y-121399010D01*
X172606398Y-121399010D01*
X172664010Y-121410470D01*
X172721622Y-121399010D01*
X174233462Y-121399010D01*
X174215000Y-121443582D01*
X174215000Y-121656418D01*
X174296449Y-121853053D01*
X174446947Y-122003551D01*
X174643582Y-122085000D01*
X174856418Y-122085000D01*
X175053053Y-122003551D01*
X175203551Y-121853053D01*
X175285000Y-121656418D01*
X175285000Y-121443582D01*
X175266538Y-121399010D01*
X175907686Y-121399010D01*
X175981592Y-121472916D01*
X176014229Y-121521761D01*
X176065000Y-121555685D01*
X176065000Y-121600000D01*
X176090500Y-121728199D01*
X176163119Y-121836881D01*
X176271801Y-121909500D01*
X176400000Y-121935000D01*
X177763843Y-121935000D01*
X177746697Y-126907250D01*
X177566344Y-126726897D01*
X177296201Y-126615000D01*
X177003799Y-126615000D01*
X176975000Y-126626929D01*
X176946201Y-126615000D01*
X176653799Y-126615000D01*
X176383656Y-126726897D01*
X176176897Y-126933656D01*
X176065000Y-127203799D01*
X176065000Y-127496201D01*
X176176897Y-127766344D01*
X176383656Y-127973103D01*
X176653799Y-128085000D01*
X176707686Y-128085000D01*
X176795602Y-128172916D01*
X176828239Y-128221761D01*
X177021745Y-128351057D01*
X177192387Y-128385000D01*
X177249999Y-128396460D01*
X177307611Y-128385000D01*
X177542387Y-128385000D01*
X177599999Y-128396460D01*
X177657611Y-128385000D01*
X177741601Y-128385000D01*
X177740002Y-128848845D01*
X177765500Y-128978199D01*
X177838119Y-129086881D01*
X177946801Y-129159500D01*
X178075000Y-129185000D01*
X181125000Y-129185000D01*
X181252266Y-129159884D01*
X181361166Y-129087593D01*
X181434112Y-128979131D01*
X181453119Y-128885057D01*
X181573691Y-128935000D01*
X181914250Y-128935000D01*
X182073000Y-128776250D01*
X182073000Y-127927000D01*
X182327000Y-127927000D01*
X182327000Y-128776250D01*
X182485750Y-128935000D01*
X182826309Y-128935000D01*
X183059698Y-128838327D01*
X183238327Y-128659699D01*
X183335000Y-128426310D01*
X183335000Y-128085750D01*
X183176250Y-127927000D01*
X182327000Y-127927000D01*
X182073000Y-127927000D01*
X182053000Y-127927000D01*
X182053000Y-127673000D01*
X182073000Y-127673000D01*
X182073000Y-126823750D01*
X182327000Y-126823750D01*
X182327000Y-127673000D01*
X183176250Y-127673000D01*
X183335000Y-127514250D01*
X183335000Y-127173690D01*
X183238327Y-126940301D01*
X183059698Y-126761673D01*
X182826309Y-126665000D01*
X182485750Y-126665000D01*
X182327000Y-126823750D01*
X182073000Y-126823750D01*
X181914250Y-126665000D01*
X181573691Y-126665000D01*
X181466449Y-126709421D01*
X181472847Y-124585000D01*
X183145553Y-124585000D01*
X183183656Y-124623103D01*
X183453799Y-124735000D01*
X183746201Y-124735000D01*
X184016344Y-124623103D01*
X184223103Y-124416344D01*
X184335000Y-124146201D01*
X184335000Y-123853799D01*
X184223103Y-123583656D01*
X184016344Y-123376897D01*
X183746201Y-123265000D01*
X183453799Y-123265000D01*
X183183656Y-123376897D01*
X183145553Y-123415000D01*
X181476372Y-123415000D01*
X181481538Y-121699751D01*
X182176237Y-121699751D01*
X182176237Y-122390311D01*
X182272910Y-122623700D01*
X182451539Y-122802328D01*
X182684928Y-122899001D01*
X183375487Y-122899001D01*
X183534237Y-122740251D01*
X183534237Y-121541001D01*
X182334987Y-121541001D01*
X182176237Y-121699751D01*
X181481538Y-121699751D01*
X181484998Y-120551009D01*
X181459500Y-120421801D01*
X181386881Y-120313119D01*
X181278199Y-120240500D01*
X181150000Y-120215000D01*
X176400000Y-120215000D01*
X176329566Y-120229010D01*
X176207612Y-120229010D01*
X176205968Y-120228683D01*
X176403394Y-120031258D01*
X176436581Y-120009083D01*
X176478425Y-119946460D01*
X176524436Y-119877599D01*
X176527997Y-119859698D01*
X176547500Y-119761650D01*
X176547500Y-119761647D01*
X176555286Y-119722503D01*
X176547500Y-119683359D01*
X176547500Y-118964649D01*
X177764649Y-117747500D01*
X181972587Y-117747500D01*
X182581735Y-118356648D01*
X182544992Y-118411637D01*
X182453022Y-118874001D01*
X182544992Y-119336365D01*
X182806900Y-119728338D01*
X183107213Y-119929001D01*
X182684928Y-119929001D01*
X182451539Y-120025674D01*
X182272910Y-120204302D01*
X182176237Y-120437691D01*
X182176237Y-121128251D01*
X182334987Y-121287001D01*
X183534237Y-121287001D01*
X183534237Y-121267001D01*
X183788237Y-121267001D01*
X183788237Y-121287001D01*
X183808237Y-121287001D01*
X183808237Y-121541001D01*
X183788237Y-121541001D01*
X183788237Y-122740251D01*
X183946987Y-122899001D01*
X184637546Y-122899001D01*
X184726237Y-122862264D01*
X184726237Y-126871158D01*
X184717715Y-126914001D01*
X184751476Y-127083730D01*
X184833753Y-127206865D01*
X184847620Y-127227618D01*
X184991508Y-127323762D01*
X185161237Y-127357523D01*
X185204080Y-127349001D01*
X211118394Y-127349001D01*
X211161237Y-127357523D01*
X211204080Y-127349001D01*
X211330966Y-127323762D01*
X211474854Y-127227618D01*
X211570998Y-127083730D01*
X211604759Y-126914001D01*
X211596237Y-126871158D01*
X211596237Y-124653059D01*
X211806900Y-124968338D01*
X212198873Y-125230246D01*
X212544527Y-125299001D01*
X212777947Y-125299001D01*
X213123601Y-125230246D01*
X213515574Y-124968338D01*
X213777482Y-124576365D01*
X213869452Y-124114001D01*
X213777482Y-123651637D01*
X213515574Y-123259664D01*
X213123601Y-122997756D01*
X212777947Y-122929001D01*
X212544527Y-122929001D01*
X212198873Y-122997756D01*
X211806900Y-123259664D01*
X211596237Y-123574943D01*
X211596237Y-122113059D01*
X211806900Y-122428338D01*
X212198873Y-122690246D01*
X212544527Y-122759001D01*
X212777947Y-122759001D01*
X213123601Y-122690246D01*
X213515574Y-122428338D01*
X213777482Y-122036365D01*
X213869452Y-121574001D01*
X213777482Y-121111637D01*
X213515574Y-120719664D01*
X213123601Y-120457756D01*
X212777947Y-120389001D01*
X212544527Y-120389001D01*
X212198873Y-120457756D01*
X211806900Y-120719664D01*
X211596237Y-121034943D01*
X211596237Y-119573059D01*
X211806900Y-119888338D01*
X212198873Y-120150246D01*
X212544527Y-120219001D01*
X212777947Y-120219001D01*
X213123601Y-120150246D01*
X213515574Y-119888338D01*
X213777482Y-119496365D01*
X213869452Y-119034001D01*
X213777482Y-118571637D01*
X213515574Y-118179664D01*
X213123601Y-117917756D01*
X212777947Y-117849001D01*
X212544527Y-117849001D01*
X212198873Y-117917756D01*
X211806900Y-118179664D01*
X211596237Y-118494943D01*
X211596237Y-117033059D01*
X211806900Y-117348338D01*
X212198873Y-117610246D01*
X212544527Y-117679001D01*
X212777947Y-117679001D01*
X213123601Y-117610246D01*
X213515574Y-117348338D01*
X213777482Y-116956365D01*
X213869452Y-116494001D01*
X213777482Y-116031637D01*
X213515574Y-115639664D01*
X213123601Y-115377756D01*
X212777947Y-115309001D01*
X212544527Y-115309001D01*
X212198873Y-115377756D01*
X211806900Y-115639664D01*
X211596237Y-115954943D01*
X211596237Y-114493059D01*
X211806900Y-114808338D01*
X212198873Y-115070246D01*
X212544527Y-115139001D01*
X212777947Y-115139001D01*
X213123601Y-115070246D01*
X213515574Y-114808338D01*
X213777482Y-114416365D01*
X213869452Y-113954001D01*
X213777482Y-113491637D01*
X213515574Y-113099664D01*
X213123601Y-112837756D01*
X212777947Y-112769001D01*
X212544527Y-112769001D01*
X212198873Y-112837756D01*
X211806900Y-113099664D01*
X211596237Y-113414943D01*
X211596237Y-112523244D01*
X211680526Y-112579564D01*
X211811237Y-112605564D01*
X213511237Y-112605564D01*
X213641948Y-112579564D01*
X213752759Y-112505523D01*
X213826800Y-112394712D01*
X213852800Y-112264001D01*
X213852800Y-110564001D01*
X213826800Y-110433290D01*
X213752759Y-110322479D01*
X213641948Y-110248438D01*
X213511237Y-110222438D01*
X211811237Y-110222438D01*
X211680526Y-110248438D01*
X211596237Y-110304758D01*
X211596237Y-105796774D01*
X213292698Y-107493237D01*
X213318359Y-107531641D01*
X213470517Y-107633310D01*
X213558437Y-107650798D01*
X213558437Y-108100000D01*
X213584437Y-108230711D01*
X213658478Y-108341522D01*
X213769289Y-108415563D01*
X213900000Y-108441563D01*
X215700000Y-108441563D01*
X215830711Y-108415563D01*
X215941522Y-108341522D01*
X216015563Y-108230711D01*
X216041563Y-108100000D01*
X216041563Y-107174276D01*
X216068644Y-107201356D01*
X216125203Y-107257916D01*
X216125207Y-107257918D01*
X216331212Y-107395566D01*
X216331213Y-107395567D01*
X216392432Y-107420924D01*
X216479008Y-107456786D01*
X216479010Y-107456786D01*
X216722014Y-107505122D01*
X216722016Y-107505122D01*
X216761621Y-107513000D01*
X218297000Y-107513000D01*
X218297001Y-108413379D01*
X218304878Y-108452979D01*
X218304878Y-108452986D01*
X218353214Y-108695990D01*
X218353214Y-108695992D01*
X218368080Y-108731880D01*
X218414433Y-108843787D01*
X218414434Y-108843788D01*
X218552082Y-109049793D01*
X218552084Y-109049797D01*
X218608644Y-109106356D01*
X218665203Y-109162916D01*
X218665207Y-109162918D01*
X218871212Y-109300566D01*
X218871213Y-109300567D01*
X218932432Y-109325924D01*
X219019008Y-109361786D01*
X219019010Y-109361786D01*
X219262014Y-109410122D01*
X219262016Y-109410122D01*
X219301621Y-109418000D01*
X220202001Y-109418000D01*
X220202000Y-113854300D01*
X220105801Y-113928116D01*
X220075475Y-113958442D01*
X220043262Y-113986752D01*
X219649655Y-114436524D01*
X219649651Y-114436527D01*
X219630575Y-114465141D01*
X219586660Y-114531013D01*
X219586658Y-114531020D01*
X219322871Y-115067337D01*
X219294550Y-115151057D01*
X219286482Y-115174907D01*
X219170493Y-115761230D01*
X219163184Y-115874552D01*
X219202898Y-116470917D01*
X219202898Y-116470918D01*
X219225169Y-116582270D01*
X219417881Y-117148035D01*
X219468212Y-117249829D01*
X219468216Y-117249834D01*
X219800787Y-117746436D01*
X219800789Y-117746440D01*
X219875752Y-117831738D01*
X220202000Y-118117247D01*
X220202001Y-128657125D01*
X220144193Y-128984973D01*
X219995952Y-129241732D01*
X219768838Y-129432304D01*
X219473027Y-129539970D01*
X219324097Y-129553000D01*
X159057381Y-129553000D01*
X158933969Y-129528452D01*
X158863580Y-129481420D01*
X158816548Y-129411031D01*
X158792000Y-129287620D01*
X158792000Y-128017621D01*
X158783145Y-127973103D01*
X158735786Y-127735010D01*
X158735786Y-127735008D01*
X158684744Y-127611783D01*
X158674567Y-127587213D01*
X158674565Y-127587211D01*
X158536918Y-127381207D01*
X158536916Y-127381203D01*
X158480356Y-127324644D01*
X158423797Y-127268084D01*
X158423793Y-127268082D01*
X158217788Y-127130434D01*
X158217787Y-127130433D01*
X158131211Y-127094572D01*
X158069992Y-127069214D01*
X158069991Y-127069214D01*
X157826986Y-127020878D01*
X157826984Y-127020878D01*
X157787379Y-127013000D01*
X153896621Y-127013000D01*
X153857016Y-127020878D01*
X153857014Y-127020878D01*
X153614010Y-127069214D01*
X153614008Y-127069214D01*
X153527432Y-127105076D01*
X153466213Y-127130433D01*
X153466212Y-127130434D01*
X153260207Y-127268082D01*
X153260203Y-127268084D01*
X153203644Y-127324644D01*
X153147084Y-127381203D01*
X153147082Y-127381207D01*
X153009435Y-127587211D01*
X153009433Y-127587213D01*
X152974422Y-127671738D01*
X152955014Y-127718593D01*
X152948214Y-127735009D01*
X152943160Y-127760420D01*
X152661345Y-127338655D01*
X151922054Y-126844676D01*
X151050000Y-126671214D01*
X150177947Y-126844676D01*
X149438656Y-127338655D01*
X149174936Y-127733339D01*
X149164062Y-127678672D01*
X149164062Y-127678669D01*
X149122468Y-127578255D01*
X149102843Y-127530875D01*
X149102841Y-127530873D01*
X148994460Y-127368671D01*
X148994457Y-127368664D01*
X148881336Y-127255543D01*
X148881333Y-127255542D01*
X148719130Y-127147161D01*
X148719126Y-127147157D01*
X148622046Y-127106946D01*
X148571331Y-127085938D01*
X148571329Y-127085938D01*
X148379986Y-127047878D01*
X148379984Y-127047878D01*
X148340379Y-127040000D01*
X148009621Y-127040000D01*
X147970016Y-127047878D01*
X147970014Y-127047878D01*
X147778672Y-127085938D01*
X147778669Y-127085938D01*
X147722758Y-127109098D01*
X147630875Y-127147157D01*
X147630873Y-127147159D01*
X147468671Y-127255540D01*
X147468664Y-127255543D01*
X147355543Y-127368664D01*
X147355542Y-127368667D01*
X147247161Y-127530870D01*
X147247157Y-127530874D01*
X147214393Y-127609974D01*
X147185938Y-127678669D01*
X147185938Y-127678671D01*
X147175064Y-127733338D01*
X146911345Y-127338655D01*
X146172054Y-126844676D01*
X145300000Y-126671214D01*
X144427947Y-126844676D01*
X143688656Y-127338655D01*
X143424936Y-127733339D01*
X143414062Y-127678672D01*
X143414062Y-127678669D01*
X143372468Y-127578255D01*
X143352843Y-127530875D01*
X143352841Y-127530873D01*
X143244460Y-127368671D01*
X143244457Y-127368664D01*
X143131336Y-127255543D01*
X143131333Y-127255542D01*
X142969130Y-127147161D01*
X142969126Y-127147157D01*
X142872046Y-127106946D01*
X142821331Y-127085938D01*
X142821329Y-127085938D01*
X142630749Y-127048030D01*
X142592300Y-127040194D01*
X136828828Y-127013169D01*
X136500027Y-126955193D01*
X136243268Y-126806952D01*
X136052696Y-126579838D01*
X135945030Y-126284027D01*
X135932000Y-126135097D01*
X135932000Y-124700000D01*
X150308437Y-124700000D01*
X150308437Y-125700000D01*
X150334437Y-125830711D01*
X150408478Y-125941522D01*
X150519289Y-126015563D01*
X150650000Y-126041563D01*
X151650000Y-126041563D01*
X151780711Y-126015563D01*
X151867875Y-125957322D01*
X151883656Y-125973103D01*
X152153799Y-126085000D01*
X152446201Y-126085000D01*
X152716344Y-125973103D01*
X152923103Y-125766344D01*
X153035000Y-125496201D01*
X153035000Y-125203799D01*
X152923103Y-124933656D01*
X152716344Y-124726897D01*
X152446201Y-124615000D01*
X152207612Y-124615000D01*
X152150000Y-124603540D01*
X152092388Y-124615000D01*
X151974655Y-124615000D01*
X151965563Y-124569289D01*
X151891522Y-124458478D01*
X151780711Y-124384437D01*
X151650000Y-124358437D01*
X150650000Y-124358437D01*
X150519289Y-124384437D01*
X150408478Y-124458478D01*
X150334437Y-124569289D01*
X150308437Y-124700000D01*
X135932000Y-124700000D01*
X135932000Y-122343000D01*
X143347000Y-122343000D01*
X143449523Y-122924434D01*
X143744724Y-123435739D01*
X144197000Y-123815243D01*
X144751798Y-124017173D01*
X145342202Y-124017173D01*
X145897000Y-123815243D01*
X146349276Y-123435739D01*
X146644477Y-122924434D01*
X146747000Y-122343000D01*
X146644477Y-121761566D01*
X146349276Y-121250261D01*
X145897000Y-120870757D01*
X145342202Y-120668827D01*
X144751798Y-120668827D01*
X144197000Y-120870757D01*
X143744724Y-121250261D01*
X143449523Y-121761566D01*
X143347000Y-122343000D01*
X135932000Y-122343000D01*
X135932000Y-118090728D01*
X136072036Y-117931888D01*
X136093308Y-117900937D01*
X136116636Y-117871504D01*
X136118995Y-117867608D01*
X136451419Y-117312169D01*
X136471750Y-117266503D01*
X136492568Y-117221033D01*
X136493930Y-117216687D01*
X136684267Y-116597988D01*
X136693112Y-116548825D01*
X136702490Y-116499666D01*
X136702776Y-116495120D01*
X136740038Y-115848879D01*
X136736899Y-115798998D01*
X136734281Y-115749048D01*
X136733475Y-115744565D01*
X136615511Y-115108089D01*
X136600560Y-115060383D01*
X136586108Y-115012515D01*
X136584256Y-115008354D01*
X136317877Y-114418388D01*
X136291974Y-114375617D01*
X136266524Y-114332584D01*
X136263732Y-114328985D01*
X135932000Y-113905911D01*
X135932000Y-109418000D01*
X136832379Y-109418000D01*
X136871984Y-109410122D01*
X136871986Y-109410122D01*
X137114991Y-109361786D01*
X137114992Y-109361786D01*
X137185216Y-109332698D01*
X137262787Y-109300567D01*
X137262788Y-109300566D01*
X137468793Y-109162918D01*
X137468797Y-109162916D01*
X137525356Y-109106356D01*
X137581916Y-109049797D01*
X137581918Y-109049793D01*
X137719566Y-108843788D01*
X137719567Y-108843787D01*
X137751501Y-108766691D01*
X137780786Y-108695992D01*
X137780786Y-108695990D01*
X137829122Y-108452986D01*
X137829122Y-108452984D01*
X137837000Y-108413379D01*
X137837000Y-107513000D01*
X139372379Y-107513000D01*
X139411984Y-107505122D01*
X139411986Y-107505122D01*
X139654991Y-107456786D01*
X139654992Y-107456786D01*
X139716211Y-107431428D01*
X139802787Y-107395567D01*
X139802788Y-107395566D01*
X140008793Y-107257918D01*
X140008797Y-107257916D01*
X140065356Y-107201356D01*
X140121916Y-107144797D01*
X140121918Y-107144793D01*
X140222445Y-106994343D01*
X140565000Y-106994343D01*
X140565000Y-107485657D01*
X140753018Y-107939571D01*
X141100429Y-108286982D01*
X141554343Y-108475000D01*
X142045657Y-108475000D01*
X142499571Y-108286982D01*
X142846982Y-107939571D01*
X143035000Y-107485657D01*
X143035000Y-106994343D01*
X142846982Y-106540429D01*
X142499571Y-106193018D01*
X142045657Y-106005000D01*
X141554343Y-106005000D01*
X141100429Y-106193018D01*
X140753018Y-106540429D01*
X140565000Y-106994343D01*
X140222445Y-106994343D01*
X140259566Y-106938788D01*
X140259567Y-106938787D01*
X140305491Y-106827916D01*
X140320786Y-106790992D01*
X140320786Y-106790990D01*
X140369122Y-106547986D01*
X140369122Y-106547984D01*
X140377000Y-106508379D01*
X140377000Y-103887621D01*
X140369122Y-103848014D01*
X140359572Y-103800000D01*
X140558437Y-103800000D01*
X140558437Y-105600000D01*
X140584437Y-105730711D01*
X140658478Y-105841522D01*
X140769289Y-105915563D01*
X140900000Y-105941563D01*
X142700000Y-105941563D01*
X142830711Y-105915563D01*
X142941522Y-105841522D01*
X143015563Y-105730711D01*
X143041563Y-105600000D01*
X143041563Y-104303799D01*
X144015000Y-104303799D01*
X144015000Y-104596201D01*
X144126897Y-104866344D01*
X144290000Y-105029447D01*
X144290001Y-109644693D01*
X144280989Y-109690000D01*
X144316690Y-109869482D01*
X144316691Y-109869483D01*
X144418360Y-110021641D01*
X144456766Y-110047303D01*
X149710095Y-115300633D01*
X149708756Y-115302637D01*
X149616786Y-115765001D01*
X149708756Y-116227365D01*
X149970664Y-116619338D01*
X150362637Y-116881246D01*
X150708291Y-116950001D01*
X150941711Y-116950001D01*
X151287365Y-116881246D01*
X151679338Y-116619338D01*
X151941246Y-116227365D01*
X152033216Y-115765001D01*
X151941246Y-115302637D01*
X151679338Y-114910664D01*
X151287365Y-114648756D01*
X150941711Y-114580001D01*
X150708291Y-114580001D01*
X150362637Y-114648756D01*
X150360633Y-114650095D01*
X150127102Y-114416564D01*
X151675001Y-114416564D01*
X151805712Y-114390564D01*
X151916523Y-114316523D01*
X151990564Y-114205712D01*
X152016564Y-114075001D01*
X152016564Y-112375001D01*
X151990564Y-112244290D01*
X151916523Y-112133479D01*
X151805712Y-112059438D01*
X151675001Y-112033438D01*
X149975001Y-112033438D01*
X149844290Y-112059438D01*
X149733479Y-112133479D01*
X149659438Y-112244290D01*
X149633438Y-112375001D01*
X149633438Y-113922900D01*
X145210000Y-109499463D01*
X145210000Y-105029447D01*
X145373103Y-104866344D01*
X145485000Y-104596201D01*
X145485000Y-104303799D01*
X145373103Y-104033656D01*
X145166344Y-103826897D01*
X144896201Y-103715000D01*
X144603799Y-103715000D01*
X144333656Y-103826897D01*
X144126897Y-104033656D01*
X144015000Y-104303799D01*
X143041563Y-104303799D01*
X143041563Y-103800000D01*
X143015563Y-103669289D01*
X142941522Y-103558478D01*
X142830711Y-103484437D01*
X142700000Y-103458437D01*
X140900000Y-103458437D01*
X140769289Y-103484437D01*
X140658478Y-103558478D01*
X140584437Y-103669289D01*
X140558437Y-103800000D01*
X140359572Y-103800000D01*
X140320786Y-103605010D01*
X140320786Y-103605008D01*
X140265414Y-103471329D01*
X140259567Y-103457213D01*
X140259565Y-103457211D01*
X140121918Y-103251207D01*
X140121916Y-103251203D01*
X140065356Y-103194644D01*
X140008797Y-103138084D01*
X140008793Y-103138082D01*
X139802788Y-103000434D01*
X139802787Y-103000433D01*
X139686096Y-102952098D01*
X139654992Y-102939214D01*
X139654991Y-102939214D01*
X139411986Y-102890878D01*
X139411984Y-102890878D01*
X139372379Y-102883000D01*
X137744746Y-102883000D01*
X137739841Y-102871159D01*
X137719567Y-102822213D01*
X137719565Y-102822211D01*
X137581918Y-102616207D01*
X137581916Y-102616203D01*
X137525356Y-102559644D01*
X137468797Y-102503084D01*
X137468793Y-102503082D01*
X137262788Y-102365434D01*
X137262787Y-102365433D01*
X137146096Y-102317098D01*
X137114992Y-102304214D01*
X137114991Y-102304214D01*
X136980411Y-102277445D01*
X136959974Y-102263789D01*
X136840379Y-102240000D01*
X135932000Y-102240000D01*
X135932000Y-100118000D01*
X143347000Y-100118000D01*
X143449523Y-100699434D01*
X143744724Y-101210739D01*
X144197000Y-101590243D01*
X144751798Y-101792173D01*
X145342202Y-101792173D01*
X145897000Y-101590243D01*
X146349276Y-101210739D01*
X146644477Y-100699434D01*
X146747000Y-100118000D01*
X146644477Y-99536566D01*
X146349276Y-99025261D01*
X145897000Y-98645757D01*
X145342202Y-98443827D01*
X144751798Y-98443827D01*
X144197000Y-98645757D01*
X143744724Y-99025261D01*
X143449523Y-99536566D01*
X143347000Y-100118000D01*
X135932000Y-100118000D01*
X135932000Y-94438868D01*
X135989807Y-94111027D01*
X136138048Y-93854268D01*
X136365162Y-93663696D01*
X136660973Y-93556030D01*
X136809902Y-93543000D01*
X184648639Y-93543000D01*
X184644437Y-93549289D01*
G36*
X167498447Y-114825762D02*
X167498943Y-114828255D01*
X167628239Y-115021761D01*
X167677084Y-115054398D01*
X170615000Y-117992315D01*
X170615001Y-119292384D01*
X170603540Y-119350000D01*
X170648944Y-119578255D01*
X170681053Y-119626309D01*
X170778240Y-119771761D01*
X170827082Y-119804396D01*
X171871377Y-120848692D01*
X171377202Y-120668827D01*
X170786798Y-120668827D01*
X170232000Y-120870757D01*
X169779724Y-121250261D01*
X169484523Y-121761566D01*
X169382000Y-122343000D01*
X169388070Y-122377427D01*
X167537726Y-120527083D01*
X167537724Y-120527080D01*
X162018979Y-115008335D01*
X163092314Y-113935000D01*
X164645553Y-113935000D01*
X164683656Y-113973103D01*
X164953799Y-114085000D01*
X165246201Y-114085000D01*
X165516344Y-113973103D01*
X165723103Y-113766344D01*
X165835000Y-113496201D01*
X165835000Y-113203799D01*
X165805666Y-113132980D01*
X167498447Y-114825762D01*
X167498447Y-114825762D01*
G37*
X167498447Y-114825762D02*
X167498943Y-114828255D01*
X167628239Y-115021761D01*
X167677084Y-115054398D01*
X170615000Y-117992315D01*
X170615001Y-119292384D01*
X170603540Y-119350000D01*
X170648944Y-119578255D01*
X170681053Y-119626309D01*
X170778240Y-119771761D01*
X170827082Y-119804396D01*
X171871377Y-120848692D01*
X171377202Y-120668827D01*
X170786798Y-120668827D01*
X170232000Y-120870757D01*
X169779724Y-121250261D01*
X169484523Y-121761566D01*
X169382000Y-122343000D01*
X169388070Y-122377427D01*
X167537726Y-120527083D01*
X167537724Y-120527080D01*
X162018979Y-115008335D01*
X163092314Y-113935000D01*
X164645553Y-113935000D01*
X164683656Y-113973103D01*
X164953799Y-114085000D01*
X165246201Y-114085000D01*
X165516344Y-113973103D01*
X165723103Y-113766344D01*
X165835000Y-113496201D01*
X165835000Y-113203799D01*
X165805666Y-113132980D01*
X167498447Y-114825762D01*
G36*
X182453022Y-111254001D02*
X182544992Y-111716365D01*
X182806900Y-112108338D01*
X183198873Y-112370246D01*
X183544527Y-112439001D01*
X183777947Y-112439001D01*
X184123601Y-112370246D01*
X184515574Y-112108338D01*
X184726238Y-111793058D01*
X184726238Y-113254944D01*
X184515574Y-112939664D01*
X184123601Y-112677756D01*
X183777947Y-112609001D01*
X183544527Y-112609001D01*
X183198873Y-112677756D01*
X182806900Y-112939664D01*
X182544992Y-113331637D01*
X182453022Y-113794001D01*
X182544992Y-114256365D01*
X182581734Y-114311354D01*
X181484777Y-115408312D01*
X178775096Y-115408312D01*
X178767291Y-115389468D01*
X178560532Y-115182709D01*
X178290389Y-115070812D01*
X177997987Y-115070812D01*
X177727844Y-115182709D01*
X177521085Y-115389468D01*
X177409188Y-115659611D01*
X177409188Y-115952013D01*
X177521085Y-116222156D01*
X177727844Y-116428915D01*
X177905494Y-116502500D01*
X177030908Y-116502500D01*
X177023103Y-116483656D01*
X176816344Y-116276897D01*
X176546201Y-116165000D01*
X176253799Y-116165000D01*
X175983656Y-116276897D01*
X175776897Y-116483656D01*
X175665000Y-116753799D01*
X175665000Y-117046201D01*
X175776897Y-117316344D01*
X175983656Y-117523103D01*
X176253799Y-117635000D01*
X176546201Y-117635000D01*
X176816344Y-117523103D01*
X177023103Y-117316344D01*
X177030908Y-117297500D01*
X177090351Y-117297500D01*
X175984239Y-118403612D01*
X175880711Y-118334437D01*
X175750000Y-118308437D01*
X174750000Y-118308437D01*
X174619289Y-118334437D01*
X174564837Y-118370820D01*
X174564837Y-114598245D01*
X174583681Y-114590440D01*
X174790440Y-114383681D01*
X174902337Y-114113538D01*
X174902337Y-113821136D01*
X174790440Y-113550993D01*
X174724447Y-113485000D01*
X174946201Y-113485000D01*
X175216344Y-113373103D01*
X175423103Y-113166344D01*
X175527348Y-112914673D01*
X175543002Y-112917787D01*
X175582146Y-112910001D01*
X178598355Y-112910001D01*
X178637499Y-112917787D01*
X178676643Y-112910001D01*
X178676647Y-112910001D01*
X178792596Y-112886937D01*
X178924080Y-112799082D01*
X178946257Y-112765892D01*
X180264649Y-111447500D01*
X181910856Y-111447500D01*
X181950000Y-111455286D01*
X181989144Y-111447500D01*
X181989148Y-111447500D01*
X182105097Y-111424436D01*
X182236581Y-111336581D01*
X182258758Y-111303391D01*
X182488995Y-111073155D01*
X182453022Y-111254001D01*
X182453022Y-111254001D01*
G37*
X182453022Y-111254001D02*
X182544992Y-111716365D01*
X182806900Y-112108338D01*
X183198873Y-112370246D01*
X183544527Y-112439001D01*
X183777947Y-112439001D01*
X184123601Y-112370246D01*
X184515574Y-112108338D01*
X184726238Y-111793058D01*
X184726238Y-113254944D01*
X184515574Y-112939664D01*
X184123601Y-112677756D01*
X183777947Y-112609001D01*
X183544527Y-112609001D01*
X183198873Y-112677756D01*
X182806900Y-112939664D01*
X182544992Y-113331637D01*
X182453022Y-113794001D01*
X182544992Y-114256365D01*
X182581734Y-114311354D01*
X181484777Y-115408312D01*
X178775096Y-115408312D01*
X178767291Y-115389468D01*
X178560532Y-115182709D01*
X178290389Y-115070812D01*
X177997987Y-115070812D01*
X177727844Y-115182709D01*
X177521085Y-115389468D01*
X177409188Y-115659611D01*
X177409188Y-115952013D01*
X177521085Y-116222156D01*
X177727844Y-116428915D01*
X177905494Y-116502500D01*
X177030908Y-116502500D01*
X177023103Y-116483656D01*
X176816344Y-116276897D01*
X176546201Y-116165000D01*
X176253799Y-116165000D01*
X175983656Y-116276897D01*
X175776897Y-116483656D01*
X175665000Y-116753799D01*
X175665000Y-117046201D01*
X175776897Y-117316344D01*
X175983656Y-117523103D01*
X176253799Y-117635000D01*
X176546201Y-117635000D01*
X176816344Y-117523103D01*
X177023103Y-117316344D01*
X177030908Y-117297500D01*
X177090351Y-117297500D01*
X175984239Y-118403612D01*
X175880711Y-118334437D01*
X175750000Y-118308437D01*
X174750000Y-118308437D01*
X174619289Y-118334437D01*
X174564837Y-118370820D01*
X174564837Y-114598245D01*
X174583681Y-114590440D01*
X174790440Y-114383681D01*
X174902337Y-114113538D01*
X174902337Y-113821136D01*
X174790440Y-113550993D01*
X174724447Y-113485000D01*
X174946201Y-113485000D01*
X175216344Y-113373103D01*
X175423103Y-113166344D01*
X175527348Y-112914673D01*
X175543002Y-112917787D01*
X175582146Y-112910001D01*
X178598355Y-112910001D01*
X178637499Y-112917787D01*
X178676643Y-112910001D01*
X178676647Y-112910001D01*
X178792596Y-112886937D01*
X178924080Y-112799082D01*
X178946257Y-112765892D01*
X180264649Y-111447500D01*
X181910856Y-111447500D01*
X181950000Y-111455286D01*
X181989144Y-111447500D01*
X181989148Y-111447500D01*
X182105097Y-111424436D01*
X182236581Y-111336581D01*
X182258758Y-111303391D01*
X182488995Y-111073155D01*
X182453022Y-111254001D01*
G36*
X184726238Y-110714944D02*
X184515574Y-110399664D01*
X184123601Y-110137756D01*
X183777947Y-110069001D01*
X183544527Y-110069001D01*
X183452978Y-110087211D01*
X183474436Y-110055097D01*
X183497500Y-109939148D01*
X183497500Y-109939147D01*
X183505287Y-109900000D01*
X183497500Y-109860853D01*
X183497500Y-109611680D01*
X183553799Y-109635000D01*
X183846201Y-109635000D01*
X184116344Y-109523103D01*
X184323103Y-109316344D01*
X184435000Y-109046201D01*
X184435000Y-108753799D01*
X184323103Y-108483656D01*
X184116344Y-108276897D01*
X184097500Y-108269092D01*
X184097500Y-106952074D01*
X184136937Y-106893052D01*
X184160001Y-106777103D01*
X184160001Y-106777098D01*
X184167787Y-106737955D01*
X184160001Y-106698811D01*
X184160001Y-105782146D01*
X184167787Y-105743002D01*
X184164673Y-105727348D01*
X184416344Y-105623103D01*
X184623103Y-105416344D01*
X184726238Y-105167355D01*
X184726238Y-110714944D01*
X184726238Y-110714944D01*
G37*
X184726238Y-110714944D02*
X184515574Y-110399664D01*
X184123601Y-110137756D01*
X183777947Y-110069001D01*
X183544527Y-110069001D01*
X183452978Y-110087211D01*
X183474436Y-110055097D01*
X183497500Y-109939148D01*
X183497500Y-109939147D01*
X183505287Y-109900000D01*
X183497500Y-109860853D01*
X183497500Y-109611680D01*
X183553799Y-109635000D01*
X183846201Y-109635000D01*
X184116344Y-109523103D01*
X184323103Y-109316344D01*
X184435000Y-109046201D01*
X184435000Y-108753799D01*
X184323103Y-108483656D01*
X184116344Y-108276897D01*
X184097500Y-108269092D01*
X184097500Y-106952074D01*
X184136937Y-106893052D01*
X184160001Y-106777103D01*
X184160001Y-106777098D01*
X184167787Y-106737955D01*
X184160001Y-106698811D01*
X184160001Y-105782146D01*
X184167787Y-105743002D01*
X184164673Y-105727348D01*
X184416344Y-105623103D01*
X184623103Y-105416344D01*
X184726238Y-105167355D01*
X184726238Y-110714944D01*
G36*
X189405000Y-93553691D02*
X189405000Y-94894250D01*
X189563750Y-95053000D01*
X190413000Y-95053000D01*
X190413000Y-95033000D01*
X190667000Y-95033000D01*
X190667000Y-95053000D01*
X191516250Y-95053000D01*
X191675000Y-94894250D01*
X191675000Y-93553691D01*
X191670572Y-93543000D01*
X198079000Y-93543000D01*
X198079001Y-98170152D01*
X198070478Y-98213000D01*
X198104239Y-98382729D01*
X198200383Y-98526617D01*
X198344271Y-98622761D01*
X198471157Y-98648000D01*
X198514000Y-98656522D01*
X198556843Y-98648000D01*
X216505157Y-98648000D01*
X216548000Y-98656522D01*
X216590843Y-98648000D01*
X216602120Y-98645757D01*
X216717729Y-98622761D01*
X216861617Y-98526617D01*
X216957761Y-98382729D01*
X216983000Y-98255843D01*
X216991522Y-98213000D01*
X216983000Y-98170157D01*
X216983000Y-93543000D01*
X219306132Y-93543000D01*
X219633973Y-93600807D01*
X219890732Y-93749048D01*
X220081304Y-93976162D01*
X220188970Y-94271973D01*
X220202001Y-94420913D01*
X220202000Y-102248000D01*
X219301621Y-102248000D01*
X219262016Y-102255878D01*
X219262014Y-102255878D01*
X219019010Y-102304214D01*
X219019008Y-102304214D01*
X218932432Y-102340076D01*
X218871213Y-102365433D01*
X218871212Y-102365434D01*
X218665207Y-102503082D01*
X218665203Y-102503084D01*
X218608644Y-102559644D01*
X218552084Y-102616203D01*
X218552082Y-102616207D01*
X218414435Y-102822211D01*
X218414433Y-102822213D01*
X218394159Y-102871159D01*
X218389254Y-102883000D01*
X216761621Y-102883000D01*
X216722016Y-102890878D01*
X216722014Y-102890878D01*
X216479010Y-102939214D01*
X216479008Y-102939214D01*
X216404661Y-102970010D01*
X216331213Y-103000433D01*
X216331212Y-103000434D01*
X216125207Y-103138082D01*
X216125203Y-103138084D01*
X216068644Y-103194644D01*
X216012084Y-103251203D01*
X216012082Y-103251207D01*
X215874435Y-103457211D01*
X215874433Y-103457213D01*
X215839401Y-103541789D01*
X215818784Y-103591563D01*
X215813214Y-103605009D01*
X215764878Y-103848014D01*
X215764878Y-103848017D01*
X215759850Y-103873297D01*
X215499571Y-103613018D01*
X215045657Y-103425000D01*
X214554343Y-103425000D01*
X214100429Y-103613018D01*
X213753018Y-103960429D01*
X213565000Y-104414343D01*
X213565000Y-104905657D01*
X213753018Y-105359571D01*
X214100429Y-105706982D01*
X214554343Y-105895000D01*
X215045657Y-105895000D01*
X215499571Y-105706982D01*
X215757001Y-105449552D01*
X215757001Y-105969775D01*
X215700000Y-105958437D01*
X213900000Y-105958437D01*
X213769289Y-105984437D01*
X213658478Y-106058478D01*
X213584437Y-106169289D01*
X213558437Y-106300000D01*
X213558437Y-106457898D01*
X212046247Y-104945710D01*
X212046247Y-102431543D01*
X212055257Y-102386246D01*
X212046247Y-102340949D01*
X212046247Y-102340945D01*
X212019557Y-102206764D01*
X211950758Y-102103799D01*
X211943549Y-102093010D01*
X211943548Y-102093009D01*
X211917888Y-102054606D01*
X211879484Y-102028945D01*
X211735000Y-101884462D01*
X211735000Y-101653799D01*
X211624232Y-101386382D01*
X211741243Y-101503393D01*
X211763419Y-101536581D01*
X211894903Y-101624436D01*
X212010852Y-101647500D01*
X212010855Y-101647500D01*
X212049999Y-101655286D01*
X212089143Y-101647500D01*
X214185351Y-101647500D01*
X214472805Y-101934955D01*
X214465000Y-101953799D01*
X214465000Y-102246201D01*
X214576897Y-102516344D01*
X214783656Y-102723103D01*
X215053799Y-102835000D01*
X215346201Y-102835000D01*
X215616344Y-102723103D01*
X215823103Y-102516344D01*
X215935000Y-102246201D01*
X215935000Y-101953799D01*
X215823103Y-101683656D01*
X215616344Y-101476897D01*
X215346201Y-101365000D01*
X215053799Y-101365000D01*
X215034955Y-101372805D01*
X214658758Y-100996609D01*
X214636581Y-100963419D01*
X214505097Y-100875564D01*
X214389148Y-100852500D01*
X214389144Y-100852500D01*
X214350000Y-100844714D01*
X214310856Y-100852500D01*
X212214650Y-100852500D01*
X211808758Y-100446608D01*
X211786581Y-100413419D01*
X211655097Y-100325564D01*
X211539148Y-100302500D01*
X211539144Y-100302500D01*
X211500000Y-100294714D01*
X211460856Y-100302500D01*
X206964650Y-100302500D01*
X206708757Y-100046608D01*
X206686581Y-100013419D01*
X206555097Y-99925564D01*
X206439148Y-99902500D01*
X206439144Y-99902500D01*
X206400000Y-99894714D01*
X206360856Y-99902500D01*
X199364650Y-99902500D01*
X197008758Y-97546609D01*
X196986581Y-97513419D01*
X196855097Y-97425564D01*
X196739148Y-97402500D01*
X196739144Y-97402500D01*
X196700000Y-97394714D01*
X196660856Y-97402500D01*
X192785000Y-97402500D01*
X192785000Y-97203799D01*
X192673103Y-96933656D01*
X192466344Y-96726897D01*
X192196201Y-96615000D01*
X191903799Y-96615000D01*
X191675000Y-96709772D01*
X191675000Y-95465750D01*
X191516250Y-95307000D01*
X190667000Y-95307000D01*
X190667000Y-95327000D01*
X190413000Y-95327000D01*
X190413000Y-95307000D01*
X189563750Y-95307000D01*
X189405000Y-95465750D01*
X189405000Y-96806309D01*
X189439666Y-96890000D01*
X188762584Y-96890000D01*
X188815563Y-96810711D01*
X188841563Y-96680000D01*
X188841563Y-93680000D01*
X188815563Y-93549289D01*
X188811361Y-93543000D01*
X189409428Y-93543000D01*
X189405000Y-93553691D01*
X189405000Y-93553691D01*
G37*
X189405000Y-93553691D02*
X189405000Y-94894250D01*
X189563750Y-95053000D01*
X190413000Y-95053000D01*
X190413000Y-95033000D01*
X190667000Y-95033000D01*
X190667000Y-95053000D01*
X191516250Y-95053000D01*
X191675000Y-94894250D01*
X191675000Y-93553691D01*
X191670572Y-93543000D01*
X198079000Y-93543000D01*
X198079001Y-98170152D01*
X198070478Y-98213000D01*
X198104239Y-98382729D01*
X198200383Y-98526617D01*
X198344271Y-98622761D01*
X198471157Y-98648000D01*
X198514000Y-98656522D01*
X198556843Y-98648000D01*
X216505157Y-98648000D01*
X216548000Y-98656522D01*
X216590843Y-98648000D01*
X216602120Y-98645757D01*
X216717729Y-98622761D01*
X216861617Y-98526617D01*
X216957761Y-98382729D01*
X216983000Y-98255843D01*
X216991522Y-98213000D01*
X216983000Y-98170157D01*
X216983000Y-93543000D01*
X219306132Y-93543000D01*
X219633973Y-93600807D01*
X219890732Y-93749048D01*
X220081304Y-93976162D01*
X220188970Y-94271973D01*
X220202001Y-94420913D01*
X220202000Y-102248000D01*
X219301621Y-102248000D01*
X219262016Y-102255878D01*
X219262014Y-102255878D01*
X219019010Y-102304214D01*
X219019008Y-102304214D01*
X218932432Y-102340076D01*
X218871213Y-102365433D01*
X218871212Y-102365434D01*
X218665207Y-102503082D01*
X218665203Y-102503084D01*
X218608644Y-102559644D01*
X218552084Y-102616203D01*
X218552082Y-102616207D01*
X218414435Y-102822211D01*
X218414433Y-102822213D01*
X218394159Y-102871159D01*
X218389254Y-102883000D01*
X216761621Y-102883000D01*
X216722016Y-102890878D01*
X216722014Y-102890878D01*
X216479010Y-102939214D01*
X216479008Y-102939214D01*
X216404661Y-102970010D01*
X216331213Y-103000433D01*
X216331212Y-103000434D01*
X216125207Y-103138082D01*
X216125203Y-103138084D01*
X216068644Y-103194644D01*
X216012084Y-103251203D01*
X216012082Y-103251207D01*
X215874435Y-103457211D01*
X215874433Y-103457213D01*
X215839401Y-103541789D01*
X215818784Y-103591563D01*
X215813214Y-103605009D01*
X215764878Y-103848014D01*
X215764878Y-103848017D01*
X215759850Y-103873297D01*
X215499571Y-103613018D01*
X215045657Y-103425000D01*
X214554343Y-103425000D01*
X214100429Y-103613018D01*
X213753018Y-103960429D01*
X213565000Y-104414343D01*
X213565000Y-104905657D01*
X213753018Y-105359571D01*
X214100429Y-105706982D01*
X214554343Y-105895000D01*
X215045657Y-105895000D01*
X215499571Y-105706982D01*
X215757001Y-105449552D01*
X215757001Y-105969775D01*
X215700000Y-105958437D01*
X213900000Y-105958437D01*
X213769289Y-105984437D01*
X213658478Y-106058478D01*
X213584437Y-106169289D01*
X213558437Y-106300000D01*
X213558437Y-106457898D01*
X212046247Y-104945710D01*
X212046247Y-102431543D01*
X212055257Y-102386246D01*
X212046247Y-102340949D01*
X212046247Y-102340945D01*
X212019557Y-102206764D01*
X211950758Y-102103799D01*
X211943549Y-102093010D01*
X211943548Y-102093009D01*
X211917888Y-102054606D01*
X211879484Y-102028945D01*
X211735000Y-101884462D01*
X211735000Y-101653799D01*
X211624232Y-101386382D01*
X211741243Y-101503393D01*
X211763419Y-101536581D01*
X211894903Y-101624436D01*
X212010852Y-101647500D01*
X212010855Y-101647500D01*
X212049999Y-101655286D01*
X212089143Y-101647500D01*
X214185351Y-101647500D01*
X214472805Y-101934955D01*
X214465000Y-101953799D01*
X214465000Y-102246201D01*
X214576897Y-102516344D01*
X214783656Y-102723103D01*
X215053799Y-102835000D01*
X215346201Y-102835000D01*
X215616344Y-102723103D01*
X215823103Y-102516344D01*
X215935000Y-102246201D01*
X215935000Y-101953799D01*
X215823103Y-101683656D01*
X215616344Y-101476897D01*
X215346201Y-101365000D01*
X215053799Y-101365000D01*
X215034955Y-101372805D01*
X214658758Y-100996609D01*
X214636581Y-100963419D01*
X214505097Y-100875564D01*
X214389148Y-100852500D01*
X214389144Y-100852500D01*
X214350000Y-100844714D01*
X214310856Y-100852500D01*
X212214650Y-100852500D01*
X211808758Y-100446608D01*
X211786581Y-100413419D01*
X211655097Y-100325564D01*
X211539148Y-100302500D01*
X211539144Y-100302500D01*
X211500000Y-100294714D01*
X211460856Y-100302500D01*
X206964650Y-100302500D01*
X206708757Y-100046608D01*
X206686581Y-100013419D01*
X206555097Y-99925564D01*
X206439148Y-99902500D01*
X206439144Y-99902500D01*
X206400000Y-99894714D01*
X206360856Y-99902500D01*
X199364650Y-99902500D01*
X197008758Y-97546609D01*
X196986581Y-97513419D01*
X196855097Y-97425564D01*
X196739148Y-97402500D01*
X196739144Y-97402500D01*
X196700000Y-97394714D01*
X196660856Y-97402500D01*
X192785000Y-97402500D01*
X192785000Y-97203799D01*
X192673103Y-96933656D01*
X192466344Y-96726897D01*
X192196201Y-96615000D01*
X191903799Y-96615000D01*
X191675000Y-96709772D01*
X191675000Y-95465750D01*
X191516250Y-95307000D01*
X190667000Y-95307000D01*
X190667000Y-95327000D01*
X190413000Y-95327000D01*
X190413000Y-95307000D01*
X189563750Y-95307000D01*
X189405000Y-95465750D01*
X189405000Y-96806309D01*
X189439666Y-96890000D01*
X188762584Y-96890000D01*
X188815563Y-96810711D01*
X188841563Y-96680000D01*
X188841563Y-93680000D01*
X188815563Y-93549289D01*
X188811361Y-93543000D01*
X189409428Y-93543000D01*
X189405000Y-93553691D01*
G36*
X188785000Y-98053799D02*
X188785000Y-98346201D01*
X188896897Y-98616344D01*
X189103656Y-98823103D01*
X189373799Y-98935000D01*
X189604463Y-98935000D01*
X189698437Y-99028974D01*
X189698437Y-101720000D01*
X189724437Y-101850711D01*
X189798478Y-101961522D01*
X189909289Y-102035563D01*
X190040000Y-102061563D01*
X191040000Y-102061563D01*
X191170711Y-102035563D01*
X191281522Y-101961522D01*
X191355563Y-101850711D01*
X191381563Y-101720000D01*
X191381563Y-100553366D01*
X191451581Y-100506581D01*
X191473758Y-100473392D01*
X191829150Y-100118000D01*
X192242000Y-100118000D01*
X192344523Y-100699434D01*
X192639724Y-101210739D01*
X193092000Y-101590243D01*
X193646798Y-101792173D01*
X194237202Y-101792173D01*
X194792000Y-101590243D01*
X195244276Y-101210739D01*
X195539477Y-100699434D01*
X195642000Y-100118000D01*
X195539477Y-99536566D01*
X195244276Y-99025261D01*
X194792000Y-98645757D01*
X194237202Y-98443827D01*
X193646798Y-98443827D01*
X193092000Y-98645757D01*
X192639724Y-99025261D01*
X192344523Y-99536566D01*
X192242000Y-100118000D01*
X191829150Y-100118000D01*
X191953395Y-99993755D01*
X191986581Y-99971581D01*
X192074436Y-99840097D01*
X192097500Y-99724148D01*
X192097500Y-99724145D01*
X192105286Y-99685001D01*
X192097500Y-99645857D01*
X192097500Y-98845151D01*
X192745152Y-98197500D01*
X196535351Y-98197500D01*
X198891243Y-100553393D01*
X198913419Y-100586581D01*
X199044903Y-100674436D01*
X199160852Y-100697500D01*
X199160856Y-100697500D01*
X199200000Y-100705286D01*
X199239144Y-100697500D01*
X206235351Y-100697500D01*
X206491243Y-100953393D01*
X206513419Y-100986581D01*
X206644903Y-101074436D01*
X206760852Y-101097500D01*
X206760855Y-101097500D01*
X206799999Y-101105286D01*
X206839143Y-101097500D01*
X210775337Y-101097500D01*
X210583656Y-101176897D01*
X210376897Y-101383656D01*
X210265000Y-101653799D01*
X210265000Y-101946201D01*
X210376897Y-102216344D01*
X210583656Y-102423103D01*
X210718606Y-102479001D01*
X185645721Y-102479001D01*
X185744721Y-102380001D01*
X186130857Y-102380001D01*
X186170001Y-102387787D01*
X186209145Y-102380001D01*
X186209149Y-102380001D01*
X186325098Y-102356937D01*
X186456582Y-102269082D01*
X186478759Y-102235892D01*
X187158437Y-101556215D01*
X187158437Y-101720000D01*
X187184437Y-101850711D01*
X187258478Y-101961522D01*
X187369289Y-102035563D01*
X187500000Y-102061563D01*
X188500000Y-102061563D01*
X188630711Y-102035563D01*
X188741522Y-101961522D01*
X188815563Y-101850711D01*
X188841563Y-101720000D01*
X188841563Y-98720000D01*
X188815563Y-98589289D01*
X188741522Y-98478478D01*
X188630711Y-98404437D01*
X188500000Y-98378437D01*
X188460000Y-98378437D01*
X188460000Y-98090538D01*
X188740538Y-97810000D01*
X188885985Y-97810000D01*
X188785000Y-98053799D01*
X188785000Y-98053799D01*
G37*
X188785000Y-98053799D02*
X188785000Y-98346201D01*
X188896897Y-98616344D01*
X189103656Y-98823103D01*
X189373799Y-98935000D01*
X189604463Y-98935000D01*
X189698437Y-99028974D01*
X189698437Y-101720000D01*
X189724437Y-101850711D01*
X189798478Y-101961522D01*
X189909289Y-102035563D01*
X190040000Y-102061563D01*
X191040000Y-102061563D01*
X191170711Y-102035563D01*
X191281522Y-101961522D01*
X191355563Y-101850711D01*
X191381563Y-101720000D01*
X191381563Y-100553366D01*
X191451581Y-100506581D01*
X191473758Y-100473392D01*
X191829150Y-100118000D01*
X192242000Y-100118000D01*
X192344523Y-100699434D01*
X192639724Y-101210739D01*
X193092000Y-101590243D01*
X193646798Y-101792173D01*
X194237202Y-101792173D01*
X194792000Y-101590243D01*
X195244276Y-101210739D01*
X195539477Y-100699434D01*
X195642000Y-100118000D01*
X195539477Y-99536566D01*
X195244276Y-99025261D01*
X194792000Y-98645757D01*
X194237202Y-98443827D01*
X193646798Y-98443827D01*
X193092000Y-98645757D01*
X192639724Y-99025261D01*
X192344523Y-99536566D01*
X192242000Y-100118000D01*
X191829150Y-100118000D01*
X191953395Y-99993755D01*
X191986581Y-99971581D01*
X192074436Y-99840097D01*
X192097500Y-99724148D01*
X192097500Y-99724145D01*
X192105286Y-99685001D01*
X192097500Y-99645857D01*
X192097500Y-98845151D01*
X192745152Y-98197500D01*
X196535351Y-98197500D01*
X198891243Y-100553393D01*
X198913419Y-100586581D01*
X199044903Y-100674436D01*
X199160852Y-100697500D01*
X199160856Y-100697500D01*
X199200000Y-100705286D01*
X199239144Y-100697500D01*
X206235351Y-100697500D01*
X206491243Y-100953393D01*
X206513419Y-100986581D01*
X206644903Y-101074436D01*
X206760852Y-101097500D01*
X206760855Y-101097500D01*
X206799999Y-101105286D01*
X206839143Y-101097500D01*
X210775337Y-101097500D01*
X210583656Y-101176897D01*
X210376897Y-101383656D01*
X210265000Y-101653799D01*
X210265000Y-101946201D01*
X210376897Y-102216344D01*
X210583656Y-102423103D01*
X210718606Y-102479001D01*
X185645721Y-102479001D01*
X185744721Y-102380001D01*
X186130857Y-102380001D01*
X186170001Y-102387787D01*
X186209145Y-102380001D01*
X186209149Y-102380001D01*
X186325098Y-102356937D01*
X186456582Y-102269082D01*
X186478759Y-102235892D01*
X187158437Y-101556215D01*
X187158437Y-101720000D01*
X187184437Y-101850711D01*
X187258478Y-101961522D01*
X187369289Y-102035563D01*
X187500000Y-102061563D01*
X188500000Y-102061563D01*
X188630711Y-102035563D01*
X188741522Y-101961522D01*
X188815563Y-101850711D01*
X188841563Y-101720000D01*
X188841563Y-98720000D01*
X188815563Y-98589289D01*
X188741522Y-98478478D01*
X188630711Y-98404437D01*
X188500000Y-98378437D01*
X188460000Y-98378437D01*
X188460000Y-98090538D01*
X188740538Y-97810000D01*
X188885985Y-97810000D01*
X188785000Y-98053799D01*
G04 #@! TD*
M02*
