G04 #@! TF.GenerationSoftware,KiCad,Pcbnew,(5.0.1-3-g963ef8bb5)*
G04 #@! TF.CreationDate,2020-05-04T17:29:04+02:00*
G04 #@! TF.ProjectId,trackix,747261636B69782E6B696361645F7063,rev?*
G04 #@! TF.SameCoordinates,Original*
G04 #@! TF.FileFunction,Other,User*
%FSLAX46Y46*%
G04 Gerber Fmt 4.6, Leading zero omitted, Abs format (unit mm)*
G04 Created by KiCad (PCBNEW (5.0.1-3-g963ef8bb5)) date 2020 May 04, Monday 17:29:04*
%MOMM*%
%LPD*%
G01*
G04 APERTURE LIST*
%ADD10C,0.050000*%
G04 APERTURE END LIST*
D10*
G04 #@! TO.C,U1*
X113500000Y-65745332D02*
X120995332Y-58250000D01*
X106004668Y-58250000D02*
X113500000Y-50754668D01*
X113500000Y-50754668D02*
X120995332Y-58250000D01*
X106004668Y-58250000D02*
X113500000Y-65745332D01*
G04 #@! TO.C,D4*
X69250000Y-51500000D02*
X69250000Y-45050000D01*
X57800000Y-51500000D02*
X69250000Y-51500000D01*
X57800000Y-45050000D02*
X57800000Y-51500000D01*
X69250000Y-45050000D02*
X57800000Y-45050000D01*
G04 #@! TO.C,D5*
X139750000Y-51450000D02*
X151200000Y-51450000D01*
X151200000Y-51450000D02*
X151200000Y-45000000D01*
X151200000Y-45000000D02*
X139750000Y-45000000D01*
X139750000Y-45000000D02*
X139750000Y-51450000D01*
G04 #@! TO.C,D6*
X107500000Y-39846001D02*
X101050000Y-39846001D01*
X107500000Y-46346001D02*
X107500000Y-39846001D01*
X101050000Y-46346001D02*
X107500000Y-46346001D01*
X101050000Y-39846001D02*
X101050000Y-46346001D01*
G04 #@! TO.C,J3*
X64750000Y-41500000D02*
X69750000Y-41500000D01*
X69750000Y-41500000D02*
X69750000Y-36500000D01*
X69750000Y-36500000D02*
X64750000Y-36500000D01*
X64750000Y-36500000D02*
X64750000Y-41500000D01*
G04 #@! TO.C,U5*
X91950000Y-35750000D02*
X91950000Y-52250000D01*
X91950000Y-35750000D02*
X73050000Y-35750000D01*
X73050000Y-52250000D02*
X73050000Y-35750000D01*
X91950000Y-52250000D02*
X73050000Y-52250000D01*
G04 #@! TO.C,H1*
X73650000Y-76500000D02*
G75*
G03X73650000Y-76500000I-2150000J0D01*
G01*
G04 #@! TO.C,H2*
X79400000Y-76500000D02*
G75*
G03X79400000Y-76500000I-2150000J0D01*
G01*
G04 #@! TO.C,BZ1*
X144750000Y-61000000D02*
X144750000Y-63800000D01*
X144750000Y-63800000D02*
X145250000Y-63800000D01*
X145250000Y-63800000D02*
X145250000Y-67700000D01*
X144750000Y-67700000D02*
X145250000Y-67700000D01*
X144750000Y-67700000D02*
X144750000Y-70500000D01*
X135250000Y-67700000D02*
X134750000Y-67700000D01*
X135250000Y-67700000D02*
X135250000Y-70500000D01*
X135250000Y-61000000D02*
X135250000Y-63800000D01*
X144750000Y-70500000D02*
X135250000Y-70500000D01*
X135250000Y-61000000D02*
X144750000Y-61000000D01*
X135250000Y-63800000D02*
X134750000Y-63800000D01*
X134750000Y-63800000D02*
X134750000Y-67700000D01*
G04 #@! TO.C,C1*
X84000000Y-61370000D02*
X80500000Y-61370000D01*
X84000000Y-61370000D02*
X84000000Y-59620000D01*
X80500000Y-59620000D02*
X80500000Y-61370000D01*
X80500000Y-59620000D02*
X84000000Y-59620000D01*
G04 #@! TO.C,C2*
X67250000Y-57550000D02*
X62750000Y-57550000D01*
X67250000Y-57550000D02*
X67250000Y-55450000D01*
X62750000Y-55450000D02*
X62750000Y-57550000D01*
X62750000Y-55450000D02*
X67250000Y-55450000D01*
G04 #@! TO.C,C3*
X69850000Y-58650000D02*
X69850000Y-55850000D01*
X69850000Y-58650000D02*
X71150000Y-58650000D01*
X71150000Y-55850000D02*
X69850000Y-55850000D01*
X71150000Y-55850000D02*
X71150000Y-58650000D01*
G04 #@! TO.C,C4*
X119700000Y-51750000D02*
X119700000Y-47250000D01*
X119700000Y-51750000D02*
X121800000Y-51750000D01*
X121800000Y-47250000D02*
X119700000Y-47250000D01*
X121800000Y-47250000D02*
X121800000Y-51750000D01*
G04 #@! TO.C,C5*
X117850000Y-50400000D02*
X117850000Y-47600000D01*
X117850000Y-50400000D02*
X119150000Y-50400000D01*
X119150000Y-47600000D02*
X117850000Y-47600000D01*
X119150000Y-47600000D02*
X119150000Y-50400000D01*
G04 #@! TO.C,C6*
X127250000Y-43800000D02*
X122750000Y-43800000D01*
X127250000Y-43800000D02*
X127250000Y-41700000D01*
X122750000Y-41700000D02*
X122750000Y-43800000D01*
X122750000Y-41700000D02*
X127250000Y-41700000D01*
G04 #@! TO.C,C7*
X123150000Y-38100000D02*
X123150000Y-40900000D01*
X123150000Y-38100000D02*
X121850000Y-38100000D01*
X121850000Y-40900000D02*
X123150000Y-40900000D01*
X121850000Y-40900000D02*
X121850000Y-38100000D01*
G04 #@! TO.C,C8*
X117219670Y-51800431D02*
X119199569Y-53780330D01*
X117219670Y-51800431D02*
X116300431Y-52719670D01*
X118280330Y-54699569D02*
X119199569Y-53780330D01*
X118280330Y-54699569D02*
X116300431Y-52719670D01*
G04 #@! TO.C,C9*
X86500000Y-60450000D02*
X91000000Y-60450000D01*
X86500000Y-60450000D02*
X86500000Y-62550000D01*
X91000000Y-62550000D02*
X91000000Y-60450000D01*
X91000000Y-62550000D02*
X86500000Y-62550000D01*
G04 #@! TO.C,C10*
X106535355Y-69101040D02*
X105121142Y-67686827D01*
X106535355Y-69101040D02*
X107101040Y-68535355D01*
X105686827Y-67121142D02*
X105121142Y-67686827D01*
X105686827Y-67121142D02*
X107101040Y-68535355D01*
G04 #@! TO.C,C11*
X104535355Y-67101040D02*
X103121142Y-65686827D01*
X104535355Y-67101040D02*
X105101040Y-66535355D01*
X103686827Y-65121142D02*
X103121142Y-65686827D01*
X103686827Y-65121142D02*
X105101040Y-66535355D01*
G04 #@! TO.C,C12*
X91950000Y-67000000D02*
X91950000Y-62500000D01*
X91950000Y-67000000D02*
X94050000Y-67000000D01*
X94050000Y-62500000D02*
X91950000Y-62500000D01*
X94050000Y-62500000D02*
X94050000Y-67000000D01*
G04 #@! TO.C,C13*
X62600000Y-57850000D02*
X65400000Y-57850000D01*
X62600000Y-57850000D02*
X62600000Y-59150000D01*
X65400000Y-59150000D02*
X65400000Y-57850000D01*
X65400000Y-59150000D02*
X62600000Y-59150000D01*
G04 #@! TO.C,C14*
X65400000Y-60650000D02*
X62600000Y-60650000D01*
X65400000Y-60650000D02*
X65400000Y-59350000D01*
X62600000Y-59350000D02*
X62600000Y-60650000D01*
X62600000Y-59350000D02*
X65400000Y-59350000D01*
G04 #@! TO.C,C15*
X79750000Y-61550000D02*
X75250000Y-61550000D01*
X79750000Y-61550000D02*
X79750000Y-59450000D01*
X75250000Y-59450000D02*
X75250000Y-61550000D01*
X75250000Y-59450000D02*
X79750000Y-59450000D01*
G04 #@! TO.C,C16*
X95650000Y-64100000D02*
X95650000Y-66900000D01*
X95650000Y-64100000D02*
X94350000Y-64100000D01*
X94350000Y-66900000D02*
X95650000Y-66900000D01*
X94350000Y-66900000D02*
X94350000Y-64100000D01*
G04 #@! TO.C,C17*
X113100000Y-40850000D02*
X115900000Y-40850000D01*
X113100000Y-40850000D02*
X113100000Y-42150000D01*
X115900000Y-42150000D02*
X115900000Y-40850000D01*
X115900000Y-42150000D02*
X113100000Y-42150000D01*
G04 #@! TO.C,D1*
X118700000Y-43900000D02*
X118700000Y-45600000D01*
X118700000Y-45600000D02*
X114800000Y-45600000D01*
X114800000Y-45600000D02*
X114800000Y-43900000D01*
X114800000Y-43900000D02*
X118700000Y-43900000D01*
G04 #@! TO.C,D2*
X117700000Y-69350000D02*
X113800000Y-69350000D01*
X117700000Y-67650000D02*
X117700000Y-69350000D01*
X113800000Y-67650000D02*
X117700000Y-67650000D01*
X113800000Y-69350000D02*
X113800000Y-67650000D01*
G04 #@! TO.C,D3*
X66100000Y-69200000D02*
X66100000Y-67300000D01*
X66100000Y-67300000D02*
X62900000Y-67300000D01*
X62900000Y-69200000D02*
X62900000Y-67300000D01*
X66100000Y-69200000D02*
X62900000Y-69200000D01*
G04 #@! TO.C,D7*
X62276464Y-64577980D02*
X62276464Y-62877980D01*
X62276464Y-62877980D02*
X66176464Y-62877980D01*
X66176464Y-62877980D02*
X66176464Y-64577980D01*
X66176464Y-64577980D02*
X62276464Y-64577980D01*
G04 #@! TO.C,D8*
X66176464Y-62577980D02*
X62276464Y-62577980D01*
X66176464Y-60877980D02*
X66176464Y-62577980D01*
X62276464Y-60877980D02*
X66176464Y-60877980D01*
X62276464Y-62577980D02*
X62276464Y-60877980D01*
G04 #@! TO.C,D9*
X66650000Y-67300000D02*
X69850000Y-67300000D01*
X69850000Y-67300000D02*
X69850000Y-69200000D01*
X66650000Y-69200000D02*
X69850000Y-69200000D01*
X66650000Y-67300000D02*
X66650000Y-69200000D01*
G04 #@! TO.C,D10*
X62650000Y-64800000D02*
X62650000Y-66700000D01*
X62650000Y-66700000D02*
X65850000Y-66700000D01*
X65850000Y-64800000D02*
X65850000Y-66700000D01*
X62650000Y-64800000D02*
X65850000Y-64800000D01*
G04 #@! TO.C,D11*
X66800000Y-66875000D02*
X66800000Y-63675000D01*
X66800000Y-63675000D02*
X68700000Y-63675000D01*
X68700000Y-66875000D02*
X68700000Y-63675000D01*
X66800000Y-66875000D02*
X68700000Y-66875000D01*
G04 #@! TO.C,IC2*
X81750000Y-62000000D02*
X74250000Y-62000000D01*
X81750000Y-67500000D02*
X74250000Y-67500000D01*
X74250000Y-67500000D02*
X74250000Y-62000000D01*
X81750000Y-67500000D02*
X81750000Y-62000000D01*
G04 #@! TO.C,J2*
X136000000Y-58500000D02*
X141000000Y-58500000D01*
X136000000Y-53500000D02*
X136000000Y-58500000D01*
X141000000Y-53500000D02*
X136000000Y-53500000D01*
X141000000Y-58500000D02*
X141000000Y-53500000D01*
G04 #@! TO.C,J4*
X120400000Y-61200000D02*
X120400000Y-70300000D01*
X129100000Y-61200000D02*
X120400000Y-61200000D01*
X129100000Y-70300000D02*
X129100000Y-61200000D01*
X120400000Y-70300000D02*
X129100000Y-70300000D01*
G04 #@! TO.C,L1*
X139150000Y-52950000D02*
X137850000Y-52950000D01*
X139150000Y-51050000D02*
X137850000Y-51050000D01*
X137850000Y-51050000D02*
X137850000Y-52950000D01*
X139150000Y-51050000D02*
X139150000Y-52950000D01*
G04 #@! TO.C,L2*
X91450000Y-66650000D02*
X91450000Y-69850000D01*
X87050000Y-66650000D02*
X87050000Y-69850000D01*
X87050000Y-69850000D02*
X91450000Y-69850000D01*
X87050000Y-66650000D02*
X91450000Y-66650000D01*
G04 #@! TO.C,Q1*
X133750000Y-64300000D02*
X133750000Y-67700000D01*
X133750000Y-67700000D02*
X130250000Y-67700000D01*
X130250000Y-67700000D02*
X130250000Y-64300000D01*
X130250000Y-64300000D02*
X133750000Y-64300000D01*
G04 #@! TO.C,Q3*
X77050000Y-57550000D02*
X84950000Y-57550000D01*
X77050000Y-53950000D02*
X84950000Y-53950000D01*
X84950000Y-53950000D02*
X84950000Y-57550000D01*
X77050000Y-53950000D02*
X77050000Y-57550000D01*
G04 #@! TO.C,Q5*
X103989926Y-48205010D02*
X103989926Y-51705010D01*
X100589926Y-48205010D02*
X103989926Y-48205010D01*
X100589926Y-51705010D02*
X100589926Y-48205010D01*
X103989926Y-51705010D02*
X100589926Y-51705010D01*
G04 #@! TO.C,R1*
X69800000Y-55500000D02*
X69800000Y-53000000D01*
X69800000Y-55500000D02*
X71200000Y-55500000D01*
X71200000Y-53000000D02*
X69800000Y-53000000D01*
X71200000Y-53000000D02*
X71200000Y-55500000D01*
G04 #@! TO.C,R2*
X74250000Y-54950000D02*
X71750000Y-54950000D01*
X74250000Y-54950000D02*
X74250000Y-53550000D01*
X71750000Y-53550000D02*
X71750000Y-54950000D01*
X71750000Y-53550000D02*
X74250000Y-53550000D01*
G04 #@! TO.C,R5*
X133500000Y-63950000D02*
X131000000Y-63950000D01*
X133500000Y-63950000D02*
X133500000Y-62550000D01*
X131000000Y-62550000D02*
X131000000Y-63950000D01*
X131000000Y-62550000D02*
X133500000Y-62550000D01*
G04 #@! TO.C,R6*
X145750000Y-44200000D02*
X143250000Y-44200000D01*
X145750000Y-44200000D02*
X145750000Y-42800000D01*
X143250000Y-42800000D02*
X143250000Y-44200000D01*
X143250000Y-42800000D02*
X145750000Y-42800000D01*
G04 #@! TO.C,R7*
X117250000Y-65550000D02*
X119750000Y-65550000D01*
X117250000Y-65550000D02*
X117250000Y-66950000D01*
X119750000Y-66950000D02*
X119750000Y-65550000D01*
X119750000Y-66950000D02*
X117250000Y-66950000D01*
G04 #@! TO.C,R8*
X112130182Y-39434873D02*
X109630182Y-39434873D01*
X112130182Y-39434873D02*
X112130182Y-38034873D01*
X109630182Y-38034873D02*
X109630182Y-39434873D01*
X109630182Y-38034873D02*
X112130182Y-38034873D01*
G04 #@! TO.C,R9*
X104589926Y-51205010D02*
X104589926Y-48705010D01*
X104589926Y-51205010D02*
X105989926Y-51205010D01*
X105989926Y-48705010D02*
X104589926Y-48705010D01*
X105989926Y-48705010D02*
X105989926Y-51205010D01*
G04 #@! TO.C,R10*
X69800000Y-51500000D02*
X69800000Y-49000000D01*
X69800000Y-51500000D02*
X71200000Y-51500000D01*
X71200000Y-49000000D02*
X69800000Y-49000000D01*
X71200000Y-49000000D02*
X71200000Y-51500000D01*
G04 #@! TO.C,R11*
X138050000Y-47250000D02*
X138050000Y-44750000D01*
X138050000Y-47250000D02*
X139450000Y-47250000D01*
X139450000Y-44750000D02*
X138050000Y-44750000D01*
X139450000Y-44750000D02*
X139450000Y-47250000D01*
G04 #@! TO.C,R12*
X108050000Y-48250000D02*
X108050000Y-45750000D01*
X108050000Y-48250000D02*
X109450000Y-48250000D01*
X109450000Y-45750000D02*
X108050000Y-45750000D01*
X109450000Y-45750000D02*
X109450000Y-48250000D01*
G04 #@! TO.C,R13*
X67250000Y-60800000D02*
X69750000Y-60800000D01*
X67250000Y-60800000D02*
X67250000Y-62200000D01*
X69750000Y-62200000D02*
X69750000Y-60800000D01*
X69750000Y-62200000D02*
X67250000Y-62200000D01*
G04 #@! TO.C,R14*
X67000000Y-59050000D02*
X69500000Y-59050000D01*
X67000000Y-59050000D02*
X67000000Y-60450000D01*
X69500000Y-60450000D02*
X69500000Y-59050000D01*
X69500000Y-60450000D02*
X67000000Y-60450000D01*
G04 #@! TO.C,R15*
X82550000Y-67500000D02*
X82550000Y-65000000D01*
X82550000Y-67500000D02*
X83950000Y-67500000D01*
X83950000Y-65000000D02*
X82550000Y-65000000D01*
X83950000Y-65000000D02*
X83950000Y-67500000D01*
G04 #@! TO.C,R16*
X121121142Y-60388909D02*
X122888909Y-58621142D01*
X121121142Y-60388909D02*
X122111091Y-61378858D01*
X123878858Y-59611091D02*
X122888909Y-58621142D01*
X123878858Y-59611091D02*
X122111091Y-61378858D01*
G04 #@! TO.C,R17*
X136250000Y-49300000D02*
X138750000Y-49300000D01*
X136250000Y-49300000D02*
X136250000Y-50700000D01*
X138750000Y-50700000D02*
X138750000Y-49300000D01*
X138750000Y-50700000D02*
X136250000Y-50700000D01*
G04 #@! TO.C,R18*
X119000000Y-45050000D02*
X121500000Y-45050000D01*
X119000000Y-45050000D02*
X119000000Y-46450000D01*
X121500000Y-46450000D02*
X121500000Y-45050000D01*
X121500000Y-46450000D02*
X119000000Y-46450000D01*
G04 #@! TO.C,R19*
X101250000Y-61950000D02*
X98750000Y-61950000D01*
X101250000Y-61950000D02*
X101250000Y-60550000D01*
X98750000Y-60550000D02*
X98750000Y-61950000D01*
X98750000Y-60550000D02*
X101250000Y-60550000D01*
G04 #@! TO.C,R20*
X102000000Y-64950000D02*
X99500000Y-64950000D01*
X102000000Y-64950000D02*
X102000000Y-63550000D01*
X99500000Y-63550000D02*
X99500000Y-64950000D01*
X99500000Y-63550000D02*
X102000000Y-63550000D01*
G04 #@! TO.C,R21*
X109630182Y-36183606D02*
X112130182Y-36183606D01*
X109630182Y-36183606D02*
X109630182Y-37583606D01*
X112130182Y-37583606D02*
X112130182Y-36183606D01*
X112130182Y-37583606D02*
X109630182Y-37583606D01*
G04 #@! TO.C,reset1*
X146150000Y-36100000D02*
X142850000Y-36100000D01*
X146150000Y-40900000D02*
X146150000Y-36100000D01*
X142850000Y-40900000D02*
X146150000Y-40900000D01*
X142850000Y-36100000D02*
X142850000Y-40900000D01*
G04 #@! TO.C,U2*
X135350000Y-44700000D02*
X123150000Y-44700000D01*
X123150000Y-44700000D02*
X123150000Y-55300000D01*
X123150000Y-55300000D02*
X135350000Y-55300000D01*
X135350000Y-55300000D02*
X135350000Y-44700000D01*
G04 #@! TO.C,U3*
X71580000Y-55550000D02*
X75920000Y-55550000D01*
X71580000Y-55550000D02*
X71580000Y-58950000D01*
X75920000Y-58950000D02*
X75920000Y-55550000D01*
X75920000Y-58950000D02*
X71580000Y-58950000D01*
G04 #@! TO.C,U4*
X88200000Y-66360000D02*
X88200000Y-63140000D01*
X88200000Y-63140000D02*
X90800000Y-63140000D01*
X90800000Y-63140000D02*
X90800000Y-66360000D01*
X90800000Y-66360000D02*
X88200000Y-66360000D01*
G04 #@! TO.C,U6*
X116115302Y-39834873D02*
X112915302Y-39834873D01*
X116115302Y-36134873D02*
X116115302Y-39834873D01*
X112915302Y-36134873D02*
X116115302Y-36134873D01*
X112915302Y-39834873D02*
X112915302Y-36134873D01*
G04 #@! TO.C,J1*
X68300000Y-55300000D02*
X68300000Y-51700000D01*
X62150000Y-55300000D02*
X68300000Y-55300000D01*
X62150000Y-51700000D02*
X62150000Y-55300000D01*
X68300000Y-51700000D02*
X62150000Y-51700000D01*
G04 #@! TO.C,JP1*
X96650000Y-46500000D02*
X93350000Y-46500000D01*
X96650000Y-46500000D02*
X96650000Y-44000000D01*
X93350000Y-44000000D02*
X93350000Y-46500000D01*
X93350000Y-44000000D02*
X96650000Y-44000000D01*
G04 #@! TO.C,JP3*
X96650000Y-48750000D02*
X93350000Y-48750000D01*
X96650000Y-48750000D02*
X96650000Y-46250000D01*
X93350000Y-46250000D02*
X93350000Y-48750000D01*
X93350000Y-46250000D02*
X96650000Y-46250000D01*
G04 #@! TO.C,JP4*
X93350000Y-48500000D02*
X96650000Y-48500000D01*
X93350000Y-48500000D02*
X93350000Y-51000000D01*
X96650000Y-51000000D02*
X96650000Y-48500000D01*
X96650000Y-51000000D02*
X93350000Y-51000000D01*
G04 #@! TO.C,8MHz1*
X114169596Y-66959798D02*
X105755025Y-58545227D01*
X110209798Y-70919596D02*
X114169596Y-66959798D01*
X101795227Y-62505025D02*
X110209798Y-70919596D01*
X105755025Y-58545227D02*
X101795227Y-62505025D01*
G04 #@! TD*
M02*
