G04 #@! TF.GenerationSoftware,KiCad,Pcbnew,(5.0.1-3-g963ef8bb5)*
G04 #@! TF.CreationDate,2020-09-15T14:43:14+02:00*
G04 #@! TF.ProjectId,trackix,747261636B69782E6B696361645F7063,rev?*
G04 #@! TF.SameCoordinates,Original*
G04 #@! TF.FileFunction,Legend,Top*
G04 #@! TF.FilePolarity,Positive*
%FSLAX46Y46*%
G04 Gerber Fmt 4.6, Leading zero omitted, Abs format (unit mm)*
G04 Created by KiCad (PCBNEW (5.0.1-3-g963ef8bb5)) date 2020 September 15, Tuesday 14:43:14*
%MOMM*%
%LPD*%
G01*
G04 APERTURE LIST*
%ADD10C,0.200000*%
%ADD11C,0.250000*%
%ADD12C,0.300000*%
%ADD13C,0.120000*%
%ADD14C,0.127000*%
%ADD15C,0.150000*%
%ADD16C,0.125000*%
G04 APERTURE END LIST*
D10*
X171960952Y-129352380D02*
X171865714Y-129304761D01*
X171818095Y-129257142D01*
X171770476Y-129161904D01*
X171770476Y-128876190D01*
X171818095Y-128780952D01*
X171865714Y-128733333D01*
X171960952Y-128685714D01*
X172103809Y-128685714D01*
X172199047Y-128733333D01*
X172246666Y-128780952D01*
X172294285Y-128876190D01*
X172294285Y-129161904D01*
X172246666Y-129257142D01*
X172199047Y-129304761D01*
X172103809Y-129352380D01*
X171960952Y-129352380D01*
X172627619Y-128685714D02*
X172865714Y-129352380D01*
X173103809Y-128685714D01*
X173865714Y-129304761D02*
X173770476Y-129352380D01*
X173580000Y-129352380D01*
X173484761Y-129304761D01*
X173437142Y-129209523D01*
X173437142Y-128828571D01*
X173484761Y-128733333D01*
X173580000Y-128685714D01*
X173770476Y-128685714D01*
X173865714Y-128733333D01*
X173913333Y-128828571D01*
X173913333Y-128923809D01*
X173437142Y-129019047D01*
X174341904Y-129352380D02*
X174341904Y-128685714D01*
X174341904Y-128876190D02*
X174389523Y-128780952D01*
X174437142Y-128733333D01*
X174532380Y-128685714D01*
X174627619Y-128685714D01*
X174960952Y-129352380D02*
X174960952Y-128685714D01*
X174960952Y-128876190D02*
X175008571Y-128780952D01*
X175056190Y-128733333D01*
X175151428Y-128685714D01*
X175246666Y-128685714D01*
X175580000Y-129352380D02*
X175580000Y-128685714D01*
X175580000Y-128352380D02*
X175532380Y-128400000D01*
X175580000Y-128447619D01*
X175627619Y-128400000D01*
X175580000Y-128352380D01*
X175580000Y-128447619D01*
X176484761Y-129352380D02*
X176484761Y-128352380D01*
X176484761Y-129304761D02*
X176389523Y-129352380D01*
X176199047Y-129352380D01*
X176103809Y-129304761D01*
X176056190Y-129257142D01*
X176008571Y-129161904D01*
X176008571Y-128876190D01*
X176056190Y-128780952D01*
X176103809Y-128733333D01*
X176199047Y-128685714D01*
X176389523Y-128685714D01*
X176484761Y-128733333D01*
X177341904Y-129304761D02*
X177246666Y-129352380D01*
X177056190Y-129352380D01*
X176960952Y-129304761D01*
X176913333Y-129209523D01*
X176913333Y-128828571D01*
X176960952Y-128733333D01*
X177056190Y-128685714D01*
X177246666Y-128685714D01*
X177341904Y-128733333D01*
X177389523Y-128828571D01*
X177389523Y-128923809D01*
X176913333Y-129019047D01*
D11*
X186828571Y-127928571D02*
X186828571Y-129142857D01*
X186757142Y-129285714D01*
X186685714Y-129357142D01*
X186542857Y-129428571D01*
X186328571Y-129428571D01*
X186185714Y-129357142D01*
X186828571Y-128857142D02*
X186685714Y-128928571D01*
X186400000Y-128928571D01*
X186257142Y-128857142D01*
X186185714Y-128785714D01*
X186114285Y-128642857D01*
X186114285Y-128214285D01*
X186185714Y-128071428D01*
X186257142Y-128000000D01*
X186400000Y-127928571D01*
X186685714Y-127928571D01*
X186828571Y-128000000D01*
X187542857Y-128928571D02*
X187542857Y-127928571D01*
X187542857Y-127428571D02*
X187471428Y-127500000D01*
X187542857Y-127571428D01*
X187614285Y-127500000D01*
X187542857Y-127428571D01*
X187542857Y-127571428D01*
X188042857Y-127928571D02*
X188614285Y-127928571D01*
X188257142Y-127428571D02*
X188257142Y-128714285D01*
X188328571Y-128857142D01*
X188471428Y-128928571D01*
X188614285Y-128928571D01*
X189114285Y-128928571D02*
X189114285Y-127428571D01*
X189757142Y-128928571D02*
X189757142Y-128142857D01*
X189685714Y-128000000D01*
X189542857Y-127928571D01*
X189328571Y-127928571D01*
X189185714Y-128000000D01*
X189114285Y-128071428D01*
X191114285Y-127928571D02*
X191114285Y-128928571D01*
X190471428Y-127928571D02*
X190471428Y-128714285D01*
X190542857Y-128857142D01*
X190685714Y-128928571D01*
X190900000Y-128928571D01*
X191042857Y-128857142D01*
X191114285Y-128785714D01*
X191828571Y-128928571D02*
X191828571Y-127428571D01*
X191828571Y-128000000D02*
X191971428Y-127928571D01*
X192257142Y-127928571D01*
X192400000Y-128000000D01*
X192471428Y-128071428D01*
X192542857Y-128214285D01*
X192542857Y-128642857D01*
X192471428Y-128785714D01*
X192400000Y-128857142D01*
X192257142Y-128928571D01*
X191971428Y-128928571D01*
X191828571Y-128857142D01*
X193185714Y-128785714D02*
X193257142Y-128857142D01*
X193185714Y-128928571D01*
X193114285Y-128857142D01*
X193185714Y-128785714D01*
X193185714Y-128928571D01*
X194542857Y-128857142D02*
X194400000Y-128928571D01*
X194114285Y-128928571D01*
X193971428Y-128857142D01*
X193900000Y-128785714D01*
X193828571Y-128642857D01*
X193828571Y-128214285D01*
X193900000Y-128071428D01*
X193971428Y-128000000D01*
X194114285Y-127928571D01*
X194400000Y-127928571D01*
X194542857Y-128000000D01*
X195400000Y-128928571D02*
X195257142Y-128857142D01*
X195185714Y-128785714D01*
X195114285Y-128642857D01*
X195114285Y-128214285D01*
X195185714Y-128071428D01*
X195257142Y-128000000D01*
X195400000Y-127928571D01*
X195614285Y-127928571D01*
X195757142Y-128000000D01*
X195828571Y-128071428D01*
X195900000Y-128214285D01*
X195900000Y-128642857D01*
X195828571Y-128785714D01*
X195757142Y-128857142D01*
X195614285Y-128928571D01*
X195400000Y-128928571D01*
X196542857Y-128928571D02*
X196542857Y-127928571D01*
X196542857Y-128071428D02*
X196614285Y-128000000D01*
X196757142Y-127928571D01*
X196971428Y-127928571D01*
X197114285Y-128000000D01*
X197185714Y-128142857D01*
X197185714Y-128928571D01*
X197185714Y-128142857D02*
X197257142Y-128000000D01*
X197400000Y-127928571D01*
X197614285Y-127928571D01*
X197757142Y-128000000D01*
X197828571Y-128142857D01*
X197828571Y-128928571D01*
X199614285Y-127357142D02*
X198328571Y-129285714D01*
X200114285Y-127928571D02*
X200114285Y-128928571D01*
X200114285Y-128071428D02*
X200185714Y-128000000D01*
X200328571Y-127928571D01*
X200542857Y-127928571D01*
X200685714Y-128000000D01*
X200757142Y-128142857D01*
X200757142Y-128928571D01*
X202042857Y-128857142D02*
X201900000Y-128928571D01*
X201614285Y-128928571D01*
X201471428Y-128857142D01*
X201400000Y-128714285D01*
X201400000Y-128142857D01*
X201471428Y-128000000D01*
X201614285Y-127928571D01*
X201900000Y-127928571D01*
X202042857Y-128000000D01*
X202114285Y-128142857D01*
X202114285Y-128285714D01*
X201400000Y-128428571D01*
X203400000Y-127928571D02*
X203400000Y-128928571D01*
X202757142Y-127928571D02*
X202757142Y-128714285D01*
X202828571Y-128857142D01*
X202971428Y-128928571D01*
X203185714Y-128928571D01*
X203328571Y-128857142D01*
X203400000Y-128785714D01*
X204114285Y-128928571D02*
X204114285Y-127928571D01*
X204114285Y-128071428D02*
X204185714Y-128000000D01*
X204328571Y-127928571D01*
X204542857Y-127928571D01*
X204685714Y-128000000D01*
X204757142Y-128142857D01*
X204757142Y-128928571D01*
X204757142Y-128142857D02*
X204828571Y-128000000D01*
X204971428Y-127928571D01*
X205185714Y-127928571D01*
X205328571Y-128000000D01*
X205400000Y-128142857D01*
X205400000Y-128928571D01*
X206114285Y-128928571D02*
X206114285Y-127928571D01*
X206114285Y-127428571D02*
X206042857Y-127500000D01*
X206114285Y-127571428D01*
X206185714Y-127500000D01*
X206114285Y-127428571D01*
X206114285Y-127571428D01*
D12*
X196530714Y-100721428D02*
X196602142Y-100650000D01*
X196745000Y-100578571D01*
X197102142Y-100578571D01*
X197245000Y-100650000D01*
X197316428Y-100721428D01*
X197387857Y-100864285D01*
X197387857Y-101007142D01*
X197316428Y-101221428D01*
X196459285Y-102078571D01*
X197387857Y-102078571D01*
X198316428Y-100578571D02*
X198459285Y-100578571D01*
X198602142Y-100650000D01*
X198673571Y-100721428D01*
X198745000Y-100864285D01*
X198816428Y-101150000D01*
X198816428Y-101507142D01*
X198745000Y-101792857D01*
X198673571Y-101935714D01*
X198602142Y-102007142D01*
X198459285Y-102078571D01*
X198316428Y-102078571D01*
X198173571Y-102007142D01*
X198102142Y-101935714D01*
X198030714Y-101792857D01*
X197959285Y-101507142D01*
X197959285Y-101150000D01*
X198030714Y-100864285D01*
X198102142Y-100721428D01*
X198173571Y-100650000D01*
X198316428Y-100578571D01*
X199387857Y-100721428D02*
X199459285Y-100650000D01*
X199602142Y-100578571D01*
X199959285Y-100578571D01*
X200102142Y-100650000D01*
X200173571Y-100721428D01*
X200245000Y-100864285D01*
X200245000Y-101007142D01*
X200173571Y-101221428D01*
X199316428Y-102078571D01*
X200245000Y-102078571D01*
X201173571Y-100578571D02*
X201316428Y-100578571D01*
X201459285Y-100650000D01*
X201530714Y-100721428D01*
X201602142Y-100864285D01*
X201673571Y-101150000D01*
X201673571Y-101507142D01*
X201602142Y-101792857D01*
X201530714Y-101935714D01*
X201459285Y-102007142D01*
X201316428Y-102078571D01*
X201173571Y-102078571D01*
X201030714Y-102007142D01*
X200959285Y-101935714D01*
X200887857Y-101792857D01*
X200816428Y-101507142D01*
X200816428Y-101150000D01*
X200887857Y-100864285D01*
X200959285Y-100721428D01*
X201030714Y-100650000D01*
X201173571Y-100578571D01*
X202316428Y-101507142D02*
X203459285Y-101507142D01*
X204459285Y-100578571D02*
X204602142Y-100578571D01*
X204745000Y-100650000D01*
X204816428Y-100721428D01*
X204887857Y-100864285D01*
X204959285Y-101150000D01*
X204959285Y-101507142D01*
X204887857Y-101792857D01*
X204816428Y-101935714D01*
X204745000Y-102007142D01*
X204602142Y-102078571D01*
X204459285Y-102078571D01*
X204316428Y-102007142D01*
X204245000Y-101935714D01*
X204173571Y-101792857D01*
X204102142Y-101507142D01*
X204102142Y-101150000D01*
X204173571Y-100864285D01*
X204245000Y-100721428D01*
X204316428Y-100650000D01*
X204459285Y-100578571D01*
X205673571Y-102078571D02*
X205959285Y-102078571D01*
X206102142Y-102007142D01*
X206173571Y-101935714D01*
X206316428Y-101721428D01*
X206387857Y-101435714D01*
X206387857Y-100864285D01*
X206316428Y-100721428D01*
X206245000Y-100650000D01*
X206102142Y-100578571D01*
X205816428Y-100578571D01*
X205673571Y-100650000D01*
X205602142Y-100721428D01*
X205530714Y-100864285D01*
X205530714Y-101221428D01*
X205602142Y-101364285D01*
X205673571Y-101435714D01*
X205816428Y-101507142D01*
X206102142Y-101507142D01*
X206245000Y-101435714D01*
X206316428Y-101364285D01*
X206387857Y-101221428D01*
X207030714Y-101507142D02*
X208173571Y-101507142D01*
X209673571Y-102078571D02*
X208816428Y-102078571D01*
X209245000Y-102078571D02*
X209245000Y-100578571D01*
X209102142Y-100792857D01*
X208959285Y-100935714D01*
X208816428Y-101007142D01*
X211030714Y-100578571D02*
X210316428Y-100578571D01*
X210245000Y-101292857D01*
X210316428Y-101221428D01*
X210459285Y-101150000D01*
X210816428Y-101150000D01*
X210959285Y-101221428D01*
X211030714Y-101292857D01*
X211102142Y-101435714D01*
X211102142Y-101792857D01*
X211030714Y-101935714D01*
X210959285Y-102007142D01*
X210816428Y-102078571D01*
X210459285Y-102078571D01*
X210316428Y-102007142D01*
X210245000Y-101935714D01*
X183440714Y-94003571D02*
X183940714Y-95503571D01*
X184440714Y-94003571D01*
X185512142Y-95432142D02*
X185369285Y-95503571D01*
X185083571Y-95503571D01*
X184940714Y-95432142D01*
X184869285Y-95289285D01*
X184869285Y-94717857D01*
X184940714Y-94575000D01*
X185083571Y-94503571D01*
X185369285Y-94503571D01*
X185512142Y-94575000D01*
X185583571Y-94717857D01*
X185583571Y-94860714D01*
X184869285Y-95003571D01*
X186226428Y-95503571D02*
X186226428Y-94503571D01*
X186226428Y-94789285D02*
X186297857Y-94646428D01*
X186369285Y-94575000D01*
X186512142Y-94503571D01*
X186655000Y-94503571D01*
X187083571Y-95432142D02*
X187226428Y-95503571D01*
X187512142Y-95503571D01*
X187655000Y-95432142D01*
X187726428Y-95289285D01*
X187726428Y-95217857D01*
X187655000Y-95075000D01*
X187512142Y-95003571D01*
X187297857Y-95003571D01*
X187155000Y-94932142D01*
X187083571Y-94789285D01*
X187083571Y-94717857D01*
X187155000Y-94575000D01*
X187297857Y-94503571D01*
X187512142Y-94503571D01*
X187655000Y-94575000D01*
X188369285Y-95503571D02*
X188369285Y-94503571D01*
X188369285Y-94003571D02*
X188297857Y-94075000D01*
X188369285Y-94146428D01*
X188440714Y-94075000D01*
X188369285Y-94003571D01*
X188369285Y-94146428D01*
X189297857Y-95503571D02*
X189155000Y-95432142D01*
X189083571Y-95360714D01*
X189012142Y-95217857D01*
X189012142Y-94789285D01*
X189083571Y-94646428D01*
X189155000Y-94575000D01*
X189297857Y-94503571D01*
X189512142Y-94503571D01*
X189655000Y-94575000D01*
X189726428Y-94646428D01*
X189797857Y-94789285D01*
X189797857Y-95217857D01*
X189726428Y-95360714D01*
X189655000Y-95432142D01*
X189512142Y-95503571D01*
X189297857Y-95503571D01*
X190440714Y-94503571D02*
X190440714Y-95503571D01*
X190440714Y-94646428D02*
X190512142Y-94575000D01*
X190655000Y-94503571D01*
X190869285Y-94503571D01*
X191012142Y-94575000D01*
X191083571Y-94717857D01*
X191083571Y-95503571D01*
X191797857Y-95360714D02*
X191869285Y-95432142D01*
X191797857Y-95503571D01*
X191726428Y-95432142D01*
X191797857Y-95360714D01*
X191797857Y-95503571D01*
X191797857Y-94575000D02*
X191869285Y-94646428D01*
X191797857Y-94717857D01*
X191726428Y-94646428D01*
X191797857Y-94575000D01*
X191797857Y-94717857D01*
X187083571Y-96553571D02*
X187226428Y-96553571D01*
X187369285Y-96625000D01*
X187440714Y-96696428D01*
X187512142Y-96839285D01*
X187583571Y-97125000D01*
X187583571Y-97482142D01*
X187512142Y-97767857D01*
X187440714Y-97910714D01*
X187369285Y-97982142D01*
X187226428Y-98053571D01*
X187083571Y-98053571D01*
X186940714Y-97982142D01*
X186869285Y-97910714D01*
X186797857Y-97767857D01*
X186726428Y-97482142D01*
X186726428Y-97125000D01*
X186797857Y-96839285D01*
X186869285Y-96696428D01*
X186940714Y-96625000D01*
X187083571Y-96553571D01*
X188226428Y-97910714D02*
X188297857Y-97982142D01*
X188226428Y-98053571D01*
X188155000Y-97982142D01*
X188226428Y-97910714D01*
X188226428Y-98053571D01*
X188797857Y-96553571D02*
X189726428Y-96553571D01*
X189226428Y-97125000D01*
X189440714Y-97125000D01*
X189583571Y-97196428D01*
X189655000Y-97267857D01*
X189726428Y-97410714D01*
X189726428Y-97767857D01*
X189655000Y-97910714D01*
X189583571Y-97982142D01*
X189440714Y-98053571D01*
X189012142Y-98053571D01*
X188869285Y-97982142D01*
X188797857Y-97910714D01*
X190369285Y-97910714D02*
X190440714Y-97982142D01*
X190369285Y-98053571D01*
X190297857Y-97982142D01*
X190369285Y-97910714D01*
X190369285Y-98053571D01*
X191869285Y-98053571D02*
X191012142Y-98053571D01*
X191440714Y-98053571D02*
X191440714Y-96553571D01*
X191297857Y-96767857D01*
X191155000Y-96910714D01*
X191012142Y-96982142D01*
X137352142Y-97838095D02*
X137352142Y-96538095D01*
X137352142Y-97033333D02*
X137495000Y-96971428D01*
X137780714Y-96971428D01*
X137923571Y-97033333D01*
X137995000Y-97095238D01*
X138066428Y-97219047D01*
X138066428Y-97590476D01*
X137995000Y-97714285D01*
X137923571Y-97776190D01*
X137780714Y-97838095D01*
X137495000Y-97838095D01*
X137352142Y-97776190D01*
X138566428Y-96971428D02*
X138923571Y-97838095D01*
X139280714Y-96971428D02*
X138923571Y-97838095D01*
X138780714Y-98147619D01*
X138709285Y-98209523D01*
X138566428Y-98271428D01*
X140995000Y-96971428D02*
X140995000Y-97838095D01*
X140995000Y-97095238D02*
X141066428Y-97033333D01*
X141209285Y-96971428D01*
X141423571Y-96971428D01*
X141566428Y-97033333D01*
X141637857Y-97157142D01*
X141637857Y-97838095D01*
X142923571Y-97776190D02*
X142780714Y-97838095D01*
X142495000Y-97838095D01*
X142352142Y-97776190D01*
X142280714Y-97652380D01*
X142280714Y-97157142D01*
X142352142Y-97033333D01*
X142495000Y-96971428D01*
X142780714Y-96971428D01*
X142923571Y-97033333D01*
X142995000Y-97157142D01*
X142995000Y-97280952D01*
X142280714Y-97404761D01*
X144280714Y-96971428D02*
X144280714Y-97838095D01*
X143637857Y-96971428D02*
X143637857Y-97652380D01*
X143709285Y-97776190D01*
X143852142Y-97838095D01*
X144066428Y-97838095D01*
X144209285Y-97776190D01*
X144280714Y-97714285D01*
X144995000Y-97838095D02*
X144995000Y-96971428D01*
X144995000Y-97095238D02*
X145066428Y-97033333D01*
X145209285Y-96971428D01*
X145423571Y-96971428D01*
X145566428Y-97033333D01*
X145637857Y-97157142D01*
X145637857Y-97838095D01*
X145637857Y-97157142D02*
X145709285Y-97033333D01*
X145852142Y-96971428D01*
X146066428Y-96971428D01*
X146209285Y-97033333D01*
X146280714Y-97157142D01*
X146280714Y-97838095D01*
X146995000Y-97838095D02*
X146995000Y-96971428D01*
X146995000Y-96538095D02*
X146923571Y-96600000D01*
X146995000Y-96661904D01*
X147066428Y-96600000D01*
X146995000Y-96538095D01*
X146995000Y-96661904D01*
X191946951Y-107835429D02*
X192018379Y-107764001D01*
X192161237Y-107692572D01*
X192518379Y-107692572D01*
X192661237Y-107764001D01*
X192732665Y-107835429D01*
X192804094Y-107978286D01*
X192804094Y-108121143D01*
X192732665Y-108335429D01*
X191875522Y-109192572D01*
X192804094Y-109192572D01*
X194161237Y-107692572D02*
X193446951Y-107692572D01*
X193375522Y-108406858D01*
X193446951Y-108335429D01*
X193589808Y-108264001D01*
X193946951Y-108264001D01*
X194089808Y-108335429D01*
X194161237Y-108406858D01*
X194232665Y-108549715D01*
X194232665Y-108906858D01*
X194161237Y-109049715D01*
X194089808Y-109121143D01*
X193946951Y-109192572D01*
X193589808Y-109192572D01*
X193446951Y-109121143D01*
X193375522Y-109049715D01*
X194875522Y-109049715D02*
X194946951Y-109121143D01*
X194875522Y-109192572D01*
X194804094Y-109121143D01*
X194875522Y-109049715D01*
X194875522Y-109192572D01*
X195875522Y-107692572D02*
X196018379Y-107692572D01*
X196161237Y-107764001D01*
X196232665Y-107835429D01*
X196304094Y-107978286D01*
X196375522Y-108264001D01*
X196375522Y-108621143D01*
X196304094Y-108906858D01*
X196232665Y-109049715D01*
X196161237Y-109121143D01*
X196018379Y-109192572D01*
X195875522Y-109192572D01*
X195732665Y-109121143D01*
X195661237Y-109049715D01*
X195589808Y-108906858D01*
X195518379Y-108621143D01*
X195518379Y-108264001D01*
X195589808Y-107978286D01*
X195661237Y-107835429D01*
X195732665Y-107764001D01*
X195875522Y-107692572D01*
X197304094Y-107692572D02*
X197446951Y-107692572D01*
X197589808Y-107764001D01*
X197661237Y-107835429D01*
X197732665Y-107978286D01*
X197804094Y-108264001D01*
X197804094Y-108621143D01*
X197732665Y-108906858D01*
X197661237Y-109049715D01*
X197589808Y-109121143D01*
X197446951Y-109192572D01*
X197304094Y-109192572D01*
X197161237Y-109121143D01*
X197089808Y-109049715D01*
X197018379Y-108906858D01*
X196946951Y-108621143D01*
X196946951Y-108264001D01*
X197018379Y-107978286D01*
X197089808Y-107835429D01*
X197161237Y-107764001D01*
X197304094Y-107692572D01*
X198732665Y-107692572D02*
X198875522Y-107692572D01*
X199018379Y-107764001D01*
X199089808Y-107835429D01*
X199161237Y-107978286D01*
X199232665Y-108264001D01*
X199232665Y-108621143D01*
X199161237Y-108906858D01*
X199089808Y-109049715D01*
X199018379Y-109121143D01*
X198875522Y-109192572D01*
X198732665Y-109192572D01*
X198589808Y-109121143D01*
X198518379Y-109049715D01*
X198446951Y-108906858D01*
X198375522Y-108621143D01*
X198375522Y-108264001D01*
X198446951Y-107978286D01*
X198518379Y-107835429D01*
X198589808Y-107764001D01*
X198732665Y-107692572D01*
X201018379Y-109192572D02*
X201018379Y-108192572D01*
X201018379Y-108335429D02*
X201089808Y-108264001D01*
X201232665Y-108192572D01*
X201446951Y-108192572D01*
X201589808Y-108264001D01*
X201661237Y-108406858D01*
X201661237Y-109192572D01*
X201661237Y-108406858D02*
X201732665Y-108264001D01*
X201875522Y-108192572D01*
X202089808Y-108192572D01*
X202232665Y-108264001D01*
X202304094Y-108406858D01*
X202304094Y-109192572D01*
X203018379Y-109192572D02*
X203018379Y-108192572D01*
X203018379Y-108335429D02*
X203089808Y-108264001D01*
X203232665Y-108192572D01*
X203446951Y-108192572D01*
X203589808Y-108264001D01*
X203661237Y-108406858D01*
X203661237Y-109192572D01*
X203661237Y-108406858D02*
X203732665Y-108264001D01*
X203875522Y-108192572D01*
X204089808Y-108192572D01*
X204232665Y-108264001D01*
X204304094Y-108406858D01*
X204304094Y-109192572D01*
X185661237Y-106414001D02*
X210661237Y-106414001D01*
X185661237Y-103414001D02*
X185661237Y-107000422D01*
X210661237Y-103414001D02*
X210661237Y-107000422D01*
X210661237Y-106414001D02*
X209534733Y-107000422D01*
X210661237Y-106414001D02*
X209534733Y-105827580D01*
X185661237Y-106414001D02*
X186787741Y-107000422D01*
X185661237Y-106414001D02*
X186787741Y-105827580D01*
X189082665Y-121128286D02*
X189011237Y-121056858D01*
X188939808Y-120914001D01*
X188939808Y-120556858D01*
X189011237Y-120414001D01*
X189082665Y-120342572D01*
X189225522Y-120271143D01*
X189368379Y-120271143D01*
X189582665Y-120342572D01*
X190439808Y-121199715D01*
X190439808Y-120271143D01*
X188939808Y-119771143D02*
X188939808Y-118842572D01*
X189511237Y-119342572D01*
X189511237Y-119128286D01*
X189582665Y-118985429D01*
X189654094Y-118914001D01*
X189796951Y-118842572D01*
X190154094Y-118842572D01*
X190296951Y-118914001D01*
X190368379Y-118985429D01*
X190439808Y-119128286D01*
X190439808Y-119556858D01*
X190368379Y-119699715D01*
X190296951Y-119771143D01*
X190296951Y-118199715D02*
X190368379Y-118128286D01*
X190439808Y-118199715D01*
X190368379Y-118271143D01*
X190296951Y-118199715D01*
X190439808Y-118199715D01*
X188939808Y-117199715D02*
X188939808Y-117056858D01*
X189011237Y-116914001D01*
X189082665Y-116842572D01*
X189225522Y-116771143D01*
X189511237Y-116699715D01*
X189868379Y-116699715D01*
X190154094Y-116771143D01*
X190296951Y-116842572D01*
X190368379Y-116914001D01*
X190439808Y-117056858D01*
X190439808Y-117199715D01*
X190368379Y-117342572D01*
X190296951Y-117414001D01*
X190154094Y-117485429D01*
X189868379Y-117556858D01*
X189511237Y-117556858D01*
X189225522Y-117485429D01*
X189082665Y-117414001D01*
X189011237Y-117342572D01*
X188939808Y-117199715D01*
X188939808Y-115771143D02*
X188939808Y-115628286D01*
X189011237Y-115485429D01*
X189082665Y-115414001D01*
X189225522Y-115342572D01*
X189511237Y-115271143D01*
X189868379Y-115271143D01*
X190154094Y-115342572D01*
X190296951Y-115414001D01*
X190368379Y-115485429D01*
X190439808Y-115628286D01*
X190439808Y-115771143D01*
X190368379Y-115914001D01*
X190296951Y-115985429D01*
X190154094Y-116056858D01*
X189868379Y-116128286D01*
X189511237Y-116128286D01*
X189225522Y-116056858D01*
X189082665Y-115985429D01*
X189011237Y-115914001D01*
X188939808Y-115771143D01*
X188939808Y-114342572D02*
X188939808Y-114199715D01*
X189011237Y-114056858D01*
X189082665Y-113985429D01*
X189225522Y-113914001D01*
X189511237Y-113842572D01*
X189868379Y-113842572D01*
X190154094Y-113914001D01*
X190296951Y-113985429D01*
X190368379Y-114056858D01*
X190439808Y-114199715D01*
X190439808Y-114342572D01*
X190368379Y-114485429D01*
X190296951Y-114556858D01*
X190154094Y-114628286D01*
X189868379Y-114699715D01*
X189511237Y-114699715D01*
X189225522Y-114628286D01*
X189082665Y-114556858D01*
X189011237Y-114485429D01*
X188939808Y-114342572D01*
X190439808Y-112056858D02*
X189439808Y-112056858D01*
X189582665Y-112056858D02*
X189511237Y-111985429D01*
X189439808Y-111842572D01*
X189439808Y-111628286D01*
X189511237Y-111485429D01*
X189654094Y-111414001D01*
X190439808Y-111414001D01*
X189654094Y-111414001D02*
X189511237Y-111342572D01*
X189439808Y-111199715D01*
X189439808Y-110985429D01*
X189511237Y-110842572D01*
X189654094Y-110771143D01*
X190439808Y-110771143D01*
X190439808Y-110056858D02*
X189439808Y-110056858D01*
X189582665Y-110056858D02*
X189511237Y-109985429D01*
X189439808Y-109842572D01*
X189439808Y-109628286D01*
X189511237Y-109485429D01*
X189654094Y-109414001D01*
X190439808Y-109414001D01*
X189654094Y-109414001D02*
X189511237Y-109342572D01*
X189439808Y-109199715D01*
X189439808Y-108985429D01*
X189511237Y-108842572D01*
X189654094Y-108771143D01*
X190439808Y-108771143D01*
X187661237Y-126414001D02*
X187661237Y-103414001D01*
X185661237Y-126414001D02*
X188247658Y-126414001D01*
X185661237Y-103414001D02*
X188247658Y-103414001D01*
X187661237Y-103414001D02*
X188247658Y-104540505D01*
X187661237Y-103414001D02*
X187074816Y-104540505D01*
X187661237Y-126414001D02*
X188247658Y-125287497D01*
X187661237Y-126414001D02*
X187074816Y-125287497D01*
D10*
X173622000Y-102658000D02*
G75*
G02X173622000Y-98848000I0J1905000D01*
G01*
X182512000Y-98848000D02*
G75*
G02X182512000Y-102658000I0J-1905000D01*
G01*
X174257002Y-98848000D02*
G75*
G02X181876999Y-98848001I3809998J-1905000D01*
G01*
X181876998Y-102658000D02*
G75*
G02X174257001Y-102657999I-3809998J1905000D01*
G01*
X195847000Y-100118000D02*
G75*
G03X195847000Y-100118000I-1905000J0D01*
G01*
X173622000Y-102658000D02*
X174257000Y-102658000D01*
X173622000Y-98848000D02*
X174257000Y-98848000D01*
X181877000Y-98848000D02*
X182512000Y-98848000D01*
X181877000Y-102658000D02*
X182512000Y-102658000D01*
X147225575Y-122350000D02*
G75*
G03X147225575Y-122350000I-2175575J0D01*
G01*
D13*
G04 #@! TO.C,L1*
X159350000Y-95420000D02*
X158850000Y-95420000D01*
X158850000Y-96480000D02*
X159350000Y-96480000D01*
G04 #@! TO.C,J2*
X161500000Y-95250000D02*
X161500000Y-94650000D01*
X161500000Y-94650000D02*
X161700000Y-94450000D01*
X161700000Y-97450000D02*
X161500000Y-97450000D01*
X161500000Y-97450000D02*
X161500000Y-96650000D01*
X164500000Y-96650000D02*
X164500000Y-97450000D01*
X164500000Y-97450000D02*
X164300000Y-97450000D01*
X164300000Y-94450000D02*
X164500000Y-94450000D01*
X164500000Y-94450000D02*
X164500000Y-95250000D01*
D14*
G04 #@! TO.C,U2*
X161063500Y-108350000D02*
X161063500Y-98650000D01*
X150936500Y-98650000D02*
X150936500Y-108350000D01*
D10*
X151600000Y-110350000D02*
G75*
G03X151600000Y-110350000I-100000J0D01*
G01*
D13*
G04 #@! TO.C,reset1*
X217200000Y-94550000D02*
X216900000Y-94550000D01*
X216900000Y-94550000D02*
X216900000Y-97850000D01*
X216900000Y-97850000D02*
X217200000Y-97850000D01*
X219400000Y-94550000D02*
X219700000Y-94550000D01*
X219700000Y-94550000D02*
X219700000Y-97850000D01*
X219700000Y-97850000D02*
X219400000Y-97850000D01*
G04 #@! TO.C,D6*
X181060000Y-100796463D02*
G75*
G03X175510000Y-99251171I-2990000J462D01*
G01*
X181060000Y-100795539D02*
G75*
G02X175510000Y-102340831I-2990000J-462D01*
G01*
X180570000Y-100796001D02*
G75*
G03X180570000Y-100796001I-2500000J0D01*
G01*
X175510000Y-99251001D02*
X175510000Y-102341001D01*
G04 #@! TO.C,D5*
X215880000Y-104660000D02*
X215880000Y-104660000D01*
X216010000Y-104660000D02*
X215880000Y-104660000D01*
X216010000Y-104660000D02*
X216010000Y-104660000D01*
X215880000Y-104660000D02*
X216010000Y-104660000D01*
X215880000Y-107200000D02*
X215880000Y-107200000D01*
X216010000Y-107200000D02*
X215880000Y-107200000D01*
X216010000Y-107200000D02*
X216010000Y-107200000D01*
X215880000Y-107200000D02*
X216010000Y-107200000D01*
X216010000Y-103370000D02*
X216010000Y-102970000D01*
X217130000Y-103370000D02*
X216010000Y-103370000D01*
X217130000Y-102970000D02*
X217130000Y-103370000D01*
X216010000Y-102970000D02*
X217130000Y-102970000D01*
X216010000Y-108490000D02*
X216010000Y-103370000D01*
X216010000Y-103370000D02*
X222170000Y-103370000D01*
X216010000Y-108490000D02*
X222170000Y-108490000D01*
X222170000Y-103370000D02*
G75*
G02X222170000Y-108490000I0J-2560000D01*
G01*
G04 #@! TO.C,D4*
X134430000Y-108530000D02*
G75*
G02X134430000Y-103410000I0J2560000D01*
G01*
X140590000Y-103410000D02*
X134430000Y-103410000D01*
X140590000Y-108530000D02*
X134430000Y-108530000D01*
X140590000Y-103410000D02*
X140590000Y-108530000D01*
X140590000Y-108930000D02*
X139470000Y-108930000D01*
X139470000Y-108930000D02*
X139470000Y-108530000D01*
X139470000Y-108530000D02*
X140590000Y-108530000D01*
X140590000Y-108530000D02*
X140590000Y-108930000D01*
X140720000Y-104700000D02*
X140590000Y-104700000D01*
X140590000Y-104700000D02*
X140590000Y-104700000D01*
X140590000Y-104700000D02*
X140720000Y-104700000D01*
X140720000Y-104700000D02*
X140720000Y-104700000D01*
X140720000Y-107240000D02*
X140590000Y-107240000D01*
X140590000Y-107240000D02*
X140590000Y-107240000D01*
X140590000Y-107240000D02*
X140720000Y-107240000D01*
X140720000Y-107240000D02*
X140720000Y-107240000D01*
G04 #@! TO.C,8MHz1*
X162650000Y-119650000D02*
X168050000Y-119650000D01*
X162650000Y-115150000D02*
X162650000Y-119650000D01*
G04 #@! TO.C,BZ1*
X219560000Y-111140000D02*
X222210000Y-111140000D01*
X222210000Y-111140000D02*
X222210000Y-120360000D01*
X222210000Y-120360000D02*
X219560000Y-120360000D01*
X215640000Y-120360000D02*
X212990000Y-120360000D01*
X212990000Y-120360000D02*
X212990000Y-111140000D01*
X212990000Y-111140000D02*
X215640000Y-111140000D01*
X219560000Y-111140000D02*
X219560000Y-110810000D01*
G04 #@! TO.C,C1*
X150900000Y-121750000D02*
X149900000Y-121750000D01*
X149900000Y-123450000D02*
X150900000Y-123450000D01*
G04 #@! TO.C,C2*
X155420000Y-115250000D02*
X155420000Y-113250000D01*
X153380000Y-113250000D02*
X153380000Y-115250000D01*
G04 #@! TO.C,C3*
X146200000Y-116100000D02*
X147200000Y-116100000D01*
X147200000Y-114400000D02*
X146200000Y-114400000D01*
G04 #@! TO.C,C4*
X162170000Y-116150000D02*
X162170000Y-114150000D01*
X160130000Y-114150000D02*
X160130000Y-116150000D01*
G04 #@! TO.C,C5*
X162400000Y-110450000D02*
X161400000Y-110450000D01*
X161400000Y-112150000D02*
X162400000Y-112150000D01*
G04 #@! TO.C,C6*
X147200000Y-95970000D02*
X149200000Y-95970000D01*
X149200000Y-93930000D02*
X147200000Y-93930000D01*
G04 #@! TO.C,C7*
X144289186Y-93910450D02*
X143289186Y-93910450D01*
X143289186Y-95610450D02*
X144289186Y-95610450D01*
G04 #@! TO.C,C8*
X180850000Y-105200000D02*
X179850000Y-105200000D01*
X179850000Y-106900000D02*
X180850000Y-106900000D01*
G04 #@! TO.C,C9*
X173000000Y-118130000D02*
X171000000Y-118130000D01*
X171000000Y-120170000D02*
X173000000Y-120170000D01*
G04 #@! TO.C,C10*
X165266044Y-121250030D02*
X165266044Y-122250030D01*
X166966044Y-122250030D02*
X166966044Y-121250030D01*
G04 #@! TO.C,C11*
X165146044Y-122250030D02*
X165146044Y-121250030D01*
X163446044Y-121250030D02*
X163446044Y-122250030D01*
G04 #@! TO.C,C12*
X176530000Y-118550000D02*
X176530000Y-120550000D01*
X178570000Y-120550000D02*
X178570000Y-118550000D01*
G04 #@! TO.C,C13*
X157670000Y-115250000D02*
X157670000Y-113250000D01*
X155630000Y-113250000D02*
X155630000Y-115250000D01*
G04 #@! TO.C,C14*
X159600000Y-114250000D02*
X159600000Y-113250000D01*
X157900000Y-113250000D02*
X157900000Y-114250000D01*
G04 #@! TO.C,C15*
X156250000Y-124230000D02*
X154250000Y-124230000D01*
X154250000Y-126270000D02*
X156250000Y-126270000D01*
G04 #@! TO.C,C16*
X178861143Y-119985463D02*
X178861143Y-120985463D01*
X180561143Y-120985463D02*
X180561143Y-119985463D01*
G04 #@! TO.C,D1*
X163900000Y-100000000D02*
X163900000Y-102800000D01*
X162500000Y-100000000D02*
X162500000Y-102800000D01*
X163900000Y-100000000D02*
X162500000Y-100000000D01*
G04 #@! TO.C,D2*
X196700000Y-95050000D02*
X196700000Y-93650000D01*
X196700000Y-93650000D02*
X193900000Y-93650000D01*
X196700000Y-95050000D02*
X193900000Y-95050000D01*
G04 #@! TO.C,D3*
X138987288Y-119866956D02*
X137287288Y-119866956D01*
X137287288Y-119866956D02*
X137287288Y-122416956D01*
X138987288Y-119866956D02*
X138987288Y-122416956D01*
G04 #@! TO.C,D7*
X166050000Y-124900000D02*
X166050000Y-126300000D01*
X166050000Y-126300000D02*
X168850000Y-126300000D01*
X166050000Y-124900000D02*
X168850000Y-124900000D01*
G04 #@! TO.C,D8*
X166050000Y-127050000D02*
X168850000Y-127050000D01*
X166050000Y-128450000D02*
X168850000Y-128450000D01*
X166050000Y-127050000D02*
X166050000Y-128450000D01*
G04 #@! TO.C,D9*
X141187288Y-119866956D02*
X141187288Y-122416956D01*
X139487288Y-119866956D02*
X139487288Y-122416956D01*
X141187288Y-119866956D02*
X139487288Y-119866956D01*
G04 #@! TO.C,D10*
X138987288Y-123416956D02*
X137287288Y-123416956D01*
X137287288Y-123416956D02*
X137287288Y-125966956D01*
X138987288Y-123416956D02*
X138987288Y-125966956D01*
G04 #@! TO.C,D11*
X141187288Y-123416956D02*
X141187288Y-125966956D01*
X139487288Y-123416956D02*
X139487288Y-125966956D01*
X141187288Y-123416956D02*
X139487288Y-123416956D01*
D15*
G04 #@! TO.C,IC2*
X154675000Y-118175000D02*
X153275000Y-118175000D01*
X154675000Y-123275000D02*
X158825000Y-123275000D01*
X154675000Y-118125000D02*
X158825000Y-118125000D01*
X154675000Y-123275000D02*
X154675000Y-123130000D01*
X158825000Y-123275000D02*
X158825000Y-123130000D01*
X158825000Y-118125000D02*
X158825000Y-118270000D01*
X154675000Y-118125000D02*
X154675000Y-118175000D01*
D13*
G04 #@! TO.C,J1*
X149495001Y-111895001D02*
X150825001Y-111895001D01*
X149495001Y-113225001D02*
X149495001Y-111895001D01*
X149495001Y-114495001D02*
X152155001Y-114495001D01*
X152155001Y-114495001D02*
X152155001Y-117095001D01*
X149495001Y-114495001D02*
X149495001Y-117095001D01*
X149495001Y-117095001D02*
X152155001Y-117095001D01*
G04 #@! TO.C,J3*
X184991237Y-122744001D02*
X183661237Y-122744001D01*
X184991237Y-121414001D02*
X184991237Y-122744001D01*
X184991237Y-120144001D02*
X182331237Y-120144001D01*
X182331237Y-120144001D02*
X182331237Y-109924001D01*
X184991237Y-120144001D02*
X184991237Y-109924001D01*
X184991237Y-109924001D02*
X182331237Y-109924001D01*
G04 #@! TO.C,J5*
X211331237Y-110084001D02*
X212661237Y-110084001D01*
X211331237Y-111414001D02*
X211331237Y-110084001D01*
X211331237Y-112684001D02*
X213991237Y-112684001D01*
X213991237Y-112684001D02*
X213991237Y-125444001D01*
X211331237Y-112684001D02*
X211331237Y-125444001D01*
X211331237Y-125444001D02*
X213991237Y-125444001D01*
G04 #@! TO.C,JP2*
X173700000Y-126350000D02*
X175100000Y-126350000D01*
X175800000Y-127050000D02*
X175800000Y-127650000D01*
X175100000Y-128350000D02*
X173700000Y-128350000D01*
X173000000Y-127650000D02*
X173000000Y-127050000D01*
X173000000Y-127050000D02*
G75*
G02X173700000Y-126350000I700000J0D01*
G01*
X173700000Y-128350000D02*
G75*
G02X173000000Y-127650000I0J700000D01*
G01*
X175800000Y-127650000D02*
G75*
G02X175100000Y-128350000I-700000J0D01*
G01*
X175100000Y-126350000D02*
G75*
G02X175800000Y-127050000I0J-700000D01*
G01*
G04 #@! TO.C,L2*
X177700000Y-122570000D02*
X179700000Y-122570000D01*
X179700000Y-125530000D02*
X177700000Y-125530000D01*
G04 #@! TO.C,Q1*
X218450000Y-123825000D02*
X219360000Y-123825000D01*
X216150000Y-123825000D02*
X217050000Y-123825000D01*
X216140000Y-126900000D02*
X216140000Y-123825000D01*
X219360000Y-125975000D02*
X219360000Y-123825000D01*
D15*
G04 #@! TO.C,Q3*
X144275000Y-113575000D02*
X145625000Y-113575000D01*
X144275000Y-110425000D02*
X139625000Y-110425000D01*
X144275000Y-113675000D02*
X139625000Y-113675000D01*
X144275000Y-110425000D02*
X144275000Y-110625000D01*
X139625000Y-110425000D02*
X139625000Y-110625000D01*
X139625000Y-113675000D02*
X139625000Y-113475000D01*
X144275000Y-113675000D02*
X144275000Y-113575000D01*
D13*
G04 #@! TO.C,Q5*
X171275000Y-97310000D02*
X173425000Y-97310000D01*
X170350000Y-94090000D02*
X173425000Y-94090000D01*
X173425000Y-94100000D02*
X173425000Y-95000000D01*
X173425000Y-96400000D02*
X173425000Y-97310000D01*
G04 #@! TO.C,R1*
X145900000Y-117320000D02*
X147100000Y-117320000D01*
X147100000Y-119080000D02*
X145900000Y-119080000D01*
G04 #@! TO.C,R2*
X137420000Y-116600000D02*
X137420000Y-115400000D01*
X139180000Y-115400000D02*
X139180000Y-116600000D01*
G04 #@! TO.C,R3*
X148030000Y-108600000D02*
X148030000Y-109800000D01*
X146270000Y-109800000D02*
X146270000Y-108600000D01*
G04 #@! TO.C,R5*
X213200000Y-127270000D02*
X214400000Y-127270000D01*
X214400000Y-129030000D02*
X213200000Y-129030000D01*
G04 #@! TO.C,R6*
X219300000Y-100830000D02*
X218100000Y-100830000D01*
X218100000Y-99070000D02*
X219300000Y-99070000D01*
G04 #@! TO.C,R7*
X193900000Y-95570000D02*
X195100000Y-95570000D01*
X195100000Y-97330000D02*
X193900000Y-97330000D01*
G04 #@! TO.C,R9*
X170250000Y-99630000D02*
X169050000Y-99630000D01*
X169050000Y-97870000D02*
X170250000Y-97870000D01*
G04 #@! TO.C,R10*
X143270000Y-106900000D02*
X143270000Y-105700000D01*
X145030000Y-105700000D02*
X145030000Y-106900000D01*
G04 #@! TO.C,R11*
X213830000Y-101550000D02*
X213830000Y-102750000D01*
X212070000Y-102750000D02*
X212070000Y-101550000D01*
G04 #@! TO.C,R12*
X179000000Y-95730000D02*
X177800000Y-95730000D01*
X177800000Y-93970000D02*
X179000000Y-93970000D01*
G04 #@! TO.C,R13*
X163350000Y-124770000D02*
X164550000Y-124770000D01*
X164550000Y-126530000D02*
X163350000Y-126530000D01*
G04 #@! TO.C,R14*
X163350000Y-126920000D02*
X164550000Y-126920000D01*
X164550000Y-128680000D02*
X163350000Y-128680000D01*
G04 #@! TO.C,R15*
X150000000Y-119220000D02*
X151200000Y-119220000D01*
X151200000Y-120980000D02*
X150000000Y-120980000D01*
G04 #@! TO.C,R16*
X150080000Y-108600000D02*
X150080000Y-109800000D01*
X148320000Y-109800000D02*
X148320000Y-108600000D01*
G04 #@! TO.C,R17*
X156850000Y-96880000D02*
X155650000Y-96880000D01*
X155650000Y-95120000D02*
X156850000Y-95120000D01*
G04 #@! TO.C,R18*
X164030000Y-105100000D02*
X164030000Y-106300000D01*
X162270000Y-106300000D02*
X162270000Y-105100000D01*
G04 #@! TO.C,R19*
X166600000Y-102320000D02*
X167800000Y-102320000D01*
X167800000Y-104080000D02*
X166600000Y-104080000D01*
G04 #@! TO.C,R20*
X167750000Y-102130000D02*
X166550000Y-102130000D01*
X166550000Y-100370000D02*
X167750000Y-100370000D01*
D15*
G04 #@! TO.C,U1*
X169082575Y-110909099D02*
X168074948Y-111916726D01*
X174050000Y-105623476D02*
X173820190Y-105853286D01*
X179176524Y-110750000D02*
X178946714Y-110979810D01*
X174050000Y-115876524D02*
X174279810Y-115646714D01*
X168923476Y-110750000D02*
X169153286Y-110520190D01*
X174050000Y-115876524D02*
X173820190Y-115646714D01*
X179176524Y-110750000D02*
X178946714Y-110520190D01*
X174050000Y-105623476D02*
X174279810Y-105853286D01*
X168923476Y-110750000D02*
X169082575Y-110909099D01*
D13*
G04 #@! TO.C,U3*
X143030000Y-115090000D02*
X140600000Y-115090000D01*
X141270000Y-118160000D02*
X143030000Y-118160000D01*
D14*
G04 #@! TO.C,U4*
X175800000Y-123150000D02*
X173700000Y-123150000D01*
X173700000Y-121050000D02*
X175800000Y-121050000D01*
D10*
X176750000Y-122800000D02*
G75*
G03X176750000Y-122800000I-100000J0D01*
G01*
G04 #@! TO.C,H2*
D16*
X150719047Y-128326190D02*
X150719047Y-127826190D01*
X150719047Y-128064285D02*
X151004761Y-128064285D01*
X151004761Y-128326190D02*
X151004761Y-127826190D01*
X151219047Y-127873809D02*
X151242857Y-127850000D01*
X151290476Y-127826190D01*
X151409523Y-127826190D01*
X151457142Y-127850000D01*
X151480952Y-127873809D01*
X151504761Y-127921428D01*
X151504761Y-127969047D01*
X151480952Y-128040476D01*
X151195238Y-128326190D01*
X151504761Y-128326190D01*
G04 #@! TO.C,H1*
X144919047Y-128326190D02*
X144919047Y-127826190D01*
X144919047Y-128064285D02*
X145204761Y-128064285D01*
X145204761Y-128326190D02*
X145204761Y-127826190D01*
X145704761Y-128326190D02*
X145419047Y-128326190D01*
X145561904Y-128326190D02*
X145561904Y-127826190D01*
X145514285Y-127897619D01*
X145466666Y-127945238D01*
X145419047Y-127969047D01*
G04 #@! TO.C,L1*
X159016666Y-97676190D02*
X158778571Y-97676190D01*
X158778571Y-97176190D01*
X159445238Y-97676190D02*
X159159523Y-97676190D01*
X159302380Y-97676190D02*
X159302380Y-97176190D01*
X159254761Y-97247619D01*
X159207142Y-97295238D01*
X159159523Y-97319047D01*
G04 #@! TO.C,J2*
X164776190Y-94666666D02*
X165133333Y-94666666D01*
X165204761Y-94690476D01*
X165252380Y-94738095D01*
X165276190Y-94809523D01*
X165276190Y-94857142D01*
X164823809Y-94452380D02*
X164800000Y-94428571D01*
X164776190Y-94380952D01*
X164776190Y-94261904D01*
X164800000Y-94214285D01*
X164823809Y-94190476D01*
X164871428Y-94166666D01*
X164919047Y-94166666D01*
X164990476Y-94190476D01*
X165276190Y-94476190D01*
X165276190Y-94166666D01*
G04 #@! TO.C,U2*
X150226190Y-99880952D02*
X150630952Y-99880952D01*
X150678571Y-99857142D01*
X150702380Y-99833333D01*
X150726190Y-99785714D01*
X150726190Y-99690476D01*
X150702380Y-99642857D01*
X150678571Y-99619047D01*
X150630952Y-99595238D01*
X150226190Y-99595238D01*
X150273809Y-99380952D02*
X150250000Y-99357142D01*
X150226190Y-99309523D01*
X150226190Y-99190476D01*
X150250000Y-99142857D01*
X150273809Y-99119047D01*
X150321428Y-99095238D01*
X150369047Y-99095238D01*
X150440476Y-99119047D01*
X150726190Y-99404761D01*
X150726190Y-99095238D01*
G04 #@! TO.C,reset1*
D15*
X220252380Y-98295238D02*
X219585714Y-98295238D01*
X219776190Y-98295238D02*
X219680952Y-98247619D01*
X219633333Y-98200000D01*
X219585714Y-98104761D01*
X219585714Y-98009523D01*
X220204761Y-97295238D02*
X220252380Y-97390476D01*
X220252380Y-97580952D01*
X220204761Y-97676190D01*
X220109523Y-97723809D01*
X219728571Y-97723809D01*
X219633333Y-97676190D01*
X219585714Y-97580952D01*
X219585714Y-97390476D01*
X219633333Y-97295238D01*
X219728571Y-97247619D01*
X219823809Y-97247619D01*
X219919047Y-97723809D01*
X220204761Y-96866666D02*
X220252380Y-96771428D01*
X220252380Y-96580952D01*
X220204761Y-96485714D01*
X220109523Y-96438095D01*
X220061904Y-96438095D01*
X219966666Y-96485714D01*
X219919047Y-96580952D01*
X219919047Y-96723809D01*
X219871428Y-96819047D01*
X219776190Y-96866666D01*
X219728571Y-96866666D01*
X219633333Y-96819047D01*
X219585714Y-96723809D01*
X219585714Y-96580952D01*
X219633333Y-96485714D01*
X220204761Y-95628571D02*
X220252380Y-95723809D01*
X220252380Y-95914285D01*
X220204761Y-96009523D01*
X220109523Y-96057142D01*
X219728571Y-96057142D01*
X219633333Y-96009523D01*
X219585714Y-95914285D01*
X219585714Y-95723809D01*
X219633333Y-95628571D01*
X219728571Y-95580952D01*
X219823809Y-95580952D01*
X219919047Y-96057142D01*
X219585714Y-95295238D02*
X219585714Y-94914285D01*
X219252380Y-95152380D02*
X220109523Y-95152380D01*
X220204761Y-95104761D01*
X220252380Y-95009523D01*
X220252380Y-94914285D01*
X220252380Y-94057142D02*
X220252380Y-94628571D01*
X220252380Y-94342857D02*
X219252380Y-94342857D01*
X219395238Y-94438095D01*
X219490476Y-94533333D01*
X219538095Y-94628571D01*
G04 #@! TO.C,D6*
D16*
X179430952Y-97926190D02*
X179430952Y-97426190D01*
X179550000Y-97426190D01*
X179621428Y-97450000D01*
X179669047Y-97497619D01*
X179692857Y-97545238D01*
X179716666Y-97640476D01*
X179716666Y-97711904D01*
X179692857Y-97807142D01*
X179669047Y-97854761D01*
X179621428Y-97902380D01*
X179550000Y-97926190D01*
X179430952Y-97926190D01*
X180145238Y-97426190D02*
X180050000Y-97426190D01*
X180002380Y-97450000D01*
X179978571Y-97473809D01*
X179930952Y-97545238D01*
X179907142Y-97640476D01*
X179907142Y-97830952D01*
X179930952Y-97878571D01*
X179954761Y-97902380D01*
X180002380Y-97926190D01*
X180097619Y-97926190D01*
X180145238Y-97902380D01*
X180169047Y-97878571D01*
X180192857Y-97830952D01*
X180192857Y-97711904D01*
X180169047Y-97664285D01*
X180145238Y-97640476D01*
X180097619Y-97616666D01*
X180002380Y-97616666D01*
X179954761Y-97640476D01*
X179930952Y-97664285D01*
X179907142Y-97711904D01*
G04 #@! TO.C,D5*
X216930952Y-108426190D02*
X216930952Y-107926190D01*
X217050000Y-107926190D01*
X217121428Y-107950000D01*
X217169047Y-107997619D01*
X217192857Y-108045238D01*
X217216666Y-108140476D01*
X217216666Y-108211904D01*
X217192857Y-108307142D01*
X217169047Y-108354761D01*
X217121428Y-108402380D01*
X217050000Y-108426190D01*
X216930952Y-108426190D01*
X217669047Y-107926190D02*
X217430952Y-107926190D01*
X217407142Y-108164285D01*
X217430952Y-108140476D01*
X217478571Y-108116666D01*
X217597619Y-108116666D01*
X217645238Y-108140476D01*
X217669047Y-108164285D01*
X217692857Y-108211904D01*
X217692857Y-108330952D01*
X217669047Y-108378571D01*
X217645238Y-108402380D01*
X217597619Y-108426190D01*
X217478571Y-108426190D01*
X217430952Y-108402380D01*
X217407142Y-108378571D01*
G04 #@! TO.C,D4*
X140026190Y-102819047D02*
X139526190Y-102819047D01*
X139526190Y-102700000D01*
X139550000Y-102628571D01*
X139597619Y-102580952D01*
X139645238Y-102557142D01*
X139740476Y-102533333D01*
X139811904Y-102533333D01*
X139907142Y-102557142D01*
X139954761Y-102580952D01*
X140002380Y-102628571D01*
X140026190Y-102700000D01*
X140026190Y-102819047D01*
X139692857Y-102104761D02*
X140026190Y-102104761D01*
X139502380Y-102223809D02*
X139859523Y-102342857D01*
X139859523Y-102033333D01*
G04 #@! TO.C,8MHz1*
D15*
X163278571Y-114230952D02*
X163183333Y-114183333D01*
X163135714Y-114135714D01*
X163088095Y-114040476D01*
X163088095Y-113992857D01*
X163135714Y-113897619D01*
X163183333Y-113850000D01*
X163278571Y-113802380D01*
X163469047Y-113802380D01*
X163564285Y-113850000D01*
X163611904Y-113897619D01*
X163659523Y-113992857D01*
X163659523Y-114040476D01*
X163611904Y-114135714D01*
X163564285Y-114183333D01*
X163469047Y-114230952D01*
X163278571Y-114230952D01*
X163183333Y-114278571D01*
X163135714Y-114326190D01*
X163088095Y-114421428D01*
X163088095Y-114611904D01*
X163135714Y-114707142D01*
X163183333Y-114754761D01*
X163278571Y-114802380D01*
X163469047Y-114802380D01*
X163564285Y-114754761D01*
X163611904Y-114707142D01*
X163659523Y-114611904D01*
X163659523Y-114421428D01*
X163611904Y-114326190D01*
X163564285Y-114278571D01*
X163469047Y-114230952D01*
X164088095Y-114802380D02*
X164088095Y-113802380D01*
X164421428Y-114516666D01*
X164754761Y-113802380D01*
X164754761Y-114802380D01*
X165230952Y-114802380D02*
X165230952Y-113802380D01*
X165230952Y-114278571D02*
X165802380Y-114278571D01*
X165802380Y-114802380D02*
X165802380Y-113802380D01*
X166183333Y-114135714D02*
X166707142Y-114135714D01*
X166183333Y-114802380D01*
X166707142Y-114802380D01*
X167611904Y-114802380D02*
X167040476Y-114802380D01*
X167326190Y-114802380D02*
X167326190Y-113802380D01*
X167230952Y-113945238D01*
X167135714Y-114040476D01*
X167040476Y-114088095D01*
G04 #@! TO.C,BZ1*
X223028571Y-116630952D02*
X223076190Y-116488095D01*
X223123809Y-116440476D01*
X223219047Y-116392857D01*
X223361904Y-116392857D01*
X223457142Y-116440476D01*
X223504761Y-116488095D01*
X223552380Y-116583333D01*
X223552380Y-116964285D01*
X222552380Y-116964285D01*
X222552380Y-116630952D01*
X222600000Y-116535714D01*
X222647619Y-116488095D01*
X222742857Y-116440476D01*
X222838095Y-116440476D01*
X222933333Y-116488095D01*
X222980952Y-116535714D01*
X223028571Y-116630952D01*
X223028571Y-116964285D01*
X222552380Y-116059523D02*
X222552380Y-115392857D01*
X223552380Y-116059523D01*
X223552380Y-115392857D01*
X223552380Y-114488095D02*
X223552380Y-115059523D01*
X223552380Y-114773809D02*
X222552380Y-114773809D01*
X222695238Y-114869047D01*
X222790476Y-114964285D01*
X222838095Y-115059523D01*
G04 #@! TO.C,C1*
X147533333Y-123007142D02*
X147485714Y-123054761D01*
X147342857Y-123102380D01*
X147247619Y-123102380D01*
X147104761Y-123054761D01*
X147009523Y-122959523D01*
X146961904Y-122864285D01*
X146914285Y-122673809D01*
X146914285Y-122530952D01*
X146961904Y-122340476D01*
X147009523Y-122245238D01*
X147104761Y-122150000D01*
X147247619Y-122102380D01*
X147342857Y-122102380D01*
X147485714Y-122150000D01*
X147533333Y-122197619D01*
X148485714Y-123102380D02*
X147914285Y-123102380D01*
X148200000Y-123102380D02*
X148200000Y-122102380D01*
X148104761Y-122245238D01*
X148009523Y-122340476D01*
X147914285Y-122388095D01*
G04 #@! TO.C,C2*
X154807142Y-111216666D02*
X154854761Y-111264285D01*
X154902380Y-111407142D01*
X154902380Y-111502380D01*
X154854761Y-111645238D01*
X154759523Y-111740476D01*
X154664285Y-111788095D01*
X154473809Y-111835714D01*
X154330952Y-111835714D01*
X154140476Y-111788095D01*
X154045238Y-111740476D01*
X153950000Y-111645238D01*
X153902380Y-111502380D01*
X153902380Y-111407142D01*
X153950000Y-111264285D01*
X153997619Y-111216666D01*
X153997619Y-110835714D02*
X153950000Y-110788095D01*
X153902380Y-110692857D01*
X153902380Y-110454761D01*
X153950000Y-110359523D01*
X153997619Y-110311904D01*
X154092857Y-110264285D01*
X154188095Y-110264285D01*
X154330952Y-110311904D01*
X154902380Y-110883333D01*
X154902380Y-110264285D01*
G04 #@! TO.C,C3*
X147333333Y-114057142D02*
X147285714Y-114104761D01*
X147142857Y-114152380D01*
X147047619Y-114152380D01*
X146904761Y-114104761D01*
X146809523Y-114009523D01*
X146761904Y-113914285D01*
X146714285Y-113723809D01*
X146714285Y-113580952D01*
X146761904Y-113390476D01*
X146809523Y-113295238D01*
X146904761Y-113200000D01*
X147047619Y-113152380D01*
X147142857Y-113152380D01*
X147285714Y-113200000D01*
X147333333Y-113247619D01*
X147666666Y-113152380D02*
X148285714Y-113152380D01*
X147952380Y-113533333D01*
X148095238Y-113533333D01*
X148190476Y-113580952D01*
X148238095Y-113628571D01*
X148285714Y-113723809D01*
X148285714Y-113961904D01*
X148238095Y-114057142D01*
X148190476Y-114104761D01*
X148095238Y-114152380D01*
X147809523Y-114152380D01*
X147714285Y-114104761D01*
X147666666Y-114057142D01*
G04 #@! TO.C,C4*
X159907142Y-116966666D02*
X159954761Y-117014285D01*
X160002380Y-117157142D01*
X160002380Y-117252380D01*
X159954761Y-117395238D01*
X159859523Y-117490476D01*
X159764285Y-117538095D01*
X159573809Y-117585714D01*
X159430952Y-117585714D01*
X159240476Y-117538095D01*
X159145238Y-117490476D01*
X159050000Y-117395238D01*
X159002380Y-117252380D01*
X159002380Y-117157142D01*
X159050000Y-117014285D01*
X159097619Y-116966666D01*
X159335714Y-116109523D02*
X160002380Y-116109523D01*
X158954761Y-116347619D02*
X159669047Y-116585714D01*
X159669047Y-115966666D01*
G04 #@! TO.C,C5*
X161733333Y-110157142D02*
X161685714Y-110204761D01*
X161542857Y-110252380D01*
X161447619Y-110252380D01*
X161304761Y-110204761D01*
X161209523Y-110109523D01*
X161161904Y-110014285D01*
X161114285Y-109823809D01*
X161114285Y-109680952D01*
X161161904Y-109490476D01*
X161209523Y-109395238D01*
X161304761Y-109300000D01*
X161447619Y-109252380D01*
X161542857Y-109252380D01*
X161685714Y-109300000D01*
X161733333Y-109347619D01*
X162638095Y-109252380D02*
X162161904Y-109252380D01*
X162114285Y-109728571D01*
X162161904Y-109680952D01*
X162257142Y-109633333D01*
X162495238Y-109633333D01*
X162590476Y-109680952D01*
X162638095Y-109728571D01*
X162685714Y-109823809D01*
X162685714Y-110061904D01*
X162638095Y-110157142D01*
X162590476Y-110204761D01*
X162495238Y-110252380D01*
X162257142Y-110252380D01*
X162161904Y-110204761D01*
X162114285Y-110157142D01*
G04 #@! TO.C,C6*
X151383333Y-96057142D02*
X151335714Y-96104761D01*
X151192857Y-96152380D01*
X151097619Y-96152380D01*
X150954761Y-96104761D01*
X150859523Y-96009523D01*
X150811904Y-95914285D01*
X150764285Y-95723809D01*
X150764285Y-95580952D01*
X150811904Y-95390476D01*
X150859523Y-95295238D01*
X150954761Y-95200000D01*
X151097619Y-95152380D01*
X151192857Y-95152380D01*
X151335714Y-95200000D01*
X151383333Y-95247619D01*
X152240476Y-95152380D02*
X152050000Y-95152380D01*
X151954761Y-95200000D01*
X151907142Y-95247619D01*
X151811904Y-95390476D01*
X151764285Y-95580952D01*
X151764285Y-95961904D01*
X151811904Y-96057142D01*
X151859523Y-96104761D01*
X151954761Y-96152380D01*
X152145238Y-96152380D01*
X152240476Y-96104761D01*
X152288095Y-96057142D01*
X152335714Y-95961904D01*
X152335714Y-95723809D01*
X152288095Y-95628571D01*
X152240476Y-95580952D01*
X152145238Y-95533333D01*
X151954761Y-95533333D01*
X151859523Y-95580952D01*
X151811904Y-95628571D01*
X151764285Y-95723809D01*
G04 #@! TO.C,C7*
X140383333Y-95307142D02*
X140335714Y-95354761D01*
X140192857Y-95402380D01*
X140097619Y-95402380D01*
X139954761Y-95354761D01*
X139859523Y-95259523D01*
X139811904Y-95164285D01*
X139764285Y-94973809D01*
X139764285Y-94830952D01*
X139811904Y-94640476D01*
X139859523Y-94545238D01*
X139954761Y-94450000D01*
X140097619Y-94402380D01*
X140192857Y-94402380D01*
X140335714Y-94450000D01*
X140383333Y-94497619D01*
X140716666Y-94402380D02*
X141383333Y-94402380D01*
X140954761Y-95402380D01*
G04 #@! TO.C,C8*
X180183333Y-107907142D02*
X180135714Y-107954761D01*
X179992857Y-108002380D01*
X179897619Y-108002380D01*
X179754761Y-107954761D01*
X179659523Y-107859523D01*
X179611904Y-107764285D01*
X179564285Y-107573809D01*
X179564285Y-107430952D01*
X179611904Y-107240476D01*
X179659523Y-107145238D01*
X179754761Y-107050000D01*
X179897619Y-107002380D01*
X179992857Y-107002380D01*
X180135714Y-107050000D01*
X180183333Y-107097619D01*
X180754761Y-107430952D02*
X180659523Y-107383333D01*
X180611904Y-107335714D01*
X180564285Y-107240476D01*
X180564285Y-107192857D01*
X180611904Y-107097619D01*
X180659523Y-107050000D01*
X180754761Y-107002380D01*
X180945238Y-107002380D01*
X181040476Y-107050000D01*
X181088095Y-107097619D01*
X181135714Y-107192857D01*
X181135714Y-107240476D01*
X181088095Y-107335714D01*
X181040476Y-107383333D01*
X180945238Y-107430952D01*
X180754761Y-107430952D01*
X180659523Y-107478571D01*
X180611904Y-107526190D01*
X180564285Y-107621428D01*
X180564285Y-107811904D01*
X180611904Y-107907142D01*
X180659523Y-107954761D01*
X180754761Y-108002380D01*
X180945238Y-108002380D01*
X181040476Y-107954761D01*
X181088095Y-107907142D01*
X181135714Y-107811904D01*
X181135714Y-107621428D01*
X181088095Y-107526190D01*
X181040476Y-107478571D01*
X180945238Y-107430952D01*
G04 #@! TO.C,C9*
X170583333Y-117907142D02*
X170535714Y-117954761D01*
X170392857Y-118002380D01*
X170297619Y-118002380D01*
X170154761Y-117954761D01*
X170059523Y-117859523D01*
X170011904Y-117764285D01*
X169964285Y-117573809D01*
X169964285Y-117430952D01*
X170011904Y-117240476D01*
X170059523Y-117145238D01*
X170154761Y-117050000D01*
X170297619Y-117002380D01*
X170392857Y-117002380D01*
X170535714Y-117050000D01*
X170583333Y-117097619D01*
X171059523Y-118002380D02*
X171250000Y-118002380D01*
X171345238Y-117954761D01*
X171392857Y-117907142D01*
X171488095Y-117764285D01*
X171535714Y-117573809D01*
X171535714Y-117192857D01*
X171488095Y-117097619D01*
X171440476Y-117050000D01*
X171345238Y-117002380D01*
X171154761Y-117002380D01*
X171059523Y-117050000D01*
X171011904Y-117097619D01*
X170964285Y-117192857D01*
X170964285Y-117430952D01*
X171011904Y-117526190D01*
X171059523Y-117573809D01*
X171154761Y-117621428D01*
X171345238Y-117621428D01*
X171440476Y-117573809D01*
X171488095Y-117526190D01*
X171535714Y-117430952D01*
G04 #@! TO.C,C10*
X168107142Y-122292857D02*
X168154761Y-122340476D01*
X168202380Y-122483333D01*
X168202380Y-122578571D01*
X168154761Y-122721428D01*
X168059523Y-122816666D01*
X167964285Y-122864285D01*
X167773809Y-122911904D01*
X167630952Y-122911904D01*
X167440476Y-122864285D01*
X167345238Y-122816666D01*
X167250000Y-122721428D01*
X167202380Y-122578571D01*
X167202380Y-122483333D01*
X167250000Y-122340476D01*
X167297619Y-122292857D01*
X168202380Y-121340476D02*
X168202380Y-121911904D01*
X168202380Y-121626190D02*
X167202380Y-121626190D01*
X167345238Y-121721428D01*
X167440476Y-121816666D01*
X167488095Y-121911904D01*
X167202380Y-120721428D02*
X167202380Y-120626190D01*
X167250000Y-120530952D01*
X167297619Y-120483333D01*
X167392857Y-120435714D01*
X167583333Y-120388095D01*
X167821428Y-120388095D01*
X168011904Y-120435714D01*
X168107142Y-120483333D01*
X168154761Y-120530952D01*
X168202380Y-120626190D01*
X168202380Y-120721428D01*
X168154761Y-120816666D01*
X168107142Y-120864285D01*
X168011904Y-120911904D01*
X167821428Y-120959523D01*
X167583333Y-120959523D01*
X167392857Y-120911904D01*
X167297619Y-120864285D01*
X167250000Y-120816666D01*
X167202380Y-120721428D01*
G04 #@! TO.C,C11*
X163153186Y-122392887D02*
X163200805Y-122440506D01*
X163248424Y-122583363D01*
X163248424Y-122678601D01*
X163200805Y-122821458D01*
X163105567Y-122916696D01*
X163010329Y-122964315D01*
X162819853Y-123011934D01*
X162676996Y-123011934D01*
X162486520Y-122964315D01*
X162391282Y-122916696D01*
X162296044Y-122821458D01*
X162248424Y-122678601D01*
X162248424Y-122583363D01*
X162296044Y-122440506D01*
X162343663Y-122392887D01*
X163248424Y-121440506D02*
X163248424Y-122011934D01*
X163248424Y-121726220D02*
X162248424Y-121726220D01*
X162391282Y-121821458D01*
X162486520Y-121916696D01*
X162534139Y-122011934D01*
X163248424Y-120488125D02*
X163248424Y-121059553D01*
X163248424Y-120773839D02*
X162248424Y-120773839D01*
X162391282Y-120869077D01*
X162486520Y-120964315D01*
X162534139Y-121059553D01*
G04 #@! TO.C,C12*
X176957142Y-116957142D02*
X176909523Y-117004761D01*
X176766666Y-117052380D01*
X176671428Y-117052380D01*
X176528571Y-117004761D01*
X176433333Y-116909523D01*
X176385714Y-116814285D01*
X176338095Y-116623809D01*
X176338095Y-116480952D01*
X176385714Y-116290476D01*
X176433333Y-116195238D01*
X176528571Y-116100000D01*
X176671428Y-116052380D01*
X176766666Y-116052380D01*
X176909523Y-116100000D01*
X176957142Y-116147619D01*
X177909523Y-117052380D02*
X177338095Y-117052380D01*
X177623809Y-117052380D02*
X177623809Y-116052380D01*
X177528571Y-116195238D01*
X177433333Y-116290476D01*
X177338095Y-116338095D01*
X178290476Y-116147619D02*
X178338095Y-116100000D01*
X178433333Y-116052380D01*
X178671428Y-116052380D01*
X178766666Y-116100000D01*
X178814285Y-116147619D01*
X178861904Y-116242857D01*
X178861904Y-116338095D01*
X178814285Y-116480952D01*
X178242857Y-117052380D01*
X178861904Y-117052380D01*
G04 #@! TO.C,C13*
X157057142Y-111242857D02*
X157104761Y-111290476D01*
X157152380Y-111433333D01*
X157152380Y-111528571D01*
X157104761Y-111671428D01*
X157009523Y-111766666D01*
X156914285Y-111814285D01*
X156723809Y-111861904D01*
X156580952Y-111861904D01*
X156390476Y-111814285D01*
X156295238Y-111766666D01*
X156200000Y-111671428D01*
X156152380Y-111528571D01*
X156152380Y-111433333D01*
X156200000Y-111290476D01*
X156247619Y-111242857D01*
X157152380Y-110290476D02*
X157152380Y-110861904D01*
X157152380Y-110576190D02*
X156152380Y-110576190D01*
X156295238Y-110671428D01*
X156390476Y-110766666D01*
X156438095Y-110861904D01*
X156152380Y-109957142D02*
X156152380Y-109338095D01*
X156533333Y-109671428D01*
X156533333Y-109528571D01*
X156580952Y-109433333D01*
X156628571Y-109385714D01*
X156723809Y-109338095D01*
X156961904Y-109338095D01*
X157057142Y-109385714D01*
X157104761Y-109433333D01*
X157152380Y-109528571D01*
X157152380Y-109814285D01*
X157104761Y-109909523D01*
X157057142Y-109957142D01*
G04 #@! TO.C,C14*
X159157142Y-111242857D02*
X159204761Y-111290476D01*
X159252380Y-111433333D01*
X159252380Y-111528571D01*
X159204761Y-111671428D01*
X159109523Y-111766666D01*
X159014285Y-111814285D01*
X158823809Y-111861904D01*
X158680952Y-111861904D01*
X158490476Y-111814285D01*
X158395238Y-111766666D01*
X158300000Y-111671428D01*
X158252380Y-111528571D01*
X158252380Y-111433333D01*
X158300000Y-111290476D01*
X158347619Y-111242857D01*
X159252380Y-110290476D02*
X159252380Y-110861904D01*
X159252380Y-110576190D02*
X158252380Y-110576190D01*
X158395238Y-110671428D01*
X158490476Y-110766666D01*
X158538095Y-110861904D01*
X158585714Y-109433333D02*
X159252380Y-109433333D01*
X158204761Y-109671428D02*
X158919047Y-109909523D01*
X158919047Y-109290476D01*
G04 #@! TO.C,C15*
X154657142Y-127407142D02*
X154609523Y-127454761D01*
X154466666Y-127502380D01*
X154371428Y-127502380D01*
X154228571Y-127454761D01*
X154133333Y-127359523D01*
X154085714Y-127264285D01*
X154038095Y-127073809D01*
X154038095Y-126930952D01*
X154085714Y-126740476D01*
X154133333Y-126645238D01*
X154228571Y-126550000D01*
X154371428Y-126502380D01*
X154466666Y-126502380D01*
X154609523Y-126550000D01*
X154657142Y-126597619D01*
X155609523Y-127502380D02*
X155038095Y-127502380D01*
X155323809Y-127502380D02*
X155323809Y-126502380D01*
X155228571Y-126645238D01*
X155133333Y-126740476D01*
X155038095Y-126788095D01*
X156514285Y-126502380D02*
X156038095Y-126502380D01*
X155990476Y-126978571D01*
X156038095Y-126930952D01*
X156133333Y-126883333D01*
X156371428Y-126883333D01*
X156466666Y-126930952D01*
X156514285Y-126978571D01*
X156561904Y-127073809D01*
X156561904Y-127311904D01*
X156514285Y-127407142D01*
X156466666Y-127454761D01*
X156371428Y-127502380D01*
X156133333Y-127502380D01*
X156038095Y-127454761D01*
X155990476Y-127407142D01*
G04 #@! TO.C,C16*
X180257142Y-117992857D02*
X180304761Y-118040476D01*
X180352380Y-118183333D01*
X180352380Y-118278571D01*
X180304761Y-118421428D01*
X180209523Y-118516666D01*
X180114285Y-118564285D01*
X179923809Y-118611904D01*
X179780952Y-118611904D01*
X179590476Y-118564285D01*
X179495238Y-118516666D01*
X179400000Y-118421428D01*
X179352380Y-118278571D01*
X179352380Y-118183333D01*
X179400000Y-118040476D01*
X179447619Y-117992857D01*
X180352380Y-117040476D02*
X180352380Y-117611904D01*
X180352380Y-117326190D02*
X179352380Y-117326190D01*
X179495238Y-117421428D01*
X179590476Y-117516666D01*
X179638095Y-117611904D01*
X179352380Y-116183333D02*
X179352380Y-116373809D01*
X179400000Y-116469047D01*
X179447619Y-116516666D01*
X179590476Y-116611904D01*
X179780952Y-116659523D01*
X180161904Y-116659523D01*
X180257142Y-116611904D01*
X180304761Y-116564285D01*
X180352380Y-116469047D01*
X180352380Y-116278571D01*
X180304761Y-116183333D01*
X180257142Y-116135714D01*
X180161904Y-116088095D01*
X179923809Y-116088095D01*
X179828571Y-116135714D01*
X179780952Y-116183333D01*
X179733333Y-116278571D01*
X179733333Y-116469047D01*
X179780952Y-116564285D01*
X179828571Y-116611904D01*
X179923809Y-116659523D01*
G04 #@! TO.C,D1*
X165102380Y-102538095D02*
X164102380Y-102538095D01*
X164102380Y-102300000D01*
X164150000Y-102157142D01*
X164245238Y-102061904D01*
X164340476Y-102014285D01*
X164530952Y-101966666D01*
X164673809Y-101966666D01*
X164864285Y-102014285D01*
X164959523Y-102061904D01*
X165054761Y-102157142D01*
X165102380Y-102300000D01*
X165102380Y-102538095D01*
X165102380Y-101014285D02*
X165102380Y-101585714D01*
X165102380Y-101300000D02*
X164102380Y-101300000D01*
X164245238Y-101395238D01*
X164340476Y-101490476D01*
X164388095Y-101585714D01*
G04 #@! TO.C,D2*
X198052380Y-95138095D02*
X197052380Y-95138095D01*
X197052380Y-94900000D01*
X197100000Y-94757142D01*
X197195238Y-94661904D01*
X197290476Y-94614285D01*
X197480952Y-94566666D01*
X197623809Y-94566666D01*
X197814285Y-94614285D01*
X197909523Y-94661904D01*
X198004761Y-94757142D01*
X198052380Y-94900000D01*
X198052380Y-95138095D01*
X197147619Y-94185714D02*
X197100000Y-94138095D01*
X197052380Y-94042857D01*
X197052380Y-93804761D01*
X197100000Y-93709523D01*
X197147619Y-93661904D01*
X197242857Y-93614285D01*
X197338095Y-93614285D01*
X197480952Y-93661904D01*
X198052380Y-94233333D01*
X198052380Y-93614285D01*
G04 #@! TO.C,D3*
X137052380Y-122038095D02*
X136052380Y-122038095D01*
X136052380Y-121800000D01*
X136100000Y-121657142D01*
X136195238Y-121561904D01*
X136290476Y-121514285D01*
X136480952Y-121466666D01*
X136623809Y-121466666D01*
X136814285Y-121514285D01*
X136909523Y-121561904D01*
X137004761Y-121657142D01*
X137052380Y-121800000D01*
X137052380Y-122038095D01*
X136052380Y-121133333D02*
X136052380Y-120514285D01*
X136433333Y-120847619D01*
X136433333Y-120704761D01*
X136480952Y-120609523D01*
X136528571Y-120561904D01*
X136623809Y-120514285D01*
X136861904Y-120514285D01*
X136957142Y-120561904D01*
X137004761Y-120609523D01*
X137052380Y-120704761D01*
X137052380Y-120990476D01*
X137004761Y-121085714D01*
X136957142Y-121133333D01*
G04 #@! TO.C,D7*
X170111904Y-126102380D02*
X170111904Y-125102380D01*
X170350000Y-125102380D01*
X170492857Y-125150000D01*
X170588095Y-125245238D01*
X170635714Y-125340476D01*
X170683333Y-125530952D01*
X170683333Y-125673809D01*
X170635714Y-125864285D01*
X170588095Y-125959523D01*
X170492857Y-126054761D01*
X170350000Y-126102380D01*
X170111904Y-126102380D01*
X171016666Y-125102380D02*
X171683333Y-125102380D01*
X171254761Y-126102380D01*
G04 #@! TO.C,D8*
X170111904Y-128252380D02*
X170111904Y-127252380D01*
X170350000Y-127252380D01*
X170492857Y-127300000D01*
X170588095Y-127395238D01*
X170635714Y-127490476D01*
X170683333Y-127680952D01*
X170683333Y-127823809D01*
X170635714Y-128014285D01*
X170588095Y-128109523D01*
X170492857Y-128204761D01*
X170350000Y-128252380D01*
X170111904Y-128252380D01*
X171254761Y-127680952D02*
X171159523Y-127633333D01*
X171111904Y-127585714D01*
X171064285Y-127490476D01*
X171064285Y-127442857D01*
X171111904Y-127347619D01*
X171159523Y-127300000D01*
X171254761Y-127252380D01*
X171445238Y-127252380D01*
X171540476Y-127300000D01*
X171588095Y-127347619D01*
X171635714Y-127442857D01*
X171635714Y-127490476D01*
X171588095Y-127585714D01*
X171540476Y-127633333D01*
X171445238Y-127680952D01*
X171254761Y-127680952D01*
X171159523Y-127728571D01*
X171111904Y-127776190D01*
X171064285Y-127871428D01*
X171064285Y-128061904D01*
X171111904Y-128157142D01*
X171159523Y-128204761D01*
X171254761Y-128252380D01*
X171445238Y-128252380D01*
X171540476Y-128204761D01*
X171588095Y-128157142D01*
X171635714Y-128061904D01*
X171635714Y-127871428D01*
X171588095Y-127776190D01*
X171540476Y-127728571D01*
X171445238Y-127680952D01*
G04 #@! TO.C,D9*
X142452380Y-122188095D02*
X141452380Y-122188095D01*
X141452380Y-121950000D01*
X141500000Y-121807142D01*
X141595238Y-121711904D01*
X141690476Y-121664285D01*
X141880952Y-121616666D01*
X142023809Y-121616666D01*
X142214285Y-121664285D01*
X142309523Y-121711904D01*
X142404761Y-121807142D01*
X142452380Y-121950000D01*
X142452380Y-122188095D01*
X142452380Y-121140476D02*
X142452380Y-120950000D01*
X142404761Y-120854761D01*
X142357142Y-120807142D01*
X142214285Y-120711904D01*
X142023809Y-120664285D01*
X141642857Y-120664285D01*
X141547619Y-120711904D01*
X141500000Y-120759523D01*
X141452380Y-120854761D01*
X141452380Y-121045238D01*
X141500000Y-121140476D01*
X141547619Y-121188095D01*
X141642857Y-121235714D01*
X141880952Y-121235714D01*
X141976190Y-121188095D01*
X142023809Y-121140476D01*
X142071428Y-121045238D01*
X142071428Y-120854761D01*
X142023809Y-120759523D01*
X141976190Y-120711904D01*
X141880952Y-120664285D01*
G04 #@! TO.C,D10*
X137052380Y-126014285D02*
X136052380Y-126014285D01*
X136052380Y-125776190D01*
X136100000Y-125633333D01*
X136195238Y-125538095D01*
X136290476Y-125490476D01*
X136480952Y-125442857D01*
X136623809Y-125442857D01*
X136814285Y-125490476D01*
X136909523Y-125538095D01*
X137004761Y-125633333D01*
X137052380Y-125776190D01*
X137052380Y-126014285D01*
X137052380Y-124490476D02*
X137052380Y-125061904D01*
X137052380Y-124776190D02*
X136052380Y-124776190D01*
X136195238Y-124871428D01*
X136290476Y-124966666D01*
X136338095Y-125061904D01*
X136052380Y-123871428D02*
X136052380Y-123776190D01*
X136100000Y-123680952D01*
X136147619Y-123633333D01*
X136242857Y-123585714D01*
X136433333Y-123538095D01*
X136671428Y-123538095D01*
X136861904Y-123585714D01*
X136957142Y-123633333D01*
X137004761Y-123680952D01*
X137052380Y-123776190D01*
X137052380Y-123871428D01*
X137004761Y-123966666D01*
X136957142Y-124014285D01*
X136861904Y-124061904D01*
X136671428Y-124109523D01*
X136433333Y-124109523D01*
X136242857Y-124061904D01*
X136147619Y-124014285D01*
X136100000Y-123966666D01*
X136052380Y-123871428D01*
G04 #@! TO.C,D11*
X142402380Y-126064285D02*
X141402380Y-126064285D01*
X141402380Y-125826190D01*
X141450000Y-125683333D01*
X141545238Y-125588095D01*
X141640476Y-125540476D01*
X141830952Y-125492857D01*
X141973809Y-125492857D01*
X142164285Y-125540476D01*
X142259523Y-125588095D01*
X142354761Y-125683333D01*
X142402380Y-125826190D01*
X142402380Y-126064285D01*
X142402380Y-124540476D02*
X142402380Y-125111904D01*
X142402380Y-124826190D02*
X141402380Y-124826190D01*
X141545238Y-124921428D01*
X141640476Y-125016666D01*
X141688095Y-125111904D01*
X142402380Y-123588095D02*
X142402380Y-124159523D01*
X142402380Y-123873809D02*
X141402380Y-123873809D01*
X141545238Y-123969047D01*
X141640476Y-124064285D01*
X141688095Y-124159523D01*
G04 #@! TO.C,IC2*
X155773809Y-117652380D02*
X155773809Y-116652380D01*
X156821428Y-117557142D02*
X156773809Y-117604761D01*
X156630952Y-117652380D01*
X156535714Y-117652380D01*
X156392857Y-117604761D01*
X156297619Y-117509523D01*
X156250000Y-117414285D01*
X156202380Y-117223809D01*
X156202380Y-117080952D01*
X156250000Y-116890476D01*
X156297619Y-116795238D01*
X156392857Y-116700000D01*
X156535714Y-116652380D01*
X156630952Y-116652380D01*
X156773809Y-116700000D01*
X156821428Y-116747619D01*
X157202380Y-116747619D02*
X157250000Y-116700000D01*
X157345238Y-116652380D01*
X157583333Y-116652380D01*
X157678571Y-116700000D01*
X157726190Y-116747619D01*
X157773809Y-116842857D01*
X157773809Y-116938095D01*
X157726190Y-117080952D01*
X157154761Y-117652380D01*
X157773809Y-117652380D01*
G04 #@! TO.C,J1*
X150491667Y-110347381D02*
X150491667Y-111061667D01*
X150444048Y-111204524D01*
X150348810Y-111299762D01*
X150205953Y-111347381D01*
X150110715Y-111347381D01*
X151491667Y-111347381D02*
X150920239Y-111347381D01*
X151205953Y-111347381D02*
X151205953Y-110347381D01*
X151110715Y-110490239D01*
X151015477Y-110585477D01*
X150920239Y-110633096D01*
G04 #@! TO.C,J3*
X183327903Y-123196381D02*
X183327903Y-123910667D01*
X183280284Y-124053524D01*
X183185046Y-124148762D01*
X183042189Y-124196381D01*
X182946951Y-124196381D01*
X183708856Y-123196381D02*
X184327903Y-123196381D01*
X183994570Y-123577334D01*
X184137427Y-123577334D01*
X184232665Y-123624953D01*
X184280284Y-123672572D01*
X184327903Y-123767810D01*
X184327903Y-124005905D01*
X184280284Y-124101143D01*
X184232665Y-124148762D01*
X184137427Y-124196381D01*
X183851713Y-124196381D01*
X183756475Y-124148762D01*
X183708856Y-124101143D01*
G04 #@! TO.C,J5*
X212327903Y-108536381D02*
X212327903Y-109250667D01*
X212280284Y-109393524D01*
X212185046Y-109488762D01*
X212042189Y-109536381D01*
X211946951Y-109536381D01*
X213280284Y-108536381D02*
X212804094Y-108536381D01*
X212756475Y-109012572D01*
X212804094Y-108964953D01*
X212899332Y-108917334D01*
X213137427Y-108917334D01*
X213232665Y-108964953D01*
X213280284Y-109012572D01*
X213327903Y-109107810D01*
X213327903Y-109345905D01*
X213280284Y-109441143D01*
X213232665Y-109488762D01*
X213137427Y-109536381D01*
X212899332Y-109536381D01*
X212804094Y-109488762D01*
X212756475Y-109441143D01*
G04 #@! TO.C,JP2*
X173416666Y-124802380D02*
X173416666Y-125516666D01*
X173369047Y-125659523D01*
X173273809Y-125754761D01*
X173130952Y-125802380D01*
X173035714Y-125802380D01*
X173892857Y-125802380D02*
X173892857Y-124802380D01*
X174273809Y-124802380D01*
X174369047Y-124850000D01*
X174416666Y-124897619D01*
X174464285Y-124992857D01*
X174464285Y-125135714D01*
X174416666Y-125230952D01*
X174369047Y-125278571D01*
X174273809Y-125326190D01*
X173892857Y-125326190D01*
X174845238Y-124897619D02*
X174892857Y-124850000D01*
X174988095Y-124802380D01*
X175226190Y-124802380D01*
X175321428Y-124850000D01*
X175369047Y-124897619D01*
X175416666Y-124992857D01*
X175416666Y-125088095D01*
X175369047Y-125230952D01*
X174797619Y-125802380D01*
X175416666Y-125802380D01*
G04 #@! TO.C,L2*
X178583333Y-126802380D02*
X178107142Y-126802380D01*
X178107142Y-125802380D01*
X178869047Y-125897619D02*
X178916666Y-125850000D01*
X179011904Y-125802380D01*
X179250000Y-125802380D01*
X179345238Y-125850000D01*
X179392857Y-125897619D01*
X179440476Y-125992857D01*
X179440476Y-126088095D01*
X179392857Y-126230952D01*
X178821428Y-126802380D01*
X179440476Y-126802380D01*
G04 #@! TO.C,Q1*
X215797619Y-124995238D02*
X215750000Y-125090476D01*
X215654761Y-125185714D01*
X215511904Y-125328571D01*
X215464285Y-125423809D01*
X215464285Y-125519047D01*
X215702380Y-125471428D02*
X215654761Y-125566666D01*
X215559523Y-125661904D01*
X215369047Y-125709523D01*
X215035714Y-125709523D01*
X214845238Y-125661904D01*
X214750000Y-125566666D01*
X214702380Y-125471428D01*
X214702380Y-125280952D01*
X214750000Y-125185714D01*
X214845238Y-125090476D01*
X215035714Y-125042857D01*
X215369047Y-125042857D01*
X215559523Y-125090476D01*
X215654761Y-125185714D01*
X215702380Y-125280952D01*
X215702380Y-125471428D01*
X215702380Y-124090476D02*
X215702380Y-124661904D01*
X215702380Y-124376190D02*
X214702380Y-124376190D01*
X214845238Y-124471428D01*
X214940476Y-124566666D01*
X214988095Y-124661904D01*
G04 #@! TO.C,Q3*
X136704761Y-111447619D02*
X136609523Y-111400000D01*
X136514285Y-111304761D01*
X136371428Y-111161904D01*
X136276190Y-111114285D01*
X136180952Y-111114285D01*
X136228571Y-111352380D02*
X136133333Y-111304761D01*
X136038095Y-111209523D01*
X135990476Y-111019047D01*
X135990476Y-110685714D01*
X136038095Y-110495238D01*
X136133333Y-110400000D01*
X136228571Y-110352380D01*
X136419047Y-110352380D01*
X136514285Y-110400000D01*
X136609523Y-110495238D01*
X136657142Y-110685714D01*
X136657142Y-111019047D01*
X136609523Y-111209523D01*
X136514285Y-111304761D01*
X136419047Y-111352380D01*
X136228571Y-111352380D01*
X136990476Y-110352380D02*
X137609523Y-110352380D01*
X137276190Y-110733333D01*
X137419047Y-110733333D01*
X137514285Y-110780952D01*
X137561904Y-110828571D01*
X137609523Y-110923809D01*
X137609523Y-111161904D01*
X137561904Y-111257142D01*
X137514285Y-111304761D01*
X137419047Y-111352380D01*
X137133333Y-111352380D01*
X137038095Y-111304761D01*
X136990476Y-111257142D01*
G04 #@! TO.C,Q5*
X168504761Y-95947619D02*
X168409523Y-95900000D01*
X168314285Y-95804761D01*
X168171428Y-95661904D01*
X168076190Y-95614285D01*
X167980952Y-95614285D01*
X168028571Y-95852380D02*
X167933333Y-95804761D01*
X167838095Y-95709523D01*
X167790476Y-95519047D01*
X167790476Y-95185714D01*
X167838095Y-94995238D01*
X167933333Y-94900000D01*
X168028571Y-94852380D01*
X168219047Y-94852380D01*
X168314285Y-94900000D01*
X168409523Y-94995238D01*
X168457142Y-95185714D01*
X168457142Y-95519047D01*
X168409523Y-95709523D01*
X168314285Y-95804761D01*
X168219047Y-95852380D01*
X168028571Y-95852380D01*
X169361904Y-94852380D02*
X168885714Y-94852380D01*
X168838095Y-95328571D01*
X168885714Y-95280952D01*
X168980952Y-95233333D01*
X169219047Y-95233333D01*
X169314285Y-95280952D01*
X169361904Y-95328571D01*
X169409523Y-95423809D01*
X169409523Y-95661904D01*
X169361904Y-95757142D01*
X169314285Y-95804761D01*
X169219047Y-95852380D01*
X168980952Y-95852380D01*
X168885714Y-95804761D01*
X168838095Y-95757142D01*
G04 #@! TO.C,R1*
X146383333Y-117152380D02*
X146050000Y-116676190D01*
X145811904Y-117152380D02*
X145811904Y-116152380D01*
X146192857Y-116152380D01*
X146288095Y-116200000D01*
X146335714Y-116247619D01*
X146383333Y-116342857D01*
X146383333Y-116485714D01*
X146335714Y-116580952D01*
X146288095Y-116628571D01*
X146192857Y-116676190D01*
X145811904Y-116676190D01*
X147335714Y-117152380D02*
X146764285Y-117152380D01*
X147050000Y-117152380D02*
X147050000Y-116152380D01*
X146954761Y-116295238D01*
X146859523Y-116390476D01*
X146764285Y-116438095D01*
G04 #@! TO.C,R2*
X137983333Y-118852380D02*
X137650000Y-118376190D01*
X137411904Y-118852380D02*
X137411904Y-117852380D01*
X137792857Y-117852380D01*
X137888095Y-117900000D01*
X137935714Y-117947619D01*
X137983333Y-118042857D01*
X137983333Y-118185714D01*
X137935714Y-118280952D01*
X137888095Y-118328571D01*
X137792857Y-118376190D01*
X137411904Y-118376190D01*
X138364285Y-117947619D02*
X138411904Y-117900000D01*
X138507142Y-117852380D01*
X138745238Y-117852380D01*
X138840476Y-117900000D01*
X138888095Y-117947619D01*
X138935714Y-118042857D01*
X138935714Y-118138095D01*
X138888095Y-118280952D01*
X138316666Y-118852380D01*
X138935714Y-118852380D01*
G04 #@! TO.C,R3*
X147652380Y-106616666D02*
X147176190Y-106950000D01*
X147652380Y-107188095D02*
X146652380Y-107188095D01*
X146652380Y-106807142D01*
X146700000Y-106711904D01*
X146747619Y-106664285D01*
X146842857Y-106616666D01*
X146985714Y-106616666D01*
X147080952Y-106664285D01*
X147128571Y-106711904D01*
X147176190Y-106807142D01*
X147176190Y-107188095D01*
X146652380Y-106283333D02*
X146652380Y-105664285D01*
X147033333Y-105997619D01*
X147033333Y-105854761D01*
X147080952Y-105759523D01*
X147128571Y-105711904D01*
X147223809Y-105664285D01*
X147461904Y-105664285D01*
X147557142Y-105711904D01*
X147604761Y-105759523D01*
X147652380Y-105854761D01*
X147652380Y-106140476D01*
X147604761Y-106235714D01*
X147557142Y-106283333D01*
G04 #@! TO.C,R5*
X213633333Y-126952380D02*
X213300000Y-126476190D01*
X213061904Y-126952380D02*
X213061904Y-125952380D01*
X213442857Y-125952380D01*
X213538095Y-126000000D01*
X213585714Y-126047619D01*
X213633333Y-126142857D01*
X213633333Y-126285714D01*
X213585714Y-126380952D01*
X213538095Y-126428571D01*
X213442857Y-126476190D01*
X213061904Y-126476190D01*
X214538095Y-125952380D02*
X214061904Y-125952380D01*
X214014285Y-126428571D01*
X214061904Y-126380952D01*
X214157142Y-126333333D01*
X214395238Y-126333333D01*
X214490476Y-126380952D01*
X214538095Y-126428571D01*
X214585714Y-126523809D01*
X214585714Y-126761904D01*
X214538095Y-126857142D01*
X214490476Y-126904761D01*
X214395238Y-126952380D01*
X214157142Y-126952380D01*
X214061904Y-126904761D01*
X214014285Y-126857142D01*
G04 #@! TO.C,R6*
X219083333Y-102152380D02*
X218750000Y-101676190D01*
X218511904Y-102152380D02*
X218511904Y-101152380D01*
X218892857Y-101152380D01*
X218988095Y-101200000D01*
X219035714Y-101247619D01*
X219083333Y-101342857D01*
X219083333Y-101485714D01*
X219035714Y-101580952D01*
X218988095Y-101628571D01*
X218892857Y-101676190D01*
X218511904Y-101676190D01*
X219940476Y-101152380D02*
X219750000Y-101152380D01*
X219654761Y-101200000D01*
X219607142Y-101247619D01*
X219511904Y-101390476D01*
X219464285Y-101580952D01*
X219464285Y-101961904D01*
X219511904Y-102057142D01*
X219559523Y-102104761D01*
X219654761Y-102152380D01*
X219845238Y-102152380D01*
X219940476Y-102104761D01*
X219988095Y-102057142D01*
X220035714Y-101961904D01*
X220035714Y-101723809D01*
X219988095Y-101628571D01*
X219940476Y-101580952D01*
X219845238Y-101533333D01*
X219654761Y-101533333D01*
X219559523Y-101580952D01*
X219511904Y-101628571D01*
X219464285Y-101723809D01*
G04 #@! TO.C,R7*
X196933333Y-97052380D02*
X196600000Y-96576190D01*
X196361904Y-97052380D02*
X196361904Y-96052380D01*
X196742857Y-96052380D01*
X196838095Y-96100000D01*
X196885714Y-96147619D01*
X196933333Y-96242857D01*
X196933333Y-96385714D01*
X196885714Y-96480952D01*
X196838095Y-96528571D01*
X196742857Y-96576190D01*
X196361904Y-96576190D01*
X197266666Y-96052380D02*
X197933333Y-96052380D01*
X197504761Y-97052380D01*
G04 #@! TO.C,R9*
X166983333Y-98352380D02*
X166650000Y-97876190D01*
X166411904Y-98352380D02*
X166411904Y-97352380D01*
X166792857Y-97352380D01*
X166888095Y-97400000D01*
X166935714Y-97447619D01*
X166983333Y-97542857D01*
X166983333Y-97685714D01*
X166935714Y-97780952D01*
X166888095Y-97828571D01*
X166792857Y-97876190D01*
X166411904Y-97876190D01*
X167459523Y-98352380D02*
X167650000Y-98352380D01*
X167745238Y-98304761D01*
X167792857Y-98257142D01*
X167888095Y-98114285D01*
X167935714Y-97923809D01*
X167935714Y-97542857D01*
X167888095Y-97447619D01*
X167840476Y-97400000D01*
X167745238Y-97352380D01*
X167554761Y-97352380D01*
X167459523Y-97400000D01*
X167411904Y-97447619D01*
X167364285Y-97542857D01*
X167364285Y-97780952D01*
X167411904Y-97876190D01*
X167459523Y-97923809D01*
X167554761Y-97971428D01*
X167745238Y-97971428D01*
X167840476Y-97923809D01*
X167888095Y-97876190D01*
X167935714Y-97780952D01*
G04 #@! TO.C,R10*
X143957142Y-109102380D02*
X143623809Y-108626190D01*
X143385714Y-109102380D02*
X143385714Y-108102380D01*
X143766666Y-108102380D01*
X143861904Y-108150000D01*
X143909523Y-108197619D01*
X143957142Y-108292857D01*
X143957142Y-108435714D01*
X143909523Y-108530952D01*
X143861904Y-108578571D01*
X143766666Y-108626190D01*
X143385714Y-108626190D01*
X144909523Y-109102380D02*
X144338095Y-109102380D01*
X144623809Y-109102380D02*
X144623809Y-108102380D01*
X144528571Y-108245238D01*
X144433333Y-108340476D01*
X144338095Y-108388095D01*
X145528571Y-108102380D02*
X145623809Y-108102380D01*
X145719047Y-108150000D01*
X145766666Y-108197619D01*
X145814285Y-108292857D01*
X145861904Y-108483333D01*
X145861904Y-108721428D01*
X145814285Y-108911904D01*
X145766666Y-109007142D01*
X145719047Y-109054761D01*
X145623809Y-109102380D01*
X145528571Y-109102380D01*
X145433333Y-109054761D01*
X145385714Y-109007142D01*
X145338095Y-108911904D01*
X145290476Y-108721428D01*
X145290476Y-108483333D01*
X145338095Y-108292857D01*
X145385714Y-108197619D01*
X145433333Y-108150000D01*
X145528571Y-108102380D01*
G04 #@! TO.C,R11*
X212507142Y-100352380D02*
X212173809Y-99876190D01*
X211935714Y-100352380D02*
X211935714Y-99352380D01*
X212316666Y-99352380D01*
X212411904Y-99400000D01*
X212459523Y-99447619D01*
X212507142Y-99542857D01*
X212507142Y-99685714D01*
X212459523Y-99780952D01*
X212411904Y-99828571D01*
X212316666Y-99876190D01*
X211935714Y-99876190D01*
X213459523Y-100352380D02*
X212888095Y-100352380D01*
X213173809Y-100352380D02*
X213173809Y-99352380D01*
X213078571Y-99495238D01*
X212983333Y-99590476D01*
X212888095Y-99638095D01*
X214411904Y-100352380D02*
X213840476Y-100352380D01*
X214126190Y-100352380D02*
X214126190Y-99352380D01*
X214030952Y-99495238D01*
X213935714Y-99590476D01*
X213840476Y-99638095D01*
G04 #@! TO.C,R12*
X180657142Y-95402380D02*
X180323809Y-94926190D01*
X180085714Y-95402380D02*
X180085714Y-94402380D01*
X180466666Y-94402380D01*
X180561904Y-94450000D01*
X180609523Y-94497619D01*
X180657142Y-94592857D01*
X180657142Y-94735714D01*
X180609523Y-94830952D01*
X180561904Y-94878571D01*
X180466666Y-94926190D01*
X180085714Y-94926190D01*
X181609523Y-95402380D02*
X181038095Y-95402380D01*
X181323809Y-95402380D02*
X181323809Y-94402380D01*
X181228571Y-94545238D01*
X181133333Y-94640476D01*
X181038095Y-94688095D01*
X181990476Y-94497619D02*
X182038095Y-94450000D01*
X182133333Y-94402380D01*
X182371428Y-94402380D01*
X182466666Y-94450000D01*
X182514285Y-94497619D01*
X182561904Y-94592857D01*
X182561904Y-94688095D01*
X182514285Y-94830952D01*
X181942857Y-95402380D01*
X182561904Y-95402380D01*
G04 #@! TO.C,R13*
X160207142Y-126202380D02*
X159873809Y-125726190D01*
X159635714Y-126202380D02*
X159635714Y-125202380D01*
X160016666Y-125202380D01*
X160111904Y-125250000D01*
X160159523Y-125297619D01*
X160207142Y-125392857D01*
X160207142Y-125535714D01*
X160159523Y-125630952D01*
X160111904Y-125678571D01*
X160016666Y-125726190D01*
X159635714Y-125726190D01*
X161159523Y-126202380D02*
X160588095Y-126202380D01*
X160873809Y-126202380D02*
X160873809Y-125202380D01*
X160778571Y-125345238D01*
X160683333Y-125440476D01*
X160588095Y-125488095D01*
X161492857Y-125202380D02*
X162111904Y-125202380D01*
X161778571Y-125583333D01*
X161921428Y-125583333D01*
X162016666Y-125630952D01*
X162064285Y-125678571D01*
X162111904Y-125773809D01*
X162111904Y-126011904D01*
X162064285Y-126107142D01*
X162016666Y-126154761D01*
X161921428Y-126202380D01*
X161635714Y-126202380D01*
X161540476Y-126154761D01*
X161492857Y-126107142D01*
G04 #@! TO.C,R14*
X160257142Y-128352380D02*
X159923809Y-127876190D01*
X159685714Y-128352380D02*
X159685714Y-127352380D01*
X160066666Y-127352380D01*
X160161904Y-127400000D01*
X160209523Y-127447619D01*
X160257142Y-127542857D01*
X160257142Y-127685714D01*
X160209523Y-127780952D01*
X160161904Y-127828571D01*
X160066666Y-127876190D01*
X159685714Y-127876190D01*
X161209523Y-128352380D02*
X160638095Y-128352380D01*
X160923809Y-128352380D02*
X160923809Y-127352380D01*
X160828571Y-127495238D01*
X160733333Y-127590476D01*
X160638095Y-127638095D01*
X162066666Y-127685714D02*
X162066666Y-128352380D01*
X161828571Y-127304761D02*
X161590476Y-128019047D01*
X162209523Y-128019047D01*
G04 #@! TO.C,R15*
X150057142Y-118902380D02*
X149723809Y-118426190D01*
X149485714Y-118902380D02*
X149485714Y-117902380D01*
X149866666Y-117902380D01*
X149961904Y-117950000D01*
X150009523Y-117997619D01*
X150057142Y-118092857D01*
X150057142Y-118235714D01*
X150009523Y-118330952D01*
X149961904Y-118378571D01*
X149866666Y-118426190D01*
X149485714Y-118426190D01*
X151009523Y-118902380D02*
X150438095Y-118902380D01*
X150723809Y-118902380D02*
X150723809Y-117902380D01*
X150628571Y-118045238D01*
X150533333Y-118140476D01*
X150438095Y-118188095D01*
X151914285Y-117902380D02*
X151438095Y-117902380D01*
X151390476Y-118378571D01*
X151438095Y-118330952D01*
X151533333Y-118283333D01*
X151771428Y-118283333D01*
X151866666Y-118330952D01*
X151914285Y-118378571D01*
X151961904Y-118473809D01*
X151961904Y-118711904D01*
X151914285Y-118807142D01*
X151866666Y-118854761D01*
X151771428Y-118902380D01*
X151533333Y-118902380D01*
X151438095Y-118854761D01*
X151390476Y-118807142D01*
G04 #@! TO.C,R16*
X149702380Y-106792857D02*
X149226190Y-107126190D01*
X149702380Y-107364285D02*
X148702380Y-107364285D01*
X148702380Y-106983333D01*
X148750000Y-106888095D01*
X148797619Y-106840476D01*
X148892857Y-106792857D01*
X149035714Y-106792857D01*
X149130952Y-106840476D01*
X149178571Y-106888095D01*
X149226190Y-106983333D01*
X149226190Y-107364285D01*
X149702380Y-105840476D02*
X149702380Y-106411904D01*
X149702380Y-106126190D02*
X148702380Y-106126190D01*
X148845238Y-106221428D01*
X148940476Y-106316666D01*
X148988095Y-106411904D01*
X148702380Y-104983333D02*
X148702380Y-105173809D01*
X148750000Y-105269047D01*
X148797619Y-105316666D01*
X148940476Y-105411904D01*
X149130952Y-105459523D01*
X149511904Y-105459523D01*
X149607142Y-105411904D01*
X149654761Y-105364285D01*
X149702380Y-105269047D01*
X149702380Y-105078571D01*
X149654761Y-104983333D01*
X149607142Y-104935714D01*
X149511904Y-104888095D01*
X149273809Y-104888095D01*
X149178571Y-104935714D01*
X149130952Y-104983333D01*
X149083333Y-105078571D01*
X149083333Y-105269047D01*
X149130952Y-105364285D01*
X149178571Y-105411904D01*
X149273809Y-105459523D01*
G04 #@! TO.C,R17*
X155657142Y-94652380D02*
X155323809Y-94176190D01*
X155085714Y-94652380D02*
X155085714Y-93652380D01*
X155466666Y-93652380D01*
X155561904Y-93700000D01*
X155609523Y-93747619D01*
X155657142Y-93842857D01*
X155657142Y-93985714D01*
X155609523Y-94080952D01*
X155561904Y-94128571D01*
X155466666Y-94176190D01*
X155085714Y-94176190D01*
X156609523Y-94652380D02*
X156038095Y-94652380D01*
X156323809Y-94652380D02*
X156323809Y-93652380D01*
X156228571Y-93795238D01*
X156133333Y-93890476D01*
X156038095Y-93938095D01*
X156942857Y-93652380D02*
X157609523Y-93652380D01*
X157180952Y-94652380D01*
G04 #@! TO.C,R18*
X165252380Y-106342857D02*
X164776190Y-106676190D01*
X165252380Y-106914285D02*
X164252380Y-106914285D01*
X164252380Y-106533333D01*
X164300000Y-106438095D01*
X164347619Y-106390476D01*
X164442857Y-106342857D01*
X164585714Y-106342857D01*
X164680952Y-106390476D01*
X164728571Y-106438095D01*
X164776190Y-106533333D01*
X164776190Y-106914285D01*
X165252380Y-105390476D02*
X165252380Y-105961904D01*
X165252380Y-105676190D02*
X164252380Y-105676190D01*
X164395238Y-105771428D01*
X164490476Y-105866666D01*
X164538095Y-105961904D01*
X164680952Y-104819047D02*
X164633333Y-104914285D01*
X164585714Y-104961904D01*
X164490476Y-105009523D01*
X164442857Y-105009523D01*
X164347619Y-104961904D01*
X164300000Y-104914285D01*
X164252380Y-104819047D01*
X164252380Y-104628571D01*
X164300000Y-104533333D01*
X164347619Y-104485714D01*
X164442857Y-104438095D01*
X164490476Y-104438095D01*
X164585714Y-104485714D01*
X164633333Y-104533333D01*
X164680952Y-104628571D01*
X164680952Y-104819047D01*
X164728571Y-104914285D01*
X164776190Y-104961904D01*
X164871428Y-105009523D01*
X165061904Y-105009523D01*
X165157142Y-104961904D01*
X165204761Y-104914285D01*
X165252380Y-104819047D01*
X165252380Y-104628571D01*
X165204761Y-104533333D01*
X165157142Y-104485714D01*
X165061904Y-104438095D01*
X164871428Y-104438095D01*
X164776190Y-104485714D01*
X164728571Y-104533333D01*
X164680952Y-104628571D01*
G04 #@! TO.C,R19*
X169457142Y-103752380D02*
X169123809Y-103276190D01*
X168885714Y-103752380D02*
X168885714Y-102752380D01*
X169266666Y-102752380D01*
X169361904Y-102800000D01*
X169409523Y-102847619D01*
X169457142Y-102942857D01*
X169457142Y-103085714D01*
X169409523Y-103180952D01*
X169361904Y-103228571D01*
X169266666Y-103276190D01*
X168885714Y-103276190D01*
X170409523Y-103752380D02*
X169838095Y-103752380D01*
X170123809Y-103752380D02*
X170123809Y-102752380D01*
X170028571Y-102895238D01*
X169933333Y-102990476D01*
X169838095Y-103038095D01*
X170885714Y-103752380D02*
X171076190Y-103752380D01*
X171171428Y-103704761D01*
X171219047Y-103657142D01*
X171314285Y-103514285D01*
X171361904Y-103323809D01*
X171361904Y-102942857D01*
X171314285Y-102847619D01*
X171266666Y-102800000D01*
X171171428Y-102752380D01*
X170980952Y-102752380D01*
X170885714Y-102800000D01*
X170838095Y-102847619D01*
X170790476Y-102942857D01*
X170790476Y-103180952D01*
X170838095Y-103276190D01*
X170885714Y-103323809D01*
X170980952Y-103371428D01*
X171171428Y-103371428D01*
X171266666Y-103323809D01*
X171314285Y-103276190D01*
X171361904Y-103180952D01*
G04 #@! TO.C,R20*
X169407142Y-101852380D02*
X169073809Y-101376190D01*
X168835714Y-101852380D02*
X168835714Y-100852380D01*
X169216666Y-100852380D01*
X169311904Y-100900000D01*
X169359523Y-100947619D01*
X169407142Y-101042857D01*
X169407142Y-101185714D01*
X169359523Y-101280952D01*
X169311904Y-101328571D01*
X169216666Y-101376190D01*
X168835714Y-101376190D01*
X169788095Y-100947619D02*
X169835714Y-100900000D01*
X169930952Y-100852380D01*
X170169047Y-100852380D01*
X170264285Y-100900000D01*
X170311904Y-100947619D01*
X170359523Y-101042857D01*
X170359523Y-101138095D01*
X170311904Y-101280952D01*
X169740476Y-101852380D01*
X170359523Y-101852380D01*
X170978571Y-100852380D02*
X171073809Y-100852380D01*
X171169047Y-100900000D01*
X171216666Y-100947619D01*
X171264285Y-101042857D01*
X171311904Y-101233333D01*
X171311904Y-101471428D01*
X171264285Y-101661904D01*
X171216666Y-101757142D01*
X171169047Y-101804761D01*
X171073809Y-101852380D01*
X170978571Y-101852380D01*
X170883333Y-101804761D01*
X170835714Y-101757142D01*
X170788095Y-101661904D01*
X170740476Y-101471428D01*
X170740476Y-101233333D01*
X170788095Y-101042857D01*
X170835714Y-100947619D01*
X170883333Y-100900000D01*
X170978571Y-100852380D01*
G04 #@! TO.C,U1*
X166974026Y-110751522D02*
X167546446Y-111323942D01*
X167647461Y-111357614D01*
X167714805Y-111357614D01*
X167815820Y-111323942D01*
X167950507Y-111189255D01*
X167984179Y-111088240D01*
X167984179Y-111020896D01*
X167950507Y-110919881D01*
X167378087Y-110347461D01*
X168792301Y-110347461D02*
X168388240Y-110751522D01*
X168590270Y-110549492D02*
X167883164Y-109842385D01*
X167916835Y-110010744D01*
X167916835Y-110145431D01*
X167883164Y-110246446D01*
G04 #@! TO.C,U3*
X142238095Y-118402380D02*
X142238095Y-119211904D01*
X142285714Y-119307142D01*
X142333333Y-119354761D01*
X142428571Y-119402380D01*
X142619047Y-119402380D01*
X142714285Y-119354761D01*
X142761904Y-119307142D01*
X142809523Y-119211904D01*
X142809523Y-118402380D01*
X143190476Y-118402380D02*
X143809523Y-118402380D01*
X143476190Y-118783333D01*
X143619047Y-118783333D01*
X143714285Y-118830952D01*
X143761904Y-118878571D01*
X143809523Y-118973809D01*
X143809523Y-119211904D01*
X143761904Y-119307142D01*
X143714285Y-119354761D01*
X143619047Y-119402380D01*
X143333333Y-119402380D01*
X143238095Y-119354761D01*
X143190476Y-119307142D01*
G04 #@! TO.C,U4*
X173938095Y-123552380D02*
X173938095Y-124361904D01*
X173985714Y-124457142D01*
X174033333Y-124504761D01*
X174128571Y-124552380D01*
X174319047Y-124552380D01*
X174414285Y-124504761D01*
X174461904Y-124457142D01*
X174509523Y-124361904D01*
X174509523Y-123552380D01*
X175414285Y-123885714D02*
X175414285Y-124552380D01*
X175176190Y-123504761D02*
X174938095Y-124219047D01*
X175557142Y-124219047D01*
G04 #@! TD*
M02*
