G04 #@! TF.GenerationSoftware,KiCad,Pcbnew,(5.0.1-3-g963ef8bb5)*
G04 #@! TF.CreationDate,2020-09-15T14:43:14+02:00*
G04 #@! TF.ProjectId,trackix,747261636B69782E6B696361645F7063,rev?*
G04 #@! TF.SameCoordinates,Original*
G04 #@! TF.FileFunction,Other,User*
%FSLAX46Y46*%
G04 Gerber Fmt 4.6, Leading zero omitted, Abs format (unit mm)*
G04 Created by KiCad (PCBNEW (5.0.1-3-g963ef8bb5)) date 2020 September 15, Tuesday 14:43:14*
%MOMM*%
%LPD*%
G01*
G04 APERTURE LIST*
%ADD10C,0.050000*%
G04 APERTURE END LIST*
D10*
G04 #@! TO.C,H2*
X153200000Y-134200000D02*
G75*
G03X153200000Y-134200000I-2150000J0D01*
G01*
G04 #@! TO.C,H1*
X147450000Y-134200000D02*
G75*
G03X147450000Y-134200000I-2150000J0D01*
G01*
G04 #@! TO.C,L1*
X158150000Y-95300000D02*
X160050000Y-95300000D01*
X158150000Y-96600000D02*
X160050000Y-96600000D01*
X158150000Y-95300000D02*
X158150000Y-96600000D01*
X160050000Y-95300000D02*
X160050000Y-96600000D01*
G04 #@! TO.C,J2*
X165500000Y-93450000D02*
X160500000Y-93450000D01*
X160500000Y-93450000D02*
X160500000Y-98450000D01*
X160500000Y-98450000D02*
X165500000Y-98450000D01*
X165500000Y-98450000D02*
X165500000Y-93450000D01*
G04 #@! TO.C,U2*
X161300000Y-97400000D02*
X150700000Y-97400000D01*
X161300000Y-109600000D02*
X161300000Y-97400000D01*
X150700000Y-109600000D02*
X161300000Y-109600000D01*
X150700000Y-97400000D02*
X150700000Y-109600000D01*
G04 #@! TO.C,reset1*
X216650000Y-93800000D02*
X216650000Y-98600000D01*
X216650000Y-98600000D02*
X219950000Y-98600000D01*
X219950000Y-98600000D02*
X219950000Y-93800000D01*
X219950000Y-93800000D02*
X216650000Y-93800000D01*
G04 #@! TO.C,D6*
X174850000Y-97546001D02*
X174850000Y-104046001D01*
X174850000Y-104046001D02*
X181300000Y-104046001D01*
X181300000Y-104046001D02*
X181300000Y-97546001D01*
X181300000Y-97546001D02*
X174850000Y-97546001D01*
G04 #@! TO.C,D5*
X213550000Y-102700000D02*
X213550000Y-109150000D01*
X225000000Y-102700000D02*
X213550000Y-102700000D01*
X225000000Y-109150000D02*
X225000000Y-102700000D01*
X213550000Y-109150000D02*
X225000000Y-109150000D01*
G04 #@! TO.C,D4*
X143050000Y-102750000D02*
X131600000Y-102750000D01*
X131600000Y-102750000D02*
X131600000Y-109200000D01*
X131600000Y-109200000D02*
X143050000Y-109200000D01*
X143050000Y-109200000D02*
X143050000Y-102750000D01*
G04 #@! TO.C,8MHz1*
X168150000Y-115100000D02*
X162550000Y-115100000D01*
X168150000Y-119700000D02*
X168150000Y-115100000D01*
X162550000Y-119700000D02*
X168150000Y-119700000D01*
X162550000Y-115100000D02*
X162550000Y-119700000D01*
G04 #@! TO.C,BZ1*
X212850000Y-111000000D02*
X215650000Y-111000000D01*
X215650000Y-111000000D02*
X215650000Y-110500000D01*
X215650000Y-110500000D02*
X219550000Y-110500000D01*
X219550000Y-111000000D02*
X219550000Y-110500000D01*
X219550000Y-111000000D02*
X222350000Y-111000000D01*
X219550000Y-120500000D02*
X219550000Y-121000000D01*
X219550000Y-120500000D02*
X222350000Y-120500000D01*
X212850000Y-120500000D02*
X215650000Y-120500000D01*
X222350000Y-111000000D02*
X222350000Y-120500000D01*
X212850000Y-120500000D02*
X212850000Y-111000000D01*
X215650000Y-120500000D02*
X215650000Y-121000000D01*
X215650000Y-121000000D02*
X219550000Y-121000000D01*
G04 #@! TO.C,C1*
X148650000Y-121730000D02*
X152150000Y-121730000D01*
X148650000Y-121730000D02*
X148650000Y-123480000D01*
X152150000Y-123480000D02*
X152150000Y-121730000D01*
X152150000Y-123480000D02*
X148650000Y-123480000D01*
G04 #@! TO.C,C2*
X155450000Y-112000000D02*
X155450000Y-116500000D01*
X155450000Y-112000000D02*
X153350000Y-112000000D01*
X153350000Y-116500000D02*
X155450000Y-116500000D01*
X153350000Y-116500000D02*
X153350000Y-112000000D01*
G04 #@! TO.C,C3*
X148450000Y-116130000D02*
X144950000Y-116130000D01*
X148450000Y-116130000D02*
X148450000Y-114380000D01*
X144950000Y-114380000D02*
X144950000Y-116130000D01*
X144950000Y-114380000D02*
X148450000Y-114380000D01*
G04 #@! TO.C,C4*
X162200000Y-112900000D02*
X162200000Y-117400000D01*
X162200000Y-112900000D02*
X160100000Y-112900000D01*
X160100000Y-117400000D02*
X162200000Y-117400000D01*
X160100000Y-117400000D02*
X160100000Y-112900000D01*
G04 #@! TO.C,C5*
X160150000Y-110420000D02*
X163650000Y-110420000D01*
X160150000Y-110420000D02*
X160150000Y-112170000D01*
X163650000Y-112170000D02*
X163650000Y-110420000D01*
X163650000Y-112170000D02*
X160150000Y-112170000D01*
G04 #@! TO.C,C6*
X150450000Y-96000000D02*
X145950000Y-96000000D01*
X150450000Y-96000000D02*
X150450000Y-93900000D01*
X145950000Y-93900000D02*
X145950000Y-96000000D01*
X145950000Y-93900000D02*
X150450000Y-93900000D01*
G04 #@! TO.C,C7*
X142039186Y-93890450D02*
X145539186Y-93890450D01*
X142039186Y-93890450D02*
X142039186Y-95640450D01*
X145539186Y-95640450D02*
X145539186Y-93890450D01*
X145539186Y-95640450D02*
X142039186Y-95640450D01*
G04 #@! TO.C,C8*
X178600000Y-105180000D02*
X182100000Y-105180000D01*
X178600000Y-105180000D02*
X178600000Y-106930000D01*
X182100000Y-106930000D02*
X182100000Y-105180000D01*
X182100000Y-106930000D02*
X178600000Y-106930000D01*
G04 #@! TO.C,C9*
X169750000Y-118100000D02*
X174250000Y-118100000D01*
X169750000Y-118100000D02*
X169750000Y-120200000D01*
X174250000Y-120200000D02*
X174250000Y-118100000D01*
X174250000Y-120200000D02*
X169750000Y-120200000D01*
G04 #@! TO.C,C10*
X165236044Y-123500030D02*
X165236044Y-120000030D01*
X165236044Y-123500030D02*
X166986044Y-123500030D01*
X166986044Y-120000030D02*
X165236044Y-120000030D01*
X166986044Y-120000030D02*
X166986044Y-123500030D01*
G04 #@! TO.C,C11*
X165166044Y-120000030D02*
X165166044Y-123500030D01*
X165166044Y-120000030D02*
X163416044Y-120000030D01*
X163416044Y-123500030D02*
X165166044Y-123500030D01*
X163416044Y-123500030D02*
X163416044Y-120000030D01*
G04 #@! TO.C,C12*
X176500000Y-121800000D02*
X176500000Y-117300000D01*
X176500000Y-121800000D02*
X178600000Y-121800000D01*
X178600000Y-117300000D02*
X176500000Y-117300000D01*
X178600000Y-117300000D02*
X178600000Y-121800000D01*
G04 #@! TO.C,C13*
X157700000Y-112000000D02*
X157700000Y-116500000D01*
X157700000Y-112000000D02*
X155600000Y-112000000D01*
X155600000Y-116500000D02*
X157700000Y-116500000D01*
X155600000Y-116500000D02*
X155600000Y-112000000D01*
G04 #@! TO.C,C14*
X159620000Y-112000000D02*
X159620000Y-115500000D01*
X159620000Y-112000000D02*
X157870000Y-112000000D01*
X157870000Y-115500000D02*
X159620000Y-115500000D01*
X157870000Y-115500000D02*
X157870000Y-112000000D01*
G04 #@! TO.C,C15*
X153000000Y-124200000D02*
X157500000Y-124200000D01*
X153000000Y-124200000D02*
X153000000Y-126300000D01*
X157500000Y-126300000D02*
X157500000Y-124200000D01*
X157500000Y-126300000D02*
X153000000Y-126300000D01*
G04 #@! TO.C,C16*
X178831143Y-122235463D02*
X178831143Y-118735463D01*
X178831143Y-122235463D02*
X180581143Y-122235463D01*
X180581143Y-118735463D02*
X178831143Y-118735463D01*
X180581143Y-118735463D02*
X180581143Y-122235463D01*
G04 #@! TO.C,D1*
X164050000Y-99850000D02*
X164050000Y-103750000D01*
X162350000Y-99850000D02*
X164050000Y-99850000D01*
X162350000Y-103750000D02*
X162350000Y-99850000D01*
X164050000Y-103750000D02*
X162350000Y-103750000D01*
G04 #@! TO.C,D2*
X192950000Y-95200000D02*
X192950000Y-93500000D01*
X192950000Y-93500000D02*
X196850000Y-93500000D01*
X196850000Y-93500000D02*
X196850000Y-95200000D01*
X196850000Y-95200000D02*
X192950000Y-95200000D01*
G04 #@! TO.C,D3*
X139087288Y-119766956D02*
X139087288Y-122966956D01*
X139087288Y-122966956D02*
X137187288Y-122966956D01*
X137187288Y-119766956D02*
X137187288Y-122966956D01*
X139087288Y-119766956D02*
X137187288Y-119766956D01*
G04 #@! TO.C,D7*
X169800000Y-124750000D02*
X169800000Y-126450000D01*
X169800000Y-126450000D02*
X165900000Y-126450000D01*
X165900000Y-126450000D02*
X165900000Y-124750000D01*
X165900000Y-124750000D02*
X169800000Y-124750000D01*
G04 #@! TO.C,D8*
X165900000Y-126900000D02*
X169800000Y-126900000D01*
X165900000Y-128600000D02*
X165900000Y-126900000D01*
X169800000Y-128600000D02*
X165900000Y-128600000D01*
X169800000Y-126900000D02*
X169800000Y-128600000D01*
G04 #@! TO.C,D9*
X141287288Y-119766956D02*
X139387288Y-119766956D01*
X139387288Y-119766956D02*
X139387288Y-122966956D01*
X141287288Y-122966956D02*
X139387288Y-122966956D01*
X141287288Y-119766956D02*
X141287288Y-122966956D01*
G04 #@! TO.C,D10*
X139087288Y-123316956D02*
X139087288Y-126516956D01*
X139087288Y-126516956D02*
X137187288Y-126516956D01*
X137187288Y-123316956D02*
X137187288Y-126516956D01*
X139087288Y-123316956D02*
X137187288Y-123316956D01*
G04 #@! TO.C,D11*
X141287288Y-123316956D02*
X139387288Y-123316956D01*
X139387288Y-123316956D02*
X139387288Y-126516956D01*
X141287288Y-126516956D02*
X139387288Y-126516956D01*
X141287288Y-123316956D02*
X141287288Y-126516956D01*
G04 #@! TO.C,IC2*
X153000000Y-123450000D02*
X160500000Y-123450000D01*
X153000000Y-117950000D02*
X160500000Y-117950000D01*
X160500000Y-117950000D02*
X160500000Y-123450000D01*
X153000000Y-117950000D02*
X153000000Y-123450000D01*
G04 #@! TO.C,J1*
X152625001Y-111425001D02*
X149025001Y-111425001D01*
X152625001Y-117575001D02*
X152625001Y-111425001D01*
X149025001Y-117575001D02*
X152625001Y-117575001D01*
X149025001Y-111425001D02*
X149025001Y-117575001D01*
G04 #@! TO.C,J3*
X181861237Y-123214001D02*
X185461237Y-123214001D01*
X181861237Y-109464001D02*
X181861237Y-123214001D01*
X185461237Y-109464001D02*
X181861237Y-109464001D01*
X185461237Y-123214001D02*
X185461237Y-109464001D01*
G04 #@! TO.C,J5*
X214461237Y-109614001D02*
X210861237Y-109614001D01*
X214461237Y-125914001D02*
X214461237Y-109614001D01*
X210861237Y-125914001D02*
X214461237Y-125914001D01*
X210861237Y-109614001D02*
X210861237Y-125914001D01*
G04 #@! TO.C,JP2*
X176050000Y-128600000D02*
X172750000Y-128600000D01*
X176050000Y-128600000D02*
X176050000Y-126100000D01*
X172750000Y-126100000D02*
X172750000Y-128600000D01*
X172750000Y-126100000D02*
X176050000Y-126100000D01*
G04 #@! TO.C,L2*
X180900000Y-122450000D02*
X180900000Y-125650000D01*
X176500000Y-122450000D02*
X176500000Y-125650000D01*
X176500000Y-125650000D02*
X180900000Y-125650000D01*
X176500000Y-122450000D02*
X180900000Y-122450000D01*
G04 #@! TO.C,Q1*
X216010000Y-127850000D02*
X216010000Y-121950000D01*
X216010000Y-121950000D02*
X219490000Y-121950000D01*
X219490000Y-121950000D02*
X219490000Y-127850000D01*
X219490000Y-127850000D02*
X216010000Y-127850000D01*
G04 #@! TO.C,Q3*
X145900000Y-110250000D02*
X138000000Y-110250000D01*
X145900000Y-113850000D02*
X138000000Y-113850000D01*
X138000000Y-113850000D02*
X138000000Y-110250000D01*
X145900000Y-113850000D02*
X145900000Y-110250000D01*
G04 #@! TO.C,Q5*
X169400000Y-97440000D02*
X169400000Y-93960000D01*
X175300000Y-97440000D02*
X169400000Y-97440000D01*
X175300000Y-93960000D02*
X175300000Y-97440000D01*
X169400000Y-93960000D02*
X175300000Y-93960000D01*
G04 #@! TO.C,R1*
X148050000Y-119100000D02*
X144950000Y-119100000D01*
X148050000Y-119100000D02*
X148050000Y-117300000D01*
X144950000Y-117300000D02*
X144950000Y-119100000D01*
X144950000Y-117300000D02*
X148050000Y-117300000D01*
G04 #@! TO.C,R2*
X139200000Y-114450000D02*
X139200000Y-117550000D01*
X139200000Y-114450000D02*
X137400000Y-114450000D01*
X137400000Y-117550000D02*
X139200000Y-117550000D01*
X137400000Y-117550000D02*
X137400000Y-114450000D01*
G04 #@! TO.C,R3*
X146250000Y-110750000D02*
X146250000Y-107650000D01*
X146250000Y-110750000D02*
X148050000Y-110750000D01*
X148050000Y-107650000D02*
X146250000Y-107650000D01*
X148050000Y-107650000D02*
X148050000Y-110750000D01*
G04 #@! TO.C,R5*
X215350000Y-129050000D02*
X212250000Y-129050000D01*
X215350000Y-129050000D02*
X215350000Y-127250000D01*
X212250000Y-127250000D02*
X212250000Y-129050000D01*
X212250000Y-127250000D02*
X215350000Y-127250000D01*
G04 #@! TO.C,R6*
X217150000Y-99050000D02*
X220250000Y-99050000D01*
X217150000Y-99050000D02*
X217150000Y-100850000D01*
X220250000Y-100850000D02*
X220250000Y-99050000D01*
X220250000Y-100850000D02*
X217150000Y-100850000D01*
G04 #@! TO.C,R7*
X196050000Y-97350000D02*
X192950000Y-97350000D01*
X196050000Y-97350000D02*
X196050000Y-95550000D01*
X192950000Y-95550000D02*
X192950000Y-97350000D01*
X192950000Y-95550000D02*
X196050000Y-95550000D01*
G04 #@! TO.C,R9*
X168100000Y-97850000D02*
X171200000Y-97850000D01*
X168100000Y-97850000D02*
X168100000Y-99650000D01*
X171200000Y-99650000D02*
X171200000Y-97850000D01*
X171200000Y-99650000D02*
X168100000Y-99650000D01*
G04 #@! TO.C,R10*
X145050000Y-104750000D02*
X145050000Y-107850000D01*
X145050000Y-104750000D02*
X143250000Y-104750000D01*
X143250000Y-107850000D02*
X145050000Y-107850000D01*
X143250000Y-107850000D02*
X143250000Y-104750000D01*
G04 #@! TO.C,R11*
X212050000Y-103700000D02*
X212050000Y-100600000D01*
X212050000Y-103700000D02*
X213850000Y-103700000D01*
X213850000Y-100600000D02*
X212050000Y-100600000D01*
X213850000Y-100600000D02*
X213850000Y-103700000D01*
G04 #@! TO.C,R12*
X176850000Y-93950000D02*
X179950000Y-93950000D01*
X176850000Y-93950000D02*
X176850000Y-95750000D01*
X179950000Y-95750000D02*
X179950000Y-93950000D01*
X179950000Y-95750000D02*
X176850000Y-95750000D01*
G04 #@! TO.C,R13*
X165500000Y-126550000D02*
X162400000Y-126550000D01*
X165500000Y-126550000D02*
X165500000Y-124750000D01*
X162400000Y-124750000D02*
X162400000Y-126550000D01*
X162400000Y-124750000D02*
X165500000Y-124750000D01*
G04 #@! TO.C,R14*
X165500000Y-128700000D02*
X162400000Y-128700000D01*
X165500000Y-128700000D02*
X165500000Y-126900000D01*
X162400000Y-126900000D02*
X162400000Y-128700000D01*
X162400000Y-126900000D02*
X165500000Y-126900000D01*
G04 #@! TO.C,R15*
X152150000Y-121000000D02*
X149050000Y-121000000D01*
X152150000Y-121000000D02*
X152150000Y-119200000D01*
X149050000Y-119200000D02*
X149050000Y-121000000D01*
X149050000Y-119200000D02*
X152150000Y-119200000D01*
G04 #@! TO.C,R16*
X148300000Y-110750000D02*
X148300000Y-107650000D01*
X148300000Y-110750000D02*
X150100000Y-110750000D01*
X150100000Y-107650000D02*
X148300000Y-107650000D01*
X150100000Y-107650000D02*
X150100000Y-110750000D01*
G04 #@! TO.C,R17*
X154700000Y-95100000D02*
X157800000Y-95100000D01*
X154700000Y-95100000D02*
X154700000Y-96900000D01*
X157800000Y-96900000D02*
X157800000Y-95100000D01*
X157800000Y-96900000D02*
X154700000Y-96900000D01*
G04 #@! TO.C,R18*
X162250000Y-107250000D02*
X162250000Y-104150000D01*
X162250000Y-107250000D02*
X164050000Y-107250000D01*
X164050000Y-104150000D02*
X162250000Y-104150000D01*
X164050000Y-104150000D02*
X164050000Y-107250000D01*
G04 #@! TO.C,R19*
X168750000Y-104100000D02*
X165650000Y-104100000D01*
X168750000Y-104100000D02*
X168750000Y-102300000D01*
X165650000Y-102300000D02*
X165650000Y-104100000D01*
X165650000Y-102300000D02*
X168750000Y-102300000D01*
G04 #@! TO.C,R20*
X165600000Y-100350000D02*
X168700000Y-100350000D01*
X165600000Y-100350000D02*
X165600000Y-102150000D01*
X168700000Y-102150000D02*
X168700000Y-100350000D01*
X168700000Y-102150000D02*
X165600000Y-102150000D01*
G04 #@! TO.C,U1*
X174050000Y-118245332D02*
X181545332Y-110750000D01*
X166554668Y-110750000D02*
X174050000Y-103254668D01*
X174050000Y-103254668D02*
X181545332Y-110750000D01*
X166554668Y-110750000D02*
X174050000Y-118245332D01*
G04 #@! TO.C,U3*
X144320000Y-118300000D02*
X139980000Y-118300000D01*
X144320000Y-118300000D02*
X144320000Y-114900000D01*
X139980000Y-114900000D02*
X139980000Y-118300000D01*
X139980000Y-114900000D02*
X144320000Y-114900000D01*
G04 #@! TO.C,U4*
X176360000Y-123400000D02*
X173140000Y-123400000D01*
X173140000Y-123400000D02*
X173140000Y-120800000D01*
X173140000Y-120800000D02*
X176360000Y-120800000D01*
X176360000Y-120800000D02*
X176360000Y-123400000D01*
G04 #@! TD*
M02*
