G04 #@! TF.GenerationSoftware,KiCad,Pcbnew,(5.0.1-3-g963ef8bb5)*
G04 #@! TF.CreationDate,2020-05-04T17:29:04+02:00*
G04 #@! TF.ProjectId,trackix,747261636B69782E6B696361645F7063,rev?*
G04 #@! TF.SameCoordinates,Original*
G04 #@! TF.FileFunction,Other,User*
%FSLAX46Y46*%
G04 Gerber Fmt 4.6, Leading zero omitted, Abs format (unit mm)*
G04 Created by KiCad (PCBNEW (5.0.1-3-g963ef8bb5)) date 2020 May 04, Monday 17:29:04*
%MOMM*%
%LPD*%
G01*
G04 APERTURE LIST*
%ADD10C,0.050000*%
G04 APERTURE END LIST*
D10*
G04 #@! TO.C,TP1*
X72500000Y-71250000D02*
X70500000Y-71250000D01*
X72500000Y-71250000D02*
X72500000Y-73250000D01*
X70500000Y-73250000D02*
X70500000Y-71250000D01*
X70500000Y-73250000D02*
X72500000Y-73250000D01*
G04 #@! TO.C,TP2*
X76250000Y-73250000D02*
X78250000Y-73250000D01*
X76250000Y-73250000D02*
X76250000Y-71250000D01*
X78250000Y-71250000D02*
X78250000Y-73250000D01*
X78250000Y-71250000D02*
X76250000Y-71250000D01*
G04 #@! TO.C,TP3*
X86300000Y-67400000D02*
X86300000Y-69400000D01*
X86300000Y-67400000D02*
X88300000Y-67400000D01*
X88300000Y-69400000D02*
X86300000Y-69400000D01*
X88300000Y-69400000D02*
X88300000Y-67400000D01*
G04 #@! TO.C,TP4*
X103000000Y-68500000D02*
X103000000Y-66500000D01*
X103000000Y-68500000D02*
X101000000Y-68500000D01*
X101000000Y-66500000D02*
X103000000Y-66500000D01*
X101000000Y-66500000D02*
X101000000Y-68500000D01*
G04 #@! TO.C,TP5*
X93000000Y-59000000D02*
X91000000Y-59000000D01*
X93000000Y-59000000D02*
X93000000Y-61000000D01*
X91000000Y-61000000D02*
X91000000Y-59000000D01*
X91000000Y-61000000D02*
X93000000Y-61000000D01*
G04 #@! TO.C,TP6*
X124000000Y-61500000D02*
X126000000Y-61500000D01*
X124000000Y-61500000D02*
X124000000Y-59500000D01*
X126000000Y-59500000D02*
X126000000Y-61500000D01*
X126000000Y-59500000D02*
X124000000Y-59500000D01*
G04 #@! TO.C,TP7*
X108500000Y-53000000D02*
X110500000Y-53000000D01*
X108500000Y-53000000D02*
X108500000Y-51000000D01*
X110500000Y-51000000D02*
X110500000Y-53000000D01*
X110500000Y-51000000D02*
X108500000Y-51000000D01*
G04 #@! TO.C,TP8*
X105500000Y-51000000D02*
X103500000Y-51000000D01*
X105500000Y-51000000D02*
X105500000Y-53000000D01*
X103500000Y-53000000D02*
X103500000Y-51000000D01*
X103500000Y-53000000D02*
X105500000Y-53000000D01*
G04 #@! TO.C,TP9*
X93300000Y-67400000D02*
X91300000Y-67400000D01*
X93300000Y-67400000D02*
X93300000Y-69400000D01*
X91300000Y-69400000D02*
X91300000Y-67400000D01*
X91300000Y-69400000D02*
X93300000Y-69400000D01*
G04 #@! TD*
M02*
