G04 #@! TF.GenerationSoftware,KiCad,Pcbnew,(5.0.1-3-g963ef8bb5)*
G04 #@! TF.CreationDate,2020-09-15T14:43:14+02:00*
G04 #@! TF.ProjectId,trackix,747261636B69782E6B696361645F7063,rev?*
G04 #@! TF.SameCoordinates,Original*
G04 #@! TF.FileFunction,Profile,NP*
%FSLAX46Y46*%
G04 Gerber Fmt 4.6, Leading zero omitted, Abs format (unit mm)*
G04 Created by KiCad (PCBNEW (5.0.1-3-g963ef8bb5)) date 2020 September 15, Tuesday 14:43:14*
%MOMM*%
%LPD*%
G01*
G04 APERTURE LIST*
%ADD10C,0.150000*%
%ADD11C,0.200000*%
G04 APERTURE END LIST*
D10*
X136800000Y-102650000D02*
X135500000Y-102650000D01*
D11*
X185161237Y-126914001D02*
X185161237Y-102914001D01*
X211161237Y-126914001D02*
X185161237Y-126914001D01*
X211161237Y-102914001D02*
X211161237Y-126914001D01*
X185161237Y-102914001D02*
X211161237Y-102914001D01*
D10*
X148800000Y-127950000D02*
X148800000Y-134200000D01*
X147550000Y-134200000D02*
X147550000Y-127950000D01*
X153302000Y-128058000D02*
X153300000Y-134200000D01*
X143050000Y-127950000D02*
X143050000Y-134200000D01*
D11*
X153300000Y-134200000D02*
G75*
G02X148800000Y-134200000I-2250000J0D01*
G01*
D10*
X147550000Y-134200000D02*
G75*
G02X143050000Y-134200000I-2250000J0D01*
G01*
X220612000Y-128693000D02*
G75*
G02X219342000Y-129963000I-1270000J0D01*
G01*
X216802000Y-107103000D02*
G75*
G02X216167000Y-106468000I0J635000D01*
G01*
X172352000Y-122343000D02*
G75*
G03X172352000Y-122343000I-1270000J0D01*
G01*
X219342000Y-109008000D02*
G75*
G02X218707000Y-108373000I0J635000D01*
G01*
X137427000Y-108373000D02*
X137427000Y-107103000D01*
X137427000Y-108373000D02*
G75*
G02X136792000Y-109008000I-635000J0D01*
G01*
X135522000Y-109008000D02*
X136792000Y-109008000D01*
X135522000Y-114088000D02*
X135522000Y-109008000D01*
X220612000Y-117898000D02*
X220612000Y-128693000D01*
X218707000Y-107103000D02*
X218707000Y-108373000D01*
X135522000Y-102658000D02*
X135522000Y-94403000D01*
X146317000Y-100118000D02*
G75*
G03X146317000Y-100118000I-1270000J0D01*
G01*
X139332000Y-103293000D02*
G75*
G02X139967000Y-103928000I0J-635000D01*
G01*
X139967000Y-106468000D02*
X139967000Y-103928000D01*
X135522000Y-94403000D02*
G75*
G02X136792000Y-93133000I1270000J0D01*
G01*
X157747000Y-127423000D02*
X153937000Y-127423000D01*
X216167000Y-103928000D02*
G75*
G02X216802000Y-103293000I635000J0D01*
G01*
X139967000Y-106468000D02*
G75*
G02X139332000Y-107103000I-635000J0D01*
G01*
X136792000Y-127423000D02*
G75*
G02X135522000Y-126153000I0J1270000D01*
G01*
X142550000Y-127450000D02*
G75*
G02X143050000Y-127950000I0J-500000D01*
G01*
X219342000Y-93133000D02*
G75*
G02X220612000Y-94403000I0J-1270000D01*
G01*
X220612000Y-102658000D02*
X220612000Y-94403000D01*
X195212000Y-100118000D02*
G75*
G03X195212000Y-100118000I-1270000J0D01*
G01*
X136792000Y-102658000D02*
G75*
G02X137427000Y-103293000I0J-635000D01*
G01*
X219342000Y-109008000D02*
X220612000Y-109008000D01*
X142550000Y-127450000D02*
X136792000Y-127423000D01*
X216167000Y-103928000D02*
X216167000Y-106468000D01*
X153302000Y-128058000D02*
G75*
G02X153937000Y-127423000I635000J0D01*
G01*
X218707000Y-103293000D02*
G75*
G02X219342000Y-102658000I635000J0D01*
G01*
X136792000Y-93133000D02*
X198514000Y-93133000D01*
X220612000Y-114088000D02*
X220612000Y-109008000D01*
X157747000Y-127423000D02*
G75*
G02X158382000Y-128058000I0J-635000D01*
G01*
X220612000Y-102658000D02*
X219342000Y-102658000D01*
D11*
X183147000Y-100753000D02*
G75*
G03X183147000Y-100753000I-635000J0D01*
G01*
D10*
X174257000Y-100753000D02*
G75*
G03X174257000Y-100753000I-635000J0D01*
G01*
X139332000Y-103293000D02*
X137427000Y-103293000D01*
X216802000Y-103293000D02*
X218707000Y-103293000D01*
X218707000Y-107103000D02*
X216802000Y-107103000D01*
X159017000Y-129963000D02*
G75*
G02X158382000Y-129328000I0J635000D01*
G01*
X158382000Y-129328000D02*
X158382000Y-128058000D01*
X135522000Y-126153000D02*
X135522000Y-117898000D01*
D11*
X220612000Y-117897999D02*
G75*
G02X220612001Y-114088001I1270000J1904999D01*
G01*
X135521999Y-114088001D02*
G75*
G02X135521999Y-117897999I-1904999J-1904999D01*
G01*
D10*
X159017000Y-129963000D02*
X219342000Y-129963000D01*
X146317000Y-122343000D02*
G75*
G03X146317000Y-122343000I-1270000J0D01*
G01*
X139332000Y-107103000D02*
X137427000Y-107103000D01*
D11*
X216548000Y-93133000D02*
X216548000Y-98213000D01*
X216548000Y-98213000D02*
X198514000Y-98213000D01*
X198514000Y-93133000D02*
X198514000Y-98213000D01*
D10*
X216548000Y-93133000D02*
X219342000Y-93133000D01*
X151050000Y-99950000D02*
X161050000Y-99950000D01*
X161800000Y-100700000D02*
X161800000Y-106200000D01*
X161050000Y-106950000D02*
X151050000Y-106950000D01*
X150300000Y-106200000D02*
X150300000Y-100700000D01*
X150300000Y-100700000D02*
G75*
G02X151050000Y-99950000I750000J0D01*
G01*
X161050000Y-99950000D02*
G75*
G02X161800000Y-100700000I0J-750000D01*
G01*
X161800000Y-106200000D02*
G75*
G02X161050000Y-106950000I-750000J0D01*
G01*
X151050000Y-106950000D02*
G75*
G02X150300000Y-106200000I0J750000D01*
G01*
X148300000Y-127450000D02*
G75*
G02X148800000Y-127950000I0J-500000D01*
G01*
X147550000Y-127950000D02*
G75*
G02X148050000Y-127450000I500000J0D01*
G01*
X148050000Y-127450000D02*
X148300000Y-127450000D01*
M02*
