G04 #@! TF.GenerationSoftware,KiCad,Pcbnew,(5.0.1-3-g963ef8bb5)*
G04 #@! TF.CreationDate,2020-09-15T14:43:14+02:00*
G04 #@! TF.ProjectId,trackix,747261636B69782E6B696361645F7063,rev?*
G04 #@! TF.SameCoordinates,Original*
G04 #@! TF.FileFunction,Other,User*
%FSLAX46Y46*%
G04 Gerber Fmt 4.6, Leading zero omitted, Abs format (unit mm)*
G04 Created by KiCad (PCBNEW (5.0.1-3-g963ef8bb5)) date 2020 September 15, Tuesday 14:43:14*
%MOMM*%
%LPD*%
G01*
G04 APERTURE LIST*
%ADD10C,0.050000*%
G04 APERTURE END LIST*
D10*
G04 #@! TO.C,TP2*
X152050000Y-128950000D02*
X150050000Y-128950000D01*
X152050000Y-128950000D02*
X152050000Y-130950000D01*
X150050000Y-130950000D02*
X150050000Y-128950000D01*
X150050000Y-130950000D02*
X152050000Y-130950000D01*
G04 #@! TO.C,TP1*
X144300000Y-130950000D02*
X146300000Y-130950000D01*
X144300000Y-130950000D02*
X144300000Y-128950000D01*
X146300000Y-128950000D02*
X146300000Y-130950000D01*
X146300000Y-128950000D02*
X144300000Y-128950000D01*
G04 #@! TO.C,J4*
X183650000Y-102250000D02*
X183650000Y-93150000D01*
X192350000Y-102250000D02*
X183650000Y-102250000D01*
X192350000Y-93150000D02*
X192350000Y-102250000D01*
X183650000Y-93150000D02*
X192350000Y-93150000D01*
G04 #@! TO.C,TP3*
X181200000Y-128800000D02*
X183200000Y-128800000D01*
X181200000Y-128800000D02*
X181200000Y-126800000D01*
X183200000Y-126800000D02*
X183200000Y-128800000D01*
X183200000Y-126800000D02*
X181200000Y-126800000D01*
G04 #@! TO.C,TP4*
X152150000Y-124200000D02*
X150150000Y-124200000D01*
X152150000Y-124200000D02*
X152150000Y-126200000D01*
X150150000Y-126200000D02*
X150150000Y-124200000D01*
X150150000Y-126200000D02*
X152150000Y-126200000D01*
G04 #@! TO.C,TP5*
X176250000Y-118150000D02*
X174250000Y-118150000D01*
X176250000Y-118150000D02*
X176250000Y-120150000D01*
X174250000Y-120150000D02*
X174250000Y-118150000D01*
X174250000Y-120150000D02*
X176250000Y-120150000D01*
G04 #@! TO.C,TP6*
X150150000Y-101750000D02*
X148150000Y-101750000D01*
X150150000Y-101750000D02*
X150150000Y-103750000D01*
X148150000Y-103750000D02*
X148150000Y-101750000D01*
X148150000Y-103750000D02*
X150150000Y-103750000D01*
G04 #@! TO.C,TP7*
X169200000Y-106900000D02*
X171200000Y-106900000D01*
X169200000Y-106900000D02*
X169200000Y-104900000D01*
X171200000Y-104900000D02*
X171200000Y-106900000D01*
X171200000Y-104900000D02*
X169200000Y-104900000D01*
G04 #@! TO.C,TP8*
X168900000Y-104900000D02*
X166900000Y-104900000D01*
X168900000Y-104900000D02*
X168900000Y-106900000D01*
X166900000Y-106900000D02*
X166900000Y-104900000D01*
X166900000Y-106900000D02*
X168900000Y-106900000D01*
G04 #@! TO.C,TP9*
X178850000Y-128800000D02*
X180850000Y-128800000D01*
X178850000Y-128800000D02*
X178850000Y-126800000D01*
X180850000Y-126800000D02*
X180850000Y-128800000D01*
X180850000Y-126800000D02*
X178850000Y-126800000D01*
G04 #@! TD*
M02*
