G04 #@! TF.GenerationSoftware,KiCad,Pcbnew,(5.0.1-3-g963ef8bb5)*
G04 #@! TF.CreationDate,2020-05-04T17:29:04+02:00*
G04 #@! TF.ProjectId,trackix,747261636B69782E6B696361645F7063,rev?*
G04 #@! TF.SameCoordinates,Original*
G04 #@! TF.FileFunction,Soldermask,Top*
G04 #@! TF.FilePolarity,Negative*
%FSLAX46Y46*%
G04 Gerber Fmt 4.6, Leading zero omitted, Abs format (unit mm)*
G04 Created by KiCad (PCBNEW (5.0.1-3-g963ef8bb5)) date 2020 May 04, Monday 17:29:04*
%MOMM*%
%LPD*%
G01*
G04 APERTURE LIST*
%ADD10C,0.100000*%
G04 APERTURE END LIST*
D10*
G36*
X79750000Y-79000000D02*
X69125000Y-79000000D01*
X69125000Y-71000000D01*
X79750000Y-71000000D01*
X79750000Y-79000000D01*
X79750000Y-79000000D01*
G37*
G36*
X125301000Y-69821000D02*
X124199000Y-69821000D01*
X124199000Y-66719000D01*
X125301000Y-66719000D01*
X125301000Y-69821000D01*
X125301000Y-69821000D01*
G37*
G36*
X122761000Y-69821000D02*
X121659000Y-69821000D01*
X121659000Y-66719000D01*
X122761000Y-66719000D01*
X122761000Y-69821000D01*
X122761000Y-69821000D01*
G37*
G36*
X127841000Y-69821000D02*
X126739000Y-69821000D01*
X126739000Y-66719000D01*
X127841000Y-66719000D01*
X127841000Y-69821000D01*
X127841000Y-69821000D01*
G37*
G36*
X91201000Y-69551000D02*
X90199000Y-69551000D01*
X90199000Y-66949000D01*
X91201000Y-66949000D01*
X91201000Y-69551000D01*
X91201000Y-69551000D01*
G37*
G36*
X88301000Y-69551000D02*
X87299000Y-69551000D01*
X87299000Y-66949000D01*
X88301000Y-66949000D01*
X88301000Y-69551000D01*
X88301000Y-69551000D01*
G37*
G36*
X117501000Y-69151000D02*
X116199000Y-69151000D01*
X116199000Y-67849000D01*
X117501000Y-67849000D01*
X117501000Y-69151000D01*
X117501000Y-69151000D01*
G37*
G36*
X115301000Y-69151000D02*
X113999000Y-69151000D01*
X113999000Y-67849000D01*
X115301000Y-67849000D01*
X115301000Y-69151000D01*
X115301000Y-69151000D01*
G37*
G36*
X106961034Y-68535355D02*
X106535355Y-68961034D01*
X106038966Y-68464645D01*
X106464645Y-68038966D01*
X106961034Y-68535355D01*
X106961034Y-68535355D01*
G37*
G36*
X69651000Y-68526000D02*
X68949000Y-68526000D01*
X68949000Y-67974000D01*
X69651000Y-67974000D01*
X69651000Y-68526000D01*
X69651000Y-68526000D01*
G37*
G36*
X67551000Y-68526000D02*
X66849000Y-68526000D01*
X66849000Y-67974000D01*
X67551000Y-67974000D01*
X67551000Y-68526000D01*
X67551000Y-68526000D01*
G37*
G36*
X65901000Y-68526000D02*
X65199000Y-68526000D01*
X65199000Y-67974000D01*
X65901000Y-67974000D01*
X65901000Y-68526000D01*
X65901000Y-68526000D01*
G37*
G36*
X63801000Y-68526000D02*
X63099000Y-68526000D01*
X63099000Y-67974000D01*
X63801000Y-67974000D01*
X63801000Y-68526000D01*
X63801000Y-68526000D01*
G37*
G36*
X106183216Y-67757537D02*
X105757537Y-68183216D01*
X105261148Y-67686827D01*
X105686827Y-67261148D01*
X106183216Y-67757537D01*
X106183216Y-67757537D01*
G37*
G36*
X132451000Y-67501000D02*
X131549000Y-67501000D01*
X131549000Y-66499000D01*
X132451000Y-66499000D01*
X132451000Y-67501000D01*
X132451000Y-67501000D01*
G37*
G36*
X145051000Y-67501000D02*
X143649000Y-67501000D01*
X143649000Y-63999000D01*
X145051000Y-63999000D01*
X145051000Y-67501000D01*
X145051000Y-67501000D01*
G37*
G36*
X136351000Y-67501000D02*
X134949000Y-67501000D01*
X134949000Y-63999000D01*
X136351000Y-63999000D01*
X136351000Y-67501000D01*
X136351000Y-67501000D01*
G37*
G36*
X83751000Y-67301000D02*
X82749000Y-67301000D01*
X82749000Y-66699000D01*
X83751000Y-66699000D01*
X83751000Y-67301000D01*
X83751000Y-67301000D01*
G37*
G36*
X109934324Y-65680462D02*
X110080096Y-65740843D01*
X110211292Y-65828505D01*
X110322857Y-65940070D01*
X110410519Y-66071266D01*
X110470900Y-66217038D01*
X110501681Y-66371788D01*
X110501681Y-66529574D01*
X110470900Y-66684324D01*
X110410519Y-66830096D01*
X110322857Y-66961292D01*
X110211292Y-67072857D01*
X110080096Y-67160519D01*
X109934324Y-67220900D01*
X109779574Y-67251681D01*
X109621788Y-67251681D01*
X109467038Y-67220900D01*
X109321266Y-67160519D01*
X109190070Y-67072857D01*
X109078505Y-66961292D01*
X108990843Y-66830096D01*
X108930462Y-66684324D01*
X108899681Y-66529574D01*
X108899681Y-66371788D01*
X108930462Y-66217038D01*
X108990843Y-66071266D01*
X109078505Y-65940070D01*
X109190070Y-65828505D01*
X109321266Y-65740843D01*
X109467038Y-65680462D01*
X109621788Y-65649681D01*
X109779574Y-65649681D01*
X109934324Y-65680462D01*
X109934324Y-65680462D01*
G37*
G36*
X81526000Y-67006000D02*
X79874000Y-67006000D01*
X79874000Y-66304000D01*
X81526000Y-66304000D01*
X81526000Y-67006000D01*
X81526000Y-67006000D01*
G37*
G36*
X76126000Y-67006000D02*
X74474000Y-67006000D01*
X74474000Y-66304000D01*
X76126000Y-66304000D01*
X76126000Y-67006000D01*
X76126000Y-67006000D01*
G37*
G36*
X104961034Y-66535355D02*
X104535355Y-66961034D01*
X104038966Y-66464645D01*
X104464645Y-66038966D01*
X104961034Y-66535355D01*
X104961034Y-66535355D01*
G37*
G36*
X93851000Y-66801000D02*
X92149000Y-66801000D01*
X92149000Y-65699000D01*
X93851000Y-65699000D01*
X93851000Y-66801000D01*
X93851000Y-66801000D01*
G37*
G36*
X119551000Y-66751000D02*
X118949000Y-66751000D01*
X118949000Y-65749000D01*
X119551000Y-65749000D01*
X119551000Y-66751000D01*
X119551000Y-66751000D01*
G37*
G36*
X118051000Y-66751000D02*
X117449000Y-66751000D01*
X117449000Y-65749000D01*
X118051000Y-65749000D01*
X118051000Y-66751000D01*
X118051000Y-66751000D01*
G37*
G36*
X95426000Y-66701000D02*
X94574000Y-66701000D01*
X94574000Y-65799000D01*
X95426000Y-65799000D01*
X95426000Y-66701000D01*
X95426000Y-66701000D01*
G37*
G36*
X68026000Y-66676000D02*
X67474000Y-66676000D01*
X67474000Y-65974000D01*
X68026000Y-65974000D01*
X68026000Y-66676000D01*
X68026000Y-66676000D01*
G37*
G36*
X79251000Y-66401000D02*
X76749000Y-66401000D01*
X76749000Y-63099000D01*
X79251000Y-63099000D01*
X79251000Y-66401000D01*
X79251000Y-66401000D01*
G37*
G36*
X104183216Y-65757537D02*
X103757537Y-66183216D01*
X103261148Y-65686827D01*
X103686827Y-65261148D01*
X104183216Y-65757537D01*
X104183216Y-65757537D01*
G37*
G36*
X90361000Y-64177258D02*
X90360515Y-64178165D01*
X90353402Y-64201614D01*
X90351000Y-64226000D01*
X90351000Y-65274000D01*
X90353402Y-65298386D01*
X90360515Y-65321835D01*
X90361000Y-65322742D01*
X90361000Y-66161000D01*
X88639000Y-66161000D01*
X88639000Y-65322742D01*
X88639485Y-65321835D01*
X88646598Y-65298386D01*
X88649000Y-65274000D01*
X88649000Y-64226000D01*
X88646598Y-64201614D01*
X88639485Y-64178165D01*
X88639000Y-64177258D01*
X88639000Y-63339000D01*
X90361000Y-63339000D01*
X90361000Y-64177258D01*
X90361000Y-64177258D01*
G37*
G36*
X63551000Y-66026000D02*
X62849000Y-66026000D01*
X62849000Y-65474000D01*
X63551000Y-65474000D01*
X63551000Y-66026000D01*
X63551000Y-66026000D01*
G37*
G36*
X65651000Y-66026000D02*
X64949000Y-66026000D01*
X64949000Y-65474000D01*
X65651000Y-65474000D01*
X65651000Y-66026000D01*
X65651000Y-66026000D01*
G37*
G36*
X83751000Y-65801000D02*
X82749000Y-65801000D01*
X82749000Y-65199000D01*
X83751000Y-65199000D01*
X83751000Y-65801000D01*
X83751000Y-65801000D01*
G37*
G36*
X81526000Y-65736000D02*
X79874000Y-65736000D01*
X79874000Y-65034000D01*
X81526000Y-65034000D01*
X81526000Y-65736000D01*
X81526000Y-65736000D01*
G37*
G36*
X76126000Y-65736000D02*
X74474000Y-65736000D01*
X74474000Y-65034000D01*
X76126000Y-65034000D01*
X76126000Y-65736000D01*
X76126000Y-65736000D01*
G37*
G36*
X133401000Y-65501000D02*
X132499000Y-65501000D01*
X132499000Y-64499000D01*
X133401000Y-64499000D01*
X133401000Y-65501000D01*
X133401000Y-65501000D01*
G37*
G36*
X131501000Y-65501000D02*
X130599000Y-65501000D01*
X130599000Y-64499000D01*
X131501000Y-64499000D01*
X131501000Y-65501000D01*
X131501000Y-65501000D01*
G37*
G36*
X95426000Y-65201000D02*
X94574000Y-65201000D01*
X94574000Y-64299000D01*
X95426000Y-64299000D01*
X95426000Y-65201000D01*
X95426000Y-65201000D01*
G37*
G36*
X125301000Y-64781000D02*
X124199000Y-64781000D01*
X124199000Y-61679000D01*
X125301000Y-61679000D01*
X125301000Y-64781000D01*
X125301000Y-64781000D01*
G37*
G36*
X127841000Y-64781000D02*
X126739000Y-64781000D01*
X126739000Y-61679000D01*
X127841000Y-61679000D01*
X127841000Y-64781000D01*
X127841000Y-64781000D01*
G37*
G36*
X122761000Y-64781000D02*
X121659000Y-64781000D01*
X121659000Y-61679000D01*
X122761000Y-61679000D01*
X122761000Y-64781000D01*
X122761000Y-64781000D01*
G37*
G36*
X101801000Y-64751000D02*
X101199000Y-64751000D01*
X101199000Y-63749000D01*
X101801000Y-63749000D01*
X101801000Y-64751000D01*
X101801000Y-64751000D01*
G37*
G36*
X100301000Y-64751000D02*
X99699000Y-64751000D01*
X99699000Y-63749000D01*
X100301000Y-63749000D01*
X100301000Y-64751000D01*
X100301000Y-64751000D01*
G37*
G36*
X68026000Y-64576000D02*
X67474000Y-64576000D01*
X67474000Y-63874000D01*
X68026000Y-63874000D01*
X68026000Y-64576000D01*
X68026000Y-64576000D01*
G37*
G36*
X81526000Y-64466000D02*
X79874000Y-64466000D01*
X79874000Y-63764000D01*
X81526000Y-63764000D01*
X81526000Y-64466000D01*
X81526000Y-64466000D01*
G37*
G36*
X76126000Y-64466000D02*
X74474000Y-64466000D01*
X74474000Y-63764000D01*
X76126000Y-63764000D01*
X76126000Y-64466000D01*
X76126000Y-64466000D01*
G37*
G36*
X65977464Y-64378980D02*
X64675464Y-64378980D01*
X64675464Y-63076980D01*
X65977464Y-63076980D01*
X65977464Y-64378980D01*
X65977464Y-64378980D01*
G37*
G36*
X63777464Y-64378980D02*
X62475464Y-64378980D01*
X62475464Y-63076980D01*
X63777464Y-63076980D01*
X63777464Y-64378980D01*
X63777464Y-64378980D01*
G37*
G36*
X119317368Y-59646536D02*
X114896536Y-64067368D01*
X113693040Y-62863872D01*
X114154074Y-62402838D01*
X114170338Y-62386575D01*
X114170347Y-62386564D01*
X114808137Y-61748774D01*
X114808148Y-61748765D01*
X114824411Y-61732501D01*
X116982501Y-59574411D01*
X116998765Y-59558148D01*
X116998774Y-59558137D01*
X117636564Y-58920347D01*
X117636575Y-58920338D01*
X117652838Y-58904074D01*
X118113872Y-58443040D01*
X119317368Y-59646536D01*
X119317368Y-59646536D01*
G37*
G36*
X109363426Y-58920338D02*
X109363432Y-58920343D01*
X110001231Y-59558142D01*
X110001236Y-59558148D01*
X112191853Y-61748765D01*
X112191859Y-61748770D01*
X112829658Y-62386569D01*
X112829663Y-62386575D01*
X113306960Y-62863872D01*
X112103464Y-64067368D01*
X111554048Y-63517952D01*
X111554043Y-63517946D01*
X111060482Y-63024385D01*
X111060476Y-63024380D01*
X108725621Y-60689525D01*
X108725616Y-60689519D01*
X108232055Y-60195958D01*
X108232049Y-60195953D01*
X107682632Y-59646536D01*
X108886128Y-58443040D01*
X109363426Y-58920338D01*
X109363426Y-58920338D01*
G37*
G36*
X106483643Y-62229781D02*
X106629415Y-62290162D01*
X106760611Y-62377824D01*
X106872176Y-62489389D01*
X106959838Y-62620585D01*
X107020219Y-62766357D01*
X107051000Y-62921107D01*
X107051000Y-63078893D01*
X107020219Y-63233643D01*
X106959838Y-63379415D01*
X106872176Y-63510611D01*
X106760611Y-63622176D01*
X106629415Y-63709838D01*
X106483643Y-63770219D01*
X106328893Y-63801000D01*
X106171107Y-63801000D01*
X106016357Y-63770219D01*
X105870585Y-63709838D01*
X105739389Y-63622176D01*
X105627824Y-63510611D01*
X105540162Y-63379415D01*
X105479781Y-63233643D01*
X105449000Y-63078893D01*
X105449000Y-62921107D01*
X105479781Y-62766357D01*
X105540162Y-62620585D01*
X105627824Y-62489389D01*
X105739389Y-62377824D01*
X105870585Y-62290162D01*
X106016357Y-62229781D01*
X106171107Y-62199000D01*
X106328893Y-62199000D01*
X106483643Y-62229781D01*
X106483643Y-62229781D01*
G37*
G36*
X93851000Y-63801000D02*
X92149000Y-63801000D01*
X92149000Y-62699000D01*
X93851000Y-62699000D01*
X93851000Y-63801000D01*
X93851000Y-63801000D01*
G37*
G36*
X131801000Y-63751000D02*
X131199000Y-63751000D01*
X131199000Y-62749000D01*
X131801000Y-62749000D01*
X131801000Y-63751000D01*
X131801000Y-63751000D01*
G37*
G36*
X133301000Y-63751000D02*
X132699000Y-63751000D01*
X132699000Y-62749000D01*
X133301000Y-62749000D01*
X133301000Y-63751000D01*
X133301000Y-63751000D01*
G37*
G36*
X76126000Y-63196000D02*
X74474000Y-63196000D01*
X74474000Y-62494000D01*
X76126000Y-62494000D01*
X76126000Y-63196000D01*
X76126000Y-63196000D01*
G37*
G36*
X81526000Y-63196000D02*
X79874000Y-63196000D01*
X79874000Y-62494000D01*
X81526000Y-62494000D01*
X81526000Y-63196000D01*
X81526000Y-63196000D01*
G37*
G36*
X65977464Y-62378980D02*
X64675464Y-62378980D01*
X64675464Y-61076980D01*
X65977464Y-61076980D01*
X65977464Y-62378980D01*
X65977464Y-62378980D01*
G37*
G36*
X63777464Y-62378980D02*
X62475464Y-62378980D01*
X62475464Y-61076980D01*
X63777464Y-61076980D01*
X63777464Y-62378980D01*
X63777464Y-62378980D01*
G37*
G36*
X90801000Y-62351000D02*
X89699000Y-62351000D01*
X89699000Y-60649000D01*
X90801000Y-60649000D01*
X90801000Y-62351000D01*
X90801000Y-62351000D01*
G37*
G36*
X87801000Y-62351000D02*
X86699000Y-62351000D01*
X86699000Y-60649000D01*
X87801000Y-60649000D01*
X87801000Y-62351000D01*
X87801000Y-62351000D01*
G37*
G36*
X69551000Y-62001000D02*
X68949000Y-62001000D01*
X68949000Y-60999000D01*
X69551000Y-60999000D01*
X69551000Y-62001000D01*
X69551000Y-62001000D01*
G37*
G36*
X68051000Y-62001000D02*
X67449000Y-62001000D01*
X67449000Y-60999000D01*
X68051000Y-60999000D01*
X68051000Y-62001000D01*
X68051000Y-62001000D01*
G37*
G36*
X101051000Y-61751000D02*
X100449000Y-61751000D01*
X100449000Y-60749000D01*
X101051000Y-60749000D01*
X101051000Y-61751000D01*
X101051000Y-61751000D01*
G37*
G36*
X99551000Y-61751000D02*
X98949000Y-61751000D01*
X98949000Y-60749000D01*
X99551000Y-60749000D01*
X99551000Y-61751000D01*
X99551000Y-61751000D01*
G37*
G36*
X76551000Y-61351000D02*
X75449000Y-61351000D01*
X75449000Y-59649000D01*
X76551000Y-59649000D01*
X76551000Y-61351000D01*
X76551000Y-61351000D01*
G37*
G36*
X79551000Y-61351000D02*
X78449000Y-61351000D01*
X78449000Y-59649000D01*
X79551000Y-59649000D01*
X79551000Y-61351000D01*
X79551000Y-61351000D01*
G37*
G36*
X83801000Y-61176000D02*
X82699000Y-61176000D01*
X82699000Y-59824000D01*
X83801000Y-59824000D01*
X83801000Y-61176000D01*
X83801000Y-61176000D01*
G37*
G36*
X81801000Y-61176000D02*
X80699000Y-61176000D01*
X80699000Y-59824000D01*
X81801000Y-59824000D01*
X81801000Y-61176000D01*
X81801000Y-61176000D01*
G37*
G36*
X122536770Y-60671751D02*
X122111091Y-61097430D01*
X121402570Y-60388909D01*
X121828249Y-59963230D01*
X122536770Y-60671751D01*
X122536770Y-60671751D01*
G37*
G36*
X63701000Y-60426000D02*
X62799000Y-60426000D01*
X62799000Y-59574000D01*
X63701000Y-59574000D01*
X63701000Y-60426000D01*
X63701000Y-60426000D01*
G37*
G36*
X65201000Y-60426000D02*
X64299000Y-60426000D01*
X64299000Y-59574000D01*
X65201000Y-59574000D01*
X65201000Y-60426000D01*
X65201000Y-60426000D01*
G37*
G36*
X69301000Y-60251000D02*
X68699000Y-60251000D01*
X68699000Y-59249000D01*
X69301000Y-59249000D01*
X69301000Y-60251000D01*
X69301000Y-60251000D01*
G37*
G36*
X67801000Y-60251000D02*
X67199000Y-60251000D01*
X67199000Y-59249000D01*
X67801000Y-59249000D01*
X67801000Y-60251000D01*
X67801000Y-60251000D01*
G37*
G36*
X123597430Y-59611091D02*
X123171751Y-60036770D01*
X122463230Y-59328249D01*
X122888909Y-58902570D01*
X123597430Y-59611091D01*
X123597430Y-59611091D01*
G37*
G36*
X65201000Y-58926000D02*
X64299000Y-58926000D01*
X64299000Y-58074000D01*
X65201000Y-58074000D01*
X65201000Y-58926000D01*
X65201000Y-58926000D01*
G37*
G36*
X63701000Y-58926000D02*
X62799000Y-58926000D01*
X62799000Y-58074000D01*
X63701000Y-58074000D01*
X63701000Y-58926000D01*
X63701000Y-58926000D01*
G37*
G36*
X75721000Y-58576000D02*
X74399000Y-58576000D01*
X74399000Y-55924000D01*
X75721000Y-55924000D01*
X75721000Y-58576000D01*
X75721000Y-58576000D01*
G37*
G36*
X73101000Y-58576000D02*
X71779000Y-58576000D01*
X71779000Y-55924000D01*
X73101000Y-55924000D01*
X73101000Y-58576000D01*
X73101000Y-58576000D01*
G37*
G36*
X70926000Y-58451000D02*
X70074000Y-58451000D01*
X70074000Y-57549000D01*
X70926000Y-57549000D01*
X70926000Y-58451000D01*
X70926000Y-58451000D01*
G37*
G36*
X115445953Y-52982049D02*
X115445958Y-52982055D01*
X115939519Y-53475616D01*
X115939525Y-53475621D01*
X118274380Y-55810476D01*
X118274385Y-55810482D01*
X118767946Y-56304043D01*
X118767952Y-56304048D01*
X119317368Y-56853464D01*
X118113872Y-58056960D01*
X117636575Y-57579663D01*
X117636569Y-57579658D01*
X116998770Y-56941859D01*
X116998765Y-56941853D01*
X114808148Y-54751236D01*
X114808142Y-54751231D01*
X114170343Y-54113432D01*
X114170338Y-54113426D01*
X113693040Y-53636128D01*
X114896536Y-52432632D01*
X115445953Y-52982049D01*
X115445953Y-52982049D01*
G37*
G36*
X113306960Y-53636128D02*
X112829663Y-54113426D01*
X112191853Y-54751236D01*
X111626167Y-55316921D01*
X110494796Y-56448292D01*
X110001236Y-56941853D01*
X109363426Y-57579663D01*
X108886128Y-58056960D01*
X107682632Y-56853464D01*
X108232044Y-56304052D01*
X108232055Y-56304043D01*
X108248319Y-56287780D01*
X108248318Y-56287779D01*
X108709352Y-55826745D01*
X108709353Y-55826746D01*
X108725616Y-55810482D01*
X108725625Y-55810471D01*
X111060471Y-53475625D01*
X111060482Y-53475616D01*
X111076746Y-53459353D01*
X111076745Y-53459352D01*
X111537779Y-52998318D01*
X111537780Y-52998319D01*
X111554043Y-52982055D01*
X111554052Y-52982044D01*
X112103464Y-52432632D01*
X113306960Y-53636128D01*
X113306960Y-53636128D01*
G37*
G36*
X139051000Y-58051000D02*
X137949000Y-58051000D01*
X137949000Y-56949000D01*
X139051000Y-56949000D01*
X139051000Y-58051000D01*
X139051000Y-58051000D01*
G37*
G36*
X64051000Y-57351000D02*
X62949000Y-57351000D01*
X62949000Y-55649000D01*
X64051000Y-55649000D01*
X64051000Y-57351000D01*
X64051000Y-57351000D01*
G37*
G36*
X67051000Y-57351000D02*
X65949000Y-57351000D01*
X65949000Y-55649000D01*
X67051000Y-55649000D01*
X67051000Y-57351000D01*
X67051000Y-57351000D01*
G37*
G36*
X137601000Y-57151000D02*
X136449000Y-57151000D01*
X136449000Y-54849000D01*
X137601000Y-54849000D01*
X137601000Y-57151000D01*
X137601000Y-57151000D01*
G37*
G36*
X140551000Y-57151000D02*
X139399000Y-57151000D01*
X139399000Y-54849000D01*
X140551000Y-54849000D01*
X140551000Y-57151000D01*
X140551000Y-57151000D01*
G37*
G36*
X78826000Y-57001000D02*
X77274000Y-57001000D01*
X77274000Y-54499000D01*
X78826000Y-54499000D01*
X78826000Y-57001000D01*
X78826000Y-57001000D01*
G37*
G36*
X84726000Y-57001000D02*
X83174000Y-57001000D01*
X83174000Y-54499000D01*
X84726000Y-54499000D01*
X84726000Y-57001000D01*
X84726000Y-57001000D01*
G37*
G36*
X70926000Y-56951000D02*
X70074000Y-56951000D01*
X70074000Y-56049000D01*
X70926000Y-56049000D01*
X70926000Y-56951000D01*
X70926000Y-56951000D01*
G37*
G36*
X71001000Y-55301000D02*
X69999000Y-55301000D01*
X69999000Y-54699000D01*
X71001000Y-54699000D01*
X71001000Y-55301000D01*
X71001000Y-55301000D01*
G37*
G36*
X139051000Y-55051000D02*
X137949000Y-55051000D01*
X137949000Y-53949000D01*
X139051000Y-53949000D01*
X139051000Y-55051000D01*
X139051000Y-55051000D01*
G37*
G36*
X125451000Y-54801000D02*
X123349000Y-54801000D01*
X123349000Y-53999000D01*
X125451000Y-53999000D01*
X125451000Y-54801000D01*
X125451000Y-54801000D01*
G37*
G36*
X135151000Y-54801000D02*
X133049000Y-54801000D01*
X133049000Y-53999000D01*
X135151000Y-53999000D01*
X135151000Y-54801000D01*
X135151000Y-54801000D01*
G37*
G36*
X74051000Y-54751000D02*
X73449000Y-54751000D01*
X73449000Y-53749000D01*
X74051000Y-53749000D01*
X74051000Y-54751000D01*
X74051000Y-54751000D01*
G37*
G36*
X72551000Y-54751000D02*
X71949000Y-54751000D01*
X71949000Y-53749000D01*
X72551000Y-53749000D01*
X72551000Y-54751000D01*
X72551000Y-54751000D01*
G37*
G36*
X67401000Y-54401000D02*
X65599000Y-54401000D01*
X65599000Y-52599000D01*
X67401000Y-52599000D01*
X67401000Y-54401000D01*
X67401000Y-54401000D01*
G37*
G36*
X64070443Y-52605519D02*
X64136627Y-52612037D01*
X64249853Y-52646384D01*
X64306467Y-52663557D01*
X64444518Y-52737348D01*
X64462991Y-52747222D01*
X64498729Y-52776552D01*
X64600186Y-52859814D01*
X64683448Y-52961271D01*
X64712778Y-52997009D01*
X64712779Y-52997011D01*
X64796443Y-53153533D01*
X64796443Y-53153534D01*
X64847963Y-53323373D01*
X64865359Y-53500000D01*
X64847963Y-53676627D01*
X64826009Y-53749000D01*
X64796443Y-53846467D01*
X64741637Y-53949000D01*
X64712778Y-54002991D01*
X64694685Y-54025037D01*
X64600186Y-54140186D01*
X64498729Y-54223448D01*
X64462991Y-54252778D01*
X64462989Y-54252779D01*
X64306467Y-54336443D01*
X64249853Y-54353616D01*
X64136627Y-54387963D01*
X64070443Y-54394481D01*
X64004260Y-54401000D01*
X63915740Y-54401000D01*
X63849557Y-54394481D01*
X63783373Y-54387963D01*
X63670147Y-54353616D01*
X63613533Y-54336443D01*
X63457011Y-54252779D01*
X63457009Y-54252778D01*
X63421271Y-54223448D01*
X63319814Y-54140186D01*
X63225315Y-54025037D01*
X63207222Y-54002991D01*
X63178363Y-53949000D01*
X63123557Y-53846467D01*
X63093991Y-53749000D01*
X63072037Y-53676627D01*
X63054641Y-53500000D01*
X63072037Y-53323373D01*
X63123557Y-53153534D01*
X63123557Y-53153533D01*
X63207221Y-52997011D01*
X63207222Y-52997009D01*
X63236552Y-52961271D01*
X63319814Y-52859814D01*
X63421271Y-52776552D01*
X63457009Y-52747222D01*
X63475482Y-52737348D01*
X63613533Y-52663557D01*
X63670147Y-52646384D01*
X63783373Y-52612037D01*
X63849557Y-52605519D01*
X63915740Y-52599000D01*
X64004260Y-52599000D01*
X64070443Y-52605519D01*
X64070443Y-52605519D01*
G37*
G36*
X118900463Y-53798008D02*
X118298008Y-54400463D01*
X117660197Y-53762652D01*
X118262652Y-53160197D01*
X118900463Y-53798008D01*
X118900463Y-53798008D01*
G37*
G36*
X71001000Y-53801000D02*
X69999000Y-53801000D01*
X69999000Y-53199000D01*
X71001000Y-53199000D01*
X71001000Y-53801000D01*
X71001000Y-53801000D01*
G37*
G36*
X135151000Y-53701000D02*
X133049000Y-53701000D01*
X133049000Y-52899000D01*
X135151000Y-52899000D01*
X135151000Y-53701000D01*
X135151000Y-53701000D01*
G37*
G36*
X125451000Y-53701000D02*
X123349000Y-53701000D01*
X123349000Y-52899000D01*
X125451000Y-52899000D01*
X125451000Y-53701000D01*
X125451000Y-53701000D01*
G37*
G36*
X117839803Y-52737348D02*
X117237348Y-53339803D01*
X116599537Y-52701992D01*
X117201992Y-52099537D01*
X117839803Y-52737348D01*
X117839803Y-52737348D01*
G37*
G36*
X138851000Y-52701000D02*
X138149000Y-52701000D01*
X138149000Y-52199000D01*
X138851000Y-52199000D01*
X138851000Y-52701000D01*
X138851000Y-52701000D01*
G37*
G36*
X135151000Y-52601000D02*
X133049000Y-52601000D01*
X133049000Y-51799000D01*
X135151000Y-51799000D01*
X135151000Y-52601000D01*
X135151000Y-52601000D01*
G37*
G36*
X125451000Y-52601000D02*
X123349000Y-52601000D01*
X123349000Y-51799000D01*
X125451000Y-51799000D01*
X125451000Y-52601000D01*
X125451000Y-52601000D01*
G37*
G36*
X138851000Y-51801000D02*
X138149000Y-51801000D01*
X138149000Y-51299000D01*
X138851000Y-51299000D01*
X138851000Y-51801000D01*
X138851000Y-51801000D01*
G37*
G36*
X91551000Y-51551000D02*
X89449000Y-51551000D01*
X89449000Y-50449000D01*
X91551000Y-50449000D01*
X91551000Y-51551000D01*
X91551000Y-51551000D01*
G37*
G36*
X121601000Y-51551000D02*
X119899000Y-51551000D01*
X119899000Y-50449000D01*
X121601000Y-50449000D01*
X121601000Y-51551000D01*
X121601000Y-51551000D01*
G37*
G36*
X75551000Y-51551000D02*
X73449000Y-51551000D01*
X73449000Y-50449000D01*
X75551000Y-50449000D01*
X75551000Y-51551000D01*
X75551000Y-51551000D01*
G37*
G36*
X125451000Y-51501000D02*
X123349000Y-51501000D01*
X123349000Y-50699000D01*
X125451000Y-50699000D01*
X125451000Y-51501000D01*
X125451000Y-51501000D01*
G37*
G36*
X135151000Y-51501000D02*
X133049000Y-51501000D01*
X133049000Y-50699000D01*
X135151000Y-50699000D01*
X135151000Y-51501000D01*
X135151000Y-51501000D01*
G37*
G36*
X103790926Y-51356010D02*
X102788926Y-51356010D01*
X102788926Y-50454010D01*
X103790926Y-50454010D01*
X103790926Y-51356010D01*
X103790926Y-51356010D01*
G37*
G36*
X71001000Y-51301000D02*
X69999000Y-51301000D01*
X69999000Y-50699000D01*
X71001000Y-50699000D01*
X71001000Y-51301000D01*
X71001000Y-51301000D01*
G37*
G36*
X105790926Y-51006010D02*
X104788926Y-51006010D01*
X104788926Y-50404010D01*
X105790926Y-50404010D01*
X105790926Y-51006010D01*
X105790926Y-51006010D01*
G37*
G36*
X94859999Y-48949737D02*
X94869611Y-48952653D01*
X94878469Y-48957388D01*
X94886237Y-48963763D01*
X94896446Y-48976202D01*
X94903372Y-48986568D01*
X94920698Y-49003895D01*
X94941073Y-49017510D01*
X94963711Y-49026888D01*
X94987745Y-49031669D01*
X95012249Y-49031669D01*
X95036283Y-49026889D01*
X95058922Y-49017513D01*
X95079297Y-49003899D01*
X95096624Y-48986573D01*
X95103552Y-48976204D01*
X95113763Y-48963763D01*
X95121531Y-48957388D01*
X95130389Y-48952653D01*
X95140001Y-48949737D01*
X95156140Y-48948148D01*
X95643860Y-48948148D01*
X95662198Y-48949954D01*
X95674450Y-48950556D01*
X95692869Y-48950556D01*
X95715149Y-48952750D01*
X95799236Y-48969476D01*
X95820655Y-48975974D01*
X95899871Y-49008785D01*
X95919607Y-49019335D01*
X95990897Y-49066969D01*
X96008208Y-49081176D01*
X96068824Y-49141792D01*
X96083031Y-49159103D01*
X96130665Y-49230393D01*
X96141215Y-49250129D01*
X96174026Y-49329345D01*
X96180524Y-49350764D01*
X96197250Y-49434851D01*
X96199444Y-49457131D01*
X96199444Y-49475550D01*
X96200046Y-49487802D01*
X96201852Y-49506140D01*
X96201852Y-49993861D01*
X96200046Y-50012198D01*
X96199444Y-50024450D01*
X96199444Y-50042869D01*
X96197250Y-50065149D01*
X96180524Y-50149236D01*
X96174026Y-50170655D01*
X96141215Y-50249871D01*
X96130665Y-50269607D01*
X96083031Y-50340897D01*
X96068824Y-50358208D01*
X96008208Y-50418824D01*
X95990897Y-50433031D01*
X95919607Y-50480665D01*
X95899871Y-50491215D01*
X95820655Y-50524026D01*
X95799236Y-50530524D01*
X95715149Y-50547250D01*
X95692869Y-50549444D01*
X95674450Y-50549444D01*
X95662198Y-50550046D01*
X95643861Y-50551852D01*
X95156140Y-50551852D01*
X95140001Y-50550263D01*
X95130389Y-50547347D01*
X95121531Y-50542612D01*
X95113763Y-50536237D01*
X95103554Y-50523798D01*
X95096628Y-50513432D01*
X95079302Y-50496105D01*
X95058927Y-50482490D01*
X95036289Y-50473112D01*
X95012255Y-50468331D01*
X94987751Y-50468331D01*
X94963717Y-50473111D01*
X94941078Y-50482487D01*
X94920703Y-50496101D01*
X94903376Y-50513427D01*
X94896448Y-50523796D01*
X94886237Y-50536237D01*
X94878469Y-50542612D01*
X94869611Y-50547347D01*
X94859999Y-50550263D01*
X94843860Y-50551852D01*
X94356139Y-50551852D01*
X94337802Y-50550046D01*
X94325550Y-50549444D01*
X94307131Y-50549444D01*
X94284851Y-50547250D01*
X94200764Y-50530524D01*
X94179345Y-50524026D01*
X94100129Y-50491215D01*
X94080393Y-50480665D01*
X94009103Y-50433031D01*
X93991792Y-50418824D01*
X93931176Y-50358208D01*
X93916969Y-50340897D01*
X93869335Y-50269607D01*
X93858785Y-50249871D01*
X93825974Y-50170655D01*
X93819476Y-50149236D01*
X93802750Y-50065149D01*
X93800556Y-50042869D01*
X93800556Y-50024450D01*
X93799954Y-50012198D01*
X93798148Y-49993861D01*
X93798148Y-49506140D01*
X93799954Y-49487802D01*
X93800556Y-49475550D01*
X93800556Y-49457131D01*
X93802750Y-49434851D01*
X93819476Y-49350764D01*
X93825974Y-49329345D01*
X93858785Y-49250129D01*
X93869335Y-49230393D01*
X93916969Y-49159103D01*
X93931176Y-49141792D01*
X93991792Y-49081176D01*
X94009103Y-49066969D01*
X94080393Y-49019335D01*
X94100129Y-49008785D01*
X94179345Y-48975974D01*
X94200764Y-48969476D01*
X94284851Y-48952750D01*
X94307131Y-48950556D01*
X94325550Y-48950556D01*
X94337802Y-48949954D01*
X94356140Y-48948148D01*
X94843860Y-48948148D01*
X94859999Y-48949737D01*
X94859999Y-48949737D01*
G37*
G36*
X138551000Y-50501000D02*
X137949000Y-50501000D01*
X137949000Y-49499000D01*
X138551000Y-49499000D01*
X138551000Y-50501000D01*
X138551000Y-50501000D01*
G37*
G36*
X137051000Y-50501000D02*
X136449000Y-50501000D01*
X136449000Y-49499000D01*
X137051000Y-49499000D01*
X137051000Y-50501000D01*
X137051000Y-50501000D01*
G37*
G36*
X68277396Y-48625546D02*
X68450466Y-48697234D01*
X68606230Y-48801312D01*
X68738688Y-48933770D01*
X68842766Y-49089534D01*
X68914454Y-49262604D01*
X68951000Y-49446333D01*
X68951000Y-49633667D01*
X68914454Y-49817396D01*
X68842766Y-49990466D01*
X68738688Y-50146230D01*
X68606230Y-50278688D01*
X68450466Y-50382766D01*
X68277396Y-50454454D01*
X68093667Y-50491000D01*
X67906333Y-50491000D01*
X67722604Y-50454454D01*
X67549534Y-50382766D01*
X67393770Y-50278688D01*
X67261312Y-50146230D01*
X67157234Y-49990466D01*
X67085546Y-49817396D01*
X67049000Y-49633667D01*
X67049000Y-49446333D01*
X67085546Y-49262604D01*
X67157234Y-49089534D01*
X67261312Y-48933770D01*
X67393770Y-48801312D01*
X67549534Y-48697234D01*
X67722604Y-48625546D01*
X67906333Y-48589000D01*
X68093667Y-48589000D01*
X68277396Y-48625546D01*
X68277396Y-48625546D01*
G37*
G36*
X141951000Y-50451000D02*
X140049000Y-50451000D01*
X140049000Y-48549000D01*
X141951000Y-48549000D01*
X141951000Y-50451000D01*
X141951000Y-50451000D01*
G37*
G36*
X101790926Y-50406010D02*
X100788926Y-50406010D01*
X100788926Y-49504010D01*
X101790926Y-49504010D01*
X101790926Y-50406010D01*
X101790926Y-50406010D01*
G37*
G36*
X125451000Y-50401000D02*
X123349000Y-50401000D01*
X123349000Y-49599000D01*
X125451000Y-49599000D01*
X125451000Y-50401000D01*
X125451000Y-50401000D01*
G37*
G36*
X135151000Y-50401000D02*
X133049000Y-50401000D01*
X133049000Y-49599000D01*
X135151000Y-49599000D01*
X135151000Y-50401000D01*
X135151000Y-50401000D01*
G37*
G36*
X118926000Y-50201000D02*
X118074000Y-50201000D01*
X118074000Y-49299000D01*
X118926000Y-49299000D01*
X118926000Y-50201000D01*
X118926000Y-50201000D01*
G37*
G36*
X71001000Y-49801000D02*
X69999000Y-49801000D01*
X69999000Y-49199000D01*
X71001000Y-49199000D01*
X71001000Y-49801000D01*
X71001000Y-49801000D01*
G37*
G36*
X91551000Y-49551000D02*
X89449000Y-49551000D01*
X89449000Y-48449000D01*
X91551000Y-48449000D01*
X91551000Y-49551000D01*
X91551000Y-49551000D01*
G37*
G36*
X75551000Y-49551000D02*
X73449000Y-49551000D01*
X73449000Y-48449000D01*
X75551000Y-48449000D01*
X75551000Y-49551000D01*
X75551000Y-49551000D01*
G37*
G36*
X105790926Y-49506010D02*
X104788926Y-49506010D01*
X104788926Y-48904010D01*
X105790926Y-48904010D01*
X105790926Y-49506010D01*
X105790926Y-49506010D01*
G37*
G36*
X103790926Y-49456010D02*
X102788926Y-49456010D01*
X102788926Y-48554010D01*
X103790926Y-48554010D01*
X103790926Y-49456010D01*
X103790926Y-49456010D01*
G37*
G36*
X135151000Y-49301000D02*
X133049000Y-49301000D01*
X133049000Y-48499000D01*
X135151000Y-48499000D01*
X135151000Y-49301000D01*
X135151000Y-49301000D01*
G37*
G36*
X125451000Y-49301000D02*
X123349000Y-49301000D01*
X123349000Y-48499000D01*
X125451000Y-48499000D01*
X125451000Y-49301000D01*
X125451000Y-49301000D01*
G37*
G36*
X118926000Y-48701000D02*
X118074000Y-48701000D01*
X118074000Y-47799000D01*
X118926000Y-47799000D01*
X118926000Y-48701000D01*
X118926000Y-48701000D01*
G37*
G36*
X121601000Y-48551000D02*
X119899000Y-48551000D01*
X119899000Y-47449000D01*
X121601000Y-47449000D01*
X121601000Y-48551000D01*
X121601000Y-48551000D01*
G37*
G36*
X94859999Y-46699737D02*
X94869611Y-46702653D01*
X94878469Y-46707388D01*
X94886237Y-46713763D01*
X94896446Y-46726202D01*
X94903372Y-46736568D01*
X94920698Y-46753895D01*
X94941073Y-46767510D01*
X94963711Y-46776888D01*
X94987745Y-46781669D01*
X95012249Y-46781669D01*
X95036283Y-46776889D01*
X95058922Y-46767513D01*
X95079297Y-46753899D01*
X95096624Y-46736573D01*
X95103552Y-46726204D01*
X95113763Y-46713763D01*
X95121531Y-46707388D01*
X95130389Y-46702653D01*
X95140001Y-46699737D01*
X95156140Y-46698148D01*
X95643860Y-46698148D01*
X95662198Y-46699954D01*
X95674450Y-46700556D01*
X95692869Y-46700556D01*
X95715149Y-46702750D01*
X95799236Y-46719476D01*
X95820655Y-46725974D01*
X95899871Y-46758785D01*
X95919607Y-46769335D01*
X95990897Y-46816969D01*
X96008208Y-46831176D01*
X96068824Y-46891792D01*
X96083031Y-46909103D01*
X96130665Y-46980393D01*
X96141215Y-47000129D01*
X96174026Y-47079345D01*
X96180524Y-47100764D01*
X96197250Y-47184851D01*
X96199444Y-47207131D01*
X96199444Y-47225550D01*
X96200046Y-47237802D01*
X96201852Y-47256140D01*
X96201852Y-47743861D01*
X96200046Y-47762198D01*
X96199444Y-47774450D01*
X96199444Y-47792869D01*
X96197250Y-47815149D01*
X96180524Y-47899236D01*
X96174026Y-47920655D01*
X96141215Y-47999871D01*
X96130665Y-48019607D01*
X96083031Y-48090897D01*
X96068824Y-48108208D01*
X96008208Y-48168824D01*
X95990897Y-48183031D01*
X95919607Y-48230665D01*
X95899871Y-48241215D01*
X95820655Y-48274026D01*
X95799236Y-48280524D01*
X95715149Y-48297250D01*
X95692869Y-48299444D01*
X95674450Y-48299444D01*
X95662198Y-48300046D01*
X95643861Y-48301852D01*
X95156140Y-48301852D01*
X95140001Y-48300263D01*
X95130389Y-48297347D01*
X95121531Y-48292612D01*
X95113763Y-48286237D01*
X95103554Y-48273798D01*
X95096628Y-48263432D01*
X95079302Y-48246105D01*
X95058927Y-48232490D01*
X95036289Y-48223112D01*
X95012255Y-48218331D01*
X94987751Y-48218331D01*
X94963717Y-48223111D01*
X94941078Y-48232487D01*
X94920703Y-48246101D01*
X94903376Y-48263427D01*
X94896448Y-48273796D01*
X94886237Y-48286237D01*
X94878469Y-48292612D01*
X94869611Y-48297347D01*
X94859999Y-48300263D01*
X94843860Y-48301852D01*
X94356139Y-48301852D01*
X94337802Y-48300046D01*
X94325550Y-48299444D01*
X94307131Y-48299444D01*
X94284851Y-48297250D01*
X94200764Y-48280524D01*
X94179345Y-48274026D01*
X94100129Y-48241215D01*
X94080393Y-48230665D01*
X94009103Y-48183031D01*
X93991792Y-48168824D01*
X93931176Y-48108208D01*
X93916969Y-48090897D01*
X93869335Y-48019607D01*
X93858785Y-47999871D01*
X93825974Y-47920655D01*
X93819476Y-47899236D01*
X93802750Y-47815149D01*
X93800556Y-47792869D01*
X93800556Y-47774450D01*
X93799954Y-47762198D01*
X93798148Y-47743861D01*
X93798148Y-47256140D01*
X93799954Y-47237802D01*
X93800556Y-47225550D01*
X93800556Y-47207131D01*
X93802750Y-47184851D01*
X93819476Y-47100764D01*
X93825974Y-47079345D01*
X93858785Y-47000129D01*
X93869335Y-46980393D01*
X93916969Y-46909103D01*
X93931176Y-46891792D01*
X93991792Y-46831176D01*
X94009103Y-46816969D01*
X94080393Y-46769335D01*
X94100129Y-46758785D01*
X94179345Y-46725974D01*
X94200764Y-46719476D01*
X94284851Y-46702750D01*
X94307131Y-46700556D01*
X94325550Y-46700556D01*
X94337802Y-46699954D01*
X94356140Y-46698148D01*
X94843860Y-46698148D01*
X94859999Y-46699737D01*
X94859999Y-46699737D01*
G37*
G36*
X135151000Y-48201000D02*
X133049000Y-48201000D01*
X133049000Y-47399000D01*
X135151000Y-47399000D01*
X135151000Y-48201000D01*
X135151000Y-48201000D01*
G37*
G36*
X125451000Y-48201000D02*
X123349000Y-48201000D01*
X123349000Y-47399000D01*
X125451000Y-47399000D01*
X125451000Y-48201000D01*
X125451000Y-48201000D01*
G37*
G36*
X109251000Y-48051000D02*
X108249000Y-48051000D01*
X108249000Y-47449000D01*
X109251000Y-47449000D01*
X109251000Y-48051000D01*
X109251000Y-48051000D01*
G37*
G36*
X68951000Y-47951000D02*
X67049000Y-47951000D01*
X67049000Y-46049000D01*
X68951000Y-46049000D01*
X68951000Y-47951000D01*
X68951000Y-47951000D01*
G37*
G36*
X141277396Y-46045546D02*
X141450466Y-46117234D01*
X141606230Y-46221312D01*
X141738688Y-46353770D01*
X141842766Y-46509534D01*
X141914454Y-46682604D01*
X141951000Y-46866333D01*
X141951000Y-47053667D01*
X141914454Y-47237396D01*
X141842766Y-47410466D01*
X141738688Y-47566230D01*
X141606230Y-47698688D01*
X141450466Y-47802766D01*
X141277396Y-47874454D01*
X141093667Y-47911000D01*
X140906333Y-47911000D01*
X140722604Y-47874454D01*
X140549534Y-47802766D01*
X140393770Y-47698688D01*
X140261312Y-47566230D01*
X140157234Y-47410466D01*
X140085546Y-47237396D01*
X140049000Y-47053667D01*
X140049000Y-46866333D01*
X140085546Y-46682604D01*
X140157234Y-46509534D01*
X140261312Y-46353770D01*
X140393770Y-46221312D01*
X140549534Y-46117234D01*
X140722604Y-46045546D01*
X140906333Y-46009000D01*
X141093667Y-46009000D01*
X141277396Y-46045546D01*
X141277396Y-46045546D01*
G37*
G36*
X75551000Y-47551000D02*
X73449000Y-47551000D01*
X73449000Y-46449000D01*
X75551000Y-46449000D01*
X75551000Y-47551000D01*
X75551000Y-47551000D01*
G37*
G36*
X91551000Y-47551000D02*
X89449000Y-47551000D01*
X89449000Y-46449000D01*
X91551000Y-46449000D01*
X91551000Y-47551000D01*
X91551000Y-47551000D01*
G37*
G36*
X125451000Y-47101000D02*
X123349000Y-47101000D01*
X123349000Y-46299000D01*
X125451000Y-46299000D01*
X125451000Y-47101000D01*
X125451000Y-47101000D01*
G37*
G36*
X135151000Y-47101000D02*
X133049000Y-47101000D01*
X133049000Y-46299000D01*
X135151000Y-46299000D01*
X135151000Y-47101000D01*
X135151000Y-47101000D01*
G37*
G36*
X139251000Y-47051000D02*
X138249000Y-47051000D01*
X138249000Y-46449000D01*
X139251000Y-46449000D01*
X139251000Y-47051000D01*
X139251000Y-47051000D01*
G37*
G36*
X109251000Y-46551000D02*
X108249000Y-46551000D01*
X108249000Y-45949000D01*
X109251000Y-45949000D01*
X109251000Y-46551000D01*
X109251000Y-46551000D01*
G37*
G36*
X121301000Y-46251000D02*
X120699000Y-46251000D01*
X120699000Y-45249000D01*
X121301000Y-45249000D01*
X121301000Y-46251000D01*
X121301000Y-46251000D01*
G37*
G36*
X119801000Y-46251000D02*
X119199000Y-46251000D01*
X119199000Y-45249000D01*
X119801000Y-45249000D01*
X119801000Y-46251000D01*
X119801000Y-46251000D01*
G37*
G36*
X94859999Y-44449737D02*
X94869611Y-44452653D01*
X94878469Y-44457388D01*
X94886237Y-44463763D01*
X94896446Y-44476202D01*
X94903372Y-44486568D01*
X94920698Y-44503895D01*
X94941073Y-44517510D01*
X94963711Y-44526888D01*
X94987745Y-44531669D01*
X95012249Y-44531669D01*
X95036283Y-44526889D01*
X95058922Y-44517513D01*
X95079297Y-44503899D01*
X95096624Y-44486573D01*
X95103552Y-44476204D01*
X95113763Y-44463763D01*
X95121531Y-44457388D01*
X95130389Y-44452653D01*
X95140001Y-44449737D01*
X95156140Y-44448148D01*
X95643860Y-44448148D01*
X95662198Y-44449954D01*
X95674450Y-44450556D01*
X95692869Y-44450556D01*
X95715149Y-44452750D01*
X95799236Y-44469476D01*
X95820655Y-44475974D01*
X95899871Y-44508785D01*
X95919607Y-44519335D01*
X95990897Y-44566969D01*
X96008208Y-44581176D01*
X96068824Y-44641792D01*
X96083031Y-44659103D01*
X96130665Y-44730393D01*
X96141215Y-44750129D01*
X96174026Y-44829345D01*
X96180524Y-44850764D01*
X96197250Y-44934851D01*
X96199444Y-44957131D01*
X96199444Y-44975550D01*
X96200046Y-44987802D01*
X96201852Y-45006140D01*
X96201852Y-45493861D01*
X96200046Y-45512198D01*
X96199444Y-45524450D01*
X96199444Y-45542869D01*
X96197250Y-45565149D01*
X96180524Y-45649236D01*
X96174026Y-45670655D01*
X96141215Y-45749871D01*
X96130665Y-45769607D01*
X96083031Y-45840897D01*
X96068824Y-45858208D01*
X96008208Y-45918824D01*
X95990897Y-45933031D01*
X95919607Y-45980665D01*
X95899871Y-45991215D01*
X95820655Y-46024026D01*
X95799236Y-46030524D01*
X95715149Y-46047250D01*
X95692869Y-46049444D01*
X95674450Y-46049444D01*
X95662198Y-46050046D01*
X95643861Y-46051852D01*
X95156140Y-46051852D01*
X95140001Y-46050263D01*
X95130389Y-46047347D01*
X95121531Y-46042612D01*
X95113763Y-46036237D01*
X95103554Y-46023798D01*
X95096628Y-46013432D01*
X95079302Y-45996105D01*
X95058927Y-45982490D01*
X95036289Y-45973112D01*
X95012255Y-45968331D01*
X94987751Y-45968331D01*
X94963717Y-45973111D01*
X94941078Y-45982487D01*
X94920703Y-45996101D01*
X94903376Y-46013427D01*
X94896448Y-46023796D01*
X94886237Y-46036237D01*
X94878469Y-46042612D01*
X94869611Y-46047347D01*
X94859999Y-46050263D01*
X94843860Y-46051852D01*
X94356139Y-46051852D01*
X94337802Y-46050046D01*
X94325550Y-46049444D01*
X94307131Y-46049444D01*
X94284851Y-46047250D01*
X94200764Y-46030524D01*
X94179345Y-46024026D01*
X94100129Y-45991215D01*
X94080393Y-45980665D01*
X94009103Y-45933031D01*
X93991792Y-45918824D01*
X93931176Y-45858208D01*
X93916969Y-45840897D01*
X93869335Y-45769607D01*
X93858785Y-45749871D01*
X93825974Y-45670655D01*
X93819476Y-45649236D01*
X93802750Y-45565149D01*
X93800556Y-45542869D01*
X93800556Y-45524450D01*
X93799954Y-45512198D01*
X93798148Y-45493861D01*
X93798148Y-45006140D01*
X93799954Y-44987802D01*
X93800556Y-44975550D01*
X93800556Y-44957131D01*
X93802750Y-44934851D01*
X93819476Y-44850764D01*
X93825974Y-44829345D01*
X93858785Y-44750129D01*
X93869335Y-44730393D01*
X93916969Y-44659103D01*
X93931176Y-44641792D01*
X93991792Y-44581176D01*
X94009103Y-44566969D01*
X94080393Y-44519335D01*
X94100129Y-44508785D01*
X94179345Y-44475974D01*
X94200764Y-44469476D01*
X94284851Y-44452750D01*
X94307131Y-44450556D01*
X94325550Y-44450556D01*
X94337802Y-44449954D01*
X94356140Y-44448148D01*
X94843860Y-44448148D01*
X94859999Y-44449737D01*
X94859999Y-44449737D01*
G37*
G36*
X135151000Y-46001000D02*
X133049000Y-46001000D01*
X133049000Y-45199000D01*
X135151000Y-45199000D01*
X135151000Y-46001000D01*
X135151000Y-46001000D01*
G37*
G36*
X125451000Y-46001000D02*
X123349000Y-46001000D01*
X123349000Y-45199000D01*
X125451000Y-45199000D01*
X125451000Y-46001000D01*
X125451000Y-46001000D01*
G37*
G36*
X75551000Y-45551000D02*
X73449000Y-45551000D01*
X73449000Y-44449000D01*
X75551000Y-44449000D01*
X75551000Y-45551000D01*
X75551000Y-45551000D01*
G37*
G36*
X91551000Y-45551000D02*
X89449000Y-45551000D01*
X89449000Y-44449000D01*
X91551000Y-44449000D01*
X91551000Y-45551000D01*
X91551000Y-45551000D01*
G37*
G36*
X139251000Y-45551000D02*
X138249000Y-45551000D01*
X138249000Y-44949000D01*
X139251000Y-44949000D01*
X139251000Y-45551000D01*
X139251000Y-45551000D01*
G37*
G36*
X118501000Y-45401000D02*
X117199000Y-45401000D01*
X117199000Y-44099000D01*
X118501000Y-44099000D01*
X118501000Y-45401000D01*
X118501000Y-45401000D01*
G37*
G36*
X116301000Y-45401000D02*
X114999000Y-45401000D01*
X114999000Y-44099000D01*
X116301000Y-44099000D01*
X116301000Y-45401000D01*
X116301000Y-45401000D01*
G37*
G36*
X105817396Y-42181547D02*
X105990466Y-42253235D01*
X106146230Y-42357313D01*
X106278688Y-42489771D01*
X106382766Y-42645535D01*
X106454454Y-42818605D01*
X106491000Y-43002334D01*
X106491000Y-43189668D01*
X106454454Y-43373397D01*
X106382766Y-43546467D01*
X106278688Y-43702231D01*
X106146230Y-43834689D01*
X105990466Y-43938767D01*
X105817396Y-44010455D01*
X105633667Y-44047001D01*
X105446333Y-44047001D01*
X105262604Y-44010455D01*
X105089534Y-43938767D01*
X104933770Y-43834689D01*
X104801312Y-43702231D01*
X104697234Y-43546467D01*
X104625546Y-43373397D01*
X104589000Y-43189668D01*
X104589000Y-43002334D01*
X104625546Y-42818605D01*
X104697234Y-42645535D01*
X104801312Y-42489771D01*
X104933770Y-42357313D01*
X105089534Y-42253235D01*
X105262604Y-42181547D01*
X105446333Y-42145001D01*
X105633667Y-42145001D01*
X105817396Y-42181547D01*
X105817396Y-42181547D01*
G37*
G36*
X103951000Y-44047001D02*
X102049000Y-44047001D01*
X102049000Y-42145001D01*
X103951000Y-42145001D01*
X103951000Y-44047001D01*
X103951000Y-44047001D01*
G37*
G36*
X145551000Y-44001000D02*
X144949000Y-44001000D01*
X144949000Y-42999000D01*
X145551000Y-42999000D01*
X145551000Y-44001000D01*
X145551000Y-44001000D01*
G37*
G36*
X144051000Y-44001000D02*
X143449000Y-44001000D01*
X143449000Y-42999000D01*
X144051000Y-42999000D01*
X144051000Y-44001000D01*
X144051000Y-44001000D01*
G37*
G36*
X127051000Y-43601000D02*
X125949000Y-43601000D01*
X125949000Y-41899000D01*
X127051000Y-41899000D01*
X127051000Y-43601000D01*
X127051000Y-43601000D01*
G37*
G36*
X124051000Y-43601000D02*
X122949000Y-43601000D01*
X122949000Y-41899000D01*
X124051000Y-41899000D01*
X124051000Y-43601000D01*
X124051000Y-43601000D01*
G37*
G36*
X91551000Y-43551000D02*
X89449000Y-43551000D01*
X89449000Y-42449000D01*
X91551000Y-42449000D01*
X91551000Y-43551000D01*
X91551000Y-43551000D01*
G37*
G36*
X75551000Y-43551000D02*
X73449000Y-43551000D01*
X73449000Y-42449000D01*
X75551000Y-42449000D01*
X75551000Y-43551000D01*
X75551000Y-43551000D01*
G37*
G36*
X142500000Y-42500000D02*
X133000000Y-42500000D01*
X133000000Y-40000000D01*
X142500000Y-40000000D01*
X142500000Y-42500000D01*
X142500000Y-42500000D01*
G37*
G36*
X115701000Y-41926000D02*
X114799000Y-41926000D01*
X114799000Y-41074000D01*
X115701000Y-41074000D01*
X115701000Y-41926000D01*
X115701000Y-41926000D01*
G37*
G36*
X114201000Y-41926000D02*
X113299000Y-41926000D01*
X113299000Y-41074000D01*
X114201000Y-41074000D01*
X114201000Y-41926000D01*
X114201000Y-41926000D01*
G37*
G36*
X75551000Y-41551000D02*
X73449000Y-41551000D01*
X73449000Y-40449000D01*
X75551000Y-40449000D01*
X75551000Y-41551000D01*
X75551000Y-41551000D01*
G37*
G36*
X91551000Y-41551000D02*
X89449000Y-41551000D01*
X89449000Y-40449000D01*
X91551000Y-40449000D01*
X91551000Y-41551000D01*
X91551000Y-41551000D01*
G37*
G36*
X68401000Y-41051000D02*
X66099000Y-41051000D01*
X66099000Y-39899000D01*
X68401000Y-39899000D01*
X68401000Y-41051000D01*
X68401000Y-41051000D01*
G37*
G36*
X122926000Y-40701000D02*
X122074000Y-40701000D01*
X122074000Y-39799000D01*
X122926000Y-39799000D01*
X122926000Y-40701000D01*
X122926000Y-40701000D01*
G37*
G36*
X145401000Y-40701000D02*
X143599000Y-40701000D01*
X143599000Y-39699000D01*
X145401000Y-39699000D01*
X145401000Y-40701000D01*
X145401000Y-40701000D01*
G37*
G36*
X115441302Y-37183873D02*
X115443704Y-37208259D01*
X115450817Y-37231708D01*
X115462368Y-37253319D01*
X115477914Y-37272261D01*
X115496856Y-37287807D01*
X115518467Y-37299358D01*
X115541916Y-37306471D01*
X115566302Y-37308873D01*
X115916302Y-37308873D01*
X115916302Y-38660873D01*
X115566302Y-38660873D01*
X115541916Y-38663275D01*
X115518467Y-38670388D01*
X115496856Y-38681939D01*
X115477914Y-38697485D01*
X115462368Y-38716427D01*
X115450817Y-38738038D01*
X115443704Y-38761487D01*
X115441302Y-38785873D01*
X115441302Y-39635873D01*
X113589302Y-39635873D01*
X113589302Y-38785873D01*
X113586900Y-38761487D01*
X113579787Y-38738038D01*
X113568236Y-38716427D01*
X113552690Y-38697485D01*
X113533748Y-38681939D01*
X113512137Y-38670388D01*
X113488688Y-38663275D01*
X113464302Y-38660873D01*
X113114302Y-38660873D01*
X113114302Y-37308873D01*
X113464302Y-37308873D01*
X113488688Y-37306471D01*
X113512137Y-37299358D01*
X113533748Y-37287807D01*
X113552690Y-37272261D01*
X113568236Y-37253319D01*
X113577560Y-37235873D01*
X113891302Y-37235873D01*
X113891302Y-38733873D01*
X113893704Y-38758259D01*
X113900817Y-38781708D01*
X113912368Y-38803319D01*
X113927914Y-38822261D01*
X113946856Y-38837807D01*
X113968467Y-38849358D01*
X113991916Y-38856471D01*
X114016302Y-38858873D01*
X115014302Y-38858873D01*
X115038688Y-38856471D01*
X115062137Y-38849358D01*
X115083748Y-38837807D01*
X115102690Y-38822261D01*
X115118236Y-38803319D01*
X115129787Y-38781708D01*
X115136900Y-38758259D01*
X115139302Y-38733873D01*
X115139302Y-37235873D01*
X115136900Y-37211487D01*
X115129787Y-37188038D01*
X115118236Y-37166427D01*
X115102690Y-37147485D01*
X115083748Y-37131939D01*
X115062137Y-37120388D01*
X115038688Y-37113275D01*
X115014302Y-37110873D01*
X114016302Y-37110873D01*
X113991916Y-37113275D01*
X113968467Y-37120388D01*
X113946856Y-37131939D01*
X113927914Y-37147485D01*
X113912368Y-37166427D01*
X113900817Y-37188038D01*
X113893704Y-37211487D01*
X113891302Y-37235873D01*
X113577560Y-37235873D01*
X113579787Y-37231708D01*
X113586900Y-37208259D01*
X113589302Y-37183873D01*
X113589302Y-36333873D01*
X115441302Y-36333873D01*
X115441302Y-37183873D01*
X115441302Y-37183873D01*
G37*
G36*
X69301000Y-39551000D02*
X68199000Y-39551000D01*
X68199000Y-38449000D01*
X69301000Y-38449000D01*
X69301000Y-39551000D01*
X69301000Y-39551000D01*
G37*
G36*
X66301000Y-39551000D02*
X65199000Y-39551000D01*
X65199000Y-38449000D01*
X66301000Y-38449000D01*
X66301000Y-39551000D01*
X66301000Y-39551000D01*
G37*
G36*
X75551000Y-39551000D02*
X73449000Y-39551000D01*
X73449000Y-38449000D01*
X75551000Y-38449000D01*
X75551000Y-39551000D01*
X75551000Y-39551000D01*
G37*
G36*
X91551000Y-39551000D02*
X89449000Y-39551000D01*
X89449000Y-38449000D01*
X91551000Y-38449000D01*
X91551000Y-39551000D01*
X91551000Y-39551000D01*
G37*
G36*
X111931182Y-39235873D02*
X111329182Y-39235873D01*
X111329182Y-38233873D01*
X111931182Y-38233873D01*
X111931182Y-39235873D01*
X111931182Y-39235873D01*
G37*
G36*
X110431182Y-39235873D02*
X109829182Y-39235873D01*
X109829182Y-38233873D01*
X110431182Y-38233873D01*
X110431182Y-39235873D01*
X110431182Y-39235873D01*
G37*
G36*
X122926000Y-39201000D02*
X122074000Y-39201000D01*
X122074000Y-38299000D01*
X122926000Y-38299000D01*
X122926000Y-39201000D01*
X122926000Y-39201000D01*
G37*
G36*
X68401000Y-38101000D02*
X66099000Y-38101000D01*
X66099000Y-36949000D01*
X68401000Y-36949000D01*
X68401000Y-38101000D01*
X68401000Y-38101000D01*
G37*
G36*
X75551000Y-37551000D02*
X73449000Y-37551000D01*
X73449000Y-36449000D01*
X75551000Y-36449000D01*
X75551000Y-37551000D01*
X75551000Y-37551000D01*
G37*
G36*
X91551000Y-37551000D02*
X89449000Y-37551000D01*
X89449000Y-36449000D01*
X91551000Y-36449000D01*
X91551000Y-37551000D01*
X91551000Y-37551000D01*
G37*
G36*
X111931182Y-37384606D02*
X111329182Y-37384606D01*
X111329182Y-36382606D01*
X111931182Y-36382606D01*
X111931182Y-37384606D01*
X111931182Y-37384606D01*
G37*
G36*
X110431182Y-37384606D02*
X109829182Y-37384606D01*
X109829182Y-36382606D01*
X110431182Y-36382606D01*
X110431182Y-37384606D01*
X110431182Y-37384606D01*
G37*
G36*
X145401000Y-37301000D02*
X143599000Y-37301000D01*
X143599000Y-36299000D01*
X145401000Y-36299000D01*
X145401000Y-37301000D01*
X145401000Y-37301000D01*
G37*
M02*
