G04 #@! TF.GenerationSoftware,KiCad,Pcbnew,(5.0.1-3-g963ef8bb5)*
G04 #@! TF.CreationDate,2020-09-15T14:43:14+02:00*
G04 #@! TF.ProjectId,trackix,747261636B69782E6B696361645F7063,rev?*
G04 #@! TF.SameCoordinates,Original*
G04 #@! TF.FileFunction,Other,Fab,Bot*
%FSLAX46Y46*%
G04 Gerber Fmt 4.6, Leading zero omitted, Abs format (unit mm)*
G04 Created by KiCad (PCBNEW (5.0.1-3-g963ef8bb5)) date 2020 September 15, Tuesday 14:43:14*
%MOMM*%
%LPD*%
G01*
G04 APERTURE LIST*
%ADD10C,0.100000*%
%ADD11C,0.150000*%
G04 APERTURE END LIST*
D10*
G04 #@! TO.C,J4*
X190220000Y-101620000D02*
X190220000Y-100240000D01*
X190860000Y-101620000D02*
X190220000Y-101620000D01*
X190860000Y-100240000D02*
X190860000Y-101620000D01*
X190220000Y-100240000D02*
X190860000Y-100240000D01*
X190220000Y-93780000D02*
X190220000Y-95160000D01*
X190860000Y-93780000D02*
X190220000Y-93780000D01*
X190860000Y-95160000D02*
X190860000Y-93780000D01*
X190220000Y-95160000D02*
X190860000Y-95160000D01*
X187680000Y-101620000D02*
X187680000Y-100240000D01*
X188320000Y-101620000D02*
X187680000Y-101620000D01*
X188320000Y-100240000D02*
X188320000Y-101620000D01*
X187680000Y-100240000D02*
X188320000Y-100240000D01*
X187680000Y-93780000D02*
X187680000Y-95160000D01*
X188320000Y-93780000D02*
X187680000Y-93780000D01*
X188320000Y-95160000D02*
X188320000Y-93780000D01*
X187680000Y-95160000D02*
X188320000Y-95160000D01*
X185140000Y-101620000D02*
X185140000Y-100240000D01*
X185780000Y-101620000D02*
X185140000Y-101620000D01*
X185780000Y-100240000D02*
X185780000Y-101620000D01*
X185140000Y-100240000D02*
X185780000Y-100240000D01*
X185140000Y-93780000D02*
X185140000Y-95160000D01*
X185780000Y-93780000D02*
X185140000Y-93780000D01*
X185780000Y-95160000D02*
X185780000Y-93780000D01*
X185140000Y-95160000D02*
X185780000Y-95160000D01*
X184190000Y-100240000D02*
X184190000Y-95160000D01*
X191810000Y-100240000D02*
X184190000Y-100240000D01*
X191810000Y-95160000D02*
X191810000Y-100240000D01*
X184190000Y-95160000D02*
X191810000Y-95160000D01*
G04 #@! TD*
G04 #@! TO.C,TP2*
D11*
X154669047Y-127152380D02*
X154669047Y-126152380D01*
X154430952Y-126152380D01*
X154288095Y-126200000D01*
X154192857Y-126295238D01*
X154145238Y-126390476D01*
X154097619Y-126580952D01*
X154097619Y-126723809D01*
X154145238Y-126914285D01*
X154192857Y-127009523D01*
X154288095Y-127104761D01*
X154430952Y-127152380D01*
X154669047Y-127152380D01*
X153478571Y-126676190D02*
X153478571Y-127152380D01*
X153811904Y-126152380D02*
X153478571Y-126676190D01*
X153145238Y-126152380D01*
X152811904Y-127152380D02*
X152811904Y-126152380D01*
X152240476Y-127152380D01*
X152240476Y-126152380D01*
X151811904Y-126866666D02*
X151335714Y-126866666D01*
X151907142Y-127152380D02*
X151573809Y-126152380D01*
X151240476Y-127152380D01*
X150907142Y-127152380D02*
X150907142Y-126152380D01*
X150573809Y-126866666D01*
X150240476Y-126152380D01*
X150240476Y-127152380D01*
X149573809Y-126152380D02*
X149383333Y-126152380D01*
X149288095Y-126200000D01*
X149192857Y-126295238D01*
X149145238Y-126485714D01*
X149145238Y-126819047D01*
X149192857Y-127009523D01*
X149288095Y-127104761D01*
X149383333Y-127152380D01*
X149573809Y-127152380D01*
X149669047Y-127104761D01*
X149764285Y-127009523D01*
X149811904Y-126819047D01*
X149811904Y-126485714D01*
X149764285Y-126295238D01*
X149669047Y-126200000D01*
X149573809Y-126152380D01*
X148954761Y-127247619D02*
X148192857Y-127247619D01*
X147621428Y-126628571D02*
X147478571Y-126676190D01*
X147430952Y-126723809D01*
X147383333Y-126819047D01*
X147383333Y-126961904D01*
X147430952Y-127057142D01*
X147478571Y-127104761D01*
X147573809Y-127152380D01*
X147954761Y-127152380D01*
X147954761Y-126152380D01*
X147621428Y-126152380D01*
X147526190Y-126200000D01*
X147478571Y-126247619D01*
X147430952Y-126342857D01*
X147430952Y-126438095D01*
X147478571Y-126533333D01*
X147526190Y-126580952D01*
X147621428Y-126628571D01*
X147954761Y-126628571D01*
X152311904Y-130852380D02*
X151740476Y-130852380D01*
X152026190Y-131852380D02*
X152026190Y-130852380D01*
X151407142Y-131852380D02*
X151407142Y-130852380D01*
X151026190Y-130852380D01*
X150930952Y-130900000D01*
X150883333Y-130947619D01*
X150835714Y-131042857D01*
X150835714Y-131185714D01*
X150883333Y-131280952D01*
X150930952Y-131328571D01*
X151026190Y-131376190D01*
X151407142Y-131376190D01*
X150454761Y-130947619D02*
X150407142Y-130900000D01*
X150311904Y-130852380D01*
X150073809Y-130852380D01*
X149978571Y-130900000D01*
X149930952Y-130947619D01*
X149883333Y-131042857D01*
X149883333Y-131138095D01*
X149930952Y-131280952D01*
X150502380Y-131852380D01*
X149883333Y-131852380D01*
G04 #@! TO.C,TP1*
X146597619Y-127152380D02*
X146597619Y-126152380D01*
X146359523Y-126152380D01*
X146216666Y-126200000D01*
X146121428Y-126295238D01*
X146073809Y-126390476D01*
X146026190Y-126580952D01*
X146026190Y-126723809D01*
X146073809Y-126914285D01*
X146121428Y-127009523D01*
X146216666Y-127104761D01*
X146359523Y-127152380D01*
X146597619Y-127152380D01*
X145407142Y-126676190D02*
X145407142Y-127152380D01*
X145740476Y-126152380D02*
X145407142Y-126676190D01*
X145073809Y-126152380D01*
X144740476Y-127152380D02*
X144740476Y-126152380D01*
X144169047Y-127152380D01*
X144169047Y-126152380D01*
X143740476Y-126866666D02*
X143264285Y-126866666D01*
X143835714Y-127152380D02*
X143502380Y-126152380D01*
X143169047Y-127152380D01*
X142835714Y-127152380D02*
X142835714Y-126152380D01*
X142502380Y-126866666D01*
X142169047Y-126152380D01*
X142169047Y-127152380D01*
X141502380Y-126152380D02*
X141311904Y-126152380D01*
X141216666Y-126200000D01*
X141121428Y-126295238D01*
X141073809Y-126485714D01*
X141073809Y-126819047D01*
X141121428Y-127009523D01*
X141216666Y-127104761D01*
X141311904Y-127152380D01*
X141502380Y-127152380D01*
X141597619Y-127104761D01*
X141692857Y-127009523D01*
X141740476Y-126819047D01*
X141740476Y-126485714D01*
X141692857Y-126295238D01*
X141597619Y-126200000D01*
X141502380Y-126152380D01*
X140883333Y-127247619D02*
X140121428Y-127247619D01*
X139930952Y-126866666D02*
X139454761Y-126866666D01*
X140026190Y-127152380D02*
X139692857Y-126152380D01*
X139359523Y-127152380D01*
X146561904Y-130852380D02*
X145990476Y-130852380D01*
X146276190Y-131852380D02*
X146276190Y-130852380D01*
X145657142Y-131852380D02*
X145657142Y-130852380D01*
X145276190Y-130852380D01*
X145180952Y-130900000D01*
X145133333Y-130947619D01*
X145085714Y-131042857D01*
X145085714Y-131185714D01*
X145133333Y-131280952D01*
X145180952Y-131328571D01*
X145276190Y-131376190D01*
X145657142Y-131376190D01*
X144133333Y-131852380D02*
X144704761Y-131852380D01*
X144419047Y-131852380D02*
X144419047Y-130852380D01*
X144514285Y-130995238D01*
X144609523Y-131090476D01*
X144704761Y-131138095D01*
G04 #@! TO.C,J4*
X193036666Y-93604761D02*
X193036666Y-94080952D01*
X193322380Y-93509523D02*
X192322380Y-93842857D01*
X193322380Y-94176190D01*
X192322380Y-94366666D02*
X193322380Y-94700000D01*
X192322380Y-95033333D01*
X193322380Y-95938095D02*
X192846190Y-95604761D01*
X193322380Y-95366666D02*
X192322380Y-95366666D01*
X192322380Y-95747619D01*
X192370000Y-95842857D01*
X192417619Y-95890476D01*
X192512857Y-95938095D01*
X192655714Y-95938095D01*
X192750952Y-95890476D01*
X192798571Y-95842857D01*
X192846190Y-95747619D01*
X192846190Y-95366666D01*
X192941428Y-96366666D02*
X192941428Y-97128571D01*
X193322380Y-97604761D02*
X192322380Y-97604761D01*
X193274761Y-98033333D02*
X193322380Y-98176190D01*
X193322380Y-98414285D01*
X193274761Y-98509523D01*
X193227142Y-98557142D01*
X193131904Y-98604761D01*
X193036666Y-98604761D01*
X192941428Y-98557142D01*
X192893809Y-98509523D01*
X192846190Y-98414285D01*
X192798571Y-98223809D01*
X192750952Y-98128571D01*
X192703333Y-98080952D01*
X192608095Y-98033333D01*
X192512857Y-98033333D01*
X192417619Y-98080952D01*
X192370000Y-98128571D01*
X192322380Y-98223809D01*
X192322380Y-98461904D01*
X192370000Y-98604761D01*
X193322380Y-99033333D02*
X192322380Y-99033333D01*
X192322380Y-99414285D01*
X192370000Y-99509523D01*
X192417619Y-99557142D01*
X192512857Y-99604761D01*
X192655714Y-99604761D01*
X192750952Y-99557142D01*
X192798571Y-99509523D01*
X192846190Y-99414285D01*
X192846190Y-99033333D01*
X192941428Y-100033333D02*
X192941428Y-100795238D01*
X192322380Y-101700000D02*
X192322380Y-101509523D01*
X192370000Y-101414285D01*
X192417619Y-101366666D01*
X192560476Y-101271428D01*
X192750952Y-101223809D01*
X193131904Y-101223809D01*
X193227142Y-101271428D01*
X193274761Y-101319047D01*
X193322380Y-101414285D01*
X193322380Y-101604761D01*
X193274761Y-101700000D01*
X193227142Y-101747619D01*
X193131904Y-101795238D01*
X192893809Y-101795238D01*
X192798571Y-101747619D01*
X192750952Y-101700000D01*
X192703333Y-101604761D01*
X192703333Y-101414285D01*
X192750952Y-101319047D01*
X192798571Y-101271428D01*
X192893809Y-101223809D01*
X182582380Y-97366666D02*
X183296666Y-97366666D01*
X183439523Y-97319047D01*
X183534761Y-97223809D01*
X183582380Y-97080952D01*
X183582380Y-96985714D01*
X182915714Y-98271428D02*
X183582380Y-98271428D01*
X182534761Y-98033333D02*
X183249047Y-97795238D01*
X183249047Y-98414285D01*
G04 #@! TO.C,TP3*
X182961904Y-125750000D02*
X183057142Y-125702380D01*
X183200000Y-125702380D01*
X183342857Y-125750000D01*
X183438095Y-125845238D01*
X183485714Y-125940476D01*
X183533333Y-126130952D01*
X183533333Y-126273809D01*
X183485714Y-126464285D01*
X183438095Y-126559523D01*
X183342857Y-126654761D01*
X183200000Y-126702380D01*
X183104761Y-126702380D01*
X182961904Y-126654761D01*
X182914285Y-126607142D01*
X182914285Y-126273809D01*
X183104761Y-126273809D01*
X182485714Y-126702380D02*
X182485714Y-125702380D01*
X181914285Y-126702380D01*
X181914285Y-125702380D01*
X181438095Y-126702380D02*
X181438095Y-125702380D01*
X181200000Y-125702380D01*
X181057142Y-125750000D01*
X180961904Y-125845238D01*
X180914285Y-125940476D01*
X180866666Y-126130952D01*
X180866666Y-126273809D01*
X180914285Y-126464285D01*
X180961904Y-126559523D01*
X181057142Y-126654761D01*
X181200000Y-126702380D01*
X181438095Y-126702380D01*
X183461904Y-128702380D02*
X182890476Y-128702380D01*
X183176190Y-129702380D02*
X183176190Y-128702380D01*
X182557142Y-129702380D02*
X182557142Y-128702380D01*
X182176190Y-128702380D01*
X182080952Y-128750000D01*
X182033333Y-128797619D01*
X181985714Y-128892857D01*
X181985714Y-129035714D01*
X182033333Y-129130952D01*
X182080952Y-129178571D01*
X182176190Y-129226190D01*
X182557142Y-129226190D01*
X181652380Y-128702380D02*
X181033333Y-128702380D01*
X181366666Y-129083333D01*
X181223809Y-129083333D01*
X181128571Y-129130952D01*
X181080952Y-129178571D01*
X181033333Y-129273809D01*
X181033333Y-129511904D01*
X181080952Y-129607142D01*
X181128571Y-129654761D01*
X181223809Y-129702380D01*
X181509523Y-129702380D01*
X181604761Y-129654761D01*
X181652380Y-129607142D01*
G04 #@! TO.C,TP4*
X155007142Y-123102380D02*
X154673809Y-124102380D01*
X154340476Y-123102380D01*
X153435714Y-124007142D02*
X153483333Y-124054761D01*
X153626190Y-124102380D01*
X153721428Y-124102380D01*
X153864285Y-124054761D01*
X153959523Y-123959523D01*
X154007142Y-123864285D01*
X154054761Y-123673809D01*
X154054761Y-123530952D01*
X154007142Y-123340476D01*
X153959523Y-123245238D01*
X153864285Y-123150000D01*
X153721428Y-123102380D01*
X153626190Y-123102380D01*
X153483333Y-123150000D01*
X153435714Y-123197619D01*
X152435714Y-124007142D02*
X152483333Y-124054761D01*
X152626190Y-124102380D01*
X152721428Y-124102380D01*
X152864285Y-124054761D01*
X152959523Y-123959523D01*
X153007142Y-123864285D01*
X153054761Y-123673809D01*
X153054761Y-123530952D01*
X153007142Y-123340476D01*
X152959523Y-123245238D01*
X152864285Y-123150000D01*
X152721428Y-123102380D01*
X152626190Y-123102380D01*
X152483333Y-123150000D01*
X152435714Y-123197619D01*
X152245238Y-124197619D02*
X151483333Y-124197619D01*
X151245238Y-124102380D02*
X151245238Y-123102380D01*
X150769047Y-124102380D02*
X150769047Y-123102380D01*
X150197619Y-124102380D01*
X150197619Y-123102380D01*
X149959523Y-124197619D02*
X149197619Y-124197619D01*
X148959523Y-124102380D02*
X148959523Y-123102380D01*
X148721428Y-123102380D01*
X148578571Y-123150000D01*
X148483333Y-123245238D01*
X148435714Y-123340476D01*
X148388095Y-123530952D01*
X148388095Y-123673809D01*
X148435714Y-123864285D01*
X148483333Y-123959523D01*
X148578571Y-124054761D01*
X148721428Y-124102380D01*
X148959523Y-124102380D01*
X147388095Y-124007142D02*
X147435714Y-124054761D01*
X147578571Y-124102380D01*
X147673809Y-124102380D01*
X147816666Y-124054761D01*
X147911904Y-123959523D01*
X147959523Y-123864285D01*
X148007142Y-123673809D01*
X148007142Y-123530952D01*
X147959523Y-123340476D01*
X147911904Y-123245238D01*
X147816666Y-123150000D01*
X147673809Y-123102380D01*
X147578571Y-123102380D01*
X147435714Y-123150000D01*
X147388095Y-123197619D01*
X152411904Y-126102380D02*
X151840476Y-126102380D01*
X152126190Y-127102380D02*
X152126190Y-126102380D01*
X151507142Y-127102380D02*
X151507142Y-126102380D01*
X151126190Y-126102380D01*
X151030952Y-126150000D01*
X150983333Y-126197619D01*
X150935714Y-126292857D01*
X150935714Y-126435714D01*
X150983333Y-126530952D01*
X151030952Y-126578571D01*
X151126190Y-126626190D01*
X151507142Y-126626190D01*
X150078571Y-126435714D02*
X150078571Y-127102380D01*
X150316666Y-126054761D02*
X150554761Y-126769047D01*
X149935714Y-126769047D01*
G04 #@! TO.C,TP5*
X177916666Y-117766666D02*
X177440476Y-117766666D01*
X178011904Y-118052380D02*
X177678571Y-117052380D01*
X177345238Y-118052380D01*
X177011904Y-117052380D02*
X177011904Y-117861904D01*
X176964285Y-117957142D01*
X176916666Y-118004761D01*
X176821428Y-118052380D01*
X176630952Y-118052380D01*
X176535714Y-118004761D01*
X176488095Y-117957142D01*
X176440476Y-117861904D01*
X176440476Y-117052380D01*
X176059523Y-117052380D02*
X175392857Y-118052380D01*
X175392857Y-117052380D02*
X176059523Y-118052380D01*
X175250000Y-118147619D02*
X174488095Y-118147619D01*
X174059523Y-117052380D02*
X173869047Y-117052380D01*
X173773809Y-117100000D01*
X173678571Y-117195238D01*
X173630952Y-117385714D01*
X173630952Y-117719047D01*
X173678571Y-117909523D01*
X173773809Y-118004761D01*
X173869047Y-118052380D01*
X174059523Y-118052380D01*
X174154761Y-118004761D01*
X174250000Y-117909523D01*
X174297619Y-117719047D01*
X174297619Y-117385714D01*
X174250000Y-117195238D01*
X174154761Y-117100000D01*
X174059523Y-117052380D01*
X173202380Y-118052380D02*
X173202380Y-117052380D01*
X172630952Y-118052380D01*
X172630952Y-117052380D01*
X176511904Y-120052380D02*
X175940476Y-120052380D01*
X176226190Y-121052380D02*
X176226190Y-120052380D01*
X175607142Y-121052380D02*
X175607142Y-120052380D01*
X175226190Y-120052380D01*
X175130952Y-120100000D01*
X175083333Y-120147619D01*
X175035714Y-120242857D01*
X175035714Y-120385714D01*
X175083333Y-120480952D01*
X175130952Y-120528571D01*
X175226190Y-120576190D01*
X175607142Y-120576190D01*
X174130952Y-120052380D02*
X174607142Y-120052380D01*
X174654761Y-120528571D01*
X174607142Y-120480952D01*
X174511904Y-120433333D01*
X174273809Y-120433333D01*
X174178571Y-120480952D01*
X174130952Y-120528571D01*
X174083333Y-120623809D01*
X174083333Y-120861904D01*
X174130952Y-120957142D01*
X174178571Y-121004761D01*
X174273809Y-121052380D01*
X174511904Y-121052380D01*
X174607142Y-121004761D01*
X174654761Y-120957142D01*
G04 #@! TO.C,TP6*
X151102380Y-100700000D02*
X151197619Y-100652380D01*
X151340476Y-100652380D01*
X151483333Y-100700000D01*
X151578571Y-100795238D01*
X151626190Y-100890476D01*
X151673809Y-101080952D01*
X151673809Y-101223809D01*
X151626190Y-101414285D01*
X151578571Y-101509523D01*
X151483333Y-101604761D01*
X151340476Y-101652380D01*
X151245238Y-101652380D01*
X151102380Y-101604761D01*
X151054761Y-101557142D01*
X151054761Y-101223809D01*
X151245238Y-101223809D01*
X150626190Y-101652380D02*
X150626190Y-100652380D01*
X150245238Y-100652380D01*
X150150000Y-100700000D01*
X150102380Y-100747619D01*
X150054761Y-100842857D01*
X150054761Y-100985714D01*
X150102380Y-101080952D01*
X150150000Y-101128571D01*
X150245238Y-101176190D01*
X150626190Y-101176190D01*
X149673809Y-101604761D02*
X149530952Y-101652380D01*
X149292857Y-101652380D01*
X149197619Y-101604761D01*
X149150000Y-101557142D01*
X149102380Y-101461904D01*
X149102380Y-101366666D01*
X149150000Y-101271428D01*
X149197619Y-101223809D01*
X149292857Y-101176190D01*
X149483333Y-101128571D01*
X149578571Y-101080952D01*
X149626190Y-101033333D01*
X149673809Y-100938095D01*
X149673809Y-100842857D01*
X149626190Y-100747619D01*
X149578571Y-100700000D01*
X149483333Y-100652380D01*
X149245238Y-100652380D01*
X149102380Y-100700000D01*
X148911904Y-101747619D02*
X148150000Y-101747619D01*
X148054761Y-100652380D02*
X147483333Y-100652380D01*
X147769047Y-101652380D02*
X147769047Y-100652380D01*
X147245238Y-100652380D02*
X146578571Y-101652380D01*
X146578571Y-100652380D02*
X147245238Y-101652380D01*
X150411904Y-103652380D02*
X149840476Y-103652380D01*
X150126190Y-104652380D02*
X150126190Y-103652380D01*
X149507142Y-104652380D02*
X149507142Y-103652380D01*
X149126190Y-103652380D01*
X149030952Y-103700000D01*
X148983333Y-103747619D01*
X148935714Y-103842857D01*
X148935714Y-103985714D01*
X148983333Y-104080952D01*
X149030952Y-104128571D01*
X149126190Y-104176190D01*
X149507142Y-104176190D01*
X148078571Y-103652380D02*
X148269047Y-103652380D01*
X148364285Y-103700000D01*
X148411904Y-103747619D01*
X148507142Y-103890476D01*
X148554761Y-104080952D01*
X148554761Y-104461904D01*
X148507142Y-104557142D01*
X148459523Y-104604761D01*
X148364285Y-104652380D01*
X148173809Y-104652380D01*
X148078571Y-104604761D01*
X148030952Y-104557142D01*
X147983333Y-104461904D01*
X147983333Y-104223809D01*
X148030952Y-104128571D01*
X148078571Y-104080952D01*
X148173809Y-104033333D01*
X148364285Y-104033333D01*
X148459523Y-104080952D01*
X148507142Y-104128571D01*
X148554761Y-104223809D01*
G04 #@! TO.C,TP7*
X170961904Y-103802380D02*
X170390476Y-103802380D01*
X170676190Y-104802380D02*
X170676190Y-103802380D01*
X170152380Y-103802380D02*
X169485714Y-104802380D01*
X169485714Y-103802380D02*
X170152380Y-104802380D01*
X171861904Y-106802380D02*
X171290476Y-106802380D01*
X171576190Y-107802380D02*
X171576190Y-106802380D01*
X170957142Y-107802380D02*
X170957142Y-106802380D01*
X170576190Y-106802380D01*
X170480952Y-106850000D01*
X170433333Y-106897619D01*
X170385714Y-106992857D01*
X170385714Y-107135714D01*
X170433333Y-107230952D01*
X170480952Y-107278571D01*
X170576190Y-107326190D01*
X170957142Y-107326190D01*
X170052380Y-106802380D02*
X169385714Y-106802380D01*
X169814285Y-107802380D01*
G04 #@! TO.C,TP8*
X168066666Y-104802380D02*
X168400000Y-104326190D01*
X168638095Y-104802380D02*
X168638095Y-103802380D01*
X168257142Y-103802380D01*
X168161904Y-103850000D01*
X168114285Y-103897619D01*
X168066666Y-103992857D01*
X168066666Y-104135714D01*
X168114285Y-104230952D01*
X168161904Y-104278571D01*
X168257142Y-104326190D01*
X168638095Y-104326190D01*
X167733333Y-103802380D02*
X167066666Y-104802380D01*
X167066666Y-103802380D02*
X167733333Y-104802380D01*
X168661904Y-106802380D02*
X168090476Y-106802380D01*
X168376190Y-107802380D02*
X168376190Y-106802380D01*
X167757142Y-107802380D02*
X167757142Y-106802380D01*
X167376190Y-106802380D01*
X167280952Y-106850000D01*
X167233333Y-106897619D01*
X167185714Y-106992857D01*
X167185714Y-107135714D01*
X167233333Y-107230952D01*
X167280952Y-107278571D01*
X167376190Y-107326190D01*
X167757142Y-107326190D01*
X166614285Y-107230952D02*
X166709523Y-107183333D01*
X166757142Y-107135714D01*
X166804761Y-107040476D01*
X166804761Y-106992857D01*
X166757142Y-106897619D01*
X166709523Y-106850000D01*
X166614285Y-106802380D01*
X166423809Y-106802380D01*
X166328571Y-106850000D01*
X166280952Y-106897619D01*
X166233333Y-106992857D01*
X166233333Y-107040476D01*
X166280952Y-107135714D01*
X166328571Y-107183333D01*
X166423809Y-107230952D01*
X166614285Y-107230952D01*
X166709523Y-107278571D01*
X166757142Y-107326190D01*
X166804761Y-107421428D01*
X166804761Y-107611904D01*
X166757142Y-107707142D01*
X166709523Y-107754761D01*
X166614285Y-107802380D01*
X166423809Y-107802380D01*
X166328571Y-107754761D01*
X166280952Y-107707142D01*
X166233333Y-107611904D01*
X166233333Y-107421428D01*
X166280952Y-107326190D01*
X166328571Y-107278571D01*
X166423809Y-107230952D01*
G04 #@! TO.C,TP9*
X184802380Y-125702380D02*
X184230952Y-125702380D01*
X184516666Y-126702380D02*
X184516666Y-125702380D01*
X183516666Y-126654761D02*
X183611904Y-126702380D01*
X183802380Y-126702380D01*
X183897619Y-126654761D01*
X183945238Y-126559523D01*
X183945238Y-126178571D01*
X183897619Y-126083333D01*
X183802380Y-126035714D01*
X183611904Y-126035714D01*
X183516666Y-126083333D01*
X183469047Y-126178571D01*
X183469047Y-126273809D01*
X183945238Y-126369047D01*
X183088095Y-126654761D02*
X182992857Y-126702380D01*
X182802380Y-126702380D01*
X182707142Y-126654761D01*
X182659523Y-126559523D01*
X182659523Y-126511904D01*
X182707142Y-126416666D01*
X182802380Y-126369047D01*
X182945238Y-126369047D01*
X183040476Y-126321428D01*
X183088095Y-126226190D01*
X183088095Y-126178571D01*
X183040476Y-126083333D01*
X182945238Y-126035714D01*
X182802380Y-126035714D01*
X182707142Y-126083333D01*
X182373809Y-126035714D02*
X181992857Y-126035714D01*
X182230952Y-125702380D02*
X182230952Y-126559523D01*
X182183333Y-126654761D01*
X182088095Y-126702380D01*
X181992857Y-126702380D01*
X181659523Y-126702380D02*
X181659523Y-125702380D01*
X181278571Y-125702380D01*
X181183333Y-125750000D01*
X181135714Y-125797619D01*
X181088095Y-125892857D01*
X181088095Y-126035714D01*
X181135714Y-126130952D01*
X181183333Y-126178571D01*
X181278571Y-126226190D01*
X181659523Y-126226190D01*
X180516666Y-126702380D02*
X180611904Y-126654761D01*
X180659523Y-126607142D01*
X180707142Y-126511904D01*
X180707142Y-126226190D01*
X180659523Y-126130952D01*
X180611904Y-126083333D01*
X180516666Y-126035714D01*
X180373809Y-126035714D01*
X180278571Y-126083333D01*
X180230952Y-126130952D01*
X180183333Y-126226190D01*
X180183333Y-126511904D01*
X180230952Y-126607142D01*
X180278571Y-126654761D01*
X180373809Y-126702380D01*
X180516666Y-126702380D01*
X179754761Y-126702380D02*
X179754761Y-126035714D01*
X179754761Y-125702380D02*
X179802380Y-125750000D01*
X179754761Y-125797619D01*
X179707142Y-125750000D01*
X179754761Y-125702380D01*
X179754761Y-125797619D01*
X179278571Y-126035714D02*
X179278571Y-126702380D01*
X179278571Y-126130952D02*
X179230952Y-126083333D01*
X179135714Y-126035714D01*
X178992857Y-126035714D01*
X178897619Y-126083333D01*
X178850000Y-126178571D01*
X178850000Y-126702380D01*
X178516666Y-126035714D02*
X178135714Y-126035714D01*
X178373809Y-125702380D02*
X178373809Y-126559523D01*
X178326190Y-126654761D01*
X178230952Y-126702380D01*
X178135714Y-126702380D01*
X177897619Y-125702380D02*
X177278571Y-125702380D01*
X177611904Y-126083333D01*
X177469047Y-126083333D01*
X177373809Y-126130952D01*
X177326190Y-126178571D01*
X177278571Y-126273809D01*
X177278571Y-126511904D01*
X177326190Y-126607142D01*
X177373809Y-126654761D01*
X177469047Y-126702380D01*
X177754761Y-126702380D01*
X177850000Y-126654761D01*
X177897619Y-126607142D01*
X176850000Y-126607142D02*
X176802380Y-126654761D01*
X176850000Y-126702380D01*
X176897619Y-126654761D01*
X176850000Y-126607142D01*
X176850000Y-126702380D01*
X176469047Y-125702380D02*
X175850000Y-125702380D01*
X176183333Y-126083333D01*
X176040476Y-126083333D01*
X175945238Y-126130952D01*
X175897619Y-126178571D01*
X175850000Y-126273809D01*
X175850000Y-126511904D01*
X175897619Y-126607142D01*
X175945238Y-126654761D01*
X176040476Y-126702380D01*
X176326190Y-126702380D01*
X176421428Y-126654761D01*
X176469047Y-126607142D01*
X175564285Y-125702380D02*
X175230952Y-126702380D01*
X174897619Y-125702380D01*
X181111904Y-128702380D02*
X180540476Y-128702380D01*
X180826190Y-129702380D02*
X180826190Y-128702380D01*
X180207142Y-129702380D02*
X180207142Y-128702380D01*
X179826190Y-128702380D01*
X179730952Y-128750000D01*
X179683333Y-128797619D01*
X179635714Y-128892857D01*
X179635714Y-129035714D01*
X179683333Y-129130952D01*
X179730952Y-129178571D01*
X179826190Y-129226190D01*
X180207142Y-129226190D01*
X179159523Y-129702380D02*
X178969047Y-129702380D01*
X178873809Y-129654761D01*
X178826190Y-129607142D01*
X178730952Y-129464285D01*
X178683333Y-129273809D01*
X178683333Y-128892857D01*
X178730952Y-128797619D01*
X178778571Y-128750000D01*
X178873809Y-128702380D01*
X179064285Y-128702380D01*
X179159523Y-128750000D01*
X179207142Y-128797619D01*
X179254761Y-128892857D01*
X179254761Y-129130952D01*
X179207142Y-129226190D01*
X179159523Y-129273809D01*
X179064285Y-129321428D01*
X178873809Y-129321428D01*
X178778571Y-129273809D01*
X178730952Y-129226190D01*
X178683333Y-129130952D01*
G04 #@! TD*
M02*
