G04 #@! TF.GenerationSoftware,KiCad,Pcbnew,(5.0.1-3-g963ef8bb5)*
G04 #@! TF.CreationDate,2020-05-04T17:29:04+02:00*
G04 #@! TF.ProjectId,trackix,747261636B69782E6B696361645F7063,rev?*
G04 #@! TF.SameCoordinates,Original*
G04 #@! TF.FileFunction,Paste,Top*
G04 #@! TF.FilePolarity,Positive*
%FSLAX46Y46*%
G04 Gerber Fmt 4.6, Leading zero omitted, Abs format (unit mm)*
G04 Created by KiCad (PCBNEW (5.0.1-3-g963ef8bb5)) date 2020 May 04, Monday 17:29:04*
%MOMM*%
%LPD*%
G01*
G04 APERTURE LIST*
%ADD10C,0.010000*%
%ADD11C,0.550000*%
%ADD12C,0.100000*%
%ADD13R,2.200000X1.050000*%
%ADD14R,1.000000X1.000000*%
%ADD15R,2.000000X1.000000*%
%ADD16R,1.300000X3.400000*%
%ADD17R,1.000000X1.250000*%
%ADD18R,1.000000X1.600000*%
%ADD19R,0.750000X0.800000*%
%ADD20R,1.600000X1.000000*%
%ADD21C,0.750000*%
%ADD22C,0.500000*%
%ADD23R,0.800000X0.750000*%
%ADD24R,1.200000X1.200000*%
%ADD25R,0.600000X0.450000*%
%ADD26R,0.450000X0.600000*%
%ADD27R,0.720000X0.960000*%
%ADD28R,1.550000X0.600000*%
%ADD29R,1.050000X2.200000*%
%ADD30R,1.000000X3.000000*%
%ADD31R,0.600000X0.400000*%
%ADD32R,0.900000X2.500000*%
%ADD33R,0.800000X0.900000*%
%ADD34R,1.450000X0.450000*%
%ADD35R,0.900000X0.800000*%
%ADD36R,0.900000X0.500000*%
%ADD37R,0.500000X0.900000*%
%ADD38R,1.700000X0.900000*%
%ADD39R,2.000000X0.700000*%
%ADD40R,1.220000X0.650000*%
%ADD41R,0.320000X0.660000*%
%ADD42R,0.250000X0.675000*%
%ADD43R,0.675000X0.250000*%
G04 APERTURE END LIST*
D10*
G04 #@! TO.C,U4*
G36*
X88820000Y-65070584D02*
X88820000Y-64430000D01*
X89439890Y-64430000D01*
X89439890Y-65070584D01*
X88820000Y-65070584D01*
G37*
X88820000Y-65070584D02*
X88820000Y-64430000D01*
X89439890Y-64430000D01*
X89439890Y-65070584D01*
X88820000Y-65070584D01*
G36*
X89560000Y-65070610D02*
X89560000Y-64430000D01*
X90181296Y-64430000D01*
X90181296Y-65070610D01*
X89560000Y-65070610D01*
G37*
X89560000Y-65070610D02*
X89560000Y-64430000D01*
X90181296Y-64430000D01*
X90181296Y-65070610D01*
X89560000Y-65070610D01*
G04 #@! TD*
D11*
G04 #@! TO.C,U1*
X108514897Y-57224695D03*
D12*
G36*
X109275037Y-57595926D02*
X108886128Y-57984835D01*
X107754757Y-56853464D01*
X108143666Y-56464555D01*
X109275037Y-57595926D01*
X109275037Y-57595926D01*
G37*
D11*
X109080583Y-56659010D03*
D12*
G36*
X109840723Y-57030241D02*
X109451814Y-57419150D01*
X108320443Y-56287779D01*
X108709352Y-55898870D01*
X109840723Y-57030241D01*
X109840723Y-57030241D01*
G37*
D11*
X109646268Y-56093324D03*
D12*
G36*
X110406408Y-56464555D02*
X110017499Y-56853464D01*
X108886128Y-55722093D01*
X109275037Y-55333184D01*
X110406408Y-56464555D01*
X110406408Y-56464555D01*
G37*
D11*
X110211953Y-55527639D03*
D12*
G36*
X110972093Y-55898870D02*
X110583184Y-56287779D01*
X109451813Y-55156408D01*
X109840722Y-54767499D01*
X110972093Y-55898870D01*
X110972093Y-55898870D01*
G37*
D11*
X110777639Y-54961953D03*
D12*
G36*
X111537779Y-55333184D02*
X111148870Y-55722093D01*
X110017499Y-54590722D01*
X110406408Y-54201813D01*
X111537779Y-55333184D01*
X111537779Y-55333184D01*
G37*
D11*
X111343324Y-54396268D03*
D12*
G36*
X112103464Y-54767499D02*
X111714555Y-55156408D01*
X110583184Y-54025037D01*
X110972093Y-53636128D01*
X112103464Y-54767499D01*
X112103464Y-54767499D01*
G37*
D11*
X111909010Y-53830583D03*
D12*
G36*
X112669150Y-54201814D02*
X112280241Y-54590723D01*
X111148870Y-53459352D01*
X111537779Y-53070443D01*
X112669150Y-54201814D01*
X112669150Y-54201814D01*
G37*
D11*
X112474695Y-53264897D03*
D12*
G36*
X113234835Y-53636128D02*
X112845926Y-54025037D01*
X111714555Y-52893666D01*
X112103464Y-52504757D01*
X113234835Y-53636128D01*
X113234835Y-53636128D01*
G37*
D11*
X114525305Y-53264897D03*
D12*
G36*
X114154074Y-54025037D02*
X113765165Y-53636128D01*
X114896536Y-52504757D01*
X115285445Y-52893666D01*
X114154074Y-54025037D01*
X114154074Y-54025037D01*
G37*
D11*
X115090990Y-53830583D03*
D12*
G36*
X114719759Y-54590723D02*
X114330850Y-54201814D01*
X115462221Y-53070443D01*
X115851130Y-53459352D01*
X114719759Y-54590723D01*
X114719759Y-54590723D01*
G37*
D11*
X115656676Y-54396268D03*
D12*
G36*
X115285445Y-55156408D02*
X114896536Y-54767499D01*
X116027907Y-53636128D01*
X116416816Y-54025037D01*
X115285445Y-55156408D01*
X115285445Y-55156408D01*
G37*
D11*
X116222361Y-54961953D03*
D12*
G36*
X115851130Y-55722093D02*
X115462221Y-55333184D01*
X116593592Y-54201813D01*
X116982501Y-54590722D01*
X115851130Y-55722093D01*
X115851130Y-55722093D01*
G37*
D11*
X116788047Y-55527639D03*
D12*
G36*
X116416816Y-56287779D02*
X116027907Y-55898870D01*
X117159278Y-54767499D01*
X117548187Y-55156408D01*
X116416816Y-56287779D01*
X116416816Y-56287779D01*
G37*
D11*
X117353732Y-56093324D03*
D12*
G36*
X116982501Y-56853464D02*
X116593592Y-56464555D01*
X117724963Y-55333184D01*
X118113872Y-55722093D01*
X116982501Y-56853464D01*
X116982501Y-56853464D01*
G37*
D11*
X117919417Y-56659010D03*
D12*
G36*
X117548186Y-57419150D02*
X117159277Y-57030241D01*
X118290648Y-55898870D01*
X118679557Y-56287779D01*
X117548186Y-57419150D01*
X117548186Y-57419150D01*
G37*
D11*
X118485103Y-57224695D03*
D12*
G36*
X118113872Y-57984835D02*
X117724963Y-57595926D01*
X118856334Y-56464555D01*
X119245243Y-56853464D01*
X118113872Y-57984835D01*
X118113872Y-57984835D01*
G37*
D11*
X118485103Y-59275305D03*
D12*
G36*
X119245243Y-59646536D02*
X118856334Y-60035445D01*
X117724963Y-58904074D01*
X118113872Y-58515165D01*
X119245243Y-59646536D01*
X119245243Y-59646536D01*
G37*
D11*
X117919417Y-59840990D03*
D12*
G36*
X118679557Y-60212221D02*
X118290648Y-60601130D01*
X117159277Y-59469759D01*
X117548186Y-59080850D01*
X118679557Y-60212221D01*
X118679557Y-60212221D01*
G37*
D11*
X117353732Y-60406676D03*
D12*
G36*
X118113872Y-60777907D02*
X117724963Y-61166816D01*
X116593592Y-60035445D01*
X116982501Y-59646536D01*
X118113872Y-60777907D01*
X118113872Y-60777907D01*
G37*
D11*
X116788047Y-60972361D03*
D12*
G36*
X117548187Y-61343592D02*
X117159278Y-61732501D01*
X116027907Y-60601130D01*
X116416816Y-60212221D01*
X117548187Y-61343592D01*
X117548187Y-61343592D01*
G37*
D11*
X116222361Y-61538047D03*
D12*
G36*
X116982501Y-61909278D02*
X116593592Y-62298187D01*
X115462221Y-61166816D01*
X115851130Y-60777907D01*
X116982501Y-61909278D01*
X116982501Y-61909278D01*
G37*
D11*
X115656676Y-62103732D03*
D12*
G36*
X116416816Y-62474963D02*
X116027907Y-62863872D01*
X114896536Y-61732501D01*
X115285445Y-61343592D01*
X116416816Y-62474963D01*
X116416816Y-62474963D01*
G37*
D11*
X115090990Y-62669417D03*
D12*
G36*
X115851130Y-63040648D02*
X115462221Y-63429557D01*
X114330850Y-62298186D01*
X114719759Y-61909277D01*
X115851130Y-63040648D01*
X115851130Y-63040648D01*
G37*
D11*
X114525305Y-63235103D03*
D12*
G36*
X115285445Y-63606334D02*
X114896536Y-63995243D01*
X113765165Y-62863872D01*
X114154074Y-62474963D01*
X115285445Y-63606334D01*
X115285445Y-63606334D01*
G37*
D11*
X112474695Y-63235103D03*
D12*
G36*
X112103464Y-63995243D02*
X111714555Y-63606334D01*
X112845926Y-62474963D01*
X113234835Y-62863872D01*
X112103464Y-63995243D01*
X112103464Y-63995243D01*
G37*
D11*
X111909010Y-62669417D03*
D12*
G36*
X111537779Y-63429557D02*
X111148870Y-63040648D01*
X112280241Y-61909277D01*
X112669150Y-62298186D01*
X111537779Y-63429557D01*
X111537779Y-63429557D01*
G37*
D11*
X111343324Y-62103732D03*
D12*
G36*
X110972093Y-62863872D02*
X110583184Y-62474963D01*
X111714555Y-61343592D01*
X112103464Y-61732501D01*
X110972093Y-62863872D01*
X110972093Y-62863872D01*
G37*
D11*
X110777639Y-61538047D03*
D12*
G36*
X110406408Y-62298187D02*
X110017499Y-61909278D01*
X111148870Y-60777907D01*
X111537779Y-61166816D01*
X110406408Y-62298187D01*
X110406408Y-62298187D01*
G37*
D11*
X110211953Y-60972361D03*
D12*
G36*
X109840722Y-61732501D02*
X109451813Y-61343592D01*
X110583184Y-60212221D01*
X110972093Y-60601130D01*
X109840722Y-61732501D01*
X109840722Y-61732501D01*
G37*
D11*
X109646268Y-60406676D03*
D12*
G36*
X109275037Y-61166816D02*
X108886128Y-60777907D01*
X110017499Y-59646536D01*
X110406408Y-60035445D01*
X109275037Y-61166816D01*
X109275037Y-61166816D01*
G37*
D11*
X109080583Y-59840990D03*
D12*
G36*
X108709352Y-60601130D02*
X108320443Y-60212221D01*
X109451814Y-59080850D01*
X109840723Y-59469759D01*
X108709352Y-60601130D01*
X108709352Y-60601130D01*
G37*
D11*
X108514897Y-59275305D03*
D12*
G36*
X108143666Y-60035445D02*
X107754757Y-59646536D01*
X108886128Y-58515165D01*
X109275037Y-58904074D01*
X108143666Y-60035445D01*
X108143666Y-60035445D01*
G37*
G04 #@! TD*
D13*
G04 #@! TO.C,J3*
X67250000Y-40475000D03*
X67250000Y-37525000D03*
D14*
X65750000Y-39000000D03*
X68750000Y-39000000D03*
G04 #@! TD*
D15*
G04 #@! TO.C,U5*
X74500000Y-51000000D03*
X74500000Y-49000000D03*
X74500000Y-47000000D03*
X74500000Y-45000000D03*
X74500000Y-43000000D03*
X74500000Y-41000000D03*
X74500000Y-39000000D03*
X74500000Y-37000000D03*
X90500000Y-37000000D03*
X90500000Y-39000000D03*
X90500000Y-41000000D03*
X90500000Y-43000000D03*
X90500000Y-45000000D03*
X90500000Y-47000000D03*
X90500000Y-49000000D03*
X90500000Y-51000000D03*
G04 #@! TD*
D16*
G04 #@! TO.C,BZ1*
X135650000Y-65750000D03*
X144350000Y-65750000D03*
G04 #@! TD*
D17*
G04 #@! TO.C,C1*
X83250000Y-60500000D03*
X81250000Y-60500000D03*
G04 #@! TD*
D18*
G04 #@! TO.C,C2*
X66500000Y-56500000D03*
X63500000Y-56500000D03*
G04 #@! TD*
D19*
G04 #@! TO.C,C3*
X70500000Y-58000000D03*
X70500000Y-56500000D03*
G04 #@! TD*
D20*
G04 #@! TO.C,C4*
X120750000Y-51000000D03*
X120750000Y-48000000D03*
G04 #@! TD*
D19*
G04 #@! TO.C,C5*
X118500000Y-49750000D03*
X118500000Y-48250000D03*
G04 #@! TD*
D18*
G04 #@! TO.C,C6*
X126500000Y-42750000D03*
X123500000Y-42750000D03*
G04 #@! TD*
D19*
G04 #@! TO.C,C7*
X122500000Y-38750000D03*
X122500000Y-40250000D03*
G04 #@! TD*
D21*
G04 #@! TO.C,C8*
X117219670Y-52719670D03*
D12*
G36*
X116671662Y-52701992D02*
X117201992Y-52171662D01*
X117767678Y-52737348D01*
X117237348Y-53267678D01*
X116671662Y-52701992D01*
X116671662Y-52701992D01*
G37*
D21*
X118280330Y-53780330D03*
D12*
G36*
X117732322Y-53762652D02*
X118262652Y-53232322D01*
X118828338Y-53798008D01*
X118298008Y-54328338D01*
X117732322Y-53762652D01*
X117732322Y-53762652D01*
G37*
G04 #@! TD*
D18*
G04 #@! TO.C,C9*
X87250000Y-61500000D03*
X90250000Y-61500000D03*
G04 #@! TD*
D22*
G04 #@! TO.C,C10*
X106500000Y-68500000D03*
D12*
G36*
X106111091Y-68464645D02*
X106464645Y-68111091D01*
X106888909Y-68535355D01*
X106535355Y-68888909D01*
X106111091Y-68464645D01*
X106111091Y-68464645D01*
G37*
D22*
X105722182Y-67722182D03*
D12*
G36*
X105333273Y-67686827D02*
X105686827Y-67333273D01*
X106111091Y-67757537D01*
X105757537Y-68111091D01*
X105333273Y-67686827D01*
X105333273Y-67686827D01*
G37*
G04 #@! TD*
D22*
G04 #@! TO.C,C11*
X104500000Y-66500000D03*
D12*
G36*
X104888909Y-66535355D02*
X104535355Y-66888909D01*
X104111091Y-66464645D01*
X104464645Y-66111091D01*
X104888909Y-66535355D01*
X104888909Y-66535355D01*
G37*
D22*
X103722182Y-65722182D03*
D12*
G36*
X104111091Y-65757537D02*
X103757537Y-66111091D01*
X103333273Y-65686827D01*
X103686827Y-65333273D01*
X104111091Y-65757537D01*
X104111091Y-65757537D01*
G37*
G04 #@! TD*
D20*
G04 #@! TO.C,C12*
X93000000Y-66250000D03*
X93000000Y-63250000D03*
G04 #@! TD*
D23*
G04 #@! TO.C,C13*
X63250000Y-58500000D03*
X64750000Y-58500000D03*
G04 #@! TD*
G04 #@! TO.C,C14*
X64750000Y-60000000D03*
X63250000Y-60000000D03*
G04 #@! TD*
D18*
G04 #@! TO.C,C15*
X79000000Y-60500000D03*
X76000000Y-60500000D03*
G04 #@! TD*
D19*
G04 #@! TO.C,C16*
X95000000Y-64750000D03*
X95000000Y-66250000D03*
G04 #@! TD*
D23*
G04 #@! TO.C,C17*
X113750000Y-41500000D03*
X115250000Y-41500000D03*
G04 #@! TD*
D24*
G04 #@! TO.C,D1*
X117850000Y-44750000D03*
X115650000Y-44750000D03*
G04 #@! TD*
G04 #@! TO.C,D2*
X116850000Y-68500000D03*
X114650000Y-68500000D03*
G04 #@! TD*
D25*
G04 #@! TO.C,D3*
X63450000Y-68250000D03*
X65550000Y-68250000D03*
G04 #@! TD*
D24*
G04 #@! TO.C,D7*
X63126464Y-63727980D03*
X65326464Y-63727980D03*
G04 #@! TD*
G04 #@! TO.C,D8*
X65326464Y-61727980D03*
X63126464Y-61727980D03*
G04 #@! TD*
D25*
G04 #@! TO.C,D9*
X67200000Y-68250000D03*
X69300000Y-68250000D03*
G04 #@! TD*
G04 #@! TO.C,D10*
X65300000Y-65750000D03*
X63200000Y-65750000D03*
G04 #@! TD*
D26*
G04 #@! TO.C,D11*
X67750000Y-66325000D03*
X67750000Y-64225000D03*
G04 #@! TD*
D27*
G04 #@! TO.C,IC2*
X78600000Y-65550000D03*
X78600000Y-63950000D03*
X77400000Y-65550000D03*
X77400000Y-63950000D03*
D28*
X75300000Y-66655000D03*
X75300000Y-65385000D03*
X75300000Y-64115000D03*
X75300000Y-62845000D03*
X80700000Y-62845000D03*
X80700000Y-64115000D03*
X80700000Y-65385000D03*
X80700000Y-66655000D03*
G04 #@! TD*
D14*
G04 #@! TO.C,J2*
X138500000Y-54500000D03*
X138500000Y-57500000D03*
D29*
X137025000Y-56000000D03*
X139975000Y-56000000D03*
G04 #@! TD*
D30*
G04 #@! TO.C,J4*
X127290000Y-68270000D03*
X127290000Y-63230000D03*
X124750000Y-68270000D03*
X124750000Y-63230000D03*
X122210000Y-68270000D03*
X122210000Y-63230000D03*
G04 #@! TD*
D31*
G04 #@! TO.C,L1*
X138500000Y-52450000D03*
X138500000Y-51550000D03*
G04 #@! TD*
D32*
G04 #@! TO.C,L2*
X90700000Y-68250000D03*
X87800000Y-68250000D03*
G04 #@! TD*
D33*
G04 #@! TO.C,Q1*
X132950000Y-65000000D03*
X131050000Y-65000000D03*
X132000000Y-67000000D03*
G04 #@! TD*
D34*
G04 #@! TO.C,Q3*
X83950000Y-54775000D03*
X83950000Y-55425000D03*
X83950000Y-56075000D03*
X83950000Y-56725000D03*
X78050000Y-56725000D03*
X78050000Y-56075000D03*
X78050000Y-55425000D03*
X78050000Y-54775000D03*
G04 #@! TD*
D35*
G04 #@! TO.C,Q5*
X101289926Y-49955010D03*
X103289926Y-49005010D03*
X103289926Y-50905010D03*
G04 #@! TD*
D36*
G04 #@! TO.C,R1*
X70500000Y-55000000D03*
X70500000Y-53500000D03*
G04 #@! TD*
D37*
G04 #@! TO.C,R2*
X73750000Y-54250000D03*
X72250000Y-54250000D03*
G04 #@! TD*
G04 #@! TO.C,R5*
X133000000Y-63250000D03*
X131500000Y-63250000D03*
G04 #@! TD*
G04 #@! TO.C,R6*
X145250000Y-43500000D03*
X143750000Y-43500000D03*
G04 #@! TD*
G04 #@! TO.C,R7*
X117750000Y-66250000D03*
X119250000Y-66250000D03*
G04 #@! TD*
G04 #@! TO.C,R8*
X111630182Y-38734873D03*
X110130182Y-38734873D03*
G04 #@! TD*
D36*
G04 #@! TO.C,R9*
X105289926Y-50705010D03*
X105289926Y-49205010D03*
G04 #@! TD*
G04 #@! TO.C,R10*
X70500000Y-51000000D03*
X70500000Y-49500000D03*
G04 #@! TD*
G04 #@! TO.C,R11*
X138750000Y-46750000D03*
X138750000Y-45250000D03*
G04 #@! TD*
G04 #@! TO.C,R12*
X108750000Y-47750000D03*
X108750000Y-46250000D03*
G04 #@! TD*
D37*
G04 #@! TO.C,R13*
X67750000Y-61500000D03*
X69250000Y-61500000D03*
G04 #@! TD*
G04 #@! TO.C,R14*
X67500000Y-59750000D03*
X69000000Y-59750000D03*
G04 #@! TD*
D36*
G04 #@! TO.C,R15*
X83250000Y-67000000D03*
X83250000Y-65500000D03*
G04 #@! TD*
D22*
G04 #@! TO.C,R16*
X121969670Y-60530330D03*
D12*
G36*
X121828249Y-60035355D02*
X122464645Y-60671751D01*
X122111091Y-61025305D01*
X121474695Y-60388909D01*
X121828249Y-60035355D01*
X121828249Y-60035355D01*
G37*
D22*
X123030330Y-59469670D03*
D12*
G36*
X122888909Y-58974695D02*
X123525305Y-59611091D01*
X123171751Y-59964645D01*
X122535355Y-59328249D01*
X122888909Y-58974695D01*
X122888909Y-58974695D01*
G37*
G04 #@! TD*
D37*
G04 #@! TO.C,R17*
X136750000Y-50000000D03*
X138250000Y-50000000D03*
G04 #@! TD*
G04 #@! TO.C,R18*
X119500000Y-45750000D03*
X121000000Y-45750000D03*
G04 #@! TD*
G04 #@! TO.C,R19*
X100750000Y-61250000D03*
X99250000Y-61250000D03*
G04 #@! TD*
G04 #@! TO.C,R20*
X101500000Y-64250000D03*
X100000000Y-64250000D03*
G04 #@! TD*
G04 #@! TO.C,R21*
X110130182Y-36883606D03*
X111630182Y-36883606D03*
G04 #@! TD*
D38*
G04 #@! TO.C,reset1*
X144500000Y-40200000D03*
X144500000Y-36800000D03*
G04 #@! TD*
D39*
G04 #@! TO.C,U2*
X124400000Y-45600000D03*
X124400000Y-46700000D03*
X124400000Y-47800000D03*
X124400000Y-48900000D03*
X124400000Y-50000000D03*
X124400000Y-51100000D03*
X124400000Y-52200000D03*
X124400000Y-53300000D03*
X124400000Y-54400000D03*
X134100000Y-54400000D03*
X134100000Y-53300000D03*
X134100000Y-52200000D03*
X134100000Y-51100000D03*
X134100000Y-50000000D03*
X134100000Y-48900000D03*
X134100000Y-47800000D03*
X134100000Y-46700000D03*
X134100000Y-45600000D03*
G04 #@! TD*
D40*
G04 #@! TO.C,U3*
X72440000Y-58200000D03*
X72440000Y-57250000D03*
X72440000Y-56300000D03*
X75060000Y-56300000D03*
X75060000Y-57250000D03*
X75060000Y-58200000D03*
G04 #@! TD*
D41*
G04 #@! TO.C,U4*
X88850000Y-65780000D03*
X89500000Y-65780000D03*
X90150000Y-65780000D03*
X90150000Y-63720000D03*
X89500000Y-63720000D03*
X88850000Y-63720000D03*
G04 #@! TD*
D42*
G04 #@! TO.C,U6*
X113765302Y-36722373D03*
X114265302Y-36722373D03*
X114765302Y-36722373D03*
X115265302Y-36722373D03*
X115265302Y-39247373D03*
X114765302Y-39247373D03*
X114265302Y-39247373D03*
X113765302Y-39247373D03*
D43*
X115527802Y-37484873D03*
X115527802Y-37984873D03*
X115527802Y-38484873D03*
X113502802Y-37484873D03*
X113502802Y-38484873D03*
X113502802Y-37984873D03*
G04 #@! TD*
M02*
