G04 #@! TF.GenerationSoftware,KiCad,Pcbnew,(5.0.1-3-g963ef8bb5)*
G04 #@! TF.CreationDate,2020-05-04T17:29:04+02:00*
G04 #@! TF.ProjectId,trackix,747261636B69782E6B696361645F7063,rev?*
G04 #@! TF.SameCoordinates,Original*
G04 #@! TF.FileFunction,Legend,Bot*
G04 #@! TF.FilePolarity,Positive*
%FSLAX46Y46*%
G04 Gerber Fmt 4.6, Leading zero omitted, Abs format (unit mm)*
G04 Created by KiCad (PCBNEW (5.0.1-3-g963ef8bb5)) date 2020 May 04, Monday 17:29:04*
%MOMM*%
%LPD*%
G01*
G04 APERTURE LIST*
%ADD10C,0.300000*%
%ADD11C,0.010000*%
%ADD12C,0.120000*%
%ADD13C,0.150000*%
G04 APERTURE END LIST*
D10*
X124250000Y-52571428D02*
X124178571Y-52428571D01*
X124178571Y-52214285D01*
X124250000Y-52000000D01*
X124392857Y-51857142D01*
X124535714Y-51785714D01*
X124821428Y-51714285D01*
X125035714Y-51714285D01*
X125321428Y-51785714D01*
X125464285Y-51857142D01*
X125607142Y-52000000D01*
X125678571Y-52214285D01*
X125678571Y-52357142D01*
X125607142Y-52571428D01*
X125535714Y-52642857D01*
X125035714Y-52642857D01*
X125035714Y-52357142D01*
X125678571Y-53285714D02*
X124178571Y-53285714D01*
X124178571Y-53857142D01*
X124250000Y-54000000D01*
X124321428Y-54071428D01*
X124464285Y-54142857D01*
X124678571Y-54142857D01*
X124821428Y-54071428D01*
X124892857Y-54000000D01*
X124964285Y-53857142D01*
X124964285Y-53285714D01*
X125607142Y-54714285D02*
X125678571Y-54928571D01*
X125678571Y-55285714D01*
X125607142Y-55428571D01*
X125535714Y-55500000D01*
X125392857Y-55571428D01*
X125250000Y-55571428D01*
X125107142Y-55500000D01*
X125035714Y-55428571D01*
X124964285Y-55285714D01*
X124892857Y-55000000D01*
X124821428Y-54857142D01*
X124750000Y-54785714D01*
X124607142Y-54714285D01*
X124464285Y-54714285D01*
X124321428Y-54785714D01*
X124250000Y-54857142D01*
X124178571Y-55000000D01*
X124178571Y-55357142D01*
X124250000Y-55571428D01*
X124178571Y-57142857D02*
X124178571Y-58000000D01*
X125678571Y-57571428D02*
X124178571Y-57571428D01*
X124178571Y-58357142D02*
X125678571Y-59357142D01*
X124178571Y-59357142D02*
X125678571Y-58357142D01*
X105278571Y-49550000D02*
X104564285Y-49050000D01*
X105278571Y-48692857D02*
X103778571Y-48692857D01*
X103778571Y-49264285D01*
X103850000Y-49407142D01*
X103921428Y-49478571D01*
X104064285Y-49550000D01*
X104278571Y-49550000D01*
X104421428Y-49478571D01*
X104492857Y-49407142D01*
X104564285Y-49264285D01*
X104564285Y-48692857D01*
X103778571Y-50050000D02*
X105278571Y-51050000D01*
X103778571Y-51050000D02*
X105278571Y-50050000D01*
X108778571Y-48557142D02*
X108778571Y-49414285D01*
X110278571Y-48985714D02*
X108778571Y-48985714D01*
X108778571Y-49771428D02*
X110278571Y-50771428D01*
X108778571Y-50771428D02*
X110278571Y-49771428D01*
X92350000Y-51107142D02*
X92350000Y-51821428D01*
X92778571Y-50964285D02*
X91278571Y-51464285D01*
X92778571Y-51964285D01*
X91278571Y-52464285D02*
X92492857Y-52464285D01*
X92635714Y-52535714D01*
X92707142Y-52607142D01*
X92778571Y-52750000D01*
X92778571Y-53035714D01*
X92707142Y-53178571D01*
X92635714Y-53250000D01*
X92492857Y-53321428D01*
X91278571Y-53321428D01*
X91278571Y-53892857D02*
X92778571Y-54892857D01*
X91278571Y-54892857D02*
X92778571Y-53892857D01*
X91992857Y-56607142D02*
X91992857Y-57107142D01*
X92778571Y-57321428D02*
X92778571Y-56607142D01*
X91278571Y-56607142D01*
X91278571Y-57321428D01*
X92778571Y-57964285D02*
X91278571Y-57964285D01*
X92778571Y-58821428D01*
X91278571Y-58821428D01*
X101178571Y-58328571D02*
X102678571Y-58828571D01*
X101178571Y-59328571D01*
X102535714Y-60685714D02*
X102607142Y-60614285D01*
X102678571Y-60400000D01*
X102678571Y-60257142D01*
X102607142Y-60042857D01*
X102464285Y-59900000D01*
X102321428Y-59828571D01*
X102035714Y-59757142D01*
X101821428Y-59757142D01*
X101535714Y-59828571D01*
X101392857Y-59900000D01*
X101250000Y-60042857D01*
X101178571Y-60257142D01*
X101178571Y-60400000D01*
X101250000Y-60614285D01*
X101321428Y-60685714D01*
X102535714Y-62185714D02*
X102607142Y-62114285D01*
X102678571Y-61900000D01*
X102678571Y-61757142D01*
X102607142Y-61542857D01*
X102464285Y-61400000D01*
X102321428Y-61328571D01*
X102035714Y-61257142D01*
X101821428Y-61257142D01*
X101535714Y-61328571D01*
X101392857Y-61400000D01*
X101250000Y-61542857D01*
X101178571Y-61757142D01*
X101178571Y-61900000D01*
X101250000Y-62114285D01*
X101321428Y-62185714D01*
X102678571Y-63971428D02*
X101178571Y-63971428D01*
X101178571Y-64328571D01*
X101250000Y-64542857D01*
X101392857Y-64685714D01*
X101535714Y-64757142D01*
X101821428Y-64828571D01*
X102035714Y-64828571D01*
X102321428Y-64757142D01*
X102464285Y-64685714D01*
X102607142Y-64542857D01*
X102678571Y-64328571D01*
X102678571Y-63971428D01*
X102535714Y-66328571D02*
X102607142Y-66257142D01*
X102678571Y-66042857D01*
X102678571Y-65900000D01*
X102607142Y-65685714D01*
X102464285Y-65542857D01*
X102321428Y-65471428D01*
X102035714Y-65400000D01*
X101821428Y-65400000D01*
X101535714Y-65471428D01*
X101392857Y-65542857D01*
X101250000Y-65685714D01*
X101178571Y-65900000D01*
X101178571Y-66042857D01*
X101250000Y-66257142D01*
X101321428Y-66328571D01*
X86650000Y-64057142D02*
X86578571Y-63914285D01*
X86578571Y-63700000D01*
X86650000Y-63485714D01*
X86792857Y-63342857D01*
X86935714Y-63271428D01*
X87221428Y-63200000D01*
X87435714Y-63200000D01*
X87721428Y-63271428D01*
X87864285Y-63342857D01*
X88007142Y-63485714D01*
X88078571Y-63700000D01*
X88078571Y-63842857D01*
X88007142Y-64057142D01*
X87935714Y-64128571D01*
X87435714Y-64128571D01*
X87435714Y-63842857D01*
X88078571Y-64771428D02*
X86578571Y-64771428D01*
X88078571Y-65628571D01*
X86578571Y-65628571D01*
X88078571Y-66342857D02*
X86578571Y-66342857D01*
X86578571Y-66700000D01*
X86650000Y-66914285D01*
X86792857Y-67057142D01*
X86935714Y-67128571D01*
X87221428Y-67200000D01*
X87435714Y-67200000D01*
X87721428Y-67128571D01*
X87864285Y-67057142D01*
X88007142Y-66914285D01*
X88078571Y-66700000D01*
X88078571Y-66342857D01*
X91678571Y-62885714D02*
X91678571Y-63814285D01*
X92250000Y-63314285D01*
X92250000Y-63528571D01*
X92321428Y-63671428D01*
X92392857Y-63742857D01*
X92535714Y-63814285D01*
X92892857Y-63814285D01*
X93035714Y-63742857D01*
X93107142Y-63671428D01*
X93178571Y-63528571D01*
X93178571Y-63100000D01*
X93107142Y-62957142D01*
X93035714Y-62885714D01*
X93035714Y-64457142D02*
X93107142Y-64528571D01*
X93178571Y-64457142D01*
X93107142Y-64385714D01*
X93035714Y-64457142D01*
X93178571Y-64457142D01*
X91678571Y-65028571D02*
X91678571Y-65957142D01*
X92250000Y-65457142D01*
X92250000Y-65671428D01*
X92321428Y-65814285D01*
X92392857Y-65885714D01*
X92535714Y-65957142D01*
X92892857Y-65957142D01*
X93035714Y-65885714D01*
X93107142Y-65814285D01*
X93178571Y-65671428D01*
X93178571Y-65242857D01*
X93107142Y-65100000D01*
X93035714Y-65028571D01*
X91678571Y-66385714D02*
X93178571Y-66885714D01*
X91678571Y-67385714D01*
X142766428Y-65103571D02*
X142195000Y-65103571D01*
X142552142Y-64603571D02*
X142552142Y-65889285D01*
X142480714Y-66032142D01*
X142337857Y-66103571D01*
X142195000Y-66103571D01*
X141695000Y-66103571D02*
X141695000Y-65103571D01*
X141695000Y-65389285D02*
X141623571Y-65246428D01*
X141552142Y-65175000D01*
X141409285Y-65103571D01*
X141266428Y-65103571D01*
X140123571Y-66103571D02*
X140123571Y-65317857D01*
X140195000Y-65175000D01*
X140337857Y-65103571D01*
X140623571Y-65103571D01*
X140766428Y-65175000D01*
X140123571Y-66032142D02*
X140266428Y-66103571D01*
X140623571Y-66103571D01*
X140766428Y-66032142D01*
X140837857Y-65889285D01*
X140837857Y-65746428D01*
X140766428Y-65603571D01*
X140623571Y-65532142D01*
X140266428Y-65532142D01*
X140123571Y-65460714D01*
X138766428Y-66032142D02*
X138909285Y-66103571D01*
X139195000Y-66103571D01*
X139337857Y-66032142D01*
X139409285Y-65960714D01*
X139480714Y-65817857D01*
X139480714Y-65389285D01*
X139409285Y-65246428D01*
X139337857Y-65175000D01*
X139195000Y-65103571D01*
X138909285Y-65103571D01*
X138766428Y-65175000D01*
X138123571Y-66103571D02*
X138123571Y-64603571D01*
X137980714Y-65532142D02*
X137552142Y-66103571D01*
X137552142Y-65103571D02*
X138123571Y-65675000D01*
X136909285Y-66103571D02*
X136909285Y-65103571D01*
X136909285Y-64603571D02*
X136980714Y-64675000D01*
X136909285Y-64746428D01*
X136837857Y-64675000D01*
X136909285Y-64603571D01*
X136909285Y-64746428D01*
X136337857Y-66103571D02*
X135552142Y-65103571D01*
X136337857Y-65103571D02*
X135552142Y-66103571D01*
X134052142Y-64603571D02*
X133552142Y-66103571D01*
X133052142Y-64603571D01*
X132909285Y-66246428D02*
X131766428Y-66246428D01*
X131123571Y-64603571D02*
X130980714Y-64603571D01*
X130837857Y-64675000D01*
X130766428Y-64746428D01*
X130695000Y-64889285D01*
X130623571Y-65175000D01*
X130623571Y-65532142D01*
X130695000Y-65817857D01*
X130766428Y-65960714D01*
X130837857Y-66032142D01*
X130980714Y-66103571D01*
X131123571Y-66103571D01*
X131266428Y-66032142D01*
X131337857Y-65960714D01*
X131409285Y-65817857D01*
X131480714Y-65532142D01*
X131480714Y-65175000D01*
X131409285Y-64889285D01*
X131337857Y-64746428D01*
X131266428Y-64675000D01*
X131123571Y-64603571D01*
X129980714Y-65960714D02*
X129909285Y-66032142D01*
X129980714Y-66103571D01*
X130052142Y-66032142D01*
X129980714Y-65960714D01*
X129980714Y-66103571D01*
X129337857Y-64746428D02*
X129266428Y-64675000D01*
X129123571Y-64603571D01*
X128766428Y-64603571D01*
X128623571Y-64675000D01*
X128552142Y-64746428D01*
X128480714Y-64889285D01*
X128480714Y-65032142D01*
X128552142Y-65246428D01*
X129409285Y-66103571D01*
X128480714Y-66103571D01*
X143052142Y-67296428D02*
X142980714Y-67225000D01*
X142837857Y-67153571D01*
X142480714Y-67153571D01*
X142337857Y-67225000D01*
X142266428Y-67296428D01*
X142195000Y-67439285D01*
X142195000Y-67582142D01*
X142266428Y-67796428D01*
X143123571Y-68653571D01*
X142195000Y-68653571D01*
X141266428Y-67153571D02*
X141123571Y-67153571D01*
X140980714Y-67225000D01*
X140909285Y-67296428D01*
X140837857Y-67439285D01*
X140766428Y-67725000D01*
X140766428Y-68082142D01*
X140837857Y-68367857D01*
X140909285Y-68510714D01*
X140980714Y-68582142D01*
X141123571Y-68653571D01*
X141266428Y-68653571D01*
X141409285Y-68582142D01*
X141480714Y-68510714D01*
X141552142Y-68367857D01*
X141623571Y-68082142D01*
X141623571Y-67725000D01*
X141552142Y-67439285D01*
X141480714Y-67296428D01*
X141409285Y-67225000D01*
X141266428Y-67153571D01*
X140195000Y-67296428D02*
X140123571Y-67225000D01*
X139980714Y-67153571D01*
X139623571Y-67153571D01*
X139480714Y-67225000D01*
X139409285Y-67296428D01*
X139337857Y-67439285D01*
X139337857Y-67582142D01*
X139409285Y-67796428D01*
X140266428Y-68653571D01*
X139337857Y-68653571D01*
X138409285Y-67153571D02*
X138266428Y-67153571D01*
X138123571Y-67225000D01*
X138052142Y-67296428D01*
X137980714Y-67439285D01*
X137909285Y-67725000D01*
X137909285Y-68082142D01*
X137980714Y-68367857D01*
X138052142Y-68510714D01*
X138123571Y-68582142D01*
X138266428Y-68653571D01*
X138409285Y-68653571D01*
X138552142Y-68582142D01*
X138623571Y-68510714D01*
X138695000Y-68367857D01*
X138766428Y-68082142D01*
X138766428Y-67725000D01*
X138695000Y-67439285D01*
X138623571Y-67296428D01*
X138552142Y-67225000D01*
X138409285Y-67153571D01*
X137266428Y-68082142D02*
X136123571Y-68082142D01*
X135123571Y-67153571D02*
X134980714Y-67153571D01*
X134837857Y-67225000D01*
X134766428Y-67296428D01*
X134695000Y-67439285D01*
X134623571Y-67725000D01*
X134623571Y-68082142D01*
X134695000Y-68367857D01*
X134766428Y-68510714D01*
X134837857Y-68582142D01*
X134980714Y-68653571D01*
X135123571Y-68653571D01*
X135266428Y-68582142D01*
X135337857Y-68510714D01*
X135409285Y-68367857D01*
X135480714Y-68082142D01*
X135480714Y-67725000D01*
X135409285Y-67439285D01*
X135337857Y-67296428D01*
X135266428Y-67225000D01*
X135123571Y-67153571D01*
X133266428Y-67153571D02*
X133980714Y-67153571D01*
X134052142Y-67867857D01*
X133980714Y-67796428D01*
X133837857Y-67725000D01*
X133480714Y-67725000D01*
X133337857Y-67796428D01*
X133266428Y-67867857D01*
X133195000Y-68010714D01*
X133195000Y-68367857D01*
X133266428Y-68510714D01*
X133337857Y-68582142D01*
X133480714Y-68653571D01*
X133837857Y-68653571D01*
X133980714Y-68582142D01*
X134052142Y-68510714D01*
X132552142Y-68082142D02*
X131409285Y-68082142D01*
X130409285Y-67153571D02*
X130266428Y-67153571D01*
X130123571Y-67225000D01*
X130052142Y-67296428D01*
X129980714Y-67439285D01*
X129909285Y-67725000D01*
X129909285Y-68082142D01*
X129980714Y-68367857D01*
X130052142Y-68510714D01*
X130123571Y-68582142D01*
X130266428Y-68653571D01*
X130409285Y-68653571D01*
X130552142Y-68582142D01*
X130623571Y-68510714D01*
X130695000Y-68367857D01*
X130766428Y-68082142D01*
X130766428Y-67725000D01*
X130695000Y-67439285D01*
X130623571Y-67296428D01*
X130552142Y-67225000D01*
X130409285Y-67153571D01*
X128623571Y-67653571D02*
X128623571Y-68653571D01*
X128980714Y-67082142D02*
X129337857Y-68153571D01*
X128409285Y-68153571D01*
D11*
G04 #@! TO.C,G\002A\002A\002A*
G36*
X70807200Y-55942600D02*
X72128000Y-55942600D01*
X72128000Y-54977400D01*
X70807200Y-54977400D01*
X70807200Y-55942600D01*
X70807200Y-55942600D01*
G37*
X70807200Y-55942600D02*
X72128000Y-55942600D01*
X72128000Y-54977400D01*
X70807200Y-54977400D01*
X70807200Y-55942600D01*
G36*
X69492373Y-55745750D02*
X69485645Y-56501400D01*
X69892423Y-56501400D01*
X70029699Y-56500276D01*
X70147181Y-56497172D01*
X70236377Y-56492485D01*
X70288790Y-56486613D01*
X70299111Y-56482350D01*
X70291988Y-56454143D01*
X70271868Y-56383455D01*
X70240558Y-56276398D01*
X70199862Y-56139086D01*
X70151587Y-55977633D01*
X70097537Y-55798153D01*
X70075922Y-55726700D01*
X69852823Y-54990100D01*
X69499100Y-54990100D01*
X69492373Y-55745750D01*
X69492373Y-55745750D01*
G37*
X69492373Y-55745750D02*
X69485645Y-56501400D01*
X69892423Y-56501400D01*
X70029699Y-56500276D01*
X70147181Y-56497172D01*
X70236377Y-56492485D01*
X70288790Y-56486613D01*
X70299111Y-56482350D01*
X70291988Y-56454143D01*
X70271868Y-56383455D01*
X70240558Y-56276398D01*
X70199862Y-56139086D01*
X70151587Y-55977633D01*
X70097537Y-55798153D01*
X70075922Y-55726700D01*
X69852823Y-54990100D01*
X69499100Y-54990100D01*
X69492373Y-55745750D01*
G36*
X67957627Y-56315869D02*
X67746347Y-56400987D01*
X67542988Y-56526811D01*
X67352982Y-56691294D01*
X67222838Y-56838375D01*
X67124200Y-56963161D01*
X67124200Y-57880621D01*
X67203430Y-57768860D01*
X67303638Y-57640261D01*
X67409182Y-57526831D01*
X67511274Y-57436742D01*
X67601130Y-57378165D01*
X67639841Y-57362942D01*
X67755323Y-57354941D01*
X67855342Y-57392693D01*
X67931295Y-57471620D01*
X67960693Y-57533766D01*
X67979911Y-57604930D01*
X67985350Y-57675978D01*
X67974643Y-57752938D01*
X67945420Y-57841838D01*
X67895313Y-57948707D01*
X67821953Y-58079572D01*
X67722970Y-58240463D01*
X67620179Y-58400324D01*
X67525050Y-58547745D01*
X67435737Y-58688487D01*
X67357289Y-58814414D01*
X67294755Y-58917388D01*
X67253180Y-58989273D01*
X67243734Y-59007131D01*
X67135266Y-59273618D01*
X67061448Y-59565206D01*
X67025692Y-59866938D01*
X67022792Y-59976066D01*
X67022600Y-60161433D01*
X66800350Y-59969408D01*
X66578100Y-59777384D01*
X66570971Y-60097974D01*
X66563841Y-60418565D01*
X66658480Y-60536432D01*
X66763804Y-60658665D01*
X66892582Y-60794383D01*
X67033960Y-60933299D01*
X67177085Y-61065127D01*
X67311102Y-61179582D01*
X67425159Y-61266377D01*
X67437890Y-61275050D01*
X67553326Y-61347131D01*
X67680552Y-61418480D01*
X67795955Y-61476015D01*
X67818890Y-61486152D01*
X67913126Y-61523477D01*
X67996676Y-61547582D01*
X68087388Y-61561892D01*
X68203106Y-61569833D01*
X68267200Y-61572214D01*
X68450249Y-61572307D01*
X68584904Y-61559353D01*
X68640935Y-61545899D01*
X68841054Y-61456818D01*
X69010070Y-61329011D01*
X69149997Y-61160620D01*
X69246294Y-60986956D01*
X69313886Y-60815613D01*
X69363530Y-60629690D01*
X69396397Y-60421093D01*
X69413659Y-60181728D01*
X69416485Y-59903502D01*
X69414944Y-59821422D01*
X69410200Y-59623545D01*
X69200650Y-59630922D01*
X68991100Y-59638300D01*
X68974255Y-59892300D01*
X68953145Y-60097871D01*
X68919241Y-60259205D01*
X68871030Y-60381595D01*
X68809996Y-60467248D01*
X68731211Y-60525247D01*
X68656067Y-60536401D01*
X68588579Y-60504665D01*
X68532758Y-60433992D01*
X68492618Y-60328336D01*
X68472172Y-60191653D01*
X68470400Y-60132632D01*
X68471323Y-60089025D01*
X68475647Y-60047127D01*
X68485708Y-60001384D01*
X68503839Y-59946242D01*
X68532377Y-59876149D01*
X68573654Y-59785550D01*
X68630007Y-59668892D01*
X68703770Y-59520621D01*
X68797278Y-59335185D01*
X68846591Y-59237796D01*
X68966914Y-58999408D01*
X69065955Y-58799996D01*
X69145868Y-58633468D01*
X69208810Y-58493730D01*
X69256934Y-58374689D01*
X69292398Y-58270253D01*
X69317356Y-58174327D01*
X69333964Y-58080819D01*
X69344377Y-57983636D01*
X69350752Y-57876684D01*
X69353554Y-57804708D01*
X69352449Y-57531941D01*
X69326780Y-57296786D01*
X69273701Y-57090935D01*
X69190366Y-56906076D01*
X69073927Y-56733897D01*
X68933234Y-56577668D01*
X68828032Y-56477363D01*
X68741773Y-56407433D01*
X68661649Y-56358600D01*
X68584700Y-56325207D01*
X68382234Y-56275933D01*
X68171400Y-56273502D01*
X67957627Y-56315869D01*
X67957627Y-56315869D01*
G37*
X67957627Y-56315869D02*
X67746347Y-56400987D01*
X67542988Y-56526811D01*
X67352982Y-56691294D01*
X67222838Y-56838375D01*
X67124200Y-56963161D01*
X67124200Y-57880621D01*
X67203430Y-57768860D01*
X67303638Y-57640261D01*
X67409182Y-57526831D01*
X67511274Y-57436742D01*
X67601130Y-57378165D01*
X67639841Y-57362942D01*
X67755323Y-57354941D01*
X67855342Y-57392693D01*
X67931295Y-57471620D01*
X67960693Y-57533766D01*
X67979911Y-57604930D01*
X67985350Y-57675978D01*
X67974643Y-57752938D01*
X67945420Y-57841838D01*
X67895313Y-57948707D01*
X67821953Y-58079572D01*
X67722970Y-58240463D01*
X67620179Y-58400324D01*
X67525050Y-58547745D01*
X67435737Y-58688487D01*
X67357289Y-58814414D01*
X67294755Y-58917388D01*
X67253180Y-58989273D01*
X67243734Y-59007131D01*
X67135266Y-59273618D01*
X67061448Y-59565206D01*
X67025692Y-59866938D01*
X67022792Y-59976066D01*
X67022600Y-60161433D01*
X66800350Y-59969408D01*
X66578100Y-59777384D01*
X66570971Y-60097974D01*
X66563841Y-60418565D01*
X66658480Y-60536432D01*
X66763804Y-60658665D01*
X66892582Y-60794383D01*
X67033960Y-60933299D01*
X67177085Y-61065127D01*
X67311102Y-61179582D01*
X67425159Y-61266377D01*
X67437890Y-61275050D01*
X67553326Y-61347131D01*
X67680552Y-61418480D01*
X67795955Y-61476015D01*
X67818890Y-61486152D01*
X67913126Y-61523477D01*
X67996676Y-61547582D01*
X68087388Y-61561892D01*
X68203106Y-61569833D01*
X68267200Y-61572214D01*
X68450249Y-61572307D01*
X68584904Y-61559353D01*
X68640935Y-61545899D01*
X68841054Y-61456818D01*
X69010070Y-61329011D01*
X69149997Y-61160620D01*
X69246294Y-60986956D01*
X69313886Y-60815613D01*
X69363530Y-60629690D01*
X69396397Y-60421093D01*
X69413659Y-60181728D01*
X69416485Y-59903502D01*
X69414944Y-59821422D01*
X69410200Y-59623545D01*
X69200650Y-59630922D01*
X68991100Y-59638300D01*
X68974255Y-59892300D01*
X68953145Y-60097871D01*
X68919241Y-60259205D01*
X68871030Y-60381595D01*
X68809996Y-60467248D01*
X68731211Y-60525247D01*
X68656067Y-60536401D01*
X68588579Y-60504665D01*
X68532758Y-60433992D01*
X68492618Y-60328336D01*
X68472172Y-60191653D01*
X68470400Y-60132632D01*
X68471323Y-60089025D01*
X68475647Y-60047127D01*
X68485708Y-60001384D01*
X68503839Y-59946242D01*
X68532377Y-59876149D01*
X68573654Y-59785550D01*
X68630007Y-59668892D01*
X68703770Y-59520621D01*
X68797278Y-59335185D01*
X68846591Y-59237796D01*
X68966914Y-58999408D01*
X69065955Y-58799996D01*
X69145868Y-58633468D01*
X69208810Y-58493730D01*
X69256934Y-58374689D01*
X69292398Y-58270253D01*
X69317356Y-58174327D01*
X69333964Y-58080819D01*
X69344377Y-57983636D01*
X69350752Y-57876684D01*
X69353554Y-57804708D01*
X69352449Y-57531941D01*
X69326780Y-57296786D01*
X69273701Y-57090935D01*
X69190366Y-56906076D01*
X69073927Y-56733897D01*
X68933234Y-56577668D01*
X68828032Y-56477363D01*
X68741773Y-56407433D01*
X68661649Y-56358600D01*
X68584700Y-56325207D01*
X68382234Y-56275933D01*
X68171400Y-56273502D01*
X67957627Y-56315869D01*
G36*
X83431000Y-61582390D02*
X84533692Y-61568700D01*
X85111809Y-59615853D01*
X85201957Y-59311731D01*
X85288127Y-59021791D01*
X85369212Y-58749711D01*
X85444106Y-58499167D01*
X85511703Y-58273837D01*
X85570896Y-58077397D01*
X85620579Y-57913524D01*
X85659647Y-57785894D01*
X85686992Y-57698185D01*
X85701508Y-57654073D01*
X85703463Y-57649470D01*
X85705970Y-57671568D01*
X85708348Y-57739996D01*
X85710553Y-57850282D01*
X85712539Y-57997957D01*
X85714262Y-58178549D01*
X85715678Y-58387589D01*
X85716742Y-58620606D01*
X85717410Y-58873128D01*
X85717621Y-59068916D01*
X85718244Y-59396226D01*
X85719783Y-59690700D01*
X85722194Y-59949695D01*
X85725430Y-60170569D01*
X85729445Y-60350679D01*
X85734194Y-60487380D01*
X85739632Y-60578031D01*
X85744417Y-60615493D01*
X85809724Y-60807663D01*
X85912522Y-60998184D01*
X86043776Y-61175039D01*
X86194449Y-61326214D01*
X86355505Y-61439693D01*
X86370256Y-61447676D01*
X86590375Y-61535619D01*
X86822804Y-61576178D01*
X87059076Y-61568328D01*
X87177500Y-61545559D01*
X87313583Y-61500383D01*
X87463436Y-61432699D01*
X87603104Y-61354018D01*
X87666450Y-61310566D01*
X87749000Y-61248614D01*
X87749000Y-60571842D01*
X87635253Y-60569559D01*
X87489085Y-60544546D01*
X87368950Y-60476148D01*
X87329841Y-60438340D01*
X87321093Y-60427680D01*
X87313401Y-60414134D01*
X87306684Y-60394520D01*
X87300865Y-60365660D01*
X87295865Y-60324374D01*
X87291606Y-60267481D01*
X87288008Y-60191802D01*
X87284993Y-60094158D01*
X87282483Y-59971367D01*
X87280398Y-59820250D01*
X87278661Y-59637628D01*
X87277193Y-59420321D01*
X87275914Y-59165149D01*
X87274747Y-58868931D01*
X87273613Y-58528488D01*
X87272434Y-58140641D01*
X87272350Y-58112598D01*
X87265600Y-55842916D01*
X87736300Y-55828300D01*
X87736300Y-54990100D01*
X85786603Y-54990100D01*
X85321818Y-56573666D01*
X85241410Y-56847101D01*
X85164971Y-57106025D01*
X85093729Y-57346340D01*
X85028916Y-57563944D01*
X84971761Y-57754738D01*
X84923493Y-57914621D01*
X84885342Y-58039495D01*
X84858537Y-58125258D01*
X84844310Y-58167811D01*
X84842517Y-58171749D01*
X84839984Y-58149645D01*
X84837590Y-58080968D01*
X84835376Y-57969946D01*
X84833380Y-57820805D01*
X84831639Y-57637773D01*
X84830194Y-57425077D01*
X84829082Y-57186945D01*
X84828343Y-56927602D01*
X84828014Y-56651278D01*
X84828000Y-56581833D01*
X84828000Y-54977400D01*
X83431000Y-54977400D01*
X83431000Y-61582390D01*
X83431000Y-61582390D01*
G37*
X83431000Y-61582390D02*
X84533692Y-61568700D01*
X85111809Y-59615853D01*
X85201957Y-59311731D01*
X85288127Y-59021791D01*
X85369212Y-58749711D01*
X85444106Y-58499167D01*
X85511703Y-58273837D01*
X85570896Y-58077397D01*
X85620579Y-57913524D01*
X85659647Y-57785894D01*
X85686992Y-57698185D01*
X85701508Y-57654073D01*
X85703463Y-57649470D01*
X85705970Y-57671568D01*
X85708348Y-57739996D01*
X85710553Y-57850282D01*
X85712539Y-57997957D01*
X85714262Y-58178549D01*
X85715678Y-58387589D01*
X85716742Y-58620606D01*
X85717410Y-58873128D01*
X85717621Y-59068916D01*
X85718244Y-59396226D01*
X85719783Y-59690700D01*
X85722194Y-59949695D01*
X85725430Y-60170569D01*
X85729445Y-60350679D01*
X85734194Y-60487380D01*
X85739632Y-60578031D01*
X85744417Y-60615493D01*
X85809724Y-60807663D01*
X85912522Y-60998184D01*
X86043776Y-61175039D01*
X86194449Y-61326214D01*
X86355505Y-61439693D01*
X86370256Y-61447676D01*
X86590375Y-61535619D01*
X86822804Y-61576178D01*
X87059076Y-61568328D01*
X87177500Y-61545559D01*
X87313583Y-61500383D01*
X87463436Y-61432699D01*
X87603104Y-61354018D01*
X87666450Y-61310566D01*
X87749000Y-61248614D01*
X87749000Y-60571842D01*
X87635253Y-60569559D01*
X87489085Y-60544546D01*
X87368950Y-60476148D01*
X87329841Y-60438340D01*
X87321093Y-60427680D01*
X87313401Y-60414134D01*
X87306684Y-60394520D01*
X87300865Y-60365660D01*
X87295865Y-60324374D01*
X87291606Y-60267481D01*
X87288008Y-60191802D01*
X87284993Y-60094158D01*
X87282483Y-59971367D01*
X87280398Y-59820250D01*
X87278661Y-59637628D01*
X87277193Y-59420321D01*
X87275914Y-59165149D01*
X87274747Y-58868931D01*
X87273613Y-58528488D01*
X87272434Y-58140641D01*
X87272350Y-58112598D01*
X87265600Y-55842916D01*
X87736300Y-55828300D01*
X87736300Y-54990100D01*
X85786603Y-54990100D01*
X85321818Y-56573666D01*
X85241410Y-56847101D01*
X85164971Y-57106025D01*
X85093729Y-57346340D01*
X85028916Y-57563944D01*
X84971761Y-57754738D01*
X84923493Y-57914621D01*
X84885342Y-58039495D01*
X84858537Y-58125258D01*
X84844310Y-58167811D01*
X84842517Y-58171749D01*
X84839984Y-58149645D01*
X84837590Y-58080968D01*
X84835376Y-57969946D01*
X84833380Y-57820805D01*
X84831639Y-57637773D01*
X84830194Y-57425077D01*
X84829082Y-57186945D01*
X84828343Y-56927602D01*
X84828014Y-56651278D01*
X84828000Y-56581833D01*
X84828000Y-54977400D01*
X83431000Y-54977400D01*
X83431000Y-61582390D01*
G36*
X82013541Y-56289759D02*
X81851831Y-56335924D01*
X81698638Y-56404229D01*
X81637422Y-56440922D01*
X81453079Y-56593381D01*
X81302554Y-56782715D01*
X81187297Y-57006642D01*
X81108760Y-57262883D01*
X81105908Y-57276100D01*
X81083402Y-57425557D01*
X81069664Y-57609930D01*
X81064704Y-57814097D01*
X81068527Y-58022936D01*
X81081141Y-58221325D01*
X81102553Y-58394140D01*
X81105376Y-58410545D01*
X81162367Y-58665391D01*
X81240085Y-58914330D01*
X81334981Y-59150905D01*
X81443508Y-59368659D01*
X81562116Y-59561136D01*
X81687256Y-59721878D01*
X81815382Y-59844430D01*
X81934110Y-59918470D01*
X82039828Y-59966143D01*
X82028805Y-60170521D01*
X82019178Y-60275258D01*
X82003759Y-60365699D01*
X81985539Y-60425119D01*
X81982145Y-60431307D01*
X81910003Y-60501984D01*
X81810209Y-60532398D01*
X81685156Y-60523248D01*
X81537239Y-60475233D01*
X81368853Y-60389052D01*
X81182391Y-60265403D01*
X81042591Y-60157090D01*
X80789400Y-59950069D01*
X80789400Y-56349000D01*
X80129793Y-56348999D01*
X79470185Y-56348999D01*
X79463043Y-58197987D01*
X79461619Y-58550158D01*
X79460195Y-58855076D01*
X79458674Y-59116291D01*
X79456960Y-59337350D01*
X79454956Y-59521802D01*
X79452566Y-59673193D01*
X79449693Y-59795073D01*
X79446241Y-59890990D01*
X79442113Y-59964491D01*
X79437213Y-60019124D01*
X79431444Y-60058438D01*
X79424709Y-60085981D01*
X79416912Y-60105300D01*
X79410865Y-60115687D01*
X79348794Y-60171782D01*
X79266107Y-60181726D01*
X79162539Y-60145647D01*
X79087600Y-60106895D01*
X79087600Y-56349000D01*
X77741400Y-56349000D01*
X77741400Y-58292897D01*
X77741310Y-58656836D01*
X77740996Y-58973242D01*
X77740394Y-59245382D01*
X77739441Y-59476523D01*
X77738073Y-59669930D01*
X77736225Y-59828871D01*
X77733835Y-59956613D01*
X77730838Y-60056421D01*
X77727170Y-60131564D01*
X77722767Y-60185306D01*
X77717566Y-60220917D01*
X77711503Y-60241660D01*
X77704513Y-60250805D01*
X77703104Y-60251489D01*
X77663315Y-60251734D01*
X77605224Y-60225443D01*
X77523515Y-60169391D01*
X77412873Y-60080355D01*
X77392150Y-60062849D01*
X77258800Y-59949629D01*
X77258800Y-56323600D01*
X76014200Y-56323600D01*
X76014200Y-56705184D01*
X75873551Y-56590624D01*
X75731532Y-56484984D01*
X75598356Y-56410833D01*
X75453787Y-56358005D01*
X75364419Y-56334897D01*
X75163728Y-56311462D01*
X74971917Y-56333381D01*
X74795830Y-56397849D01*
X74642314Y-56502064D01*
X74518210Y-56643225D01*
X74486638Y-56694300D01*
X74408675Y-56832443D01*
X74245262Y-56679578D01*
X74073131Y-56534850D01*
X73906366Y-56430768D01*
X73732643Y-56360356D01*
X73636050Y-56334863D01*
X73428628Y-56311190D01*
X73237448Y-56334550D01*
X73065476Y-56402941D01*
X72915680Y-56514360D01*
X72791025Y-56666805D01*
X72694480Y-56858274D01*
X72648579Y-57001261D01*
X72640529Y-57039177D01*
X72633659Y-57088951D01*
X72627883Y-57154490D01*
X72623113Y-57239699D01*
X72619263Y-57348482D01*
X72616246Y-57484747D01*
X72613974Y-57652397D01*
X72612361Y-57855338D01*
X72611319Y-58097475D01*
X72610761Y-58382714D01*
X72610600Y-58704633D01*
X72610483Y-59028067D01*
X72610072Y-59304353D01*
X72609278Y-59537143D01*
X72608012Y-59730089D01*
X72606185Y-59886842D01*
X72603708Y-60011055D01*
X72600491Y-60106379D01*
X72596446Y-60176465D01*
X72591484Y-60224967D01*
X72585515Y-60255535D01*
X72578450Y-60271821D01*
X72572241Y-60276914D01*
X72524349Y-60269543D01*
X72445860Y-60223174D01*
X72337843Y-60138530D01*
X72235950Y-60048400D01*
X72128000Y-59949330D01*
X72128000Y-56323600D01*
X70807200Y-56323600D01*
X70807200Y-58263589D01*
X70807215Y-58633339D01*
X70807116Y-58955449D01*
X70806694Y-59233080D01*
X70805737Y-59469393D01*
X70804034Y-59667549D01*
X70801374Y-59830707D01*
X70797546Y-59962029D01*
X70792337Y-60064674D01*
X70785538Y-60141805D01*
X70776937Y-60196580D01*
X70766322Y-60232161D01*
X70753484Y-60251708D01*
X70738209Y-60258382D01*
X70720288Y-60255343D01*
X70699508Y-60245752D01*
X70675660Y-60232769D01*
X70675618Y-60232747D01*
X70634407Y-60204231D01*
X70564996Y-60149471D01*
X70476923Y-60076230D01*
X70379729Y-59992270D01*
X70375545Y-59988585D01*
X70134100Y-59775801D01*
X70119866Y-60415253D01*
X70342883Y-60699641D01*
X70488265Y-60877888D01*
X70635754Y-61045634D01*
X70779423Y-61196963D01*
X70913341Y-61325959D01*
X71031581Y-61426705D01*
X71128215Y-61493286D01*
X71149338Y-61504401D01*
X71288131Y-61550591D01*
X71438772Y-61566900D01*
X71582523Y-61552726D01*
X71675359Y-61521330D01*
X71828819Y-61419086D01*
X71951894Y-61276793D01*
X72044897Y-61093990D01*
X72101929Y-60900119D01*
X72142437Y-60714139D01*
X72353609Y-60969697D01*
X72530367Y-61173935D01*
X72686543Y-61333675D01*
X72823527Y-61450220D01*
X72942706Y-61524875D01*
X72946231Y-61526582D01*
X73026660Y-61556523D01*
X73124267Y-61581007D01*
X73221370Y-61596893D01*
X73300289Y-61601039D01*
X73334500Y-61595566D01*
X73376631Y-61583213D01*
X73430391Y-61570277D01*
X73505316Y-61536082D01*
X73592697Y-61469810D01*
X73679462Y-61383303D01*
X73752541Y-61288404D01*
X73766600Y-61265680D01*
X73794399Y-61216303D01*
X73818219Y-61167393D01*
X73838368Y-61114767D01*
X73855153Y-61054241D01*
X73868882Y-60981631D01*
X73879862Y-60892755D01*
X73888401Y-60783428D01*
X73894806Y-60649467D01*
X73899386Y-60486689D01*
X73902447Y-60290910D01*
X73904297Y-60057946D01*
X73905243Y-59783615D01*
X73905594Y-59463732D01*
X73905625Y-59374546D01*
X73906079Y-59028324D01*
X73907278Y-58730566D01*
X73909269Y-58478946D01*
X73912096Y-58271132D01*
X73915806Y-58104796D01*
X73920442Y-57977609D01*
X73926052Y-57887240D01*
X73932679Y-57831361D01*
X73935938Y-57817071D01*
X73986051Y-57715761D01*
X74059819Y-57648710D01*
X74147503Y-57620387D01*
X74239366Y-57635261D01*
X74281349Y-57658540D01*
X74337800Y-57698080D01*
X74337800Y-61581400D01*
X75634339Y-61581400D01*
X75632547Y-59716610D01*
X75632190Y-59349526D01*
X75632041Y-59029847D01*
X75632356Y-58754182D01*
X75633389Y-58519134D01*
X75635397Y-58321311D01*
X75638635Y-58157318D01*
X75643358Y-58023762D01*
X75649821Y-57917249D01*
X75658279Y-57834384D01*
X75668988Y-57771775D01*
X75682204Y-57726026D01*
X75698180Y-57693745D01*
X75717173Y-57671537D01*
X75739439Y-57656009D01*
X75765231Y-57643766D01*
X75789217Y-57633787D01*
X75876747Y-57612744D01*
X75942568Y-57624398D01*
X76014200Y-57649369D01*
X76014200Y-61581400D01*
X77257628Y-61581400D01*
X77271500Y-60686584D01*
X77358479Y-60807761D01*
X77438015Y-60909303D01*
X77538794Y-61024304D01*
X77651893Y-61143917D01*
X77768387Y-61259296D01*
X77879352Y-61361594D01*
X77975863Y-61441965D01*
X78047496Y-61490753D01*
X78209224Y-61554249D01*
X78340315Y-61575264D01*
X78441431Y-61579449D01*
X78518931Y-61569250D01*
X78599093Y-61539836D01*
X78641159Y-61519962D01*
X78794031Y-61417595D01*
X78915120Y-61276437D01*
X79003131Y-61098331D01*
X79046288Y-60943406D01*
X79076757Y-60794036D01*
X79157931Y-60899653D01*
X79210080Y-60963906D01*
X79285076Y-61051795D01*
X79371202Y-61149730D01*
X79426566Y-61211200D01*
X79569870Y-61356049D01*
X79701502Y-61459865D01*
X79830504Y-61527999D01*
X79965925Y-61565800D01*
X80042115Y-61575264D01*
X80215248Y-61565827D01*
X80371441Y-61510714D01*
X80507383Y-61413187D01*
X80619761Y-61276508D01*
X80705265Y-61103939D01*
X80760581Y-60898741D01*
X80766619Y-60861691D01*
X80794306Y-60675534D01*
X81001403Y-60881689D01*
X81261840Y-61110137D01*
X81560884Y-61314430D01*
X81827779Y-61461079D01*
X81929722Y-61510812D01*
X82006335Y-61542005D01*
X82076105Y-61558954D01*
X82157523Y-61565953D01*
X82269077Y-61567298D01*
X82284979Y-61567284D01*
X82447362Y-61559934D01*
X82580232Y-61534315D01*
X82697528Y-61484368D01*
X82813192Y-61404033D01*
X82941161Y-61287250D01*
X82950544Y-61277948D01*
X83044713Y-61178050D01*
X83109660Y-61091317D01*
X83157061Y-61000783D01*
X83178715Y-60946400D01*
X83239643Y-60781300D01*
X83247392Y-59206500D01*
X83248876Y-58876626D01*
X83249784Y-58593389D01*
X83250039Y-58352626D01*
X83249743Y-58226462D01*
X82034000Y-58226462D01*
X82034000Y-59089557D01*
X81958448Y-59063219D01*
X81893976Y-59027227D01*
X81824974Y-58969417D01*
X81806001Y-58949303D01*
X81704340Y-58805399D01*
X81613511Y-58616737D01*
X81547516Y-58431159D01*
X81524203Y-58350995D01*
X81507802Y-58275689D01*
X81497142Y-58193557D01*
X81491057Y-58092914D01*
X81488378Y-57962077D01*
X81487900Y-57834900D01*
X81490394Y-57635535D01*
X81498770Y-57479512D01*
X81514372Y-57359575D01*
X81538546Y-57268469D01*
X81572636Y-57198939D01*
X81615511Y-57146180D01*
X81695511Y-57097208D01*
X81788124Y-57085750D01*
X81874986Y-57112278D01*
X81909227Y-57138626D01*
X81941283Y-57172862D01*
X81967332Y-57208645D01*
X81987996Y-57251391D01*
X82003894Y-57306513D01*
X82015649Y-57379425D01*
X82023881Y-57475541D01*
X82029211Y-57600275D01*
X82032260Y-57759041D01*
X82033649Y-57957253D01*
X82033999Y-58200326D01*
X82034000Y-58226462D01*
X83249743Y-58226462D01*
X83249564Y-58150177D01*
X83248282Y-57981879D01*
X83246115Y-57843571D01*
X83242986Y-57731092D01*
X83238816Y-57640280D01*
X83233529Y-57566973D01*
X83227048Y-57507011D01*
X83219294Y-57456232D01*
X83214325Y-57430048D01*
X83146143Y-57179325D01*
X83049546Y-56950263D01*
X82928516Y-56747242D01*
X82787038Y-56574641D01*
X82629094Y-56436841D01*
X82458669Y-56338219D01*
X82279746Y-56283157D01*
X82161727Y-56272799D01*
X82013541Y-56289759D01*
X82013541Y-56289759D01*
G37*
X82013541Y-56289759D02*
X81851831Y-56335924D01*
X81698638Y-56404229D01*
X81637422Y-56440922D01*
X81453079Y-56593381D01*
X81302554Y-56782715D01*
X81187297Y-57006642D01*
X81108760Y-57262883D01*
X81105908Y-57276100D01*
X81083402Y-57425557D01*
X81069664Y-57609930D01*
X81064704Y-57814097D01*
X81068527Y-58022936D01*
X81081141Y-58221325D01*
X81102553Y-58394140D01*
X81105376Y-58410545D01*
X81162367Y-58665391D01*
X81240085Y-58914330D01*
X81334981Y-59150905D01*
X81443508Y-59368659D01*
X81562116Y-59561136D01*
X81687256Y-59721878D01*
X81815382Y-59844430D01*
X81934110Y-59918470D01*
X82039828Y-59966143D01*
X82028805Y-60170521D01*
X82019178Y-60275258D01*
X82003759Y-60365699D01*
X81985539Y-60425119D01*
X81982145Y-60431307D01*
X81910003Y-60501984D01*
X81810209Y-60532398D01*
X81685156Y-60523248D01*
X81537239Y-60475233D01*
X81368853Y-60389052D01*
X81182391Y-60265403D01*
X81042591Y-60157090D01*
X80789400Y-59950069D01*
X80789400Y-56349000D01*
X80129793Y-56348999D01*
X79470185Y-56348999D01*
X79463043Y-58197987D01*
X79461619Y-58550158D01*
X79460195Y-58855076D01*
X79458674Y-59116291D01*
X79456960Y-59337350D01*
X79454956Y-59521802D01*
X79452566Y-59673193D01*
X79449693Y-59795073D01*
X79446241Y-59890990D01*
X79442113Y-59964491D01*
X79437213Y-60019124D01*
X79431444Y-60058438D01*
X79424709Y-60085981D01*
X79416912Y-60105300D01*
X79410865Y-60115687D01*
X79348794Y-60171782D01*
X79266107Y-60181726D01*
X79162539Y-60145647D01*
X79087600Y-60106895D01*
X79087600Y-56349000D01*
X77741400Y-56349000D01*
X77741400Y-58292897D01*
X77741310Y-58656836D01*
X77740996Y-58973242D01*
X77740394Y-59245382D01*
X77739441Y-59476523D01*
X77738073Y-59669930D01*
X77736225Y-59828871D01*
X77733835Y-59956613D01*
X77730838Y-60056421D01*
X77727170Y-60131564D01*
X77722767Y-60185306D01*
X77717566Y-60220917D01*
X77711503Y-60241660D01*
X77704513Y-60250805D01*
X77703104Y-60251489D01*
X77663315Y-60251734D01*
X77605224Y-60225443D01*
X77523515Y-60169391D01*
X77412873Y-60080355D01*
X77392150Y-60062849D01*
X77258800Y-59949629D01*
X77258800Y-56323600D01*
X76014200Y-56323600D01*
X76014200Y-56705184D01*
X75873551Y-56590624D01*
X75731532Y-56484984D01*
X75598356Y-56410833D01*
X75453787Y-56358005D01*
X75364419Y-56334897D01*
X75163728Y-56311462D01*
X74971917Y-56333381D01*
X74795830Y-56397849D01*
X74642314Y-56502064D01*
X74518210Y-56643225D01*
X74486638Y-56694300D01*
X74408675Y-56832443D01*
X74245262Y-56679578D01*
X74073131Y-56534850D01*
X73906366Y-56430768D01*
X73732643Y-56360356D01*
X73636050Y-56334863D01*
X73428628Y-56311190D01*
X73237448Y-56334550D01*
X73065476Y-56402941D01*
X72915680Y-56514360D01*
X72791025Y-56666805D01*
X72694480Y-56858274D01*
X72648579Y-57001261D01*
X72640529Y-57039177D01*
X72633659Y-57088951D01*
X72627883Y-57154490D01*
X72623113Y-57239699D01*
X72619263Y-57348482D01*
X72616246Y-57484747D01*
X72613974Y-57652397D01*
X72612361Y-57855338D01*
X72611319Y-58097475D01*
X72610761Y-58382714D01*
X72610600Y-58704633D01*
X72610483Y-59028067D01*
X72610072Y-59304353D01*
X72609278Y-59537143D01*
X72608012Y-59730089D01*
X72606185Y-59886842D01*
X72603708Y-60011055D01*
X72600491Y-60106379D01*
X72596446Y-60176465D01*
X72591484Y-60224967D01*
X72585515Y-60255535D01*
X72578450Y-60271821D01*
X72572241Y-60276914D01*
X72524349Y-60269543D01*
X72445860Y-60223174D01*
X72337843Y-60138530D01*
X72235950Y-60048400D01*
X72128000Y-59949330D01*
X72128000Y-56323600D01*
X70807200Y-56323600D01*
X70807200Y-58263589D01*
X70807215Y-58633339D01*
X70807116Y-58955449D01*
X70806694Y-59233080D01*
X70805737Y-59469393D01*
X70804034Y-59667549D01*
X70801374Y-59830707D01*
X70797546Y-59962029D01*
X70792337Y-60064674D01*
X70785538Y-60141805D01*
X70776937Y-60196580D01*
X70766322Y-60232161D01*
X70753484Y-60251708D01*
X70738209Y-60258382D01*
X70720288Y-60255343D01*
X70699508Y-60245752D01*
X70675660Y-60232769D01*
X70675618Y-60232747D01*
X70634407Y-60204231D01*
X70564996Y-60149471D01*
X70476923Y-60076230D01*
X70379729Y-59992270D01*
X70375545Y-59988585D01*
X70134100Y-59775801D01*
X70119866Y-60415253D01*
X70342883Y-60699641D01*
X70488265Y-60877888D01*
X70635754Y-61045634D01*
X70779423Y-61196963D01*
X70913341Y-61325959D01*
X71031581Y-61426705D01*
X71128215Y-61493286D01*
X71149338Y-61504401D01*
X71288131Y-61550591D01*
X71438772Y-61566900D01*
X71582523Y-61552726D01*
X71675359Y-61521330D01*
X71828819Y-61419086D01*
X71951894Y-61276793D01*
X72044897Y-61093990D01*
X72101929Y-60900119D01*
X72142437Y-60714139D01*
X72353609Y-60969697D01*
X72530367Y-61173935D01*
X72686543Y-61333675D01*
X72823527Y-61450220D01*
X72942706Y-61524875D01*
X72946231Y-61526582D01*
X73026660Y-61556523D01*
X73124267Y-61581007D01*
X73221370Y-61596893D01*
X73300289Y-61601039D01*
X73334500Y-61595566D01*
X73376631Y-61583213D01*
X73430391Y-61570277D01*
X73505316Y-61536082D01*
X73592697Y-61469810D01*
X73679462Y-61383303D01*
X73752541Y-61288404D01*
X73766600Y-61265680D01*
X73794399Y-61216303D01*
X73818219Y-61167393D01*
X73838368Y-61114767D01*
X73855153Y-61054241D01*
X73868882Y-60981631D01*
X73879862Y-60892755D01*
X73888401Y-60783428D01*
X73894806Y-60649467D01*
X73899386Y-60486689D01*
X73902447Y-60290910D01*
X73904297Y-60057946D01*
X73905243Y-59783615D01*
X73905594Y-59463732D01*
X73905625Y-59374546D01*
X73906079Y-59028324D01*
X73907278Y-58730566D01*
X73909269Y-58478946D01*
X73912096Y-58271132D01*
X73915806Y-58104796D01*
X73920442Y-57977609D01*
X73926052Y-57887240D01*
X73932679Y-57831361D01*
X73935938Y-57817071D01*
X73986051Y-57715761D01*
X74059819Y-57648710D01*
X74147503Y-57620387D01*
X74239366Y-57635261D01*
X74281349Y-57658540D01*
X74337800Y-57698080D01*
X74337800Y-61581400D01*
X75634339Y-61581400D01*
X75632547Y-59716610D01*
X75632190Y-59349526D01*
X75632041Y-59029847D01*
X75632356Y-58754182D01*
X75633389Y-58519134D01*
X75635397Y-58321311D01*
X75638635Y-58157318D01*
X75643358Y-58023762D01*
X75649821Y-57917249D01*
X75658279Y-57834384D01*
X75668988Y-57771775D01*
X75682204Y-57726026D01*
X75698180Y-57693745D01*
X75717173Y-57671537D01*
X75739439Y-57656009D01*
X75765231Y-57643766D01*
X75789217Y-57633787D01*
X75876747Y-57612744D01*
X75942568Y-57624398D01*
X76014200Y-57649369D01*
X76014200Y-61581400D01*
X77257628Y-61581400D01*
X77271500Y-60686584D01*
X77358479Y-60807761D01*
X77438015Y-60909303D01*
X77538794Y-61024304D01*
X77651893Y-61143917D01*
X77768387Y-61259296D01*
X77879352Y-61361594D01*
X77975863Y-61441965D01*
X78047496Y-61490753D01*
X78209224Y-61554249D01*
X78340315Y-61575264D01*
X78441431Y-61579449D01*
X78518931Y-61569250D01*
X78599093Y-61539836D01*
X78641159Y-61519962D01*
X78794031Y-61417595D01*
X78915120Y-61276437D01*
X79003131Y-61098331D01*
X79046288Y-60943406D01*
X79076757Y-60794036D01*
X79157931Y-60899653D01*
X79210080Y-60963906D01*
X79285076Y-61051795D01*
X79371202Y-61149730D01*
X79426566Y-61211200D01*
X79569870Y-61356049D01*
X79701502Y-61459865D01*
X79830504Y-61527999D01*
X79965925Y-61565800D01*
X80042115Y-61575264D01*
X80215248Y-61565827D01*
X80371441Y-61510714D01*
X80507383Y-61413187D01*
X80619761Y-61276508D01*
X80705265Y-61103939D01*
X80760581Y-60898741D01*
X80766619Y-60861691D01*
X80794306Y-60675534D01*
X81001403Y-60881689D01*
X81261840Y-61110137D01*
X81560884Y-61314430D01*
X81827779Y-61461079D01*
X81929722Y-61510812D01*
X82006335Y-61542005D01*
X82076105Y-61558954D01*
X82157523Y-61565953D01*
X82269077Y-61567298D01*
X82284979Y-61567284D01*
X82447362Y-61559934D01*
X82580232Y-61534315D01*
X82697528Y-61484368D01*
X82813192Y-61404033D01*
X82941161Y-61287250D01*
X82950544Y-61277948D01*
X83044713Y-61178050D01*
X83109660Y-61091317D01*
X83157061Y-61000783D01*
X83178715Y-60946400D01*
X83239643Y-60781300D01*
X83247392Y-59206500D01*
X83248876Y-58876626D01*
X83249784Y-58593389D01*
X83250039Y-58352626D01*
X83249743Y-58226462D01*
X82034000Y-58226462D01*
X82034000Y-59089557D01*
X81958448Y-59063219D01*
X81893976Y-59027227D01*
X81824974Y-58969417D01*
X81806001Y-58949303D01*
X81704340Y-58805399D01*
X81613511Y-58616737D01*
X81547516Y-58431159D01*
X81524203Y-58350995D01*
X81507802Y-58275689D01*
X81497142Y-58193557D01*
X81491057Y-58092914D01*
X81488378Y-57962077D01*
X81487900Y-57834900D01*
X81490394Y-57635535D01*
X81498770Y-57479512D01*
X81514372Y-57359575D01*
X81538546Y-57268469D01*
X81572636Y-57198939D01*
X81615511Y-57146180D01*
X81695511Y-57097208D01*
X81788124Y-57085750D01*
X81874986Y-57112278D01*
X81909227Y-57138626D01*
X81941283Y-57172862D01*
X81967332Y-57208645D01*
X81987996Y-57251391D01*
X82003894Y-57306513D01*
X82015649Y-57379425D01*
X82023881Y-57475541D01*
X82029211Y-57600275D01*
X82032260Y-57759041D01*
X82033649Y-57957253D01*
X82033999Y-58200326D01*
X82034000Y-58226462D01*
X83249743Y-58226462D01*
X83249564Y-58150177D01*
X83248282Y-57981879D01*
X83246115Y-57843571D01*
X83242986Y-57731092D01*
X83238816Y-57640280D01*
X83233529Y-57566973D01*
X83227048Y-57507011D01*
X83219294Y-57456232D01*
X83214325Y-57430048D01*
X83146143Y-57179325D01*
X83049546Y-56950263D01*
X82928516Y-56747242D01*
X82787038Y-56574641D01*
X82629094Y-56436841D01*
X82458669Y-56338219D01*
X82279746Y-56283157D01*
X82161727Y-56272799D01*
X82013541Y-56289759D01*
D12*
G04 #@! TO.C,TP1*
X70800000Y-71550000D02*
X70800000Y-72950000D01*
X72200000Y-71550000D02*
X70800000Y-71550000D01*
X72200000Y-72950000D02*
X72200000Y-71550000D01*
X70800000Y-72950000D02*
X72200000Y-72950000D01*
G04 #@! TO.C,TP2*
X76550000Y-72950000D02*
X77950000Y-72950000D01*
X77950000Y-72950000D02*
X77950000Y-71550000D01*
X77950000Y-71550000D02*
X76550000Y-71550000D01*
X76550000Y-71550000D02*
X76550000Y-72950000D01*
G04 #@! TO.C,TP3*
X86600000Y-67700000D02*
X86600000Y-69100000D01*
X86600000Y-69100000D02*
X88000000Y-69100000D01*
X88000000Y-69100000D02*
X88000000Y-67700000D01*
X88000000Y-67700000D02*
X86600000Y-67700000D01*
G04 #@! TO.C,TP4*
X102700000Y-66800000D02*
X101300000Y-66800000D01*
X102700000Y-68200000D02*
X102700000Y-66800000D01*
X101300000Y-68200000D02*
X102700000Y-68200000D01*
X101300000Y-66800000D02*
X101300000Y-68200000D01*
G04 #@! TO.C,TP5*
X91300000Y-59300000D02*
X91300000Y-60700000D01*
X92700000Y-59300000D02*
X91300000Y-59300000D01*
X92700000Y-60700000D02*
X92700000Y-59300000D01*
X91300000Y-60700000D02*
X92700000Y-60700000D01*
G04 #@! TO.C,TP6*
X124300000Y-61200000D02*
X125700000Y-61200000D01*
X125700000Y-61200000D02*
X125700000Y-59800000D01*
X125700000Y-59800000D02*
X124300000Y-59800000D01*
X124300000Y-59800000D02*
X124300000Y-61200000D01*
G04 #@! TO.C,TP7*
X108800000Y-52700000D02*
X110200000Y-52700000D01*
X110200000Y-52700000D02*
X110200000Y-51300000D01*
X110200000Y-51300000D02*
X108800000Y-51300000D01*
X108800000Y-51300000D02*
X108800000Y-52700000D01*
G04 #@! TO.C,TP8*
X103800000Y-51300000D02*
X103800000Y-52700000D01*
X105200000Y-51300000D02*
X103800000Y-51300000D01*
X105200000Y-52700000D02*
X105200000Y-51300000D01*
X103800000Y-52700000D02*
X105200000Y-52700000D01*
G04 #@! TO.C,TP9*
X91600000Y-67700000D02*
X91600000Y-69100000D01*
X93000000Y-67700000D02*
X91600000Y-67700000D01*
X93000000Y-69100000D02*
X93000000Y-67700000D01*
X91600000Y-69100000D02*
X93000000Y-69100000D01*
G04 #@! TO.C,TP1*
D13*
X72761904Y-73150380D02*
X72190476Y-73150380D01*
X72476190Y-74150380D02*
X72476190Y-73150380D01*
X71857142Y-74150380D02*
X71857142Y-73150380D01*
X71476190Y-73150380D01*
X71380952Y-73198000D01*
X71333333Y-73245619D01*
X71285714Y-73340857D01*
X71285714Y-73483714D01*
X71333333Y-73578952D01*
X71380952Y-73626571D01*
X71476190Y-73674190D01*
X71857142Y-73674190D01*
X70333333Y-74150380D02*
X70904761Y-74150380D01*
X70619047Y-74150380D02*
X70619047Y-73150380D01*
X70714285Y-73293238D01*
X70809523Y-73388476D01*
X70904761Y-73436095D01*
G04 #@! TO.C,TP2*
X78511904Y-73150380D02*
X77940476Y-73150380D01*
X78226190Y-74150380D02*
X78226190Y-73150380D01*
X77607142Y-74150380D02*
X77607142Y-73150380D01*
X77226190Y-73150380D01*
X77130952Y-73198000D01*
X77083333Y-73245619D01*
X77035714Y-73340857D01*
X77035714Y-73483714D01*
X77083333Y-73578952D01*
X77130952Y-73626571D01*
X77226190Y-73674190D01*
X77607142Y-73674190D01*
X76654761Y-73245619D02*
X76607142Y-73198000D01*
X76511904Y-73150380D01*
X76273809Y-73150380D01*
X76178571Y-73198000D01*
X76130952Y-73245619D01*
X76083333Y-73340857D01*
X76083333Y-73436095D01*
X76130952Y-73578952D01*
X76702380Y-74150380D01*
X76083333Y-74150380D01*
G04 #@! TO.C,TP3*
X86215249Y-67669456D02*
X85643821Y-67669456D01*
X85929535Y-68669456D02*
X85929535Y-67669456D01*
X85310487Y-68669456D02*
X85310487Y-67669456D01*
X84929535Y-67669456D01*
X84834297Y-67717076D01*
X84786678Y-67764695D01*
X84739059Y-67859933D01*
X84739059Y-68002790D01*
X84786678Y-68098028D01*
X84834297Y-68145647D01*
X84929535Y-68193266D01*
X85310487Y-68193266D01*
X84405725Y-67669456D02*
X83786678Y-67669456D01*
X84120011Y-68050409D01*
X83977154Y-68050409D01*
X83881916Y-68098028D01*
X83834297Y-68145647D01*
X83786678Y-68240885D01*
X83786678Y-68478980D01*
X83834297Y-68574218D01*
X83881916Y-68621837D01*
X83977154Y-68669456D01*
X84262868Y-68669456D01*
X84358106Y-68621837D01*
X84405725Y-68574218D01*
G04 #@! TO.C,TP4*
X100915249Y-66769456D02*
X100343821Y-66769456D01*
X100629535Y-67769456D02*
X100629535Y-66769456D01*
X100010487Y-67769456D02*
X100010487Y-66769456D01*
X99629535Y-66769456D01*
X99534297Y-66817076D01*
X99486678Y-66864695D01*
X99439059Y-66959933D01*
X99439059Y-67102790D01*
X99486678Y-67198028D01*
X99534297Y-67245647D01*
X99629535Y-67293266D01*
X100010487Y-67293266D01*
X98581916Y-67102790D02*
X98581916Y-67769456D01*
X98820011Y-66721837D02*
X99058106Y-67436123D01*
X98439059Y-67436123D01*
G04 #@! TO.C,TP5*
X93261904Y-60900380D02*
X92690476Y-60900380D01*
X92976190Y-61900380D02*
X92976190Y-60900380D01*
X92357142Y-61900380D02*
X92357142Y-60900380D01*
X91976190Y-60900380D01*
X91880952Y-60948000D01*
X91833333Y-60995619D01*
X91785714Y-61090857D01*
X91785714Y-61233714D01*
X91833333Y-61328952D01*
X91880952Y-61376571D01*
X91976190Y-61424190D01*
X92357142Y-61424190D01*
X90880952Y-60900380D02*
X91357142Y-60900380D01*
X91404761Y-61376571D01*
X91357142Y-61328952D01*
X91261904Y-61281333D01*
X91023809Y-61281333D01*
X90928571Y-61328952D01*
X90880952Y-61376571D01*
X90833333Y-61471809D01*
X90833333Y-61709904D01*
X90880952Y-61805142D01*
X90928571Y-61852761D01*
X91023809Y-61900380D01*
X91261904Y-61900380D01*
X91357142Y-61852761D01*
X91404761Y-61805142D01*
G04 #@! TO.C,TP6*
X126261904Y-61400380D02*
X125690476Y-61400380D01*
X125976190Y-62400380D02*
X125976190Y-61400380D01*
X125357142Y-62400380D02*
X125357142Y-61400380D01*
X124976190Y-61400380D01*
X124880952Y-61448000D01*
X124833333Y-61495619D01*
X124785714Y-61590857D01*
X124785714Y-61733714D01*
X124833333Y-61828952D01*
X124880952Y-61876571D01*
X124976190Y-61924190D01*
X125357142Y-61924190D01*
X123928571Y-61400380D02*
X124119047Y-61400380D01*
X124214285Y-61448000D01*
X124261904Y-61495619D01*
X124357142Y-61638476D01*
X124404761Y-61828952D01*
X124404761Y-62209904D01*
X124357142Y-62305142D01*
X124309523Y-62352761D01*
X124214285Y-62400380D01*
X124023809Y-62400380D01*
X123928571Y-62352761D01*
X123880952Y-62305142D01*
X123833333Y-62209904D01*
X123833333Y-61971809D01*
X123880952Y-61876571D01*
X123928571Y-61828952D01*
X124023809Y-61781333D01*
X124214285Y-61781333D01*
X124309523Y-61828952D01*
X124357142Y-61876571D01*
X124404761Y-61971809D01*
G04 #@! TO.C,TP7*
X110761904Y-52900380D02*
X110190476Y-52900380D01*
X110476190Y-53900380D02*
X110476190Y-52900380D01*
X109857142Y-53900380D02*
X109857142Y-52900380D01*
X109476190Y-52900380D01*
X109380952Y-52948000D01*
X109333333Y-52995619D01*
X109285714Y-53090857D01*
X109285714Y-53233714D01*
X109333333Y-53328952D01*
X109380952Y-53376571D01*
X109476190Y-53424190D01*
X109857142Y-53424190D01*
X108952380Y-52900380D02*
X108285714Y-52900380D01*
X108714285Y-53900380D01*
G04 #@! TO.C,TP8*
X105761904Y-52900380D02*
X105190476Y-52900380D01*
X105476190Y-53900380D02*
X105476190Y-52900380D01*
X104857142Y-53900380D02*
X104857142Y-52900380D01*
X104476190Y-52900380D01*
X104380952Y-52948000D01*
X104333333Y-52995619D01*
X104285714Y-53090857D01*
X104285714Y-53233714D01*
X104333333Y-53328952D01*
X104380952Y-53376571D01*
X104476190Y-53424190D01*
X104857142Y-53424190D01*
X103714285Y-53328952D02*
X103809523Y-53281333D01*
X103857142Y-53233714D01*
X103904761Y-53138476D01*
X103904761Y-53090857D01*
X103857142Y-52995619D01*
X103809523Y-52948000D01*
X103714285Y-52900380D01*
X103523809Y-52900380D01*
X103428571Y-52948000D01*
X103380952Y-52995619D01*
X103333333Y-53090857D01*
X103333333Y-53138476D01*
X103380952Y-53233714D01*
X103428571Y-53281333D01*
X103523809Y-53328952D01*
X103714285Y-53328952D01*
X103809523Y-53376571D01*
X103857142Y-53424190D01*
X103904761Y-53519428D01*
X103904761Y-53709904D01*
X103857142Y-53805142D01*
X103809523Y-53852761D01*
X103714285Y-53900380D01*
X103523809Y-53900380D01*
X103428571Y-53852761D01*
X103380952Y-53805142D01*
X103333333Y-53709904D01*
X103333333Y-53519428D01*
X103380952Y-53424190D01*
X103428571Y-53376571D01*
X103523809Y-53328952D01*
G04 #@! TO.C,TP9*
X93561904Y-69300380D02*
X92990476Y-69300380D01*
X93276190Y-70300380D02*
X93276190Y-69300380D01*
X92657142Y-70300380D02*
X92657142Y-69300380D01*
X92276190Y-69300380D01*
X92180952Y-69348000D01*
X92133333Y-69395619D01*
X92085714Y-69490857D01*
X92085714Y-69633714D01*
X92133333Y-69728952D01*
X92180952Y-69776571D01*
X92276190Y-69824190D01*
X92657142Y-69824190D01*
X91609523Y-70300380D02*
X91419047Y-70300380D01*
X91323809Y-70252761D01*
X91276190Y-70205142D01*
X91180952Y-70062285D01*
X91133333Y-69871809D01*
X91133333Y-69490857D01*
X91180952Y-69395619D01*
X91228571Y-69348000D01*
X91323809Y-69300380D01*
X91514285Y-69300380D01*
X91609523Y-69348000D01*
X91657142Y-69395619D01*
X91704761Y-69490857D01*
X91704761Y-69728952D01*
X91657142Y-69824190D01*
X91609523Y-69871809D01*
X91514285Y-69919428D01*
X91323809Y-69919428D01*
X91228571Y-69871809D01*
X91180952Y-69824190D01*
X91133333Y-69728952D01*
G04 #@! TD*
M02*
